<svg xmlns="http://www.w3.org/2000/svg" width="75" height="75" fill="none" viewBox="0 0 75 75">
    <g fill="#20B4B3" clip-path="url(#clip0)">
        <path d="M37.5 23.438c-2.584 0-4.688 2.103-4.688 4.687v4.688h9.376v-4.688c0-2.584-2.104-4.688-4.688-4.688z"/>
        <path d="M67.65.46c-1.627-.78-3.554-.556-4.964.575-5.857 4.708-16.4 4.706-22.247.002-1.717-1.382-4.161-1.38-5.878-.002-5.854 4.708-16.401 4.706-22.247.002C10.906-.096 8.973-.32 7.35.46c-1.626.779-2.663 2.424-2.663 4.228l-.002 37.5c0 14.692 11.778 26.888 31.505 32.627.428.123.867.185 1.31.185.44 0 .88-.062 1.309-.185 19.727-5.739 31.503-17.932 31.503-32.627v-37.5c0-1.804-1.035-3.45-2.662-4.227zM51.564 46.876c0 2.59-2.099 4.687-4.688 4.687h-18.75c-2.589 0-4.688-2.097-4.688-4.687V37.5c0-2.59 2.099-4.688 4.688-4.688v-4.687c0-5.169 4.205-9.375 9.375-9.375s9.375 4.206 9.375 9.375v4.687c2.59 0 4.688 2.099 4.688 4.688v9.375z"/>
        <path d="M37.5 39.844c-1.294 0-2.344 1.05-2.344 2.343 0 1.296 1.05 2.344 2.344 2.344 1.294 0 2.344-1.048 2.344-2.343s-1.05-2.344-2.344-2.344z"/>
    </g>
    <defs>
        <clipPath id="clip0">
            <path fill="#fff" d="M0 0H75V75H0z"/>
        </clipPath>
    </defs>
</svg>
