<svg width="30" height="30" viewBox="0 0 30 30" fill="none" xmlns="http://www.w3.org/2000/svg">
<path d="M16.4516 14.5161V18.361L14.0323 17.5544V16.199C14.8602 15.5144 15.4732 14.5824 15.7689 13.5194C16.9674 13.3766 17.9032 12.3653 17.9032 11.129V7.25806C17.9032 3.25597 14.6473 0 10.6452 0C6.64306 0 3.3871 3.25597 3.3871 7.25806V11.129C3.3871 12.3653 4.3229 13.3766 5.52145 13.5194C5.8171 14.5824 6.43016 15.5144 7.25806 16.199V17.5544L2.31581 19.2024C0.930968 19.6635 0 20.955 0 22.4148V27.0968H16.4516V30H30V17.7029L26.8132 14.5161H16.4516ZM27.0968 16.1681L28.3481 17.4194H27.0968V16.1681ZM14.4416 18.7108L13.7042 22.3969L11.3913 20.7445L13.679 18.4568L14.4416 18.7108ZM15.9474 12.4979C15.9576 12.3648 15.9677 12.2323 15.9677 12.0968V9.76645C16.5295 9.96677 16.9355 10.499 16.9355 11.129C16.9355 11.7663 16.5198 12.3034 15.9474 12.4979ZM4.35484 11.129C4.35484 10.499 4.76081 9.96677 5.32258 9.76645V12.0968C5.32258 12.2323 5.33274 12.3648 5.3429 12.4979C4.77048 12.3034 4.35484 11.7663 4.35484 11.129ZM5.41548 8.74935C5.02065 8.81419 4.66113 8.97435 4.35484 9.20613V7.25806C4.35484 3.78968 7.17677 0.967742 10.6452 0.967742C14.1135 0.967742 16.9355 3.78968 16.9355 7.25806V9.20613C16.6292 8.97435 16.2697 8.81419 15.8748 8.74935C15.571 7.61419 14.536 6.77419 13.3065 6.77419C12.734 6.77419 12.1674 6.96339 11.7097 7.30694L10.6452 8.10484L9.58113 7.30694C9.1229 6.96339 8.55629 6.77419 7.98387 6.77419C6.75435 6.77419 5.71935 7.61419 5.41548 8.74935ZM6.29032 12.0968V9.43548C6.29032 8.50161 7.05 7.74194 7.98387 7.74194C8.34823 7.74194 8.70871 7.86242 9.00048 8.08065L10.6452 9.31452L12.2903 8.08065C12.5816 7.86242 12.9421 7.74194 13.3065 7.74194C14.2403 7.74194 15 8.50161 15 9.43548V12.0968C15 14.4982 13.0466 16.4516 10.6452 16.4516C8.24371 16.4516 6.29032 14.4982 6.29032 12.0968ZM10.6452 17.4194C11.5166 17.4194 12.3377 17.2045 13.0645 16.8319V17.7029L10.6452 20.1223L8.22581 17.7029V16.8319C8.95258 17.2045 9.77371 17.4194 10.6452 17.4194ZM7.61129 18.4568L9.89903 20.7445L7.58613 22.3969L6.84871 18.7108L7.61129 18.4568ZM4.83871 26.129V23.2258H3.87097V26.129H0.967742V22.4148C0.967742 21.3721 1.63258 20.4494 2.6221 20.1198L5.92355 19.0195L6.93048 24.0547L10.6452 21.4011L14.3603 24.0547L15.3673 19.0195L16.4516 19.3805V26.129H4.83871ZM17.4194 29.0323V15.4839H26.129V18.3871H29.0323V29.0323H17.4194Z" fill="#20b4b3"/>
<path d="M23.2266 28.0643H28.0653V23.2256H23.2266V28.0643ZM24.1943 24.1933H27.0975V27.0966H24.1943V24.1933Z" fill="#20b4b3"/>
<path d="M22.2577 27.0967H18.3867V28.0644H22.2577V27.0967Z" fill="#20b4b3"/>
<path d="M22.2577 25.1611H18.3867V26.1289H22.2577V25.1611Z" fill="#20b4b3"/>
<path d="M22.2577 23.2256H18.3867V24.1933H22.2577V23.2256Z" fill="#20b4b3"/>
<path d="M19.3545 16.4512H18.3867V17.4189H19.3545V16.4512Z" fill="#20b4b3"/>
<path d="M25.161 16.4512H20.3223V17.4189H25.161V16.4512Z" fill="#20b4b3"/>
<path d="M25.1609 18.3867H18.3867V19.3545H25.1609V18.3867Z" fill="#20b4b3"/>
<path d="M28.0654 20.3223H27.0977V21.29H28.0654V20.3223Z" fill="#20b4b3"/>
<path d="M26.1287 20.3223H18.3867V21.29H26.1287V20.3223Z" fill="#20b4b3"/>
<path fill-rule="evenodd" clip-rule="evenodd" d="M24.678 12.5807C27.0832 12.5807 29.0329 10.631 29.0329 8.2259C29.0329 5.82079 27.0832 3.87106 24.678 3.87106C22.2729 3.87106 20.3232 5.82079 20.3232 8.2259C20.3232 10.631 22.2729 12.5807 24.678 12.5807ZM24.678 13.5485C27.6176 13.5485 30.0006 11.1655 30.0006 8.2259C30.0006 5.28632 27.6176 2.90332 24.678 2.90332C21.7385 2.90332 19.3555 5.28632 19.3555 8.2259C19.3555 11.1655 21.7385 13.5485 24.678 13.5485Z" fill="#20b4b3"/>
<path fill-rule="evenodd" clip-rule="evenodd" d="M22.3981 10.054L26.5039 5.94824L27.1882 6.63254L23.0824 10.7383L22.3981 10.054Z" fill="#20b4b3"/>
<path fill-rule="evenodd" clip-rule="evenodd" d="M23.0837 5.94793L27.1895 10.0537L26.5052 10.738L22.3994 6.63223L23.0837 5.94793Z" fill="#20b4b3"/>
</svg>
