<svg width="31" height="31" viewBox="0 0 31 31" fill="none" xmlns="http://www.w3.org/2000/svg">
<path fill-rule="evenodd" clip-rule="evenodd" d="M23.418 21.4718C23.418 21.1255 23.6987 20.8447 24.045 20.8447H29.4714C29.8177 20.8447 30.0984 21.1255 30.0984 21.4718V29.753C30.0984 30.0993 29.8177 30.3801 29.4714 30.3801H24.045C23.6987 30.3801 23.418 30.0993 23.418 29.753V21.4718ZM24.672 22.0988V29.126H28.8443V22.0988H24.672Z" fill="#20b4b3"/>
<path fill-rule="evenodd" clip-rule="evenodd" d="M15.6113 11.8565C15.6113 11.5102 15.8921 11.2295 16.2384 11.2295H21.6641C22.0104 11.2295 22.2912 11.5102 22.2912 11.8565V29.7528C22.2912 30.0991 22.0104 30.3798 21.6641 30.3798H16.2384C15.8921 30.3798 15.6113 30.0991 15.6113 29.7528V11.8565ZM16.8654 12.4836V29.1258H21.0371V12.4836H16.8654Z" fill="#20b4b3"/>
<path fill-rule="evenodd" clip-rule="evenodd" d="M7.80664 17.6641C7.80664 17.3178 8.08737 17.0371 8.43368 17.0371H13.8594C14.2057 17.0371 14.4865 17.3178 14.4865 17.6641V29.7534C14.4865 30.0997 14.2057 30.3805 13.8594 30.3805H8.43368C8.08737 30.3805 7.80664 30.0997 7.80664 29.7534V17.6641ZM9.06071 18.2912V29.1264H13.2324V18.2912H9.06071Z" fill="#20b4b3"/>
<path fill-rule="evenodd" clip-rule="evenodd" d="M0 6.52547C0 6.17917 0.280734 5.89844 0.627037 5.89844H6.05404C6.40035 5.89844 6.68108 6.17917 6.68108 6.52547V29.7522C6.68108 30.0985 6.40035 30.3792 6.05404 30.3792H0.627037C0.280734 30.3792 0 30.0985 0 29.7522V6.52547ZM1.25407 7.15251V29.1251H5.42701V7.15251H1.25407Z" fill="#20b4b3"/>
<path fill-rule="evenodd" clip-rule="evenodd" d="M5.55552 0.625059C5.76644 0.350393 6.16008 0.298712 6.43474 0.509625L11.8885 4.69752L18.5639 2.38462C18.7304 2.32691 18.9136 2.34198 19.0685 2.42613L27.9242 7.23739C28.2284 7.40271 28.3411 7.78341 28.1758 8.0877C28.0105 8.39199 27.6298 8.50465 27.3255 8.33933L18.713 3.66018L11.9798 5.99308C11.7806 6.06213 11.5599 6.02637 11.3927 5.89793L5.67096 1.50428C5.39629 1.29337 5.34461 0.899725 5.55552 0.625059Z" fill="#20b4b3"/>
<path fill-rule="evenodd" clip-rule="evenodd" d="M26.6908 3.74764C27.0121 3.61837 27.3774 3.77401 27.5066 4.09528L29.0096 7.83054C29.0729 7.98768 29.0698 8.16371 29.0012 8.31858C28.9326 8.47345 28.8043 8.59397 28.6454 8.65272L25.2256 9.91745C24.9008 10.0376 24.5401 9.87164 24.42 9.54684C24.2998 9.22204 24.4658 8.86136 24.7906 8.74124L27.6054 7.70025L26.3432 4.56342C26.2139 4.24215 26.3696 3.87692 26.6908 3.74764Z" fill="#20b4b3"/>
</svg>
