<svg width="30" height="31" viewBox="0 0 30 31" fill="none" xmlns="http://www.w3.org/2000/svg">
<path d="M8.32248 6.79876C8.22867 6.36331 7.99245 5.97152 7.65114 5.68529C7.30983 5.39906 6.88288 5.2347 6.43774 5.21818C5.9926 5.20165 5.55465 5.33391 5.19306 5.59405C4.83146 5.85418 4.56685 6.22738 4.44101 6.65468C4.31517 7.08198 4.33528 7.53903 4.49816 7.95362C4.66104 8.36822 4.95741 8.71673 5.34046 8.94411C5.7235 9.17148 6.17138 9.26476 6.61334 9.2092C7.05531 9.15365 7.46617 8.95243 7.78102 8.63732C8.01848 8.40104 8.19256 8.10872 8.2872 7.78738C8.38183 7.46604 8.39397 7.12603 8.32248 6.79876ZM7.10906 7.96542C6.98589 8.09133 6.83255 8.18362 6.66363 8.23351C6.49472 8.28341 6.31584 8.28925 6.14403 8.25047C5.95001 8.20642 5.7724 8.10839 5.63172 7.96771C5.49103 7.82702 5.393 7.64941 5.34895 7.45539C5.31636 7.30256 5.31812 7.14439 5.35413 6.99233C5.39013 6.84026 5.45947 6.69809 5.55714 6.5761C5.6548 6.45411 5.77835 6.35534 5.91885 6.28693C6.05935 6.21852 6.2133 6.18219 6.36956 6.18055C6.44667 6.18064 6.52355 6.18899 6.59889 6.20545C6.79286 6.24951 6.97042 6.34752 7.11107 6.48817C7.25173 6.62881 7.34976 6.80636 7.39383 7.00033C7.43263 7.17213 7.42683 7.351 7.37699 7.51992C7.32714 7.68885 7.23491 7.84221 7.10906 7.96542V7.96542Z" fill="#636F6E"/>
<path d="M18.2915 19.8679C18.4175 19.8679 18.5383 19.8178 18.6274 19.7287C18.7165 19.6396 18.7666 19.5188 18.7666 19.3928V17.3247C18.7666 17.1987 18.7165 17.0779 18.6274 16.9888C18.5383 16.8997 18.4175 16.8496 18.2915 16.8496C18.1655 16.8496 18.0446 16.8997 17.9556 16.9888C17.8665 17.0779 17.8164 17.1987 17.8164 17.3247V19.3928C17.8164 19.5188 17.8665 19.6396 17.9556 19.7287C18.0446 19.8178 18.1655 19.8679 18.2915 19.8679V19.8679Z" fill="#636F6E"/>
<path d="M5.94357 20.31C6.27087 20.3806 6.61066 20.3681 6.93185 20.2734C7.25305 20.1788 7.54539 20.0052 7.78216 19.7684C8.01892 19.5317 8.19254 19.2393 8.28714 18.9181C8.38173 18.5969 8.39429 18.2571 8.32366 17.9298V17.9298C8.24668 17.5799 8.07698 17.257 7.83235 16.9952C7.58772 16.7334 7.27716 16.5422 6.93322 16.4416C6.58929 16.341 6.22463 16.3348 5.87748 16.4237C5.53033 16.5125 5.21346 16.6931 4.96008 16.9464C4.7067 17.1998 4.52614 17.5167 4.43733 17.8639C4.34852 18.211 4.35472 18.5757 4.45528 18.9196C4.55585 19.2635 4.74708 19.5741 5.00892 19.8187C5.27077 20.0633 5.5936 20.233 5.94357 20.31V20.31ZM5.63517 17.6214C5.73108 17.5235 5.84554 17.4457 5.97187 17.3925C6.0982 17.3393 6.23387 17.3118 6.37094 17.3116C6.44805 17.3117 6.52493 17.3201 6.60027 17.3365C6.79424 17.3806 6.9718 17.4786 7.11246 17.6192C7.25311 17.7599 7.35114 17.9374 7.39521 18.1314V18.1314C7.43206 18.3033 7.42529 18.4816 7.37552 18.6502C7.32576 18.8187 7.23457 18.9722 7.1103 19.0964C6.98602 19.2207 6.8326 19.3119 6.66403 19.3617C6.49547 19.4114 6.31713 19.4182 6.14528 19.3813C5.95127 19.3373 5.77366 19.2393 5.63297 19.0987C5.49227 18.958 5.39422 18.7805 5.35013 18.5865C5.31135 18.4147 5.31719 18.2358 5.36709 18.0669C5.41698 17.898 5.50927 17.7446 5.63517 17.6214Z" fill="#636F6E"/>
<path d="M16.2563 19.8679C16.3823 19.8679 16.5032 19.8178 16.5923 19.7287C16.6814 19.6396 16.7314 19.5188 16.7314 19.3928V17.3247C16.7314 17.1987 16.6814 17.0779 16.5923 16.9888C16.5032 16.8997 16.3823 16.8496 16.2563 16.8496C16.1303 16.8496 16.0095 16.8997 15.9204 16.9888C15.8313 17.0779 15.7812 17.1987 15.7812 17.3247V19.3928C15.7813 19.5188 15.8313 19.6396 15.9204 19.7287C16.0095 19.8178 16.1303 19.8679 16.2563 19.8679V19.8679Z" fill="#636F6E"/>
<path d="M20.3286 19.8679C20.4546 19.8679 20.5754 19.8178 20.6645 19.7287C20.7536 19.6396 20.8037 19.5188 20.8037 19.3928V17.3247C20.8037 17.1987 20.7536 17.0779 20.6645 16.9888C20.5754 16.8997 20.4546 16.8496 20.3286 16.8496C20.2026 16.8496 20.0818 16.8997 19.9927 16.9888C19.9036 17.0779 19.8535 17.1987 19.8535 17.3247V19.3928C19.8535 19.5188 19.9036 19.6396 19.9927 19.7287C20.0818 19.8178 20.2026 19.8679 20.3286 19.8679V19.8679Z" fill="#636F6E"/>
<path d="M29.0505 0.379883H9.674C9.41156 0.379883 9.19756 0.558717 9.19756 0.821029V2.82316H3.27141C2.13718 2.82316 1.18906 3.71224 1.18906 4.84646V9.61003C1.18906 10.7442 2.13718 11.6461 3.27141 11.6461H12.1159V13.9536H3.27141C2.13718 13.9536 1.18906 14.8427 1.18906 15.9769V20.7405C1.18906 21.8747 2.13718 22.7766 3.27141 22.7766H12.1159V25.1575C11.03 25.354 10.1665 26.2379 9.96998 27.2559H3.49381C3.40346 26.9372 3.22603 26.6501 2.98146 26.4267C2.73689 26.2034 2.43487 26.0527 2.10935 25.9915C1.78383 25.9304 1.44771 25.9613 1.13877 26.0807C0.82983 26.2001 0.560311 26.4033 0.360505 26.6674C0.160699 26.9316 0.0385275 27.2462 0.00772039 27.576C-0.0230868 27.9058 0.0386919 28.2376 0.186113 28.5342C0.333534 28.8308 0.560755 29.0804 0.842237 29.2549C1.12372 29.4295 1.44831 29.5221 1.77952 29.5223C2.59598 29.5223 3.28545 29.0205 3.49381 28.206H9.96998C10.1946 29.4956 11.277 30.3799 12.5754 30.3799C13.8738 30.3799 14.9562 29.4956 15.1808 28.206H21.657C21.8653 29.0205 22.5548 29.5262 23.3714 29.5262C23.7026 29.5259 24.0271 29.4333 24.3086 29.2588C24.5901 29.0843 24.8173 28.8348 24.9648 28.5382C25.1123 28.2417 25.1742 27.9099 25.1436 27.5802C25.113 27.2504 24.991 26.9357 24.7914 26.6714C24.5919 26.4071 24.3226 26.2037 24.0138 26.084C23.705 25.9643 23.3689 25.933 23.0433 25.9937C22.7178 26.0544 22.4156 26.2047 22.1707 26.4277C21.9258 26.6506 21.7479 26.9374 21.657 27.2559H15.1808C15.0764 26.7357 14.8196 26.2583 14.443 25.8846C14.0664 25.5109 13.5871 25.2578 13.0661 25.1575V22.7766H21.8793C22.1477 22.7784 22.4137 22.727 22.6621 22.6255C22.9105 22.5239 23.1363 22.3742 23.3265 22.1849C23.5167 21.9956 23.6675 21.7705 23.7703 21.5226C23.873 21.2746 23.9256 21.0088 23.9251 20.7405V15.9769C23.9254 15.7092 23.8725 15.4442 23.7695 15.1971C23.6665 14.95 23.5155 14.7258 23.3252 14.5376C23.1349 14.3493 22.909 14.2008 22.6608 14.1005C22.4126 14.0003 22.147 13.9504 21.8793 13.9536H13.0661V11.6461H21.8793C22.1477 11.6479 22.4137 11.5966 22.6621 11.495C22.9105 11.3935 23.1363 11.2437 23.3265 11.0544C23.5167 10.8651 23.6675 10.64 23.7703 10.3921C23.873 10.1442 23.9256 9.87838 23.9251 9.61003V7.09888H29.0505C29.1833 7.09251 29.309 7.0368 29.4029 6.94265C29.4968 6.8485 29.5522 6.7227 29.5582 6.58987V0.821029C29.5582 0.558717 29.3129 0.379883 29.0505 0.379883ZM1.77952 28.592C1.61551 28.592 1.45519 28.5434 1.31883 28.4523C1.18246 28.3612 1.07618 28.2316 1.01342 28.0801C0.950656 27.9286 0.934234 27.7619 0.96623 27.601C0.998226 27.4402 1.0772 27.2924 1.19317 27.1764C1.30914 27.0605 1.45689 26.9815 1.61774 26.9495C1.7786 26.9175 1.94532 26.9339 2.09685 26.9967C2.24837 27.0595 2.37787 27.1657 2.46899 27.3021C2.5601 27.4385 2.60874 27.5988 2.60874 27.7628C2.60848 27.9826 2.52104 28.1934 2.36559 28.3489C2.21013 28.5043 1.99936 28.5918 1.77952 28.592V28.592ZM23.3715 26.9336C23.5355 26.9336 23.6959 26.9822 23.8322 27.0733C23.9686 27.1644 24.0749 27.2939 24.1376 27.4455C24.2004 27.597 24.2168 27.7637 24.1848 27.9246C24.1528 28.0854 24.0738 28.2332 23.9579 28.3491C23.8419 28.4651 23.6942 28.5441 23.5333 28.5761C23.3725 28.6081 23.2057 28.5917 23.0542 28.5289C22.9027 28.4661 22.7732 28.3599 22.6821 28.2235C22.5909 28.0871 22.5423 27.9268 22.5423 27.7628C22.5426 27.543 22.63 27.3322 22.7854 27.1768C22.9408 27.0213 23.1516 26.9339 23.3714 26.9336H23.3715ZM14.2741 27.7628C14.2741 28.0988 14.1745 28.4272 13.9879 28.7066C13.8012 28.9859 13.5359 29.2037 13.2255 29.3322C12.9151 29.4608 12.5735 29.4945 12.244 29.4289C11.9145 29.3634 11.6118 29.2016 11.3742 28.964C11.1366 28.7264 10.9748 28.4237 10.9093 28.0942C10.8437 27.7647 10.8774 27.4231 11.0059 27.1127C11.1345 26.8023 11.3523 26.537 11.6316 26.3503C11.911 26.1637 12.2394 26.064 12.5754 26.064C12.7991 26.0616 13.0211 26.1039 13.2283 26.1884C13.4355 26.2729 13.6237 26.398 13.782 26.5562C13.9402 26.7144 14.0652 26.9027 14.1498 27.1099C14.2343 27.3171 14.2766 27.539 14.2741 27.7628V27.7628ZM22.9749 20.7874C22.9749 20.9328 22.9463 21.0767 22.8906 21.211C22.835 21.3453 22.7535 21.4673 22.6507 21.5701C22.5479 21.6729 22.4259 21.7544 22.2916 21.81C22.1573 21.8656 22.0133 21.8943 21.868 21.8943H3.24616C3.1008 21.8943 2.95686 21.8656 2.82256 21.81C2.68826 21.7544 2.56623 21.6729 2.46344 21.5701C2.36065 21.4673 2.27911 21.3453 2.22348 21.211C2.16785 21.0767 2.13922 20.9328 2.13922 20.7874V16.0107C2.13922 15.8653 2.16785 15.7214 2.22348 15.5871C2.27911 15.4528 2.36065 15.3307 2.46344 15.228C2.56623 15.1252 2.68826 15.0436 2.82256 14.988C2.95686 14.9324 3.1008 14.9038 3.24616 14.9038H21.868C22.0133 14.9038 22.1573 14.9324 22.2916 14.988C22.4259 15.0436 22.5479 15.1252 22.6507 15.228C22.7535 15.3307 22.835 15.4528 22.8906 15.5871C22.9463 15.7214 22.9749 15.8653 22.9749 16.0107V20.7874ZM22.9749 9.61003C22.9756 9.75364 22.9477 9.89596 22.8927 10.0287C22.8378 10.1614 22.757 10.2818 22.655 10.3829C22.553 10.484 22.4318 10.5637 22.2987 10.6175C22.1655 10.6712 22.0229 10.6979 21.8793 10.6959H3.27141C2.66106 10.6959 2.13922 10.2204 2.13922 9.61003V4.84646C2.13922 4.23611 2.66106 3.77332 3.27141 3.77332H9.19756V6.58987C9.19756 6.85225 9.41156 7.09888 9.674 7.09888H15.7808V8.26229C15.7808 8.38829 15.8309 8.50913 15.92 8.59822C16.0091 8.68732 16.1299 8.73737 16.2559 8.73737C16.3819 8.73737 16.5027 8.68732 16.5918 8.59822C16.6809 8.50913 16.731 8.38829 16.731 8.26229V7.09888H17.8169V8.26229C17.8169 8.38829 17.8669 8.50913 17.956 8.59822C18.0451 8.68732 18.166 8.73737 18.292 8.73737C18.418 8.73737 18.5388 8.68732 18.6279 8.59822C18.717 8.50913 18.7671 8.38829 18.7671 8.26229V7.09888H19.8529V8.26229C19.8529 8.38829 19.903 8.50913 19.9921 8.59822C20.0812 8.68732 20.202 8.73737 20.328 8.73737C20.454 8.73737 20.5749 8.68732 20.664 8.59822C20.7531 8.50913 20.8031 8.38829 20.8031 8.26229V7.09888H22.9749V9.61003ZM28.608 6.14872H10.1477V1.33004H28.608V6.14872Z" fill="#636F6E"/>
<path d="M19.3618 5.04789C19.6273 5.04789 19.8868 4.96917 20.1076 4.82168C20.3283 4.67419 20.5004 4.46455 20.602 4.21928C20.7036 3.97401 20.7301 3.70412 20.6784 3.44374C20.6266 3.18336 20.4987 2.94419 20.311 2.75646C20.1233 2.56873 19.8841 2.44088 19.6238 2.38908C19.3634 2.33728 19.0935 2.36385 18.8482 2.46544C18.6029 2.56703 18.3933 2.73906 18.2458 2.95979C18.0983 3.18053 18.0195 3.44004 18.0195 3.70552C18.0199 4.06141 18.1614 4.40262 18.4131 4.65428C18.6647 4.90594 19.0059 5.0475 19.3618 5.04789V5.04789ZM19.3618 3.31344C19.4394 3.31344 19.5152 3.33644 19.5797 3.37954C19.6442 3.42263 19.6945 3.48388 19.7241 3.55554C19.7538 3.6272 19.7616 3.70605 19.7464 3.78212C19.7313 3.85819 19.694 3.92806 19.6391 3.9829C19.5843 4.03774 19.5144 4.07508 19.4383 4.09021C19.3622 4.10533 19.2834 4.09755 19.2117 4.06786C19.1401 4.03817 19.0788 3.9879 19.0357 3.9234C18.9927 3.85891 18.9697 3.78308 18.9697 3.70552C18.9698 3.60157 19.0112 3.50191 19.0847 3.42841C19.1582 3.35492 19.2579 3.31357 19.3618 3.31344Z" fill="#636F6E"/>
<path d="M15.9693 5.04789C16.2347 5.04789 16.4943 4.96917 16.715 4.82168C16.9357 4.67419 17.1078 4.46455 17.2094 4.21928C17.311 3.97401 17.3376 3.70412 17.2858 3.44374C17.234 3.18336 17.1062 2.94419 16.9184 2.75646C16.7307 2.56873 16.4915 2.44088 16.2312 2.38908C15.9708 2.33728 15.7009 2.36385 15.4556 2.46544C15.2104 2.56703 15.0007 2.73906 14.8532 2.95979C14.7057 3.18053 14.627 3.44004 14.627 3.70552C14.6273 4.06141 14.7689 4.40262 15.0205 4.65428C15.2722 4.90594 15.6134 5.0475 15.9693 5.04789V5.04789ZM15.9693 3.31344C16.0468 3.31344 16.1226 3.33644 16.1871 3.37954C16.2516 3.42263 16.3019 3.48388 16.3316 3.55554C16.3612 3.6272 16.369 3.70605 16.3539 3.78212C16.3387 3.85819 16.3014 3.92806 16.2465 3.9829C16.1917 4.03774 16.1218 4.07508 16.0457 4.09021C15.9696 4.10533 15.8908 4.09755 15.8191 4.06786C15.7475 4.03817 15.6862 3.9879 15.6432 3.9234C15.6001 3.85891 15.5771 3.78308 15.5771 3.70552C15.5773 3.60157 15.6186 3.50191 15.6921 3.42841C15.7656 3.35492 15.8653 3.31357 15.9693 3.31344Z" fill="#636F6E"/>
<path d="M12.5747 5.04789C12.8402 5.04789 13.0997 4.96917 13.3205 4.82168C13.5412 4.67419 13.7133 4.46455 13.8149 4.21928C13.9164 3.97401 13.943 3.70412 13.8912 3.44374C13.8395 3.18336 13.7116 2.94419 13.5239 2.75646C13.3362 2.56873 13.097 2.44088 12.8366 2.38908C12.5763 2.33728 12.3064 2.36385 12.0611 2.46544C11.8158 2.56703 11.6062 2.73906 11.4587 2.95979C11.3112 3.18053 11.2324 3.44004 11.2324 3.70552C11.2328 4.06141 11.3743 4.40262 11.626 4.65428C11.8776 4.90594 12.2188 5.0475 12.5747 5.04789V5.04789ZM12.5747 3.31344C12.6523 3.31344 12.7281 3.33644 12.7926 3.37954C12.8571 3.42263 12.9074 3.48388 12.937 3.55554C12.9667 3.6272 12.9745 3.70605 12.9593 3.78212C12.9442 3.85819 12.9068 3.92806 12.852 3.9829C12.7971 4.03774 12.7273 4.07508 12.6512 4.09021C12.5751 4.10533 12.4963 4.09755 12.4246 4.06786C12.353 4.03817 12.2917 3.9879 12.2486 3.9234C12.2056 3.85891 12.1826 3.78308 12.1826 3.70552C12.1827 3.60157 12.2241 3.50191 12.2976 3.42841C12.3711 3.35492 12.4708 3.31357 12.5747 3.31344V3.31344Z" fill="#636F6E"/>
<path d="M26.1489 5.04789C26.4144 5.04789 26.6739 4.96917 26.8947 4.82168C27.1154 4.67419 27.2875 4.46455 27.3891 4.21928C27.4907 3.97401 27.5173 3.70412 27.4655 3.44374C27.4137 3.18336 27.2858 2.94419 27.0981 2.75646C26.9104 2.56873 26.6712 2.44088 26.4109 2.38908C26.1505 2.33728 25.8806 2.36385 25.6353 2.46544C25.39 2.56703 25.1804 2.73906 25.0329 2.95979C24.8854 3.18053 24.8067 3.44004 24.8066 3.70552C24.807 4.06141 24.9486 4.40262 25.2002 4.65428C25.4519 4.90594 25.7931 5.0475 26.1489 5.04789V5.04789ZM26.1489 3.31344C26.2265 3.31344 26.3023 3.33644 26.3668 3.37954C26.4313 3.42263 26.4816 3.48388 26.5112 3.55554C26.5409 3.6272 26.5487 3.70605 26.5336 3.78212C26.5184 3.85819 26.4811 3.92806 26.4262 3.9829C26.3714 4.03774 26.3015 4.07508 26.2254 4.09021C26.1493 4.10533 26.0705 4.09755 25.9988 4.06786C25.9272 4.03817 25.8659 3.9879 25.8229 3.9234C25.7798 3.85891 25.7568 3.78308 25.7568 3.70552C25.7569 3.60157 25.7983 3.50191 25.8718 3.42841C25.9453 3.35492 26.045 3.31357 26.1489 3.31344V3.31344Z" fill="#636F6E"/>
<path d="M22.7564 5.04789C23.0218 5.04789 23.2814 4.96917 23.5021 4.82168C23.7228 4.67419 23.8949 4.46455 23.9965 4.21928C24.0981 3.97401 24.1247 3.70412 24.0729 3.44374C24.0211 3.18336 23.8933 2.94419 23.7055 2.75646C23.5178 2.56873 23.2787 2.44088 23.0183 2.38908C22.7579 2.33728 22.488 2.36385 22.2427 2.46544C21.9975 2.56703 21.7878 2.73906 21.6403 2.95979C21.4928 3.18053 21.4141 3.44004 21.4141 3.70552C21.4144 4.06141 21.556 4.40262 21.8076 4.65428C22.0593 4.90594 22.4005 5.0475 22.7564 5.04789V5.04789ZM22.7564 3.31344C22.8339 3.31344 22.9098 3.33644 22.9742 3.37954C23.0387 3.42263 23.089 3.48388 23.1187 3.55554C23.1483 3.6272 23.1561 3.70605 23.141 3.78212C23.1258 3.85819 23.0885 3.92806 23.0336 3.9829C22.9788 4.03774 22.9089 4.07508 22.8328 4.09021C22.7568 4.10533 22.6779 4.09755 22.6063 4.06786C22.5346 4.03817 22.4734 3.9879 22.4303 3.9234C22.3872 3.85891 22.3642 3.78308 22.3642 3.70552C22.3644 3.60157 22.4057 3.50191 22.4792 3.42841C22.5528 3.35492 22.6524 3.31357 22.7564 3.31344V3.31344Z" fill="#636F6E"/>
</svg>
