<svg width="30" height="31" viewBox="0 0 30 31" fill="none" xmlns="http://www.w3.org/2000/svg">
<path d="M25.5 21.3799C23.0185 21.3799 21 23.3989 21 25.8799C21 27.3854 21.7475 28.7834 22.999 29.6194C23.7395 30.1169 24.6045 30.3799 25.5 30.3799C26.3955 30.3799 27.2605 30.1169 28 29.6199C29.2525 28.7834 30 27.3849 30 25.8799C30 23.3989 27.9815 21.3799 25.5 21.3799ZM23.5555 28.7884C23.5405 28.7784 23.5275 28.7659 23.5125 28.7554C23.577 27.9874 24.2155 27.3799 25 27.3799H26C26.7845 27.3799 27.423 27.9874 27.4875 28.7559C27.472 28.7664 27.459 28.7789 27.4435 28.7894C26.293 29.5624 24.708 29.5629 23.5555 28.7884ZM25.5 26.3799C24.9485 26.3799 24.5 25.9314 24.5 25.3799C24.5 24.8284 24.9485 24.3799 25.5 24.3799C26.0515 24.3799 26.5 24.8284 26.5 25.3799C26.5 25.9314 26.0515 26.3799 25.5 26.3799ZM28.3165 27.9509C28.08 27.3634 27.626 26.8899 27.055 26.6219C27.329 26.2794 27.5 25.8514 27.5 25.3799C27.5 24.2769 26.603 23.3799 25.5 23.3799C24.397 23.3799 23.5 24.2769 23.5 25.3799C23.5 25.8514 23.671 26.2794 23.9445 26.6219C23.3735 26.8899 22.9195 27.3634 22.683 27.9509C22.247 27.3589 22 26.6379 22 25.8799C22 23.9499 23.5705 22.3799 25.5 22.3799C27.4295 22.3799 29 23.9499 29 25.8799C29 26.6379 28.753 27.3584 28.3165 27.9509Z" fill="#20b4b3"/>
<path d="M1.999 29.6194C2.7395 30.1169 3.6045 30.3799 4.5 30.3799C5.3955 30.3799 6.2605 30.1169 7 29.6199C8.2525 28.7834 9 27.3849 9 25.8799C9 23.3989 6.9815 21.3799 4.5 21.3799C2.0185 21.3799 0 23.3989 0 25.8799C0 27.3854 0.7475 28.7834 1.999 29.6194ZM2.5555 28.7884C2.5405 28.7784 2.5275 28.7659 2.5125 28.7554C2.577 27.9874 3.2155 27.3799 4 27.3799H5C5.7845 27.3799 6.423 27.9874 6.4875 28.7559C6.472 28.7664 6.459 28.7789 6.4435 28.7894C5.293 29.5624 3.708 29.5629 2.5555 28.7884ZM4.5 26.3799C3.9485 26.3799 3.5 25.9314 3.5 25.3799C3.5 24.8284 3.9485 24.3799 4.5 24.3799C5.0515 24.3799 5.5 24.8284 5.5 25.3799C5.5 25.9314 5.0515 26.3799 4.5 26.3799ZM4.5 22.3799C6.4295 22.3799 8 23.9499 8 25.8799C8 26.6379 7.753 27.3584 7.3165 27.9509C7.08 27.3634 6.626 26.8899 6.055 26.6219C6.329 26.2794 6.5 25.8514 6.5 25.3799C6.5 24.2769 5.603 23.3799 4.5 23.3799C3.397 23.3799 2.5 24.2769 2.5 25.3799C2.5 25.8514 2.671 26.2794 2.9445 26.6219C2.3735 26.8899 1.9195 27.3634 1.683 27.9509C1.247 27.3589 1 26.6379 1 25.8799C1 23.9499 2.5705 22.3799 4.5 22.3799Z" fill="#20b4b3"/>
<path d="M10.5 4.87988C10.5 6.38538 11.2475 7.78338 12.499 8.61938C13.2395 9.11688 14.1045 9.37988 15 9.37988C15.8955 9.37988 16.7605 9.11688 17.5 8.61988C18.7525 7.78338 19.5 6.38488 19.5 4.87988C19.5 2.39888 17.4815 0.379883 15 0.379883C12.5185 0.379883 10.5 2.39888 10.5 4.87988ZM13.0555 7.78838C13.0405 7.77838 13.0275 7.76588 13.0125 7.75538C13.077 6.98738 13.7155 6.37988 14.5 6.37988H15.5C16.2845 6.37988 16.923 6.98738 16.9875 7.75588C16.972 7.76638 16.959 7.77888 16.9435 7.78938C15.793 8.56238 14.208 8.56288 13.0555 7.78838ZM15 5.37988C14.4485 5.37988 14 4.93138 14 4.37988C14 3.82838 14.4485 3.37988 15 3.37988C15.5515 3.37988 16 3.82838 16 4.37988C16 4.93138 15.5515 5.37988 15 5.37988ZM15 1.37988C16.9295 1.37988 18.5 2.94988 18.5 4.87988C18.5 5.63788 18.253 6.35838 17.8165 6.95088C17.58 6.36338 17.126 5.88988 16.555 5.62188C16.829 5.27938 17 4.85138 17 4.37988C17 3.27688 16.103 2.37988 15 2.37988C13.897 2.37988 13 3.27688 13 4.37988C13 4.85138 13.171 5.27938 13.4445 5.62188C12.8735 5.88988 12.4195 6.36338 12.183 6.95088C11.747 6.35888 11.5 5.63788 11.5 4.87988C11.5 2.94988 13.0705 1.37988 15 1.37988Z" fill="#20b4b3"/>
<path d="M15 15.3799C13.6215 15.3799 12.5 16.5014 12.5 17.8799C12.5 19.2584 13.6215 20.3799 15 20.3799C16.3785 20.3799 17.5 19.2584 17.5 17.8799C17.5 16.5014 16.3785 15.3799 15 15.3799ZM15 19.3799C14.173 19.3799 13.5 18.7069 13.5 17.8799C13.5 17.0529 14.173 16.3799 15 16.3799C15.827 16.3799 16.5 17.0529 16.5 17.8799C16.5 18.7069 15.827 19.3799 15 19.3799Z" fill="#20b4b3"/>
<path d="M20 19.3799C20.2765 19.3799 20.5 19.1559 20.5 18.8799V16.8799C20.5 16.6039 20.2765 16.3799 20 16.3799H19.239C19.1865 16.2314 19.1255 16.0854 19.0585 15.9434L19.5965 15.4049C19.6905 15.3109 19.743 15.1839 19.743 15.0514C19.743 14.9189 19.6905 14.7914 19.5965 14.6979L18.1825 13.2834C17.987 13.0879 17.671 13.0879 17.4755 13.2834L16.937 13.8214C16.795 13.7539 16.6495 13.6934 16.5005 13.6409V12.8799C16.5005 12.6039 16.277 12.3799 16.0005 12.3799H14.0005C13.724 12.3799 13.5005 12.6039 13.5005 12.8799V13.6409C13.3515 13.6934 13.206 13.7539 13.064 13.8214L12.5255 13.2834C12.33 13.0879 12.014 13.0879 11.8185 13.2834L10.4045 14.6979C10.3105 14.7919 10.258 14.9189 10.258 15.0514C10.258 15.1839 10.3105 15.3114 10.4045 15.4049L10.9425 15.9434C10.875 16.0854 10.8145 16.2314 10.762 16.3799H10C9.7235 16.3799 9.5 16.6039 9.5 16.8799V18.8799C9.5 19.1559 9.7235 19.3799 10 19.3799H10.761C10.8135 19.5284 10.8745 19.6744 10.9415 19.8164L10.4035 20.3549C10.3095 20.4489 10.257 20.5759 10.257 20.7084C10.257 20.8409 10.3095 20.9684 10.4035 21.0619L11.8175 22.4764C12.013 22.6719 12.329 22.6719 12.5245 22.4764L13.063 21.9384C13.205 22.0059 13.3505 22.0664 13.4995 22.1189V22.8799C13.4995 23.1559 13.723 23.3799 13.9995 23.3799H15.9995C16.276 23.3799 16.4995 23.1559 16.4995 22.8799V22.1189C16.6485 22.0664 16.794 22.0059 16.936 21.9384L17.4745 22.4764C17.67 22.6719 17.986 22.6719 18.1815 22.4764L19.5955 21.0619C19.6895 20.9679 19.742 20.8409 19.742 20.7084C19.742 20.5759 19.6895 20.4484 19.5955 20.3549L19.0575 19.8164C19.125 19.6744 19.1855 19.5284 19.238 19.3799H20V19.3799ZM18.869 18.3799C18.641 18.3799 18.442 18.5339 18.385 18.7549C18.303 19.0719 18.1775 19.3749 18.012 19.6549C17.8965 19.8514 17.928 20.1014 18.089 20.2624L18.5355 20.7084L17.8285 21.4159L17.382 20.9699C17.221 20.8084 16.9705 20.7769 16.774 20.8929C16.4945 21.0579 16.192 21.1829 15.8745 21.2649C15.6545 21.3214 15.5 21.5209 15.5 21.7489V22.3799H14.5V21.7489C14.5 21.5209 14.3455 21.3219 14.125 21.2649C13.8075 21.1829 13.505 21.0579 13.2255 20.8929C13.0295 20.7769 12.7785 20.8084 12.6175 20.9699L12.171 21.4159L11.464 20.7084L11.9105 20.2624C12.0715 20.1014 12.1035 19.8514 11.9875 19.6549C11.822 19.3749 11.6965 19.0719 11.6145 18.7549C11.5575 18.5339 11.359 18.3799 11.131 18.3799H10.5V17.3799H11.131C11.359 17.3799 11.558 17.2259 11.615 17.0049C11.697 16.6879 11.8225 16.3849 11.988 16.1049C12.1035 15.9084 12.072 15.6584 11.911 15.4974L11.4645 15.0514L12.1715 14.3439L12.618 14.7899C12.779 14.9514 13.03 14.9834 13.226 14.8669C13.5055 14.7019 13.808 14.5769 14.1255 14.4949C14.346 14.4379 14.5005 14.2389 14.5005 14.0109V13.3799H15.5005V14.0109C15.5005 14.2389 15.655 14.4379 15.8755 14.4949C16.193 14.5769 16.4955 14.7019 16.775 14.8669C16.9705 14.9829 17.222 14.9514 17.383 14.7899L17.8295 14.3439L18.5365 15.0514L18.09 15.4974C17.929 15.6584 17.897 15.9084 18.013 16.1049C18.1785 16.3849 18.304 16.6879 18.386 17.0049C18.443 17.2254 18.642 17.3799 18.87 17.3799H19.5V18.3799H18.869Z" fill="#20b4b3"/>
<path d="M20 25.3799H10V26.3799H20V25.3799Z" fill="#20b4b3"/>
<path d="M19.4452 8.64775L18.5586 9.11035L24.559 20.6104L25.4456 20.1478L19.4452 8.64775Z" fill="#20b4b3"/>
<path d="M10.557 8.64835L4.55664 20.1484L5.44324 20.611L11.4436 9.11095L10.557 8.64835Z" fill="#20b4b3"/>
</svg>
