<svg width="30" height="31" viewBox="0 0 30 31" fill="none" xmlns="http://www.w3.org/2000/svg">
<path d="M6.77419 0.379883V5.36133C6.46742 5.2694 6.14274 5.21859 5.80645 5.21859C3.93919 5.21859 2.41935 6.73795 2.41935 8.60569C2.41935 9.68811 2.93129 10.6505 3.72387 11.2713C1.56774 11.9517 0 13.9699 0 16.3476V19.7347C0 20.8021 0.868064 21.6702 1.93548 21.6702H2.41935V28.4444C2.41935 29.5118 3.28742 30.3799 4.35484 30.3799C4.93597 30.3799 5.45129 30.1176 5.80645 29.7112C6.16161 30.1176 6.67694 30.3799 7.25806 30.3799C8.32548 30.3799 9.19355 29.5118 9.19355 28.4444V16.4758C9.19355 16.2663 9.22065 16.0612 9.27194 15.8638H30V0.379883H6.77419ZM3.3871 8.60569C3.3871 7.27166 4.47242 6.18633 5.80645 6.18633C7.14048 6.18633 8.22581 7.27166 8.22581 8.60569C8.22581 9.93972 7.14048 11.025 5.80645 11.025C4.47242 11.025 3.3871 9.93972 3.3871 8.60569ZM6.27339 15.6804L5.80645 16.1473L5.33952 15.6804L5.64677 11.9928H5.80645H5.96613L6.27339 15.6804ZM8.22581 16.4758V28.4444C8.22581 28.9781 7.79177 29.4121 7.25806 29.4121C6.72435 29.4121 6.29032 28.9781 6.29032 28.4444V19.7347H5.32258V28.4444C5.32258 28.9781 4.88855 29.4121 4.35484 29.4121C3.82113 29.4121 3.3871 28.9781 3.3871 28.4444V15.3799H2.41935V20.7025H1.93548C1.40177 20.7025 0.967742 20.2684 0.967742 19.7347V16.3476C0.967742 14.1683 2.57855 12.3629 4.67129 12.047L4.33742 16.0471L5.80645 17.5157L7.275 16.0471L6.93677 11.9928H8.37145C8.99903 11.9928 9.61258 11.8191 10.1468 11.49L15.4645 8.21762C15.5671 8.15472 15.6842 8.12182 15.8042 8.12182C16.1608 8.12182 16.4516 8.41262 16.4516 8.76924V8.95795C16.4516 9.17859 16.3408 9.38133 16.156 9.50182L9.77274 13.6321C8.80403 14.2588 8.22581 15.3218 8.22581 16.4758ZM13.5484 8.12182C13.5484 5.61682 15.4616 3.55117 17.9032 3.30779V8.32214L21.4471 11.866C20.6124 12.5492 19.5469 12.9605 18.3871 12.9605C17.0506 12.9605 15.8052 12.422 14.8955 11.4697L16.6815 10.3142C17.1435 10.0152 17.4194 9.50811 17.4194 8.95795V8.76924C17.4194 7.87891 16.695 7.15408 15.8042 7.15408C15.5052 7.15408 15.2119 7.23682 14.9574 7.39359L13.5542 8.25682C13.5532 8.21182 13.5484 8.16682 13.5484 8.12182ZM22.1313 11.1818L19.5552 8.60569H23.2011C23.1044 9.5773 22.7182 10.4652 22.1313 11.1818ZM18.871 7.63795V3.30779C21.1534 3.53569 22.9737 5.35553 23.2011 7.63795H18.871ZM29.0323 14.896H9.78387C9.93193 14.7247 10.1027 14.5709 10.2982 14.4441L14.0758 11.9996C15.1771 13.2267 16.7211 13.9283 18.3871 13.9283C21.5889 13.9283 24.1935 11.3236 24.1935 8.12182C24.1935 4.92004 21.5889 2.31537 18.3871 2.31537C15.1853 2.31537 12.5806 4.92004 12.5806 8.12182C12.5806 8.35746 12.6 8.59311 12.6285 8.82682L9.63968 10.666C9.25839 10.9012 8.82 11.025 8.37194 11.025H8.17258C8.80161 10.4096 9.19355 9.55311 9.19355 8.60569C9.19355 7.45746 8.61823 6.44279 7.74194 5.83021V1.34762H29.0323V14.896Z" fill="#20b4b3"/>
<path d="M26.6011 23.0028C27.4842 22.3907 28.0648 21.3712 28.0648 20.2182C28.0648 18.3509 26.545 16.8311 24.6777 16.8311C22.8105 16.8311 21.2906 18.3509 21.2906 20.2182C21.2906 21.3712 21.8713 22.3907 22.7543 23.0028C21.461 23.5065 20.4139 24.4994 19.839 25.7556C19.2642 24.4994 18.2171 23.5061 16.9237 23.0028C17.8068 22.3907 18.3874 21.3712 18.3874 20.2182C18.3874 18.3509 16.8676 16.8311 15.0003 16.8311C13.1331 16.8311 11.6132 18.3509 11.6132 20.2182C11.6132 21.3712 12.1939 22.3907 13.0769 23.0028C11.0911 23.7761 9.67773 25.7038 9.67773 27.9601V30.3794H19.3552H20.3229H30.0003V27.9601C30.0003 25.7038 28.5869 23.7761 26.6011 23.0028ZM22.2584 20.2182C22.2584 18.8841 23.3437 17.7988 24.6777 17.7988C26.0118 17.7988 27.0971 18.8841 27.0971 20.2182C27.0971 21.5522 26.0118 22.6375 24.6777 22.6375C23.3437 22.6375 22.2584 21.5522 22.2584 20.2182ZM12.581 20.2182C12.581 18.8841 13.6663 17.7988 15.0003 17.7988C16.3343 17.7988 17.4197 18.8841 17.4197 20.2182C17.4197 21.5522 16.3343 22.6375 15.0003 22.6375C13.6663 22.6375 12.581 21.5522 12.581 20.2182ZM19.3552 29.4117H17.9035V25.5407H16.9358V29.4117H13.0648V25.5407H12.0971V29.4117H10.6455V27.9601C10.6455 25.5586 12.5989 23.6052 15.0003 23.6052C17.4018 23.6052 19.3552 25.5586 19.3552 27.9601V29.4117ZM29.0326 29.4117H27.581V25.5407H26.6132V29.4117H22.7423V25.5407H21.7745V29.4117H20.3229V27.9601C20.3229 25.5586 22.2763 23.6052 24.6777 23.6052C27.0792 23.6052 29.0326 25.5586 29.0326 27.9601V29.4117Z" fill="#20b4b3"/>
<path d="M26.6127 11.0254H24.1934V12.477C24.1934 13.2773 24.8446 13.9286 25.645 13.9286H26.6127C27.413 13.9286 28.0643 13.2773 28.0643 12.477C28.0643 11.6767 27.413 11.0254 26.6127 11.0254ZM26.6127 12.9609H25.645C25.3779 12.9609 25.1611 12.7436 25.1611 12.477V11.9931H26.6127C26.8798 11.9931 27.0966 12.2104 27.0966 12.477C27.0966 12.7436 26.8798 12.9609 26.6127 12.9609Z" fill="#20b4b3"/>
<path d="M10.1606 5.21866H12.58V3.76704C12.58 2.96672 11.9287 2.31543 11.1283 2.31543H10.1606C9.36027 2.31543 8.70898 2.96672 8.70898 3.76704C8.70898 4.56737 9.36027 5.21866 10.1606 5.21866ZM10.1606 3.28317H11.1283C11.3954 3.28317 11.6122 3.50043 11.6122 3.76704V4.25091H10.1606C9.8935 4.25091 9.67673 4.03366 9.67673 3.76704C9.67673 3.50043 9.8935 3.28317 10.1606 3.28317Z" fill="#20b4b3"/>
<path d="M28.0653 2.31543H25.1621V3.28317H28.0653V2.31543Z" fill="#20b4b3"/>
<path d="M28.0653 4.25098H25.1621V5.21872H28.0653V4.25098Z" fill="#20b4b3"/>
<path d="M28.0653 6.18652H25.1621V7.15427H28.0653V6.18652Z" fill="#20b4b3"/>
<path d="M28.0653 8.12207H25.1621V9.08981H28.0653V8.12207Z" fill="#20b4b3"/>
</svg>
