<svg width="426" height="398" viewBox="0 0 426 398" fill="none" xmlns="http://www.w3.org/2000/svg">
<g opacity="0.95" filter="url(#filter0_d)">
<path d="M151.877 233.707H26.0115C16.0699 233.707 8 225.638 8 215.696V89.8611C8 79.9195 16.0699 71.8496 26.0115 71.8496H151.846C161.788 71.8496 169.858 79.9195 169.858 89.8611V215.696C169.858 225.638 161.819 233.707 151.877 233.707Z" fill="#F2FAFC"/>
</g>
<path opacity="0.2" d="M126.409 196.857H51.4785V200.57H126.409V196.857Z" fill="#4D6197"/>
<path opacity="0.2" d="M115.795 208.516H62.0977V212.228H115.795V208.516Z" fill="#4D6197"/>
<g opacity="0.95" filter="url(#filter1_d)">
<path d="M396.797 387.987H217.695C205.974 387.987 196.492 378.506 196.492 366.785V149.174C196.492 137.453 205.974 127.972 217.695 127.972H396.797C408.518 127.972 418 137.453 418 149.174V366.754C418 378.475 408.488 387.987 396.797 387.987Z" fill="#F2FAFC"/>
</g>
<path d="M314.504 281.36H296.922V284.613H314.504V281.36Z" fill="#4598E6"/>
<g opacity="0.2">
<path d="M332.452 311.185H230.213V317.475H332.452V311.185Z" fill="#4D6197"/>
<path d="M312.875 341.408H230.213V347.698H312.875V341.408Z" fill="#4D6197"/>
<path d="M278.663 326.311H230.213V332.601H278.663V326.311Z" fill="#4D6197"/>
</g>
<path d="M359.209 153.898V157.09H377.957V174.671H381.148V153.898H359.209ZM231.994 174.671H235.185V157.09H253.933V153.898H232.024V174.671H231.994ZM377.926 265.404V282.986H359.209V286.146H381.118V265.373H377.926V265.404ZM235.154 265.404H231.963V286.146H253.871V282.955H235.123V265.404H235.154Z" fill="url(#paint0_linear)"/>
<path d="M371.207 348.189C360.866 348.189 352.459 339.782 352.459 329.441C352.459 319.101 360.866 310.693 371.207 310.693C381.547 310.693 389.955 319.101 389.955 329.441C389.924 339.782 381.517 348.189 371.207 348.189ZM371.207 314.345C362.861 314.345 356.11 321.126 356.11 329.441C356.11 337.787 362.892 344.538 371.207 344.538C379.522 344.538 386.303 337.757 386.303 329.441C386.303 321.126 379.522 314.345 371.207 314.345Z" fill="url(#paint1_linear)"/>
<path d="M370.011 336.835L361.48 328.305L364.058 325.759L370.011 331.681L378.326 323.365L380.903 325.912L370.011 336.835Z" fill="url(#paint2_linear)"/>
<path fill-rule="evenodd" clip-rule="evenodd" d="M102.867 83.958C103.325 83.6973 103.916 83.5962 104.226 84.4926C104.696 85.9025 102.7 91.7464 102.233 93.1141C102.182 93.2643 102.149 93.3605 102.14 93.3909C102.14 93.3909 101.903 93.9174 101.6 93.7269C100.631 99.4547 98.8241 103.103 96.8192 105.421C96.7009 107.879 96.6206 111.691 97.1666 112.904C97.1666 112.904 98.8849 113.702 98.8849 113.733L104.899 116.525C104.899 116.525 104.897 116.534 104.894 116.55C104.892 116.56 104.889 116.572 104.886 116.586C105.764 116.87 106.66 117.16 107.54 117.446C108.516 117.764 109.476 118.074 110.373 118.363C111.986 118.884 113.394 119.339 114.321 119.655C118.402 121.005 127.025 125.362 130.615 134.874C132.64 140.244 137.733 149.204 141.845 156.138H124.969C121.532 151.597 118.402 147.332 118.402 147.332C118.402 147.332 117.819 152.241 116.899 156.138H58.2925C56.9117 152.794 55.7457 150.247 55.7457 150.247L52.3091 156.138H34.0215C37.3047 149.51 40.6492 143.558 41.3856 142.668C41.7926 142.174 42.6564 140.606 43.7827 138.561L43.7827 138.561L43.7828 138.561C46.6479 133.358 51.2114 125.072 54.2729 123.552C56.3287 122.539 62.3735 120.33 68.142 118.305C68.9134 118.031 69.6796 117.761 70.4301 117.499L70.4102 117.446L79.0937 113.15C79.0937 113.15 80.1401 109.014 80.4976 105.521C78.6172 103.185 76.823 99.4294 75.785 93.3875L75.7822 93.3903C75.414 93.7278 75.1685 93.1141 75.1685 93.1141C75.0458 92.7766 72.7138 85.7193 73.2661 84.1544C73.5404 83.4181 73.9981 83.3815 74.4059 83.5491C73.785 78.842 73.108 72.972 73.4489 72.003C73.4795 71.9162 73.5136 71.8065 73.5538 71.6773L73.5539 71.6771L73.5539 71.6769C74.2816 69.338 76.9927 60.6245 96.1244 66.2651C96.1244 66.2651 102.415 64.9457 103.673 69.2721C104.518 72.1801 103.576 79.4823 102.867 83.958Z" fill="url(#paint3_linear)"/>
<g opacity="0.95" filter="url(#filter2_d)">
<path d="M289.863 119.011H200.573C192.411 119.011 185.783 112.383 185.783 104.221V26.7135C185.783 18.5516 192.411 11.9238 200.573 11.9238H289.863C298.025 11.9238 304.653 18.5516 304.653 26.7135V104.19C304.683 112.383 298.056 119.011 289.863 119.011Z" fill="#F2FAFC"/>
</g>
<path d="M249.482 98.7598H240.062V100.509H249.482V98.7598Z" fill="#4598E6"/>
<path fill-rule="evenodd" clip-rule="evenodd" d="M253.288 2.53469C253.288 2.53469 260.823 6.6666 258.509 16.8048C258.351 19.5908 257.671 22.9321 256.203 26.9281C256.183 26.9812 256.164 27.034 256.144 27.0864C255.846 29.2564 256.104 30.642 257.093 32.7277C257.928 34.4885 258.718 38.6387 259.191 43.074C261.456 45.812 262.776 49.317 263.278 53.7962C263.89 55.2633 264.245 56.6807 264.213 58.1952C264.203 59.0773 263.876 60.2795 263.426 61.595C264.506 68.2499 265.882 76.2193 266.789 79.5825C267.218 81.1781 267.464 84.001 267.556 87.3456H259.425L259.425 87.3449H230.583L230.591 87.3157H226.35C225.399 84.1552 224.816 81.5164 224.938 80.0436C225.341 75.8172 224.529 65.5189 223.923 58.9319L222.604 58.6253C220.597 49.3519 225.14 38.1448 232.592 37.638C232.891 37.567 233.068 37.5449 233.068 37.5449C234.115 37.3555 235.414 37.043 236.692 36.7074C234.872 33.462 233.535 30.1426 233.037 26.9898C230.717 12.3183 235.792 5.92885 237.749 3.46527L237.854 3.33247C239.756 0.939121 246.599 -1.27012 253.288 2.53469Z" fill="url(#paint4_linear)"/>
<path d="M273.476 31.2861V33.0044H283.541V42.4551H285.259V31.3168H273.476V31.2861ZM205.174 42.4244H206.892V33.0044H216.956V31.2861H205.174V42.4244ZM283.541 91.1505V100.601H273.476V102.319H285.228V91.1812H283.541V91.1505ZM206.892 91.1505H205.174V102.289H216.926V100.57H206.861V91.1505H206.892Z" fill="url(#paint5_linear)"/>
<path d="M95.2654 178.753H82.6543V181.085H95.2654V178.753Z" fill="#4598E6"/>
<path d="M126.688 88.665V90.9356H140.128V103.547H142.398V88.665H126.688ZM35.4648 103.547H37.7355V90.9356H51.175V88.665H35.4648V103.547ZM140.128 168.597V181.208H126.688V183.478H142.398V168.597H140.128ZM37.7661 168.597H35.4955V183.478H51.2057V181.208H37.7661V168.597Z" fill="url(#paint6_linear)"/>
<path fill-rule="evenodd" clip-rule="evenodd" d="M278.235 124.197C278.972 129.843 281.948 129.996 281.948 129.996C281.983 130.002 282.018 130.009 282.053 130.015L282.011 130.027C282.011 130.027 273.511 148.774 285.233 171.695C286.705 174.579 289.404 175.653 291.674 176.144L291.674 176.145C292.276 176.265 292.908 176.327 293.512 176.358L293.515 176.391C293.607 177.496 293.699 179.214 293.607 180.779C293.581 181.256 293.536 181.717 293.469 182.141L287.32 186.608L287.322 186.654L287.3 186.664L287.316 186.608L287.04 186.731L287.007 186.746L286.983 186.73C285.973 187.192 284.868 187.702 283.695 188.243L283.692 188.245L283.686 188.247L283.668 188.256L283.649 188.264L283.628 188.274C282.717 188.694 281.765 189.134 280.784 189.584C276.059 191.763 270.751 194.217 266.516 196.242C262.497 198.176 256.36 201.459 255.9 201.827L232.15 263.931H235.656L235.645 263.963H252.674L252.684 263.931H255.992C256.053 263.778 256.107 263.632 256.161 263.486C256.214 263.341 256.268 263.195 256.329 263.041C256.337 263.021 256.345 263 256.353 262.979C256.354 263 256.356 263.021 256.358 263.042C257.583 259.794 258.809 256.484 259.913 253.419C259.914 253.425 259.915 253.432 259.916 253.439C259.916 253.481 259.922 253.531 259.929 253.583C259.937 253.645 259.946 253.71 259.946 253.776L259.956 253.86C260.025 256.242 260.588 259.468 261.209 263.025C261.259 263.315 261.31 263.607 261.361 263.901H261.905L261.91 263.932H302.319L302.323 263.963H337.303C337.732 255.034 338.499 243.282 339.635 238.741C339.635 238.71 339.665 238.679 339.665 238.679C339.665 238.649 339.665 238.618 339.696 238.587C339.696 238.556 339.704 238.533 339.711 238.51C339.719 238.487 339.727 238.464 339.727 238.434C339.727 238.403 339.757 238.372 339.757 238.372V238.342V238.311C339.757 238.311 348.226 251.536 348.656 263.963H370.656C369.582 252.395 366.207 229.167 361.113 212.874C358.137 203.362 355.59 195.844 354.424 195.047C353.341 194.263 348.184 192.629 342.499 190.828L342.499 190.827L342.498 190.827C337.717 189.312 332.561 187.678 329.141 186.332C328.895 186.24 328.65 186.148 328.435 186.056L328.398 186.041L328.404 186.024C327.974 185.858 327.547 185.692 327.125 185.527L326.511 185.289L326.44 185.258L326.378 185.236L326.309 185.21C326.109 185.133 325.91 185.056 325.713 184.98C325.639 184.95 325.565 184.92 325.49 184.891L325.49 184.891L325.49 184.891L325.489 184.89L325.464 184.882L325.414 184.865C325.255 184.804 325.097 184.743 324.94 184.684L324.999 184.613L317.42 180.011C317.42 180.011 317.42 180.014 317.419 180.021C317.418 180.026 317.417 180.031 317.416 180.039C317.314 179.763 312.155 165.861 313.613 159.208C313.619 159.164 313.624 159.122 313.629 159.082C313.686 158.961 313.743 158.839 313.799 158.716C314.14 157.973 314.49 157.192 314.842 156.38C315.984 154.797 327.277 138.629 324.538 122.018C322.727 111.003 316.069 112.537 316.069 112.537C313.338 109.407 301.647 110.082 296.922 110.819C292.197 111.555 278.972 117.078 278.972 117.078C278.972 117.078 277.499 118.643 278.235 124.197Z" fill="url(#paint7_linear)"/>
<g opacity="0.2">
<path opacity="0.95" d="M382.59 110.36H391.826L389.003 104.499H379.768L382.59 110.36Z" fill="#20B4B3"/>
<path opacity="0.95" d="M378.264 110.36H380.474L377.651 104.499H375.441L378.264 110.36Z" fill="#20B4B3"/>
<path opacity="0.95" d="M346.322 103.363H383.757L382.53 100.417H345.064L346.322 103.363Z" fill="#20B4B3"/>
</g>
<g opacity="0.2">
<path d="M145.186 9.74666H131.041C130.55 9.74666 130.182 9.34776 130.182 8.88751V5.81911C130.182 5.32817 130.581 4.95996 131.041 4.95996H145.186C145.677 4.95996 146.045 5.35885 146.045 5.81911V8.88751C146.045 9.37845 145.646 9.74666 145.186 9.74666Z" fill="#20B4B3"/>
<path d="M145.186 21.2232H131.041C130.55 21.2232 130.182 20.8243 130.182 20.3641V17.2957C130.182 16.8047 130.581 16.4365 131.041 16.4365H145.186C145.677 16.4365 146.045 16.8354 146.045 17.2957V20.3641C146.045 20.8243 145.646 21.2232 145.186 21.2232Z" fill="#20B4B3"/>
<path d="M145.186 32.6988H131.041C130.55 32.6988 130.182 32.2999 130.182 31.8397V28.7713C130.182 28.2803 130.581 27.9121 131.041 27.9121H145.186C145.677 27.9121 146.045 28.311 146.045 28.7713V31.8397C146.045 32.2999 145.646 32.6988 145.186 32.6988Z" fill="#20B4B3"/>
<path d="M156.263 9.74666H153.47C152.98 9.74666 152.611 9.34776 152.611 8.88751V5.81911C152.611 5.32817 153.01 4.95996 153.47 4.95996H156.263C156.754 4.95996 157.122 5.35885 157.122 5.81911V8.88751C157.122 9.37845 156.723 9.74666 156.263 9.74666Z" fill="#20B4B3"/>
<path d="M156.263 21.2232H153.47C152.98 21.2232 152.611 20.8243 152.611 20.3641V17.2957C152.611 16.8047 153.01 16.4365 153.47 16.4365H156.263C156.754 16.4365 157.122 16.8354 157.122 17.2957V20.3641C157.122 20.8243 156.723 21.2232 156.263 21.2232Z" fill="#20B4B3"/>
<path d="M156.263 32.6988H153.47C152.98 32.6988 152.611 32.2999 152.611 31.8397V28.7713C152.611 28.2803 153.01 27.9121 153.47 27.9121H156.263C156.754 27.9121 157.122 28.311 157.122 28.7713V31.8397C157.122 32.2999 156.723 32.6988 156.263 32.6988Z" fill="#20B4B3"/>
</g>
<defs>
<filter id="filter0_d" x="0" y="65.8496" width="177.858" height="177.858" filterUnits="userSpaceOnUse" color-interpolation-filters="sRGB">
<feFlood flood-opacity="0" result="BackgroundImageFix"/>
<feColorMatrix in="SourceAlpha" type="matrix" values="0 0 0 0 0 0 0 0 0 0 0 0 0 0 0 0 0 0 127 0"/>
<feOffset dy="2"/>
<feGaussianBlur stdDeviation="4"/>
<feColorMatrix type="matrix" values="0 0 0 0 0 0 0 0 0 0 0 0 0 0 0 0 0 0 0.1 0"/>
<feBlend mode="normal" in2="BackgroundImageFix" result="effect1_dropShadow"/>
<feBlend mode="normal" in="SourceGraphic" in2="effect1_dropShadow" result="shape"/>
</filter>
<filter id="filter1_d" x="188.492" y="121.972" width="237.507" height="276.016" filterUnits="userSpaceOnUse" color-interpolation-filters="sRGB">
<feFlood flood-opacity="0" result="BackgroundImageFix"/>
<feColorMatrix in="SourceAlpha" type="matrix" values="0 0 0 0 0 0 0 0 0 0 0 0 0 0 0 0 0 0 127 0"/>
<feOffset dy="2"/>
<feGaussianBlur stdDeviation="4"/>
<feColorMatrix type="matrix" values="0 0 0 0 0 0 0 0 0 0 0 0 0 0 0 0 0 0 0.1 0"/>
<feBlend mode="normal" in2="BackgroundImageFix" result="effect1_dropShadow"/>
<feBlend mode="normal" in="SourceGraphic" in2="effect1_dropShadow" result="shape"/>
</filter>
<filter id="filter2_d" x="177.783" y="5.92383" width="134.87" height="123.087" filterUnits="userSpaceOnUse" color-interpolation-filters="sRGB">
<feFlood flood-opacity="0" result="BackgroundImageFix"/>
<feColorMatrix in="SourceAlpha" type="matrix" values="0 0 0 0 0 0 0 0 0 0 0 0 0 0 0 0 0 0 127 0"/>
<feOffset dy="2"/>
<feGaussianBlur stdDeviation="4"/>
<feColorMatrix type="matrix" values="0 0 0 0 0 0 0 0 0 0 0 0 0 0 0 0 0 0 0.1 0"/>
<feBlend mode="normal" in2="BackgroundImageFix" result="effect1_dropShadow"/>
<feBlend mode="normal" in="SourceGraphic" in2="effect1_dropShadow" result="shape"/>
</filter>
<linearGradient id="paint0_linear" x1="195.605" y1="219.979" x2="407.429" y2="219.979" gradientUnits="userSpaceOnUse">
<stop stop-color="#138281"/>
<stop offset="1" stop-color="#0D549F"/>
</linearGradient>
<linearGradient id="paint1_linear" x1="358.424" y1="318.896" x2="379.9" y2="328.267" gradientUnits="userSpaceOnUse">
<stop stop-color="#FF9900"/>
<stop offset="1" stop-color="#FC6536"/>
</linearGradient>
<linearGradient id="paint2_linear" x1="364.57" y1="326.312" x2="374.058" y2="332.281" gradientUnits="userSpaceOnUse">
<stop stop-color="#FF9900"/>
<stop offset="1" stop-color="#FC6536"/>
</linearGradient>
<linearGradient id="paint3_linear" x1="7.744" y1="110.238" x2="160.839" y2="110.238" gradientUnits="userSpaceOnUse">
<stop stop-color="#138281"/>
<stop offset="1" stop-color="#0D549F"/>
</linearGradient>
<linearGradient id="paint4_linear" x1="211.058" y1="43.8852" x2="275.558" y2="43.8852" gradientUnits="userSpaceOnUse">
<stop stop-color="#138281"/>
<stop offset="1" stop-color="#0D549F"/>
</linearGradient>
<linearGradient id="paint5_linear" x1="185.656" y1="66.7797" x2="299.367" y2="66.7797" gradientUnits="userSpaceOnUse">
<stop stop-color="#138281"/>
<stop offset="1" stop-color="#0D549F"/>
</linearGradient>
<linearGradient id="paint6_linear" x1="9.40421" y1="136.041" x2="161.236" y2="136.041" gradientUnits="userSpaceOnUse">
<stop stop-color="#138281"/>
<stop offset="1" stop-color="#0D549F"/>
</linearGradient>
<linearGradient id="paint7_linear" x1="198.395" y1="187.032" x2="395.055" y2="187.032" gradientUnits="userSpaceOnUse">
<stop stop-color="#138281"/>
<stop offset="1" stop-color="#0D549F"/>
</linearGradient>
</defs>
</svg>
