<svg width="466" height="392" viewBox="0 0 466 392" fill="none" xmlns="http://www.w3.org/2000/svg">
<g opacity="0.7">
<path opacity="0.502" d="M465.854 223.805V173.664C464.721 156.526 457.922 140.237 446.591 125.364V175.505C457.922 190.378 464.721 206.667 465.854 223.805ZM440.784 168.423V118.141C436.818 113.608 432.285 109.217 427.469 105.11V155.251C432.285 159.5 436.676 163.891 440.784 168.423ZM419.254 148.594V98.4526C414.013 94.4866 408.348 90.5207 402.257 86.9796V137.121C408.348 140.803 414.013 144.628 419.254 148.594ZM390.926 145.478V65.5918C437.101 90.0957 465.996 125.223 465.996 164.033V243.918C465.996 205.109 437.101 169.981 390.926 145.478Z" fill="#20B4B3"/>
<path opacity="0.502" d="M306.366 107.092V92.6445C302.825 91.9363 299.284 91.3697 295.601 90.8032V105.251C299.284 105.817 302.825 106.384 306.366 107.092ZM287.103 89.5284V76.7807C283.42 76.2141 279.737 75.7892 276.055 75.3643V88.112C279.737 88.5369 283.42 88.9618 287.103 89.5284ZM324.921 96.7521V79.3302C321.522 78.4804 318.122 77.6305 314.581 76.9223V94.3442C318.122 95.194 321.522 95.9023 324.921 96.7521ZM267.273 87.2621V61.625C263.449 61.3418 259.766 61.0585 255.942 60.7752V86.4123C259.624 86.6956 263.449 86.9789 267.273 87.2621ZM225.914 85.8457V60.2086C222.089 60.2086 218.123 60.3503 214.299 60.4919V86.129C218.123 85.9874 222.089 85.9874 225.914 85.8457ZM205.376 86.6956V54.4013C201.551 54.6846 197.869 54.9679 194.044 55.2512V87.5454C197.869 87.2621 201.551 86.9789 205.376 86.6956ZM246.735 86.129V49.1606C243.336 49.019 239.795 49.019 236.253 48.8773C235.829 48.8773 235.404 48.8773 234.979 48.8773V85.8457C235.404 85.8457 235.829 85.8457 236.253 85.8457C239.795 85.8457 243.336 85.9874 246.735 86.129ZM185.404 88.5369V42.2202C181.722 42.6451 178.039 43.07 174.498 43.6366V89.8117C178.039 89.3868 181.722 88.9618 185.404 88.5369ZM150.844 38.3959C177.472 32.7302 206.226 29.7557 236.253 30.039C276.338 30.464 314.015 36.5545 346.592 47.1776V127.063C313.873 116.582 276.338 110.35 236.253 109.925C206.226 109.641 177.331 112.616 150.844 118.282V38.3959Z" fill="#20B4B3"/>
<path opacity="0.502" d="M15.0099 146.61V130.605C10.1941 137.545 6.36979 144.627 3.67861 151.993V199.584C6.36979 192.219 10.1941 184.995 15.0099 178.196V162.049C16.4263 160.066 17.8427 158.083 19.4008 156.1V164.74C22.3753 161.058 25.4914 157.517 29.0324 153.976V145.336C44.0464 130.18 64.1595 116.866 87.9552 106.243V90.8036C83.706 92.645 79.5984 94.6279 75.6324 96.7526C73.6494 97.7441 71.6665 98.8772 69.6835 99.8687C54.3862 108.367 41.2136 117.999 30.3072 128.622C29.8823 129.047 29.4573 129.472 28.8908 130.038V121.398C25.3497 124.939 22.2336 128.48 19.2592 132.163V140.803C17.8427 142.644 16.4263 144.627 15.0099 146.61ZM0.5625 146.185C9.62755 107.234 47.8707 73.665 101.978 52.8438V132.729C47.8707 153.551 9.62755 187.12 0.5625 226.213V146.185Z" fill="#20B4B3"/>
<path opacity="0.7529" d="M29.0323 130.038C29.4572 129.613 29.8821 129.189 30.4487 128.622V144.061C38.5222 136.129 48.0122 128.764 58.6353 121.965C62.1763 119.699 66.0006 117.432 69.825 115.308V99.8688C71.8079 98.7356 73.6493 97.7441 75.7739 96.7526V112.192C79.7399 110.067 83.8475 108.084 88.0967 106.243V90.8037V106.243C64.301 117.007 44.3295 130.18 29.1739 145.336V130.038H29.0323ZM15.0098 146.61C16.4262 144.627 17.8426 142.644 19.4006 140.661V156.1C17.8426 158.083 16.4262 160.066 15.0098 162.049V146.61Z" fill="#20B4B3"/>
<path opacity="0.8784" d="M75.4902 96.7526C79.4562 94.628 83.5638 92.645 87.813 90.8037V106.243C83.5638 108.084 79.4562 110.067 75.4902 112.192V96.7526Z" fill="#20B4B3"/>
<path opacity="0.8784" d="M30.3066 128.621C38.3802 120.69 47.8702 113.324 58.4933 106.525V121.964C47.8702 128.763 38.3802 136.128 30.3066 144.06V128.621Z" fill="#20B4B3"/>
<path opacity="0.9725" d="M58.4941 106.526C62.0352 104.26 65.8595 101.994 69.6838 99.8691V115.308C65.8595 117.433 62.0352 119.699 58.4941 121.965V106.526Z" fill="#20B4B3"/>
<path opacity="0.7529" d="M3.67773 151.991C6.36892 144.626 10.1932 137.402 15.009 130.604V146.751C10.1932 153.691 6.36892 160.773 3.67773 168.138V183.577C6.36892 176.212 10.1932 168.988 15.009 162.19V178.337C10.1932 185.277 6.36892 192.359 3.67773 199.724V151.991Z" fill="#20B4B3"/>
<path opacity="0.8784" d="M3.67773 167.999C6.36892 160.634 10.1932 153.41 15.009 146.611V162.05C10.1932 168.991 6.36892 176.073 3.67773 183.438V167.999Z" fill="#20B4B3"/>
<path opacity="0.7529" d="M19.4004 156.241C22.3749 152.559 25.491 149.018 29.032 145.477V154.117C25.491 157.658 22.3749 161.199 19.4004 164.881V156.241ZM19.4004 132.021C22.3749 128.338 25.491 124.797 29.032 121.256V129.896C25.491 133.437 22.3749 136.978 19.4004 140.661V132.021Z" fill="#20B4B3"/>
<path opacity="0.8784" d="M19.4004 140.804C22.3749 137.121 25.491 133.58 29.032 130.039V145.478C25.491 149.019 22.3749 152.56 19.4004 156.243V140.804Z" fill="#20B4B3"/>
<path opacity="0.7529" d="M446.592 125.223C457.923 140.095 464.722 156.384 465.855 173.522V223.663C464.722 206.525 457.923 190.236 446.592 175.364V125.223Z" fill="#20B4B3"/>
<path d="M427.471 105.108C432.287 109.358 436.819 113.749 440.785 118.139V168.28C436.819 163.748 432.287 159.357 427.471 155.249V105.108Z" fill="#20B4B3"/>
<path opacity="0.7529" d="M402.256 86.8369C408.205 90.5196 413.87 94.3439 419.253 98.3099V148.451C414.012 144.485 408.346 140.519 402.256 136.978V86.8369Z" fill="#20B4B3"/>
<path opacity="0.7529" d="M314.582 76.9219C317.981 77.6301 321.522 78.4799 324.922 79.3298V96.7517C321.522 95.9018 318.123 95.052 314.582 94.3438V76.9219Z" fill="#20B4B3"/>
<path opacity="0.7529" d="M295.746 90.8037C299.287 91.3703 302.97 92.0785 306.511 92.645V107.092C302.97 106.384 299.429 105.818 295.746 105.251V90.8037Z" fill="#20B4B3"/>
<path opacity="0.7529" d="M276.057 75.3633C279.739 75.7882 283.422 76.2131 287.105 76.7797V89.5274C283.422 88.9608 279.739 88.5359 276.057 88.111V75.3633Z" fill="#20B4B3"/>
<path opacity="0.7529" d="M255.797 60.7754C259.621 61.0587 263.446 61.2003 267.128 61.6252V87.2623C263.304 86.979 259.621 86.6958 255.797 86.4125V60.7754Z" fill="#20B4B3"/>
<path opacity="0.7529" d="M235.119 48.877C235.544 48.877 235.969 48.877 236.394 48.877C239.935 48.877 243.334 49.0186 246.875 49.1602V86.1286C243.476 85.987 239.935 85.987 236.394 85.8453C235.969 85.8453 235.544 85.8453 235.119 85.8453V48.877Z" fill="#20B4B3"/>
<path d="M214.301 60.4923C218.125 60.3506 221.949 60.209 225.915 60.209V85.8461C222.091 85.8461 218.125 85.9877 214.301 86.1294V60.4923Z" fill="#20B4B3"/>
<path opacity="0.7529" d="M194.043 55.2512C197.726 54.9679 201.55 54.543 205.374 54.4014V86.6956C201.55 86.9789 197.867 87.2622 194.043 87.5454V55.2512Z" fill="#20B4B3"/>
<path d="M174.354 43.7777C178.036 43.2112 181.577 42.7863 185.26 42.3613V88.5364C181.577 88.9613 177.895 89.3863 174.354 89.9528V43.7777Z" fill="#20B4B3"/>
</g>
<path d="M333.966 288.637V332.651C333.966 332.934 333.966 333.498 333.684 333.78C333.401 334.909 332.555 336.037 331.427 336.884L241.157 389.081C238.9 390.21 236.643 391.056 234.387 391.056V342.245L333.966 284.404V288.637Z" fill="url(#paint0_linear)"/>
<path d="M234.386 347.042V391.057C232.13 391.057 229.873 390.493 227.898 389.364C227.898 389.364 227.616 389.364 227.616 389.082L137.064 336.885C136.782 336.602 136.5 336.32 135.936 336.038C135.372 335.474 135.09 334.627 134.807 333.781C134.807 333.499 134.525 332.935 134.525 332.652C134.525 332.652 134.525 332.652 134.525 332.37V284.123L234.386 341.963V347.042Z" fill="url(#paint1_linear)"/>
<path d="M137.063 279.608L227.333 227.41C231.847 224.871 237.206 224.871 241.438 227.41L331.708 279.608C335.093 281.583 335.093 286.097 331.708 288.072L241.438 340.269C237.206 342.809 231.847 342.809 227.615 340.269L137.345 288.072C133.678 286.379 133.678 281.583 137.063 279.608Z" fill="#20B4B3"/>
<path d="M234.385 324.751L140.166 271.707V281.864C140.166 281.864 140.166 281.864 140.166 282.146C140.166 282.428 140.166 282.711 140.448 283.275C140.73 284.121 141.012 284.686 141.576 285.25C141.859 285.532 142.141 285.814 142.423 285.814L227.897 335.19C227.897 335.19 228.179 335.19 228.179 335.472C230.154 336.601 232.128 337.165 234.385 337.165C236.642 337.165 238.899 336.601 240.873 335.472L326.348 286.096C327.476 285.532 328.322 284.403 328.604 283.275C328.604 282.993 328.886 282.428 328.886 282.146V271.143L234.385 324.751Z" fill="url(#paint2_linear)"/>
<path d="M333.966 229.669V273.684C333.966 273.966 333.966 274.53 333.684 274.812C333.401 275.941 332.555 277.07 331.427 277.916L241.157 330.113C238.9 331.242 236.643 332.088 234.387 332.088V283.277L333.966 225.437V229.669Z" fill="url(#paint3_linear)"/>
<path d="M234.386 287.791V331.806C232.13 331.806 229.873 331.242 227.898 330.113C227.898 330.113 227.616 330.113 227.616 329.831L137.064 277.634C136.782 277.352 136.5 277.069 135.936 276.787C135.372 276.223 135.09 275.377 134.807 274.53C134.807 274.248 134.525 273.684 134.525 273.401C134.525 273.401 134.525 273.401 134.525 273.119V224.872L234.386 282.712V287.791Z" fill="url(#paint4_linear)"/>
<path d="M137.063 220.64L227.333 168.443C231.847 165.903 237.206 165.903 241.438 168.443L331.708 220.64C335.093 222.615 335.093 227.129 331.708 229.104L241.438 281.302C237.206 283.841 231.847 283.841 227.615 281.302L137.345 229.104C133.678 227.129 133.678 222.615 137.063 220.64Z" fill="#20B4B3"/>
<path d="M234.385 265.782L140.166 212.738V222.896C140.166 222.896 140.166 222.896 140.166 223.178C140.166 223.46 140.166 223.742 140.448 224.306C140.73 225.153 141.012 225.717 141.576 226.281C141.859 226.563 142.141 226.846 142.423 226.846L227.897 276.504C227.897 276.504 228.179 276.504 228.179 276.786C230.154 277.914 232.128 278.479 234.385 278.479C236.642 278.479 238.899 277.914 240.873 276.786L326.348 227.41C327.476 226.846 328.322 225.717 328.604 224.588C328.604 224.306 328.886 223.742 328.886 223.46V212.456L234.385 265.782Z" fill="url(#paint5_linear)"/>
<path d="M333.966 170.699V214.714C333.966 214.996 333.966 215.56 333.684 215.843C333.401 216.971 332.555 218.1 331.427 218.946L241.157 271.144C238.9 272.272 236.643 273.119 234.387 273.119V224.307L333.966 166.467V170.699Z" fill="url(#paint6_linear)"/>
<path d="M234.386 228.821V272.836C232.13 272.836 229.873 272.272 227.898 271.143C227.898 271.143 227.616 271.143 227.616 270.861L137.064 218.664C136.782 218.382 136.5 218.1 135.936 217.817C135.372 217.253 135.09 216.407 134.807 215.56C134.807 215.278 134.525 214.714 134.525 214.432C134.525 214.432 134.525 214.432 134.525 214.15V165.902L234.386 224.263V228.821Z" fill="url(#paint7_linear)"/>
<path d="M137.065 161.67L227.334 109.473C231.848 106.934 237.208 106.934 241.439 109.473L331.709 161.67C335.094 163.645 335.094 168.16 331.709 170.135L241.439 222.332C237.208 224.871 231.848 224.871 227.617 222.332L137.347 170.135C133.962 168.16 133.962 163.645 137.065 161.67Z" fill="url(#paint8_linear)"/>
<path d="M155.4 210.2L143.27 203.146V194.682L155.4 201.735V210.2Z" fill="white"/>
<path d="M171.761 219.511L159.631 212.74V204.275L171.761 211.047V219.511Z" fill="white"/>
<path d="M153.144 268.604L141.014 261.833V253.368L153.144 260.422V268.604Z" fill="white"/>
<path d="M169.504 278.198L157.656 271.144V262.962L169.504 269.733V278.198Z" fill="white"/>
<path d="M150.886 325.88L138.756 318.826V310.644L150.886 317.415V325.88Z" fill="white"/>
<path d="M167.246 335.19L155.398 328.419V319.954L167.246 327.008V335.19Z" fill="white"/>
<g opacity="0.1">
<path opacity="0.032258" d="M201.1 181.704C219.718 192.708 249.902 192.708 268.521 181.704C287.139 170.701 287.139 152.643 268.521 141.64C249.902 130.636 219.718 130.636 201.1 141.64C182.482 152.643 182.482 170.701 201.1 181.704Z" fill="#FAFAFB"/>
<path opacity="0.064516" d="M202.226 181.141C220.28 191.862 249.618 191.862 267.672 181.141C285.726 170.419 285.726 152.926 267.672 142.204C249.618 131.483 220.28 131.483 202.226 142.204C184.172 152.926 184.172 170.419 202.226 181.141Z" fill="#F6F6F7"/>
<path opacity="0.096774" d="M203.074 180.576C220.564 191.015 248.773 191.015 266.263 180.576C283.753 170.136 283.753 153.208 266.263 143.05C248.773 132.611 220.564 132.611 203.074 143.05C185.585 153.208 185.585 170.136 203.074 180.576Z" fill="#F1F1F3"/>
<path opacity="0.129" d="M234.668 187.347C258.505 187.347 277.828 175.852 277.828 161.672C277.828 147.491 258.505 135.996 234.668 135.996C210.831 135.996 191.508 147.491 191.508 161.672C191.508 175.852 210.831 187.347 234.668 187.347Z" fill="#EDECEF"/>
<path opacity="0.1613" d="M205.332 179.164C221.693 188.757 247.928 188.757 264.289 179.164C280.651 169.571 280.651 153.771 264.289 143.896C247.928 134.303 221.693 134.303 205.332 143.896C188.97 153.771 188.97 169.571 205.332 179.164Z" fill="#E8E8EB"/>
<path opacity="0.1935" d="M234.667 185.655C256.946 185.655 275.007 174.917 275.007 161.672C275.007 148.427 256.946 137.689 234.667 137.689C212.389 137.689 194.328 148.427 194.328 161.672C194.328 174.917 212.389 185.655 234.667 185.655Z" fill="#E4E3E6"/>
<path opacity="0.2258" d="M207.305 178.036C222.538 187.065 247.08 187.065 262.031 178.036C277.264 169.007 277.264 154.335 262.031 145.307C246.798 136.278 222.256 136.278 207.305 145.307C192.354 154.335 192.354 169.007 207.305 178.036Z" fill="#DFDEE2"/>
<path opacity="0.2581" d="M234.666 183.961C255.231 183.961 271.902 173.982 271.902 161.671C271.902 149.361 255.231 139.382 234.666 139.382C214.101 139.382 197.43 149.361 197.43 161.671C197.43 173.982 214.101 183.961 234.666 183.961Z" fill="#DADADE"/>
<path opacity="0.2903" d="M209.563 176.908C223.385 185.09 246.235 185.09 260.058 176.908C273.88 168.725 273.88 155.182 260.058 146.718C246.235 138.535 223.385 138.535 209.563 146.718C195.74 154.9 195.458 168.443 209.563 176.908Z" fill="#D6D5DA"/>
<path opacity="0.3226" d="M234.668 181.987C253.52 181.987 268.802 172.892 268.802 161.672C268.802 150.453 253.52 141.357 234.668 141.357C215.817 141.357 200.535 150.453 200.535 161.672C200.535 172.892 215.817 181.987 234.668 181.987Z" fill="#D1D1D6"/>
<path opacity="0.3548" d="M211.536 175.496C224.23 183.114 245.105 183.114 257.8 175.496C270.494 167.878 270.494 155.463 257.8 147.845C245.105 140.227 224.23 140.227 211.536 147.845C198.842 155.463 198.842 167.878 211.536 175.496Z" fill="#CDCCD2"/>
<path opacity="0.3871" d="M234.668 180.293C251.961 180.293 265.98 171.956 265.98 161.672C265.98 151.387 251.961 143.05 234.668 143.05C217.374 143.05 203.355 151.387 203.355 161.672C203.355 171.956 217.374 180.293 234.668 180.293Z" fill="#C8C7CE"/>
<path opacity="0.4194" d="M213.794 174.368C225.359 181.422 244.26 181.422 255.825 174.368C267.391 167.314 267.391 156.311 255.825 149.257C244.26 142.203 225.359 142.203 213.794 149.257C202.228 156.029 202.228 167.314 213.794 174.368Z" fill="#C3C3CA"/>
<path opacity="0.4516" d="M234.668 178.602C250.248 178.602 262.878 171.023 262.878 161.673C262.878 152.323 250.248 144.744 234.668 144.744C219.089 144.744 206.459 152.323 206.459 161.673C206.459 171.023 219.089 178.602 234.668 178.602Z" fill="#BFBEC6"/>
<path opacity="0.4839" d="M215.768 172.958C226.205 179.165 243.131 179.165 253.568 172.958C264.006 166.75 264.006 156.593 253.568 150.386C243.131 144.179 226.205 144.179 215.768 150.386C205.33 156.593 205.33 166.75 215.768 172.958Z" fill="#BAB9C2"/>
<path opacity="0.5161" d="M234.668 176.625C248.689 176.625 260.056 169.93 260.056 161.672C260.056 153.413 248.689 146.718 234.668 146.718C220.646 146.718 209.279 153.413 209.279 161.672C209.279 169.93 220.646 176.625 234.668 176.625Z" fill="#B6B5BD"/>
<path opacity="0.5484" d="M218.025 171.829C227.334 177.472 242.285 177.472 251.594 171.829C260.903 166.186 260.903 157.44 251.594 151.797C242.285 146.154 227.334 146.154 218.025 151.797C208.716 157.157 208.716 166.186 218.025 171.829Z" fill="#B1B0B9"/>
<path opacity="0.5806" d="M234.668 174.932C246.976 174.932 256.954 168.995 256.954 161.671C256.954 154.347 246.976 148.41 234.668 148.41C222.36 148.41 212.383 154.347 212.383 161.671C212.383 168.995 222.36 174.932 234.668 174.932Z" fill="#ADABB5"/>
<path opacity="0.6129" d="M219.999 170.419C228.18 175.215 241.156 175.215 249.337 170.419C257.517 165.622 257.517 157.722 249.337 152.926C241.156 148.129 228.18 148.129 219.999 152.926C211.818 157.722 211.818 165.622 219.999 170.419Z" fill="#A8A7B1"/>
<path opacity="0.6452" d="M234.667 173.24C245.261 173.24 253.849 168.06 253.849 161.672C253.849 155.283 245.261 150.104 234.667 150.104C224.073 150.104 215.484 155.283 215.484 161.672C215.484 168.06 224.073 173.24 234.667 173.24Z" fill="#A3A2AD"/>
<path opacity="0.6774" d="M222.256 169.289C229.308 173.521 240.592 173.521 247.362 169.289C254.415 165.057 254.415 158.568 247.362 154.335C240.31 150.103 229.026 150.103 222.256 154.335C215.204 158.285 215.204 165.057 222.256 169.289Z" fill="#9F9DA9"/>
<path opacity="0.7097" d="M223.386 168.727C229.874 172.394 240.029 172.394 246.517 168.727C253.005 165.059 253.005 158.851 246.517 154.901C240.029 151.233 229.874 151.233 223.386 154.901C216.897 158.569 216.897 164.777 223.386 168.727Z" fill="#9A99A5"/>
<path opacity="0.7419" d="M224.229 167.879C230.153 171.264 239.462 171.264 245.104 167.879C251.028 164.493 251.028 158.85 245.104 155.464C239.18 152.078 229.871 152.078 224.229 155.464C218.588 158.85 218.588 164.493 224.229 167.879Z" fill="#9694A1"/>
<path opacity="0.7742" d="M225.359 167.315C230.437 170.418 238.899 170.418 244.259 167.315C249.337 164.211 249.337 159.132 244.259 156.029C239.182 152.925 230.719 152.925 225.359 156.029C220.281 159.132 220.281 164.211 225.359 167.315Z" fill="#91909D"/>
<path opacity="0.8065" d="M226.485 166.751C230.999 169.572 238.615 169.572 243.129 166.751C247.642 163.93 247.642 159.415 243.129 156.876C238.615 154.054 230.999 154.054 226.485 156.876C221.69 159.415 221.69 163.93 226.485 166.751Z" fill="#8C8B99"/>
<path opacity="0.8387" d="M227.617 166.185C231.566 168.725 238.336 168.725 242.286 166.185C246.235 163.646 246.235 159.978 242.286 157.439C238.336 154.899 231.566 154.899 227.617 157.439C223.386 159.696 223.386 163.646 227.617 166.185Z" fill="#888694"/>
<path opacity="0.871" d="M228.465 165.341C231.85 167.316 237.492 167.316 240.877 165.341C244.262 163.366 244.262 159.98 240.877 158.005C237.492 156.03 231.85 156.03 228.465 158.005C225.08 159.98 225.08 163.366 228.465 165.341Z" fill="#838290"/>
<path opacity="0.9032" d="M229.59 164.775C232.411 166.468 237.207 166.468 240.028 164.775C242.849 163.082 242.849 160.26 240.028 158.568C237.207 156.875 232.411 156.875 229.59 158.568C226.769 160.26 226.769 163.082 229.59 164.775Z" fill="#7F7D8C"/>
<path opacity="0.9355" d="M230.72 164.211C232.977 165.622 236.644 165.622 238.901 164.211C241.157 162.8 241.157 160.543 238.901 159.414C236.644 158.004 232.977 158.004 230.72 159.414C228.463 160.543 228.463 162.8 230.72 164.211Z" fill="#7A7888"/>
<path opacity="0.9677" d="M231.848 163.647C233.541 164.776 236.362 164.776 238.054 163.647C239.747 162.519 239.747 161.108 238.054 159.979C236.362 158.851 233.541 158.851 231.848 159.979C229.874 160.826 229.874 162.519 231.848 163.647Z" fill="#767484"/>
<path opacity="0.35" d="M232.694 163.083C233.822 163.647 235.515 163.647 236.643 163.083C237.772 162.518 237.772 161.39 236.643 160.543C235.515 159.979 233.822 159.979 232.694 160.543C231.566 161.108 231.566 162.236 232.694 163.083Z" fill="#716F80"/>
</g>
<path d="M241.436 10.4395C219.433 11.0038 196.302 0 196.302 0C196.302 0 193.199 0.282145 187.557 3.66792C187.557 3.66792 199.122 51.9151 204.764 73.0762C213.791 106.37 232.692 141.356 232.692 141.356C232.692 141.356 267.389 143.331 278.109 115.398C284.597 98.4695 286.571 51.633 286.571 51.633C286.571 51.633 263.158 36.1149 241.436 10.4395Z" fill="#018D8C"/>
<path d="M232.692 14.3896C210.688 14.9539 187.557 3.9502 187.557 3.9502C187.557 3.9502 189.531 53.0439 196.019 77.5907C205.046 110.884 232.692 141.92 232.692 141.92C232.692 141.92 260.337 142.767 269.364 119.913C275.852 102.984 277.826 56.1475 277.826 56.1475C277.826 56.1475 254.413 40.0651 232.692 14.3896Z" fill="#20B4B3"/>
<path d="M226.486 86.6204L208.996 58.1236L216.048 53.0449L227.332 71.6666L254.695 65.4594L260.901 78.7203L226.486 86.6204Z" fill="white"/>
<g opacity="0.6">
<path opacity="0.502" d="M72.662 317.596V304.14C75.3532 305.556 78.186 306.973 81.0188 308.389V321.845C78.186 320.57 75.3532 319.154 72.662 317.596ZM46.1751 300.741V275.812C48.4413 277.512 50.7076 279.211 53.1155 280.769V305.698C50.7076 304.14 48.4413 302.44 46.1751 300.741ZM58.7812 309.522V280.203C61.3307 281.761 63.8802 283.319 66.4298 284.877V314.197C63.8802 312.639 61.3307 311.08 58.7812 309.522ZM24.7872 281.477V248.9C26.4869 250.741 28.3283 252.724 30.1696 254.566V287.143C28.3283 285.302 26.4869 283.46 24.7872 281.477ZM34.8438 291.392V256.124C36.8267 257.965 38.9514 259.665 41.076 261.364V296.633C38.8097 295.075 36.8267 293.234 34.8438 291.392ZM9.34833 260.231V221.988C10.4815 224.113 11.7562 226.096 13.031 228.079V266.322C11.7562 264.339 10.4815 262.356 9.34833 260.231ZM16.2888 271.138V221.422C17.7052 223.404 19.2632 225.387 20.8213 227.37V277.087C19.2632 275.104 17.7052 273.121 16.2888 271.138ZM4.1076 249.042V192.952C4.95745 195.076 5.8073 197.201 6.94043 199.325V255.415C5.8073 253.291 4.95745 251.166 4.1076 249.042ZM98.0158 261.506C44.617 239.977 7.64863 205.983 0 167.031V246.917C7.79027 285.868 44.617 319.862 98.0158 341.392V261.506Z" fill="#20B4B3"/>
<path opacity="0.502" d="M254.673 350.173V332.184C263.88 331.618 272.945 330.91 281.726 329.777V347.765C272.945 348.898 263.88 349.606 254.673 350.173ZM211.472 350.173V317.312C216.996 317.595 222.52 317.737 228.186 317.879C232.01 317.879 235.835 317.879 239.659 317.879V350.74C235.835 350.74 232.01 350.881 228.186 350.74C222.52 350.74 216.996 350.456 211.472 350.173ZM169.83 345.924V295.783C178.47 297.199 187.393 298.191 196.6 299.04V349.181C187.535 348.332 178.612 347.34 169.83 345.924ZM296.032 345.64V292.667C304.672 291.25 313.171 289.55 321.386 287.709V340.683C313.029 342.666 304.672 344.366 296.032 345.64ZM342.632 269.862C308.638 280.344 269.545 286.151 228.186 285.726C199.291 285.443 171.813 282.185 146.459 276.378V356.264C171.813 361.929 199.291 365.329 228.186 365.612C269.545 366.037 308.638 360.229 342.632 349.748V269.862Z" fill="#20B4B3"/>
<path opacity="0.502" d="M399.995 292.667V277.228C437.246 255.274 461.467 225.954 465.433 193.235V208.674C461.467 241.393 437.246 270.712 399.995 292.667ZM466 233.886V154C464.866 193.093 434.555 227.937 387.389 252.016V331.902C434.555 307.681 464.866 272.837 466 233.886Z" fill="#20B4B3"/>
<path opacity="0.7529" d="M465.434 193.234C461.468 225.812 437.248 255.273 399.996 277.228V292.667C437.248 270.712 461.468 241.392 465.434 208.673V193.234Z" fill="#20B4B3"/>
<path d="M196.6 299.04C187.535 298.19 178.612 297.199 169.83 295.782V345.923C178.47 347.34 187.394 348.331 196.6 349.181V299.04Z" fill="#20B4B3"/>
<path d="M281.725 329.776C272.802 330.909 263.879 331.618 254.672 332.184V350.173C263.879 349.606 272.944 348.898 281.725 347.765V329.776Z" fill="#20B4B3"/>
<path d="M321.242 287.71C313.027 289.693 304.529 291.393 295.889 292.667V345.641C304.529 344.225 313.027 342.525 321.242 340.684V287.71Z" fill="#20B4B3"/>
<path opacity="0.7529" d="M239.657 317.879C235.833 317.879 232.009 318.021 228.184 317.879C222.519 317.879 216.995 317.596 211.471 317.312V350.173C216.995 350.457 222.519 350.598 228.184 350.74C232.009 350.74 235.833 350.74 239.657 350.74V317.879Z" fill="#20B4B3"/>
<path d="M6.79962 199.183C5.80813 197.059 4.81664 194.934 3.9668 192.81V248.9C4.81664 251.024 5.66649 253.149 6.79962 255.273V199.183Z" fill="#20B4B3"/>
<path d="M13.0303 228.219C11.7556 226.236 10.4808 224.111 9.34766 222.128V260.371C10.4808 262.496 11.7556 264.479 13.0303 266.462V228.219Z" fill="#20B4B3"/>
<path opacity="0.7529" d="M20.9622 227.228C19.4042 225.245 17.8461 223.262 16.4297 221.279V270.995C17.8461 272.978 19.4042 274.961 20.9622 276.944V227.228Z" fill="#20B4B3"/>
<path d="M30.1695 254.566C28.3281 252.725 26.4868 250.883 24.7871 248.9V281.478C26.4868 283.319 28.3281 285.302 30.1695 287.144V254.566Z" fill="#20B4B3"/>
<path opacity="0.7529" d="M40.9334 261.506C38.8088 259.807 36.6842 257.965 34.7012 256.266V291.534C36.6842 293.376 38.8088 295.075 40.9334 296.775V261.506Z" fill="#20B4B3"/>
<path opacity="0.7529" d="M53.1143 280.91C50.7063 279.352 48.4401 277.652 46.1738 275.952V300.881C48.4401 302.581 50.7063 304.28 53.1143 305.838V280.91Z" fill="#20B4B3"/>
<path opacity="0.7529" d="M66.4299 284.876C63.8803 283.318 61.3308 281.76 58.7812 280.202V309.522C61.3308 311.08 63.8803 312.638 66.4299 314.196V284.876Z" fill="#20B4B3"/>
<path opacity="0.7529" d="M81.0209 308.389C78.1881 306.972 75.4969 305.556 72.6641 304.14V317.596C75.3552 319.012 78.1881 320.428 81.0209 321.845V308.389Z" fill="#20B4B3"/>
</g>
<defs>
<linearGradient id="paint0_linear" x1="210.118" y1="337.695" x2="351.507" y2="337.695" gradientUnits="userSpaceOnUse">
<stop stop-color="#0D549F"/>
<stop offset="1" stop-color="#138281"/>
</linearGradient>
<linearGradient id="paint1_linear" x1="110.188" y1="337.555" x2="251.978" y2="337.555" gradientUnits="userSpaceOnUse">
<stop stop-color="#138281"/>
<stop offset="1" stop-color="#0D549F"/>
</linearGradient>
<linearGradient id="paint2_linear" x1="94.1732" y1="304.132" x2="362.131" y2="304.132" gradientUnits="userSpaceOnUse">
<stop stop-color="#138281"/>
<stop offset="1" stop-color="#0D549F"/>
</linearGradient>
<linearGradient id="paint3_linear" x1="210.118" y1="278.728" x2="351.507" y2="278.728" gradientUnits="userSpaceOnUse">
<stop stop-color="#0D549F"/>
<stop offset="1" stop-color="#138281"/>
</linearGradient>
<linearGradient id="paint4_linear" x1="110.188" y1="278.304" x2="251.978" y2="278.304" gradientUnits="userSpaceOnUse">
<stop stop-color="#138281"/>
<stop offset="1" stop-color="#0D549F"/>
</linearGradient>
<linearGradient id="paint5_linear" x1="94.1732" y1="245.446" x2="362.131" y2="245.446" gradientUnits="userSpaceOnUse">
<stop stop-color="#138281"/>
<stop offset="1" stop-color="#0D549F"/>
</linearGradient>
<linearGradient id="paint6_linear" x1="210.118" y1="219.758" x2="351.507" y2="219.758" gradientUnits="userSpaceOnUse">
<stop stop-color="#0D549F"/>
<stop offset="1" stop-color="#138281"/>
</linearGradient>
<linearGradient id="paint7_linear" x1="110.188" y1="219.334" x2="251.978" y2="219.335" gradientUnits="userSpaceOnUse">
<stop stop-color="#138281"/>
<stop offset="1" stop-color="#0D549F"/>
</linearGradient>
<linearGradient id="paint8_linear" x1="86.1574" y1="165.864" x2="369.387" y2="165.864" gradientUnits="userSpaceOnUse">
<stop stop-color="#138281"/>
<stop offset="1" stop-color="#0D549F"/>
</linearGradient>
</defs>
</svg>
