<svg width="444" height="394" viewBox="0 0 444 394" fill="none" xmlns="http://www.w3.org/2000/svg">
<path d="M113.605 49.6206L128.223 41.0361L172.868 78.0766L158.251 86.5022L113.605 49.6206Z" fill="#2D4483"/>
<path d="M158.252 86.5024L172.869 78.0769L218.468 66.6309L203.851 75.2154L158.252 86.5024Z" fill="url(#paint0_linear)"/>
<path d="M203.85 75.2154L218.467 66.6309L262.953 108.441L248.336 116.866L203.85 75.2154Z" fill="#2D4483"/>
<path d="M277.57 77.1228L292.187 68.6973L350.179 112.097L335.562 120.681L277.57 77.1228Z" fill="#2D4483"/>
<path d="M383.386 112.096L398.003 103.671L397.367 347.216L382.75 355.801L383.386 112.096Z" fill="#2D4483"/>
<path d="M383.386 112.097L382.751 355.801L113.129 200.009L113.606 49.6211L158.251 86.5026L203.85 75.2156L248.337 116.866L277.571 77.1233L335.563 120.682L383.386 112.097Z" fill="url(#paint1_linear)"/>
<path d="M335.562 120.681L350.18 112.096L398.003 103.671L383.386 112.096L335.562 120.681Z" fill="url(#paint2_linear)"/>
<path d="M277.57 77.2812V293.006" stroke="white" stroke-width="0.4948" stroke-miterlimit="10" stroke-linecap="round" stroke-linejoin="round"/>
<path d="M203.85 75.374V252.628" stroke="white" stroke-width="0.4948" stroke-miterlimit="10" stroke-linecap="round" stroke-linejoin="round"/>
<path d="M335.562 120.84V327.345" stroke="white" stroke-width="0.4948" stroke-miterlimit="10" stroke-linecap="round" stroke-linejoin="round"/>
<path d="M158.252 86.8203V225.921" stroke="white" stroke-width="0.4948" stroke-miterlimit="10" stroke-linecap="round" stroke-linejoin="round"/>
<path d="M333.18 119.41C333.18 117.82 334.292 117.184 335.563 117.979C336.834 118.774 337.946 120.681 337.946 122.112C337.946 123.702 336.834 124.338 335.563 123.543C334.292 122.748 333.18 120.999 333.18 119.41Z" fill="white"/>
<path d="M275.188 76.0103C275.188 74.4205 276.3 73.7846 277.571 74.5795C278.842 75.3744 279.954 77.282 279.954 78.7128C279.954 80.3025 278.842 80.9384 277.571 80.1435C276.3 79.3487 275.188 77.441 275.188 76.0103Z" fill="white"/>
<path d="M201.467 73.9438C201.467 72.3541 202.579 71.7182 203.85 72.5131C205.121 73.308 206.233 75.2156 206.233 76.6464C206.233 78.2361 205.121 78.872 203.85 78.0771C202.579 77.4412 201.467 75.5336 201.467 73.9438Z" fill="white"/>
<path d="M155.869 85.3892C155.869 83.7994 156.981 83.1635 158.252 83.9584C159.523 84.7533 160.636 86.6609 160.636 88.0917C160.636 89.6814 159.523 90.3173 158.252 89.5224C156.981 88.7276 155.869 86.9789 155.869 85.3892Z" fill="white"/>
<path d="M334.926 163.762L306.327 113.368L277.729 130.855L293.458 139.758V258.351L319.197 273.294V154.701L334.926 163.762Z" fill="#20B4B3"/>
<path d="M88.6602 81.8923L103.277 73.4668L142.362 129.743L127.745 138.168L88.6602 81.8923Z" fill="#2D4483"/>
<path d="M127.746 138.169L142.363 129.743L193.364 139.758L178.747 148.343L127.746 138.169Z" fill="url(#paint3_linear)"/>
<path d="M178.746 148.343L193.363 139.759L265.813 223.537L251.196 231.963L178.746 148.343Z" fill="#2D4483"/>
<path d="M251.195 231.962L265.812 223.537L309.028 212.727L294.411 221.152L251.195 231.962Z" fill="url(#paint4_linear)"/>
<path d="M88.6602 81.8926L127.745 138.169L178.746 148.343L251.196 231.962L294.412 221.152L357.17 266.936L356.852 373.288L88.1836 217.973L88.6602 81.8926Z" fill="url(#paint5_linear)"/>
<path d="M294.412 221.152L309.029 212.727L371.787 258.511L357.17 266.936L294.412 221.152Z" fill="#2D4483"/>
<path d="M357.169 266.936L371.786 258.511L371.469 364.704L356.852 373.289L357.169 266.936Z" fill="#2D4483"/>
<path d="M178.746 148.502V269.957" stroke="white" stroke-width="0.4948" stroke-miterlimit="10" stroke-linecap="round" stroke-linejoin="round"/>
<path d="M294.412 221.311V338.791" stroke="white" stroke-width="0.4948" stroke-miterlimit="10" stroke-linecap="round" stroke-linejoin="round"/>
<path d="M127.746 138.327V241.977" stroke="white" stroke-width="0.4948" stroke-miterlimit="10" stroke-linecap="round" stroke-linejoin="round"/>
<path d="M251.195 232.28V310.813" stroke="white" stroke-width="0.4948" stroke-miterlimit="10" stroke-linecap="round" stroke-linejoin="round"/>
<path d="M125.361 137.056C125.361 135.466 126.473 134.831 127.745 135.625C129.016 136.42 130.128 138.328 130.128 139.759C130.128 141.348 129.016 141.984 127.745 141.189C126.473 140.395 125.361 138.487 125.361 137.056Z" fill="white"/>
<path d="M176.363 147.071C176.363 145.481 177.475 144.845 178.746 145.64C180.018 146.435 181.13 148.343 181.13 149.773C181.13 151.204 180.018 151.999 178.746 151.204C177.475 150.568 176.363 148.661 176.363 147.071Z" fill="white"/>
<path d="M248.812 230.849C248.812 229.259 249.925 228.624 251.196 229.418C252.467 230.213 253.579 232.121 253.579 233.552C253.579 234.982 252.467 235.777 251.196 234.982C249.766 234.188 248.812 232.439 248.812 230.849Z" fill="white"/>
<path d="M292.029 220.04C292.029 218.45 293.141 217.814 294.413 218.609C295.684 219.404 296.796 221.311 296.796 222.742C296.796 224.173 295.684 224.968 294.413 224.173C293.141 223.378 292.029 221.47 292.029 220.04Z" fill="white"/>
<path d="M55.2949 187.609L69.912 179.184L105.025 181.568L90.4077 189.994L55.2949 187.609Z" fill="url(#paint6_linear)"/>
<path d="M90.4082 189.994L105.025 181.568L148.718 230.691L134.101 239.116L90.4082 189.994Z" fill="#324B91"/>
<path d="M134.1 239.116L148.717 230.69L194.316 236.572L179.699 244.998L134.1 239.116Z" fill="url(#paint7_linear)"/>
<path d="M179.699 244.998L194.316 236.572L235.467 268.685L220.85 277.269L179.699 244.998Z" fill="#324B91"/>
<path d="M220.85 277.269L235.467 268.685L289.327 272.659L274.71 281.243L220.85 277.269Z" fill="url(#paint8_linear)"/>
<path d="M323.964 321.941L338.581 313.356L338.422 384.576L323.805 393.002L323.964 321.941Z" fill="#2D4483"/>
<path d="M274.711 281.244L289.328 272.659L338.581 313.356L323.964 321.941L274.711 281.244Z" fill="#324B91"/>
<path d="M274.711 281.244L323.964 321.941L323.805 393.001L55.1367 237.845L55.2956 187.609L90.4084 189.994L134.101 239.116L179.7 244.998L220.85 277.27L274.711 281.244Z" fill="url(#paint9_linear)"/>
<path d="M90.4082 190.312V257.08" stroke="white" stroke-width="0.4948" stroke-miterlimit="10" stroke-linecap="round" stroke-linejoin="round"/>
<path d="M179.699 245.157V309.064" stroke="white" stroke-width="0.4948" stroke-miterlimit="10" stroke-linecap="round" stroke-linejoin="round"/>
<path d="M274.711 281.402V363.909" stroke="white" stroke-width="0.4948" stroke-miterlimit="10" stroke-linecap="round" stroke-linejoin="round"/>
<path d="M220.85 277.428V332.75" stroke="white" stroke-width="0.4948" stroke-miterlimit="10" stroke-linecap="round" stroke-linejoin="round"/>
<path d="M134.1 239.275V283.788" stroke="white" stroke-width="0.4948" stroke-miterlimit="10" stroke-linecap="round" stroke-linejoin="round"/>
<path d="M272.328 279.336C272.328 277.747 273.44 277.111 274.711 277.906C275.982 278.701 277.095 280.608 277.095 282.039C277.095 283.47 275.982 284.265 274.711 283.47C273.44 282.675 272.328 280.926 272.328 279.336Z" fill="white"/>
<path d="M177.316 243.885C177.316 242.296 178.429 241.66 179.7 242.454C180.971 243.249 182.083 245.157 182.083 246.588C182.083 248.019 180.971 248.813 179.7 248.019C178.429 247.224 177.316 245.316 177.316 243.885Z" fill="white"/>
<path d="M92.056 193.036C92.9678 192.51 92.9602 190.788 92.0388 189.191C91.1175 187.595 89.6313 186.727 88.7195 187.254C87.8076 187.781 87.8153 189.502 88.7366 191.099C89.658 192.696 91.1441 193.563 92.056 193.036Z" fill="white"/>
<path d="M222.497 280.46C223.409 279.933 223.402 278.212 222.48 276.615C221.559 275.019 220.073 274.151 219.161 274.678C218.249 275.205 218.257 276.926 219.178 278.523C220.099 280.12 221.585 280.987 222.497 280.46Z" fill="white"/>
<path d="M131.717 238.003C131.717 236.414 132.829 235.778 134.1 236.573C135.371 237.368 136.483 239.275 136.483 240.706C136.483 242.296 135.371 242.932 134.1 242.137C132.829 241.342 131.717 239.434 131.717 238.003Z" fill="white"/>
<path d="M371.909 43.8458C379.535 39.3946 390.021 40.0305 401.461 46.7073C424.499 60.0609 443.088 92.1733 443.088 118.722C443.088 131.916 438.48 141.137 431.013 145.429L424.181 149.403C431.648 145.111 436.256 135.732 436.256 122.696C436.256 96.3066 417.826 64.0352 394.788 50.6816C383.19 44.0048 372.703 43.3689 365.077 47.8201L371.909 43.8458Z" fill="url(#paint10_linear)"/>
<path d="M394.788 50.84C371.75 37.4864 353.002 48.2965 353.002 74.6859C353.002 101.075 371.432 133.347 394.47 146.7C417.508 160.054 436.256 149.403 436.256 122.854C436.256 96.465 417.667 64.1937 394.788 50.84Z" fill="#20B4B3"/>
<path d="M366.508 80.4096C367.143 80.0917 367.938 80.2507 368.732 80.7276H368.891C367.779 78.8199 366.984 77.3892 367.143 75.7994C367.302 73.5738 369.05 72.779 370.957 73.8918L373.181 75.1636L381.125 79.7737L383.985 81.5224L381.76 65.9432C381.76 65.6252 381.76 65.3073 381.76 65.1483C381.76 59.9022 384.938 57.3587 388.275 59.2663C389.228 59.9022 390.022 61.333 390.022 62.4458V71.8251C390.022 72.3021 389.863 72.62 390.181 73.0969L397.331 89.3121C398.125 91.0608 399.396 92.6505 400.667 93.2864L404.004 95.194V120.63L399.396 117.927C398.443 117.45 397.649 117.609 397.172 118.245C396.536 119.199 395.424 119.199 393.994 118.404L374.77 107.276C372.704 106.004 370.957 103.143 370.957 100.758C370.957 99.8042 371.274 99.1683 371.751 98.6914C369.685 97.4197 368.097 94.8761 368.097 92.4915C368.097 91.2197 368.573 89.948 369.209 90.2659L368.732 89.948C365.713 88.1993 363.489 81.8404 366.508 80.4096Z" fill="white"/>
<path d="M404.003 123.491L418.779 132.075C419.573 132.552 420.209 132.076 420.209 131.122V104.096C420.209 103.143 419.573 101.871 418.779 101.553L404.003 92.9683C403.209 92.4914 402.573 92.9683 402.573 93.9222V120.947C402.573 121.901 403.209 123.014 404.003 123.491Z" fill="url(#paint11_linear)"/>
<path d="M13.5123 183.034C18.9625 179.853 26.4565 180.307 34.6318 185.079C51.096 194.622 64.3809 217.571 64.3809 236.544C64.3809 245.974 61.088 252.564 55.7514 255.631L50.8689 258.471C56.2056 255.404 59.4984 248.701 59.4984 239.385C59.4984 220.525 46.3271 197.462 29.8629 187.919C21.5741 183.147 14.08 182.693 8.62983 185.874L13.5123 183.034Z" fill="url(#paint12_linear)"/>
<path d="M29.8626 188.032C13.3984 178.489 -1.14441e-05 186.214 -1.14441e-05 205.074C-1.14441e-05 223.933 13.1713 246.996 29.6355 256.539C46.0996 266.083 59.498 258.471 59.498 239.498C59.498 220.638 46.2132 197.575 29.8626 188.032Z" fill="#20B4B3"/>
<path d="M9.65237 209.164C10.1066 208.937 10.6743 209.051 11.242 209.391H11.3556C10.5607 208.028 9.993 207.006 10.1066 205.869C10.2201 204.279 11.4691 203.711 12.8317 204.506L14.4213 205.415L20.0986 208.71L22.1424 209.959L20.5528 198.826C20.5528 198.598 20.5528 198.371 20.5528 198.257C20.5528 194.508 22.8237 192.691 25.2082 194.054C25.8894 194.508 26.4572 195.531 26.4572 196.326V203.029C26.4572 203.37 26.3436 203.597 26.5707 203.938L31.6803 215.526C32.248 216.776 33.1564 217.912 34.0648 218.367L36.4492 219.73V237.908L33.1564 235.976C32.4751 235.635 31.9074 235.749 31.5667 236.203C31.1126 236.885 30.3177 236.885 29.2958 236.317L15.5568 228.364C14.0807 227.455 12.8317 225.41 12.8317 223.706C12.8317 223.025 13.0587 222.57 13.3994 222.229C11.9233 221.32 10.7878 219.503 10.7878 217.799C10.7878 216.89 11.1285 215.981 11.5827 216.208L11.242 215.981C9.08464 214.731 7.495 210.187 9.65237 209.164Z" fill="white"/>
<path d="M36.4496 239.953L47.0093 246.088C47.5771 246.429 48.0312 246.088 48.0312 245.406V226.092C48.0312 225.411 47.5771 224.502 47.0093 224.275L36.4496 218.14C35.8818 217.799 35.4277 218.14 35.4277 218.821V238.135C35.4277 238.817 35.8818 239.612 36.4496 239.953Z" fill="url(#paint13_linear)"/>
<path d="M217.86 174.634C222.239 172.078 228.26 172.443 234.829 176.277C248.057 183.945 258.73 202.383 258.73 217.627C258.73 225.204 256.085 230.498 251.797 232.962L247.874 235.244C252.162 232.78 254.808 227.394 254.808 219.909C254.808 204.757 244.225 186.227 230.997 178.559C224.337 174.725 218.316 174.36 213.937 176.916L217.86 174.634Z" fill="url(#paint14_linear)"/>
<path d="M230.996 178.651C217.768 170.983 207.003 177.19 207.003 192.343C207.003 207.496 217.585 226.026 230.813 233.693C244.042 241.361 254.807 235.245 254.807 220.001C254.807 204.848 244.133 186.318 230.996 178.651Z" fill="#20B4B3"/>
<path d="M214.759 195.629C215.124 195.446 215.58 195.538 216.036 195.812H216.128C215.489 194.716 215.033 193.895 215.124 192.982C215.215 191.704 216.219 191.247 217.313 191.886L218.591 192.617L223.152 195.264L224.794 196.268L223.517 187.322C223.517 187.14 223.517 186.957 223.517 186.866C223.517 183.854 225.342 182.393 227.257 183.489C227.805 183.854 228.261 184.675 228.261 185.314V190.7C228.261 190.974 228.17 191.156 228.352 191.43L232.457 200.741C232.914 201.745 233.643 202.658 234.373 203.023L236.289 204.118V218.723L233.643 217.171C233.096 216.897 232.64 216.989 232.366 217.354C232.001 217.901 231.363 217.901 230.542 217.445L219.503 211.055C218.317 210.325 217.313 208.682 217.313 207.313C217.313 206.765 217.496 206.4 217.77 206.126C216.584 205.396 215.671 203.936 215.671 202.566C215.671 201.836 215.945 201.106 216.31 201.288L216.036 201.106C214.303 200.102 213.026 196.45 214.759 195.629Z" fill="white"/>
<path d="M236.288 220.365L244.773 225.294C245.229 225.568 245.594 225.294 245.594 224.746V209.229C245.594 208.681 245.229 207.951 244.773 207.768L236.288 202.839C235.832 202.565 235.467 202.839 235.467 203.387V218.904C235.467 219.452 235.832 220.091 236.288 220.365Z" fill="url(#paint15_linear)"/>
<path d="M77.334 1.40425C81.0972 -0.792198 86.2716 -0.47842 91.9163 2.81624C103.284 9.40557 112.457 25.2513 112.457 38.3516C112.457 44.8624 110.183 49.4122 106.499 51.5302L103.127 53.4913C106.812 51.3733 109.086 46.7451 109.086 40.3127C109.086 27.2909 99.9915 11.3667 88.6235 4.77735C82.9004 1.48269 77.726 1.16891 73.9628 3.36536L77.334 1.40425Z" fill="url(#paint16_linear)"/>
<path d="M88.6217 4.8561C77.2537 -1.73323 68.0026 3.60099 68.0026 16.6228C68.0026 29.6445 77.0969 45.5687 88.4649 52.1581C99.8328 58.7474 109.084 53.4916 109.084 40.3914C109.084 27.3696 99.9112 11.4454 88.6217 4.8561Z" fill="#20B4B3"/>
<path d="M74.6695 19.4469C74.9831 19.29 75.3751 19.3685 75.7671 19.6038H75.8455C75.2967 18.6625 74.9047 17.9565 74.9831 17.172C75.0615 16.0738 75.9239 15.6816 76.8647 16.2307L77.9623 16.8582L81.8823 19.1331L83.2935 19.996L82.1959 12.3085C82.1959 12.1516 82.1959 11.9947 82.1959 11.9162C82.1959 9.32757 83.7639 8.07246 85.4103 9.0138C85.8807 9.32757 86.2727 10.0336 86.2727 10.5827V15.2109C86.2727 15.4462 86.1943 15.6031 86.3511 15.8385L89.8791 23.8398C90.2711 24.7027 90.8983 25.4871 91.5255 25.8009L93.1719 26.7422V39.2933L90.8983 37.9598C90.4279 37.7244 90.0359 37.8029 89.8007 38.1167C89.4871 38.5873 88.9383 38.5873 88.2327 38.1951L78.7463 32.704C77.7271 32.0765 76.8647 30.6644 76.8647 29.4878C76.8647 29.0171 77.0215 28.7033 77.2567 28.468C76.2375 27.8405 75.4535 26.5853 75.4535 25.4087C75.4535 24.7811 75.6887 24.1536 76.0023 24.3105L75.7671 24.1536C74.2775 23.2907 73.18 20.1529 74.6695 19.4469Z" fill="white"/>
<path d="M93.1712 40.7044L100.462 44.9404C100.854 45.1758 101.168 44.9404 101.168 44.4698V31.1342C101.168 30.6635 100.854 30.036 100.462 29.8791L93.1712 25.6431C92.7792 25.4078 92.4656 25.6431 92.4656 26.1138V39.4493C92.4656 39.92 92.7792 40.4691 93.1712 40.7044Z" fill="url(#paint17_linear)"/>
<defs>
<linearGradient id="paint0_linear" x1="143.577" y1="76.5602" x2="229.076" y2="76.5602" gradientUnits="userSpaceOnUse">
<stop stop-color="#138281"/>
<stop offset="1" stop-color="#0D549F"/>
</linearGradient>
<linearGradient id="paint1_linear" x1="47.2649" y1="202.612" x2="430.995" y2="202.612" gradientUnits="userSpaceOnUse">
<stop stop-color="#138281"/>
<stop offset="1" stop-color="#0D549F"/>
</linearGradient>
<linearGradient id="paint2_linear" x1="320.345" y1="112.17" x2="409.002" y2="112.17" gradientUnits="userSpaceOnUse">
<stop stop-color="#138281"/>
<stop offset="1" stop-color="#0D549F"/>
</linearGradient>
<linearGradient id="paint3_linear" x1="111.754" y1="139.037" x2="204.923" y2="139.037" gradientUnits="userSpaceOnUse">
<stop stop-color="#138281"/>
<stop offset="1" stop-color="#0D549F"/>
</linearGradient>
<linearGradient id="paint4_linear" x1="237.101" y1="222.338" x2="319.216" y2="222.338" gradientUnits="userSpaceOnUse">
<stop stop-color="#138281"/>
<stop offset="1" stop-color="#0D549F"/>
</linearGradient>
<linearGradient id="paint5_linear" x1="22.6293" y1="227.496" x2="404.554" y2="227.496" gradientUnits="userSpaceOnUse">
<stop stop-color="#138281"/>
<stop offset="1" stop-color="#0D549F"/>
</linearGradient>
<linearGradient id="paint6_linear" x1="43.1753" y1="184.585" x2="113.785" y2="184.585" gradientUnits="userSpaceOnUse">
<stop stop-color="#138281"/>
<stop offset="1" stop-color="#0D549F"/>
</linearGradient>
<linearGradient id="paint7_linear" x1="119.424" y1="237.84" x2="204.923" y2="237.84" gradientUnits="userSpaceOnUse">
<stop stop-color="#138281"/>
<stop offset="1" stop-color="#0D549F"/>
</linearGradient>
<linearGradient id="paint8_linear" x1="204.161" y1="274.96" x2="301.39" y2="274.96" gradientUnits="userSpaceOnUse">
<stop stop-color="#138281"/>
<stop offset="1" stop-color="#0D549F"/>
</linearGradient>
<linearGradient id="paint9_linear" x1="-10.3788" y1="290.239" x2="371.321" y2="290.239" gradientUnits="userSpaceOnUse">
<stop stop-color="#138281"/>
<stop offset="1" stop-color="#0D549F"/>
</linearGradient>
<linearGradient id="paint10_linear" x1="462.1" y1="95.1664" x2="351.335" y2="95.1664" gradientUnits="userSpaceOnUse">
<stop stop-color="#138281"/>
<stop offset="1" stop-color="#0D549F"/>
</linearGradient>
<linearGradient id="paint11_linear" x1="424.507" y1="112.509" x2="399.466" y2="112.509" gradientUnits="userSpaceOnUse">
<stop stop-color="#138281"/>
<stop offset="1" stop-color="#0D549F"/>
</linearGradient>
<linearGradient id="paint12_linear" x1="77.9679" y1="219.71" x2="-1.19122" y2="219.71" gradientUnits="userSpaceOnUse">
<stop stop-color="#138281"/>
<stop offset="1" stop-color="#0D549F"/>
</linearGradient>
<linearGradient id="paint13_linear" x1="51.1029" y1="232.105" x2="33.2074" y2="232.105" gradientUnits="userSpaceOnUse">
<stop stop-color="#138281"/>
<stop offset="1" stop-color="#0D549F"/>
</linearGradient>
<linearGradient id="paint14_linear" x1="269.647" y1="204.102" x2="206.046" y2="204.102" gradientUnits="userSpaceOnUse">
<stop stop-color="#138281"/>
<stop offset="1" stop-color="#0D549F"/>
</linearGradient>
<linearGradient id="paint15_linear" x1="248.062" y1="214.059" x2="233.684" y2="214.059" gradientUnits="userSpaceOnUse">
<stop stop-color="#138281"/>
<stop offset="1" stop-color="#0D549F"/>
</linearGradient>
<linearGradient id="paint16_linear" x1="121.838" y1="26.7283" x2="67.1817" y2="26.7283" gradientUnits="userSpaceOnUse">
<stop stop-color="#138281"/>
<stop offset="1" stop-color="#0D549F"/>
</linearGradient>
<linearGradient id="paint17_linear" x1="103.289" y1="35.2854" x2="90.9326" y2="35.2854" gradientUnits="userSpaceOnUse">
<stop stop-color="#138281"/>
<stop offset="1" stop-color="#0D549F"/>
</linearGradient>
</defs>
</svg>
