<svg width="463" height="450" viewBox="0 0 463 450" fill="none" xmlns="http://www.w3.org/2000/svg">
<g clip-path="url(#clip0)">
<path opacity="0.502" d="M462.858 192.797V142.906C461.732 125.853 454.977 109.646 443.719 94.8479V144.738C454.977 159.536 461.732 175.744 462.858 192.797ZM437.949 137.692V87.8012C434.009 83.2913 429.505 78.9224 424.72 74.8353V124.726C429.505 128.813 434.009 133.182 437.949 137.692ZM416.558 117.961V68.0705C411.351 64.1244 405.722 60.1783 399.67 56.655V106.545C405.722 110.21 411.351 114.015 416.558 117.961ZM388.412 114.86V35.374C434.29 59.7555 462.999 94.7069 462.999 133.323V212.809C462.999 174.193 434.431 139.242 388.412 114.86Z" fill="#20B4B3"/>
<path opacity="0.502" d="M304.398 76.8085V62.4333C300.88 61.7287 297.361 61.1649 293.702 60.6012V74.9764C297.361 75.3992 300.88 76.1039 304.398 76.8085ZM285.259 59.1919V46.5079C281.6 45.9441 277.941 45.5213 274.282 45.0985V57.7825C277.941 58.3463 281.6 58.7691 285.259 59.1919ZM322.833 66.3794V49.1856C319.456 48.34 316.078 47.4944 312.56 46.7897V64.1245C316.078 64.8292 319.456 65.6748 322.833 66.3794ZM265.557 57.0779V31.428C261.757 31.1461 258.098 30.8643 254.298 30.5824V56.0913C257.957 56.5141 261.757 56.6551 265.557 57.0779ZM224.464 55.6685V30.0187C220.664 30.0187 216.723 30.1596 212.924 30.3005V55.8095C216.864 55.8095 220.664 55.6685 224.464 55.6685ZM204.058 56.3732V24.2404C200.258 24.5223 196.599 24.8041 192.799 25.086V57.2188C196.599 56.9369 200.258 56.6551 204.058 56.3732ZM245.151 55.8095V19.0259C241.773 18.8849 238.255 18.8849 234.737 18.744C234.315 18.744 233.892 18.744 233.47 18.744V55.5276C233.892 55.5276 234.315 55.5276 234.737 55.5276C238.255 55.6685 241.773 55.6685 245.151 55.8095ZM184.215 58.2053V12.2611C180.556 12.6839 176.897 13.1067 173.379 13.6704V59.6147C176.897 59.1919 180.556 58.6281 184.215 58.2053ZM149.877 8.31494C176.334 2.67761 204.902 -0.281992 234.737 -0.000125486C274.563 0.422674 311.997 6.48281 344.365 17.0528V96.5392C311.857 86.1101 274.563 79.909 234.737 79.4863C204.902 79.2044 176.193 82.164 149.877 87.8013V8.31494Z" fill="#20B4B3"/>
<path opacity="0.502" d="M14.9169 116.129V100.062C10.1321 106.968 6.33241 114.015 3.65855 121.343V168.697C6.33241 161.368 10.1321 154.181 14.9169 147.416V131.49C16.3242 129.517 17.7315 127.544 19.2795 125.571V134.168C22.2348 130.504 25.3309 126.98 28.8491 123.457V114.86C43.7665 99.7803 63.75 86.5326 87.3926 75.9626V60.4599C83.1707 62.292 79.0896 64.2651 75.1491 66.3791C73.1789 67.3656 71.2087 68.4931 69.2385 69.4796C54.0397 77.9356 40.9519 87.5191 30.1157 98.0891C29.6935 98.5119 29.2713 98.9347 28.7084 99.4984V90.9015C25.1902 94.4248 22.0941 97.9482 19.1388 101.612V110.209C17.7315 112.182 16.3242 114.155 14.9169 116.129ZM0.5625 115.565C9.56919 76.8082 47.5661 43.407 101.325 22.5488V102.035C47.5661 122.893 9.56919 156.295 0.5625 195.051V115.565Z" fill="#20B4B3"/>
<path opacity="0.7529" d="M28.8482 99.4985C29.2704 99.0757 29.6926 98.6529 30.2555 98.0891V113.451C38.1364 105.7 47.5653 98.371 58.12 91.6062C61.6382 89.3513 65.4379 87.0963 69.2376 84.9823V69.6206C71.2078 68.4932 73.0373 67.5066 75.1482 66.5201V81.8818C79.0887 79.7678 83.1698 77.7948 87.3917 75.9626V60.46V75.8217C63.7491 86.5326 43.9063 99.6394 28.8482 114.719V99.4985ZM14.916 116.129C16.3233 114.156 17.7306 112.182 19.2786 110.209V125.571C17.7306 127.544 16.3233 129.517 14.916 131.49V116.129Z" fill="#20B4B3"/>
<path opacity="0.8784" d="M75.1484 66.3792C79.0889 64.2652 83.17 62.2921 87.3919 60.46V75.8217C83.17 77.6538 79.0889 79.6269 75.1484 81.7409V66.3792Z" fill="#20B4B3"/>
<path opacity="0.8784" d="M30.2559 98.0891C38.2774 90.1968 47.7063 82.8683 58.261 76.1035V91.6062C47.7063 98.371 38.2774 105.7 30.2559 113.592V98.0891Z" fill="#20B4B3"/>
<path opacity="0.9725" d="M58.1211 76.245C61.6393 73.99 65.439 71.7351 69.2387 69.6211V84.9828C65.439 87.0968 61.6393 89.3517 58.1211 91.6067V76.245Z" fill="#20B4B3"/>
<path opacity="0.7529" d="M3.6582 121.343C6.33206 114.015 10.1318 106.827 14.9166 100.062V116.129C10.1318 123.035 6.33206 130.081 3.6582 137.41V152.772C6.33206 145.443 10.1318 138.255 14.9166 131.491V147.557C10.1318 154.463 6.33206 161.509 3.6582 168.838V121.343Z" fill="#20B4B3"/>
<path opacity="0.8784" d="M3.6582 137.41C6.33206 130.081 10.1318 122.894 14.9166 116.129V131.491C10.1318 138.396 6.33206 145.443 3.6582 152.772V137.41Z" fill="#20B4B3"/>
<path opacity="0.7529" d="M19.2793 125.571C22.2346 121.907 25.3307 118.383 28.8489 114.86V123.457C25.3307 126.98 22.2346 130.504 19.2793 134.168V125.571ZM19.2793 101.612C22.2346 97.948 25.3307 94.4247 28.8489 90.9014V99.4983C25.3307 103.022 22.2346 106.545 19.2793 110.209V101.612Z" fill="#20B4B3"/>
<path opacity="0.8784" d="M19.2793 110.21C22.2346 106.546 25.3307 103.022 28.8489 99.499V114.861C25.3307 118.384 22.2346 121.907 19.2793 125.572V110.21Z" fill="#20B4B3"/>
<path opacity="0.7529" d="M443.721 94.8477C454.979 109.646 461.734 125.853 462.86 142.906V192.796C461.734 175.743 454.979 159.536 443.721 144.738V94.8477Z" fill="#20B4B3"/>
<path d="M424.721 74.6943C429.506 78.9223 434.009 83.2913 437.949 87.6602V137.551C434.009 133.041 429.506 128.672 424.721 124.585V74.6943Z" fill="#20B4B3"/>
<path opacity="0.7529" d="M399.672 56.6553C405.583 60.3195 411.212 64.1247 416.559 68.0709V117.961C411.352 114.015 405.723 110.069 399.672 106.546V56.6553Z" fill="#20B4B3"/>
<path opacity="0.7529" d="M312.559 46.79C315.936 47.4947 319.454 48.3403 322.832 49.1859V66.5207C319.454 65.6751 316.077 64.8295 312.559 64.1248V46.79Z" fill="#20B4B3"/>
<path opacity="0.7529" d="M293.844 60.46C297.362 61.0237 301.021 61.7284 304.539 62.2921V76.6673C301.021 75.9626 297.503 75.3989 293.844 74.8352V60.46Z" fill="#20B4B3"/>
<path opacity="0.7529" d="M274.281 45.2393C277.94 45.6621 281.599 46.0849 285.258 46.6486V59.3326C281.599 58.7689 277.94 58.3461 274.281 57.9233V45.2393Z" fill="#20B4B3"/>
<path opacity="0.7529" d="M254.156 30.7236C257.956 31.0055 261.756 31.1464 265.415 31.5692V57.0782C261.615 56.7963 257.956 56.5144 254.156 56.2326V30.7236Z" fill="#20B4B3"/>
<path opacity="0.7529" d="M233.609 18.7441C234.032 18.7441 234.454 18.7441 234.876 18.7441C238.394 18.7441 241.772 18.8851 245.29 19.026V55.8096C241.912 55.6687 238.394 55.6687 234.876 55.5277C234.454 55.5277 234.032 55.5277 233.609 55.5277V18.7441Z" fill="#20B4B3"/>
<path d="M213.064 30.441C216.864 30.3001 220.664 30.1592 224.604 30.1592V55.6681C220.805 55.6681 216.864 55.809 213.064 55.95V30.441Z" fill="#20B4B3"/>
<path opacity="0.7529" d="M192.939 25.2274C196.598 24.9456 200.398 24.5228 204.198 24.3818V56.3737C200.398 56.6556 196.739 56.9374 192.939 57.2193V25.2274Z" fill="#20B4B3"/>
<path d="M173.236 13.6701C176.895 13.1063 180.414 12.6835 184.073 12.2607V58.205C180.414 58.6278 176.755 59.0506 173.236 59.6143V13.6701Z" fill="#20B4B3"/>
<g opacity="0.11">
<path opacity="0.11" d="M220.101 334.151C225.026 331.332 231.077 331.332 236.003 334.151L330.855 388.833C332.403 389.679 332.403 391.793 330.855 392.779L235.159 448.166C230.796 450.703 225.448 450.703 221.086 448.166L125.249 392.779C123.701 391.934 123.701 389.82 125.249 388.833L220.101 334.151Z" fill="url(#paint0_linear)"/>
</g>
<g opacity="0.11">
<path opacity="0.11" d="M220.101 318.086C225.026 315.267 231.077 315.267 236.003 318.086L330.855 372.768C332.403 373.613 332.403 375.727 330.855 376.714L235.159 432.101C230.796 434.638 225.448 434.638 221.086 432.101L125.249 376.855C123.701 376.009 123.701 373.895 125.249 372.909L220.101 318.086Z" fill="url(#paint1_linear)"/>
</g>
<g opacity="0.11">
<path opacity="0.11" d="M220.101 302.16C225.026 299.341 231.077 299.341 236.003 302.16L330.855 356.842C332.403 357.688 332.403 359.802 330.855 360.788L235.159 416.175C230.796 418.712 225.448 418.712 221.086 416.175L125.249 360.788C123.701 359.943 123.701 357.829 125.249 356.842L220.101 302.16Z" fill="url(#paint2_linear)"/>
</g>
<g opacity="0.11">
<path opacity="0.11" d="M220.101 286.093C225.026 283.275 231.077 283.275 236.003 286.093L330.855 340.776C332.403 341.621 332.403 343.735 330.855 344.722L235.159 400.109C230.796 402.645 225.448 402.645 221.086 400.109L125.249 344.722C123.701 343.876 123.701 341.762 125.249 340.776L220.101 286.093Z" fill="url(#paint3_linear)"/>
</g>
<path d="M125.247 340.917L219.958 286.093C224.883 283.275 230.935 283.275 235.86 286.093L330.712 340.776C331.416 341.198 331.838 341.903 331.838 342.749V390.807C331.838 391.512 331.416 392.357 330.712 392.78L235.016 448.167C230.653 450.704 225.306 450.704 220.943 448.167L125.247 392.78C124.543 392.357 124.121 391.653 124.121 390.807V342.749C124.121 342.044 124.543 341.339 125.247 340.917Z" fill="#20B4B3"/>
<g opacity="0.11">
<path opacity="0.11" d="M220.101 286.093C225.026 283.275 231.077 283.275 236.003 286.093L330.855 340.776C332.403 341.621 332.403 343.735 330.855 344.722L235.159 400.109C230.796 402.645 225.448 402.645 221.086 400.109L125.249 344.722C123.701 343.876 123.701 341.762 125.249 340.776L220.101 286.093Z" fill="url(#paint4_linear)"/>
</g>
<path d="M125.249 342.608L221.086 397.854C225.448 400.39 230.796 400.39 235.159 397.854L330.855 342.467C331.277 342.185 331.558 341.903 331.699 341.621C332.262 342.608 331.98 344.017 330.855 344.722L235.159 400.108C230.796 402.645 225.448 402.645 221.086 400.108L125.249 344.722C124.123 344.017 123.842 342.749 124.405 341.621C124.686 342.044 124.967 342.326 125.249 342.608Z" fill="white"/>
<path opacity="0.2" d="M228.123 373.05C256.958 373.05 280.333 359.547 280.333 342.89C280.333 326.233 256.958 312.73 228.123 312.73C199.288 312.73 175.912 326.233 175.912 342.89C175.912 359.547 199.288 373.05 228.123 373.05Z" fill="#180D5B"/>
<path fill-rule="evenodd" clip-rule="evenodd" d="M250.833 86.0451C252.273 83.9365 250.921 79.6267 250.921 79.6267C250.921 79.6267 246.136 61.3053 231.219 62.4328C215.879 63.7012 212.361 71.8753 211.516 79.6267C211.475 80.0074 211.442 80.3783 211.417 80.7393C211.355 80.6509 211.294 80.5619 211.235 80.4722C210.672 86.3333 212.18 89.7605 212.806 90.898C212.878 91.1747 212.923 91.3246 212.923 91.3246C212.923 91.3246 211.235 92.0292 212.22 95.2707C212.891 97.4797 213.236 98.3142 213.565 99.1124C213.719 99.4854 213.87 99.8505 214.049 100.344C214.089 100.455 214.128 100.562 214.166 100.667L214.166 100.668C214.658 102.037 214.994 102.972 216.301 104.149L216.704 106.973C216.409 107.057 216.087 107.191 215.737 107.39C213.767 108.518 208.842 117.679 208.842 117.679L188.295 133.463L188.511 133.703C188.189 133.629 188.015 133.604 188.015 133.604C182.405 135.992 184.342 147.338 186.167 155.924L186.184 156.013C187.259 161.482 194.199 180.412 202.369 193.499L202.368 193.501C201.383 197.306 200.398 202.803 199.554 209.004L199.596 209.029C198.643 215.815 197.935 223.158 197.831 229.067C197.831 228.939 197.832 228.81 197.834 228.68C197.841 228.191 197.852 227.692 197.865 227.183C197.849 227.695 197.838 228.194 197.834 228.68C197.827 229.073 197.823 229.459 197.821 229.839C197.814 230.619 197.818 231.372 197.835 232.093C197.901 235.248 198.178 237.745 198.839 239.279L198.85 239.304C199.127 239.991 199.521 240.606 200.022 241.158C199.718 244.943 200.077 248.49 200.453 252.216C200.647 254.141 200.846 256.112 200.961 258.189C201.27 263.762 199.618 278.401 198.434 288.885L198.434 288.885L198.433 288.896C198.342 289.703 198.254 290.485 198.169 291.237C197.914 293.281 197.681 295.098 197.494 296.564L197.494 296.565C197.423 297.12 197.359 297.625 197.302 298.073C196.617 305.62 197.532 328.663 200.179 334.166C199.854 335.15 199.388 336.776 199.131 338.663C198.92 340.996 198.628 345.325 198.437 348.165L198.437 348.166L198.437 348.167L198.436 348.173L198.436 348.177C198.374 349.105 198.322 349.874 198.287 350.36C198.146 352.333 198.006 357.125 201.524 361.635C204.901 366.286 206.731 367.977 211.234 366.286C215.738 364.453 215.737 356.843 214.893 352.897C214.049 348.951 213.345 340.072 213.486 339.226C213.627 338.24 213.204 337.676 213.204 337.676L213.05 337.621C212.234 326.133 213.495 302.702 215.034 298.919C215.44 297.884 215.953 296.761 216.567 295.416C218.294 291.635 220.823 286.098 224.041 275.806C228.156 262.644 231.27 260.017 231.609 259.761L231.499 259.88L231.638 259.74L231.64 259.74C231.653 259.828 234.198 276.622 232.851 284.613C232.749 285.15 232.627 285.647 232.485 286.094C231.158 290.244 230.369 297.769 230.347 305.096C230.327 309.666 230.605 314.168 231.236 317.737C230.497 318.845 228.782 322.328 234.033 325.132C240.506 328.514 245.432 332.461 246.839 334.152C248.246 335.843 253.172 340.635 258.379 341.621C263.586 342.608 268.793 341.903 267.245 336.548C265.838 331.192 258.66 325.837 257.112 324.85C255.564 324.005 251.765 321.75 250.498 320.199C249.606 319.108 248.714 318.156 248.265 317.688C248.127 317.067 247.965 316.676 247.965 316.676C248.668 297.087 254.579 280.597 254.579 280.597C260.843 266.32 262.88 242.249 263.489 231.825C263.579 230.619 263.635 229.598 263.669 228.797C268.903 225.851 274.227 221.684 274.562 221.265C275.125 220.56 268.511 194.346 268.511 194.346L268.273 193.09C276.842 189.866 284.426 187.014 285.259 186.736C286.948 186.172 287.792 177.011 286.244 168.414C285.364 163.039 282.228 156.396 278.901 149.347C276.907 145.123 274.844 140.753 273.156 136.423C264.994 115.846 262.461 115.424 262.461 115.424L262.466 115.44C262.267 115.297 262.034 115.197 261.756 115.142C257.956 114.155 246.557 111.618 246.557 111.618L246.445 111.601C247.338 109.462 249.372 104.248 249.372 102.035C249.372 101.797 249.371 101.539 249.37 101.267C249.357 98.6421 249.338 94.6092 250.357 92.3111C250.675 91.6358 251.026 89.1916 250.833 86.0451Z" fill="url(#paint5_linear)"/>
<path opacity="0.502" d="M72.1942 298.638V285.249C74.8681 286.658 77.6827 288.068 80.4973 289.477V302.866C77.6827 301.456 75.0088 300.047 72.1942 298.638ZM45.8778 281.867V257.062C48.1295 258.753 50.3812 260.445 52.7736 261.995V286.799C50.3812 285.108 48.1295 283.558 45.8778 281.867ZM58.4027 290.463V261.29C60.9359 262.841 63.469 264.391 66.0021 265.941V295.114C63.469 293.705 60.9359 292.155 58.4027 290.463ZM24.6277 262.7V230.285C26.3164 232.117 28.1459 234.09 29.9754 235.922V268.337C28.1459 266.364 26.4571 264.532 24.6277 262.7ZM34.6194 272.565V237.473C36.5897 239.305 38.7006 240.996 40.8115 242.687V277.779C38.5599 276.088 36.5897 274.256 34.6194 272.565ZM9.28815 241.56V203.508C10.414 205.622 11.6805 207.595 12.9471 209.568V247.62C11.6805 245.647 10.5547 243.533 9.28815 241.56ZM16.1839 252.271V202.803C17.5912 204.776 19.1392 206.749 20.6872 208.722V258.19C19.1392 256.217 17.7319 254.244 16.1839 252.271ZM4.08115 230.285V174.475C4.92553 176.589 5.76991 178.703 6.89574 180.817V236.627C5.76991 234.513 4.92553 232.399 4.08115 230.285ZM97.3848 242.687C44.3298 221.265 7.74012 187.441 0 148.685V228.171C7.74012 266.928 44.3298 300.752 97.3848 322.173V242.687Z" fill="#20B4B3"/>
<path opacity="0.502" d="M253.031 330.911V313.013C262.178 312.449 271.185 311.744 279.91 310.617V328.515C271.185 329.643 262.178 330.488 253.031 330.911ZM210.109 331.052V298.356C215.597 298.637 221.085 298.778 226.715 298.919C230.514 298.919 234.314 298.919 238.114 298.919V331.616C234.314 331.616 230.514 331.757 226.715 331.616C221.085 331.475 215.597 331.334 210.109 331.052ZM168.734 326.683V276.793C177.319 278.202 186.184 279.189 195.332 280.034V329.925C186.325 329.22 177.459 328.092 168.734 326.683ZM294.124 326.542V273.833C302.708 272.424 311.152 270.733 319.315 268.9V321.61C311.152 323.442 302.708 325.133 294.124 326.542ZM340.424 251.002C306.649 261.431 267.808 267.209 226.715 266.786C198.006 266.505 170.704 263.263 145.514 257.485V336.971C170.704 342.609 198.006 345.991 226.715 346.273C267.808 346.696 306.649 340.917 340.424 330.488V251.002Z" fill="#20B4B3"/>
<path opacity="0.502" d="M397.419 273.833V258.472C434.431 236.627 458.496 207.454 462.436 174.898V190.26C458.496 222.675 434.431 251.848 397.419 273.833ZM462.999 215.205V135.719C461.874 174.616 431.757 209.286 384.895 233.245V312.731C431.898 288.772 461.874 254.103 462.999 215.205Z" fill="#20B4B3"/>
<path opacity="0.7529" d="M462.437 174.898C458.496 207.313 434.432 236.627 397.42 258.472V273.834C434.432 251.989 458.496 222.816 462.437 190.26V174.898Z" fill="#20B4B3"/>
<path d="M195.332 280.034C186.326 279.189 177.46 278.202 168.734 276.793V326.683C177.319 328.093 186.185 329.079 195.332 329.925V280.034Z" fill="#20B4B3"/>
<path d="M279.911 310.617C271.045 311.745 262.179 312.449 253.031 313.013V330.912C262.179 330.348 271.185 329.643 279.911 328.516V310.617Z" fill="#20B4B3"/>
<path d="M319.316 268.76C311.153 270.733 302.71 272.424 294.125 273.692V326.401C302.71 324.992 311.153 323.301 319.316 321.469V268.76Z" fill="#20B4B3"/>
<path opacity="0.7529" d="M238.115 298.779C234.315 298.779 230.515 298.92 226.715 298.779C221.086 298.779 215.598 298.497 210.109 298.215V330.911C215.598 331.193 221.086 331.334 226.715 331.475C230.515 331.475 234.315 331.475 238.115 331.475V298.779Z" fill="#20B4B3"/>
<path d="M6.89662 180.677C5.91151 178.563 4.92641 176.449 4.08203 174.335V230.145C4.92641 232.259 5.77079 234.373 6.89662 236.487V180.677Z" fill="#20B4B3"/>
<path d="M12.9461 209.568C11.6795 207.595 10.4129 205.481 9.28711 203.508V241.56C10.4129 243.674 11.6795 245.647 12.9461 247.62V209.568Z" fill="#20B4B3"/>
<path opacity="0.7529" d="M20.8276 208.722C19.2795 206.749 17.7315 204.776 16.3242 202.803V252.27C17.7315 254.243 19.2795 256.216 20.8276 258.19V208.722Z" fill="#20B4B3"/>
<path d="M30.1153 235.922C28.2858 234.09 26.4563 232.258 24.7676 230.285V262.7C26.4563 264.532 28.2858 266.505 30.1153 268.337V235.922Z" fill="#20B4B3"/>
<path opacity="0.7529" d="M40.6706 242.687C38.5597 240.996 36.4487 239.164 34.4785 237.473V272.565C36.4487 274.397 38.5597 276.088 40.6706 277.78V242.687Z" fill="#20B4B3"/>
<path opacity="0.7529" d="M52.7727 261.995C50.3803 260.445 48.1286 258.754 45.877 257.062V281.867C48.1286 283.558 50.3803 285.249 52.7727 286.799V261.995Z" fill="#20B4B3"/>
<path opacity="0.7529" d="M66.0017 265.941C63.4686 264.391 60.9355 262.84 58.4023 261.29V290.463C60.9355 292.013 63.4686 293.564 66.0017 295.114V265.941Z" fill="#20B4B3"/>
<path opacity="0.7529" d="M80.4984 289.336C77.6838 287.927 75.0099 286.518 72.1953 285.108V298.497C74.8692 299.906 77.6838 301.316 80.4984 302.725V289.336Z" fill="#20B4B3"/>
</g>
<defs>
<linearGradient id="paint0_linear" x1="332.015" y1="390.994" x2="124.17" y2="390.994" gradientUnits="userSpaceOnUse">
<stop stop-color="#5761D7"/>
<stop offset="0.0725775" stop-color="#5472D8"/>
<stop offset="0.2791" stop-color="#4E9CDB"/>
<stop offset="0.4801" stop-color="#49BDDD"/>
<stop offset="0.6715" stop-color="#45D5DF"/>
<stop offset="0.8493" stop-color="#43E3E0"/>
<stop offset="1" stop-color="#42E8E0"/>
</linearGradient>
<linearGradient id="paint1_linear" x1="332.015" y1="374.983" x2="124.17" y2="374.983" gradientUnits="userSpaceOnUse">
<stop stop-color="#5761D7"/>
<stop offset="0.0725775" stop-color="#5472D8"/>
<stop offset="0.2791" stop-color="#4E9CDB"/>
<stop offset="0.4801" stop-color="#49BDDD"/>
<stop offset="0.6715" stop-color="#45D5DF"/>
<stop offset="0.8493" stop-color="#43E3E0"/>
<stop offset="1" stop-color="#42E8E0"/>
</linearGradient>
<linearGradient id="paint2_linear" x1="332.015" y1="358.971" x2="124.17" y2="358.971" gradientUnits="userSpaceOnUse">
<stop stop-color="#5761D7"/>
<stop offset="0.0725775" stop-color="#5472D8"/>
<stop offset="0.2791" stop-color="#4E9CDB"/>
<stop offset="0.4801" stop-color="#49BDDD"/>
<stop offset="0.6715" stop-color="#45D5DF"/>
<stop offset="0.8493" stop-color="#43E3E0"/>
<stop offset="1" stop-color="#42E8E0"/>
</linearGradient>
<linearGradient id="paint3_linear" x1="332.015" y1="342.959" x2="124.17" y2="342.959" gradientUnits="userSpaceOnUse">
<stop stop-color="#5761D7"/>
<stop offset="0.0725775" stop-color="#5472D8"/>
<stop offset="0.2791" stop-color="#4E9CDB"/>
<stop offset="0.4801" stop-color="#49BDDD"/>
<stop offset="0.6715" stop-color="#45D5DF"/>
<stop offset="0.8493" stop-color="#43E3E0"/>
<stop offset="1" stop-color="#42E8E0"/>
</linearGradient>
<linearGradient id="paint4_linear" x1="332.015" y1="342.959" x2="124.17" y2="342.959" gradientUnits="userSpaceOnUse">
<stop stop-color="#5761D7"/>
<stop offset="0.0725775" stop-color="#5472D8"/>
<stop offset="0.2791" stop-color="#4E9CDB"/>
<stop offset="0.4801" stop-color="#49BDDD"/>
<stop offset="0.6715" stop-color="#45D5DF"/>
<stop offset="0.8493" stop-color="#43E3E0"/>
<stop offset="1" stop-color="#42E8E0"/>
</linearGradient>
<linearGradient id="paint5_linear" x1="159.26" y1="214.556" x2="305.16" y2="214.556" gradientUnits="userSpaceOnUse">
<stop stop-color="#138281"/>
<stop offset="1" stop-color="#0D549F"/>
</linearGradient>
<clipPath id="clip0">
<rect width="463" height="450" fill="white"/>
</clipPath>
</defs>
</svg>
