<svg width="530" height="317" viewBox="0 0 530 317" fill="none" xmlns="http://www.w3.org/2000/svg">
<g opacity="0.6">
<path d="M101.538 179.032C103.344 177.948 105.151 177.105 107.199 176.623L108.403 171.082L117.799 170.962L119.124 176.503C121.051 176.984 122.978 177.707 124.785 178.791L129.482 175.66L136.228 182.164L133.337 186.982C134.421 188.789 135.264 190.596 135.746 192.643L141.287 193.848L141.407 203.243L135.866 204.568C135.385 206.495 134.662 208.422 133.578 210.229L136.71 214.927L130.205 221.672L125.387 218.781C123.58 219.865 121.774 220.709 119.726 221.19L118.521 226.731L109.126 226.852L107.801 221.311C105.874 220.829 103.947 220.106 102.14 219.022L97.4423 222.154L90.697 215.65L93.5878 210.831C92.5038 209.025 91.6606 207.218 91.1788 205.17L85.638 203.966L85.5176 194.57L91.0584 193.245C91.5402 191.318 92.2629 189.391 93.3469 187.584L90.2152 182.887L96.7196 176.141L101.538 179.032ZM106.476 191.559C102.622 195.534 102.742 201.918 106.717 205.772C110.692 209.627 117.076 209.506 120.93 205.532C124.785 201.557 124.664 195.173 120.69 191.318C116.715 187.464 110.331 187.584 106.476 191.559Z" fill="#20B4B3"/>
<path d="M106.479 191.559C106.479 191.559 106.961 190.837 108.407 189.873C109.732 189.03 112.02 188.066 115.031 188.307C116.477 188.428 118.043 188.909 119.488 189.873C120.934 190.837 122.259 192.162 123.102 193.968C123.584 194.812 123.824 195.775 124.065 196.739C124.306 197.702 124.306 198.786 124.065 199.87C123.824 201.918 122.861 204.086 121.295 205.652C119.729 207.218 117.681 208.302 115.634 208.663C114.55 208.904 113.586 208.904 112.502 208.663C111.538 208.543 110.575 208.302 109.611 207.82C107.804 207.098 106.359 205.773 105.395 204.327C104.432 202.882 103.829 201.316 103.709 199.87C103.348 196.98 104.191 194.571 105.034 193.246C105.757 192.162 106.479 191.559 106.479 191.559C106.479 191.559 105.877 192.162 105.154 193.607C104.432 194.932 103.589 197.221 104.07 200.111C104.311 201.436 104.793 203.002 105.757 204.327C106.72 205.652 108.045 206.857 109.732 207.579C110.575 207.941 111.538 208.182 112.502 208.302C113.466 208.423 114.429 208.423 115.393 208.182C117.32 207.82 119.247 206.857 120.813 205.291C122.259 203.725 123.222 201.798 123.463 199.75C123.584 198.786 123.584 197.823 123.463 196.859C123.343 195.896 122.981 195.052 122.62 194.209C121.897 192.523 120.572 191.198 119.247 190.355C117.922 189.391 116.356 188.909 115.031 188.789C112.261 188.428 109.972 189.271 108.647 190.114C107.082 190.957 106.6 191.68 106.479 191.559Z" fill="#20B4B3"/>
<path d="M101.538 179.032C101.538 179.032 101.417 179.032 101.176 178.911C100.935 178.791 100.695 178.55 100.213 178.43C99.3695 177.948 98.165 177.225 96.5991 176.261H96.7196C95.0333 177.948 92.8651 180.236 90.2152 183.007V182.766C91.1788 184.211 92.2629 185.777 93.3469 187.464V187.584V187.704C92.3833 189.391 91.6606 191.318 91.1788 193.366V193.486H91.0584C89.372 193.968 87.4448 194.329 85.5176 194.811L85.638 194.57C85.638 197.581 85.7585 200.713 85.8789 203.965L85.638 203.725C87.3244 204.086 89.2516 204.447 91.1788 204.929H91.2993V205.049C91.7811 206.856 92.6242 208.783 93.7083 210.59L93.8288 210.711L93.7083 210.831C92.7447 212.277 91.7811 213.963 90.8175 215.649V215.288C92.9856 217.336 95.2742 219.504 97.5628 221.792H97.2014C98.6468 220.829 100.333 219.745 101.899 218.661L102.019 218.54L102.14 218.661C103.826 219.624 105.753 220.347 107.801 220.829H107.922V220.949C108.403 222.635 108.765 224.563 109.247 226.49L109.006 226.249C112.017 226.249 115.149 226.129 118.401 226.129L118.16 226.369C118.521 224.563 118.883 222.756 119.365 220.829V220.708H119.485C121.292 220.226 123.219 219.383 125.026 218.299L125.146 218.179L125.267 218.299C126.953 219.263 128.519 220.226 130.085 221.19H129.723C131.892 218.901 134.06 216.613 136.228 214.445V214.806C135.144 213.24 134.18 211.674 133.096 210.108L132.976 209.988L133.096 209.868C134.06 208.061 134.782 206.134 135.264 204.206V204.086H135.385C137.191 203.604 139.119 203.122 140.925 202.761L140.685 203.002C140.685 199.75 140.564 196.618 140.564 193.607L140.805 193.847C138.878 193.486 137.071 193.125 135.264 192.643H135.144V192.522C134.541 190.475 133.819 188.668 132.735 186.982L132.614 186.861L132.735 186.741C133.698 185.054 134.782 183.489 135.626 181.923V182.164C133.216 179.875 131.048 177.707 128.88 175.659H129.121C127.435 176.743 125.869 177.827 124.424 178.791L124.303 178.911L124.183 178.791C122.255 177.707 120.449 176.984 118.521 176.502H118.401V176.382C117.919 174.334 117.437 172.527 117.076 170.841L117.196 170.962C113.583 170.962 110.451 171.082 107.801 171.082L107.922 170.962C107.44 173.13 107.078 175.057 106.717 176.502C104.669 177.105 103.344 177.707 102.381 178.189C101.899 178.43 101.658 178.55 101.417 178.671C101.538 179.032 101.538 179.032 101.538 179.032C101.538 179.032 101.658 178.911 101.899 178.791C102.14 178.671 102.381 178.43 102.863 178.189C103.706 177.707 105.151 176.984 107.199 176.502L107.078 176.623C107.44 175.057 107.801 173.25 108.163 171.082V170.962H108.283C110.933 170.962 114.065 170.841 117.678 170.721H117.799V170.841C118.28 172.527 118.642 174.334 119.124 176.382L119.003 176.261C120.93 176.743 122.858 177.466 124.785 178.55H124.544C126.11 177.586 127.676 176.502 129.242 175.418L129.362 175.298L129.482 175.418C131.651 177.466 133.819 179.634 136.228 181.923L136.348 182.043L136.228 182.164C135.264 183.729 134.301 185.295 133.337 186.982V186.741C134.421 188.427 135.264 190.354 135.866 192.402L135.626 192.161C137.432 192.522 139.239 192.884 141.166 193.366H141.407V193.607C141.407 196.618 141.528 199.75 141.528 203.002V203.243H141.287C139.48 203.724 137.673 204.086 135.746 204.568L135.987 204.327C135.505 206.374 134.782 208.302 133.698 210.108V209.868C134.782 211.433 135.746 212.999 136.83 214.565L136.95 214.806L136.83 214.927C134.662 217.095 132.494 219.383 130.326 221.672L130.205 221.792L129.964 221.672C128.398 220.708 126.712 219.745 125.146 218.781H125.387C123.58 219.865 121.653 220.708 119.726 221.19L119.967 220.949C119.605 222.876 119.124 224.804 118.762 226.49V226.731H118.521C115.269 226.731 112.137 226.851 109.126 226.851H108.885V226.61C108.403 224.683 107.922 222.876 107.56 221.07L107.801 221.31C105.753 220.829 103.706 219.986 102.019 219.022H102.26C100.574 220.106 99.0082 221.19 97.5628 222.154L97.4423 222.274L97.3219 222.154C95.0333 219.865 92.7447 217.697 90.5766 215.649L90.4561 215.529L90.5766 215.408C91.6606 213.722 92.6242 212.036 93.4674 210.59V210.831C92.3833 209.024 91.5402 206.977 91.0584 205.17L91.2993 205.29C89.372 204.929 87.4448 204.447 85.7585 204.086H85.638V203.845C85.638 200.593 85.5176 197.461 85.5176 194.45V194.329H85.638C87.5653 193.847 89.4925 193.366 91.1788 193.004L91.0584 193.125C91.5402 190.957 92.3833 189.029 93.3469 187.343V187.464C92.2629 185.777 91.1788 184.091 90.2152 182.645L90.0948 182.525L90.2152 182.405C92.8651 179.634 95.1537 177.346 96.7196 175.659H96.84C98.4059 176.623 99.6104 177.346 100.454 177.827C100.815 178.068 101.176 178.309 101.417 178.43C101.417 179.032 101.538 179.032 101.538 179.032Z" fill="#20B4B3"/>
</g>
<path d="M377.256 245.76C378.34 245.158 379.424 244.676 380.629 244.314L381.351 240.942L387.013 240.821L387.856 244.073C389.06 244.314 390.144 244.796 391.228 245.398L394.119 243.592L398.215 247.446L396.408 250.337C397.01 251.421 397.492 252.505 397.853 253.71L401.226 254.432L401.346 260.094L398.094 260.937C397.853 262.141 397.371 263.225 396.769 264.309L398.576 267.2L394.721 271.296L391.831 269.489C390.747 270.091 389.662 270.573 388.458 270.934L387.735 274.307L382.074 274.427L381.231 271.175C380.026 270.934 378.942 270.452 377.858 269.85L374.967 271.657L370.872 267.802L372.679 264.912C372.077 263.828 371.595 262.744 371.233 261.539L367.861 260.816L367.74 255.155L370.992 254.312C371.233 253.107 371.715 252.023 372.317 250.939L370.511 248.048L374.365 243.953L377.256 245.76ZM380.267 253.228C377.979 255.637 377.979 259.491 380.388 261.78C382.797 264.068 386.651 264.068 388.94 261.659C391.228 259.25 391.228 255.396 388.819 253.107C386.29 250.698 382.556 250.819 380.267 253.228Z" fill="#F5F5F5"/>
<path d="M380.267 253.23C380.267 253.23 380.629 252.748 381.351 252.266C382.195 251.785 383.519 251.182 385.326 251.303C386.169 251.423 387.133 251.664 387.976 252.266C388.819 252.869 389.663 253.591 390.144 254.675C390.385 255.157 390.626 255.759 390.747 256.362C390.867 256.964 390.867 257.566 390.747 258.168C390.626 259.373 390.024 260.698 389.06 261.662C388.097 262.625 386.892 263.227 385.688 263.468C385.085 263.589 384.483 263.589 383.881 263.468C383.279 263.348 382.676 263.227 382.194 262.987C381.11 262.505 380.267 261.782 379.665 260.939C379.063 260.096 378.701 259.132 378.581 258.289C378.34 256.482 378.822 255.157 379.424 254.314C379.785 253.591 380.267 253.23 380.267 253.23C380.267 253.23 379.906 253.591 379.424 254.434C378.942 255.278 378.46 256.603 378.701 258.289C378.822 259.132 379.183 259.975 379.785 260.818C380.388 261.662 381.231 262.384 382.194 262.746C382.676 262.987 383.279 263.107 383.76 263.227C384.363 263.348 384.965 263.348 385.567 263.227C386.772 262.987 387.856 262.384 388.819 261.541C389.662 260.577 390.265 259.493 390.385 258.289C390.506 257.687 390.506 257.084 390.385 256.482C390.265 255.88 390.144 255.398 389.903 254.916C389.422 253.953 388.699 253.109 387.856 252.628C387.013 252.025 386.169 251.785 385.326 251.664C383.64 251.423 382.315 252.025 381.472 252.507C380.629 252.869 380.267 253.23 380.267 253.23Z" fill="#F5F5F5"/>
<path d="M377.256 245.761C377.256 245.761 377.135 245.761 377.015 245.64C376.895 245.52 376.654 245.399 376.413 245.279C375.931 245.038 375.208 244.556 374.245 243.954H374.365C373.401 245.038 372.077 246.363 370.511 248.049V247.929C371.113 248.772 371.715 249.736 372.438 250.82C371.836 251.783 371.474 252.988 371.113 254.192V254.313H370.992C369.908 254.554 368.824 254.795 367.74 255.156L367.861 255.036C367.861 256.842 367.981 258.649 367.981 260.697L367.861 260.576C368.945 260.817 370.029 261.058 371.233 261.299H371.354V261.42C371.715 262.504 372.197 263.708 372.799 264.792V264.913V265.033C372.197 265.876 371.595 266.96 370.992 267.924V267.683C372.317 268.888 373.642 270.213 375.088 271.538H374.847C375.69 270.935 376.654 270.333 377.738 269.731H377.858H377.979C378.942 270.333 380.147 270.815 381.351 271.056H381.472V271.176C381.713 272.26 381.954 273.344 382.315 274.428L382.194 274.308C384.001 274.308 385.928 274.187 387.856 274.187L387.735 274.308C387.976 273.224 388.217 272.14 388.458 270.935V270.815H388.578C389.662 270.453 390.867 269.972 391.951 269.369H392.072H392.192C393.156 269.972 394.119 270.574 395.083 271.176H394.842C396.167 269.851 397.492 268.406 398.696 267.081V267.322C398.094 266.358 397.492 265.394 396.89 264.431V264.31V264.19C397.492 263.106 397.974 262.022 398.215 260.817V260.697H398.335C399.419 260.456 400.503 260.215 401.587 259.854L401.467 259.974C401.467 258.047 401.346 256.24 401.346 254.313L401.467 254.433C400.383 254.192 399.178 253.952 398.094 253.711H397.974V253.59C397.612 252.386 397.131 251.302 396.528 250.218V250.097V249.977C397.131 249.013 397.733 248.049 398.335 247.086V247.206C396.89 245.881 395.565 244.556 394.24 243.352H394.36C393.396 243.954 392.433 244.677 391.469 245.159H391.349H391.228C390.144 244.556 388.94 244.074 387.856 243.834H387.735V243.713C387.494 242.509 387.133 241.425 386.892 240.461L387.013 240.581C384.844 240.581 383.038 240.581 381.351 240.702L381.472 240.581C381.231 241.906 380.99 242.99 380.749 243.954C379.545 244.315 378.701 244.677 378.22 244.918C377.979 245.038 377.738 245.159 377.617 245.279C377.256 245.761 377.256 245.761 377.256 245.761C377.256 245.761 377.376 245.761 377.497 245.64C377.617 245.52 377.858 245.399 378.099 245.279C378.581 245.038 379.424 244.556 380.629 244.195C380.869 243.231 380.99 242.147 381.351 240.822V240.702H381.472C383.038 240.702 384.965 240.581 387.133 240.581H387.253V240.702C387.494 241.665 387.735 242.75 388.097 243.954L387.976 243.834C389.06 244.074 390.265 244.556 391.469 245.159H391.349C392.192 244.556 393.156 243.954 394.24 243.231H394.36L394.481 243.352C395.806 244.556 397.13 245.881 398.576 247.206L398.696 247.327V247.447C398.094 248.411 397.492 249.374 396.89 250.338V250.218C397.492 251.302 397.974 252.386 398.335 253.59L398.215 253.47C399.299 253.711 400.383 253.952 401.587 254.192H401.708V254.313C401.708 256.12 401.828 258.047 401.828 259.974V260.095H401.708C400.624 260.335 399.54 260.576 398.455 260.938L398.576 260.817C398.335 262.022 397.853 263.226 397.251 264.31V264.19C397.853 265.154 398.455 266.117 399.058 267.081L399.178 267.201L399.058 267.322C397.733 268.647 396.528 269.972 395.203 271.417L395.083 271.538L394.962 271.417C393.999 270.815 393.035 270.213 392.072 269.61H392.192C391.108 270.213 389.903 270.815 388.819 271.056L388.94 270.935C388.699 272.019 388.458 273.224 388.217 274.308V274.428H388.097C386.169 274.428 384.242 274.549 382.435 274.549H382.315V274.428C382.074 273.344 381.713 272.14 381.472 271.176L381.592 271.297C380.388 270.935 379.183 270.453 378.099 269.972H378.22C377.256 270.574 376.292 271.297 375.329 271.778L375.208 271.899L375.088 271.778C373.642 270.453 372.317 269.128 370.992 267.924L370.872 267.803L370.992 267.683C371.595 266.719 372.197 265.635 372.799 264.792V264.913C372.077 263.829 371.595 262.624 371.354 261.54L371.474 261.66C370.27 261.42 369.186 261.179 368.102 260.938H367.981V260.817C367.981 258.89 367.981 256.963 367.861 255.156V255.036H367.981C369.186 254.795 370.27 254.433 371.233 254.192L371.113 254.313C371.474 252.988 371.956 251.904 372.438 250.94V251.061C371.715 249.977 371.113 249.133 370.631 248.17C372.197 246.484 373.522 245.159 374.606 244.195C375.57 244.797 376.292 245.159 376.774 245.52C377.015 245.64 377.135 245.761 377.376 245.881C377.135 245.64 377.256 245.761 377.256 245.761Z" fill="#F5F5F5"/>
<g opacity="0.3">
<path d="M421.341 39.3078C422.666 38.4646 424.111 37.8624 425.677 37.3805L426.52 33.0443L433.747 32.9238L434.831 37.1396C436.397 37.501 437.843 38.1033 439.168 38.826L442.781 36.4169L447.961 41.4759L445.672 45.2099C446.515 46.5349 447.117 47.9803 447.599 49.5462L451.936 50.3893L452.056 57.6164L447.84 58.7005C447.479 60.2664 446.877 61.7118 446.154 63.0368L448.563 66.6503L443.504 71.8298L439.77 69.5412C438.445 70.3843 437 70.9866 435.434 71.4684L434.59 75.8047L427.363 75.9251L426.279 71.7093C424.713 71.348 423.268 70.7457 421.943 70.023L418.329 72.432L413.15 67.373L415.439 63.639C414.595 62.3141 413.993 60.8686 413.511 59.3028L409.175 58.4596L409.055 51.2325L413.271 50.1484C413.632 48.5826 414.234 47.1371 414.957 45.8122L412.548 42.1986L417.607 37.0192L421.341 39.3078ZM425.195 48.9439C422.184 52.0757 422.304 56.8937 425.436 59.905C428.568 62.9163 433.386 62.7959 436.397 59.6641C439.409 56.5324 439.288 51.7143 436.156 48.703C433.145 45.8122 428.207 45.9326 425.195 48.9439Z" fill="#20B4B3"/>
<path d="M425.192 48.9439C425.192 48.9439 425.553 48.3417 426.638 47.619C427.601 46.8962 429.408 46.1735 431.696 46.4144C432.781 46.5349 433.985 46.8962 435.19 47.619C436.274 48.3417 437.358 49.4257 437.96 50.7507C438.321 51.4734 438.562 52.1961 438.683 52.9188C438.803 53.6415 438.803 54.4847 438.683 55.3279C438.442 56.8937 437.719 58.5801 436.515 59.7846C435.31 60.9891 433.744 61.8323 432.058 62.0732C431.215 62.1936 430.492 62.1936 429.649 62.0732C428.926 61.9527 428.083 61.7118 427.481 61.4709C426.156 60.8687 425.072 59.905 424.228 58.821C423.506 57.7369 423.024 56.5324 422.904 55.4483C422.542 53.1597 423.265 51.353 423.867 50.3894C424.71 49.4257 425.192 48.9439 425.192 48.9439C425.192 48.9439 424.71 49.4257 424.108 50.5098C423.506 51.5939 422.904 53.2802 423.265 55.4483C423.385 56.5324 423.867 57.6165 424.59 58.7005C425.313 59.6641 426.397 60.6278 427.722 61.23C428.324 61.4709 429.047 61.7118 429.769 61.8323C430.492 61.9527 431.215 61.9527 432.058 61.8323C433.624 61.5914 435.069 60.7482 436.153 59.6641C437.237 58.4596 437.96 57.0142 438.201 55.4483C438.321 54.7256 438.321 53.8825 438.201 53.1597C438.08 52.437 437.84 51.7143 437.599 51.1121C436.996 49.7871 436.033 48.8235 434.949 48.1008C433.865 47.3781 432.781 47.0167 431.696 46.8962C429.528 46.6553 427.842 47.2576 426.758 47.9803C425.674 48.4621 425.192 48.9439 425.192 48.9439Z" fill="#20B4B3"/>
<path d="M421.337 39.3081C421.337 39.3081 421.217 39.3081 421.097 39.1877C420.976 39.0672 420.735 38.9468 420.374 38.8263C419.772 38.4649 418.808 37.8627 417.604 37.14H417.724C416.399 38.4649 414.713 40.2717 412.785 42.3194V42.199C413.508 43.283 414.351 44.4875 415.194 45.8125V45.933V46.0534C414.472 47.3784 413.869 48.8238 413.508 50.3897V50.5101H413.388C412.063 50.8715 410.617 51.2328 409.172 51.5942L409.292 51.4737C409.292 53.7623 409.413 56.1714 409.413 58.7009L409.292 58.5804C410.617 58.8213 412.063 59.1827 413.629 59.4236H413.749V59.544C414.11 60.9894 414.713 62.4349 415.676 63.8803L415.797 64.0007L415.676 64.1212C414.954 65.3257 414.231 66.5302 413.388 67.8552V67.6143C415.074 69.1802 416.76 70.8665 418.567 72.6733H418.326C419.41 71.9505 420.735 71.1074 421.94 70.2642L422.06 70.1438L422.181 70.2642C423.506 70.9869 424.951 71.5892 426.517 71.9506H426.637V72.071C426.999 73.396 427.36 74.8414 427.721 76.2868L427.481 76.1664C429.769 76.1664 432.178 76.0459 434.708 76.0459L434.467 76.1664C434.708 74.8414 435.069 73.396 435.31 71.8301V71.7096H435.43C436.876 71.3483 438.321 70.6256 439.646 69.9029L439.767 69.7824L439.887 69.9029C441.092 70.6256 442.417 71.4687 443.621 72.1914H443.38C445.067 70.3847 446.753 68.6983 448.439 67.012V67.2529C447.596 66.0484 446.873 64.8439 446.03 63.6394L445.91 63.5189L446.03 63.3985C446.753 62.0735 447.355 60.5076 447.716 59.0622V58.9418H447.837C449.282 58.5804 450.728 58.219 452.053 57.8577L451.932 58.0986C451.932 55.5691 451.812 53.1601 451.812 50.8715L451.932 51.1124C450.487 50.751 449.041 50.5101 447.596 50.2692H447.476V50.1488C446.994 48.5829 446.391 47.1375 445.669 45.8125L445.548 45.6921L445.669 45.5716C446.391 44.2466 447.235 43.0421 447.957 41.8376V42.0785C446.151 40.2717 444.344 38.5854 442.778 37.0195H443.019C441.694 37.8627 440.489 38.7059 439.405 39.4286H439.285H439.164C437.719 38.5854 436.274 38.1036 434.828 37.7422H434.708V37.6218C434.346 36.0559 433.985 34.7309 433.624 33.406L433.744 33.5264C430.974 33.5264 428.565 33.6469 426.517 33.6469L426.637 33.5264C426.276 35.2127 425.915 36.6582 425.674 37.8627C424.108 38.3445 423.024 38.8263 422.422 39.1877C422.06 39.3081 421.819 39.549 421.699 39.549C421.458 39.3081 421.337 39.3081 421.337 39.3081C421.337 39.3081 421.458 39.1877 421.578 39.1877C421.699 39.0672 421.94 38.9468 422.301 38.7058C423.024 38.3445 424.108 37.8627 425.553 37.3809C425.794 36.1764 426.035 34.8514 426.396 33.0446V32.9242H426.517C428.565 32.9242 430.974 32.8037 433.744 32.8037H433.864V32.9242C434.226 34.2491 434.587 35.5741 434.949 37.14L434.828 37.0195C436.274 37.3809 437.719 37.9831 439.285 38.7058H439.164C440.369 37.9831 441.573 37.14 442.778 36.2968L442.898 36.1764L443.019 36.2968C444.705 37.8627 446.391 39.549 448.198 41.3558L448.319 41.4762L448.198 41.5967C447.476 42.8012 446.753 44.0057 445.91 45.3307V45.0898C446.753 46.4148 447.355 47.8602 447.837 49.4261L447.716 49.3056C449.162 49.5465 450.607 49.9079 452.053 50.1488H452.173V50.2692C452.173 52.6783 452.294 55.0873 452.294 57.4963V57.6168H452.173C450.728 57.9781 449.403 58.3395 447.957 58.7009L448.078 58.5804C447.716 60.1463 447.114 61.5917 446.391 63.0371V62.7962C447.235 64.0007 447.957 65.2052 448.801 66.4098L448.921 66.5302L448.801 66.6507C447.114 68.337 445.428 70.1438 443.742 71.8301L443.621 71.9506L443.501 71.8301C442.296 71.1074 440.971 70.2642 439.767 69.5415H440.008C438.562 70.3847 437.117 70.9869 435.671 71.4687L435.792 71.3483C435.43 72.7937 435.189 74.2391 434.949 75.6846V75.805H434.828C432.299 75.805 429.89 75.9255 427.601 75.9255H427.481V75.805C427.119 74.3596 426.758 72.9142 426.396 71.5892L426.517 71.7096C424.951 71.3483 423.385 70.746 422.06 69.9029H422.301C420.976 70.746 419.772 71.5892 418.688 72.3119L418.567 72.4324L418.447 72.3119C416.64 70.5051 414.833 68.8188 413.267 67.2529L413.147 67.1325L413.267 67.012C414.11 65.6871 414.833 64.4825 415.556 63.278V63.5189C414.713 62.0735 414.11 60.6281 413.629 59.1827L413.749 59.3031C412.304 58.9418 410.738 58.7009 409.413 58.4599H409.292V58.3395C409.292 55.81 409.172 53.401 409.172 51.1124V50.9919H409.292C410.738 50.6306 412.183 50.2692 413.508 49.9079L413.388 50.0283C413.749 48.342 414.472 46.8966 415.194 45.5716V45.6921C414.351 44.3671 413.508 43.1626 412.785 42.0785V41.958L412.906 41.8376C414.954 39.6695 416.64 37.9831 417.965 36.6582C419.169 37.3809 420.133 37.9831 420.735 38.3445C421.097 38.5854 421.217 38.7058 421.458 38.8263C421.217 39.3081 421.337 39.3081 421.337 39.3081Z" fill="#20B4B3"/>
</g>
<g opacity="0.3">
<path d="M303.178 71.3467C304.262 70.7445 305.346 70.2627 306.55 69.9013L307.273 66.5287L312.934 66.4082L313.778 69.6604C314.982 69.9013 316.066 70.3831 317.15 70.9854L320.041 69.1786L324.136 73.0331L322.33 75.9239C322.932 77.008 323.414 78.092 323.775 79.2965L327.148 80.0193L327.268 85.6805L324.016 86.5237C323.775 87.7282 323.293 88.8122 322.691 89.8963L324.498 92.7871L320.643 96.8825L317.752 95.0757C316.668 95.678 315.584 96.1598 314.38 96.5212L313.657 99.8938L307.996 100.014L307.153 96.7621C305.948 96.5212 304.864 96.0394 303.78 95.4371L300.889 97.2439L296.794 93.3894L298.601 90.4986C297.998 89.4145 297.517 88.3304 297.155 87.1259L293.783 86.4032L293.662 80.742L296.914 79.8988C297.155 78.6943 297.637 77.6102 298.239 76.5262L296.433 73.6353L300.287 69.54L303.178 71.3467ZM306.189 78.9352C303.901 81.3442 303.901 85.1987 306.31 87.4873C308.719 89.7759 312.573 89.7759 314.862 87.3668C317.15 84.9578 317.15 81.1033 314.741 78.8147C312.332 76.4057 308.478 76.5262 306.189 78.9352Z" fill="#20B4B3"/>
<path d="M306.189 78.935C306.189 78.935 306.55 78.4532 307.273 77.9714C308.116 77.4896 309.441 76.8873 311.248 77.0078C312.091 77.1282 313.055 77.3691 313.898 77.9714C314.741 78.5736 315.584 79.2964 316.066 80.3804C316.307 80.8622 316.548 81.4645 316.668 82.0668C316.789 82.669 316.789 83.2713 316.668 83.8735C316.548 85.078 315.946 86.403 314.982 87.3666C314.018 88.3302 312.814 88.9325 311.609 89.1734C311.007 89.2939 310.405 89.2939 309.803 89.1734C309.2 89.0529 308.598 88.9325 308.116 88.6916C307.032 88.2098 306.189 87.4871 305.587 86.6439C304.985 85.8008 304.623 84.8371 304.503 83.994C304.262 82.1872 304.744 80.8622 305.346 80.0191C305.707 79.1759 306.189 78.935 306.189 78.935C306.189 78.935 305.828 79.2964 305.346 80.1395C304.864 80.9827 304.382 82.3077 304.623 83.994C304.744 84.8371 305.105 85.6803 305.707 86.5235C306.31 87.3666 307.153 88.0893 308.116 88.4507C308.598 88.6916 309.2 88.812 309.682 88.9325C310.284 89.053 310.887 89.053 311.489 88.9325C312.694 88.6916 313.778 88.0893 314.741 87.2462C315.584 86.2826 316.187 85.1985 316.307 83.994C316.428 83.3917 316.428 82.7895 316.307 82.1872C316.187 81.5849 316.066 81.1031 315.825 80.6213C315.343 79.6577 314.621 78.8145 313.778 78.3327C312.934 77.7305 312.091 77.4896 311.248 77.3691C309.562 77.1282 308.237 77.7305 307.394 78.2123C306.55 78.4532 306.189 78.935 306.189 78.935Z" fill="#20B4B3"/>
<path d="M303.178 71.3468C303.178 71.3468 303.057 71.3468 302.937 71.2263C302.816 71.1059 302.576 70.9854 302.335 70.8649C301.853 70.624 301.13 70.1422 300.166 69.54H300.287C299.323 70.624 297.998 71.949 296.433 73.6353V73.5149C297.035 74.3581 297.637 75.3217 298.36 76.4057C297.757 77.3693 297.396 78.5739 297.035 79.7784V79.8988H296.914C295.83 80.1397 294.746 80.3806 293.662 80.742L293.783 80.6215C293.783 82.4283 293.903 84.2351 293.903 86.2828L293.783 86.1623C294.867 86.4032 295.951 86.6441 297.155 86.885H297.276V87.0055C297.637 88.0896 298.119 89.2941 298.721 90.3781V90.4986V90.619C298.119 91.4622 297.517 92.5463 296.914 93.5099V93.269C298.239 94.4735 299.564 95.7985 301.01 97.1234H300.769C301.612 96.5212 302.576 95.9189 303.66 95.3167H303.78H303.901C304.864 95.9189 306.069 96.4007 307.273 96.6416H307.394V96.7621C307.635 97.8462 307.875 98.9302 308.237 100.014L308.116 99.8938C309.923 99.8938 311.85 99.7734 313.778 99.7734L313.657 99.8938C313.898 98.8098 314.139 97.7257 314.38 96.5212V96.4007H314.5C315.584 96.0394 316.789 95.5576 317.873 94.9553H317.993H318.114C319.077 95.5576 320.041 96.1598 321.005 96.7621H320.764C322.089 95.4371 323.414 93.9917 324.618 92.6667V92.9076C324.016 91.944 323.414 90.9804 322.811 90.0168V89.8963V89.7759C323.414 88.6918 323.896 87.6077 324.136 86.4032V86.2828H324.257C325.341 86.0419 326.425 85.801 327.509 85.4396L327.389 85.5601C327.389 83.6328 327.268 81.8261 327.268 79.8988L327.389 80.0193C326.305 79.7784 325.1 79.5375 324.016 79.2966H323.896V79.1761C323.534 77.9716 323.052 76.8875 322.45 75.8035V75.683V75.5626C323.052 74.599 323.655 73.6353 324.257 72.6717V72.7922C322.811 71.4672 321.486 70.1422 320.161 68.9377H320.282C319.318 69.54 318.355 70.1422 317.391 70.7445H317.271H317.15C316.066 70.1422 314.862 69.6604 313.778 69.4195H313.657V69.2991C313.416 68.0946 313.055 67.0105 312.814 66.0469L312.934 66.1673C310.766 66.1673 308.959 66.1673 307.273 66.2878L307.394 66.1673C307.153 67.4923 306.912 68.5764 306.671 69.54C305.466 69.9013 304.623 70.2627 304.141 70.5036C303.901 70.624 303.66 70.7445 303.539 70.8649C303.298 71.3468 303.178 71.3468 303.178 71.3468C303.178 71.3468 303.298 71.3468 303.419 71.2263C303.539 71.1059 303.78 70.9854 304.021 70.8649C304.503 70.624 305.346 70.1422 306.55 69.7809C306.791 68.8173 306.912 67.7332 307.273 66.4082V66.2878H307.394C308.959 66.2878 310.887 66.1673 313.055 66.1673H313.175V66.2878C313.416 67.2514 313.657 68.3355 314.018 69.54L313.898 69.4195C314.982 69.6604 316.187 70.1422 317.391 70.7445H317.271C318.114 70.1422 319.077 69.54 320.161 68.8173H320.282L320.402 68.9377C321.727 70.1422 323.052 71.4672 324.498 72.7922L324.618 72.9126V73.0331C324.016 73.9967 323.414 74.9603 322.811 75.9239V75.8035C323.414 76.8875 323.896 77.9716 324.257 79.1761L324.136 79.0557C325.22 79.2966 326.305 79.5375 327.509 79.7784H327.63V79.8988C327.63 81.7056 327.75 83.6328 327.75 85.5601V85.6805H327.63C326.545 85.9214 325.461 86.1623 324.377 86.5237L324.498 86.4032C324.257 87.6077 323.775 88.8123 323.173 89.8963V89.7759C323.775 90.7395 324.377 91.7031 324.98 92.6667L325.1 92.7872L324.98 92.9076C323.655 94.2326 322.45 95.5576 321.125 97.003L321.005 97.1234L320.884 97.003C319.921 96.4007 318.957 95.7985 317.993 95.1962H318.114C317.03 95.7985 315.825 96.4007 314.741 96.6416L314.862 96.5212C314.621 97.6053 314.38 98.8098 314.139 99.8938V100.014H314.018C312.091 100.014 310.164 100.135 308.357 100.135H308.237V100.014C307.996 98.9302 307.635 97.7257 307.394 96.7621L307.514 96.8825C306.31 96.5212 305.105 96.0394 304.021 95.5576H304.141C303.178 96.1598 302.214 96.8825 301.251 97.3643L301.13 97.4848L301.01 97.3643C299.564 96.0394 298.239 94.7144 296.914 93.5099L296.794 93.3894L296.914 93.269C297.517 92.3054 298.119 91.2213 298.721 90.3781V90.4986C297.998 89.4145 297.517 88.21 297.276 87.1259L297.396 87.2464C296.192 87.0055 295.108 86.7646 294.023 86.5237H293.903V86.4032C293.903 84.476 293.903 82.5488 293.783 80.742V80.6215H293.903C295.108 80.3806 296.192 80.0193 297.155 79.7784L297.035 79.8988C297.396 78.5739 297.878 77.4898 298.36 76.4057V76.5262C297.637 75.4421 297.035 74.599 296.553 73.6353C298.119 71.949 299.444 70.624 300.528 69.6604C301.491 70.2627 302.214 70.624 302.696 70.9854C302.937 71.1058 303.057 71.2263 303.298 71.3468C303.178 71.3468 303.178 71.3468 303.178 71.3468Z" fill="#20B4B3"/>
</g>
<g opacity="0.3">
<path d="M45.5274 170.6C46.6115 169.997 47.6955 169.516 48.9001 169.154L49.6228 165.782L55.284 165.661L56.1272 168.913C57.3317 169.154 58.4158 169.636 59.4998 170.238L62.3907 168.432L66.486 172.286L64.6793 175.177C65.2815 176.261 65.7633 177.345 66.1247 178.549L69.4973 179.272L69.6178 184.933L66.3656 185.777C66.1247 186.981 65.6429 188.065 65.0406 189.149L66.8474 192.04L62.9929 196.135L60.1021 194.329C59.018 194.931 57.9339 195.413 56.7294 195.774L56.0067 199.147L50.3455 199.267L49.5023 196.015C48.2978 195.774 47.2137 195.292 46.1297 194.69L43.2388 196.497L39.1435 192.642L40.9502 189.751C40.348 188.667 39.8662 187.583 39.5048 186.379L36.1322 185.656L36.0117 179.995L39.2639 179.152C39.5048 177.947 39.9866 176.863 40.5889 175.779L38.7821 172.888L42.6366 168.793L45.5274 170.6ZM48.5387 178.068C46.2501 180.477 46.2501 184.331 48.6592 186.62C51.0682 188.908 54.9227 188.908 57.2112 186.499C59.4998 184.09 59.4998 180.236 57.0908 177.947C54.6818 175.538 50.8273 175.659 48.5387 178.068Z" fill="#20B4B3"/>
<path d="M48.5407 178.069C48.5407 178.069 48.902 177.587 49.6248 177.105C50.4679 176.623 51.7929 176.021 53.5997 176.142C54.4428 176.262 55.4064 176.503 56.2496 177.105C57.0928 177.707 57.9359 178.43 58.4177 179.514C58.6586 179.996 58.8995 180.598 59.02 181.201C59.1404 181.803 59.1404 182.405 59.02 183.007C58.8995 184.212 58.2973 185.537 57.3337 186.5C56.3701 187.464 55.1655 188.066 53.961 188.307C53.3588 188.428 52.7565 188.428 52.1542 188.307C51.552 188.187 50.9497 188.066 50.4679 187.825C49.3839 187.344 48.5407 186.621 47.9384 185.778C47.3362 184.935 46.9748 183.971 46.8544 183.128C46.6135 181.321 47.0953 179.996 47.6975 179.153C48.1793 178.43 48.5407 178.069 48.5407 178.069C48.5407 178.069 48.1793 178.43 47.6975 179.273C47.2157 180.116 46.7339 181.441 46.9748 183.128C47.0953 183.971 47.4566 184.814 48.0589 185.657C48.6611 186.5 49.5043 187.223 50.4679 187.584C50.9497 187.825 51.552 187.946 52.0338 188.066C52.6361 188.187 53.2383 188.187 53.8406 188.066C55.0451 187.825 56.1292 187.223 57.0928 186.38C57.9359 185.416 58.5382 184.332 58.6586 183.128C58.7791 182.526 58.7791 181.923 58.6586 181.321C58.5382 180.719 58.4177 180.237 58.1768 179.755C57.695 178.792 56.9723 177.948 56.1292 177.467C55.286 176.864 54.4428 176.623 53.5997 176.503C51.9133 176.262 50.5884 176.864 49.7452 177.346C48.902 177.707 48.5407 178.069 48.5407 178.069Z" fill="#20B4B3"/>
<path d="M45.5274 170.6C45.5274 170.6 45.407 170.6 45.2865 170.479C45.1661 170.359 44.9252 170.238 44.6842 170.118C44.2024 169.877 43.4797 169.395 42.5161 168.793H42.6366C41.673 169.877 40.348 171.202 38.7821 172.888V172.768C39.3844 173.611 39.9866 174.575 40.7093 175.659C40.1071 176.622 39.7457 177.827 39.3844 179.031V179.152H39.2639C38.1798 179.393 37.0958 179.634 36.0117 179.995L36.1322 179.874C36.1322 181.681 36.2526 183.488 36.2526 185.536L36.1322 185.415C37.2162 185.656 38.3003 185.897 39.5048 186.138H39.6253V186.258C39.9866 187.342 40.4684 188.547 41.0707 189.631V189.752V189.872C40.4684 190.715 39.8662 191.799 39.2639 192.763V192.522C40.5889 193.726 41.9139 195.051 43.3593 196.376H43.1184C43.9615 195.774 44.9252 195.172 46.0092 194.57H46.1297H46.2501C47.2137 195.172 48.4183 195.654 49.6228 195.895H49.7432V196.015C49.9841 197.099 50.225 198.183 50.5864 199.267L50.4659 199.147C52.2727 199.147 54.1999 199.026 56.1272 199.026L56.0067 199.147C56.2476 198.063 56.4885 196.979 56.7294 195.774V195.654H56.8499C57.9339 195.292 59.1385 194.81 60.2225 194.208H60.343H60.4634C61.4271 194.81 62.3907 195.413 63.3543 196.015H63.1134C64.4383 194.69 65.7633 193.245 66.9678 191.92V192.161C66.3656 191.197 65.7633 190.233 65.1611 189.27V189.149V189.029C65.7633 187.945 66.2451 186.861 66.486 185.656V185.536H66.6065C67.6905 185.295 68.7746 185.054 69.8587 184.693L69.7382 184.813C69.7382 182.886 69.6178 181.079 69.6178 179.152L69.7382 179.272C68.6542 179.031 67.4496 178.79 66.3656 178.55H66.2451V178.429C65.8838 177.225 65.402 176.14 64.7997 175.056V174.936V174.816C65.402 173.852 66.0042 172.888 66.6065 171.925V172.045C65.1611 170.72 63.8361 169.395 62.5111 168.191H62.6316C61.668 168.793 60.7043 169.516 59.7407 169.997H59.6203H59.4998C58.4158 169.395 57.2112 168.913 56.1272 168.672H56.0067V168.552C55.7658 167.348 55.4045 166.263 55.1636 165.3L55.284 165.42C53.1159 165.42 51.3091 165.42 49.6228 165.541L49.7432 165.42C49.5023 166.745 49.2614 167.829 49.0205 168.793C47.816 169.154 46.9728 169.516 46.491 169.757C46.2501 169.877 46.0092 169.997 45.8888 170.118C45.6479 170.479 45.5274 170.6 45.5274 170.6C45.5274 170.6 45.6479 170.6 45.7683 170.479C45.8888 170.359 46.1297 170.238 46.3706 170.118C46.8524 169.877 47.6955 169.395 48.9001 169.034C49.141 168.07 49.2614 166.986 49.6228 165.661V165.541H49.7432C51.3091 165.541 53.2363 165.42 55.4045 165.42H55.5249V165.541C55.7658 166.504 56.0067 167.588 56.3681 168.793L56.2476 168.672C57.3317 168.913 58.5362 169.395 59.7407 169.997H59.6203C60.4634 169.395 61.4271 168.793 62.5111 168.07H62.6316L62.752 168.191C64.077 169.395 65.402 170.72 66.8474 172.045L66.9678 172.166V172.286C66.3656 173.25 65.7633 174.213 65.1611 175.177V175.056C65.7633 176.14 66.2451 177.225 66.6065 178.429L66.486 178.309C67.5701 178.55 68.6542 178.79 69.8587 179.031H69.9791V179.152C69.9791 180.959 70.0996 182.886 70.0996 184.813V184.933H69.9791C68.8951 185.174 67.811 185.415 66.7269 185.777L66.8474 185.656C66.6065 186.861 66.1247 188.065 65.5224 189.149V189.029C66.1247 189.992 66.7269 190.956 67.3292 191.92L67.4496 192.04L67.3292 192.161C66.0042 193.486 64.7997 194.811 63.4747 196.256L63.3543 196.376L63.2338 196.256C62.2702 195.654 61.3066 195.051 60.343 194.449H60.4634C59.3794 195.051 58.1749 195.654 57.0908 195.895L57.2112 195.774C56.9703 196.858 56.7294 198.063 56.4885 199.147V199.267H56.3681C54.4408 199.267 52.5136 199.388 50.7068 199.388H50.5864V199.267C50.3455 198.183 49.9841 196.979 49.7432 196.015L49.8637 196.135C48.6592 195.774 47.4546 195.292 46.3706 194.81H46.491C45.5274 195.413 44.5638 196.135 43.6002 196.617L43.4797 196.738L43.3593 196.617C41.9139 195.292 40.5889 193.967 39.2639 192.763L39.1435 192.642L39.2639 192.522C39.8662 191.558 40.4684 190.474 41.0707 189.631V189.752C40.348 188.667 39.8662 187.463 39.6253 186.379L39.7457 186.499C38.5412 186.258 37.4571 186.018 36.3731 185.777H36.2526V185.656C36.2526 183.729 36.2526 181.802 36.1322 179.995V179.874H36.2526C37.4571 179.634 38.5412 179.272 39.5048 179.031L39.3844 179.152C39.7457 177.827 40.2275 176.743 40.7093 175.659V175.779C39.9866 174.695 39.3844 173.852 38.9026 172.888C40.4684 171.202 41.7934 169.877 42.8775 168.913C43.8411 169.516 44.5638 169.877 45.0456 170.238C45.2865 170.359 45.407 170.479 45.6479 170.6C45.5274 170.479 45.5274 170.6 45.5274 170.6Z" fill="#20B4B3"/>
</g>
<g opacity="0.6">
<path d="M379.064 78.3335C381.714 78.3335 384.364 78.8153 386.773 79.538L391.832 74.3586L402.07 80.6221L399.782 87.4878C401.588 89.2946 403.154 91.4627 404.359 93.7513L411.586 93.6309L414.477 105.315L407.972 108.567C407.972 111.217 407.491 113.867 406.768 116.276L411.947 121.335L405.684 131.573L398.818 129.285C397.011 131.091 394.843 132.657 392.555 133.862L392.675 141.089L380.991 143.98L377.739 137.475C375.089 137.475 372.439 136.994 370.03 136.271L364.971 141.45L354.733 135.187L357.021 128.321C355.214 126.514 353.649 124.346 352.444 122.058L345.217 122.178L342.326 110.494L348.831 107.242C348.831 104.592 349.312 101.942 350.035 99.533L344.856 94.474L351.119 84.2356L357.985 86.5242C359.792 84.7174 361.96 83.1516 364.248 81.9471L364.128 74.7199L375.812 71.8291L379.064 78.3335ZM375.932 95.1968C369.066 96.8831 364.851 103.869 366.537 110.735C368.223 117.601 375.21 121.817 382.075 120.13C388.941 118.444 393.157 111.458 391.47 104.592C389.784 97.7262 382.798 93.5104 375.932 95.1968Z" fill="#20B4B3"/>
<path d="M375.931 95.1976C375.931 95.1976 377.015 94.7158 379.063 94.7158C381.111 94.7158 384.242 95.1976 387.254 97.4862C388.699 98.6907 390.145 100.257 390.988 102.184C391.831 104.232 392.433 106.52 392.072 109.05C391.951 110.254 391.59 111.579 391.108 112.784C390.626 113.988 389.904 115.193 389.061 116.156C387.374 118.204 384.845 119.77 382.074 120.493C379.304 121.095 376.413 120.974 373.884 119.89C372.679 119.408 371.475 118.686 370.511 117.843C369.547 116.999 368.704 116.036 367.981 115.072C366.536 113.024 365.934 110.615 365.813 108.447C365.693 106.279 366.175 104.232 366.897 102.545C368.463 99.0521 370.993 97.2453 372.8 96.2817C374.727 95.3181 375.931 95.1976 375.931 95.1976C375.931 95.3181 374.847 95.4385 373.04 96.4021C371.354 97.3658 368.825 99.293 367.5 102.545C366.777 104.232 366.416 106.159 366.536 108.206C366.657 110.254 367.259 112.543 368.704 114.47C369.306 115.434 370.15 116.397 371.113 117.12C372.077 117.963 373.161 118.565 374.365 119.047C376.774 120.011 379.424 120.252 382.074 119.649C384.724 118.927 387.013 117.481 388.699 115.554C389.542 114.59 390.145 113.506 390.626 112.302C391.108 111.218 391.47 110.013 391.59 108.809C391.831 106.52 391.349 104.232 390.626 102.304C389.783 100.377 388.458 98.8112 387.133 97.7271C384.363 95.4385 381.352 94.8363 379.304 94.8363C377.015 94.9567 375.931 95.3181 375.931 95.1976Z" fill="#20B4B3"/>
<path d="M379.062 78.3312C379.062 78.3312 378.942 78.2108 378.821 77.9699C378.701 77.729 378.46 77.2471 378.219 76.7653C377.617 75.6813 376.773 73.9949 375.689 71.9473L375.81 72.0677C372.799 72.7904 368.944 73.754 364.246 74.9586L364.367 74.7177C364.367 76.8858 364.487 79.2948 364.487 81.9448V82.0652L364.367 82.1857C362.199 83.3902 360.151 84.8356 358.103 86.7628L357.983 86.8833H357.863C355.694 86.1606 353.406 85.4379 350.997 84.5947L351.358 84.4743C349.431 87.7265 347.383 91.0991 345.215 94.7127V94.3513C346.781 95.9172 348.588 97.6035 350.395 99.4103L350.515 99.5307V99.6512C349.792 101.94 349.431 104.59 349.31 107.24V107.481L349.19 107.601C347.142 108.565 344.974 109.769 342.686 110.853L342.806 110.492C343.649 114.105 344.733 118.08 345.697 122.176L345.336 121.935C347.624 121.935 350.033 121.814 352.563 121.814H352.804L352.924 122.055C354.129 124.223 355.694 126.391 357.501 128.319L357.622 128.439L357.501 128.68C356.778 130.848 356.056 133.137 355.213 135.546L355.092 135.064C358.344 136.991 361.837 139.159 365.331 141.328H364.849C366.415 139.641 368.101 137.955 369.908 136.148L370.028 136.028L370.269 136.148C372.678 136.871 375.208 137.232 377.858 137.353H378.098L378.219 137.593C379.303 139.762 380.387 141.93 381.471 144.098L381.11 143.857C385.085 142.893 388.939 141.93 392.794 140.966L392.553 141.328C392.553 138.918 392.432 136.509 392.432 134.1V133.859L392.673 133.739C394.962 132.535 397.009 130.969 398.937 129.162L399.057 129.041L399.298 129.162C401.587 129.885 403.875 130.728 406.164 131.45L405.802 131.571C407.97 128.078 410.018 124.705 412.066 121.333V121.694C410.259 120.008 408.573 118.321 406.886 116.635L406.766 116.514V116.274C407.489 113.744 407.85 111.215 407.971 108.685V108.444L408.091 108.324C410.259 107.24 412.427 106.156 414.595 105.072L414.475 105.433C413.511 101.338 412.548 97.483 411.704 93.749L411.945 93.9899C409.416 93.9899 407.007 94.1104 404.718 94.1104H404.598L404.477 93.9899C403.152 91.5809 401.587 89.5332 399.9 87.7265L399.78 87.606V87.4856C400.623 84.9561 401.346 82.7879 402.068 80.6198L402.189 80.8607C398.214 78.4517 394.841 76.404 391.95 74.5972H392.191C390.144 76.6449 388.457 78.3312 387.132 79.7766H387.012C384.482 79.0539 382.555 78.813 381.23 78.6926C380.628 78.6926 380.146 78.5721 379.785 78.5721C379.182 78.3312 379.062 78.3312 379.062 78.3312C379.062 78.3312 379.183 78.3312 379.544 78.3312C379.905 78.3312 380.387 78.3312 380.989 78.3312C382.314 78.4517 384.241 78.6926 386.771 79.4153H386.651C387.975 77.9699 389.662 76.2835 391.589 74.1154L391.71 73.9949L391.83 74.1154C394.721 75.8017 398.093 77.8494 402.068 80.2584L402.189 80.3789V80.4993C401.466 82.6675 400.743 84.8356 399.9 87.3651V87.1242C401.587 88.931 403.273 90.9787 404.598 93.5081L404.357 93.3877C406.646 93.3877 409.055 93.2672 411.584 93.2672H411.825V93.5081C412.789 97.2421 413.632 101.097 414.716 105.192V105.433L414.475 105.553C412.427 106.637 410.259 107.721 407.971 108.806L408.091 108.565C408.091 111.094 407.609 113.744 406.886 116.394L406.766 116.033C408.452 117.719 410.259 119.405 411.945 121.092L412.186 121.333L412.066 121.573C410.018 124.946 407.97 128.319 405.923 131.812L405.802 132.053L405.561 131.932C403.273 131.21 400.984 130.366 398.696 129.644L399.057 129.523C397.13 131.33 395.082 132.896 392.673 134.221L392.914 133.859C392.914 136.269 393.034 138.678 393.034 141.087V141.328L392.794 141.448C388.939 142.412 385.085 143.375 381.11 144.339L380.869 144.459L380.748 144.218C379.664 142.05 378.58 139.882 377.496 137.714L377.858 137.955C375.087 137.955 372.437 137.473 370.028 136.75L370.39 136.63C368.703 138.437 366.896 140.243 365.331 141.809L365.09 142.05L364.849 141.93C361.356 139.762 357.863 137.714 354.61 135.666L354.369 135.546L354.49 135.305C355.333 132.896 356.056 130.607 356.778 128.439L356.899 128.801C354.972 126.873 353.406 124.585 352.201 122.417L352.563 122.657C350.033 122.657 347.624 122.778 345.336 122.778H345.095L344.974 122.537C344.011 118.442 343.047 114.587 342.083 110.853L341.963 110.612L342.204 110.492C344.492 109.408 346.661 108.324 348.708 107.24L348.588 107.481C348.588 104.71 349.07 102.06 349.792 99.6512L349.913 100.013C348.106 98.2058 346.299 96.5194 344.733 94.9536L344.613 94.8331L344.733 94.5922C346.901 90.9786 348.949 87.606 350.997 84.3538L351.117 84.2333L351.358 84.3538C353.767 85.197 356.056 85.9197 358.224 86.6424H357.983C360.031 84.7152 362.199 83.1493 364.367 81.9448L364.246 82.1857C364.246 79.5357 364.126 77.1267 364.126 74.9586V74.8381H364.246C368.944 73.754 372.919 72.7904 375.93 72.0677H376.051V72.1882C377.014 74.2358 377.858 75.9222 378.339 77.0062C378.58 77.488 378.821 77.9699 378.942 78.2108C378.942 78.0903 379.062 78.3312 379.062 78.3312Z" fill="#20B4B3"/>
</g>
<path fill-rule="evenodd" clip-rule="evenodd" d="M226.328 129.766C232.11 126.273 238.253 123.744 244.516 121.937L248.371 103.99L278.725 103.508L283.061 121.335C289.445 122.901 295.588 125.31 301.49 128.682L316.908 118.685L338.71 139.884L329.194 155.543C332.687 161.325 335.217 167.468 337.023 173.731L354.971 177.586L355.453 207.94L337.626 212.276C336.06 218.66 333.651 224.803 330.278 230.705L340.276 246.123L319.076 267.925L303.417 258.409C297.636 261.902 291.493 264.431 285.229 266.238L281.375 284.186L251.021 284.667L246.685 266.84C240.301 265.275 234.158 262.866 228.255 259.493L212.838 269.49L191.036 248.291L200.551 232.632C197.058 226.85 194.529 220.707 192.722 214.444L174.775 210.589L174.293 180.236L192.12 175.899C193.686 169.515 196.095 163.372 199.467 157.47L189.47 142.052L210.669 120.251L226.328 129.766Z" fill="url(#paint0_linear)"/>
<path fill-rule="evenodd" clip-rule="evenodd" d="M425.676 178.188C429.41 175.899 433.265 174.092 437.36 172.888L439.649 161.204L459.282 160.602L462.294 172.165C466.389 173.129 470.484 174.694 474.339 176.742L484.216 170.117L498.55 183.608L492.527 193.846C494.816 197.58 496.622 201.435 497.827 205.53L509.511 207.819L510.113 227.452L498.55 230.464C497.586 234.559 496.02 238.654 493.973 242.509L500.597 252.386L487.107 266.72L476.868 260.697C473.134 262.986 469.28 264.792 465.185 265.997L462.896 277.681L443.262 278.283L440.251 266.72C436.156 265.756 432.06 264.19 428.206 262.142L418.329 268.767L403.995 255.277L410.018 245.038C407.729 241.304 405.922 237.45 404.718 233.354L393.034 231.066L392.432 211.432L403.995 208.421C404.959 204.326 406.525 200.23 408.572 196.376L401.947 186.499L415.438 172.165L425.676 178.188Z" fill="url(#paint1_linear)"/>
<path d="M478.002 206.661C477.757 206.072 477.29 205.605 476.701 205.361C476.412 205.237 476.101 205.172 475.786 205.168H463.744C463.106 205.168 462.493 205.422 462.041 205.873C461.59 206.325 461.336 206.937 461.336 207.576C461.336 208.214 461.59 208.827 462.041 209.278C462.493 209.73 463.106 209.984 463.744 209.984H469.982L456.519 223.444L448.596 215.498C448.372 215.272 448.106 215.093 447.812 214.971C447.519 214.848 447.204 214.785 446.886 214.785C446.568 214.785 446.253 214.848 445.96 214.971C445.666 215.093 445.4 215.272 445.176 215.498L430.726 229.945C430.5 230.169 430.321 230.435 430.199 230.729C430.077 231.022 430.014 231.337 430.014 231.655C430.014 231.972 430.077 232.287 430.199 232.581C430.321 232.874 430.5 233.14 430.726 233.364C430.95 233.59 431.216 233.769 431.51 233.891C431.803 234.013 432.118 234.076 432.436 234.076C432.754 234.076 433.069 234.013 433.362 233.891C433.656 233.769 433.922 233.59 434.146 233.364L446.886 220.602L454.809 228.548C455.033 228.774 455.3 228.953 455.593 229.075C455.887 229.198 456.201 229.261 456.519 229.261C456.837 229.261 457.152 229.198 457.446 229.075C457.739 228.953 458.005 228.774 458.229 228.548L473.378 213.379V219.615C473.378 220.254 473.631 220.866 474.083 221.318C474.535 221.769 475.147 222.023 475.786 222.023C476.425 222.023 477.037 221.769 477.489 221.318C477.941 220.866 478.194 220.254 478.194 219.615V207.576C478.191 207.261 478.125 206.95 478.002 206.661Z" fill="white"/>
<path d="M153.575 242.391C153.455 242.391 152.732 240.946 152.13 239.019C151.528 237.091 151.166 235.525 151.287 235.525C151.407 235.525 152.13 236.971 152.732 238.898C153.455 240.705 153.816 242.391 153.575 242.391Z" fill="url(#paint2_linear)"/>
<path d="M166.343 268.165C166.222 268.286 164.295 265.636 162.247 262.143C160.2 258.65 158.995 255.759 159.116 255.638C159.236 255.518 160.802 258.409 162.729 261.781C164.897 265.275 166.584 268.045 166.343 268.165Z" fill="url(#paint3_linear)"/>
<path d="M185.133 289.967C185.012 290.088 182.483 288.04 179.712 285.27C176.942 282.379 174.894 279.849 175.015 279.729C175.135 279.608 177.303 282.018 180.074 284.788C182.965 287.558 185.253 289.847 185.133 289.967Z" fill="url(#paint4_linear)"/>
<path d="M208.983 306.107C208.862 306.228 205.972 305.023 202.479 302.975C198.985 300.928 196.456 299.001 196.576 298.88C196.697 298.76 199.347 300.446 202.84 302.494C206.213 304.421 209.103 305.866 208.983 306.107Z" fill="url(#paint5_linear)"/>
<path d="M236.326 314.901C236.326 315.022 233.074 314.54 229.219 313.817C225.365 312.733 222.354 311.77 222.354 311.529C222.354 311.408 225.606 312.131 229.34 313.215C233.194 313.938 236.326 314.66 236.326 314.901Z" fill="url(#paint6_linear)"/>
<path d="M265.112 315.505C265.112 315.625 261.981 316.227 257.885 316.348C253.91 316.589 250.658 316.348 250.658 316.107C250.658 315.986 253.91 315.866 257.885 315.745C261.86 315.625 265.112 315.384 265.112 315.505Z" fill="url(#paint7_linear)"/>
<path d="M293.176 309.241C293.176 309.361 290.165 310.566 286.431 311.65C282.576 312.734 279.445 313.216 279.324 313.095C279.324 312.975 282.456 312.132 286.19 311.047C290.044 310.084 293.176 309.12 293.176 309.241Z" fill="url(#paint8_linear)"/>
<path d="M319.316 297.076C319.437 297.196 316.787 299.003 313.173 300.93C309.68 302.858 306.669 304.062 306.549 303.942C306.428 303.821 309.319 302.376 312.812 300.449C316.426 298.521 319.196 296.955 319.316 297.076Z" fill="url(#paint9_linear)"/>
<path d="M341.6 279.008C341.721 279.129 339.673 281.658 336.662 284.308C333.771 287.079 331.121 288.885 331 288.765C330.88 288.645 333.289 286.476 336.3 283.827C339.191 281.177 341.48 278.888 341.6 279.008Z" fill="url(#paint10_linear)"/>
<path d="M357.5 255.037C357.621 255.158 356.416 258.169 354.489 261.662C352.562 265.155 350.634 267.805 350.514 267.685C350.393 267.564 352.08 264.794 354.007 261.301C355.934 257.928 357.38 255.037 357.5 255.037Z" fill="url(#paint11_linear)"/>
<path d="M367.374 228.057C367.495 228.057 366.652 231.189 365.447 235.043C364.243 238.777 363.038 241.909 362.918 241.789C362.797 241.789 363.64 238.657 364.845 234.803C366.049 230.948 367.254 227.937 367.374 228.057Z" fill="url(#paint12_linear)"/>
<path d="M376.652 200.713C376.893 200.833 375.688 203.845 374.484 207.579C373.159 211.313 371.954 214.324 371.834 214.324C371.713 214.324 372.556 211.192 373.881 207.458C374.484 205.531 375.206 203.845 375.688 202.761C376.17 201.436 376.531 200.713 376.652 200.713Z" fill="url(#paint13_linear)"/>
<path d="M389.418 174.936C389.539 175.056 387.973 177.826 386.046 181.32C384.118 184.813 382.553 187.703 382.432 187.583C382.312 187.463 383.516 184.572 385.443 181.079C387.371 177.465 389.298 174.815 389.418 174.936Z" fill="url(#paint14_linear)"/>
<path d="M408.691 153.616C408.811 153.736 406.282 155.784 403.391 158.434C400.5 161.084 398.332 163.493 398.091 163.373C397.971 163.252 400.018 160.723 402.909 157.952C405.8 155.302 408.57 153.496 408.691 153.616Z" fill="url(#paint15_linear)"/>
<path d="M434.59 141.451C434.59 141.571 431.579 142.535 427.845 143.86C424.111 145.185 421.099 146.389 421.099 146.269C420.979 146.148 423.87 144.582 427.724 143.257C431.338 141.932 434.59 141.33 434.59 141.451Z" fill="url(#paint16_linear)"/>
<path d="M463.136 138.199C463.136 138.32 459.884 138.32 455.909 138.44C451.934 138.56 448.682 138.801 448.682 138.681C448.682 138.56 451.813 137.958 455.909 137.838C459.884 137.717 463.136 138.079 463.136 138.199Z" fill="url(#paint17_linear)"/>
<path d="M490.96 145.306C490.84 145.426 487.949 144.222 484.094 142.897C480.36 141.572 477.229 140.608 477.349 140.488C477.349 140.367 480.601 140.969 484.335 142.415C488.069 143.74 490.96 145.185 490.96 145.306Z" fill="url(#paint18_linear)"/>
<path d="M515.533 160.362C515.413 160.482 512.884 158.555 509.631 156.266C506.379 153.978 503.729 152.171 503.85 152.05C503.97 151.93 506.741 153.496 510.113 155.784C513.245 157.953 515.533 160.241 515.533 160.362Z" fill="url(#paint19_linear)"/>
<path d="M529.987 176.381C529.867 176.501 528.903 175.176 527.698 173.61C526.494 172.045 525.651 170.72 525.771 170.599C525.892 170.479 527.096 171.683 528.301 173.249C529.385 174.815 530.107 176.26 529.987 176.381Z" fill="url(#paint20_linear)"/>
<path d="M0 73.0333C0 73.0333 0.120452 72.672 0.240904 71.9493C0.361355 71.2265 0.602259 70.1425 0.963614 68.8175C1.68633 66.0471 2.89084 61.9518 4.93852 56.8928C7.10666 51.9543 10.2384 45.9317 14.936 39.6682C19.5132 33.4047 25.6562 26.9003 33.2447 20.8777C40.9536 14.9755 50.3489 9.43477 61.31 5.70076C66.7303 3.89398 72.512 2.44856 78.655 1.48495C84.6776 0.641784 91.0616 0.159977 97.4455 0.40088C103.95 0.521332 110.575 1.36449 117.079 2.93037C123.704 4.49624 130.208 6.66437 136.592 9.79612C142.856 12.9279 148.878 17.0232 154.419 21.7208C159.96 26.4185 165.019 31.9593 169.235 38.1023C173.451 44.2453 176.823 50.8702 179.112 57.8564C181.521 64.7221 182.966 71.8288 183.569 78.815C183.689 80.6218 183.93 82.3081 183.93 84.1149C183.93 85.8012 184.05 87.608 184.05 89.2943C184.05 90.9806 183.93 92.7874 183.93 94.4737C183.809 96.1601 183.689 97.8464 183.448 99.5327C182.605 106.278 180.798 112.662 178.269 118.685C175.739 124.707 172.728 130.248 169.717 135.548C166.585 140.848 163.574 145.907 160.683 150.845C154.901 160.722 151.89 171.202 150.203 180.717C149.36 185.535 148.758 190.112 148.517 194.449C148.156 198.785 148.035 203.001 148.035 206.855C148.035 214.564 148.156 221.309 148.999 226.73C149.842 232.15 150.926 236.246 151.769 239.016C152.251 240.341 152.612 241.425 152.853 242.148C152.974 242.509 153.094 242.75 153.215 242.87C153.335 242.991 153.335 243.111 153.335 243.111C153.335 243.111 152.612 241.786 151.649 239.016C150.685 236.246 149.601 232.15 148.758 226.73C147.915 221.309 147.794 214.564 147.674 206.855C147.674 203.001 147.794 198.785 148.156 194.449C148.397 190.112 148.999 185.415 149.842 180.597C151.528 170.961 154.54 160.481 160.321 150.604C163.212 145.666 166.223 140.486 169.235 135.307C172.246 130.007 175.257 124.466 177.787 118.564C180.196 112.662 182.003 106.278 182.846 99.5327C183.087 97.8464 183.207 96.1601 183.328 94.4737C183.328 92.7874 183.448 91.1011 183.448 89.2943C183.448 87.608 183.328 85.8012 183.328 84.1149C183.207 82.4286 183.087 80.6218 182.966 78.9355C182.244 71.9492 180.798 64.9631 178.51 58.0973C176.101 51.2315 172.848 44.6067 168.633 38.5841C164.417 32.4411 159.478 27.0207 153.937 22.3231C148.397 17.6255 142.494 13.6506 136.231 10.5188C129.967 7.38709 123.463 5.21895 116.838 3.65308C110.334 2.08721 103.709 1.36449 97.3251 1.12359C90.9411 0.882688 84.5572 1.36449 78.5346 2.20766C72.512 3.05082 66.7303 4.49624 61.31 6.30302C50.4693 9.91657 41.1945 15.4574 33.3652 21.3595C25.6562 27.3821 19.6336 33.8865 14.936 40.0295C10.5998 46.0521 7.46801 51.9543 5.17943 57.0132C3.0113 62.0722 1.80678 66.0471 1.08407 68.8175C0.722711 70.1425 0.481807 71.2265 0.361355 71.9493C0.120452 72.672 0 73.0333 0 73.0333Z" fill="url(#paint21_linear)"/>
<path d="M320.399 194.596C320.266 225.23 295.359 249.87 264.725 249.737C234.092 249.604 209.451 224.697 209.585 194.063C209.718 163.429 234.624 138.789 265.258 138.922C295.892 139.056 320.532 163.962 320.399 194.596Z" fill="white"/>
<path d="M264.389 148.196V157.351" stroke="#4D6197" stroke-width="3.0967" stroke-miterlimit="10" stroke-linecap="round" stroke-linejoin="round"/>
<path d="M264.029 231.669L263.908 240.823" stroke="#4D6197" stroke-width="3.0967" stroke-miterlimit="10" stroke-linecap="round" stroke-linejoin="round"/>
<path d="M217.773 194.209L227.048 194.329" stroke="#4D6197" stroke-width="3.0967" stroke-miterlimit="10" stroke-linecap="round" stroke-linejoin="round"/>
<path d="M301.367 194.69L310.522 194.811" stroke="#4D6197" stroke-width="3.0967" stroke-miterlimit="10" stroke-linecap="round" stroke-linejoin="round"/>
<path d="M231.506 161.687L238.01 168.191" stroke="#4D6197" stroke-width="3.0967" stroke-miterlimit="10" stroke-linecap="round" stroke-linejoin="round"/>
<path d="M290.406 220.829L296.911 227.334" stroke="#4D6197" stroke-width="3.0967" stroke-miterlimit="10" stroke-linecap="round" stroke-linejoin="round"/>
<path d="M232.229 228.056L238.612 221.431" stroke="#4D6197" stroke-width="3.0967" stroke-miterlimit="10" stroke-linecap="round" stroke-linejoin="round"/>
<path d="M289.805 167.589L296.189 160.964" stroke="#4D6197" stroke-width="3.0967" stroke-miterlimit="10" stroke-linecap="round" stroke-linejoin="round"/>
<path d="M266.315 193.366L264.99 171.323L263.545 193.366H266.315Z" fill="#4D6197"/>
<path d="M264.992 192.643L230.061 193.847L264.992 195.413V192.643Z" fill="#4D6197"/>
<path d="M268.485 199.87L267.883 200.231L246.201 162.53L246.803 162.289L268.485 199.87Z" fill="#4D6197"/>
<path d="M267.883 193.967C267.883 195.533 266.558 196.858 264.871 196.858C263.305 196.858 261.98 195.533 261.98 193.847C261.98 192.281 263.305 190.956 264.992 190.956C266.558 191.077 267.883 192.401 267.883 193.967Z" fill="#4D6197"/>
<path fill-rule="evenodd" clip-rule="evenodd" d="M64.6821 40.2698C69.1388 37.6198 73.9569 35.5722 78.8954 34.1267L81.9067 20.1543L105.515 19.793L108.888 33.6449C113.826 34.8494 118.645 36.7767 123.222 39.3062L135.146 31.4768L152.13 47.9787L144.662 60.1443C147.312 64.601 149.36 69.4191 150.805 74.3576L164.778 77.3689L165.139 100.977L151.287 104.35C150.082 109.289 148.155 114.107 145.626 118.684L153.455 130.609L136.953 147.592L124.788 140.124C120.331 142.774 115.513 144.822 110.574 146.267L107.563 160.24L83.9544 160.601L80.5817 146.749C75.6432 145.545 70.8251 143.617 66.248 141.088L54.3232 148.917L37.3395 132.415L44.5666 120.25C41.9167 115.793 39.869 110.975 38.4236 106.036L24.4512 103.025L24.0898 79.4166L37.9418 76.044C39.1463 71.1054 41.0735 66.2874 43.603 61.7102L36.0146 49.7855L52.5165 32.8018L64.6821 40.2698Z" fill="url(#paint22_linear)"/>
<path fill-rule="evenodd" clip-rule="evenodd" d="M88.6526 69.5411C84.4358 69.5411 80.3917 71.2162 77.4099 74.198C74.4281 77.1797 72.753 81.2239 72.753 85.4407C72.753 87.5287 73.1643 89.5962 73.9633 91.5253C74.7623 93.4543 75.9335 95.2071 77.4099 96.6835C78.8863 98.1599 80.6391 99.3311 82.5681 100.13C84.4971 100.929 86.5647 101.34 88.6526 101.34C90.7406 101.34 92.8081 100.929 94.7372 100.13C96.6662 99.3311 98.419 98.1599 99.8954 96.6835C101.372 95.2071 102.543 93.4543 103.342 91.5253C104.141 89.5962 104.552 87.5287 104.552 85.4407C104.552 81.2239 102.877 77.1797 99.8954 74.198C96.9136 71.2162 92.8695 69.5411 88.6526 69.5411ZM73.6623 70.4504C77.638 66.4747 83.0302 64.2412 88.6526 64.2412C94.2751 64.2412 99.6673 66.4747 103.643 70.4504C107.619 74.4261 109.852 79.8183 109.852 85.4407C109.852 88.2247 109.304 90.9814 108.238 93.5534C107.513 95.3053 106.557 96.9481 105.399 98.4397L119.676 112.716C120.711 113.751 120.711 115.429 119.676 116.464C118.641 117.499 116.963 117.499 115.928 116.464L101.652 102.187C100.16 103.345 98.5172 104.301 96.7653 105.027C94.1933 106.092 91.4366 106.64 88.6526 106.64C85.8687 106.64 83.112 106.092 80.5399 105.027C77.9679 103.961 75.6309 102.4 73.6623 100.431C71.6938 98.4625 70.1322 96.1255 69.0668 93.5534C68.0015 90.9814 67.4531 88.2247 67.4531 85.4407C67.4531 79.8183 69.6866 74.4261 73.6623 70.4504Z" fill="white"/>
<defs>
<linearGradient id="paint0_linear" x1="130.143" y1="194.029" x2="387.365" y2="194.029" gradientUnits="userSpaceOnUse">
<stop stop-color="#138281"/>
<stop offset="1" stop-color="#0D549F"/>
</linearGradient>
<linearGradient id="paint1_linear" x1="363.752" y1="219.404" x2="530.844" y2="219.404" gradientUnits="userSpaceOnUse">
<stop stop-color="#138281"/>
<stop offset="1" stop-color="#0D549F"/>
</linearGradient>
<linearGradient id="paint2_linear" x1="151.643" y1="237.027" x2="153.234" y2="237.268" gradientUnits="userSpaceOnUse">
<stop stop-color="#FF9900"/>
<stop offset="1" stop-color="#FC6536"/>
</linearGradient>
<linearGradient id="paint3_linear" x1="160.262" y1="258.377" x2="164.914" y2="259.552" gradientUnits="userSpaceOnUse">
<stop stop-color="#FF9900"/>
<stop offset="1" stop-color="#FC6536"/>
</linearGradient>
<linearGradient id="paint4_linear" x1="176.621" y1="281.966" x2="182.443" y2="284.477" gradientUnits="userSpaceOnUse">
<stop stop-color="#FF9900"/>
<stop offset="1" stop-color="#FC6536"/>
</linearGradient>
<linearGradient id="paint5_linear" x1="198.547" y1="300.458" x2="203.974" y2="304.518" gradientUnits="userSpaceOnUse">
<stop stop-color="#FF9900"/>
<stop offset="1" stop-color="#FC6536"/>
</linearGradient>
<linearGradient id="paint6_linear" x1="224.576" y1="312.26" x2="226.84" y2="316.315" gradientUnits="userSpaceOnUse">
<stop stop-color="#FF9900"/>
<stop offset="1" stop-color="#FC6536"/>
</linearGradient>
<linearGradient id="paint7_linear" x1="252.958" y1="315.685" x2="253.188" y2="317.174" gradientUnits="userSpaceOnUse">
<stop stop-color="#FF9900"/>
<stop offset="1" stop-color="#FC6536"/>
</linearGradient>
<linearGradient id="paint8_linear" x1="281.528" y1="310.08" x2="284.287" y2="314.375" gradientUnits="userSpaceOnUse">
<stop stop-color="#FF9900"/>
<stop offset="1" stop-color="#FC6536"/>
</linearGradient>
<linearGradient id="paint9_linear" x1="308.577" y1="298.574" x2="313.836" y2="302.835" gradientUnits="userSpaceOnUse">
<stop stop-color="#FF9900"/>
<stop offset="1" stop-color="#FC6536"/>
</linearGradient>
<linearGradient id="paint10_linear" x1="332.684" y1="281.14" x2="338.59" y2="283.94" gradientUnits="userSpaceOnUse">
<stop stop-color="#FF9900"/>
<stop offset="1" stop-color="#FC6536"/>
</linearGradient>
<linearGradient id="paint11_linear" x1="351.622" y1="257.805" x2="356.132" y2="258.894" gradientUnits="userSpaceOnUse">
<stop stop-color="#FF9900"/>
<stop offset="1" stop-color="#FC6536"/>
</linearGradient>
<linearGradient id="paint12_linear" x1="363.619" y1="231.059" x2="366.613" y2="231.485" gradientUnits="userSpaceOnUse">
<stop stop-color="#FF9900"/>
<stop offset="1" stop-color="#FC6536"/>
</linearGradient>
<linearGradient id="paint13_linear" x1="372.596" y1="203.69" x2="375.831" y2="204.194" gradientUnits="userSpaceOnUse">
<stop stop-color="#FF9900"/>
<stop offset="1" stop-color="#FC6536"/>
</linearGradient>
<linearGradient id="paint14_linear" x1="383.538" y1="177.7" x2="388.048" y2="178.789" gradientUnits="userSpaceOnUse">
<stop stop-color="#FF9900"/>
<stop offset="1" stop-color="#FC6536"/>
</linearGradient>
<linearGradient id="paint15_linear" x1="399.774" y1="155.747" x2="405.68" y2="158.546" gradientUnits="userSpaceOnUse">
<stop stop-color="#FF9900"/>
<stop offset="1" stop-color="#FC6536"/>
</linearGradient>
<linearGradient id="paint16_linear" x1="423.243" y1="142.495" x2="426.954" y2="147.008" gradientUnits="userSpaceOnUse">
<stop stop-color="#FF9900"/>
<stop offset="1" stop-color="#FC6536"/>
</linearGradient>
<linearGradient id="paint17_linear" x1="450.981" y1="138.01" x2="451.178" y2="139.389" gradientUnits="userSpaceOnUse">
<stop stop-color="#FF9900"/>
<stop offset="1" stop-color="#FC6536"/>
</linearGradient>
<linearGradient id="paint18_linear" x1="479.512" y1="141.532" x2="483.216" y2="146.077" gradientUnits="userSpaceOnUse">
<stop stop-color="#FF9900"/>
<stop offset="1" stop-color="#FC6536"/>
</linearGradient>
<linearGradient id="paint19_linear" x1="505.705" y1="153.865" x2="511.499" y2="157.415" gradientUnits="userSpaceOnUse">
<stop stop-color="#FF9900"/>
<stop offset="1" stop-color="#FC6536"/>
</linearGradient>
<linearGradient id="paint20_linear" x1="526.434" y1="171.859" x2="529.058" y2="172.696" gradientUnits="userSpaceOnUse">
<stop stop-color="#FF9900"/>
<stop offset="1" stop-color="#FC6536"/>
</linearGradient>
<linearGradient id="paint21_linear" x1="29.2807" y1="53.4453" x2="142.391" y2="90.864" gradientUnits="userSpaceOnUse">
<stop stop-color="#FF9900"/>
<stop offset="1" stop-color="#FC6536"/>
</linearGradient>
<linearGradient id="paint22_linear" x1="-10.285" y1="90.1512" x2="189.986" y2="90.1512" gradientUnits="userSpaceOnUse">
<stop stop-color="#138281"/>
<stop offset="1" stop-color="#0D549F"/>
</linearGradient>
</defs>
</svg>
