<?xml version="1.0" encoding="UTF-8"?>
<svg width="144px" height="142px" viewBox="0 0 144 142" version="1.1" xmlns="http://www.w3.org/2000/svg" xmlns:xlink="http://www.w3.org/1999/xlink">
    <!-- Generator: sketchtool 64 (101010) - https://sketch.com -->
    <title>27656EC1-0158-42AE-8CF9-FBC194BBDF4D</title>
    <desc>Created with sketchtool.</desc>
    <g id="Styleguide" stroke="none" stroke-width="1" fill="none" fill-rule="evenodd">
        <g id="SectionThree" transform="translate(-138.000000, -180.000000)" fill-rule="nonzero">
            <g id="Group-4" transform="translate(138.000000, 180.000000)">
                <g id="health-copy">
                    <path d="M143.557355,90.9285444 C143.107349,90.3037523 142.378341,89.9324862 141.601332,89.9321904 L120.001083,89.9321904 L120.001083,21.2997293 C120.001083,19.9927542 118.926471,18.9330927 117.601055,18.9330927 L110.400972,18.9330927 L110.400972,11.8331829 C110.400972,10.5262079 109.32636,9.46654636 108.000945,9.46654636 L50.4002809,9.46654636 C50.4002809,4.2383503 46.1021314,0 40.8001702,0 C35.4982091,0 31.2000596,4.2383503 31.2000596,9.46654636 L23.9999766,9.46654636 C22.6745613,9.46654636 21.599949,10.5262079 21.599949,11.8331829 L21.599949,89.9321904 L2.39972766,89.9321904 C1.07431238,89.9324862 0,90.9921478 0,92.2991228 C0,92.6979011 0.102301179,93.0901711 0.297303427,93.4395458 L26.6976077,140.772278 C27.1194126,141.528418 27.9249219,141.999127 28.8000319,141.999127 L124.801138,141.999127 C125.82865,142.027187 126.749661,141.376657 127.052364,140.407816 L127.066765,140.407816 L143.866958,93.0750838 C144.121661,92.3523721 144.00646,91.5527448 143.557355,90.9285444 Z M110.400972,108.865283 L110.400972,23.6663659 L115.201028,23.6663659 L115.201028,117.510607 L110.379372,108.865283 L110.400972,108.865283 Z M40.8001702,4.73327318 C43.4513008,4.73327318 45.6002256,6.85230041 45.6002256,9.46654636 L36.0001149,9.46654636 C36.0001149,6.85230041 38.1493397,4.73327318 40.8001702,4.73327318 Z M26.4000043,14.1998195 L45.6002256,14.1998195 L45.6002256,21.2997293 C45.6002256,22.6067044 44.5256132,23.6663659 43.2001979,23.6663659 C41.8747826,23.6663659 40.8001702,22.6067044 40.8001702,21.2997293 L40.8001702,18.9330927 L36.0001149,18.9330927 L36.0001149,21.2997293 C36.0001149,25.2209503 39.2236521,28.3996391 43.2001979,28.3996391 C47.1767437,28.3996391 50.4002809,25.2209503 50.4002809,21.2997293 L50.4002809,14.1998195 L105.600917,14.1998195 L105.600917,100.298059 L100.503258,91.1581081 C100.081453,90.4019678 99.2759442,89.9324862 98.4008341,89.9321904 L26.4000043,89.9321904 L26.4000043,14.1998195 Z M30.2184483,137.264922 L6.45817443,94.6654636 L96.9824178,94.6654636 L120.742692,137.264922 L30.2184483,137.264922 Z M124.321133,133.845132 L120.001083,126.115697 L120.001083,94.6654636 L138.217293,94.6654636 L124.321133,133.845132 Z" id="Shape" fill-opacity="0.8" fill="#2F2F2F"></path>
                    <path d="M120.289157,8.65853659 L115.373494,8.65853659 L115.373494,13.4688347 L120.289157,13.4688347 C123.004139,13.4688347 125.204819,15.622345 125.204819,18.2791328 L125.204819,51.9512195 L130.120482,51.9512195 L130.120482,18.2791328 C130.120482,12.9658579 125.718813,8.65853659 120.289157,8.65853659 Z" id="Path" fill-opacity="0.8" fill="#2F2F2F"></path>
                    <rect id="Rectangle" fill-opacity="0.8" fill="#2F2F2F" x="125.783133" y="58.0121951" width="5.20481928" height="5.19512195"></rect>
                    <rect id="Rectangle" fill-opacity="0.8" fill="#2F2F2F" x="13.0120482" y="46.7560976" width="5.20481928" height="33.7682927"></rect>
                    <rect id="Rectangle" fill-opacity="0.8" fill="#2F2F2F" x="13.0120482" y="38.097561" width="5.20481928" height="5.19512195"></rect>
                    <path d="M85.0740103,31.2944251 L77.4526678,31.2944251 L77.4526678,24.0583624 C77.4526678,22.7263238 76.3151824,21.6463415 74.9122203,21.6463415 L64.7504303,21.6463415 C63.3474682,21.6463415 62.2099828,22.7263238 62.2099828,24.0583624 L62.2099828,31.2944251 L54.5886403,31.2944251 C53.1856781,31.2944251 52.0481928,32.3744074 52.0481928,33.706446 L52.0481928,43.3545296 C52.0481928,44.6865682 53.1856781,45.7665505 54.5886403,45.7665505 L62.2099828,45.7665505 L62.2099828,53.0026132 C62.2099828,54.3346518 63.3474682,55.4146341 64.7504303,55.4146341 L74.9122203,55.4146341 C76.3151824,55.4146341 77.4526678,54.3346518 77.4526678,53.0026132 L77.4526678,45.7665505 L85.0740103,45.7665505 C86.4769725,45.7665505 87.6144578,44.6865682 87.6144578,43.3545296 L87.6144578,33.706446 C87.6144578,32.3744074 86.4769725,31.2944251 85.0740103,31.2944251 Z M82.5335628,40.9425087 L74.9122203,40.9425087 C73.5092582,40.9425087 72.3717728,42.0224911 72.3717728,43.3545296 L72.3717728,50.5905923 L67.2908778,50.5905923 L67.2908778,43.3545296 C67.2908778,42.0224911 66.1533924,40.9425087 64.7504303,40.9425087 L57.1290878,40.9425087 L57.1290878,36.1184669 L64.7504303,36.1184669 C66.1533924,36.1184669 67.2908778,35.0384845 67.2908778,33.706446 L67.2908778,26.4703833 L72.3717728,26.4703833 L72.3717728,33.706446 C72.3717728,35.0384845 73.5092582,36.1184669 74.9122203,36.1184669 L82.5335628,36.1184669 L82.5335628,40.9425087 Z" id="Shape" fill="#0889A9"></path>
                    <rect id="Rectangle" fill-opacity="0.8" fill="#2F2F2F" x="38.1686747" y="59.7439024" width="5.20481928" height="5.19512195"></rect>
                    <rect id="Rectangle" fill-opacity="0.8" fill="#2F2F2F" x="48.5783133" y="59.7439024" width="50.313253" height="5.19512195"></rect>
                    <rect id="Rectangle" fill-opacity="0.8" fill="#2F2F2F" x="35.5662651" y="68.402439" width="65.060241" height="5.19512195"></rect>
                    <rect id="Rectangle" fill-opacity="0.8" fill="#2F2F2F" x="34.6987952" y="77.0609756" width="55.5180723" height="5.19512195"></rect>
                    <rect id="Rectangle" fill-opacity="0.8" fill="#2F2F2F" x="97.1566265" y="21.6463415" width="5.20481928" height="5.19512195"></rect>
                    <rect id="Rectangle" fill-opacity="0.8" fill="#2F2F2F" x="97.1566265" y="30.304878" width="5.20481928" height="5.19512195"></rect>
                </g>
            </g>
        </g>
    </g>
</svg>