<?xml version="1.0" encoding="UTF-8"?>
<svg width="138px" height="138px" viewBox="0 0 138 138" version="1.1" xmlns="http://www.w3.org/2000/svg" xmlns:xlink="http://www.w3.org/1999/xlink">
    <!-- Generator: sketchtool 64 (101010) - https://sketch.com -->
    <title>34FBF23A-C168-40C1-A84A-2DE8CBD90AA7</title>
    <desc>Created with sketchtool.</desc>
    <g id="Styleguide" stroke="none" stroke-width="1" fill="none" fill-rule="evenodd">
        <g id="SectionThree" transform="translate(-1169.000000, -180.000000)" fill-rule="nonzero">
            <g id="cardiogram" transform="translate(1169.000000, 180.000000)">
                <rect id="Rectangle" fill-opacity="0.8" fill="#2F2F2F" x="58" y="91" width="5" height="5"></rect>
                <path d="M75.5,30 C71.9101042,30 69,32.9101042 69,36.5 C69,40.0898958 71.9101042,43 75.5,43 C79.0898958,43 82,40.0898958 82,36.5 C82,32.9101042 79.0898958,30 75.5,30 Z M75.5,38.6666667 C74.3034583,38.6666667 73.3333333,37.6965417 73.3333333,36.5 C73.3333333,35.3034583 74.3034583,34.3333333 75.5,34.3333333 C76.6965417,34.3333333 77.6666667,35.3034583 77.6666667,36.5 C77.6666667,37.6965417 76.6965417,38.6666667 75.5,38.6666667 Z" id="Shape" fill-opacity="0.8" fill="#2F2F2F"></path>
                <path d="M135.7,4.6 L128.8,4.6 L128.8,0 L124.2,0 L124.2,13.8 L128.8,13.8 L128.8,9.2 L133.4,9.2 L133.4,20.7 C133.4,29.5918 126.1918,36.8 117.3,36.8 C108.4082,36.8 101.2,29.5918 101.2,20.7 L101.2,9.2 L105.8,9.2 L105.8,13.8 L110.4,13.8 L110.4,0 L105.8,0 L105.8,4.6 L98.9,4.6 C97.629825,4.6 96.6,5.629825 96.6,6.9 L96.6,9.2 L9.2,9.2 C4.1190125,9.2 0,13.3190125 0,18.4 L0,96.6 C0,101.680988 4.1190125,105.8 9.2,105.8 L42.2786,105.8 L33.0786,124.2 L20.7,124.2 C16.8891875,124.2 13.8,127.289187 13.8,131.1 C13.8,134.910812 16.8891875,138 20.7,138 L98.9,138 C102.710813,138 105.8,134.910812 105.8,131.1 C105.8,127.289187 102.710813,124.2 98.9,124.2 L86.5214,124.2 L77.3214,105.8 L110.4,105.8 C115.480988,105.8 119.6,101.680988 119.6,96.6 L119.6,50.4643 C130.069025,49.28325 137.985625,40.4354375 138,29.9 L138,6.9 C138,5.629825 136.970175,4.6 135.7,4.6 Z M98.9,128.8 C100.170175,128.8 101.2,129.829825 101.2,131.1 C101.2,132.370175 100.170175,133.4 98.9,133.4 L20.7,133.4 C19.429825,133.4 18.4,132.370175 18.4,131.1 C18.4,129.829825 19.429825,128.8 20.7,128.8 L98.9,128.8 Z M81.3786,124.2 L38.2214,124.2 L47.4214,105.8 L72.1786,105.8 L81.3786,124.2 Z M115,96.6 C115,99.1406375 112.940638,101.2 110.4,101.2 L9.2,101.2 C6.6593625,101.2 4.6,99.1406375 4.6,96.6 L4.6,87.4 L115,87.4 L115,96.6 Z M115,66.7 C115,69.2406375 112.940638,71.3 110.4,71.3 L82.8,71.3 C80.2593625,71.3 78.2,69.2406375 78.2,66.7 L78.2,62.1 L80.5,62.1 C81.770175,62.1 82.8,61.070175 82.8,59.8 L82.8,51.3245 C90.8339,47.5136875 94.2571625,37.9117625 90.44635,29.87815 C86.635825,21.84425 77.0339,18.4207 69,22.2315125 C60.9661,26.042325 57.5428375,35.64425 61.35365,43.6778625 C62.944675,47.032125 65.646025,49.7331875 69,51.3242125 L69,59.8 C69,61.070175 70.029825,62.1 71.3,62.1 L73.6,62.1 L73.6,66.7 C73.6,71.7809875 77.7190125,75.9 82.8,75.9 L110.4,75.9 C112.019775,75.8905125 113.607638,75.4489125 115,74.6212 L115,82.8 L4.6,82.8 L4.6,18.4 C4.6,15.8593625 6.6593625,13.8 9.2,13.8 L96.6,13.8 L96.6,29.9 C96.614375,40.4354375 104.530975,49.28325 115,50.4643 L115,66.7 Z M73.6,52.9 L78.2,52.9 L78.2,57.5 L73.6,57.5 L73.6,52.9 Z M64.4,36.8 C64.4,30.4488375 69.5488375,25.3 75.9,25.3 C82.2511625,25.3 87.4,30.4488375 87.4,36.8 C87.392525,43.148 82.248,48.292525 75.9,48.3 C69.5488375,48.3 64.4,43.1511625 64.4,36.8 Z M117.3,46 C110.164825,45.987925 103.886112,41.2875875 101.8647,34.4448 C109.403813,42.9694625 122.426125,43.768425 130.950787,36.2293125 C131.581563,35.6715625 132.17755,35.075575 132.7353,34.4448 C130.713887,41.2875875 124.435175,45.987925 117.3,46 Z" id="Shape" fill-opacity="0.8" fill="#2F2F2F"></path>
                <path d="M42.654,28.8187088 L36.333,18.1472898 C35.66975,17.0281498 34.2362083,16.6656407 33.131375,17.3374792 C32.5812917,17.6722166 32.1913333,18.2214461 32.0536667,18.8563542 L29.3843333,31.0357168 L27.2446667,23.4487279 C26.8920417,22.193093 25.6014167,21.4648248 24.362125,21.822016 C23.828375,21.9756466 23.366375,22.3171793 23.0586667,22.7845709 L19.085,28.8187088 L11,28.8187088 L11,33.5458048 L20.3333333,33.5458048 C21.11325,33.5458048 21.8418333,33.1513877 22.2746667,32.4940259 L24.1413333,29.6577684 L27.4196667,41.2864244 C27.706375,42.3021591 28.6236667,43.0017693 29.6666667,43 L29.7366667,43 C30.80475,42.9683842 31.7150417,42.2058445 31.9463333,41.1493386 L35.3436667,25.6610088 L39.3336667,32.399484 C39.7554167,33.1106165 40.5143333,33.5455093 41.3333333,33.5458048 L53,33.5458048 L53,28.8187088 L42.654,28.8187088 L42.654,28.8187088 Z" id="Path" fill="#9C64A5"></path>
                <rect id="Rectangle" fill-opacity="0.8" fill="#2F2F2F" x="19" y="51" width="5" height="5"></rect>
                <rect id="Rectangle" fill-opacity="0.8" fill="#2F2F2F" x="29" y="51" width="27" height="5"></rect>
                <rect id="Rectangle" fill-opacity="0.8" fill="#2F2F2F" x="13" y="59" width="43" height="5"></rect>
                <rect id="Rectangle" fill-opacity="0.8" fill="#2F2F2F" x="11" y="69" width="35" height="5"></rect>
                <rect id="Rectangle" fill-opacity="0.8" fill="#2F2F2F" x="10" y="0" width="37" height="5"></rect>
                <rect id="Rectangle" fill-opacity="0.8" fill="#2F2F2F" x="51" y="0" width="5" height="5"></rect>
            </g>
        </g>
    </g>
</svg>