<?xml version="1.0" standalone="no"?>
<!DOCTYPE svg PUBLIC "-//W3C//DTD SVG 1.1//EN" "http://www.w3.org/Graphics/SVG/1.1/DTD/svg11.dtd" >
<svg xmlns="http://www.w3.org/2000/svg" xmlns:xlink="http://www.w3.org/1999/xlink" version="1.1">
<metadata>
Created by FontForge 20190801 at Wed Jan 15 15:34:22 2020
 By Jimmy Wärting
Copyright 2019 The Baloo 2 Project Authors (https://github.com/EkType/Baloo2)
</metadata>
<defs>
<font id="BalooPaaji2-Bold" horiz-adv-x="0" >
  <font-face 
    font-family="Baloo Paaji 2"
    font-weight="700"
    font-stretch="normal"
    units-per-em="1000"
    panose-1="3 8 8 2 4 3 2 2 2 0"
    ascent="800"
    descent="-200"
    x-height="481"
    cap-height="616"
    bbox="-498 -592 1333 1067"
    underline-thickness="50"
    underline-position="-100"
    unicode-range="U+000D-FB04"
  />
<missing-glyph horiz-adv-x="677" 
d="M457 529h-237v-409h237v409zM84 574q0 35 20 55t55 20h359q35 0 55 -20t20 -55v-499q0 -35 -20 -55t-55 -20h-359q-35 0 -55 20t-20 55v499z" />
    <glyph glyph-name="fi" unicode="fi" horiz-adv-x="696" 
d="M204 446h170q5 -10 10.5 -25t5.5 -33q0 -32 -14.5 -46t-37.5 -14h-127v-327q-10 -3 -28 -5.5t-40 -2.5q-45 0 -65 14.5t-20 56.5v425q0 49 16.5 85t45.5 58.5t68 33.5t84 11q71 0 105.5 -18.5t34.5 -60.5q0 -19 -7.5 -33.5t-17.5 -22.5q-19 6 -40.5 10t-48.5 4
q-46 0 -70 -16.5t-24 -55.5v-38zM635 1q-10 -3 -28 -5.5t-40 -2.5q-45 0 -64.5 14.5t-19.5 56.5v411q10 3 28 6t40 3q45 0 64.5 -15t19.5 -57v-411zM474 619q0 34 23.5 58t61.5 24t61.5 -24t23.5 -58q0 -35 -23.5 -59t-61.5 -24t-61.5 24t-23.5 59z" />
    <glyph glyph-name="fl" unicode="fl" horiz-adv-x="699" 
d="M204 446h170q5 -10 10.5 -25t5.5 -33q0 -32 -14.5 -46t-37.5 -14h-127v-327q-10 -3 -28 -5.5t-40 -2.5q-45 0 -65 14.5t-20 56.5v425q0 49 16.5 85t45.5 58.5t68 33.5t84 11q71 0 105.5 -18.5t34.5 -60.5q0 -19 -7.5 -33.5t-17.5 -22.5q-19 6 -40.5 10t-48.5 4
q-46 0 -70 -16.5t-24 -55.5v-38zM568 -7q-45 0 -64.5 14.5t-19.5 56.5v587q10 3 28.5 6t40.5 3q44 0 64 -15t20 -57v-587q-11 -3 -29 -5.5t-40 -2.5z" />
    <glyph glyph-name="f_f" unicode="ff" horiz-adv-x="833" 
d="M204 446h170q5 -10 10.5 -25t5.5 -33q0 -32 -14.5 -46t-37.5 -14h-127v-327q-10 -3 -28 -5.5t-40 -2.5q-45 0 -65 14.5t-20 56.5v425q0 49 16.5 85t45.5 58.5t68 33.5t84 11q71 0 105.5 -18.5t34.5 -60.5q0 -19 -7.5 -33.5t-17.5 -22.5q-19 6 -40.5 10t-48.5 4
q-46 0 -70 -16.5t-24 -55.5v-38zM613 446h170q5 -10 10.5 -25t5.5 -33q0 -32 -14.5 -46t-37.5 -14h-127v-327q-10 -3 -28 -5.5t-40 -2.5q-45 0 -65 14.5t-20 56.5v425q0 49 16.5 85t45.5 58.5t68 33.5t84 11q71 0 105.5 -18.5t34.5 -60.5q0 -19 -7.5 -33.5t-17.5 -22.5
q-19 6 -40.5 10t-48.5 4q-46 0 -70 -16.5t-24 -55.5v-38z" />
    <glyph glyph-name="f_f_i" unicode="ffi" horiz-adv-x="1091" 
d="M204 446h170q5 -10 10.5 -25t5.5 -33q0 -32 -14.5 -46t-37.5 -14h-127v-327q-10 -3 -28 -5.5t-40 -2.5q-45 0 -65 14.5t-20 56.5v425q0 49 16.5 85t45.5 58.5t68 33.5t84 11q71 0 105.5 -18.5t34.5 -60.5q0 -19 -7.5 -33.5t-17.5 -22.5q-19 6 -40.5 10t-48.5 4
q-46 0 -70 -16.5t-24 -55.5v-38zM600 446h170q5 -10 10.5 -25t5.5 -33q0 -32 -14.5 -46t-37.5 -14h-127v-327q-10 -3 -28 -5.5t-40 -2.5q-45 0 -65 14.5t-20 56.5v425q0 49 16.5 85t45.5 58.5t68 33.5t84 11q71 0 105.5 -18.5t34.5 -60.5q0 -19 -7.5 -33.5t-17.5 -22.5
q-19 6 -40.5 10t-48.5 4q-46 0 -70 -16.5t-24 -55.5v-38zM1030 1q-10 -3 -28 -5.5t-40 -2.5q-45 0 -64.5 14.5t-19.5 56.5v411q10 3 28 6t40 3q45 0 64.5 -15t19.5 -57v-411zM869 619q0 34 23.5 58t61.5 24t61.5 -24t23.5 -58q0 -35 -23.5 -59t-61.5 -24t-61.5 24t-23.5 59z
" />
    <glyph glyph-name="f_f_l" unicode="ffl" horiz-adv-x="1110" 
d="M966 -7q-45 0 -64.5 14.5t-19.5 56.5v587q10 3 28.5 6t40.5 3q44 0 64 -15t20 -57v-587q-11 -3 -29 -5.5t-40 -2.5zM204 446h170q5 -10 10.5 -25t5.5 -33q0 -32 -14.5 -46t-37.5 -14h-127v-327q-10 -3 -28 -5.5t-40 -2.5q-45 0 -65 14.5t-20 56.5v425q0 49 16.5 85
t45.5 58.5t68 33.5t84 11q71 0 105.5 -18.5t34.5 -60.5q0 -19 -7.5 -33.5t-17.5 -22.5q-19 6 -40.5 10t-48.5 4q-46 0 -70 -16.5t-24 -55.5v-38zM600 446h170q5 -10 10.5 -25t5.5 -33q0 -32 -14.5 -46t-37.5 -14h-127v-327q-10 -3 -28 -5.5t-40 -2.5q-45 0 -65 14.5
t-20 56.5v425q0 49 16.5 85t45.5 58.5t68 33.5t84 11q71 0 105.5 -18.5t34.5 -60.5q0 -19 -7.5 -33.5t-17.5 -22.5q-19 6 -40.5 10t-48.5 4q-46 0 -70 -16.5t-24 -55.5v-38z" />
    <glyph glyph-name=".notdef" horiz-adv-x="677" 
d="M457 529h-237v-409h237v409zM84 574q0 35 20 55t55 20h359q35 0 55 -20t20 -55v-499q0 -35 -20 -55t-55 -20h-359q-35 0 -55 20t-20 55v499z" />
    <glyph glyph-name="NULL" 
 />
    <glyph glyph-name="NULL" 
 />
    <glyph glyph-name="uni000D" unicode="&#xd;" horiz-adv-x="223" 
 />
    <glyph glyph-name="space" unicode=" " horiz-adv-x="200" 
 />
    <glyph glyph-name="exclam" unicode="!" horiz-adv-x="289" 
d="M223 563q0 -24 -1 -66t-3.5 -90.5t-7 -97t-10.5 -86.5q-8 -7 -26 -10.5t-31 -3.5q-26 0 -43.5 8.5t-22.5 31.5q-4 24 -7.5 69.5t-5.5 97.5t-3.5 104t-1.5 91q18 11 40.5 16.5t45.5 5.5q36 0 56.5 -17.5t20.5 -52.5zM55 70q0 38 23.5 62.5t65.5 24.5q41 0 64.5 -24.5
t23.5 -62.5t-23.5 -62.5t-64.5 -24.5q-42 0 -65.5 24.5t-23.5 62.5z" />
    <glyph glyph-name="quotedbl" unicode="&#x22;" horiz-adv-x="383" 
d="M147 386q-11 -6 -23.5 -8t-29.5 -2q-23 0 -38.5 9.5t-17.5 32.5l-12 194q29 21 72 21q34 0 51.5 -13t17.5 -43q0 -14 -2 -38t-5 -52t-6.5 -55t-6.5 -46zM335 386q-11 -6 -23.5 -8t-29.5 -2q-23 0 -38.5 9.5t-17.5 32.5l-12 194q29 21 72 21q34 0 51.5 -13t17.5 -43
q0 -14 -1.5 -38t-4.5 -52t-6.5 -55t-7.5 -46z" />
    <glyph glyph-name="numbersign" unicode="#" horiz-adv-x="705" 
d="M550 364l-25 -114h105q5 -9 10.5 -24t5.5 -32q0 -31 -14.5 -45t-37.5 -14h-94l-30 -136q-12 -2 -22.5 -2.5t-21.5 -0.5q-33 0 -53 13.5t-20 48.5q0 17 4 38t8 39h-101l-29 -136q-12 -2 -23 -2.5t-21 -0.5q-33 0 -53 13.5t-20 48.5q0 17 4 38t8 39h-82q-6 9 -11 24t-5 32
q0 31 14.5 45t38.5 14h70l24 114h-103q-6 9 -11 24t-5 32q0 32 14.5 45.5t37.5 13.5h92l30 135q13 2 24.5 2h20.5q32 0 52.5 -12.5t20.5 -47.5q0 -18 -4 -38t-9 -39h101l30 135q12 2 23.5 2h20.5q33 0 53.5 -12.5t20.5 -47.5q0 -18 -4 -38t-9 -39h83q5 -9 10.5 -24t5.5 -32
q0 -31 -14.5 -45t-38.5 -14h-71zM289 250h102l24 114h-101z" />
    <glyph glyph-name="dollar" unicode="$" horiz-adv-x="557" 
d="M255 111q53 0 75.5 18.5t22.5 44.5q0 24 -17.5 38.5t-52.5 25.5l-51 16q-42 13 -76 28.5t-58 37t-37.5 51t-13.5 71.5q0 68 42 113t120 61v79q9 3 25 5.5t35 2.5q39 0 57 -13.5t18 -50.5v-18q63 -8 102 -31t39 -63q0 -23 -11.5 -40.5t-26.5 -29.5q-23 16 -61 27t-83 11
q-48 0 -71 -15t-23 -38q0 -20 15 -30.5t47 -21.5l54 -18q47 -16 82.5 -34.5t59.5 -42t36 -54t12 -69.5q0 -69 -43 -116.5t-128 -64.5v-78q-8 -2 -24.5 -4.5t-35.5 -2.5q-39 0 -57 13.5t-18 50.5v16q-72 8 -117.5 35t-45.5 72q0 27 15.5 45t34.5 29q27 -22 67.5 -39t91.5 -17
z" />
    <glyph glyph-name="percent" unicode="%" horiz-adv-x="794" 
d="M348 461q0 -36 -11.5 -65t-32.5 -49.5t-50 -31t-63 -10.5q-69 0 -113 41.5t-44 114.5q0 72 44 113.5t113 41.5q34 0 63 -10.5t50 -31t32.5 -49t11.5 -64.5zM145 461q0 -32 13 -47.5t33 -15.5t32.5 15.5t12.5 47.5t-12.5 47t-32.5 15t-33 -15t-13 -47zM544 617
q32 -5 57 -17t25 -34q0 -15 -7.5 -30.5t-19.5 -32.5l-350 -510q-35 3 -58 16.5t-23 34.5q0 14 7 29t19 32zM760 148q0 -36 -11.5 -65t-32.5 -49.5t-50 -31t-63 -10.5q-69 0 -113 41.5t-44 114.5q0 72 44 113.5t113 41.5q34 0 63 -10.5t50 -31t32.5 -49t11.5 -64.5zM557 148
q0 -32 13 -48t33 -16t33 16t13 48q0 31 -13 46.5t-33 15.5t-33 -15.5t-13 -46.5z" />
    <glyph glyph-name="ampersand" unicode="&#x26;" horiz-adv-x="666" 
d="M566 -14q-20 0 -36.5 8.5t-34.5 26.5l-25 25q-40 -33 -91 -47.5t-100 -14.5q-57 0 -102 15t-75.5 42t-46.5 64t-16 80q0 35 10.5 64t28 51.5t41 39t49.5 27.5q-27 33 -34.5 58t-7.5 48q0 31 12 58.5t35 47.5t56.5 32t77.5 12q62 0 88 -21.5t26 -53.5q0 -15 -6.5 -30.5
t-18.5 -26.5q-12 5 -28 9t-33 4q-29 0 -46.5 -13t-17.5 -38q0 -18 12 -34t36 -39l139 -137q8 30 11 64.5t3 65.5q32 14 63 14q42 0 56 -23.5t14 -60.5q0 -38 -10 -79.5t-33 -82.5l79 -77q-2 -35 -23.5 -56.5t-51.5 -21.5zM287 102q17 0 43.5 6t52.5 25l-141 143
q-25 -10 -41.5 -31.5t-16.5 -50.5q0 -39 26 -65.5t77 -26.5z" />
    <glyph glyph-name="quotesingle" unicode="'" horiz-adv-x="204" 
d="M156 389q-10 -5 -25 -9t-33 -4q-25 0 -41.5 11t-18.5 34l-12 188q14 10 33 17t44 7q34 0 53 -14t19 -45q0 -14 -1.5 -37.5t-4.5 -49.5t-6.5 -52.5t-6.5 -45.5z" />
    <glyph glyph-name="parenleft" unicode="(" horiz-adv-x="295" 
d="M219 -132q-35 0 -60 22.5t-43 54.5q-32 56 -52 136.5t-20 186.5t21 186.5t51 134.5q17 32 42.5 54.5t60.5 22.5q25 0 43.5 -13.5t29.5 -29.5q-50 -73 -76 -157t-26 -198q0 -57 6.5 -106t19.5 -92.5t32 -82.5t44 -76q-11 -16 -29.5 -29.5t-43.5 -13.5z" />
    <glyph glyph-name="parenright" unicode=")" horiz-adv-x="295" 
d="M77 -132q-25 0 -43.5 13.5t-29.5 29.5q25 37 44 76t32 82.5t19.5 92.5t6.5 106t-6.5 106t-19.5 92t-32 82t-44 75q11 16 29.5 29.5t43.5 13.5q35 0 60.5 -22.5t42.5 -54.5q30 -54 51 -134.5t21 -186.5t-20 -187t-52 -136q-18 -32 -43 -54.5t-60 -22.5z" />
    <glyph glyph-name="asterisk" unicode="*" horiz-adv-x="341" 
d="M70 572q12 0 31 -7l22 -9v76q7 5 19.5 11t29.5 6q21 0 34 -10.5t13 -33.5q0 -5 -0.5 -19.5t-1.5 -31.5l62 28q15 -7 26.5 -20.5t11.5 -33.5q0 -22 -11.5 -30.5t-31.5 -16.5l-26 -11l50 -68q-6 -20 -21 -33.5t-36 -13.5q-22 0 -33 12.5t-22 29.5l-13 21l-41 -60
q-11 -3 -21 -3q-30 0 -45.5 12.5t-15.5 32.5q0 11 5 21.5t15 22.5l21 26l-66 19q-5 18 -5 34q0 23 13 36t37 13z" />
    <glyph glyph-name="plus" unicode="+" horiz-adv-x="546" 
d="M344 351h152q6 -9 11 -25.5t5 -34.5q0 -33 -15.5 -47t-40.5 -14h-112v-176q-10 -3 -28.5 -5.5t-35.5 -2.5q-37 0 -56 12.5t-19 52.5v119h-156q-6 10 -10.5 25t-4.5 33q0 33 15.5 48t40.5 15h115v173q10 2 28 5.5t36 3.5q35 0 55 -13t20 -53v-116z" />
    <glyph glyph-name="comma" unicode="," horiz-adv-x="224" 
d="M134 -77q-29 -39 -76 -39q-39 0 -67 23q10 28 19 59.5t16.5 62.5t14 60.5t11.5 54.5q15 8 36 14t43 6q29 0 49.5 -13t20.5 -46q0 -20 -6 -45t-16 -50.5t-21.5 -48.5t-23.5 -38z" />
    <glyph glyph-name="hyphen" unicode="-" horiz-adv-x="361" 
d="M51 194q-6 10 -11 26t-5 34q0 33 15 48t41 15h218q5 -9 11 -25.5t6 -34.5q0 -33 -15.5 -48t-40.5 -15h-219z" />
    <glyph glyph-name="period" unicode="." horiz-adv-x="220" 
d="M21 74q0 38 23.5 64t65.5 26q41 0 65 -26t24 -64t-24 -64t-65 -26q-42 0 -65.5 26t-23.5 64z" />
    <glyph glyph-name="slash" unicode="/" horiz-adv-x="336" 
d="M131 -106q-26 -3 -46 -3q-37 0 -57.5 16.5t-20.5 52.5q0 24 7.5 49t12.5 44l177 652q14 2 25.5 2.5t21.5 0.5q36 0 57 -15t21 -50q0 -26 -7 -50t-13 -47z" />
    <glyph glyph-name="zero" unicode="0" horiz-adv-x="602" 
d="M409 304q0 97 -29.5 146.5t-79.5 49.5t-78.5 -49.5t-28.5 -146.5q0 -100 27.5 -148.5t79.5 -48.5t80.5 48.5t28.5 148.5zM301 -15q-58 0 -106.5 20t-83 60t-53.5 99.5t-19 139.5q0 79 19.5 138.5t54.5 99.5t83 60t105 20q56 0 104 -20t83 -60t55 -99.5t20 -138.5
q0 -80 -19.5 -139.5t-54 -99.5t-83 -60t-105.5 -20z" />
    <glyph glyph-name="one" unicode="1" horiz-adv-x="386" 
d="M53 425q-14 9 -28 25.5t-14 45.5q0 54 66 77l117 42h34q38 0 61 -23t23 -61v-530q-11 -3 -29 -6t-40 -3q-45 0 -65 15t-20 57v398z" />
    <glyph glyph-name="two" unicode="2" horiz-adv-x="519" 
d="M59 525q0 47 49.5 72t129.5 25q57 0 101 -14t73 -38.5t44 -58t15 -72.5q0 -54 -29.5 -104t-92.5 -102l-137 -114h251q5 -9 10 -25t5 -33q0 -32 -14 -46.5t-38 -14.5h-349q-41 28 -41 84q0 30 12.5 51.5t28.5 35.5l146 128q53 46 73 75.5t20 55.5q0 32 -24 50.5t-69 18.5
q-42 0 -73.5 -12.5t-53.5 -27.5q-15 11 -26 27t-11 39z" />
    <glyph glyph-name="three" unicode="3" horiz-adv-x="516" 
d="M230 623q111 0 171 -46.5t60 -127.5q0 -51 -27 -84.5t-61 -47.5q20 -7 38.5 -19t33 -30t23 -43t8.5 -57q0 -43 -18 -77t-50.5 -57.5t-77 -36t-98.5 -12.5q-100 0 -153 28t-53 70q0 25 12.5 42.5t29.5 28.5q20 -15 54.5 -31t90.5 -16q54 0 81.5 20t27.5 55q0 32 -23 50.5
t-76 18.5h-92q-6 10 -10.5 24.5t-4.5 34.5q0 21 4 36t11 25h91q44 0 64 16.5t20 46.5t-25.5 48t-74.5 18q-42 0 -74 -10.5t-53 -24.5q-15 11 -25.5 27t-10.5 38q0 46 51.5 69.5t135.5 23.5z" />
    <glyph glyph-name="four" unicode="4" horiz-adv-x="592" 
d="M290 603q17 5 39.5 8.5t39.5 3.5q21 0 40.5 -4t34.5 -13.5t24 -26t9 -41.5v-282h82q6 -9 11.5 -25.5t5.5 -34.5q0 -34 -15.5 -48.5t-39.5 -14.5h-44v-125q-10 -2 -29.5 -5t-38.5 -3q-39 0 -60.5 11t-21.5 53v69h-247q-20 11 -35 32t-15 52q0 17 4 37t15 35zM335 460h-3
l-142 -212h145v212z" />
    <glyph glyph-name="five" unicode="5" horiz-adv-x="525" 
d="M451 608q6 -10 11 -25t5 -35q0 -32 -14.5 -48t-39.5 -16h-205l-8 -110q18 6 39.5 10.5t52.5 4.5q51 0 89 -15t64 -41t39 -62.5t13 -78.5t-14.5 -79.5t-44.5 -66t-76.5 -45t-109.5 -16.5q-45 0 -82.5 7t-64.5 20.5t-41.5 33t-14.5 43.5q0 26 15 43.5t33 27.5
q27 -21 60.5 -37t84.5 -16t75.5 24t24.5 60q0 35 -22.5 57t-69.5 22q-29 0 -49 -7.5t-43 -18.5q-45 2 -71 25t-26 68v9t1 19l13 159q3 39 24.5 61.5t59.5 22.5h292v0z" />
    <glyph glyph-name="six" unicode="6" horiz-adv-x="556" 
d="M478 539q0 -20 -9 -37.5t-22 -26.5q-26 12 -55 19t-55 7q-63 0 -100 -36.5t-46 -106.5q20 15 54.5 28.5t74.5 13.5q91 0 146 -52t55 -151q0 -44 -15 -82.5t-44.5 -67.5t-73 -45.5t-100.5 -16.5q-115 0 -182 76.5t-67 225.5q0 85 21 148.5t58.5 104.5t89 61.5t111.5 20.5
q75 0 117 -20.5t42 -62.5zM289 107q38 0 58 24t20 65q0 42 -21 64t-58 22q-26 0 -51.5 -11t-39.5 -28v-19q0 -60 26 -88.5t66 -28.5z" />
    <glyph glyph-name="seven" unicode="7" horiz-adv-x="477" 
d="M426 608q15 -11 27.5 -28.5t12.5 -43.5q0 -31 -13 -60l-216 -482q-13 -1 -23.5 -1h-21.5q-41 0 -66 15.5t-25 52.5q0 20 9 41.5t24 52.5l162 329h-259q-5 10 -10.5 26t-5.5 34q0 34 15 49t39 15h351z" />
    <glyph glyph-name="eight" unicode="8" horiz-adv-x="562" 
d="M36 167q0 57 29.5 94.5t71.5 57.5q-41 20 -63 52.5t-22 78.5q0 40 16.5 72.5t47 55t73 34.5t93.5 12q109 0 171 -46t62 -127q0 -51 -25.5 -83.5t-64.5 -50.5q21 -9 40 -22t33.5 -31.5t23 -43t8.5 -55.5q0 -42 -18 -76t-50.5 -57.5t-78 -36t-101.5 -12.5q-55 0 -100 12.5
t-77.5 36.5t-50.5 58t-18 77zM377 175q0 34 -27 57.5t-78 33.5q-42 -13 -62.5 -37t-20.5 -54q0 -36 25.5 -56t67.5 -20q43 0 69 19t26 57zM203 443q0 -35 24 -53t62 -25q36 11 55.5 30t19.5 48q0 31 -21.5 48t-60.5 17q-36 0 -57.5 -18t-21.5 -47z" />
    <glyph glyph-name="nine" unicode="9" horiz-adv-x="557" 
d="M71 68q0 20 9.5 38t21.5 27q26 -12 55 -19.5t58 -7.5q68 0 109 38t41 107q-19 -16 -50.5 -27.5t-72.5 -11.5q-45 0 -82.5 12t-65 37t-43 62t-15.5 87q0 44 15.5 82.5t45 67.5t72.5 45.5t99 16.5q116 0 183 -77t67 -225q0 -85 -20.5 -148t-57.5 -104.5t-88.5 -62
t-113.5 -20.5q-76 0 -121.5 20.5t-45.5 62.5zM276 328q25 0 48 11.5t36 28.5v8q0 60 -23.5 92t-68.5 32q-38 0 -59 -23t-21 -63q0 -42 25 -64t63 -22z" />
    <glyph glyph-name="colon" unicode=":" horiz-adv-x="245" 
d="M38 394q0 38 24 64t65 26q42 0 65.5 -26t23.5 -64t-23.5 -63.5t-65.5 -25.5q-41 0 -65 25.5t-24 63.5zM34 74q0 38 23.5 64t64.5 26q42 0 65.5 -26t23.5 -64t-23.5 -64t-65.5 -26q-41 0 -64.5 26t-23.5 64z" />
    <glyph glyph-name="semicolon" unicode=";" horiz-adv-x="254" 
d="M40 394q0 38 23.5 64t64.5 26q42 0 65.5 -26t23.5 -64t-23.5 -63.5t-65.5 -25.5q-41 0 -64.5 25.5t-23.5 63.5zM149 -77q-29 -39 -76 -39q-39 0 -67 23q10 28 19 59.5t16.5 62.5t14 60.5t11.5 54.5q15 8 36 14t43 6q29 0 49.5 -13t20.5 -46q0 -20 -6 -45t-16 -50.5
t-21.5 -48.5t-23.5 -38z" />
    <glyph glyph-name="less" unicode="&#x3c;" horiz-adv-x="487" 
d="M454 152q2 -6 2 -13.5v-13.5q0 -32 -15.5 -55.5t-53.5 -23.5q-19 0 -37 7.5t-44 21.5l-248 128q-23 31 -23 79q0 37 10.5 57.5t30.5 31.5l306 154q42 -11 58 -31.5t16 -43.5q0 -32 -16 -49t-47 -34l-213 -87z" />
    <glyph glyph-name="equal" unicode="=" horiz-adv-x="511" 
d="M51 339q-6 10 -10.5 24.5t-4.5 32.5q0 33 15 48.5t41 15.5h368q5 -10 10 -26t5 -35q0 -32 -15.5 -46t-40.5 -14h-368zM51 131q-6 10 -10.5 24.5t-4.5 33.5q0 33 15 48t41 15h368q5 -10 10 -26t5 -34q0 -33 -15.5 -47t-40.5 -14h-368z" />
    <glyph glyph-name="greater" unicode="&#x3e;" horiz-adv-x="485" 
d="M33 416q-2 6 -2.5 13.5t-0.5 13.5q0 32 15.5 55.5t54.5 23.5q18 0 38 -8.5t43 -19.5l246 -127q11 -14 17 -35t6 -44q0 -37 -11 -58t-30 -31l-300 -154q-44 11 -59.5 31.5t-15.5 43.5q0 32 16 49.5t47 33.5l208 88z" />
    <glyph glyph-name="question" unicode="?" horiz-adv-x="491" 
d="M132 208q-16 11 -29 31t-13 49q0 28 15 41.5t45 21.5l76 19q34 11 50 26t16 44q0 25 -21.5 45t-71.5 20q-41 0 -77.5 -10.5t-59.5 -26.5q-16 12 -26.5 29t-10.5 40q0 24 14.5 42.5t40 30.5t61.5 18t78 6q57 0 101 -14.5t74 -40t45.5 -61.5t15.5 -78q0 -87 -55.5 -137.5
t-167.5 -73.5zM103 71q0 38 23.5 62.5t65.5 24.5q41 0 64.5 -24.5t23.5 -62.5t-23.5 -62.5t-64.5 -24.5q-42 0 -65.5 24.5t-23.5 62.5z" />
    <glyph glyph-name="at" unicode="@" horiz-adv-x="1056" 
d="M731 119q6 -2 15 -4.5t17 -2.5q49 0 76.5 45.5t27.5 117.5q0 60 -23 109.5t-64.5 85.5t-99.5 55.5t-127 19.5q-80 0 -145.5 -25.5t-112.5 -71t-73 -108t-26 -136.5q0 -71 23 -128.5t64 -98t97.5 -62t124.5 -21.5q43 0 72.5 4t49.5 8q7 -11 12 -25t5 -27q0 -19 -7 -33.5
t-24 -25t-46 -16t-73 -5.5q-81 0 -160.5 25t-142.5 77.5t-102 133.5t-39 194q0 105 38 190t105.5 144t159.5 91t199 32q102 0 186.5 -27.5t145 -78t94 -122t33.5 -159.5q0 -134 -64 -206.5t-184 -72.5q-30 0 -65 9t-64 27q-23 -14 -54 -22.5t-69 -8.5q-45 0 -82 13t-64 38.5
t-41.5 62.5t-14.5 84q0 54 18 98.5t50.5 76.5t78 49.5t101.5 17.5q54 0 92.5 -13.5t65.5 -30.5q19 -12 29.5 -28.5t10.5 -34.5q0 -6 -0.5 -11.5t-1.5 -10.5zM461 198q0 -45 22 -63.5t53 -18.5q33 0 57 18l17 174q-10 5 -22.5 8t-32.5 3q-40 0 -67 -31t-27 -90z" />
    <glyph glyph-name="A" unicode="A" horiz-adv-x="620" 
d="M407 133h-196q-11 -36 -20.5 -71t-16.5 -62q-13 -4 -27 -7t-34 -3q-44 0 -66.5 15.5t-22.5 44.5q0 14 4 27t9 30q7 27 20 67t28.5 86.5t32.5 95.5t33 93.5t29 81.5t22 59q15 9 46.5 17t62.5 8q45 0 79.5 -12.5t44.5 -41.5q19 -53 41 -123t44.5 -144t43.5 -146t37 -129
q-11 -13 -32.5 -21t-51.5 -8q-43 0 -60.5 15t-25.5 47zM310 475q-14 -45 -34.5 -102.5t-38.5 -117.5h143q-17 63 -34.5 120.5t-29.5 99.5h-6z" />
    <glyph glyph-name="B" unicode="B" horiz-adv-x="615" 
d="M555 449q0 -45 -24.5 -77.5t-70.5 -50.5q58 -19 87 -56t29 -89q0 -97 -71.5 -144t-206.5 -47q-18 0 -40.5 1t-46 3.5t-47 7t-42.5 11.5q-52 19 -52 68v476q0 20 10.5 31t30.5 17q33 11 82 16.5t101 5.5q125 0 193 -42.5t68 -130.5zM416 183q0 71 -91 71h-103v-140
q16 -4 40 -6t46 -2q48 0 78 18.5t30 58.5zM222 365h93q39 0 61 18t22 53q0 32 -25.5 49.5t-76.5 17.5q-19 0 -40 -1.5t-34 -3.5v-133z" />
    <glyph glyph-name="C" unicode="C" horiz-adv-x="574" 
d="M539 522q0 -23 -12 -40.5t-28 -27.5q-26 17 -56.5 30t-72.5 13q-80 0 -125 -50.5t-45 -143.5q0 -96 47.5 -144.5t130.5 -48.5q43 0 73.5 11.5t56.5 27.5q15 -12 24.5 -30.5t9.5 -41.5q0 -20 -10.5 -37.5t-36.5 -29.5q-20 -10 -54 -18.5t-84 -8.5q-67 0 -125 19t-101 58
t-67.5 99.5t-24.5 143.5q0 78 24.5 138t66.5 100.5t98 61.5t120 21q91 0 141 -29t50 -73z" />
    <glyph glyph-name="D" unicode="D" horiz-adv-x="663" 
d="M463 303q0 97 -47.5 144.5t-123.5 47.5q-18 0 -34 -1t-32 -4v-372q13 -3 31.5 -4.5t35.5 -1.5q78 0 124 47.5t46 143.5zM625 305q0 -80 -24 -140t-67.5 -100t-105 -60t-136.5 -20q-17 0 -38.5 1t-44 3.5t-45.5 7t-42 11.5q-52 19 -52 68v476q0 20 10.5 31t30.5 18
q41 13 87 17t84 4q77 0 140 -19t108 -58.5t70 -99t25 -140.5z" />
    <glyph glyph-name="E" unicode="E" horiz-adv-x="545" 
d="M153 -2q-38 0 -60.5 22.5t-22.5 60.5v442q0 38 22.5 60.5t60.5 22.5h331q6 -10 11 -25t5 -34q0 -33 -14.5 -49t-40.5 -16h-222v-112h232q6 -10 11 -25t5 -34q0 -33 -14 -48.5t-40 -15.5h-194v-125h265q6 -10 11 -26t5 -35q0 -33 -14.5 -48t-39.5 -15h-297v0z" />
    <glyph glyph-name="F" unicode="F" horiz-adv-x="528" 
d="M486 606q6 -10 11 -26t5 -35q0 -33 -14.5 -49t-40.5 -16h-222v-131h227q6 -11 11.5 -26t5.5 -35q0 -33 -15 -48.5t-40 -15.5h-187v-223q-11 -3 -31 -5.5t-42 -2.5q-47 0 -65.5 16t-18.5 58v456q0 38 22.5 60.5t60.5 22.5h333z" />
    <glyph glyph-name="G" unicode="G" horiz-adv-x="659" 
d="M606 92q0 -29 -11 -43t-35 -28q-14 -8 -34 -15t-44.5 -12t-51 -8t-52.5 -3q-72 0 -133.5 18.5t-107.5 57.5t-72 99t-26 144q0 79 26.5 139.5t72 101t107 61t132.5 20.5q93 0 148 -29t55 -74q0 -23 -12 -40.5t-28 -27.5q-25 16 -62.5 30t-88.5 14q-42 0 -76.5 -13.5
t-59.5 -38.5t-39 -61t-14 -81q0 -49 13.5 -85.5t37.5 -60.5t57.5 -36t72.5 -12q24 0 43.5 5t30.5 10v113h-115q-6 10 -11 26t-5 34q0 32 15 47t39 15h168q28 0 44 -15.5t16 -43.5v-208z" />
    <glyph glyph-name="H" unicode="H" horiz-adv-x="669" 
d="M227 1q-11 -3 -31 -5.5t-42 -2.5q-47 0 -65.5 16t-18.5 58v541q11 2 31.5 5t40.5 3q45 0 65 -15t20 -59v-176h215v242q11 2 31.5 5t41.5 3q44 0 64 -16t20 -60v-539q-11 -3 -31 -5.5t-42 -2.5q-47 0 -65.5 16t-18.5 58v175h-215v-241v0z" />
    <glyph glyph-name="I" unicode="I" horiz-adv-x="297" 
d="M154 -7q-47 0 -65.5 16t-18.5 58v541q11 2 31.5 5t41.5 3q45 0 64.5 -15t19.5 -59v-541q-11 -3 -31 -5.5t-42 -2.5z" />
    <glyph glyph-name="J" unicode="J" horiz-adv-x="407" 
d="M340 174q0 -90 -50.5 -139t-143.5 -49q-54 0 -89 18t-35 63q0 19 5.5 33t12.5 22q18 -4 33.5 -6.5t32.5 -2.5q77 0 77 80v415q11 2 31.5 5t40.5 3q45 0 65 -15t20 -59v-368v0z" />
    <glyph glyph-name="K" unicode="K" horiz-adv-x="606" 
d="M227 1q-11 -3 -31 -6t-42 -3q-47 0 -65.5 16.5t-18.5 58.5v541q11 2 31.5 5t40.5 3q45 0 65 -15t20 -59v-180l221 250q60 0 86 -22.5t26 -54.5q0 -24 -11.5 -44.5t-37.5 -46.5l-142 -142q69 -75 124.5 -134t91.5 -95q-1 -39 -26.5 -61t-59.5 -22q-37 0 -60.5 18.5
t-45.5 43.5l-166 188v-239v0z" />
    <glyph glyph-name="L" unicode="L" horiz-adv-x="511" 
d="M153 -2q-38 0 -60.5 22.5t-22.5 60.5v527q11 2 31.5 5t40.5 3q45 0 65 -15t20 -59v-417h240q6 -10 11.5 -26t5.5 -35q0 -33 -14.5 -49.5t-39.5 -16.5h-277v0z" />
    <glyph glyph-name="M" unicode="M" horiz-adv-x="794" 
d="M475 151q-12 -10 -31 -16t-43 -6q-32 0 -53.5 8t-28.5 28q-32 93 -54.5 154.5t-35.5 106.5h-4q-3 -62 -5 -113.5t-3.5 -100.5t-3.5 -99t-5 -110q-11 -4 -29.5 -7.5t-38.5 -3.5q-39 0 -61 13.5t-22 46.5q0 19 1.5 52.5t4 77t6 93.5t7 101.5t6.5 102t6 93.5q8 11 32.5 24.5
t68.5 13.5q47 0 74 -15t41 -49q11 -27 23 -60.5t24 -68.5t23.5 -69.5t21.5 -63.5h5q28 88 56 170.5t49 138.5q14 7 35.5 12t47.5 5q45 0 72 -13t32 -38q4 -20 9 -61t10 -94t10 -111.5t9 -113t7 -99.5t4 -70q-15 -9 -32 -13.5t-43 -4.5q-33 0 -56.5 12t-25.5 47
q-7 116 -9.5 212.5t-5.5 158.5h-5q-12 -42 -34.5 -106t-55.5 -165z" />
    <glyph glyph-name="N" unicode="N" horiz-adv-x="675" 
d="M606 19q-14 -12 -38 -19.5t-57 -7.5q-34 0 -64 11t-50 50l-116 224q-17 32 -31.5 64t-28.5 67l-7 -2q5 -60 6 -114.5t1 -105.5v-186q-10 -2 -29.5 -4.5t-40.5 -2.5q-45 0 -63 15.5t-18 55.5v515q12 17 38.5 26.5t56.5 9.5q35 0 64.5 -11t49.5 -49l117 -225
q17 -32 31.5 -64t28.5 -67l4 1q-5 67 -5.5 127t-0.5 115v166q10 2 29.5 5t41.5 3q45 0 63 -15.5t18 -55.5v-526v0z" />
    <glyph glyph-name="O" unicode="O" horiz-adv-x="700" 
d="M662 304q0 -78 -23.5 -138t-65.5 -100.5t-99 -61.5t-124 -21t-124 21t-98.5 61.5t-65 100.5t-23.5 138t24 137.5t66 100t98.5 61.5t122.5 21t123 -21t99 -61.5t66 -100t24 -137.5zM500 304q0 96 -40.5 144.5t-109.5 48.5q-68 0 -109 -48.5t-41 -144.5q0 -97 40.5 -145.5
t109.5 -48.5t109.5 48.5t40.5 145.5z" />
    <glyph glyph-name="P" unicode="P" horiz-adv-x="578" 
d="M227 194v-193q-11 -3 -31 -5.5t-42 -2.5q-47 0 -65.5 16t-18.5 58v485q0 20 10.5 31t30.5 17q16 6 36.5 10t42 7t43 4t40.5 1q136 0 206 -57.5t70 -157.5q0 -48 -17.5 -87.5t-50.5 -67.5t-80.5 -43t-107.5 -15h-66zM283 317q49 0 78 22.5t29 67.5q0 89 -106 89
q-18 0 -31.5 -1t-26.5 -3v-175h57z" />
    <glyph glyph-name="Q" unicode="Q" horiz-adv-x="702" 
d="M662 305q0 -103 -39.5 -173t-106.5 -108q48 -22 93.5 -37.5t85.5 -29.5q1 -6 1 -10.5v-8.5q0 -50 -25.5 -73t-69.5 -23q-43 0 -92.5 25.5t-103.5 73.5l-50 44h-5q-67 0 -124 20.5t-98.5 61t-65 100.5t-23.5 138t24 137.5t66 100t98.5 61t122.5 20.5t123 -20.5t99 -61
t66 -100t24 -137.5zM500 305q0 95 -40.5 143.5t-109.5 48.5q-68 0 -109 -48t-41 -144q0 -97 40.5 -145t109.5 -48t109.5 48t40.5 145z" />
    <glyph glyph-name="R" unicode="R" horiz-adv-x="605" 
d="M554 411q0 -58 -30.5 -104t-82.5 -73q41 -54 78.5 -101.5t55.5 -76.5q-9 -32 -33.5 -48.5t-53.5 -16.5q-38 0 -58 16.5t-38 45.5l-96 149h-69v-201q-11 -3 -31 -5.5t-42 -2.5q-47 0 -65.5 16t-18.5 58v485q0 20 10.5 31t30.5 17q32 12 77 17t94 5q136 0 204 -56.5
t68 -154.5zM287 323q48 0 78 21.5t30 65.5q0 86 -115 86q-16 0 -29 -1.5t-26 -3.5v-168h62z" />
    <glyph glyph-name="S" unicode="S" horiz-adv-x="546" 
d="M252 111q53 0 75.5 18.5t22.5 44.5q0 24 -17.5 38.5t-52.5 25.5l-51 16q-42 13 -76 28.5t-58 37t-37.5 51t-13.5 71.5q0 84 63.5 133t176.5 49q43 0 79.5 -6t62.5 -18.5t41 -30.5t15 -42q0 -23 -11.5 -40.5t-26.5 -29.5q-23 16 -61 27t-83 11q-48 0 -71 -15t-23 -38
q0 -20 15 -30.5t47 -21.5l54 -18q47 -16 82.5 -34.5t59.5 -42t36 -54t12 -69.5q0 -42 -16.5 -76.5t-49 -59.5t-80 -39t-109.5 -14q-46 0 -85 7.5t-67.5 21.5t-45 34.5t-16.5 46.5q0 27 15.5 45t34.5 29q27 -22 67.5 -39t91.5 -17z" />
    <glyph glyph-name="T" unicode="T" horiz-adv-x="550" 
d="M351 480v-479q-11 -3 -31 -5.5t-42 -2.5q-47 0 -66 16t-19 58v413h-157q-6 10 -11.5 26t-5.5 35q0 34 15 49.5t41 15.5h437q7 -10 12 -26t5 -35q0 -33 -15 -49t-41 -16h-122z" />
    <glyph glyph-name="U" unicode="U" horiz-adv-x="661" 
d="M330 -17q-62 0 -110.5 17t-82.5 48t-52 74.5t-18 97.5v388q11 2 31.5 5t41.5 3q45 0 64.5 -15t19.5 -59v-319q0 -54 29.5 -83.5t76.5 -29.5q48 0 77.5 29.5t29.5 83.5v385q11 2 31.5 5t41.5 3q45 0 64.5 -15t19.5 -59v-322q0 -54 -18 -97.5t-52 -74.5t-83 -48t-111 -17z
" />
    <glyph glyph-name="V" unicode="V" horiz-adv-x="624" 
d="M413 18q-13 -11 -39.5 -19t-57.5 -8q-38 0 -65 11t-37 31q-12 24 -28 61.5t-33.5 83t-36.5 97.5t-36.5 104.5t-33 103t-26.5 93.5q13 12 36.5 23t50.5 11q33 0 53.5 -14.5t31.5 -51.5q30 -104 60 -200t64 -198h6q30 97 62 214t60 232q16 8 34 13t41 5q33 0 56.5 -15
t23.5 -49q0 -21 -10.5 -63t-27.5 -95t-38 -111t-41.5 -110t-39 -92t-29.5 -57z" />
    <glyph glyph-name="W" unicode="W" horiz-adv-x="852" 
d="M348 458q11 5 31.5 10.5t43.5 5.5q38 0 63 -11t31 -33q12 -44 23 -81.5t21 -72.5t19.5 -69t18.5 -71h5q10 62 18 119.5t15.5 113t14.5 110.5t14 113q32 19 71 19q33 0 57 -14.5t24 -48.5q0 -21 -4.5 -61.5t-12.5 -91t-18.5 -105.5t-22 -106.5t-23.5 -94t-23 -67.5
q-14 -12 -44 -20.5t-62 -8.5q-42 0 -71.5 11.5t-36.5 32.5q-14 42 -32.5 105.5t-38.5 136.5q-8 -36 -17 -72t-18 -70t-17.5 -63.5t-15.5 -52.5q-14 -11 -40.5 -19.5t-59.5 -8.5q-40 0 -72.5 12t-42.5 32q-9 19 -19.5 55t-22 82.5t-23 100t-22 107t-18.5 104.5t-13 93
q13 11 35 21.5t49 10.5q34 0 55.5 -15.5t27.5 -50.5q16 -94 26.5 -160t18 -113t13 -79t10.5 -57h5q10 41 19 76t18.5 71.5t20 78t22.5 96.5z" />
    <glyph glyph-name="X" unicode="X" horiz-adv-x="599" 
d="M295 199l-137 -205q-7 -1 -14 -1.5t-14 -0.5q-50 0 -74 20.5t-24 51.5q0 26 11.5 45.5t31.5 45.5l119 152l-166 233q4 13 12.5 25.5t20.5 23t28 17t36 6.5q26 0 46 -13.5t41 -44.5l91 -138l128 188q8 2 19.5 4.5t25.5 2.5q40 0 63 -20t23 -49q0 -24 -13 -44t-35 -47
q-29 -36 -57 -72t-57 -72l173 -243q-7 -33 -31 -52.5t-63 -19.5q-26 0 -45.5 13t-39.5 45z" />
    <glyph glyph-name="Y" unicode="Y" horiz-adv-x="569" 
d="M555 544q0 -12 -8.5 -34t-29.5 -61t-56.5 -99t-89.5 -147v-202q-11 -3 -30.5 -5.5t-40.5 -2.5q-47 0 -65 16t-18 56v139q-26 38 -56 85.5t-59 96t-54 95.5t-40 84q11 17 31.5 31t50.5 14q35 0 57 -14.5t42 -54.5q2 -3 10 -18.5t18.5 -36t22.5 -44.5t22.5 -44.5
t18.5 -35.5t10 -18h5q16 33 29.5 63t26.5 59.5t26.5 60t28.5 66.5q16 8 35.5 12.5t36.5 4.5q32 0 54 -17t22 -49z" />
    <glyph glyph-name="Z" unicode="Z" horiz-adv-x="559" 
d="M328 480h-265q-7 11 -12 26.5t-5 35.5q0 35 15 51t42 16h377q39 -33 39 -85q0 -23 -10 -45t-27 -42l-250 -308h277q6 -11 11.5 -27t5.5 -36q0 -35 -15 -50.5t-41 -15.5h-398q-15 13 -25 34t-10 49q0 23 11.5 46t28.5 43z" />
    <glyph glyph-name="bracketleft" unicode="[" horiz-adv-x="296" 
d="M275 657q6 -9 10.5 -24t4.5 -31q0 -32 -14 -45.5t-37 -13.5h-47v-556h83q6 -9 10.5 -23.5t4.5 -31.5q0 -31 -14 -45t-37 -14h-119q-36 0 -53 20.5t-17 48.5v646q0 28 17 48.5t53 20.5h155z" />
    <glyph glyph-name="backslash" unicode="\" horiz-adv-x="356" 
d="M337 -25q-13 -14 -35.5 -23.5t-42.5 -9.5q-25 0 -42.5 10.5t-25.5 37.5l-177 646q14 14 36 23.5t43 9.5q24 0 41.5 -10.5t25.5 -38.5z" />
    <glyph glyph-name="bracketright" unicode="]" horiz-adv-x="308" 
d="M21 -127q-6 9 -10.5 23.5t-4.5 31.5q0 32 14.5 45.5t37.5 13.5h46v556h-83q-6 9 -10.5 23.5t-4.5 31.5q0 31 14.5 45t37.5 14h119q36 0 52.5 -20.5t16.5 -48.5v-646q0 -28 -16.5 -48.5t-52.5 -20.5h-156z" />
    <glyph glyph-name="asciicircum" unicode="^" horiz-adv-x="483" 
d="M161 643q11 8 32 14.5t48 6.5q29 0 51 -8.5t31 -25.5q12 -18 29.5 -53t35 -76.5t33 -84t24.5 -73.5q-11 -11 -30 -20.5t-41 -9.5q-28 0 -44 11.5t-28 43.5l-64 169h-4q-8 -20 -17 -45.5t-18 -53.5t-17.5 -56t-14.5 -54q-14 -8 -31 -12t-33 -4q-27 0 -45.5 12.5
t-18.5 41.5q0 11 6.5 32t16.5 46.5t23 54t26.5 55.5t26.5 50.5t23 38.5z" />
    <glyph glyph-name="underscore" unicode="_" horiz-adv-x="501" 
d="M15 -176q-6 10 -10.5 25t-4.5 33q0 33 15.5 48t40.5 15h430q5 -10 10 -26t5 -34q0 -33 -15.5 -47t-40.5 -14h-430z" />
    <glyph glyph-name="grave" unicode="`" horiz-adv-x="302" 
d="M26 644q-1 4 -1.5 10.5t-0.5 10.5q0 32 19 51t47 19q18 0 35.5 -8t31.5 -25l89 -112q-4 -32 -23 -47t-41 -15q-19 0 -32 5.5t-27 18.5z" />
    <glyph glyph-name="a" unicode="a" horiz-adv-x="535" 
d="M256 97q22 0 43.5 4.5t32.5 11.5v92l-82 -7q-32 -3 -51.5 -14.5t-19.5 -34.5q0 -24 18 -38t59 -14zM250 496q52 0 94.5 -10.5t72.5 -32.5t46.5 -56t16.5 -80v-226q0 -26 -13.5 -41.5t-32.5 -26.5q-31 -19 -76 -29t-102 -10q-103 0 -164 39.5t-61 120.5q0 69 41 105
t126 45l133 14v11q0 32 -26 47t-75 15q-38 0 -74.5 -9t-65.5 -21q-12 8 -20.5 24.5t-8.5 35.5q0 44 46 63q29 11 67.5 16.5t75.5 5.5z" />
    <glyph glyph-name="b" unicode="b" horiz-adv-x="582" 
d="M314 496q49 0 92 -16t74.5 -48t49.5 -79.5t18 -110.5t-19 -111t-53.5 -80.5t-83 -49t-108.5 -16.5q-63 0 -108 15t-75 36q-43 29 -43 76v539q11 3 29 6t40 3q45 0 64.5 -15t19.5 -57v-114q20 9 46 15.5t57 6.5zM286 376q-23 0 -41.5 -6.5t-34.5 -16.5v-229q12 -8 30 -13
t42 -5q50 0 79.5 34t29.5 102q0 70 -28.5 102t-76.5 32z" />
    <glyph glyph-name="c" unicode="c" horiz-adv-x="487" 
d="M319 375q-54 0 -92 -34.5t-38 -101.5t36.5 -100t92.5 -33q32 0 56.5 8.5t41.5 17.5q17 -13 26.5 -27.5t9.5 -35.5q0 -38 -40 -61t-111 -23q-60 0 -109.5 16t-84.5 48t-54 79.5t-19 110.5q0 65 21 113t57 80t84 48t101 16q69 0 108.5 -25t39.5 -63q0 -18 -8.5 -33
t-20.5 -26q-18 10 -42.5 18t-54.5 8z" />
    <glyph glyph-name="d" unicode="d" horiz-adv-x="579" 
d="M286 496q23 0 43.5 -3.5t37.5 -9.5v168q11 3 29 6t40 3q45 0 64.5 -15t19.5 -57v-487q0 -24 -10 -40.5t-32 -30.5q-28 -17 -72 -31t-101 -14q-126 0 -198.5 63.5t-72.5 190.5q0 66 19.5 114t53.5 80t80 47.5t99 15.5zM368 361q-13 6 -28.5 10.5t-32.5 4.5q-54 0 -86 -33
t-32 -105q0 -69 30.5 -100.5t84.5 -31.5q21 0 37.5 4.5t26.5 10.5v240z" />
    <glyph glyph-name="e" unicode="e" horiz-adv-x="543" 
d="M186 177q14 -42 49 -59.5t81 -17.5q42 0 79 11.5t60 25.5q15 -10 25 -26t10 -35q0 -23 -14 -40t-38.5 -28.5t-58 -17t-73.5 -5.5q-59 0 -109 16.5t-86 49t-56.5 81.5t-20.5 115q0 64 20.5 111t55 78t79 45.5t91.5 14.5q51 0 93.5 -15.5t73 -43.5t47.5 -67t17 -85
q0 -32 -17 -48t-48 -21zM281 383q-43 0 -71.5 -26.5t-33.5 -76.5l191 31q-2 26 -23 49t-63 23z" />
    <glyph glyph-name="f" unicode="f" horiz-adv-x="424" 
d="M204 446h170q5 -10 10.5 -25t5.5 -33q0 -32 -14.5 -46t-37.5 -14h-127v-327q-10 -3 -28 -5.5t-40 -2.5q-45 0 -65 14.5t-20 56.5v425q0 49 16.5 85t45.5 58.5t68 33.5t84 11q71 0 105.5 -18.5t34.5 -60.5q0 -19 -7.5 -33.5t-17.5 -22.5q-19 6 -40.5 10t-48.5 4
q-46 0 -70 -16.5t-24 -55.5v-38z" />
    <glyph glyph-name="g" unicode="g" horiz-adv-x="560" 
d="M358 39q-20 -9 -45 -14.5t-57 -5.5q-45 0 -85.5 12.5t-70.5 40.5t-48 73t-18 110q0 59 18 104t51.5 75.5t80 46t103.5 15.5q56 0 102.5 -14.5t72.5 -31.5q19 -13 30 -29.5t11 -41.5v-377q0 -52 -19 -90t-52.5 -62.5t-78.5 -36.5t-97 -12q-54 0 -93.5 9t-62.5 23
q-34 24 -34 64q0 21 9 38.5t20 25.5q28 -16 64.5 -27.5t77.5 -11.5q56 0 88.5 19.5t32.5 64.5v33zM283 134q24 0 41.5 6t31.5 16v205q-12 5 -26.5 10t-36.5 5q-48 0 -77.5 -29.5t-29.5 -92.5q0 -34 7.5 -57t20.5 -37t30.5 -20t38.5 -6z" />
    <glyph glyph-name="h" unicode="h" horiz-adv-x="579" 
d="M211 1q-10 -3 -28 -5.5t-40 -2.5q-45 0 -65 14.5t-20 56.5v587q11 3 29 6t40 3q45 0 64.5 -15t19.5 -57v-115q21 10 47.5 16.5t57.5 6.5q96 0 150.5 -48.5t54.5 -145.5v-301q-10 -3 -28 -5.5t-40 -2.5q-45 0 -65 14.5t-20 56.5v229q0 45 -22.5 64t-57.5 19
q-23 0 -42 -6.5t-35 -15.5v-353v0z" />
    <glyph glyph-name="i" unicode="i" horiz-adv-x="274" 
d="M213 1q-10 -3 -28 -5.5t-40 -2.5q-45 0 -64.5 14.5t-19.5 56.5v411q10 3 28 6t40 3q45 0 64.5 -15t19.5 -57v-411zM52 619q0 34 23.5 58t61.5 24t61.5 -24t23.5 -58q0 -35 -23.5 -59t-61.5 -24t-61.5 24t-23.5 59z" />
    <glyph glyph-name="j" unicode="j" horiz-adv-x="279" 
d="M218 -16q0 -48 -11.5 -81.5t-30.5 -55.5t-43.5 -32t-51.5 -10q-40 0 -62 24.5t-24 60.5q36 17 53 41.5t17 68.5v475q11 3 29 6t40 3q45 0 64.5 -15t19.5 -57v-428zM52 619q0 34 24 58t62 24t61.5 -24t23.5 -58q0 -35 -23.5 -59t-61.5 -24t-62 24t-24 59z" />
    <glyph glyph-name="k" unicode="k" horiz-adv-x="542" 
d="M341 247l173 -168q-5 -42 -25.5 -64.5t-58.5 -22.5q-29 0 -51 14t-49 46l-119 141v-192q-10 -3 -28 -5.5t-40 -2.5q-45 0 -65 14.5t-20 56.5v587q11 3 29 6t40 3q45 0 64.5 -15t19.5 -57v-283l181 184q47 0 75 -21t28 -52q0 -27 -18.5 -47.5t-57.5 -54.5z" />
    <glyph glyph-name="l" unicode="l" horiz-adv-x="277" 
d="M146 -7q-45 0 -64.5 14.5t-19.5 56.5v587q10 3 28.5 6t40.5 3q44 0 64 -15t20 -57v-587q-11 -3 -29 -5.5t-40 -2.5z" />
    <glyph glyph-name="m" unicode="m" horiz-adv-x="841" 
d="M784 1q-11 -3 -29 -5.5t-40 -2.5q-45 0 -64.5 14.5t-19.5 56.5v248q0 33 -18 48.5t-49 15.5q-20 0 -37.5 -7t-31.5 -18q1 -5 1.5 -10t0.5 -10v-330q-11 -3 -29 -5.5t-40 -2.5q-45 0 -64.5 14.5t-19.5 56.5v248q0 33 -20 48.5t-49 15.5q-21 0 -38 -6.5t-28 -12.5v-356
q-10 -3 -28 -5.5t-40 -2.5q-45 0 -65 14.5t-20 56.5v309q0 26 11 42t31 30q33 23 81.5 37t101.5 14q42 0 79.5 -11.5t68.5 -35.5q30 20 68 33.5t90 13.5q39 0 74.5 -9.5t62.5 -31t43.5 -56t16.5 -83.5v-315z" />
    <glyph glyph-name="n" unicode="n" horiz-adv-x="577" 
d="M367 307q0 35 -21 52t-56 17q-24 0 -44 -6t-37 -15v-354q-10 -3 -28 -5.5t-40 -2.5q-45 0 -65 14.5t-20 56.5v309q0 26 11 42t31 30q32 23 82.5 37t111.5 14q109 0 168.5 -48t59.5 -137v-310q-11 -3 -29 -5.5t-40 -2.5q-45 0 -64.5 14.5t-19.5 56.5v243v0z" />
    <glyph glyph-name="o" unicode="o" horiz-adv-x="580" 
d="M545 241q0 -59 -18 -106.5t-51.5 -80.5t-80.5 -51t-105 -18t-105.5 17.5t-81 50.5t-51.5 80.5t-18 107.5q0 58 18.5 105.5t52 80.5t81 51t104.5 18t104 -18t80.5 -51.5t52 -80.5t18.5 -105zM290 376q-47 0 -73 -35t-26 -100q0 -67 25.5 -101.5t73.5 -34.5t73.5 35
t25.5 101q0 64 -26 99.5t-73 35.5z" />
    <glyph glyph-name="p" unicode="p" horiz-adv-x="578" 
d="M297 -15q-26 0 -48 4.5t-40 11.5v-179q-10 -3 -28 -6t-40 -3q-45 0 -65 15t-20 57v495q0 26 11 42.5t31 29.5q30 19 77 31.5t104 12.5q58 0 106.5 -14.5t83.5 -45.5t54.5 -79t19.5 -114q0 -63 -18.5 -111.5t-51.5 -81t-78 -49t-98 -16.5zM274 106q54 0 83.5 34t29.5 103
q0 71 -28.5 102t-79.5 31q-23 0 -40 -5.5t-31 -12.5v-235q14 -8 30 -12.5t36 -4.5z" />
    <glyph glyph-name="q" unicode="q" horiz-adv-x="579" 
d="M521 -181q-10 -3 -28.5 -6t-39.5 -3q-45 0 -65 15t-20 57v117q-17 -6 -39.5 -10t-47.5 -4q-54 0 -99 16t-78 47.5t-51.5 79.5t-18.5 111q0 64 19.5 112t55 80t85 48.5t110.5 16.5q55 0 102.5 -13.5t73.5 -30.5q20 -13 30.5 -29.5t10.5 -42.5v-561zM303 106q20 0 36 4.5
t30 12.5v238q-10 5 -26 10t-36 5q-54 0 -86 -33.5t-32 -103.5q0 -69 30 -101t84 -32z" />
    <glyph glyph-name="r" unicode="r" horiz-adv-x="405" 
d="M209 1q-10 -3 -28 -5.5t-40 -2.5q-45 0 -65 14.5t-20 56.5v305q0 28 14 48t39 35q33 20 79.5 31.5t97.5 11.5q104 0 104 -70q0 -17 -5 -31t-11 -24q-23 5 -56 5q-29 0 -58 -7t-51 -19v-348z" />
    <glyph glyph-name="s" unicode="s" horiz-adv-x="483" 
d="M450 141q0 -74 -55 -115.5t-162 -41.5q-42 0 -76.5 6t-59.5 18t-39 30t-14 42q0 22 9 37.5t23 25.5q29 -17 66 -30t86 -13q71 0 71 40q0 17 -12.5 26t-42.5 16l-40 9q-82 17 -122 52.5t-40 99.5q0 71 57.5 112.5t154.5 41.5q36 0 68 -5.5t55 -16.5t36.5 -27.5t13.5 -38.5
q0 -20 -8 -35.5t-21 -25.5q-8 5 -23.5 11t-33.5 11t-38 8t-37 3q-35 0 -54.5 -9.5t-19.5 -28.5q0 -14 11 -22t40 -15l38 -9q91 -20 130 -58t39 -98z" />
    <glyph glyph-name="t" unicode="t" horiz-adv-x="392" 
d="M209 159q0 -28 18 -40.5t50 -12.5q15 0 32 3.5t29 8.5q9 -10 15 -23t6 -30q0 -35 -27.5 -57.5t-95.5 -22.5q-84 0 -131 38.5t-47 125.5v449q11 3 29 6.5t39 3.5q44 0 63.5 -15.5t19.5 -56.5v-65h138q5 -10 10 -25.5t5 -32.5q0 -32 -14.5 -46t-37.5 -14h-101v-194v0z" />
    <glyph glyph-name="u" unicode="u" horiz-adv-x="576" 
d="M520 100q0 -47 -41 -72q-32 -20 -79 -31.5t-104 -11.5q-54 0 -98 11.5t-75.5 36.5t-49 63t-17.5 92v291q11 3 29 6t40 3q45 0 64.5 -15t19.5 -57v-227q0 -45 23 -64.5t65 -19.5q26 0 43.5 4.5t26.5 9.5v360q10 3 28 6t40 3q45 0 65 -15t20 -57v-316v0z" />
    <glyph glyph-name="v" unicode="v" horiz-adv-x="535" 
d="M435 491q31 0 52.5 -14t21.5 -47q0 -15 -7.5 -45t-19.5 -68t-27.5 -81.5t-32 -85t-32.5 -77.5t-29 -60q-12 -9 -36.5 -15.5t-54.5 -6.5q-35 0 -60 9t-36 29q-9 17 -21.5 47t-27 67.5t-29.5 80t-29 85t-26 81t-19 69.5q12 13 33.5 22.5t46.5 9.5q32 0 52 -13.5t30 -49.5
l44 -158q12 -42 24 -82.5t18 -63.5h5q23 78 46 170t43 180q31 17 71 17z" />
    <glyph glyph-name="w" unicode="w" horiz-adv-x="779" 
d="M394 286q-9 -37 -20 -76t-22 -76t-21 -68t-16 -51q-27 -24 -86 -24q-36 0 -63 10t-36 30q-11 24 -26 76t-29.5 114t-27.5 126t-21 112q12 13 33.5 22.5t46.5 9.5q32 0 52 -14.5t25 -49.5q10 -70 17.5 -120t13.5 -85t10.5 -56.5t6.5 -33.5h4l12 48t19 72.5t23.5 87
t24.5 93.5q17 10 35.5 15.5t44.5 5.5q32 0 54.5 -10.5t28.5 -31.5q13 -45 25 -88.5t22 -80.5t17.5 -66t11.5 -45h5q14 79 27 165.5t24 175.5q16 9 34 13.5t36 4.5q31 0 51.5 -13.5t20.5 -46.5q0 -15 -5.5 -47t-14 -72t-19.5 -84.5t-22 -85.5t-21.5 -75t-17.5 -52
q-11 -11 -37 -17.5t-56 -6.5q-76 0 -89 37q-7 20 -17 49t-20.5 63.5t-20.5 72t-17 73.5z" />
    <glyph glyph-name="x" unicode="x" horiz-adv-x="515" 
d="M76 141q22 26 44 52.5t45 52.5l-137 165q7 35 28.5 56t52.5 21q15 0 26 -3.5t20.5 -10.5t18 -17.5t18.5 -23.5l72 -97l114 151q4 1 8 1h7q42 0 67 -18t25 -47q0 -23 -11 -41t-40 -50l-78 -89l136 -179q-5 -35 -27 -54.5t-54 -19.5q-33 1 -53.5 19.5t-40.5 46.5l-64 92
l-110 -155q-4 0 -10 -0.5t-10 -0.5q-45 0 -69 19t-24 47q0 21 10 37.5t36 45.5z" />
    <glyph glyph-name="y" unicode="y" horiz-adv-x="539" 
d="M136 120q-23 50 -52.5 130.5t-61.5 208.5q12 13 33.5 22.5t46.5 9.5q32 0 52 -13.5t31 -49.5q22 -73 44.5 -144t45.5 -143h4q12 34 25 74.5t25 84t22.5 88t18.5 86.5q31 17 65 17q32 0 55 -14t23 -46q0 -36 -12.5 -91.5t-33 -116t-46 -120t-52.5 -104.5
q-56 -95 -101 -141.5t-91 -46.5q-37 0 -61 22.5t-29 57.5q32 28 66.5 65.5t58.5 75.5q-17 5 -35.5 22.5t-40.5 65.5z" />
    <glyph glyph-name="z" unicode="z" horiz-adv-x="479" 
d="M67 0q-14 13 -22.5 30t-8.5 38q0 19 8.5 36.5t21.5 33.5l188 224h-198q-5 10 -10.5 25.5t-5.5 33.5q0 32 14.5 46t37.5 14h316q14 -13 23 -30t9 -39q0 -18 -8.5 -35.5t-21.5 -33.5l-185 -225h210q6 -9 11 -25t5 -33q0 -32 -14.5 -46t-37.5 -14h-332v0z" />
    <glyph glyph-name="braceleft" unicode="{" horiz-adv-x="326" 
d="M184 268q57 -27 57 -116v-115q0 -34 16.5 -48.5t39.5 -19.5q2 -7 2 -13.5v-12.5q0 -39 -21.5 -56.5t-56.5 -17.5q-52 0 -86 34t-34 103v107q0 46 -16.5 70t-51.5 33q-3 11 -5 24.5t-2 27.5t2 27.5t5 24.5q35 8 51.5 32.5t16.5 69.5v104q0 69 35 102.5t88 33.5
q35 0 55 -16.5t20 -57.5v-12t-2 -14q-23 -5 -39.5 -19.5t-16.5 -48.5v-111q0 -88 -57 -115z" />
    <glyph glyph-name="bar" unicode="|" horiz-adv-x="275" 
d="M206 -171q-10 -2 -27 -4.5t-34 -2.5q-36 0 -55.5 12t-19.5 52v790q9 2 26 4.5t34 2.5q36 0 56 -12.5t20 -52.5v-789z" />
    <glyph glyph-name="braceright" unicode="}" horiz-adv-x="326" 
d="M142 268q-57 27 -57 115v111q0 34 -16.5 48.5t-39.5 19.5q-2 8 -2 14v12q0 41 20 57.5t55 16.5q53 0 88 -33.5t35 -102.5v-104q0 -45 16.5 -69.5t51.5 -32.5q3 -11 5 -24.5t2 -27.5t-2 -27.5t-5 -24.5q-35 -9 -51.5 -33t-16.5 -70v-107q0 -69 -34 -103t-86 -34
q-35 0 -56.5 17.5t-21.5 56.5v12.5t2 13.5q23 5 39.5 19.5t16.5 48.5v115q0 89 57 116z" />
    <glyph glyph-name="asciitilde" unicode="~" horiz-adv-x="493" 
d="M323 307q24 0 37 13.5t22 28.5q19 0 35.5 -6t29.5 -17.5t20.5 -27t7.5 -34.5q0 -24 -9.5 -42t-25 -30t-36.5 -18t-45 -6q-25 0 -48.5 5.5t-46.5 12t-46 12t-47 5.5q-26 0 -39 -14.5t-21 -26.5q-18 0 -35 6t-29.5 17.5t-20 27t-7.5 34.5q0 24 10 42t26.5 30t37 17.5
t41.5 5.5q27 0 51 -5.5t47.5 -12t45.5 -12t45 -5.5z" />
    <glyph glyph-name="uni00A0" unicode="&#xa0;" horiz-adv-x="200" 
 />
    <glyph glyph-name="exclamdown" unicode="&#xa1;" horiz-adv-x="289" 
d="M66 -96q0 24 1 66t3.5 90.5t7 97t10.5 86.5q8 7 26 10.5t31 3.5q26 0 43.5 -8.5t22.5 -31.5q4 -24 7.5 -69.5t5.5 -97.5t3.5 -104t1.5 -91q-18 -11 -40.5 -16.5t-45.5 -5.5q-36 0 -56.5 17.5t-20.5 52.5zM234 397q0 -38 -23.5 -62.5t-65.5 -24.5q-41 0 -64.5 24.5
t-23.5 62.5t23.5 62.5t64.5 24.5q42 0 65.5 -24.5t23.5 -62.5z" />
    <glyph glyph-name="cent" unicode="&#xa2;" horiz-adv-x="489" 
d="M317 375q-27 0 -50.5 -8.5t-41 -26t-27.5 -43t-10 -58.5q0 -67 36.5 -100t92.5 -33q32 0 56 8.5t42 17.5q17 -13 26 -27.5t9 -35.5q0 -34 -31.5 -55.5t-88.5 -26.5v-77q-8 -3 -24.5 -5.5t-35.5 -2.5q-39 0 -57 14t-18 50v34q-76 23 -119 82.5t-43 156.5q0 49 12 88
t33.5 69t51.5 51t65 33v93q9 3 25 5.5t35 2.5q39 0 57 -13.5t18 -50.5v-23q54 -7 84 -30.5t30 -55.5q0 -18 -9 -33t-20 -26q-18 10 -42.5 18t-55.5 8z" />
    <glyph glyph-name="sterling" unicode="&#xa3;" horiz-adv-x="504" 
d="M122 227v8t-1 9h-28q-23 0 -37 14t-14 48q0 17 5 32t10 25h52q-1 13 -1.5 25.5t-0.5 23.5q0 55 18 95.5t48.5 66t71.5 38t87 12.5q67 0 102 -22t35 -63q0 -17 -8.5 -34.5t-19.5 -25.5q-18 11 -37.5 16.5t-47.5 5.5q-48 0 -73.5 -22.5t-25.5 -73.5q0 -9 0.5 -20t1.5 -22
h143q5 -10 10 -25t5 -32q0 -34 -14.5 -48t-37.5 -14h-96q1 -5 1 -10v-9q0 -63 -35 -106h235q5 -10 10 -25.5t5 -32.5q0 -32 -14.5 -46.5t-37.5 -14.5h-333q-25 0 -43 19t-18 54v7.5t1 7.5q40 19 61 49.5t21 89.5z" />
    <glyph glyph-name="currency" unicode="&#xa4;" horiz-adv-x="557" 
d="M484 292q0 -39 -10.5 -70.5t-29.5 -55.5l54 -65q-11 -24 -26.5 -36t-33.5 -12q-17 0 -31 13.5t-27 29.5l-12 15q-20 -9 -43 -13t-48 -4q-53 0 -93 17l-48 -62q-26 5 -46 17.5t-20 34.5q0 14 7.5 28t21.5 31l7 9q-39 48 -39 123q0 38 10.5 69.5t29.5 55.5l-51 62
q11 24 26.5 35.5t33.5 11.5q17 0 31 -13.5t27 -29.5l8 -10q42 18 93 18q55 0 100 -21l46 61q26 -5 45.5 -17.5t19.5 -34.5q0 -14 -7.5 -28t-20.5 -31l-8 -11q16 -23 25 -52.5t9 -64.5zM356 292q0 48 -22.5 72.5t-57.5 24.5q-36 0 -58.5 -24.5t-22.5 -72.5q0 -47 22.5 -71.5
t58.5 -24.5q35 0 57.5 24.5t22.5 71.5z" />
    <glyph glyph-name="yen" unicode="&#xa5;" horiz-adv-x="587" 
d="M71 259q-5 8 -9 20.5t-4 26.5q0 27 12 38.5t30 11.5h49q-35 57 -66 112.5t-49 99.5q11 16 30.5 29.5t48.5 13.5q34 0 55 -14.5t41 -52.5l91 -174h6q15 32 27 58t22.5 51.5t22.5 53t27 62.5q16 8 35.5 12t36.5 4q31 0 51 -16.5t20 -47.5q0 -9 -4.5 -23t-15.5 -36.5
t-29 -54.5t-45 -77h74q4 -10 8.5 -22t4.5 -26q0 -26 -12.5 -37.5t-30.5 -11.5h-427zM376 111v-110q-11 -3 -30.5 -5.5t-40.5 -2.5q-46 0 -64.5 16t-18.5 56v46h-151q-5 8 -9 20.5t-4 26.5q0 27 12 38.5t30 11.5h427q5 -9 9 -22t4 -27q0 -26 -12 -37t-30 -11h-122z" />
    <glyph glyph-name="brokenbar" unicode="&#xa6;" horiz-adv-x="293" 
d="M206 312q-10 -2 -27 -4.5t-34 -2.5q-36 0 -55.5 12t-19.5 53v306q9 2 26 4.5t34 2.5q36 0 56 -12.5t20 -52.5v-306zM206 -171q-10 -2 -27 -4.5t-34 -2.5q-36 0 -55.5 12t-19.5 52v306q9 2 26 4.5t34 2.5q36 0 56 -12.5t20 -52.5v-305z" />
    <glyph glyph-name="section" unicode="&#xa7;" horiz-adv-x="538" 
d="M486 279q0 -29 -12 -54t-31 -42q43 -34 43 -94q0 -71 -59.5 -112t-176.5 -41q-42 0 -78 6t-62.5 18t-41 30t-14.5 42q0 23 9.5 38t23.5 25q29 -17 68 -30t90 -13q49 0 69.5 10.5t20.5 28.5q0 17 -13 24.5t-45 13.5l-65 11q-81 13 -120.5 48.5t-39.5 98.5q0 59 45 93
q-41 35 -41 97q0 70 58 108.5t154 38.5q37 0 70.5 -5.5t59 -16t40 -27t14.5 -38.5q0 -20 -8 -35.5t-20 -25.5q-9 6 -26 11.5t-37 10t-41 7.5t-40 3q-35 0 -55 -9t-20 -28q0 -14 12 -21t38 -11l62 -10q169 -27 169 -150zM195 291q0 -14 12 -27.5t40 -18.5l79 -16
q8 10 12.5 19.5t4.5 22.5q0 17 -14.5 30t-44.5 18l-72 13q-17 -17 -17 -41z" />
    <glyph glyph-name="dieresis" unicode="&#xa8;" horiz-adv-x="374" 
d="M161 625q0 -32 -21.5 -53.5t-56.5 -21.5t-56 21.5t-21 53.5t21 54.5t56 22.5t56.5 -22.5t21.5 -54.5zM368 625q0 -32 -21 -53.5t-56 -21.5t-56.5 21.5t-21.5 53.5t21.5 54.5t56.5 22.5t56 -22.5t21 -54.5z" />
    <glyph glyph-name="copyright" unicode="&#xa9;" horiz-adv-x="713" 
d="M39 306q0 65 22.5 122t64 99t100 66t129.5 24t129.5 -24t100.5 -66t65.5 -99t23.5 -122t-23.5 -121.5t-65.5 -98t-100.5 -65t-129.5 -23.5t-129.5 23.5t-100 65t-64 98t-22.5 121.5zM355 534q-51 0 -91 -17t-68.5 -47.5t-43.5 -72.5t-15 -91t15 -90t43.5 -70.5t68.5 -46
t91 -16.5t91.5 16.5t68.5 46t43 70.5t15 90t-15 91t-43 72.5t-68.5 47.5t-91.5 17zM391 382q-30 0 -51.5 -18.5t-21.5 -53.5t20.5 -54.5t52.5 -19.5q20 0 34 5t25 11q22 -17 22 -47q0 -21 -27 -38t-73 -17q-34 0 -63 10.5t-50.5 31t-34 50.5t-12.5 69q0 40 14.5 70t38 49.5
t52 29t56.5 9.5q42 0 68 -16.5t26 -41.5q0 -27 -20 -45q-10 6 -24 11t-32 5z" />
    <glyph glyph-name="ordfeminine" unicode="&#xaa;" horiz-adv-x="354" 
d="M166 365q14 0 27.5 2.5t21.5 6.5v59l-51 -5q-22 -2 -34.5 -9t-12.5 -21q0 -15 11.5 -24t37.5 -9zM161 622q69 0 110 -27.5t41 -89.5v-148q0 -15 -9 -24.5t-21 -17.5q-40 -25 -116 -25q-67 0 -107 26t-40 78q0 45 27 69t84 30l84 8v5q0 22 -17 31t-49 9q-24 0 -48.5 -6
t-42.5 -15q-8 6 -13.5 17.5t-5.5 23.5q0 16 7 25t23 16q18 8 44 11.5t49 3.5z" />
    <glyph glyph-name="guillemotleft" unicode="&#xab;" horiz-adv-x="554" 
d="M283 92q0 -26 -17.5 -47.5t-53.5 -21.5q-20 0 -36 11t-32 28l-100 102q-5 10 -9.5 25t-4.5 30q0 29 7.5 46t18.5 28l146 143q35 -9 52.5 -27.5t17.5 -40.5q0 -20 -8 -35.5t-34 -40.5l-74 -70zM521 92q0 -26 -17.5 -47.5t-53.5 -21.5q-20 0 -36 11t-32 28l-100 102
q-6 10 -10 25t-4 30q0 29 7 46t18 28l147 143q35 -9 52.5 -27.5t17.5 -40.5q0 -20 -8.5 -35.5t-34.5 -40.5l-73 -70z" />
    <glyph glyph-name="logicalnot" unicode="&#xac;" horiz-adv-x="531" 
d="M429 436q31 0 49 -18t18 -50v-186q-9 -3 -28.5 -5.5t-36.5 -2.5q-38 0 -57.5 13.5t-19.5 55.5v75h-305q-5 10 -10 25t-5 33q0 32 14.5 46t38.5 14h342z" />
    <glyph glyph-name="uni00AD" unicode="&#xad;" horiz-adv-x="361" 
d="M51 194q-6 10 -11 26t-5 34q0 33 15 48t41 15h218q5 -9 11 -25.5t6 -34.5q0 -33 -15.5 -48t-40.5 -15h-219z" />
    <glyph glyph-name="registered" unicode="&#xae;" horiz-adv-x="619" 
d="M41 373q0 54 19 101.5t54.5 83t85 55.5t109.5 20q59 0 108.5 -20t85 -55.5t55.5 -83t20 -101.5t-20 -101.5t-55.5 -82.5t-85 -55t-108.5 -20q-60 0 -109.5 20t-85 55t-54.5 82.5t-19 101.5zM124 373q0 -41 13 -75.5t37 -59t58.5 -38.5t76.5 -14t76 14t58 38.5t36.5 59
t12.5 75.5t-12.5 75.5t-36.5 60t-58 39.5t-76 14t-76.5 -14t-58.5 -39.5t-37 -60t-13 -75.5zM288 339v-77q-6 -1 -15 -2t-21 -1q-16 0 -25 5.5t-9 24.5v187q0 13 17 19q30 8 67 8q54 0 81 -22t27 -61q0 -26 -12.5 -42.5t-31.5 -25.5l51 -68q-3 -13 -14 -20t-24 -7
q-17 0 -26 7.5t-18 21.5l-34 53h-13zM306 390q34 0 34 30q0 29 -36 29q-5 0 -9.5 -0.5t-6.5 -0.5v-58h18z" />
    <glyph glyph-name="macron" unicode="&#xaf;" horiz-adv-x="357" 
d="M32 565q-5 10 -10 25t-5 31q0 33 13.5 46.5t36.5 13.5h258q8 -10 11.5 -24.5t3.5 -31.5q0 -33 -13.5 -46.5t-36.5 -13.5h-258z" />
    <glyph glyph-name="degree" unicode="&#xb0;" horiz-adv-x="361" 
d="M340 478q0 -35 -12 -62t-33.5 -45.5t-50.5 -28.5t-63 -10q-35 0 -64.5 10t-51 28.5t-33.5 45.5t-12 62q0 34 12 61t34 45.5t51 28t64 9.5q34 0 63 -9.5t50.5 -28t33.5 -45.5t12 -61zM181 533q-20 0 -36 -13t-16 -42q0 -30 15.5 -44t36.5 -14q20 0 35.5 14t15.5 44
q0 29 -15.5 42t-35.5 13z" />
    <glyph glyph-name="plusminus" unicode="&#xb1;" horiz-adv-x="507" 
d="M324 436h134q5 -10 10 -26t5 -35q0 -32 -15 -46t-41 -14h-93v-132q-9 -2 -27.5 -5t-35.5 -3q-37 0 -56 12.5t-19 53.5v74h-137q-6 10 -10.5 24.5t-4.5 32.5q0 33 15.5 48.5t40.5 15.5h96v127q9 2 27.5 5.5t35.5 3.5q36 0 55.5 -13t19.5 -53v-70zM49 0q-6 10 -10.5 25
t-4.5 33q0 33 15.5 48t40.5 15h368q5 -10 10 -26t5 -34q0 -33 -15 -47t-41 -14h-368z" />
    <glyph glyph-name="twosuperior" unicode="&#xb2;" horiz-adv-x="279" 
d="M125 700q59 0 92 -28t33 -76q0 -31 -19 -59.5t-52 -54.5l-45 -36h112q3 -7 6 -16t3 -20q0 -37 -33 -37h-178q-10 7 -16 18t-6 26q0 34 15 46l75 66q29 26 38 39t9 25q0 15 -11.5 24.5t-30.5 9.5q-22 0 -37.5 -6.5t-26.5 -14.5q-8 6 -14 16.5t-6 25.5q0 26 25 39t67 13z
" />
    <glyph glyph-name="threesuperior" unicode="&#xb3;" horiz-adv-x="283" 
d="M124 571q36 0 36 26q0 30 -47 30q-20 0 -37 -5.5t-30 -12.5q-22 14 -22 41q0 26 28.5 38.5t74.5 12.5q60 0 92 -26t32 -68q0 -22 -12.5 -40t-30.5 -27q21 -9 35 -28.5t14 -49.5q0 -46 -36.5 -72t-94.5 -26q-53 0 -82 16.5t-29 40.5q0 14 7 25t18 16q15 -9 33 -16t43 -7
q50 0 50 31t-40 31h-49q-4 6 -7 15t-3 20q0 22 10 35h47z" />
    <glyph glyph-name="acute" unicode="&#xb4;" horiz-adv-x="298" 
d="M179 740q46 -1 69.5 -20.5t23.5 -45.5q0 -21 -9 -35t-31 -33l-94 -80q-40 0 -60.5 18.5t-20.5 41.5q0 11 4.5 21t17.5 24z" />
    <glyph glyph-name="mu" unicode="&#xb5;" horiz-adv-x="576" 
d="M520 100q0 -24 -10 -41t-30 -31q-27 -17 -65.5 -30t-95.5 -13q-42 0 -71.5 9.5t-49.5 26.5q5 -37 8.5 -71.5t3.5 -73.5v-41q-12 -5 -29.5 -9.5t-39.5 -4.5q-45 0 -64.5 15t-19.5 57v586q10 3 28.5 6t39.5 3q45 0 65 -15t20 -57v-227q0 -45 22.5 -64.5t64.5 -19.5
q26 0 43.5 4.5t26.5 9.5v360q11 3 29 6t40 3q44 0 64 -15t20 -57v-316v0z" />
    <glyph glyph-name="paragraph" unicode="&#xb6;" horiz-adv-x="529" 
d="M387 613q40 0 62 -13.5t22 -58.5v-610q-9 -2 -28.5 -5t-39.5 -3q-40 0 -62 13.5t-22 57.5v490h-69v-248q0 -13 -14.5 -21t-46.5 -8t-62.5 11.5t-55.5 35.5t-40 61t-15 88q0 53 18.5 92.5t50 65.5t73 39t87.5 13h142z" />
    <glyph glyph-name="periodcentered" unicode="&#xb7;" horiz-adv-x="220" 
d="M21 268q0 38 23.5 64t65.5 26q41 0 65 -26t24 -64t-24 -64t-65 -26q-42 0 -65.5 26t-23.5 64z" />
    <glyph glyph-name="cedilla" unicode="&#xb8;" horiz-adv-x="195" 
d="M123 34q36 -21 50.5 -52t14.5 -66q0 -51 -31.5 -83.5t-86.5 -32.5q-39 0 -62.5 18.5t-23.5 52.5q0 14 5 29h11q32 0 46 15t14 38q0 11 -4.5 25.5t-15.5 25.5z" />
    <glyph glyph-name="onesuperior" unicode="&#xb9;" horiz-adv-x="220" 
d="M85 596l-44 -15q-11 5 -21.5 18t-10.5 31q0 16 8 26t22 15l73 28h15q23 0 36 -13.5t13 -36.5v-275q-6 -2 -18 -4t-24 -2q-23 0 -36 8.5t-13 34.5v185z" />
    <glyph glyph-name="ordmasculine" unicode="&#xba;" horiz-adv-x="393" 
d="M359 457q0 -81 -45.5 -123.5t-119.5 -42.5q-75 0 -120 44t-45 122t45 121.5t120 43.5q74 0 119.5 -44.5t45.5 -120.5zM194 543q-29 0 -45.5 -22t-16.5 -64t16.5 -64t45.5 -22t45 22t16 64q0 41 -16 63.5t-45 22.5z" />
    <glyph glyph-name="guillemotright" unicode="&#xbb;" horiz-adv-x="554" 
d="M271 368q0 26 17.5 47t53.5 21q20 0 36 -10.5t32 -27.5l100 -103q5 -9 9.5 -24t4.5 -30q0 -29 -7.5 -46t-18.5 -28l-146 -144q-35 10 -52.5 28.5t-17.5 40.5q0 20 8 35.5t34 40.5l74 70zM34 368q0 26 17 47t53 21q20 0 36 -10.5t32 -27.5l100 -103q6 -9 10 -24t4 -30
q0 -29 -7.5 -46t-18.5 -28l-146 -144q-35 10 -52.5 28.5t-17.5 40.5q0 10 2 18.5t6.5 17t13 18t21.5 22.5l73 70z" />
    <glyph glyph-name="questiondown" unicode="&#xbf;" horiz-adv-x="491" 
d="M350 260q16 -11 29 -31t13 -49q0 -28 -15 -41.5t-45 -21.5l-76 -19q-34 -11 -50 -26t-16 -44q0 -25 21.5 -45t71.5 -20q41 0 77.5 10.5t59.5 26.5q16 -12 26.5 -29t10.5 -40q0 -24 -14.5 -42.5t-40 -30.5t-61.5 -18t-78 -6q-57 0 -101 14.5t-74 40t-45.5 61.5t-15.5 78
q0 87 55.5 137.5t167.5 73.5zM379 397q0 -38 -23.5 -62.5t-65.5 -24.5q-41 0 -64.5 24.5t-23.5 62.5t23.5 62.5t64.5 24.5q42 0 65.5 -24.5t23.5 -62.5z" />
    <glyph glyph-name="Agrave" unicode="&#xc0;" horiz-adv-x="620" 
d="M407 133h-196q-11 -36 -20.5 -71t-16.5 -62q-13 -4 -27 -7t-34 -3q-44 0 -66.5 15.5t-22.5 44.5q0 14 4 27t9 30q7 27 20 67t28.5 86.5t32.5 95.5t33 93.5t29 81.5t22 59q15 9 46.5 17t62.5 8q45 0 79.5 -12.5t44.5 -41.5q19 -53 41 -123t44.5 -144t43.5 -146t37 -129
q-11 -13 -32.5 -21t-51.5 -8q-43 0 -60.5 15t-25.5 47zM310 475q-14 -45 -34.5 -102.5t-38.5 -117.5h143q-17 63 -34.5 120.5t-29.5 99.5h-6zM156 745q-1 4 -1 10.5v9.5q0 33 18.5 52t46.5 19q18 0 34 -8.5t33 -25.5l86 -88q-4 -32 -23 -47t-41 -15q-19 0 -33 6.5t-28 17.5z
" />
    <glyph glyph-name="Aacute" unicode="&#xc1;" horiz-adv-x="620" 
d="M407 133h-196q-11 -36 -20.5 -71t-16.5 -62q-13 -4 -27 -7t-34 -3q-44 0 -66.5 15.5t-22.5 44.5q0 14 4 27t9 30q7 27 20 67t28.5 86.5t32.5 95.5t33 93.5t29 81.5t22 59q15 9 46.5 17t62.5 8q45 0 79.5 -12.5t44.5 -41.5q19 -53 41 -123t44.5 -144t43.5 -146t37 -129
q-11 -13 -32.5 -21t-51.5 -8q-43 0 -60.5 15t-25.5 47zM310 475q-14 -45 -34.5 -102.5t-38.5 -117.5h143q-17 63 -34.5 120.5t-29.5 99.5h-6zM385 841q38 0 59.5 -18.5t21.5 -45.5q0 -19 -9 -34t-34 -31l-97 -61q-36 0 -55 16t-19 38q0 12 4 22.5t18 22.5z" />
    <glyph glyph-name="Acircumflex" unicode="&#xc2;" horiz-adv-x="620" 
d="M319 737q-23 -21 -47 -43.5t-47 -42.5q-28 0 -47 16t-19 41q0 20 9.5 33.5t33.5 32.5l35 29q26 20 45.5 29t38.5 9q24 0 43.5 -9.5t39.5 -29.5l81 -84q0 -32 -16.5 -48t-45.5 -16q-19 0 -34 11.5t-38 35.5zM407 133h-196q-11 -36 -20.5 -71t-16.5 -62q-13 -4 -27 -7
t-34 -3q-44 0 -66.5 15.5t-22.5 44.5q0 14 4 27t9 30q7 27 20 67t28.5 86.5t32.5 95.5t33 93.5t29 81.5t22 59q15 9 46.5 17t62.5 8q45 0 79.5 -12.5t44.5 -41.5q19 -53 41 -123t44.5 -144t43.5 -146t37 -129q-11 -13 -32.5 -21t-51.5 -8q-43 0 -60.5 15t-25.5 47zM310 475
q-14 -45 -34.5 -102.5t-38.5 -117.5h143q-17 63 -34.5 120.5t-29.5 99.5h-6z" />
    <glyph glyph-name="Atilde" unicode="&#xc3;" horiz-adv-x="620" 
d="M407 133h-196q-11 -36 -20.5 -71t-16.5 -62q-13 -4 -27 -7t-34 -3q-44 0 -66.5 15.5t-22.5 44.5q0 14 4 27t9 30q7 27 20 67t28.5 86.5t32.5 95.5t33 93.5t29 81.5t22 59q15 9 46.5 17t62.5 8q45 0 79.5 -12.5t44.5 -41.5q19 -53 41 -123t44.5 -144t43.5 -146t37 -129
q-11 -13 -32.5 -21t-51.5 -8q-43 0 -60.5 15t-25.5 47zM310 475q-14 -45 -34.5 -102.5t-38.5 -117.5h143q-17 63 -34.5 120.5t-29.5 99.5h-6zM231 832q21 0 40.5 -4.5t37.5 -10.5t33.5 -10.5t27.5 -4.5q21 0 32 12.5t16 22.5h5q29 0 50.5 -20t21.5 -52q0 -42 -26.5 -62
t-66.5 -20q-24 0 -44 4.5t-37.5 10.5t-32 10.5t-26.5 4.5q-21 0 -32 -12t-16 -23h-4q-29 0 -51 19.5t-22 52.5q0 21 8.5 36.5t22 25.5t30 15t33.5 5z" />
    <glyph glyph-name="Adieresis" unicode="&#xc4;" horiz-adv-x="620" 
d="M407 133h-196q-11 -36 -20.5 -71t-16.5 -62q-13 -4 -27 -7t-34 -3q-44 0 -66.5 15.5t-22.5 44.5q0 14 4 27t9 30q7 27 20 67t28.5 86.5t32.5 95.5t33 93.5t29 81.5t22 59q15 9 46.5 17t62.5 8q45 0 79.5 -12.5t44.5 -41.5q19 -53 41 -123t44.5 -144t43.5 -146t37 -129
q-11 -13 -32.5 -21t-51.5 -8q-43 0 -60.5 15t-25.5 47zM310 475q-14 -45 -34.5 -102.5t-38.5 -117.5h143q-17 63 -34.5 120.5t-29.5 99.5h-6zM287 746q0 -32 -21.5 -53.5t-56.5 -21.5t-56 21.5t-21 53.5t21 54.5t56 22.5t56.5 -22.5t21.5 -54.5zM494 746q0 -32 -21 -53.5
t-56 -21.5t-56.5 21.5t-21.5 53.5t21.5 54.5t56.5 22.5t56 -22.5t21 -54.5z" />
    <glyph glyph-name="Aring" unicode="&#xc5;" horiz-adv-x="620" 
d="M407 133h-196q-11 -36 -20.5 -71t-16.5 -62q-13 -4 -27 -7t-34 -3q-44 0 -66.5 15.5t-22.5 44.5q0 14 4 27t9 30q7 27 20 67t28.5 86.5t32.5 95.5t33 93.5t29 81.5t22 59q15 9 46.5 17t62.5 8q45 0 79.5 -12.5t44.5 -41.5q19 -53 41 -123t44.5 -144t43.5 -146t37 -129
q-11 -13 -32.5 -21t-51.5 -8q-43 0 -60.5 15t-25.5 47zM310 475q-14 -45 -34.5 -102.5t-38.5 -117.5h143q-17 63 -34.5 120.5t-29.5 99.5h-6zM189 752q0 45 34 75.5t93 30.5q63 0 97.5 -30.5t34.5 -75.5t-34.5 -74.5t-97.5 -29.5q-59 0 -93 29.5t-34 74.5zM283 752
q0 -15 10 -24t24 -9q17 0 27 9t10 24t-10 24t-27 9q-14 0 -24 -9t-10 -24z" />
    <glyph glyph-name="AE" unicode="&#xc6;" horiz-adv-x="869" 
d="M478 -2q-38 0 -61 22.5t-23 60.5v52h-166l-60 -132q-13 -4 -25 -7.5t-32 -3.5q-42 0 -61.5 16t-19.5 44q0 14 3.5 27t11.5 30q12 26 31 64.5t41 83.5t46 92.5t47 92t42.5 82.5t33.5 63q13 9 38.5 17.5t57.5 8.5q19 0 42.5 -4t43.5 -14q23 13 48 13h292q6 -10 11 -25
t5 -34q0 -33 -14 -49t-40 -16h-223v-112h232q7 -10 12 -25t5 -34q0 -33 -14.5 -48.5t-40.5 -15.5h-194v-125h265q6 -10 11.5 -26t5.5 -35q0 -33 -14.5 -48t-40.5 -15h-296zM285 255h109v220h-6z" />
    <glyph glyph-name="Ccedilla" unicode="&#xc7;" horiz-adv-x="574" 
d="M539 522q0 -23 -12 -40.5t-28 -27.5q-26 17 -56.5 30t-72.5 13q-80 0 -125 -50.5t-45 -143.5q0 -96 47.5 -144.5t130.5 -48.5q43 0 73.5 11.5t56.5 27.5q15 -12 24.5 -30.5t9.5 -41.5q0 -20 -10.5 -37.5t-36.5 -29.5q-13 -7 -32 -12.5t-45 -9.5q10 -17 14 -34.5t4 -37.5
q0 -51 -31.5 -83.5t-86.5 -32.5q-39 0 -62.5 18.5t-23.5 52.5q0 14 5 29h11q32 0 46 15t14 38q0 15 -8 34q-56 7 -104 29.5t-83 61.5t-54.5 95t-19.5 130q0 78 24.5 138t66.5 100.5t98 61.5t120 21q91 0 141 -29t50 -73z" />
    <glyph glyph-name="Egrave" unicode="&#xc8;" horiz-adv-x="547" 
d="M155 -2q-38 0 -60.5 22.5t-22.5 60.5v442q0 38 22.5 60.5t60.5 22.5h331q6 -10 11 -25t5 -34q0 -33 -14.5 -49t-40.5 -16h-222v-112h232q6 -10 11 -25t5 -34q0 -33 -14 -48.5t-40 -15.5h-194v-125h265q6 -10 11 -26t5 -35q0 -33 -14.5 -48t-39.5 -15h-297zM154 745
q-1 4 -1 10.5v9.5q0 33 18.5 52t46.5 19q18 0 34 -8.5t33 -25.5l86 -88q-4 -32 -23 -47t-41 -15q-19 0 -33 6.5t-28 17.5z" />
    <glyph glyph-name="Eacute" unicode="&#xc9;" horiz-adv-x="547" 
d="M155 -2q-38 0 -60.5 22.5t-22.5 60.5v442q0 38 22.5 60.5t60.5 22.5h331q6 -10 11 -25t5 -34q0 -33 -14.5 -49t-40.5 -16h-222v-112h232q6 -10 11 -25t5 -34q0 -33 -14 -48.5t-40 -15.5h-194v-125h265q6 -10 11 -26t5 -35q0 -33 -14.5 -48t-39.5 -15h-297zM374 841
q38 0 59.5 -18.5t21.5 -45.5q0 -19 -9 -34t-34 -31l-97 -61q-36 0 -55 16t-19 38q0 12 4 22.5t18 22.5z" />
    <glyph glyph-name="Ecircumflex" unicode="&#xca;" horiz-adv-x="547" 
d="M155 -2q-38 0 -60.5 22.5t-22.5 60.5v442q0 38 22.5 60.5t60.5 22.5h331q6 -10 11 -25t5 -34q0 -33 -14.5 -49t-40.5 -16h-222v-112h232q6 -10 11 -25t5 -34q0 -33 -14 -48.5t-40 -15.5h-194v-125h265q6 -10 11 -26t5 -35q0 -33 -14.5 -48t-39.5 -15h-297zM293 737
q-23 -21 -46.5 -43.5t-46.5 -42.5q-29 0 -48 16t-19 41q0 20 9.5 33.5t33.5 32.5l35 29q26 20 45.5 29t38.5 9q24 0 43.5 -9.5t39.5 -29.5l81 -84q0 -32 -16.5 -48t-45.5 -16q-19 0 -34 11.5t-38 35.5z" />
    <glyph glyph-name="Edieresis" unicode="&#xcb;" horiz-adv-x="547" 
d="M155 -2q-38 0 -60.5 22.5t-22.5 60.5v442q0 38 22.5 60.5t60.5 22.5h331q6 -10 11 -25t5 -34q0 -33 -14.5 -49t-40.5 -16h-222v-112h232q6 -10 11 -25t5 -34q0 -33 -14 -48.5t-40 -15.5h-194v-125h265q6 -10 11 -26t5 -35q0 -33 -14.5 -48t-39.5 -15h-297zM265 744
q0 -32 -21.5 -53.5t-56.5 -21.5t-56 21.5t-21 53.5t21 54.5t56 22.5t56.5 -22.5t21.5 -54.5zM472 744q0 -32 -21 -53.5t-56 -21.5t-56.5 21.5t-21.5 53.5t21.5 54.5t56.5 22.5t56 -22.5t21 -54.5z" />
    <glyph glyph-name="Igrave" unicode="&#xcc;" horiz-adv-x="297" 
d="M154 -7q-47 0 -65.5 16t-18.5 58v541q11 2 31.5 5t41.5 3q45 0 64.5 -15t19.5 -59v-541q-11 -3 -31 -5.5t-42 -2.5zM-16 745q-1 4 -1 10.5v9.5q0 33 18.5 52t46.5 19q18 0 34 -8.5t33 -25.5l86 -88q-4 -32 -23 -47t-41 -15q-19 0 -33 6.5t-28 17.5z" />
    <glyph glyph-name="Iacute" unicode="&#xcd;" horiz-adv-x="297" 
d="M154 -7q-47 0 -65.5 16t-18.5 58v541q11 2 31.5 5t41.5 3q45 0 64.5 -15t19.5 -59v-541q-11 -3 -31 -5.5t-42 -2.5zM215 841q38 0 59.5 -18.5t21.5 -45.5q0 -19 -9 -34t-34 -31l-97 -61q-36 0 -55 16t-19 38q0 12 4 22.5t18 22.5z" />
    <glyph glyph-name="Icircumflex" unicode="&#xce;" horiz-adv-x="297" 
d="M154 -7q-47 0 -65.5 16t-18.5 58v541q11 2 31.5 5t41.5 3q45 0 64.5 -15t19.5 -59v-541q-11 -3 -31 -5.5t-42 -2.5zM148 737q-23 -21 -46.5 -43.5t-46.5 -42.5q-29 0 -48 16t-19 41q0 20 9.5 33.5t33.5 32.5l35 29q26 20 45.5 29t38.5 9q24 0 43.5 -9.5t39.5 -29.5
l81 -84q0 -32 -16.5 -48t-45.5 -16q-19 0 -34 11.5t-38 35.5z" />
    <glyph glyph-name="Idieresis" unicode="&#xcf;" horiz-adv-x="297" 
d="M154 -7q-47 0 -65.5 16t-18.5 58v541q11 2 31.5 5t41.5 3q45 0 64.5 -15t19.5 -59v-541q-11 -3 -31 -5.5t-42 -2.5zM118 744q0 -32 -21.5 -53.5t-56.5 -21.5t-56 21.5t-21 53.5t21 54.5t56 22.5t56.5 -22.5t21.5 -54.5zM325 744q0 -32 -21 -53.5t-56 -21.5t-56.5 21.5
t-21.5 53.5t21.5 54.5t56.5 22.5t56 -22.5t21 -54.5z" />
    <glyph glyph-name="Eth" unicode="&#xd0;" horiz-adv-x="697" 
d="M658 305q0 -80 -24 -140t-67.5 -100t-105 -60t-136.5 -20q-17 0 -38.5 1t-44 3.5t-45.5 7t-42 11.5q-52 19 -52 68v168h-68q-7 10 -12 25t-5 35q0 32 14.5 47.5t40.5 15.5h30v185q0 20 10.5 31t30.5 18q41 13 87 17t84 4q77 0 140 -19t108 -58.5t70 -99t25 -140.5z
M496 303q0 97 -47.5 144.5t-123.5 47.5q-18 0 -34 -1t-32 -4v-123h106q6 -10 11 -25t5 -34q0 -33 -14 -48.5t-40 -15.5h-68v-126q13 -3 31.5 -4.5t35.5 -1.5q78 0 124 47.5t46 143.5z" />
    <glyph glyph-name="Ntilde" unicode="&#xd1;" horiz-adv-x="675" 
d="M606 19q-14 -12 -38 -19.5t-57 -7.5q-34 0 -64 11t-50 50l-116 224q-17 32 -31.5 64t-28.5 67l-7 -2q5 -60 6 -114.5t1 -105.5v-186q-10 -2 -29.5 -4.5t-40.5 -2.5q-45 0 -63 15.5t-18 55.5v515q12 17 38.5 26.5t56.5 9.5q35 0 64.5 -11t49.5 -49l117 -225
q17 -32 31.5 -64t28.5 -67l4 1q-5 67 -5.5 127t-0.5 115v166q10 2 29.5 5t41.5 3q45 0 63 -15.5t18 -55.5v-526zM248 832q21 0 40.5 -4.5t37.5 -10.5t33.5 -10.5t27.5 -4.5q21 0 32 12.5t16 22.5h5q29 0 50.5 -20t21.5 -52q0 -42 -26.5 -62t-66.5 -20q-24 0 -44 4.5
t-37.5 10.5t-32 10.5t-26.5 4.5q-21 0 -32 -12t-16 -23h-4q-29 0 -51 19.5t-22 52.5q0 21 8.5 36.5t22 25.5t30 15t33.5 5z" />
    <glyph glyph-name="Ograve" unicode="&#xd2;" horiz-adv-x="700" 
d="M662 304q0 -78 -23.5 -138t-65.5 -100.5t-99 -61.5t-124 -21t-124 21t-98.5 61.5t-65 100.5t-23.5 138t24 137.5t66 100t98.5 61.5t122.5 21t123 -21t99 -61.5t66 -100t24 -137.5zM500 304q0 96 -40.5 144.5t-109.5 48.5q-68 0 -109 -48.5t-41 -144.5q0 -97 40.5 -145.5
t109.5 -48.5t109.5 48.5t40.5 145.5zM198 745q-1 4 -1 10.5v9.5q0 33 18.5 52t46.5 19q18 0 34 -8.5t33 -25.5l86 -88q-4 -32 -23 -47t-41 -15q-19 0 -33 6.5t-28 17.5z" />
    <glyph glyph-name="Oacute" unicode="&#xd3;" horiz-adv-x="700" 
d="M662 304q0 -78 -23.5 -138t-65.5 -100.5t-99 -61.5t-124 -21t-124 21t-98.5 61.5t-65 100.5t-23.5 138t24 137.5t66 100t98.5 61.5t122.5 21t123 -21t99 -61.5t66 -100t24 -137.5zM500 304q0 96 -40.5 144.5t-109.5 48.5q-68 0 -109 -48.5t-41 -144.5q0 -97 40.5 -145.5
t109.5 -48.5t109.5 48.5t40.5 145.5zM430 841q38 0 59.5 -18.5t21.5 -45.5q0 -19 -9 -34t-34 -31l-97 -61q-36 0 -55 16t-19 38q0 12 4 22.5t18 22.5z" />
    <glyph glyph-name="Ocircumflex" unicode="&#xd4;" horiz-adv-x="700" 
d="M662 304q0 -78 -23.5 -138t-65.5 -100.5t-99 -61.5t-124 -21t-124 21t-98.5 61.5t-65 100.5t-23.5 138t24 137.5t66 100t98.5 61.5t122.5 21t123 -21t99 -61.5t66 -100t24 -137.5zM500 304q0 96 -40.5 144.5t-109.5 48.5q-68 0 -109 -48.5t-41 -144.5q0 -97 40.5 -145.5
t109.5 -48.5t109.5 48.5t40.5 145.5zM352 737q-23 -21 -46.5 -43.5t-46.5 -42.5q-29 0 -48 16t-19 41q0 20 9.5 33.5t33.5 32.5l35 29q26 20 45.5 29t38.5 9q24 0 43.5 -9.5t39.5 -29.5l81 -84q0 -32 -16.5 -48t-45.5 -16q-19 0 -34 11.5t-38 35.5z" />
    <glyph glyph-name="Otilde" unicode="&#xd5;" horiz-adv-x="700" 
d="M662 304q0 -78 -23.5 -138t-65.5 -100.5t-99 -61.5t-124 -21t-124 21t-98.5 61.5t-65 100.5t-23.5 138t24 137.5t66 100t98.5 61.5t122.5 21t123 -21t99 -61.5t66 -100t24 -137.5zM500 304q0 96 -40.5 144.5t-109.5 48.5q-68 0 -109 -48.5t-41 -144.5q0 -97 40.5 -145.5
t109.5 -48.5t109.5 48.5t40.5 145.5zM266 832q21 0 40.5 -4.5t37.5 -10.5t33.5 -10.5t27.5 -4.5q21 0 32 12.5t16 22.5h5q29 0 50.5 -20t21.5 -52q0 -42 -26.5 -62t-66.5 -20q-24 0 -44 4.5t-37.5 10.5t-32 10.5t-26.5 4.5q-21 0 -32 -12t-16 -23h-4q-29 0 -51 19.5
t-22 52.5q0 21 8.5 36.5t22 25.5t30 15t33.5 5z" />
    <glyph glyph-name="Odieresis" unicode="&#xd6;" horiz-adv-x="700" 
d="M662 304q0 -78 -23.5 -138t-65.5 -100.5t-99 -61.5t-124 -21t-124 21t-98.5 61.5t-65 100.5t-23.5 138t24 137.5t66 100t98.5 61.5t122.5 21t123 -21t99 -61.5t66 -100t24 -137.5zM500 304q0 96 -40.5 144.5t-109.5 48.5q-68 0 -109 -48.5t-41 -144.5q0 -97 40.5 -145.5
t109.5 -48.5t109.5 48.5t40.5 145.5zM323 744q0 -32 -21.5 -53.5t-56.5 -21.5t-56 21.5t-21 53.5t21 54.5t56 22.5t56.5 -22.5t21.5 -54.5zM530 744q0 -32 -21 -53.5t-56 -21.5t-56.5 21.5t-21.5 53.5t21.5 54.5t56.5 22.5t56 -22.5t21 -54.5z" />
    <glyph glyph-name="multiply" unicode="&#xd7;" horiz-adv-x="502" 
d="M342 286l126 -143q-9 -32 -30 -50.5t-50 -18.5q-11 0 -24.5 6t-24.5 19l-89 106l-129 -137q-35 6 -59 28t-24 47q0 20 25 45l99 103l-128 132q4 13 12 26.5t18.5 23.5t23 16.5t25.5 6.5q25 0 43 -21l99 -107l126 132q28 -8 49.5 -29.5t21.5 -49.5q0 -22 -24 -46z" />
    <glyph glyph-name="Oslash" unicode="&#xd8;" horiz-adv-x="700" 
d="M662 304q0 -78 -23.5 -138t-65.5 -100.5t-99 -61.5t-124 -21q-54 0 -101.5 14.5t-86.5 41.5l-55 -57q-32 8 -50.5 24t-18.5 41q0 16 8.5 30t30.5 34l10 9q-48 77 -48 184q0 78 24 137.5t66 100t98.5 61.5t122.5 21q51 0 98 -14.5t86 -41.5l54 57q32 -8 50.5 -25.5
t18.5 -38.5q0 -17 -11.5 -32.5t-28.5 -32.5l-7 -6q25 -38 38.5 -84t13.5 -102zM504 304q0 42 -9 75l-233 -242q36 -27 88 -27q68 0 111 49t43 145zM196 304q0 -40 8 -75l232 242q-37 26 -86 26q-68 0 -111 -48.5t-43 -144.5z" />
    <glyph glyph-name="Ugrave" unicode="&#xd9;" horiz-adv-x="661" 
d="M330 -17q-62 0 -110.5 17t-82.5 48t-52 74.5t-18 97.5v388q11 2 31.5 5t41.5 3q45 0 64.5 -15t19.5 -59v-319q0 -54 29.5 -83.5t76.5 -29.5q48 0 77.5 29.5t29.5 83.5v385q11 2 31.5 5t41.5 3q45 0 64.5 -15t19.5 -59v-322q0 -54 -18 -97.5t-52 -74.5t-83 -48t-111 -17z
M164 745q-1 4 -1 10.5v9.5q0 33 18.5 52t46.5 19q18 0 34 -8.5t33 -25.5l86 -88q-4 -32 -23 -47t-41 -15q-19 0 -33 6.5t-28 17.5z" />
    <glyph glyph-name="Uacute" unicode="&#xda;" horiz-adv-x="661" 
d="M330 -17q-62 0 -110.5 17t-82.5 48t-52 74.5t-18 97.5v388q11 2 31.5 5t41.5 3q45 0 64.5 -15t19.5 -59v-319q0 -54 29.5 -83.5t76.5 -29.5q48 0 77.5 29.5t29.5 83.5v385q11 2 31.5 5t41.5 3q45 0 64.5 -15t19.5 -59v-322q0 -54 -18 -97.5t-52 -74.5t-83 -48t-111 -17z
M405 841q38 0 59.5 -18.5t21.5 -45.5q0 -19 -9 -34t-34 -31l-97 -61q-36 0 -55 16t-19 38q0 12 4 22.5t18 22.5z" />
    <glyph glyph-name="Ucircumflex" unicode="&#xdb;" horiz-adv-x="661" 
d="M330 -17q-62 0 -110.5 17t-82.5 48t-52 74.5t-18 97.5v388q11 2 31.5 5t41.5 3q45 0 64.5 -15t19.5 -59v-319q0 -54 29.5 -83.5t76.5 -29.5q48 0 77.5 29.5t29.5 83.5v385q11 2 31.5 5t41.5 3q45 0 64.5 -15t19.5 -59v-322q0 -54 -18 -97.5t-52 -74.5t-83 -48t-111 -17z
M335 737q-23 -21 -46.5 -43.5t-46.5 -42.5q-29 0 -48 16t-19 41q0 20 9.5 33.5t33.5 32.5l35 29q26 20 45.5 29t38.5 9q24 0 43.5 -9.5t39.5 -29.5l81 -84q0 -32 -16.5 -48t-45.5 -16q-19 0 -34 11.5t-38 35.5z" />
    <glyph glyph-name="Udieresis" unicode="&#xdc;" horiz-adv-x="661" 
d="M330 -17q-62 0 -110.5 17t-82.5 48t-52 74.5t-18 97.5v388q11 2 31.5 5t41.5 3q45 0 64.5 -15t19.5 -59v-319q0 -54 29.5 -83.5t76.5 -29.5q48 0 77.5 29.5t29.5 83.5v385q11 2 31.5 5t41.5 3q45 0 64.5 -15t19.5 -59v-322q0 -54 -18 -97.5t-52 -74.5t-83 -48t-111 -17z
M302 744q0 -32 -21.5 -53.5t-56.5 -21.5t-56 21.5t-21 53.5t21 54.5t56 22.5t56.5 -22.5t21.5 -54.5zM509 744q0 -32 -21 -53.5t-56 -21.5t-56.5 21.5t-21.5 53.5t21.5 54.5t56.5 22.5t56 -22.5t21 -54.5z" />
    <glyph glyph-name="Yacute" unicode="&#xdd;" horiz-adv-x="569" 
d="M555 544q0 -12 -8.5 -34t-29.5 -61t-56.5 -99t-89.5 -147v-202q-11 -3 -30.5 -5.5t-40.5 -2.5q-47 0 -65 16t-18 56v139q-26 38 -56 85.5t-59 96t-54 95.5t-40 84q11 17 31.5 31t50.5 14q35 0 57 -14.5t42 -54.5q2 -3 10 -18.5t18.5 -36t22.5 -44.5t22.5 -44.5
t18.5 -35.5t10 -18h5q16 33 29.5 63t26.5 59.5t26.5 60t28.5 66.5q16 8 35.5 12.5t36.5 4.5q32 0 54 -17t22 -49zM351 841q38 0 59.5 -18.5t21.5 -45.5q0 -19 -9 -34t-34 -31l-97 -61q-36 0 -55 16t-19 38q0 12 4 22.5t18 22.5z" />
    <glyph glyph-name="Thorn" unicode="&#xde;" horiz-adv-x="577" 
d="M66 608q11 2 31.5 5t40.5 3q45 0 65 -15.5t20 -58.5v-24h81q61 0 106.5 -15t75.5 -43t45 -66.5t15 -86.5q0 -96 -60.5 -154t-181.5 -58h-81v-94q-11 -3 -31 -5.5t-42 -2.5q-47 0 -65.5 16t-18.5 58v541zM222 219h63q48 0 75 21.5t27 66.5t-27 66t-75 21h-63v-175z" />
    <glyph glyph-name="germandbls" unicode="&#xdf;" horiz-adv-x="615" 
d="M212 0q-10 -2 -28.5 -5t-39.5 -3q-45 0 -65 15t-20 57v394q0 56 18.5 97t50.5 68t75 40.5t93 13.5q52 0 95.5 -15t75 -43.5t49 -68.5t17.5 -91q0 -23 -8 -38t-27 -25l-36 -17q-15 -8 -23.5 -17t-8.5 -22q0 -12 8.5 -21t24.5 -17q31 -16 53.5 -32t37.5 -34.5t22 -41
t7 -51.5q0 -39 -14 -69t-38.5 -50t-58 -30.5t-73.5 -10.5q-59 0 -95 18.5t-36 54.5q0 21 9 36.5t23 24.5q14 -9 31.5 -15t39.5 -6q26 0 40.5 12.5t14.5 32.5t-11 32.5t-37 26.5q-51 28 -77.5 59.5t-26.5 82.5q0 40 24.5 69.5t67.5 46.5l15 6q0 38 -23.5 63.5t-61.5 25.5
q-37 0 -60.5 -23.5t-23.5 -71.5v-458v0z" />
    <glyph glyph-name="agrave" unicode="&#xe0;" horiz-adv-x="535" 
d="M256 97q22 0 43.5 4.5t32.5 11.5v92l-82 -7q-32 -3 -51.5 -14.5t-19.5 -34.5q0 -24 18 -38t59 -14zM250 496q52 0 94.5 -10.5t72.5 -32.5t46.5 -56t16.5 -80v-226q0 -26 -13.5 -41.5t-32.5 -26.5q-31 -19 -76 -29t-102 -10q-103 0 -164 39.5t-61 120.5q0 69 41 105
t126 45l133 14v11q0 32 -26 47t-75 15q-38 0 -74.5 -9t-65.5 -21q-12 8 -20.5 24.5t-8.5 35.5q0 44 46 63q29 11 67.5 16.5t75.5 5.5zM114 644q-1 4 -1.5 10.5t-0.5 10.5q0 32 19 51t47 19q18 0 35.5 -8t31.5 -25l89 -112q-4 -32 -23 -47t-41 -15q-19 0 -32 5.5t-27 18.5z
" />
    <glyph glyph-name="aacute" unicode="&#xe1;" horiz-adv-x="535" 
d="M256 97q22 0 43.5 4.5t32.5 11.5v92l-82 -7q-32 -3 -51.5 -14.5t-19.5 -34.5q0 -24 18 -38t59 -14zM250 496q52 0 94.5 -10.5t72.5 -32.5t46.5 -56t16.5 -80v-226q0 -26 -13.5 -41.5t-32.5 -26.5q-31 -19 -76 -29t-102 -10q-103 0 -164 39.5t-61 120.5q0 69 41 105
t126 45l133 14v11q0 32 -26 47t-75 15q-38 0 -74.5 -9t-65.5 -21q-12 8 -20.5 24.5t-8.5 35.5q0 44 46 63q29 11 67.5 16.5t75.5 5.5zM319 740q46 -1 69.5 -20.5t23.5 -45.5q0 -21 -9 -35t-31 -33l-94 -80q-40 0 -60.5 18.5t-20.5 41.5q0 11 4.5 21t17.5 24z" />
    <glyph glyph-name="acircumflex" unicode="&#xe2;" horiz-adv-x="535" 
d="M256 97q22 0 43.5 4.5t32.5 11.5v92l-82 -7q-32 -3 -51.5 -14.5t-19.5 -34.5q0 -24 18 -38t59 -14zM250 496q52 0 94.5 -10.5t72.5 -32.5t46.5 -56t16.5 -80v-226q0 -26 -13.5 -41.5t-32.5 -26.5q-31 -19 -76 -29t-102 -10q-103 0 -164 39.5t-61 120.5q0 69 41 105
t126 45l133 14v11q0 32 -26 47t-75 15q-38 0 -74.5 -9t-65.5 -21q-12 8 -20.5 24.5t-8.5 35.5q0 44 46 63q29 11 67.5 16.5t75.5 5.5zM265 624q-13 -14 -23.5 -25.5t-20 -22.5t-19 -21.5t-19.5 -23.5q-35 1 -56 16.5t-21 41.5q0 19 10 32t30 33l39 40q17 17 36.5 28t45.5 11
q24 0 44 -9t45 -40l74 -90q0 -25 -15 -43t-45 -18q-18 0 -32 10t-28 27z" />
    <glyph glyph-name="atilde" unicode="&#xe3;" horiz-adv-x="535" 
d="M256 97q22 0 43.5 4.5t32.5 11.5v92l-82 -7q-32 -3 -51.5 -14.5t-19.5 -34.5q0 -24 18 -38t59 -14zM250 496q52 0 94.5 -10.5t72.5 -32.5t46.5 -56t16.5 -80v-226q0 -26 -13.5 -41.5t-32.5 -26.5q-31 -19 -76 -29t-102 -10q-103 0 -164 39.5t-61 120.5q0 69 41 105
t126 45l133 14v11q0 32 -26 47t-75 15q-38 0 -74.5 -9t-65.5 -21q-12 8 -20.5 24.5t-8.5 35.5q0 44 46 63q29 11 67.5 16.5t75.5 5.5zM180 703q21 0 40.5 -4.5t37.5 -10.5t33.5 -10.5t27.5 -4.5q21 0 32 12.5t16 22.5h5q29 0 50.5 -20t21.5 -52q0 -42 -26.5 -62t-66.5 -20
q-24 0 -44 4.5t-37.5 10.5t-32 10.5t-26.5 4.5q-21 0 -32 -12t-16 -23h-4q-29 0 -51 19.5t-22 52.5q0 21 8.5 36.5t22 25.5t30 15t33.5 5z" />
    <glyph glyph-name="adieresis" unicode="&#xe4;" horiz-adv-x="535" 
d="M256 97q22 0 43.5 4.5t32.5 11.5v92l-82 -7q-32 -3 -51.5 -14.5t-19.5 -34.5q0 -24 18 -38t59 -14zM250 496q52 0 94.5 -10.5t72.5 -32.5t46.5 -56t16.5 -80v-226q0 -26 -13.5 -41.5t-32.5 -26.5q-31 -19 -76 -29t-102 -10q-103 0 -164 39.5t-61 120.5q0 69 41 105
t126 45l133 14v11q0 32 -26 47t-75 15q-38 0 -74.5 -9t-65.5 -21q-12 8 -20.5 24.5t-8.5 35.5q0 44 46 63q29 11 67.5 16.5t75.5 5.5zM244 624q0 -32 -21.5 -53.5t-56.5 -21.5t-56 21.5t-21 53.5t21 54.5t56 22.5t56.5 -22.5t21.5 -54.5zM451 624q0 -32 -21 -53.5t-56 -21.5
t-56.5 21.5t-21.5 53.5t21.5 54.5t56.5 22.5t56 -22.5t21 -54.5z" />
    <glyph glyph-name="aring" unicode="&#xe5;" horiz-adv-x="535" 
d="M256 97q22 0 43.5 4.5t32.5 11.5v92l-82 -7q-32 -3 -51.5 -14.5t-19.5 -34.5q0 -24 18 -38t59 -14zM250 496q52 0 94.5 -10.5t72.5 -32.5t46.5 -56t16.5 -80v-226q0 -26 -13.5 -41.5t-32.5 -26.5q-31 -19 -76 -29t-102 -10q-103 0 -164 39.5t-61 120.5q0 69 41 105
t126 45l133 14v11q0 32 -26 47t-75 15q-38 0 -74.5 -9t-65.5 -21q-12 8 -20.5 24.5t-8.5 35.5q0 44 46 63q29 11 67.5 16.5t75.5 5.5zM138 635q0 46 34 77.5t93 31.5q62 0 96.5 -31.5t34.5 -77.5q0 -45 -34.5 -76t-96.5 -31q-59 0 -93 31t-34 76zM231 635q0 -17 10.5 -26.5
t24.5 -9.5q16 0 26 9.5t10 26.5t-10 27t-26 10q-14 0 -24.5 -10t-10.5 -27z" />
    <glyph glyph-name="ae" unicode="&#xe6;" horiz-adv-x="827" 
d="M250 496q109 0 159 -57q32 29 71.5 43t83.5 14q51 0 93.5 -15.5t73 -43.5t47.5 -67t17 -85q0 -32 -17 -48t-48 -21l-260 -39q14 -42 49 -59.5t81 -17.5q42 0 79 11.5t60 25.5q15 -10 25 -26t10 -35q0 -23 -14 -40t-38.5 -28.5t-58 -17t-73.5 -5.5q-98 0 -162 49
q-3 -3 -7 -6t-8 -5q-30 -17 -66 -28t-93 -11q-103 0 -163 39.5t-60 120.5q0 69 41 105t126 45l133 14v11q0 32 -26 47t-75 15q-38 0 -74.5 -9t-65.5 -21q-12 8 -20.5 24.5t-8.5 35.5q0 23 11 37.5t35 25.5q28 11 67 16.5t76 5.5zM256 97q22 0 43.5 4.5t32.5 11.5v92l-82 -7
q-32 -3 -51.5 -14.5t-19.5 -34.5q0 -24 18 -38t59 -14zM564 383q-42 0 -70.5 -26.5t-33.5 -76.5l191 31q-2 13 -7.5 26t-16 23t-26.5 16.5t-37 6.5z" />
    <glyph glyph-name="ccedilla" unicode="&#xe7;" horiz-adv-x="487" 
d="M319 375q-54 0 -92 -34.5t-38 -101.5t36.5 -100t92.5 -33q32 0 56.5 8.5t41.5 17.5q17 -13 26.5 -27.5t9.5 -35.5q0 -29 -25 -50t-70 -29q19 -32 19 -74q0 -51 -31.5 -83.5t-86.5 -32.5q-39 0 -62.5 18.5t-23.5 52.5q0 14 5 29h11q32 0 46 15t14 38q0 8 -2.5 18t-7.5 19
q-94 15 -149 77.5t-55 171.5q0 65 21 113t57 80t84 48t101 16q69 0 108.5 -25t39.5 -63q0 -18 -8.5 -33t-20.5 -26q-18 10 -42.5 18t-54.5 8z" />
    <glyph glyph-name="egrave" unicode="&#xe8;" horiz-adv-x="543" 
d="M186 177q14 -42 49 -59.5t81 -17.5q42 0 79 11.5t60 25.5q15 -10 25 -26t10 -35q0 -23 -14 -40t-38.5 -28.5t-58 -17t-73.5 -5.5q-59 0 -109 16.5t-86 49t-56.5 81.5t-20.5 115q0 64 20.5 111t55 78t79 45.5t91.5 14.5q51 0 93.5 -15.5t73 -43.5t47.5 -67t17 -85
q0 -32 -17 -48t-48 -21zM281 383q-43 0 -71.5 -26.5t-33.5 -76.5l191 31q-2 26 -23 49t-63 23zM120 644q-1 4 -1.5 10.5t-0.5 10.5q0 32 19 51t47 19q18 0 35.5 -8t31.5 -25l89 -112q-4 -32 -23 -47t-41 -15q-19 0 -32 5.5t-27 18.5z" />
    <glyph glyph-name="eacute" unicode="&#xe9;" horiz-adv-x="543" 
d="M186 177q14 -42 49 -59.5t81 -17.5q42 0 79 11.5t60 25.5q15 -10 25 -26t10 -35q0 -23 -14 -40t-38.5 -28.5t-58 -17t-73.5 -5.5q-59 0 -109 16.5t-86 49t-56.5 81.5t-20.5 115q0 64 20.5 111t55 78t79 45.5t91.5 14.5q51 0 93.5 -15.5t73 -43.5t47.5 -67t17 -85
q0 -32 -17 -48t-48 -21zM281 383q-43 0 -71.5 -26.5t-33.5 -76.5l191 31q-2 26 -23 49t-63 23zM336 740q46 -1 69.5 -20.5t23.5 -45.5q0 -21 -9 -35t-31 -33l-94 -80q-40 0 -60.5 18.5t-20.5 41.5q0 11 4.5 21t17.5 24z" />
    <glyph glyph-name="ecircumflex" unicode="&#xea;" horiz-adv-x="543" 
d="M186 177q14 -42 49 -59.5t81 -17.5q42 0 79 11.5t60 25.5q15 -10 25 -26t10 -35q0 -23 -14 -40t-38.5 -28.5t-58 -17t-73.5 -5.5q-59 0 -109 16.5t-86 49t-56.5 81.5t-20.5 115q0 64 20.5 111t55 78t79 45.5t91.5 14.5q51 0 93.5 -15.5t73 -43.5t47.5 -67t17 -85
q0 -32 -17 -48t-48 -21zM281 383q-43 0 -71.5 -26.5t-33.5 -76.5l191 31q-2 26 -23 49t-63 23zM281 624q-13 -14 -23.5 -25.5t-20 -22.5t-19 -21.5t-19.5 -23.5q-35 1 -56 16.5t-21 41.5q0 19 10 32t30 33l39 40q17 17 36.5 28t45.5 11q24 0 44 -9t45 -40l74 -90
q0 -25 -15 -43t-45 -18q-18 0 -32 10t-28 27z" />
    <glyph glyph-name="edieresis" unicode="&#xeb;" horiz-adv-x="543" 
d="M186 177q14 -42 49 -59.5t81 -17.5q42 0 79 11.5t60 25.5q15 -10 25 -26t10 -35q0 -23 -14 -40t-38.5 -28.5t-58 -17t-73.5 -5.5q-59 0 -109 16.5t-86 49t-56.5 81.5t-20.5 115q0 64 20.5 111t55 78t79 45.5t91.5 14.5q51 0 93.5 -15.5t73 -43.5t47.5 -67t17 -85
q0 -32 -17 -48t-48 -21zM281 383q-43 0 -71.5 -26.5t-33.5 -76.5l191 31q-2 26 -23 49t-63 23zM245 624q0 -32 -21.5 -53.5t-56.5 -21.5t-56 21.5t-21 53.5t21 54.5t56 22.5t56.5 -22.5t21.5 -54.5zM452 624q0 -32 -21 -53.5t-56 -21.5t-56.5 21.5t-21.5 53.5t21.5 54.5
t56.5 22.5t56 -22.5t21 -54.5z" />
    <glyph glyph-name="igrave" unicode="&#xec;" horiz-adv-x="274" 
d="M145 -8q-45 0 -64.5 15t-19.5 57v411q10 3 28 6t40 3q45 0 64.5 -15t19.5 -57v-412q-10 -2 -28 -5t-40 -3zM-20 644q-1 4 -1.5 10.5t-0.5 10.5q0 32 19 51t47 19q18 0 35.5 -8t31.5 -25l89 -112q-4 -32 -23 -47t-41 -15q-19 0 -32 5.5t-27 18.5z" />
    <glyph glyph-name="iacute" unicode="&#xed;" horiz-adv-x="274" 
d="M145 -8q-45 0 -64.5 15t-19.5 57v411q10 3 28 6t40 3q45 0 64.5 -15t19.5 -57v-412q-10 -2 -28 -5t-40 -3zM195 740q46 -1 69.5 -20.5t23.5 -45.5q0 -21 -9 -35t-31 -33l-94 -80q-40 0 -60.5 18.5t-20.5 41.5q0 11 4.5 21t17.5 24z" />
    <glyph glyph-name="icircumflex" unicode="&#xee;" horiz-adv-x="274" 
d="M145 -8q-45 0 -64.5 15t-19.5 57v411q10 3 28 6t40 3q45 0 64.5 -15t19.5 -57v-412q-10 -2 -28 -5t-40 -3zM137 624q-13 -14 -23.5 -25.5t-20 -22.5t-19 -21.5t-19.5 -23.5q-35 1 -56 16.5t-21 41.5q0 19 10 32t30 33l39 40q17 17 36.5 28t45.5 11q24 0 44 -9t45 -40
l74 -90q0 -25 -15 -43t-45 -18q-18 0 -32 10t-28 27z" />
    <glyph glyph-name="idieresis" unicode="&#xef;" horiz-adv-x="274" 
d="M145 -8q-45 0 -64.5 15t-19.5 57v411q10 3 28 6t40 3q45 0 64.5 -15t19.5 -57v-412q-10 -2 -28 -5t-40 -3zM110 624q0 -32 -21.5 -53.5t-56.5 -21.5t-56 21.5t-21 53.5t21 54.5t56 22.5t56.5 -22.5t21.5 -54.5zM317 624q0 -32 -21 -53.5t-56 -21.5t-56.5 21.5t-21.5 53.5
t21.5 54.5t56.5 22.5t56 -22.5t21 -54.5z" />
    <glyph glyph-name="eth" unicode="&#xf0;" horiz-adv-x="576" 
d="M418 571q53 -62 87.5 -143t34.5 -172q0 -60 -15 -110t-45.5 -85.5t-78 -55.5t-112.5 -20q-59 0 -106 16.5t-80 47.5t-51 75t-18 100q0 58 19.5 101t52 71.5t73.5 42.5t85 14q47 0 85 -16q-13 23 -27.5 42.5t-34.5 38.5l-145 -53q-14 10 -24 26.5t-10 35.5q0 31 31 43
l48 20q-18 8 -37.5 15t-40.5 14q2 42 23 62t52 20q35 0 73 -14t75 -39l110 45q13 -9 24.5 -26t11.5 -37t-9.5 -30.5t-24.5 -17.5zM383 226q0 21 -2 40t-6 36q-17 17 -38 26.5t-44 9.5q-50 0 -76 -31.5t-26 -82.5q0 -55 25 -86.5t74 -31.5q48 0 70.5 32t22.5 88z" />
    <glyph glyph-name="ntilde" unicode="&#xf1;" horiz-adv-x="579" 
d="M369 307q0 35 -21 52t-56 17q-24 0 -44 -6t-37 -15v-354q-10 -3 -28 -5.5t-40 -2.5q-45 0 -65 14.5t-20 56.5v309q0 26 11 42t31 30q32 23 82.5 37t111.5 14q109 0 168.5 -48t59.5 -137v-310q-11 -3 -29 -5.5t-40 -2.5q-45 0 -64.5 14.5t-19.5 56.5v243zM205 703
q21 0 40.5 -4.5t37.5 -10.5t33.5 -10.5t27.5 -4.5q21 0 32 12.5t16 22.5h5q29 0 50.5 -20t21.5 -52q0 -42 -26.5 -62t-66.5 -20q-24 0 -44 4.5t-37.5 10.5t-32 10.5t-26.5 4.5q-21 0 -32 -12t-16 -23h-4q-29 0 -51 19.5t-22 52.5q0 21 8.5 36.5t22 25.5t30 15t33.5 5z" />
    <glyph glyph-name="ograve" unicode="&#xf2;" horiz-adv-x="580" 
d="M545 241q0 -59 -18 -106.5t-51.5 -80.5t-80.5 -51t-105 -18t-105.5 17.5t-81 50.5t-51.5 80.5t-18 107.5q0 58 18.5 105.5t52 80.5t81 51t104.5 18t104 -18t80.5 -51.5t52 -80.5t18.5 -105zM290 376q-47 0 -73 -35t-26 -100q0 -67 25.5 -101.5t73.5 -34.5t73.5 35
t25.5 101q0 64 -26 99.5t-73 35.5zM158 644q-1 4 -1.5 10.5t-0.5 10.5q0 32 19 51t47 19q18 0 35.5 -8t31.5 -25l89 -112q-4 -32 -23 -47t-41 -15q-19 0 -32 5.5t-27 18.5z" />
    <glyph glyph-name="oacute" unicode="&#xf3;" horiz-adv-x="580" 
d="M545 241q0 -59 -18 -106.5t-51.5 -80.5t-80.5 -51t-105 -18t-105.5 17.5t-81 50.5t-51.5 80.5t-18 107.5q0 58 18.5 105.5t52 80.5t81 51t104.5 18t104 -18t80.5 -51.5t52 -80.5t18.5 -105zM290 376q-47 0 -73 -35t-26 -100q0 -67 25.5 -101.5t73.5 -34.5t73.5 35
t25.5 101q0 64 -26 99.5t-73 35.5zM327 740q46 -1 69.5 -20.5t23.5 -45.5q0 -21 -9 -35t-31 -33l-94 -80q-40 0 -60.5 18.5t-20.5 41.5q0 11 4.5 21t17.5 24z" />
    <glyph glyph-name="ocircumflex" unicode="&#xf4;" horiz-adv-x="580" 
d="M545 241q0 -59 -18 -106.5t-51.5 -80.5t-80.5 -51t-105 -18t-105.5 17.5t-81 50.5t-51.5 80.5t-18 107.5q0 58 18.5 105.5t52 80.5t81 51t104.5 18t104 -18t80.5 -51.5t52 -80.5t18.5 -105zM290 376q-47 0 -73 -35t-26 -100q0 -67 25.5 -101.5t73.5 -34.5t73.5 35
t25.5 101q0 64 -26 99.5t-73 35.5zM288 624q-13 -14 -23.5 -25.5t-20 -22.5t-19 -21.5t-19.5 -23.5q-35 1 -56 16.5t-21 41.5q0 19 10 32t30 33l39 40q17 17 36.5 28t45.5 11q24 0 44 -9t45 -40l74 -90q0 -25 -15 -43t-45 -18q-18 0 -32 10t-28 27z" />
    <glyph glyph-name="otilde" unicode="&#xf5;" horiz-adv-x="580" 
d="M545 241q0 -59 -18 -106.5t-51.5 -80.5t-80.5 -51t-105 -18t-105.5 17.5t-81 50.5t-51.5 80.5t-18 107.5q0 58 18.5 105.5t52 80.5t81 51t104.5 18t104 -18t80.5 -51.5t52 -80.5t18.5 -105zM290 376q-47 0 -73 -35t-26 -100q0 -67 25.5 -101.5t73.5 -34.5t73.5 35
t25.5 101q0 64 -26 99.5t-73 35.5zM207 703q21 0 40.5 -4.5t37.5 -10.5t33.5 -10.5t27.5 -4.5q21 0 32 12.5t16 22.5h5q29 0 50.5 -20t21.5 -52q0 -42 -26.5 -62t-66.5 -20q-24 0 -44 4.5t-37.5 10.5t-32 10.5t-26.5 4.5q-21 0 -32 -12t-16 -23h-4q-29 0 -51 19.5t-22 52.5
q0 21 8.5 36.5t22 25.5t30 15t33.5 5z" />
    <glyph glyph-name="odieresis" unicode="&#xf6;" horiz-adv-x="580" 
d="M545 241q0 -59 -18 -106.5t-51.5 -80.5t-80.5 -51t-105 -18t-105.5 17.5t-81 50.5t-51.5 80.5t-18 107.5q0 58 18.5 105.5t52 80.5t81 51t104.5 18t104 -18t80.5 -51.5t52 -80.5t18.5 -105zM290 376q-47 0 -73 -35t-26 -100q0 -67 25.5 -101.5t73.5 -34.5t73.5 35
t25.5 101q0 64 -26 99.5t-73 35.5zM263 624q0 -32 -21.5 -53.5t-56.5 -21.5t-56 21.5t-21 53.5t21 54.5t56 22.5t56.5 -22.5t21.5 -54.5zM470 624q0 -32 -21 -53.5t-56 -21.5t-56.5 21.5t-21.5 53.5t21.5 54.5t56.5 22.5t56 -22.5t21 -54.5z" />
    <glyph glyph-name="divide" unicode="&#xf7;" horiz-adv-x="524" 
d="M49 230q-6 10 -10.5 25t-4.5 33q0 33 15.5 48t40.5 15h385q6 -9 10.5 -25.5t4.5 -34.5q0 -33 -15 -47t-41 -14h-385zM191 123q0 32 20 53.5t54 21.5t53.5 -21.5t19.5 -53.5t-19.5 -53t-53.5 -21t-54 21t-20 53zM191 458q0 32 20 53.5t54 21.5t53.5 -21.5t19.5 -53.5
t-19.5 -53t-53.5 -21t-54 21t-20 53z" />
    <glyph glyph-name="oslash" unicode="&#xf8;" horiz-adv-x="580" 
d="M545 241q0 -59 -18 -106.5t-51.5 -80.5t-80.5 -51t-105 -18q-30 0 -57.5 5t-51.5 13l-44 -64q-11 0 -22 4t-20 10t-15 14.5t-6 17.5q0 10 8 21l28 41q-37 33 -56.5 82t-19.5 112q0 58 18.5 105.5t52 80.5t81 51t104.5 18q30 0 57.5 -5.5t51.5 -15.5l45 67q9 0 20 -3.5
t20.5 -9.5t16 -14t6.5 -18t-7 -20l-31 -45q36 -34 56 -82.5t20 -108.5zM399 241q0 40 -13 71l-135 -202q9 -3 18.5 -5t20.5 -2q48 0 78.5 34.5t30.5 103.5zM290 377q-47 0 -78 -34t-31 -102q0 -44 13 -73l135 202q-9 3 -18.5 5t-20.5 2z" />
    <glyph glyph-name="ugrave" unicode="&#xf9;" horiz-adv-x="576" 
d="M520 100q0 -47 -41 -72q-32 -20 -79 -31.5t-104 -11.5q-54 0 -98 11.5t-75.5 36.5t-49 63t-17.5 92v291q11 3 29 6t40 3q45 0 64.5 -15t19.5 -57v-227q0 -45 23 -64.5t65 -19.5q26 0 43.5 4.5t26.5 9.5v360q10 3 28 6t40 3q45 0 65 -15t20 -57v-316zM122 644
q-1 4 -1.5 10.5t-0.5 10.5q0 32 19 51t47 19q18 0 35.5 -8t31.5 -25l89 -112q-4 -32 -23 -47t-41 -15q-19 0 -32 5.5t-27 18.5z" />
    <glyph glyph-name="uacute" unicode="&#xfa;" horiz-adv-x="576" 
d="M520 100q0 -47 -41 -72q-32 -20 -79 -31.5t-104 -11.5q-54 0 -98 11.5t-75.5 36.5t-49 63t-17.5 92v291q11 3 29 6t40 3q45 0 64.5 -15t19.5 -57v-227q0 -45 23 -64.5t65 -19.5q26 0 43.5 4.5t26.5 9.5v360q10 3 28 6t40 3q45 0 65 -15t20 -57v-316zM355 740
q46 -1 69.5 -20.5t23.5 -45.5q0 -21 -9 -35t-31 -33l-94 -80q-40 0 -60.5 18.5t-20.5 41.5q0 11 4.5 21t17.5 24z" />
    <glyph glyph-name="ucircumflex" unicode="&#xfb;" horiz-adv-x="576" 
d="M520 100q0 -47 -41 -72q-32 -20 -79 -31.5t-104 -11.5q-54 0 -98 11.5t-75.5 36.5t-49 63t-17.5 92v291q11 3 29 6t40 3q45 0 64.5 -15t19.5 -57v-227q0 -45 23 -64.5t65 -19.5q26 0 43.5 4.5t26.5 9.5v360q10 3 28 6t40 3q45 0 65 -15t20 -57v-316zM286 624
q-13 -14 -23.5 -25.5t-20 -22.5t-19 -21.5t-19.5 -23.5q-35 1 -56 16.5t-21 41.5q0 19 10 32t30 33l39 40q17 17 36.5 28t45.5 11q24 0 44 -9t45 -40l74 -90q0 -25 -15 -43t-45 -18q-18 0 -32 10t-28 27z" />
    <glyph glyph-name="udieresis" unicode="&#xfc;" horiz-adv-x="576" 
d="M520 100q0 -47 -41 -72q-32 -20 -79 -31.5t-104 -11.5q-54 0 -98 11.5t-75.5 36.5t-49 63t-17.5 92v291q11 3 29 6t40 3q45 0 64.5 -15t19.5 -57v-227q0 -45 23 -64.5t65 -19.5q26 0 43.5 4.5t26.5 9.5v360q10 3 28 6t40 3q45 0 65 -15t20 -57v-316zM259 624
q0 -32 -21.5 -53.5t-56.5 -21.5t-56 21.5t-21 53.5t21 54.5t56 22.5t56.5 -22.5t21.5 -54.5zM466 624q0 -32 -21 -53.5t-56 -21.5t-56.5 21.5t-21.5 53.5t21.5 54.5t56.5 22.5t56 -22.5t21 -54.5z" />
    <glyph glyph-name="yacute" unicode="&#xfd;" horiz-adv-x="539" 
d="M136 120q-23 50 -52.5 130.5t-61.5 208.5q12 13 33.5 22.5t46.5 9.5q32 0 52 -13.5t31 -49.5q22 -73 44.5 -144t45.5 -143h4q12 34 25 74.5t25 84t22.5 88t18.5 86.5q31 17 65 17q32 0 55 -14t23 -46q0 -36 -12.5 -91.5t-33 -116t-46 -120t-52.5 -104.5
q-56 -95 -101 -141.5t-91 -46.5q-37 0 -61 22.5t-29 57.5q32 28 66.5 65.5t58.5 75.5q-17 5 -35.5 22.5t-40.5 65.5zM310 740q46 -1 69.5 -20.5t23.5 -45.5q0 -21 -9 -35t-31 -33l-94 -80q-40 0 -60.5 18.5t-20.5 41.5q0 11 4.5 21t17.5 24z" />
    <glyph glyph-name="thorn" unicode="&#xfe;" horiz-adv-x="581" 
d="M299 -15q-26 0 -48 4.5t-40 11.5v-170q-10 -3 -28 -6t-40 -3q-45 0 -65 15t-20 57v757q11 3 29 6t40 3q45 0 64.5 -15t19.5 -57v-108q19 6 42 11t51 5q49 0 93 -14.5t77 -45.5t52 -79t19 -114q0 -63 -18.5 -111.5t-51.5 -81t-78 -49t-98 -16.5zM276 106q54 0 83.5 34
t29.5 103q0 71 -30 102t-78 31q-17 0 -34.5 -4t-35.5 -13v-236q14 -8 30 -12.5t35 -4.5z" />
    <glyph glyph-name="ydieresis" unicode="&#xff;" horiz-adv-x="539" 
d="M136 120q-23 50 -52.5 130.5t-61.5 208.5q12 13 33.5 22.5t46.5 9.5q32 0 52 -13.5t31 -49.5q22 -73 44.5 -144t45.5 -143h4q12 34 25 74.5t25 84t22.5 88t18.5 86.5q31 17 65 17q32 0 55 -14t23 -46q0 -36 -12.5 -91.5t-33 -116t-46 -120t-52.5 -104.5
q-56 -95 -101 -141.5t-91 -46.5q-37 0 -61 22.5t-29 57.5q32 28 66.5 65.5t58.5 75.5q-17 5 -35.5 22.5t-40.5 65.5zM240 624q0 -32 -21.5 -53.5t-56.5 -21.5t-56 21.5t-21 53.5t21 54.5t56 22.5t56.5 -22.5t21.5 -54.5zM447 624q0 -32 -21 -53.5t-56 -21.5t-56.5 21.5
t-21.5 53.5t21.5 54.5t56.5 22.5t56 -22.5t21 -54.5z" />
    <glyph glyph-name="Amacron" unicode="&#x100;" horiz-adv-x="620" 
d="M160 692q-5 10 -10 25t-5 32q0 33 14 46t37 13h258q8 -9 11.5 -24t3.5 -32q0 -33 -13.5 -46.5t-36.5 -13.5h-259zM407 133h-196q-11 -36 -20.5 -71t-16.5 -62q-13 -4 -27 -7t-34 -3q-44 0 -66.5 15.5t-22.5 44.5q0 14 4 27t9 30q7 27 20 67t28.5 86.5t32.5 95.5t33 93.5
t29 81.5t22 59q15 9 46.5 17t62.5 8q45 0 79.5 -12.5t44.5 -41.5q19 -53 41 -123t44.5 -144t43.5 -146t37 -129q-11 -13 -32.5 -21t-51.5 -8q-43 0 -60.5 15t-25.5 47zM310 475q-14 -45 -34.5 -102.5t-38.5 -117.5h143q-17 63 -34.5 120.5t-29.5 99.5h-6z" />
    <glyph glyph-name="amacron" unicode="&#x101;" horiz-adv-x="535" 
d="M256 97q22 0 43.5 4.5t32.5 11.5v92l-82 -7q-32 -3 -51.5 -14.5t-19.5 -34.5q0 -24 18 -38t59 -14zM250 496q52 0 94.5 -10.5t72.5 -32.5t46.5 -56t16.5 -80v-226q0 -26 -13.5 -41.5t-32.5 -26.5q-31 -19 -76 -29t-102 -10q-103 0 -164 39.5t-61 120.5q0 69 41 105
t126 45l133 14v11q0 32 -26 47t-75 15q-38 0 -74.5 -9t-65.5 -21q-12 8 -20.5 24.5t-8.5 35.5q0 44 46 63q29 11 67.5 16.5t75.5 5.5zM128 565q-5 10 -10 25t-5 31q0 33 13.5 46.5t36.5 13.5h258q8 -10 11.5 -24.5t3.5 -31.5q0 -33 -13.5 -46.5t-36.5 -13.5h-258z" />
    <glyph glyph-name="Abreve" unicode="&#x102;" horiz-adv-x="620" 
d="M407 133h-196q-11 -36 -20.5 -71t-16.5 -62q-13 -4 -27 -7t-34 -3q-44 0 -66.5 15.5t-22.5 44.5q0 14 4 27t9 30q7 27 20 67t28.5 86.5t32.5 95.5t33 93.5t29 81.5t22 59q15 9 46.5 17t62.5 8q45 0 79.5 -12.5t44.5 -41.5q19 -53 41 -123t44.5 -144t43.5 -146t37 -129
q-11 -13 -32.5 -21t-51.5 -8q-43 0 -60.5 15t-25.5 47zM310 475q-14 -45 -34.5 -102.5t-38.5 -117.5h143q-17 63 -34.5 120.5t-29.5 99.5h-6zM313 774q31 0 50.5 15.5t25.5 39.5q5 1 9 1h9q35 0 53 -20t18 -46q0 -42 -42.5 -72t-122.5 -30q-81 0 -123 30t-42 72
q0 26 17.5 46t53.5 20h9t9 -1q5 -24 25 -39.5t51 -15.5z" />
    <glyph glyph-name="abreve" unicode="&#x103;" horiz-adv-x="535" 
d="M256 97q22 0 43.5 4.5t32.5 11.5v92l-82 -7q-32 -3 -51.5 -14.5t-19.5 -34.5q0 -24 18 -38t59 -14zM250 496q52 0 94.5 -10.5t72.5 -32.5t46.5 -56t16.5 -80v-226q0 -26 -13.5 -41.5t-32.5 -26.5q-31 -19 -76 -29t-102 -10q-103 0 -164 39.5t-61 120.5q0 69 41 105
t126 45l133 14v11q0 32 -26 47t-75 15q-38 0 -74.5 -9t-65.5 -21q-12 8 -20.5 24.5t-8.5 35.5q0 44 46 63q29 11 67.5 16.5t75.5 5.5zM268 663q31 0 50.5 15.5t25.5 39.5q5 1 9 1h9q35 0 53 -20t18 -46q0 -42 -42.5 -72t-122.5 -30q-81 0 -123 30t-42 72q0 26 17.5 46
t53.5 20h9t9 -1q5 -24 25 -39.5t51 -15.5z" />
    <glyph glyph-name="Aogonek" unicode="&#x104;" horiz-adv-x="620" 
d="M407 133h-196q-11 -36 -20.5 -71t-16.5 -62q-13 -4 -27 -7t-34 -3q-44 0 -66.5 15.5t-22.5 44.5q0 14 4 27t9 30q7 27 20 67t28.5 86.5t32.5 95.5t33 93.5t29 81.5t22 59q15 9 46.5 17t62.5 8q45 0 79.5 -12.5t44.5 -41.5q19 -53 41 -123t44.5 -144t43.5 -146t37 -129
q-14 -15 -35 -21q-9 -9 -15 -20t-6 -26q0 -46 56 -46h7q3 -8 5 -17.5t2 -20.5q0 -26 -18.5 -46.5t-67.5 -20.5q-54 0 -88.5 27.5t-34.5 76.5q0 36 16.5 62t34.5 37q-11 8 -16.5 19.5t-9.5 28.5zM310 475q-14 -45 -34.5 -102.5t-38.5 -117.5h143q-17 63 -34.5 120.5
t-29.5 99.5h-6z" />
    <glyph glyph-name="aogonek" unicode="&#x105;" horiz-adv-x="535" 
d="M250 496q52 0 94.5 -10.5t72.5 -32.5t46.5 -56t16.5 -80v-226q0 -23 -11.5 -38t-28.5 -26q-20 -17 -31.5 -33t-11.5 -42q0 -46 56 -46h7q3 -8 5 -17.5t2 -20.5q0 -26 -18.5 -46.5t-68.5 -20.5q-53 0 -87.5 27.5t-34.5 76.5q0 27 10 47t24 33q-8 0 -17.5 -0.5t-18.5 -0.5
q-103 0 -164 39.5t-61 120.5q0 69 41 105t126 45l133 14v11q0 32 -26 47t-75 15q-38 0 -74.5 -9t-65.5 -21q-12 8 -20.5 24.5t-8.5 35.5q0 44 46 63q29 11 67.5 16.5t75.5 5.5zM256 97q22 0 43.5 4.5t32.5 11.5v92l-82 -7q-32 -3 -51.5 -14.5t-19.5 -34.5q0 -24 18 -38
t59 -14z" />
    <glyph glyph-name="Cacute" unicode="&#x106;" horiz-adv-x="574" 
d="M539 522q0 -23 -12 -40.5t-28 -27.5q-26 17 -56.5 30t-72.5 13q-80 0 -125 -50.5t-45 -143.5q0 -96 47.5 -144.5t130.5 -48.5q43 0 73.5 11.5t56.5 27.5q15 -12 24.5 -30.5t9.5 -41.5q0 -20 -10.5 -37.5t-36.5 -29.5q-20 -10 -54 -18.5t-84 -8.5q-67 0 -125 19t-101 58
t-67.5 99.5t-24.5 143.5q0 78 24.5 138t66.5 100.5t98 61.5t120 21q91 0 141 -29t50 -73zM394 841q38 0 59.5 -18.5t21.5 -45.5q0 -19 -9 -34t-34 -31l-97 -61q-36 0 -55 16t-19 38q0 12 4 22.5t18 22.5z" />
    <glyph glyph-name="cacute" unicode="&#x107;" horiz-adv-x="487" 
d="M319 375q-54 0 -92 -34.5t-38 -101.5t36.5 -100t92.5 -33q32 0 56.5 8.5t41.5 17.5q17 -13 26.5 -27.5t9.5 -35.5q0 -38 -40 -61t-111 -23q-60 0 -109.5 16t-84.5 48t-54 79.5t-19 110.5q0 65 21 113t57 80t84 48t101 16q69 0 108.5 -25t39.5 -63q0 -18 -8.5 -33
t-20.5 -26q-18 10 -42.5 18t-54.5 8zM332 740q46 -1 69.5 -20.5t23.5 -45.5q0 -21 -9 -35t-31 -33l-94 -80q-40 0 -60.5 18.5t-20.5 41.5q0 11 4.5 21t17.5 24z" />
    <glyph glyph-name="Ccircumflex" unicode="&#x108;" horiz-adv-x="574" 
d="M539 522q0 -23 -12 -40.5t-28 -27.5q-26 17 -56.5 30t-72.5 13q-80 0 -125 -50.5t-45 -143.5q0 -96 47.5 -144.5t130.5 -48.5q43 0 73.5 11.5t56.5 27.5q15 -12 24.5 -30.5t9.5 -41.5q0 -20 -10.5 -37.5t-36.5 -29.5q-20 -10 -54 -18.5t-84 -8.5q-67 0 -125 19t-101 58
t-67.5 99.5t-24.5 143.5q0 78 24.5 138t66.5 100.5t98 61.5t120 21q91 0 141 -29t50 -73zM336 737q-23 -21 -46.5 -43.5t-46.5 -42.5q-29 0 -48 16t-19 41q0 20 9.5 33.5t33.5 32.5l35 29q26 20 45.5 29t38.5 9q24 0 43.5 -9.5t39.5 -29.5l81 -84q0 -32 -16.5 -48t-45.5 -16
q-19 0 -34 11.5t-38 35.5z" />
    <glyph glyph-name="ccircumflex" unicode="&#x109;" horiz-adv-x="487" 
d="M319 375q-54 0 -92 -34.5t-38 -101.5t36.5 -100t92.5 -33q32 0 56.5 8.5t41.5 17.5q17 -13 26.5 -27.5t9.5 -35.5q0 -38 -40 -61t-111 -23q-60 0 -109.5 16t-84.5 48t-54 79.5t-19 110.5q0 65 21 113t57 80t84 48t101 16q69 0 108.5 -25t39.5 -63q0 -18 -8.5 -33
t-20.5 -26q-18 10 -42.5 18t-54.5 8zM275 624q-13 -14 -23.5 -25.5t-20 -22.5t-19 -21.5t-19.5 -23.5q-35 1 -56 16.5t-21 41.5q0 19 10 32t30 33l39 40q17 17 36.5 28t45.5 11q24 0 44 -9t45 -40l74 -90q0 -25 -15 -43t-45 -18q-18 0 -32 10t-28 27z" />
    <glyph glyph-name="Cdotaccent" unicode="&#x10a;" horiz-adv-x="574" 
d="M539 522q0 -23 -12 -40.5t-28 -27.5q-26 17 -56.5 30t-72.5 13q-80 0 -125 -50.5t-45 -143.5q0 -96 47.5 -144.5t130.5 -48.5q43 0 73.5 11.5t56.5 27.5q15 -12 24.5 -30.5t9.5 -41.5q0 -20 -10.5 -37.5t-36.5 -29.5q-20 -10 -54 -18.5t-84 -8.5q-67 0 -125 19t-101 58
t-67.5 99.5t-24.5 143.5q0 78 24.5 138t66.5 100.5t98 61.5t120 21q91 0 141 -29t50 -73zM421 754q0 -34 -22.5 -57t-59.5 -23q-38 0 -60.5 23t-22.5 57q0 35 22.5 57.5t60.5 22.5q37 0 59.5 -22.5t22.5 -57.5z" />
    <glyph glyph-name="cdotaccent" unicode="&#x10b;" horiz-adv-x="487" 
d="M319 375q-54 0 -92 -34.5t-38 -101.5t36.5 -100t92.5 -33q32 0 56.5 8.5t41.5 17.5q17 -13 26.5 -27.5t9.5 -35.5q0 -38 -40 -61t-111 -23q-60 0 -109.5 16t-84.5 48t-54 79.5t-19 110.5q0 65 21 113t57 80t84 48t101 16q69 0 108.5 -25t39.5 -63q0 -18 -8.5 -33
t-20.5 -26q-18 10 -42.5 18t-54.5 8zM359 627q0 -34 -22.5 -57t-59.5 -23q-38 0 -60.5 23t-22.5 57q0 35 22.5 57.5t60.5 22.5q37 0 59.5 -22.5t22.5 -57.5z" />
    <glyph glyph-name="Ccaron" unicode="&#x10c;" horiz-adv-x="574" 
d="M539 522q0 -23 -12 -40.5t-28 -27.5q-26 17 -56.5 30t-72.5 13q-80 0 -125 -50.5t-45 -143.5q0 -96 47.5 -144.5t130.5 -48.5q43 0 73.5 11.5t56.5 27.5q15 -12 24.5 -30.5t9.5 -41.5q0 -20 -10.5 -37.5t-36.5 -29.5q-20 -10 -54 -18.5t-84 -8.5q-67 0 -125 19t-101 58
t-67.5 99.5t-24.5 143.5q0 78 24.5 138t66.5 100.5t98 61.5t120 21q91 0 141 -29t50 -73zM342 754q23 21 47 44t47 43q29 -1 48.5 -17t19.5 -41q0 -20 -9.5 -34t-34.5 -33l-34 -29q-26 -20 -44 -27.5t-40 -7.5q-27 0 -47.5 10.5t-38.5 27.5l-83 77q0 34 16 52.5t45 18.5
q19 0 34.5 -10t41.5 -38z" />
    <glyph glyph-name="ccaron" unicode="&#x10d;" horiz-adv-x="487" 
d="M319 375q-54 0 -92 -34.5t-38 -101.5t36.5 -100t92.5 -33q32 0 56.5 8.5t41.5 17.5q17 -13 26.5 -27.5t9.5 -35.5q0 -38 -40 -61t-111 -23q-60 0 -109.5 16t-84.5 48t-54 79.5t-19 110.5q0 65 21 113t57 80t84 48t101 16q69 0 108.5 -25t39.5 -63q0 -18 -8.5 -33
t-20.5 -26q-18 10 -42.5 18t-54.5 8zM273 642l90 87q35 -1 56 -17.5t21 -42.5q0 -20 -10.5 -33.5t-33.5 -32.5l-48 -42q-35 -29 -73 -29q-12 0 -22 1.5t-21 7t-23.5 14.5t-28.5 24l-76 69q-1 2 -1 6v8q0 24 14 44.5t44 20.5q9 0 16.5 -1.5t16 -6.5t18 -13.5t22.5 -21.5z" />
    <glyph glyph-name="Dcaron" unicode="&#x10e;" horiz-adv-x="663" 
d="M463 303q0 97 -47.5 144.5t-123.5 47.5q-18 0 -34 -1t-32 -4v-372q13 -3 31.5 -4.5t35.5 -1.5q78 0 124 47.5t46 143.5zM625 305q0 -80 -24 -140t-67.5 -100t-105 -60t-136.5 -20q-17 0 -38.5 1t-44 3.5t-45.5 7t-42 11.5q-52 19 -52 68v476q0 20 10.5 31t30.5 18
q41 13 87 17t84 4q77 0 140 -19t108 -58.5t70 -99t25 -140.5zM335 754q23 21 47 44t47 43q29 -1 48.5 -17t19.5 -41q0 -20 -9.5 -34t-34.5 -33l-34 -29q-26 -20 -44 -27.5t-40 -7.5q-27 0 -47.5 10.5t-38.5 27.5l-83 77q0 34 16 52.5t45 18.5q19 0 34.5 -10t41.5 -38z" />
    <glyph glyph-name="dcaron" unicode="&#x10f;" horiz-adv-x="744" 
d="M286 496q23 0 43.5 -3.5t37.5 -9.5v168q11 3 29 6t40 3q45 0 64.5 -15t19.5 -57v-487q0 -24 -10 -40.5t-32 -30.5q-28 -17 -72 -31t-101 -14q-126 0 -198.5 63.5t-72.5 190.5q0 66 19.5 114t53.5 80t80 47.5t99 15.5zM368 361q-13 6 -28.5 10.5t-32.5 4.5q-54 0 -86 -33
t-32 -105q0 -69 30.5 -100.5t84.5 -31.5q21 0 37.5 4.5t26.5 10.5v240zM691 497q-15 -17 -33 -23.5t-38 -6.5q-34 0 -58 21q20 41 30.5 80t15.5 76q14 8 33.5 13t38.5 5q29 0 47.5 -11t18.5 -37q0 -12 -5 -28t-13 -32.5t-18 -31.5t-19 -25z" />
    <glyph glyph-name="Dcroat" unicode="&#x110;" horiz-adv-x="698" 
d="M660 305q0 -80 -24 -140t-67.5 -100t-105 -60t-136.5 -20q-17 0 -38.5 1t-44 3.5t-45.5 7t-42 11.5q-52 19 -52 68v168h-75q-7 10 -12 25t-5 35q0 32 14.5 47.5t40.5 15.5h37v185q0 20 10.5 31t30.5 18q41 13 87 17t84 4q77 0 140 -19t108 -58.5t70 -99t25 -140.5z
M498 303q0 97 -47.5 144.5t-123.5 47.5q-18 0 -34 -1t-32 -4v-123h99q6 -10 11 -25t5 -34q0 -33 -14.5 -48.5t-39.5 -15.5h-61v-126q13 -3 31.5 -4.5t35.5 -1.5q78 0 124 47.5t46 143.5z" />
    <glyph glyph-name="dcroat" unicode="&#x111;" horiz-adv-x="584" 
d="M520 101q0 -24 -10 -40.5t-32 -30.5q-28 -17 -72 -31t-101 -14q-126 0 -198.5 63.5t-72.5 190.5q0 66 19.5 114t53.5 80t80 47.5t99 15.5q23 0 43.5 -3.5t37.5 -9.5v46h-77q-4 8 -8 19t-4 24q0 23 10.5 33.5t28.5 10.5h50v60q11 3 29 5.5t40 2.5q44 0 63.5 -14.5
t20.5 -53.5h53q3 -6 7.5 -17t4.5 -25q0 -45 -40 -45h-25v-428zM368 361q-13 6 -28.5 10.5t-32.5 4.5q-54 0 -86 -33t-32 -105q0 -69 30.5 -100.5t84.5 -31.5q21 0 37.5 4.5t26.5 10.5v240z" />
    <glyph glyph-name="Emacron" unicode="&#x112;" horiz-adv-x="547" 
d="M155 -2q-38 0 -60.5 22.5t-22.5 60.5v442q0 38 22.5 60.5t60.5 22.5h331q6 -10 11 -25t5 -34q0 -33 -14.5 -49t-40.5 -16h-222v-112h232q6 -10 11 -25t5 -34q0 -33 -14 -48.5t-40 -15.5h-194v-125h265q6 -10 11 -26t5 -35q0 -33 -14.5 -48t-39.5 -15h-297zM152 692
q-5 10 -10 25t-5 31q0 33 13.5 46.5t36.5 13.5h258q8 -10 11.5 -24.5t3.5 -31.5q0 -33 -13.5 -46.5t-36.5 -13.5h-258z" />
    <glyph glyph-name="emacron" unicode="&#x113;" horiz-adv-x="543" 
d="M186 177q14 -42 49 -59.5t81 -17.5q42 0 79 11.5t60 25.5q15 -10 25 -26t10 -35q0 -23 -14 -40t-38.5 -28.5t-58 -17t-73.5 -5.5q-59 0 -109 16.5t-86 49t-56.5 81.5t-20.5 115q0 64 20.5 111t55 78t79 45.5t91.5 14.5q51 0 93.5 -15.5t73 -43.5t47.5 -67t17 -85
q0 -32 -17 -48t-48 -21zM281 383q-43 0 -71.5 -26.5t-33.5 -76.5l191 31q-2 26 -23 49t-63 23zM134 565q-5 10 -10 25t-5 31q0 33 13.5 46.5t36.5 13.5h258q8 -10 11.5 -24.5t3.5 -31.5q0 -33 -13.5 -46.5t-36.5 -13.5h-258z" />
    <glyph glyph-name="Ebreve" unicode="&#x114;" horiz-adv-x="547" 
d="M155 -2q-38 0 -60.5 22.5t-22.5 60.5v442q0 38 22.5 60.5t60.5 22.5h331q6 -10 11 -25t5 -34q0 -33 -14.5 -49t-40.5 -16h-222v-112h232q6 -10 11 -25t5 -34q0 -33 -14 -48.5t-40 -15.5h-194v-125h265q6 -10 11 -26t5 -35q0 -33 -14.5 -48t-39.5 -15h-297zM298 783
q31 0 50.5 15.5t25.5 39.5q5 1 9 1h9q35 0 53 -20t18 -46q0 -42 -42.5 -72t-122.5 -30q-81 0 -123 30t-42 72q0 26 17.5 46t53.5 20h9t9 -1q5 -24 25 -39.5t51 -15.5z" />
    <glyph glyph-name="ebreve" unicode="&#x115;" horiz-adv-x="543" 
d="M186 177q14 -42 49 -59.5t81 -17.5q42 0 79 11.5t60 25.5q15 -10 25 -26t10 -35q0 -23 -14 -40t-38.5 -28.5t-58 -17t-73.5 -5.5q-59 0 -109 16.5t-86 49t-56.5 81.5t-20.5 115q0 64 20.5 111t55 78t79 45.5t91.5 14.5q51 0 93.5 -15.5t73 -43.5t47.5 -67t17 -85
q0 -32 -17 -48t-48 -21zM281 383q-43 0 -71.5 -26.5t-33.5 -76.5l191 31q-2 26 -23 49t-63 23zM287 663q31 0 50.5 15.5t25.5 39.5q5 1 9 1h9q35 0 53 -20t18 -46q0 -42 -42.5 -72t-122.5 -30q-81 0 -123 30t-42 72q0 26 17.5 46t53.5 20h9t9 -1q5 -24 25 -39.5t51 -15.5z
" />
    <glyph glyph-name="Edotaccent" unicode="&#x116;" horiz-adv-x="547" 
d="M155 -2q-38 0 -60.5 22.5t-22.5 60.5v442q0 38 22.5 60.5t60.5 22.5h331q6 -10 11 -25t5 -34q0 -33 -14.5 -49t-40.5 -16h-222v-112h232q6 -10 11 -25t5 -34q0 -33 -14 -48.5t-40 -15.5h-194v-125h265q6 -10 11 -26t5 -35q0 -33 -14.5 -48t-39.5 -15h-297zM382 754
q0 -34 -22.5 -57t-59.5 -23q-38 0 -60.5 23t-22.5 57q0 35 22.5 57.5t60.5 22.5q37 0 59.5 -22.5t22.5 -57.5z" />
    <glyph glyph-name="edotaccent" unicode="&#x117;" horiz-adv-x="543" 
d="M186 177q14 -42 49 -59.5t81 -17.5q42 0 79 11.5t60 25.5q15 -10 25 -26t10 -35q0 -23 -14 -40t-38.5 -28.5t-58 -17t-73.5 -5.5q-59 0 -109 16.5t-86 49t-56.5 81.5t-20.5 115q0 64 20.5 111t55 78t79 45.5t91.5 14.5q51 0 93.5 -15.5t73 -43.5t47.5 -67t17 -85
q0 -32 -17 -48t-48 -21zM281 383q-43 0 -71.5 -26.5t-33.5 -76.5l191 31q-2 26 -23 49t-63 23zM365 627q0 -34 -22.5 -57t-59.5 -23q-38 0 -60.5 23t-22.5 57q0 35 22.5 57.5t60.5 22.5q37 0 59.5 -22.5t22.5 -57.5z" />
    <glyph glyph-name="Eogonek" unicode="&#x118;" horiz-adv-x="547" 
d="M155 -2q-38 0 -60.5 22.5t-22.5 60.5v442q0 38 22.5 60.5t60.5 22.5h331q6 -10 11 -25t5 -34q0 -33 -14.5 -49t-40.5 -16h-222v-112h232q6 -10 11 -25t5 -34q0 -33 -14 -48.5t-40 -15.5h-194v-125h265q6 -10 11 -26t5 -35q0 -32 -13 -46.5t-36 -16.5q-10 -8 -16 -19.5
t-6 -26.5q0 -46 56 -46h7q3 -8 5 -17.5t2 -20.5q0 -26 -18.5 -46.5t-67.5 -20.5q-54 0 -88.5 27.5t-34.5 76.5q0 32 13.5 56t30.5 37h-185v0z" />
    <glyph glyph-name="eogonek" unicode="&#x119;" horiz-adv-x="543" 
d="M186 177q14 -42 49 -59.5t81 -17.5q42 0 79 11.5t60 25.5q15 -10 25 -26t10 -35q0 -29 -21.5 -48.5t-58.5 -29.5q-9 -9 -15 -20t-6 -26q0 -46 56 -46h7q3 -8 5 -17.5t2 -20.5q0 -26 -18.5 -46.5t-67.5 -20.5q-54 0 -88.5 27.5t-34.5 76.5q0 26 9 46.5t22 34.5
q-54 3 -99.5 21t-78 50.5t-51 80t-18.5 109.5q0 64 20.5 111t55 78t79 45.5t91.5 14.5q51 0 93.5 -15.5t73 -43.5t47.5 -67t17 -85q0 -32 -17 -48t-48 -21zM281 383q-43 0 -71.5 -26.5t-33.5 -76.5l191 31q-2 26 -23 49t-63 23z" />
    <glyph glyph-name="Ecaron" unicode="&#x11a;" horiz-adv-x="547" 
d="M155 -2q-38 0 -60.5 22.5t-22.5 60.5v442q0 38 22.5 60.5t60.5 22.5h331q6 -10 11 -25t5 -34q0 -33 -14.5 -49t-40.5 -16h-222v-112h232q6 -10 11 -25t5 -34q0 -33 -14 -48.5t-40 -15.5h-194v-125h265q6 -10 11 -26t5 -35q0 -33 -14.5 -48t-39.5 -15h-297zM298 754
q23 21 47 44t47 43q29 -1 48.5 -17t19.5 -41q0 -20 -9.5 -34t-34.5 -33l-34 -29q-26 -20 -44 -27.5t-40 -7.5q-27 0 -47.5 10.5t-38.5 27.5l-83 77q0 34 16 52.5t45 18.5q19 0 34.5 -10t41.5 -38z" />
    <glyph glyph-name="ecaron" unicode="&#x11b;" horiz-adv-x="543" 
d="M186 177q14 -42 49 -59.5t81 -17.5q42 0 79 11.5t60 25.5q15 -10 25 -26t10 -35q0 -23 -14 -40t-38.5 -28.5t-58 -17t-73.5 -5.5q-59 0 -109 16.5t-86 49t-56.5 81.5t-20.5 115q0 64 20.5 111t55 78t79 45.5t91.5 14.5q51 0 93.5 -15.5t73 -43.5t47.5 -67t17 -85
q0 -32 -17 -48t-48 -21zM281 383q-43 0 -71.5 -26.5t-33.5 -76.5l191 31q-2 26 -23 49t-63 23zM287 642l90 87q35 -1 56 -17.5t21 -42.5q0 -20 -10.5 -33.5t-33.5 -32.5l-48 -42q-35 -29 -73 -29q-12 0 -22 1.5t-21 7t-23.5 14.5t-28.5 24l-76 69q-1 2 -1 6v8q0 24 14 44.5
t44 20.5q9 0 16.5 -1.5t16 -6.5t18 -13.5t22.5 -21.5z" />
    <glyph glyph-name="Gcircumflex" unicode="&#x11c;" horiz-adv-x="659" 
d="M606 92q0 -29 -11 -43t-35 -28q-14 -8 -34 -15t-44.5 -12t-51 -8t-52.5 -3q-72 0 -133.5 18.5t-107.5 57.5t-72 99t-26 144q0 79 26.5 139.5t72 101t107 61t132.5 20.5q93 0 148 -29t55 -74q0 -23 -12 -40.5t-28 -27.5q-25 16 -62.5 30t-88.5 14q-42 0 -76.5 -13.5
t-59.5 -38.5t-39 -61t-14 -81q0 -49 13.5 -85.5t37.5 -60.5t57.5 -36t72.5 -12q24 0 43.5 5t30.5 10v113h-115q-6 10 -11 26t-5 34q0 32 15 47t39 15h168q28 0 44 -15.5t16 -43.5v-208zM353 737q-23 -21 -46.5 -43.5t-46.5 -42.5q-29 0 -48 16t-19 41q0 20 9.5 33.5
t33.5 32.5l35 29q26 20 45.5 29t38.5 9q24 0 43.5 -9.5t39.5 -29.5l81 -84q0 -32 -16.5 -48t-45.5 -16q-19 0 -34 11.5t-38 35.5z" />
    <glyph glyph-name="gcircumflex" unicode="&#x11d;" horiz-adv-x="561" 
d="M360 39q-20 -9 -45 -14.5t-57 -5.5q-45 0 -85.5 12.5t-70.5 40.5t-48 73t-18 110q0 59 18 104t51.5 75.5t80 46t103.5 15.5q56 0 102.5 -14.5t72.5 -31.5q19 -13 30 -29.5t11 -41.5v-377q0 -52 -19 -90t-52.5 -62.5t-78.5 -36.5t-97 -12q-54 0 -93.5 9t-62.5 23
q-34 24 -34 64q0 21 9 38.5t20 25.5q28 -16 64.5 -27.5t77.5 -11.5q56 0 88.5 19.5t32.5 64.5v33zM285 134q24 0 41.5 6t31.5 16v205q-12 5 -26.5 10t-36.5 5q-48 0 -77.5 -29.5t-29.5 -92.5q0 -34 7.5 -57t20.5 -37t30.5 -20t38.5 -6zM288 624q-13 -14 -23.5 -25.5
t-20 -22.5t-19 -21.5t-19.5 -23.5q-35 1 -56 16.5t-21 41.5q0 19 10 32t30 33l39 40q17 17 36.5 28t45.5 11q24 0 44 -9t45 -40l74 -90q0 -25 -15 -43t-45 -18q-18 0 -32 10t-28 27z" />
    <glyph glyph-name="Gbreve" unicode="&#x11e;" horiz-adv-x="659" 
d="M606 92q0 -29 -11 -43t-35 -28q-14 -8 -34 -15t-44.5 -12t-51 -8t-52.5 -3q-72 0 -133.5 18.5t-107.5 57.5t-72 99t-26 144q0 79 26.5 139.5t72 101t107 61t132.5 20.5q93 0 148 -29t55 -74q0 -23 -12 -40.5t-28 -27.5q-25 16 -62.5 30t-88.5 14q-42 0 -76.5 -13.5
t-59.5 -38.5t-39 -61t-14 -81q0 -49 13.5 -85.5t37.5 -60.5t57.5 -36t72.5 -12q24 0 43.5 5t30.5 10v113h-115q-6 10 -11 26t-5 34q0 32 15 47t39 15h168q28 0 44 -15.5t16 -43.5v-208zM347 783q31 0 50.5 15.5t25.5 39.5q5 1 9 1h9q35 0 53 -20t18 -46q0 -42 -42.5 -72
t-122.5 -30q-81 0 -123 30t-42 72q0 26 17.5 46t53.5 20h9t9 -1q5 -24 25 -39.5t51 -15.5z" />
    <glyph glyph-name="gbreve" unicode="&#x11f;" horiz-adv-x="561" 
d="M360 39q-20 -9 -45 -14.5t-57 -5.5q-45 0 -85.5 12.5t-70.5 40.5t-48 73t-18 110q0 59 18 104t51.5 75.5t80 46t103.5 15.5q56 0 102.5 -14.5t72.5 -31.5q19 -13 30 -29.5t11 -41.5v-377q0 -52 -19 -90t-52.5 -62.5t-78.5 -36.5t-97 -12q-54 0 -93.5 9t-62.5 23
q-34 24 -34 64q0 21 9 38.5t20 25.5q28 -16 64.5 -27.5t77.5 -11.5q56 0 88.5 19.5t32.5 64.5v33zM285 134q24 0 41.5 6t31.5 16v205q-12 5 -26.5 10t-36.5 5q-48 0 -77.5 -29.5t-29.5 -92.5q0 -34 7.5 -57t20.5 -37t30.5 -20t38.5 -6zM282 663q31 0 50.5 15.5t25.5 39.5
q5 1 9 1h9q35 0 53 -20t18 -46q0 -42 -42.5 -72t-122.5 -30q-81 0 -123 30t-42 72q0 26 17.5 46t53.5 20h9t9 -1q5 -24 25 -39.5t51 -15.5z" />
    <glyph glyph-name="Gdotaccent" unicode="&#x120;" horiz-adv-x="659" 
d="M606 92q0 -29 -11 -43t-35 -28q-14 -8 -34 -15t-44.5 -12t-51 -8t-52.5 -3q-72 0 -133.5 18.5t-107.5 57.5t-72 99t-26 144q0 79 26.5 139.5t72 101t107 61t132.5 20.5q93 0 148 -29t55 -74q0 -23 -12 -40.5t-28 -27.5q-25 16 -62.5 30t-88.5 14q-42 0 -76.5 -13.5
t-59.5 -38.5t-39 -61t-14 -81q0 -49 13.5 -85.5t37.5 -60.5t57.5 -36t72.5 -12q24 0 43.5 5t30.5 10v113h-115q-6 10 -11 26t-5 34q0 32 15 47t39 15h168q28 0 44 -15.5t16 -43.5v-208zM450 754q0 -34 -22.5 -57t-59.5 -23q-38 0 -60.5 23t-22.5 57q0 35 22.5 57.5
t60.5 22.5q37 0 59.5 -22.5t22.5 -57.5z" />
    <glyph glyph-name="gdotaccent" unicode="&#x121;" horiz-adv-x="561" 
d="M360 39q-20 -9 -45 -14.5t-57 -5.5q-45 0 -85.5 12.5t-70.5 40.5t-48 73t-18 110q0 59 18 104t51.5 75.5t80 46t103.5 15.5q56 0 102.5 -14.5t72.5 -31.5q19 -13 30 -29.5t11 -41.5v-377q0 -52 -19 -90t-52.5 -62.5t-78.5 -36.5t-97 -12q-54 0 -93.5 9t-62.5 23
q-34 24 -34 64q0 21 9 38.5t20 25.5q28 -16 64.5 -27.5t77.5 -11.5q56 0 88.5 19.5t32.5 64.5v33zM285 134q24 0 41.5 6t31.5 16v205q-12 5 -26.5 10t-36.5 5q-48 0 -77.5 -29.5t-29.5 -92.5q0 -34 7.5 -57t20.5 -37t30.5 -20t38.5 -6zM367 627q0 -34 -22.5 -57t-59.5 -23
q-38 0 -60.5 23t-22.5 57q0 35 22.5 57.5t60.5 22.5q37 0 59.5 -22.5t22.5 -57.5z" />
    <glyph glyph-name="Gcommaaccent" unicode="&#x122;" horiz-adv-x="659" 
d="M606 92q0 -29 -11 -43t-35 -28q-14 -8 -34 -15t-44.5 -12t-51 -8t-52.5 -3q-72 0 -133.5 18.5t-107.5 57.5t-72 99t-26 144q0 79 26.5 139.5t72 101t107 61t132.5 20.5q93 0 148 -29t55 -74q0 -23 -12 -40.5t-28 -27.5q-25 16 -62.5 30t-88.5 14q-42 0 -76.5 -13.5
t-59.5 -38.5t-39 -61t-14 -81q0 -49 13.5 -85.5t37.5 -60.5t57.5 -36t72.5 -12q24 0 43.5 5t30.5 10v113h-115q-6 10 -11 26t-5 34q0 32 15 47t39 15h168q28 0 44 -15.5t16 -43.5v-208zM376 -219q-15 -17 -33 -23.5t-38 -6.5q-36 0 -58 21q20 41 30.5 79.5t15.5 76.5
q14 8 33 13t39 5q29 0 47.5 -11t18.5 -37q0 -12 -5 -28t-13 -32.5t-18 -31.5t-19 -25z" />
    <glyph glyph-name="gcommaaccent" unicode="&#x123;" horiz-adv-x="561" 
d="M272 707q15 16 30.5 21.5t33.5 5.5t34.5 -6t29.5 -15q-20 -41 -31 -79.5t-16 -76.5q-14 -8 -31.5 -13.5t-37.5 -5.5q-31 0 -49.5 10.5t-18.5 32.5q0 14 5 31.5t12.5 35t17.5 33.5t21 26zM360 39q-20 -9 -45 -14.5t-57 -5.5q-45 0 -85.5 12.5t-70.5 40.5t-48 73t-18 110
q0 59 18 104t51.5 75.5t80 46t103.5 15.5q56 0 102.5 -14.5t72.5 -31.5q19 -13 30 -29.5t11 -41.5v-377q0 -52 -19 -90t-52.5 -62.5t-78.5 -36.5t-97 -12q-54 0 -93.5 9t-62.5 23q-34 24 -34 64q0 21 9 38.5t20 25.5q28 -16 64.5 -27.5t77.5 -11.5q56 0 88.5 19.5t32.5 64.5
v33zM285 134q24 0 41.5 6t31.5 16v205q-12 5 -26.5 10t-36.5 5q-48 0 -77.5 -29.5t-29.5 -92.5q0 -34 7.5 -57t20.5 -37t30.5 -20t38.5 -6z" />
    <glyph glyph-name="Hcircumflex" unicode="&#x124;" horiz-adv-x="667" 
d="M240 1q-11 -3 -31 -5.5t-42 -2.5q-47 0 -65.5 16t-18.5 58v541q11 2 31.5 5t40.5 3q45 0 65 -15t20 -59v-176h215v242q11 2 31.5 5t41.5 3q44 0 64 -16t20 -60v-539q-11 -3 -31 -5.5t-42 -2.5q-47 0 -65.5 16t-18.5 58v175h-215v-241zM336 737q-23 -21 -46.5 -43.5
t-46.5 -42.5q-29 0 -48 16t-19 41q0 20 9.5 33.5t33.5 32.5l35 29q26 20 45.5 29t38.5 9q24 0 43.5 -9.5t39.5 -29.5l81 -84q0 -32 -16.5 -48t-45.5 -16q-19 0 -34 11.5t-38 35.5z" />
    <glyph glyph-name="hcircumflex" unicode="&#x125;" horiz-adv-x="580" 
d="M225 1q-10 -3 -28 -5.5t-40 -2.5q-45 0 -65 14.5t-20 56.5v587q11 3 29 6t40 3q45 0 64.5 -15t19.5 -57v-115q21 10 47.5 16.5t57.5 6.5q96 0 150.5 -48.5t54.5 -145.5v-301q-10 -3 -28 -5.5t-40 -2.5q-45 0 -65 14.5t-20 56.5v229q0 45 -22.5 64t-57.5 19
q-23 0 -42 -6.5t-35 -15.5v-353zM137 746q-23 -21 -46.5 -43.5t-46.5 -42.5q-29 0 -48 16t-19 41q0 20 9.5 33.5t33.5 32.5l35 29q26 20 45.5 29t38.5 9q24 0 43.5 -9.5t39.5 -29.5l81 -84q0 -32 -16.5 -48t-45.5 -16q-19 0 -34 11.5t-38 35.5z" />
    <glyph glyph-name="Hbar" unicode="&#x126;" horiz-adv-x="692" 
d="M240 1q-11 -3 -31 -5.5t-42 -2.5q-47 0 -65.5 16t-18.5 58v366h-50q-5 7 -8.5 18t-3.5 25q0 23 10.5 33.5t28.5 10.5h23v88q11 2 31.5 5t40.5 3q45 0 65 -15t20 -59v-22h215v88q11 2 31.5 5t41.5 3q44 0 64 -16t20 -60v-20h47q4 -7 8 -18t4 -24q0 -24 -10.5 -34.5
t-28.5 -10.5h-20v-432q-11 -3 -31 -5.5t-42 -2.5q-47 0 -65.5 16t-18.5 58v175h-215v-241zM455 366v67h-215v-67h215z" />
    <glyph glyph-name="hbar" unicode="&#x127;" horiz-adv-x="585" 
d="M13 529q-4 7 -8 18t-4 24q0 23 10.5 34t28.5 11h18v60q11 3 29 5.5t40 2.5q44 0 63.5 -14.5t20.5 -53.5h84q5 -7 8.5 -18.5t3.5 -24.5q0 -23 -10.5 -33.5t-28.5 -10.5h-57v-56q21 10 47.5 16.5t57.5 6.5q96 0 150.5 -48.5t54.5 -145.5v-301q-10 -3 -28 -5.5t-40 -2.5
q-45 0 -65 14.5t-20 56.5v229q0 45 -22.5 64t-57.5 19q-23 0 -42 -6.5t-35 -15.5v-353q-10 -3 -28 -5.5t-40 -2.5q-45 0 -65 14.5t-20 56.5v465h-45z" />
    <glyph glyph-name="Itilde" unicode="&#x128;" horiz-adv-x="297" 
d="M154 -7q-47 0 -65.5 16t-18.5 58v541q11 2 31.5 5t41.5 3q45 0 64.5 -15t19.5 -59v-541q-11 -3 -31 -5.5t-42 -2.5zM55 832q21 0 40.5 -4.5t37.5 -10.5t33.5 -10.5t27.5 -4.5q21 0 32 12.5t16 22.5h5q29 0 50.5 -20t21.5 -52q0 -42 -26.5 -62t-66.5 -20q-24 0 -44 4.5
t-37.5 10.5t-32 10.5t-26.5 4.5q-21 0 -32 -12t-16 -23h-4q-29 0 -51 19.5t-22 52.5q0 21 8.5 36.5t22 25.5t30 15t33.5 5z" />
    <glyph glyph-name="itilde" unicode="&#x129;" horiz-adv-x="274" 
d="M145 -8q-45 0 -64.5 15t-19.5 57v411q10 3 28 6t40 3q45 0 64.5 -15t19.5 -57v-412q-10 -2 -28 -5t-40 -3zM47 703q21 0 40.5 -4.5t37.5 -10.5t33.5 -10.5t27.5 -4.5q21 0 32 12.5t16 22.5h5q29 0 50.5 -20t21.5 -52q0 -42 -26.5 -62t-66.5 -20q-24 0 -44 4.5t-37.5 10.5
t-32 10.5t-26.5 4.5q-21 0 -32 -12t-16 -23h-4q-29 0 -51 19.5t-22 52.5q0 21 8.5 36.5t22 25.5t30 15t33.5 5z" />
    <glyph glyph-name="Imacron" unicode="&#x12a;" horiz-adv-x="297" 
d="M154 -7q-47 0 -65.5 16t-18.5 58v541q11 2 31.5 5t41.5 3q45 0 64.5 -15t19.5 -59v-541q-11 -3 -31 -5.5t-42 -2.5zM-1 692q-5 10 -10 25t-5 31q0 33 13.5 46.5t36.5 13.5h258q8 -10 11.5 -24.5t3.5 -31.5q0 -33 -13.5 -46.5t-36.5 -13.5h-258z" />
    <glyph glyph-name="imacron" unicode="&#x12b;" horiz-adv-x="274" 
d="M145 -8q-45 0 -64.5 15t-19.5 57v411q10 3 28 6t40 3q45 0 64.5 -15t19.5 -57v-412q-10 -2 -28 -5t-40 -3zM-10 565q-5 10 -10 25t-5 31q0 33 13.5 46.5t36.5 13.5h258q8 -10 11.5 -24.5t3.5 -31.5q0 -33 -13.5 -46.5t-36.5 -13.5h-258z" />
    <glyph glyph-name="Iogonek" unicode="&#x12e;" horiz-adv-x="297" 
d="M63 -89q0 31 11.5 52.5t31.5 35.5q-20 7 -28 23t-8 45v541q11 2 31.5 5t41.5 3q45 0 64.5 -15t19.5 -59v-541q-25 -23 -25 -51q0 -21 13.5 -33.5t33.5 -12.5h18q7 -18 7 -38q0 -34 -24 -52.5t-62 -18.5q-56 0 -90.5 32.5t-34.5 83.5z" />
    <glyph glyph-name="iogonek" unicode="&#x12f;" horiz-adv-x="274" 
d="M213 1q-10 -7 -18 -18.5t-8 -30.5q0 -46 55 -46h7q3 -8 5 -17.5t2 -20.5q0 -26 -18.5 -46.5t-67.5 -20.5q-53 0 -88 27.5t-35 76.5q0 34 15 58.5t32 36.5q-17 7 -25 22t-8 42v411q10 3 28 6t40 3q45 0 64.5 -15t19.5 -57v-411zM52 619q0 34 23.5 58t61.5 24t61.5 -24
t23.5 -58q0 -35 -23.5 -59t-61.5 -24t-61.5 24t-23.5 59z" />
    <glyph glyph-name="Idotaccent" unicode="&#x130;" horiz-adv-x="297" 
d="M154 -7q-47 0 -65.5 16t-18.5 58v541q11 2 31.5 5t41.5 3q45 0 64.5 -15t19.5 -59v-541q-11 -3 -31 -5.5t-42 -2.5zM226 754q0 -34 -22.5 -57t-59.5 -23q-38 0 -60.5 23t-22.5 57q0 35 22.5 57.5t60.5 22.5q37 0 59.5 -22.5t22.5 -57.5z" />
    <glyph glyph-name="dotlessi" unicode="&#x131;" horiz-adv-x="274" 
d="M213 1q-10 -3 -28 -5.5t-40 -2.5q-45 0 -64.5 15t-19.5 56v416q10 2 28 5t40 3q45 0 64.5 -15t19.5 -57v-415v0z" />
    <glyph glyph-name="Jcircumflex" unicode="&#x134;" horiz-adv-x="404" 
d="M338 174q0 -90 -50.5 -139t-143.5 -49q-54 0 -89 18t-35 63q0 19 5.5 33t12.5 22q18 -4 33.5 -6.5t32.5 -2.5q77 0 77 80v415q11 2 31.5 5t40.5 3q45 0 65 -15t20 -59v-368zM255 737q-23 -21 -46.5 -43.5t-46.5 -42.5q-29 0 -48 16t-19 41q0 20 9.5 33.5t33.5 32.5l35 29
q26 20 45.5 29t38.5 9q24 0 43.5 -9.5t39.5 -29.5l81 -84q0 -32 -16.5 -48t-45.5 -16q-19 0 -34 11.5t-38 35.5z" />
    <glyph glyph-name="jcircumflex" unicode="&#x135;" horiz-adv-x="278" 
d="M22 -80q23 14 32.5 37t9.5 55v463q11 3 29 6t40 3q45 0 65 -15t20 -57v-415q0 -67 -26 -113q-37 -64 -109 -64q-39 0 -62 24t-24 61zM130 624q-13 -14 -23.5 -25.5t-20 -22.5t-19 -21.5t-19.5 -23.5q-35 1 -56 16.5t-21 41.5q0 19 10 32t30 33l39 40q17 17 36.5 28
t45.5 11q24 0 44 -9t45 -40l74 -90q0 -25 -15 -43t-45 -18q-18 0 -32 10t-28 27z" />
    <glyph glyph-name="Kcommaaccent" unicode="&#x136;" horiz-adv-x="604" 
d="M225 1q-11 -3 -31 -6t-42 -3q-47 0 -65.5 16.5t-18.5 58.5v541q11 2 31.5 5t40.5 3q45 0 65 -15t20 -59v-180l221 250q60 0 86 -22.5t26 -54.5q0 -24 -11.5 -44.5t-37.5 -46.5l-142 -142q69 -75 124.5 -134t91.5 -95q-1 -39 -26.5 -61t-59.5 -22q-37 0 -60.5 18.5
t-45.5 43.5l-166 188v-239zM331 -219q-15 -17 -33 -23.5t-38 -6.5q-36 0 -58 21q20 41 30.5 79.5t15.5 76.5q14 8 33 13t39 5q29 0 47.5 -11t18.5 -37q0 -12 -5 -28t-13 -32.5t-18 -31.5t-19 -25z" />
    <glyph glyph-name="kcommaaccent" unicode="&#x137;" horiz-adv-x="542" 
d="M341 247l173 -168q-5 -42 -25.5 -64.5t-58.5 -22.5q-29 0 -51 14t-49 46l-119 141v-192q-10 -3 -28 -5.5t-40 -2.5q-45 0 -65 14.5t-20 56.5v587q11 3 29 6t40 3q45 0 64.5 -15t19.5 -57v-283l181 184q47 0 75 -21t28 -52q0 -27 -18.5 -47.5t-57.5 -54.5zM311 -219
q-15 -17 -33 -23.5t-38 -6.5q-36 0 -58 21q20 41 30.5 79.5t15.5 76.5q14 8 33 13t39 5q29 0 47.5 -11t18.5 -37q0 -12 -5 -28t-13 -32.5t-18 -31.5t-19 -25z" />
    <glyph glyph-name="kgreenlandic" unicode="&#x138;" horiz-adv-x="542" 
d="M211 304l185 185q47 0 75 -21t28 -52q0 -14 -4.5 -25t-14 -22.5t-24 -24.5t-34.5 -30l-81 -68l173 -167q-5 -42 -25.5 -64.5t-58.5 -22.5q-29 0 -51 14t-49 46l-119 141v-192q-10 -3 -28 -5.5t-40 -2.5q-45 0 -65 14.5t-20 56.5v416q11 2 29 5t40 3q45 0 64.5 -15
t19.5 -57v-112z" />
    <glyph glyph-name="Lacute" unicode="&#x139;" horiz-adv-x="511" 
d="M153 -2q-38 0 -60.5 22.5t-22.5 60.5v527q11 2 31.5 5t40.5 3q45 0 65 -15t20 -59v-417h240q6 -10 11.5 -26t5.5 -35q0 -33 -14.5 -49.5t-39.5 -16.5h-277zM219 841q38 0 59.5 -18.5t21.5 -45.5q0 -19 -9 -34t-34 -31l-97 -61q-36 0 -55 16t-19 38q0 12 4 22.5t18 22.5z
" />
    <glyph glyph-name="lacute" unicode="&#x13a;" horiz-adv-x="275" 
d="M216 887q38 0 59.5 -18.5t21.5 -45.5q0 -19 -9 -34t-34 -31l-97 -61q-36 0 -55 16t-19 38q0 12 4 22.5t18 22.5zM144 -7q-45 0 -64.5 14.5t-19.5 56.5v587q10 3 28.5 6t40.5 3q44 0 64 -15t20 -57v-587q-11 -3 -29 -5.5t-40 -2.5z" />
    <glyph glyph-name="Lcommaaccent" unicode="&#x13b;" horiz-adv-x="511" 
d="M153 -2q-38 0 -60.5 22.5t-22.5 60.5v527q11 2 31.5 5t40.5 3q45 0 65 -15t20 -59v-417h240q6 -10 11.5 -26t5.5 -35q0 -33 -14.5 -49.5t-39.5 -16.5h-277zM294 -219q-15 -17 -33 -23.5t-38 -6.5q-36 0 -58 21q20 41 30.5 79.5t15.5 76.5q14 8 33 13t39 5q29 0 47.5 -11
t18.5 -37q0 -12 -5 -28t-13 -32.5t-18 -31.5t-19 -25z" />
    <glyph glyph-name="lcommaaccent" unicode="&#x13c;" horiz-adv-x="277" 
d="M146 -7q-45 0 -64.5 14.5t-19.5 56.5v587q10 3 28.5 6t40.5 3q44 0 64 -15t20 -57v-587q-11 -3 -29 -5.5t-40 -2.5zM160 -219q-15 -17 -33 -23.5t-38 -6.5q-36 0 -58 21q20 41 30.5 79.5t15.5 76.5q14 8 33 13t39 5q29 0 47.5 -11t18.5 -37q0 -12 -5 -28t-13 -32.5
t-18 -31.5t-19 -25z" />
    <glyph glyph-name="Lcaron" unicode="&#x13d;" horiz-adv-x="511" 
d="M153 -2q-38 0 -60.5 22.5t-22.5 60.5v527q11 2 31.5 5t40.5 3q45 0 65 -15t20 -59v-417h240q6 -10 11.5 -26t5.5 -35q0 -33 -14.5 -49.5t-39.5 -16.5h-277zM411 450q-15 -17 -33 -23.5t-38 -6.5q-34 0 -58 21q20 41 30.5 80t15.5 76q14 8 33.5 13t38.5 5q29 0 47.5 -11
t18.5 -37q0 -12 -5 -28t-13 -32.5t-18 -31.5t-19 -25z" />
    <glyph glyph-name="lcaron" unicode="&#x13e;" horiz-adv-x="438" 
d="M146 -7q-45 0 -64.5 14.5t-19.5 56.5v587q10 3 28.5 6t40.5 3q44 0 64 -15t20 -57v-587q-11 -3 -29 -5.5t-40 -2.5zM386 497q-15 -17 -33 -23.5t-38 -6.5q-34 0 -58 21q20 41 30.5 80t15.5 76q14 8 33.5 13t38.5 5q29 0 47.5 -11t18.5 -37q0 -12 -5 -28t-13 -32.5
t-18 -31.5t-19 -25z" />
    <glyph glyph-name="Ldot" unicode="&#x13f;" horiz-adv-x="511" 
d="M153 -2q-38 0 -60.5 22.5t-22.5 60.5v527q11 2 31.5 5t40.5 3q45 0 65 -15t20 -59v-417h240q6 -10 11.5 -26t5.5 -35q0 -33 -14.5 -49.5t-39.5 -16.5h-277zM314 346q0 38 23.5 64t65.5 26q41 0 65 -26t24 -64t-24 -64t-65 -26q-42 0 -65.5 26t-23.5 64z" />
    <glyph glyph-name="ldot" unicode="&#x140;" horiz-adv-x="431" 
d="M146 -7q-45 0 -64.5 14.5t-19.5 56.5v587q10 3 28.5 6t40.5 3q44 0 64 -15t20 -57v-587q-11 -3 -29 -5.5t-40 -2.5zM265 302q0 38 23.5 64t65.5 26q41 0 65 -26t24 -64t-24 -64t-65 -26q-42 0 -65.5 26t-23.5 64z" />
    <glyph glyph-name="Lslash" unicode="&#x141;" horiz-adv-x="547" 
d="M191 -2q-38 0 -60.5 22.5t-22.5 60.5v151l-55 -23q-13 11 -28 31.5t-15 45.5q0 32 32 46l66 27v249q11 2 31.5 5t40.5 3q45 0 65 -15t20 -59v-117l103 44q13 -11 28.5 -32t15.5 -46q0 -16 -9 -27t-24 -17l-114 -48v-174h240q6 -10 11.5 -26t5.5 -35q0 -33 -14.5 -49.5
t-39.5 -16.5h-277v0z" />
    <glyph glyph-name="lslash" unicode="&#x142;" horiz-adv-x="378" 
d="M197 -7q-45 0 -64.5 14.5t-19.5 56.5v181l-60 -25q-13 11 -28 31.5t-15 46.5q0 31 32 45l71 29v279q10 3 28.5 6t40.5 3q44 0 64 -15t20 -57v-152l58 24q13 -11 28.5 -32t15.5 -46q0 -16 -9 -27t-24 -17l-69 -29v-308q-11 -3 -29 -5.5t-40 -2.5z" />
    <glyph glyph-name="Nacute" unicode="&#x143;" horiz-adv-x="674" 
d="M606 19q-14 -12 -38 -19.5t-57 -7.5q-34 0 -64 11t-50 50l-116 224q-17 32 -31.5 64t-28.5 67l-7 -2q5 -60 6 -114.5t1 -105.5v-186q-10 -2 -29.5 -4.5t-40.5 -2.5q-45 0 -63 15.5t-18 55.5v515q12 17 38.5 26.5t56.5 9.5q35 0 64.5 -11t49.5 -49l117 -225
q17 -32 31.5 -64t28.5 -67l4 1q-5 67 -5.5 127t-0.5 115v166q10 2 29.5 5t41.5 3q45 0 63 -15.5t18 -55.5v-526zM419 841q38 0 59.5 -18.5t21.5 -45.5q0 -19 -9 -34t-34 -31l-97 -61q-36 0 -55 16t-19 38q0 12 4 22.5t18 22.5z" />
    <glyph glyph-name="nacute" unicode="&#x144;" horiz-adv-x="577" 
d="M367 307q0 35 -21 52t-56 17q-24 0 -44 -6t-37 -15v-354q-10 -3 -28 -5.5t-40 -2.5q-45 0 -65 14.5t-20 56.5v309q0 26 11 42t31 30q32 23 82.5 37t111.5 14q109 0 168.5 -48t59.5 -137v-310q-11 -3 -29 -5.5t-40 -2.5q-45 0 -64.5 14.5t-19.5 56.5v243zM355 740
q46 -1 69.5 -20.5t23.5 -45.5q0 -21 -9 -35t-31 -33l-94 -80q-40 0 -60.5 18.5t-20.5 41.5q0 11 4.5 21t17.5 24z" />
    <glyph glyph-name="Ncommaaccent" unicode="&#x145;" horiz-adv-x="674" 
d="M606 19q-14 -12 -38 -19.5t-57 -7.5q-34 0 -64 11t-50 50l-116 224q-17 32 -31.5 64t-28.5 67l-7 -2q5 -60 6 -114.5t1 -105.5v-186q-10 -2 -29.5 -4.5t-40.5 -2.5q-45 0 -63 15.5t-18 55.5v515q12 17 38.5 26.5t56.5 9.5q35 0 64.5 -11t49.5 -49l117 -225
q17 -32 31.5 -64t28.5 -67l4 1q-5 67 -5.5 127t-0.5 115v166q10 2 29.5 5t41.5 3q45 0 63 -15.5t18 -55.5v-526zM357 -219q-15 -17 -33 -23.5t-38 -6.5q-36 0 -58 21q20 41 30.5 79.5t15.5 76.5q14 8 33 13t39 5q29 0 47.5 -11t18.5 -37q0 -12 -5 -28t-13 -32.5t-18 -31.5
t-19 -25z" />
    <glyph glyph-name="ncommaaccent" unicode="&#x146;" horiz-adv-x="577" 
d="M367 307q0 35 -21 52t-56 17q-24 0 -44 -6t-37 -15v-354q-10 -3 -28 -5.5t-40 -2.5q-45 0 -65 14.5t-20 56.5v309q0 26 11 42t31 30q32 23 82.5 37t111.5 14q109 0 168.5 -48t59.5 -137v-310q-11 -3 -29 -5.5t-40 -2.5q-45 0 -64.5 14.5t-19.5 56.5v243zM309 -219
q-15 -17 -33 -23.5t-38 -6.5q-36 0 -58 21q20 41 30.5 79.5t15.5 76.5q14 8 33 13t39 5q29 0 47.5 -11t18.5 -37q0 -12 -5 -28t-13 -32.5t-18 -31.5t-19 -25z" />
    <glyph glyph-name="Ncaron" unicode="&#x147;" horiz-adv-x="674" 
d="M606 19q-14 -12 -38 -19.5t-57 -7.5q-34 0 -64 11t-50 50l-116 224q-17 32 -31.5 64t-28.5 67l-7 -2q5 -60 6 -114.5t1 -105.5v-186q-10 -2 -29.5 -4.5t-40.5 -2.5q-45 0 -63 15.5t-18 55.5v515q12 17 38.5 26.5t56.5 9.5q35 0 64.5 -11t49.5 -49l117 -225
q17 -32 31.5 -64t28.5 -67l4 1q-5 67 -5.5 127t-0.5 115v166q10 2 29.5 5t41.5 3q45 0 63 -15.5t18 -55.5v-526zM343 754q23 21 47 44t47 43q29 -1 48.5 -17t19.5 -41q0 -20 -9.5 -34t-34.5 -33l-34 -29q-26 -20 -44 -27.5t-40 -7.5q-27 0 -47.5 10.5t-38.5 27.5l-83 77
q0 34 16 52.5t45 18.5q19 0 34.5 -10t41.5 -38z" />
    <glyph glyph-name="ncaron" unicode="&#x148;" horiz-adv-x="577" 
d="M367 307q0 35 -21 52t-56 17q-24 0 -44 -6t-37 -15v-354q-10 -3 -28 -5.5t-40 -2.5q-45 0 -65 14.5t-20 56.5v309q0 26 11 42t31 30q32 23 82.5 37t111.5 14q109 0 168.5 -48t59.5 -137v-310q-11 -3 -29 -5.5t-40 -2.5q-45 0 -64.5 14.5t-19.5 56.5v243zM284 642l90 87
q35 -1 56 -17.5t21 -42.5q0 -20 -10.5 -33.5t-33.5 -32.5l-48 -42q-35 -29 -73 -29q-12 0 -22 1.5t-21 7t-23.5 14.5t-28.5 24l-76 69q-1 2 -1 6v8q0 24 14 44.5t44 20.5q9 0 16.5 -1.5t16 -6.5t18 -13.5t22.5 -21.5z" />
    <glyph glyph-name="napostrophe" unicode="&#x149;" horiz-adv-x="721" 
d="M511 307q0 35 -21 52t-56 17q-24 0 -44 -6t-37 -15v-354q-10 -3 -28 -5.5t-40 -2.5q-45 0 -65 14.5t-20 56.5v309q0 26 11 42t31 30q32 23 82.5 37t111.5 14q109 0 168.5 -48t59.5 -137v-310q-11 -3 -29 -5.5t-40 -2.5q-45 0 -64.5 14.5t-19.5 56.5v243zM138 399
q-11 -17 -24.5 -24.5t-34.5 -7.5q-17 0 -31.5 4t-27.5 10q5 57 10.5 120t8.5 114q13 7 32.5 13t39.5 6q29 0 52.5 -13t23.5 -46q0 -19 -4 -43t-11 -49t-16 -47t-18 -37z" />
    <glyph glyph-name="Omacron" unicode="&#x14c;" horiz-adv-x="700" 
d="M662 304q0 -78 -23.5 -138t-65.5 -100.5t-99 -61.5t-124 -21t-124 21t-98.5 61.5t-65 100.5t-23.5 138t24 137.5t66 100t98.5 61.5t122.5 21t123 -21t99 -61.5t66 -100t24 -137.5zM500 304q0 96 -40.5 144.5t-109.5 48.5q-68 0 -109 -48.5t-41 -144.5q0 -97 40.5 -145.5
t109.5 -48.5t109.5 48.5t40.5 145.5zM200 692q-5 10 -10 25t-5 31q0 33 13.5 46.5t36.5 13.5h258q8 -10 11.5 -24.5t3.5 -31.5q0 -33 -13.5 -46.5t-36.5 -13.5h-258z" />
    <glyph glyph-name="omacron" unicode="&#x14d;" horiz-adv-x="580" 
d="M545 241q0 -59 -18 -106.5t-51.5 -80.5t-80.5 -51t-105 -18t-105.5 17.5t-81 50.5t-51.5 80.5t-18 107.5q0 58 18.5 105.5t52 80.5t81 51t104.5 18t104 -18t80.5 -51.5t52 -80.5t18.5 -105zM290 376q-47 0 -73 -35t-26 -100q0 -67 25.5 -101.5t73.5 -34.5t73.5 35
t25.5 101q0 64 -26 99.5t-73 35.5zM143 565q-5 10 -10 25t-5 31q0 33 13.5 46.5t36.5 13.5h258q8 -10 11.5 -24.5t3.5 -31.5q0 -33 -13.5 -46.5t-36.5 -13.5h-258z" />
    <glyph glyph-name="Ohungarumlaut" unicode="&#x150;" horiz-adv-x="700" 
d="M662 304q0 -78 -23.5 -138t-65.5 -100.5t-99 -61.5t-124 -21t-124 21t-98.5 61.5t-65 100.5t-23.5 138t24 137.5t66 100t98.5 61.5t122.5 21t123 -21t99 -61.5t66 -100t24 -137.5zM500 304q0 96 -40.5 144.5t-109.5 48.5q-68 0 -109 -48.5t-41 -144.5q0 -97 40.5 -145.5
t109.5 -48.5t109.5 48.5t40.5 145.5zM262 841q46 -1 68 -20t22 -44q0 -21 -10 -35t-30 -35l-52 -56q-40 0 -60 17.5t-20 39.5q0 11 4 22t15 26zM470 841q46 -1 68 -20t22 -44q0 -21 -10 -35.5t-30 -34.5l-53 -56q-39 0 -59 17.5t-20 39.5q0 11 4 22t15 26z" />
    <glyph glyph-name="ohungarumlaut" unicode="&#x151;" horiz-adv-x="580" 
d="M545 241q0 -59 -18 -106.5t-51.5 -80.5t-80.5 -51t-105 -18t-105.5 17.5t-81 50.5t-51.5 80.5t-18 107.5q0 58 18.5 105.5t52 80.5t81 51t104.5 18t104 -18t80.5 -51.5t52 -80.5t18.5 -105zM290 376q-47 0 -73 -35t-26 -100q0 -67 25.5 -101.5t73.5 -34.5t73.5 35
t25.5 101q0 64 -26 99.5t-73 35.5zM214 740q46 -1 69.5 -20.5t23.5 -44.5q0 -20 -10 -34t-30 -35l-74 -80q-40 0 -60.5 18.5t-20.5 40.5q0 11 4 21t15 25zM430 740q46 -1 69.5 -20.5t23.5 -44.5q0 -20 -11 -35t-29 -34l-74 -80q-40 0 -60.5 18.5t-20.5 40.5q0 11 4 21t15 25
z" />
    <glyph glyph-name="OE" unicode="&#x152;" horiz-adv-x="951" 
d="M568 -2q-47 0 -69 32q-29 -23 -67 -35t-85 -12q-66 0 -123 21t-98 61.5t-64.5 100.5t-23.5 138t24 137.5t66 100t98.5 61.5t121.5 21q47 0 84.5 -13t67.5 -36q11 14 28 22.5t40 8.5h322q6 -10 11.5 -25t5.5 -34q0 -33 -14.5 -49t-40.5 -16h-223v-112h233q6 -10 11 -25
t5 -34q0 -33 -14.5 -48.5t-39.5 -15.5h-195v-125h265q6 -10 11.5 -26t5.5 -35q0 -33 -14.5 -48t-40.5 -15h-288zM476 430q-41 67 -128 67q-66 0 -107 -48.5t-41 -144.5q0 -97 40.5 -145.5t108.5 -48.5q86 0 127 66v254z" />
    <glyph glyph-name="oe" unicode="&#x153;" horiz-adv-x="893" 
d="M285 496q57 0 100 -20t73 -54q31 38 75 56t97 18q51 0 94 -15.5t73.5 -43.5t47.5 -67t17 -85q0 -32 -17.5 -48t-48.5 -21l-259 -39q14 -42 48.5 -59.5t80.5 -17.5q42 0 79 11.5t60 25.5q15 -10 25.5 -26t10.5 -35q0 -23 -14 -40t-39 -28.5t-58.5 -17t-73.5 -5.5
q-128 0 -193 76q-29 -36 -73.5 -56t-104.5 -20q-117 0 -184 67.5t-67 188.5q0 58 17.5 105.5t50.5 80.5t79.5 51t103.5 18zM290 376q-47 0 -73 -35t-26 -100q0 -67 25.5 -101.5t73.5 -34.5t73.5 35t25.5 101q0 64 -26 99.5t-73 35.5zM631 383q-43 0 -71.5 -26.5t-32.5 -76.5
l191 31q-2 13 -7.5 26t-16.5 23t-26.5 16.5t-36.5 6.5z" />
    <glyph glyph-name="Racute" unicode="&#x154;" horiz-adv-x="605" 
d="M554 411q0 -58 -30.5 -104t-82.5 -73q41 -54 78.5 -101.5t55.5 -76.5q-9 -32 -33.5 -48.5t-53.5 -16.5q-38 0 -58 16.5t-38 45.5l-96 149h-69v-201q-11 -3 -31 -5.5t-42 -2.5q-47 0 -65.5 16t-18.5 58v485q0 20 10.5 31t30.5 17q32 12 77 17t94 5q136 0 204 -56.5
t68 -154.5zM287 323q48 0 78 21.5t30 65.5q0 86 -115 86q-16 0 -29 -1.5t-26 -3.5v-168h62zM356 841q38 0 59.5 -18.5t21.5 -45.5q0 -19 -9 -34t-34 -31l-97 -61q-36 0 -55 16t-19 38q0 12 4 22.5t18 22.5z" />
    <glyph glyph-name="racute" unicode="&#x155;" horiz-adv-x="405" 
d="M209 1q-10 -3 -28 -5.5t-40 -2.5q-45 0 -65 14.5t-20 56.5v305q0 28 14 48t39 35q33 20 79.5 31.5t97.5 11.5q104 0 104 -70q0 -17 -5 -31t-11 -24q-23 5 -56 5q-29 0 -58 -7t-51 -19v-348zM271 740q46 -1 69.5 -20.5t23.5 -45.5q0 -21 -9 -35t-31 -33l-94 -80
q-40 0 -60.5 18.5t-20.5 41.5q0 11 4.5 21t17.5 24z" />
    <glyph glyph-name="Rcommaaccent" unicode="&#x156;" horiz-adv-x="605" 
d="M554 411q0 -58 -30.5 -104t-82.5 -73q41 -54 78.5 -101.5t55.5 -76.5q-9 -32 -33.5 -48.5t-53.5 -16.5q-38 0 -58 16.5t-38 45.5l-96 149h-69v-201q-11 -3 -31 -5.5t-42 -2.5q-47 0 -65.5 16t-18.5 58v485q0 20 10.5 31t30.5 17q32 12 77 17t94 5q136 0 204 -56.5
t68 -154.5zM287 323q48 0 78 21.5t30 65.5q0 86 -115 86q-16 0 -29 -1.5t-26 -3.5v-168h62zM342 -219q-15 -17 -33 -23.5t-38 -6.5q-36 0 -58 21q20 41 30.5 79.5t15.5 76.5q14 8 33 13t39 5q29 0 47.5 -11t18.5 -37q0 -12 -5 -28t-13 -32.5t-18 -31.5t-19 -25z" />
    <glyph glyph-name="rcommaaccent" unicode="&#x157;" horiz-adv-x="405" 
d="M209 1q-10 -3 -28 -5.5t-40 -2.5q-45 0 -65 14.5t-20 56.5v305q0 28 14 48t39 35q33 20 79.5 31.5t97.5 11.5q104 0 104 -70q0 -17 -5 -31t-11 -24q-23 5 -56 5q-29 0 -58 -7t-51 -19v-348zM154 -219q-15 -17 -33 -23.5t-38 -6.5q-36 0 -58 21q20 41 30.5 79.5t15.5 76.5
q14 8 33 13t39 5q29 0 47.5 -11t18.5 -37q0 -12 -5 -28t-13 -32.5t-18 -31.5t-19 -25z" />
    <glyph glyph-name="Rcaron" unicode="&#x158;" horiz-adv-x="605" 
d="M554 411q0 -58 -30.5 -104t-82.5 -73q41 -54 78.5 -101.5t55.5 -76.5q-9 -32 -33.5 -48.5t-53.5 -16.5q-38 0 -58 16.5t-38 45.5l-96 149h-69v-201q-11 -3 -31 -5.5t-42 -2.5q-47 0 -65.5 16t-18.5 58v485q0 20 10.5 31t30.5 17q32 12 77 17t94 5q136 0 204 -56.5
t68 -154.5zM287 323q48 0 78 21.5t30 65.5q0 86 -115 86q-16 0 -29 -1.5t-26 -3.5v-168h62zM307 754q23 21 47 44t47 43q29 -1 48.5 -17t19.5 -41q0 -20 -9.5 -34t-34.5 -33l-34 -29q-26 -20 -44 -27.5t-40 -7.5q-27 0 -47.5 10.5t-38.5 27.5l-83 77q0 34 16 52.5t45 18.5
q19 0 34.5 -10t41.5 -38z" />
    <glyph glyph-name="rcaron" unicode="&#x159;" horiz-adv-x="405" 
d="M209 1q-10 -3 -28 -5.5t-40 -2.5q-45 0 -65 14.5t-20 56.5v305q0 28 14 48t39 35q33 20 79.5 31.5t97.5 11.5q104 0 104 -70q0 -17 -5 -31t-11 -24q-23 5 -56 5q-29 0 -58 -7t-51 -19v-348zM231 642l90 87q35 -1 56 -17.5t21 -42.5q0 -20 -10.5 -33.5t-33.5 -32.5
l-48 -42q-35 -29 -73 -29q-12 0 -22 1.5t-21 7t-23.5 14.5t-28.5 24l-76 69q-1 2 -1 6v8q0 24 14 44.5t44 20.5q9 0 16.5 -1.5t16 -6.5t18 -13.5t22.5 -21.5z" />
    <glyph glyph-name="Sacute" unicode="&#x15a;" horiz-adv-x="546" 
d="M252 111q53 0 75.5 18.5t22.5 44.5q0 24 -17.5 38.5t-52.5 25.5l-51 16q-42 13 -76 28.5t-58 37t-37.5 51t-13.5 71.5q0 84 63.5 133t176.5 49q43 0 79.5 -6t62.5 -18.5t41 -30.5t15 -42q0 -23 -11.5 -40.5t-26.5 -29.5q-23 16 -61 27t-83 11q-48 0 -71 -15t-23 -38
q0 -20 15 -30.5t47 -21.5l54 -18q47 -16 82.5 -34.5t59.5 -42t36 -54t12 -69.5q0 -42 -16.5 -76.5t-49 -59.5t-80 -39t-109.5 -14q-46 0 -85 7.5t-67.5 21.5t-45 34.5t-16.5 46.5q0 27 15.5 45t34.5 29q27 -22 67.5 -39t91.5 -17zM332 841q38 0 59.5 -18.5t21.5 -45.5
q0 -19 -9 -34t-34 -31l-97 -61q-36 0 -55 16t-19 38q0 12 4 22.5t18 22.5z" />
    <glyph glyph-name="sacute" unicode="&#x15b;" horiz-adv-x="483" 
d="M450 141q0 -74 -55 -115.5t-162 -41.5q-42 0 -76.5 6t-59.5 18t-39 30t-14 42q0 22 9 37.5t23 25.5q29 -17 66 -30t86 -13q71 0 71 40q0 17 -12.5 26t-42.5 16l-40 9q-82 17 -122 52.5t-40 99.5q0 71 57.5 112.5t154.5 41.5q36 0 68 -5.5t55 -16.5t36.5 -27.5t13.5 -38.5
q0 -20 -8 -35.5t-21 -25.5q-8 5 -23.5 11t-33.5 11t-38 8t-37 3q-35 0 -54.5 -9.5t-19.5 -28.5q0 -14 11 -22t40 -15l38 -9q91 -20 130 -58t39 -98zM300 740q46 -1 69.5 -20.5t23.5 -45.5q0 -21 -9 -35t-31 -33l-94 -80q-40 0 -60.5 18.5t-20.5 41.5q0 11 4.5 21t17.5 24z
" />
    <glyph glyph-name="Scircumflex" unicode="&#x15c;" horiz-adv-x="546" 
d="M252 111q53 0 75.5 18.5t22.5 44.5q0 24 -17.5 38.5t-52.5 25.5l-51 16q-42 13 -76 28.5t-58 37t-37.5 51t-13.5 71.5q0 84 63.5 133t176.5 49q43 0 79.5 -6t62.5 -18.5t41 -30.5t15 -42q0 -23 -11.5 -40.5t-26.5 -29.5q-23 16 -61 27t-83 11q-48 0 -71 -15t-23 -38
q0 -20 15 -30.5t47 -21.5l54 -18q47 -16 82.5 -34.5t59.5 -42t36 -54t12 -69.5q0 -42 -16.5 -76.5t-49 -59.5t-80 -39t-109.5 -14q-46 0 -85 7.5t-67.5 21.5t-45 34.5t-16.5 46.5q0 27 15.5 45t34.5 29q27 -22 67.5 -39t91.5 -17zM276 737q-23 -21 -46.5 -43.5t-46.5 -42.5
q-29 0 -48 16t-19 41q0 20 9.5 33.5t33.5 32.5l35 29q26 20 45.5 29t38.5 9q24 0 43.5 -9.5t39.5 -29.5l81 -84q0 -32 -16.5 -48t-45.5 -16q-19 0 -34 11.5t-38 35.5z" />
    <glyph glyph-name="scircumflex" unicode="&#x15d;" horiz-adv-x="483" 
d="M450 141q0 -74 -55 -115.5t-162 -41.5q-42 0 -76.5 6t-59.5 18t-39 30t-14 42q0 22 9 37.5t23 25.5q29 -17 66 -30t86 -13q71 0 71 40q0 17 -12.5 26t-42.5 16l-40 9q-82 17 -122 52.5t-40 99.5q0 71 57.5 112.5t154.5 41.5q36 0 68 -5.5t55 -16.5t36.5 -27.5t13.5 -38.5
q0 -20 -8 -35.5t-21 -25.5q-8 5 -23.5 11t-33.5 11t-38 8t-37 3q-35 0 -54.5 -9.5t-19.5 -28.5q0 -14 11 -22t40 -15l38 -9q91 -20 130 -58t39 -98zM237 624q-13 -14 -23.5 -25.5t-20 -22.5t-19 -21.5t-19.5 -23.5q-35 1 -56 16.5t-21 41.5q0 19 10 32t30 33l39 40
q17 17 36.5 28t45.5 11q24 0 44 -9t45 -40l74 -90q0 -25 -15 -43t-45 -18q-18 0 -32 10t-28 27z" />
    <glyph glyph-name="Scedilla" unicode="&#x15e;" horiz-adv-x="546" 
d="M252 111q53 0 75.5 18.5t22.5 44.5q0 24 -17.5 38.5t-52.5 25.5l-51 16q-42 13 -76 28.5t-58 37t-37.5 51t-13.5 71.5q0 84 63.5 133t176.5 49q43 0 79.5 -6t62.5 -18.5t41 -30.5t15 -42q0 -23 -11.5 -40.5t-26.5 -29.5q-23 16 -61 27t-83 11q-48 0 -71 -15t-23 -38
q0 -20 15 -30.5t47 -21.5l54 -18q47 -16 82.5 -34.5t59.5 -42t36 -54t12 -69.5q0 -69 -44 -117t-129 -64q19 -32 19 -75q0 -51 -31.5 -83.5t-86.5 -32.5q-39 0 -62.5 18.5t-23.5 52.5q0 14 5 29h11q32 0 46 15t14 38q0 7 -1.5 15t-5.5 16q-39 3 -72 11.5t-57 22t-37.5 32.5
t-13.5 43q0 27 15.5 45t34.5 29q27 -22 67.5 -39t91.5 -17z" />
    <glyph glyph-name="scedilla" unicode="&#x15f;" horiz-adv-x="483" 
d="M450 141q0 -57 -33 -95.5t-99 -52.5q11 -17 16 -36.5t5 -40.5q0 -51 -31.5 -83.5t-86.5 -32.5q-39 0 -62.5 18.5t-23.5 52.5q0 14 5 29h11q32 0 46 15t14 38q0 7 -1.5 15.5t-5.5 16.5q-72 4 -116 27t-44 68q0 22 9 37.5t23 25.5q29 -17 66 -30t86 -13q71 0 71 40
q0 17 -12.5 26t-42.5 16l-40 9q-82 17 -122 52.5t-40 99.5q0 71 57.5 112.5t154.5 41.5q36 0 68 -5.5t55 -16.5t36.5 -27.5t13.5 -38.5q0 -20 -8 -35.5t-21 -25.5q-8 5 -23.5 11t-33.5 11t-38 8t-37 3q-35 0 -54.5 -9.5t-19.5 -28.5q0 -14 11 -22t40 -15l38 -9
q91 -20 130 -58t39 -98z" />
    <glyph glyph-name="Scaron" unicode="&#x160;" horiz-adv-x="546" 
d="M252 111q53 0 75.5 18.5t22.5 44.5q0 24 -17.5 38.5t-52.5 25.5l-51 16q-42 13 -76 28.5t-58 37t-37.5 51t-13.5 71.5q0 84 63.5 133t176.5 49q43 0 79.5 -6t62.5 -18.5t41 -30.5t15 -42q0 -23 -11.5 -40.5t-26.5 -29.5q-23 16 -61 27t-83 11q-48 0 -71 -15t-23 -38
q0 -20 15 -30.5t47 -21.5l54 -18q47 -16 82.5 -34.5t59.5 -42t36 -54t12 -69.5q0 -42 -16.5 -76.5t-49 -59.5t-80 -39t-109.5 -14q-46 0 -85 7.5t-67.5 21.5t-45 34.5t-16.5 46.5q0 27 15.5 45t34.5 29q27 -22 67.5 -39t91.5 -17zM277 754q23 21 47 44t47 43q29 -1 48.5 -17
t19.5 -41q0 -20 -9.5 -34t-34.5 -33l-34 -29q-26 -20 -44 -27.5t-40 -7.5q-27 0 -47.5 10.5t-38.5 27.5l-83 77q0 34 16 52.5t45 18.5q19 0 34.5 -10t41.5 -38z" />
    <glyph glyph-name="scaron" unicode="&#x161;" horiz-adv-x="483" 
d="M450 141q0 -74 -55 -115.5t-162 -41.5q-42 0 -76.5 6t-59.5 18t-39 30t-14 42q0 22 9 37.5t23 25.5q29 -17 66 -30t86 -13q71 0 71 40q0 17 -12.5 26t-42.5 16l-40 9q-82 17 -122 52.5t-40 99.5q0 71 57.5 112.5t154.5 41.5q36 0 68 -5.5t55 -16.5t36.5 -27.5t13.5 -38.5
q0 -20 -8 -35.5t-21 -25.5q-8 5 -23.5 11t-33.5 11t-38 8t-37 3q-35 0 -54.5 -9.5t-19.5 -28.5q0 -14 11 -22t40 -15l38 -9q91 -20 130 -58t39 -98zM237 642l90 87q35 -1 56 -17.5t21 -42.5q0 -20 -10.5 -33.5t-33.5 -32.5l-48 -42q-35 -29 -73 -29q-12 0 -22 1.5t-21 7
t-23.5 14.5t-28.5 24l-76 69q-1 2 -1 6v8q0 24 14 44.5t44 20.5q9 0 16.5 -1.5t16 -6.5t18 -13.5t22.5 -21.5z" />
    <glyph glyph-name="uni021A" unicode="&#x21a;" horiz-adv-x="550" 
d="M351 480v-479q-11 -3 -31 -5.5t-42 -2.5q-47 0 -66 16t-19 58v413h-157q-6 10 -11.5 26t-5.5 35q0 34 15 49.5t41 15.5h437q7 -10 12 -26t5 -35q0 -33 -15 -49t-41 -16h-122zM293 -219q-15 -17 -33 -23.5t-38 -6.5q-36 0 -58 21q20 41 30.5 79.5t15.5 76.5q14 8 33 13
t39 5q29 0 47.5 -11t18.5 -37q0 -12 -5 -28t-13 -32.5t-18 -31.5t-19 -25z" />
    <glyph glyph-name="uni021B" unicode="&#x21b;" horiz-adv-x="392" 
d="M209 159q0 -28 18 -40.5t50 -12.5q15 0 32 3.5t29 8.5q9 -10 15 -23t6 -30q0 -35 -27.5 -57.5t-95.5 -22.5q-84 0 -131 38.5t-47 125.5v449q11 3 29 6.5t39 3.5q44 0 63.5 -15.5t19.5 -56.5v-65h138q5 -10 10 -25.5t5 -32.5q0 -32 -14.5 -46t-37.5 -14h-101v-194z
M232 -219q-15 -17 -33 -23.5t-38 -6.5q-36 0 -58 21q20 41 30.5 79.5t15.5 76.5q14 8 33 13t39 5q29 0 47.5 -11t18.5 -37q0 -12 -5 -28t-13 -32.5t-18 -31.5t-19 -25z" />
    <glyph glyph-name="Tcaron" unicode="&#x164;" horiz-adv-x="550" 
d="M351 480v-479q-11 -3 -31 -5.5t-42 -2.5q-47 0 -66 16t-19 58v413h-157q-6 10 -11.5 26t-5.5 35q0 34 15 49.5t41 15.5h437q7 -10 12 -26t5 -35q0 -33 -15 -49t-41 -16h-122zM279 754q23 21 47 44t47 43q29 -1 48.5 -17t19.5 -41q0 -20 -9.5 -34t-34.5 -33l-34 -29
q-26 -20 -44 -27.5t-40 -7.5q-27 0 -47.5 10.5t-38.5 27.5l-83 77q0 34 16 52.5t45 18.5q19 0 34.5 -10t41.5 -38z" />
    <glyph glyph-name="tcaron" unicode="&#x165;" horiz-adv-x="561" 
d="M209 159q0 -28 18 -40.5t50 -12.5q15 0 32 3.5t29 8.5q9 -10 15 -23t6 -30q0 -35 -27.5 -57.5t-95.5 -22.5q-84 0 -131 38.5t-47 125.5v449q11 3 29 6.5t39 3.5q44 0 63.5 -15.5t19.5 -56.5v-65h138q5 -10 10 -25.5t5 -32.5q0 -32 -14.5 -46t-37.5 -14h-101v-194z
M518 497q-15 -17 -33 -23.5t-38 -6.5q-34 0 -58 21q20 41 30.5 80t15.5 76q14 8 33.5 13t38.5 5q29 0 47.5 -11t18.5 -37q0 -12 -5 -28t-13 -32.5t-18 -31.5t-19 -25z" />
    <glyph glyph-name="Utilde" unicode="&#x168;" horiz-adv-x="661" 
d="M330 -17q-62 0 -110.5 17t-82.5 48t-52 74.5t-18 97.5v388q11 2 31.5 5t41.5 3q45 0 64.5 -15t19.5 -59v-319q0 -54 29.5 -83.5t76.5 -29.5q48 0 77.5 29.5t29.5 83.5v385q11 2 31.5 5t41.5 3q45 0 64.5 -15t19.5 -59v-322q0 -54 -18 -97.5t-52 -74.5t-83 -48t-111 -17z
M244 832q21 0 40.5 -4.5t37.5 -10.5t33.5 -10.5t27.5 -4.5q21 0 32 12.5t16 22.5h5q29 0 50.5 -20t21.5 -52q0 -42 -26.5 -62t-66.5 -20q-24 0 -44 4.5t-37.5 10.5t-32 10.5t-26.5 4.5q-21 0 -32 -12t-16 -23h-4q-29 0 -51 19.5t-22 52.5q0 21 8.5 36.5t22 25.5t30 15
t33.5 5z" />
    <glyph glyph-name="utilde" unicode="&#x169;" horiz-adv-x="576" 
d="M520 100q0 -47 -41 -72q-32 -20 -79 -31.5t-104 -11.5q-54 0 -98 11.5t-75.5 36.5t-49 63t-17.5 92v291q11 3 29 6t40 3q45 0 64.5 -15t19.5 -57v-227q0 -45 23 -64.5t65 -19.5q26 0 43.5 4.5t26.5 9.5v360q10 3 28 6t40 3q45 0 65 -15t20 -57v-316zM200 703
q21 0 40.5 -4.5t37.5 -10.5t33.5 -10.5t27.5 -4.5q21 0 32 12.5t16 22.5h5q29 0 50.5 -20t21.5 -52q0 -42 -26.5 -62t-66.5 -20q-24 0 -44 4.5t-37.5 10.5t-32 10.5t-26.5 4.5q-21 0 -32 -12t-16 -23h-4q-29 0 -51 19.5t-22 52.5q0 21 8.5 36.5t22 25.5t30 15t33.5 5z" />
    <glyph glyph-name="Umacron" unicode="&#x16a;" horiz-adv-x="661" 
d="M330 -17q-62 0 -110.5 17t-82.5 48t-52 74.5t-18 97.5v388q11 2 31.5 5t41.5 3q45 0 64.5 -15t19.5 -59v-319q0 -54 29.5 -83.5t76.5 -29.5q48 0 77.5 29.5t29.5 83.5v385q11 2 31.5 5t41.5 3q45 0 64.5 -15t19.5 -59v-322q0 -54 -18 -97.5t-52 -74.5t-83 -48t-111 -17z
M178 692q-5 10 -10 25t-5 31q0 33 13.5 46.5t36.5 13.5h258q8 -10 11.5 -24.5t3.5 -31.5q0 -33 -13.5 -46.5t-36.5 -13.5h-258z" />
    <glyph glyph-name="umacron" unicode="&#x16b;" horiz-adv-x="576" 
d="M520 100q0 -47 -41 -72q-32 -20 -79 -31.5t-104 -11.5q-54 0 -98 11.5t-75.5 36.5t-49 63t-17.5 92v291q11 3 29 6t40 3q45 0 64.5 -15t19.5 -57v-227q0 -45 23 -64.5t65 -19.5q26 0 43.5 4.5t26.5 9.5v360q10 3 28 6t40 3q45 0 65 -15t20 -57v-316zM145 565
q-5 10 -10 25t-5 31q0 33 13.5 46.5t36.5 13.5h258q8 -10 11.5 -24.5t3.5 -31.5q0 -33 -13.5 -46.5t-36.5 -13.5h-258z" />
    <glyph glyph-name="Ubreve" unicode="&#x16c;" horiz-adv-x="661" 
d="M330 -17q-62 0 -110.5 17t-82.5 48t-52 74.5t-18 97.5v388q11 2 31.5 5t41.5 3q45 0 64.5 -15t19.5 -59v-319q0 -54 29.5 -83.5t76.5 -29.5q48 0 77.5 29.5t29.5 83.5v385q11 2 31.5 5t41.5 3q45 0 64.5 -15t19.5 -59v-322q0 -54 -18 -97.5t-52 -74.5t-83 -48t-111 -17z
M325 773q31 0 50.5 15.5t25.5 39.5q5 1 9 1h9q35 0 53 -20t18 -46q0 -42 -42.5 -72t-122.5 -30q-81 0 -123 30t-42 72q0 26 17.5 46t53.5 20h9t9 -1q5 -24 25 -39.5t51 -15.5z" />
    <glyph glyph-name="ubreve" unicode="&#x16d;" horiz-adv-x="576" 
d="M520 100q0 -47 -41 -72q-32 -20 -79 -31.5t-104 -11.5q-54 0 -98 11.5t-75.5 36.5t-49 63t-17.5 92v291q11 3 29 6t40 3q45 0 64.5 -15t19.5 -57v-227q0 -45 23 -64.5t65 -19.5q26 0 43.5 4.5t26.5 9.5v360q10 3 28 6t40 3q45 0 65 -15t20 -57v-316zM289 663
q31 0 50.5 15.5t25.5 39.5q5 1 9 1h9q35 0 53 -20t18 -46q0 -42 -42.5 -72t-122.5 -30q-81 0 -123 30t-42 72q0 26 17.5 46t53.5 20h9t9 -1q5 -24 25 -39.5t51 -15.5z" />
    <glyph glyph-name="Uring" unicode="&#x16e;" horiz-adv-x="661" 
d="M330 -17q-62 0 -110.5 17t-82.5 48t-52 74.5t-18 97.5v388q11 2 31.5 5t41.5 3q45 0 64.5 -15t19.5 -59v-319q0 -54 29.5 -83.5t76.5 -29.5q48 0 77.5 29.5t29.5 83.5v385q11 2 31.5 5t41.5 3q45 0 64.5 -15t19.5 -59v-322q0 -54 -18 -97.5t-52 -74.5t-83 -48t-111 -17z
M206 752q0 45 34 75.5t93 30.5q63 0 97.5 -30.5t34.5 -75.5t-34.5 -74.5t-97.5 -29.5q-59 0 -93 29.5t-34 74.5zM300 752q0 -15 10 -24t24 -9q17 0 27 9t10 24t-10 24t-27 9q-14 0 -24 -9t-10 -24z" />
    <glyph glyph-name="uring" unicode="&#x16f;" horiz-adv-x="576" 
d="M520 100q0 -47 -41 -72q-32 -20 -79 -31.5t-104 -11.5q-54 0 -98 11.5t-75.5 36.5t-49 63t-17.5 92v291q11 3 29 6t40 3q45 0 64.5 -15t19.5 -57v-227q0 -45 23 -64.5t65 -19.5q26 0 43.5 4.5t26.5 9.5v360q10 3 28 6t40 3q45 0 65 -15t20 -57v-316zM155 635
q0 46 34 77.5t93 31.5q62 0 96.5 -31.5t34.5 -77.5q0 -45 -34.5 -76t-96.5 -31q-59 0 -93 31t-34 76zM248 635q0 -17 10.5 -26.5t24.5 -9.5q16 0 26 9.5t10 26.5t-10 27t-26 10q-14 0 -24.5 -10t-10.5 -27z" />
    <glyph glyph-name="Uhungarumlaut" unicode="&#x170;" horiz-adv-x="661" 
d="M330 -17q-62 0 -110.5 17t-82.5 48t-52 74.5t-18 97.5v388q11 2 31.5 5t41.5 3q45 0 64.5 -15t19.5 -59v-319q0 -54 29.5 -83.5t76.5 -29.5q48 0 77.5 29.5t29.5 83.5v385q11 2 31.5 5t41.5 3q45 0 64.5 -15t19.5 -59v-322q0 -54 -18 -97.5t-52 -74.5t-83 -48t-111 -17z
M234 841q46 -1 68 -20t22 -44q0 -21 -10 -35t-30 -35l-52 -56q-40 0 -60 17.5t-20 39.5q0 11 4 22t15 26zM442 841q46 -1 68 -20t22 -44q0 -21 -10 -35.5t-30 -34.5l-53 -56q-39 0 -59 17.5t-20 39.5q0 11 4 22t15 26z" />
    <glyph glyph-name="uhungarumlaut" unicode="&#x171;" horiz-adv-x="576" 
d="M520 100q0 -47 -41 -72q-32 -20 -79 -31.5t-104 -11.5q-54 0 -98 11.5t-75.5 36.5t-49 63t-17.5 92v291q11 3 29 6t40 3q45 0 64.5 -15t19.5 -57v-227q0 -45 23 -64.5t65 -19.5q26 0 43.5 4.5t26.5 9.5v360q10 3 28 6t40 3q45 0 65 -15t20 -57v-316zM207 740
q46 -1 69.5 -20.5t23.5 -44.5q0 -20 -10 -34t-30 -35l-74 -80q-40 0 -60.5 18.5t-20.5 40.5q0 11 4 21t15 25zM423 740q46 -1 69.5 -20.5t23.5 -44.5q0 -20 -11 -35t-29 -34l-74 -80q-40 0 -60.5 18.5t-20.5 40.5q0 11 4 21t15 25z" />
    <glyph glyph-name="Uogonek" unicode="&#x172;" horiz-adv-x="661" 
d="M594 220q0 -94 -53 -155t-150 -77q-12 -14 -12 -36q0 -46 56 -46h7q3 -8 5 -17.5t2 -20.5q0 -26 -18.5 -46.5t-67.5 -20.5q-54 0 -88.5 27.5t-34.5 76.5q0 27 9.5 48t23.5 35q-98 14 -152 75.5t-54 156.5v388q11 2 31.5 5t41.5 3q45 0 64.5 -15t19.5 -59v-319
q0 -54 29.5 -83.5t76.5 -29.5q48 0 77.5 29.5t29.5 83.5v385q11 2 31.5 5t41.5 3q45 0 64.5 -15t19.5 -59v-322v0z" />
    <glyph glyph-name="uogonek" unicode="&#x173;" horiz-adv-x="576" 
d="M56 479q11 3 29 6t40 3q45 0 64.5 -15t19.5 -57v-227q0 -45 23 -64.5t65 -19.5q26 0 43.5 4.5t26.5 9.5v360q10 3 28 6t40 3q45 0 65 -15t20 -57v-316q0 -46 -40 -71q-20 -17 -32.5 -34t-12.5 -43q0 -46 56 -46h7q3 -8 5 -17.5t2 -20.5q0 -26 -19 -46.5t-68 -20.5
q-53 0 -87.5 27.5t-34.5 76.5q0 28 11 48t25 34q-9 -1 -18 -1.5t-18 -0.5q-54 0 -98 11.5t-75.5 36.5t-49 63t-17.5 92v291z" />
    <glyph glyph-name="Wcircumflex" unicode="&#x174;" horiz-adv-x="851" 
d="M347 458q11 5 31.5 10.5t43.5 5.5q38 0 63 -11t31 -33q12 -44 23 -81.5t21 -72.5t19.5 -69t18.5 -71h5q10 62 18 119.5t15.5 113t14.5 110.5t14 113q32 19 71 19q33 0 57 -14.5t24 -48.5q0 -21 -4.5 -61.5t-12.5 -91t-18.5 -105.5t-22 -106.5t-23.5 -94t-23 -67.5
q-14 -12 -44 -20.5t-62 -8.5q-42 0 -71.5 11.5t-36.5 32.5q-14 42 -32.5 105.5t-38.5 136.5q-8 -36 -17 -72t-18 -70t-17.5 -63.5t-15.5 -52.5q-14 -11 -40.5 -19.5t-59.5 -8.5q-40 0 -72.5 12t-42.5 32q-8 19 -19 55t-22.5 82.5t-23 100t-22 107t-18.5 104.5t-13 93
q13 11 35 21.5t49 10.5q34 0 55.5 -15.5t27.5 -50.5q16 -94 26.5 -160t18 -113t13 -79t10.5 -57h5q10 41 19 76t18.5 71.5t20 78t22.5 96.5zM426 736q-13 -14 -23.5 -25.5t-20 -22.5t-19 -21.5t-19.5 -23.5q-35 1 -56 16.5t-21 41.5q0 19 10 32t30 33l39 40q17 17 36.5 28
t45.5 11q24 0 44 -9t45 -40l74 -90q0 -25 -15 -43t-45 -18q-18 0 -32 10t-28 27z" />
    <glyph glyph-name="wcircumflex" unicode="&#x175;" horiz-adv-x="776" 
d="M392 286q-9 -37 -20 -76t-22 -76t-21 -68t-16 -51q-27 -24 -86 -24q-36 0 -63 10t-36 30q-11 24 -26 76t-29.5 114t-27.5 126t-21 112q12 13 33.5 22.5t46.5 9.5q32 0 52 -14.5t25 -49.5q10 -70 17.5 -120t13.5 -85t10.5 -56.5t6.5 -33.5h4l12 48t19 72.5t23.5 87
t24.5 93.5q17 10 35.5 15.5t44.5 5.5q32 0 54.5 -10.5t28.5 -31.5q13 -45 25 -88.5t22 -80.5t17.5 -66t11.5 -45h5q14 79 27 165.5t24 175.5q16 9 34 13.5t36 4.5q31 0 51.5 -13.5t20.5 -46.5q0 -15 -5.5 -47t-14 -72t-19.5 -84.5t-22 -85.5t-21.5 -75t-17.5 -52
q-11 -11 -37 -17.5t-56 -6.5q-76 0 -89 37q-7 20 -17 49t-20.5 63.5t-20.5 72t-17 73.5zM390 624q-13 -14 -23.5 -25.5t-20 -22.5t-19 -21.5t-19.5 -23.5q-35 1 -56 16.5t-21 41.5q0 19 10 32t30 33l39 40q17 17 36.5 28t45.5 11q24 0 44 -9t45 -40l74 -90q0 -25 -15 -43
t-45 -18q-18 0 -32 10t-28 27z" />
    <glyph glyph-name="Ycircumflex" unicode="&#x176;" horiz-adv-x="569" 
d="M555 544q0 -12 -8.5 -34t-29.5 -61t-56.5 -99t-89.5 -147v-202q-11 -3 -30.5 -5.5t-40.5 -2.5q-47 0 -65 16t-18 56v139q-26 38 -56 85.5t-59 96t-54 95.5t-40 84q11 17 31.5 31t50.5 14q35 0 57 -14.5t42 -54.5q2 -3 10 -18.5t18.5 -36t22.5 -44.5t22.5 -44.5
t18.5 -35.5t10 -18h5q16 33 29.5 63t26.5 59.5t26.5 60t28.5 66.5q16 8 35.5 12.5t36.5 4.5q32 0 54 -17t22 -49zM290 737q-23 -21 -46.5 -43.5t-46.5 -42.5q-29 0 -48 16t-19 41q0 20 9.5 33.5t33.5 32.5l35 29q26 20 45.5 29t38.5 9q24 0 43.5 -9.5t39.5 -29.5l81 -84
q0 -32 -16.5 -48t-45.5 -16q-19 0 -34 11.5t-38 35.5z" />
    <glyph glyph-name="ycircumflex" unicode="&#x177;" horiz-adv-x="539" 
d="M136 120q-23 50 -52.5 130.5t-61.5 208.5q12 13 33.5 22.5t46.5 9.5q32 0 52 -13.5t31 -49.5q22 -73 44.5 -144t45.5 -143h4q12 34 25 74.5t25 84t22.5 88t18.5 86.5q31 17 65 17q32 0 55 -14t23 -46q0 -36 -12.5 -91.5t-33 -116t-46 -120t-52.5 -104.5
q-56 -95 -101 -141.5t-91 -46.5q-37 0 -61 22.5t-29 57.5q32 28 66.5 65.5t58.5 75.5q-17 5 -35.5 22.5t-40.5 65.5zM275 624q-13 -14 -23.5 -25.5t-20 -22.5t-19 -21.5t-19.5 -23.5q-35 1 -56 16.5t-21 41.5q0 19 10 32t30 33l39 40q17 17 36.5 28t45.5 11q24 0 44 -9
t45 -40l74 -90q0 -25 -15 -43t-45 -18q-18 0 -32 10t-28 27z" />
    <glyph glyph-name="Ydieresis" unicode="&#x178;" horiz-adv-x="569" 
d="M555 544q0 -12 -8.5 -34t-29.5 -61t-56.5 -99t-89.5 -147v-202q-11 -3 -30.5 -5.5t-40.5 -2.5q-47 0 -65 16t-18 56v139q-26 38 -56 85.5t-59 96t-54 95.5t-40 84q11 17 31.5 31t50.5 14q35 0 57 -14.5t42 -54.5q2 -3 10 -18.5t18.5 -36t22.5 -44.5t22.5 -44.5
t18.5 -35.5t10 -18h5q16 33 29.5 63t26.5 59.5t26.5 60t28.5 66.5q16 8 35.5 12.5t36.5 4.5q32 0 54 -17t22 -49zM262 744q0 -32 -21.5 -53.5t-56.5 -21.5t-56 21.5t-21 53.5t21 54.5t56 22.5t56.5 -22.5t21.5 -54.5zM469 744q0 -32 -21 -53.5t-56 -21.5t-56.5 21.5
t-21.5 53.5t21.5 54.5t56.5 22.5t56 -22.5t21 -54.5z" />
    <glyph glyph-name="Zacute" unicode="&#x179;" horiz-adv-x="559" 
d="M328 480h-265q-7 11 -12 26.5t-5 35.5q0 35 15 51t42 16h377q39 -33 39 -85q0 -23 -10 -45t-27 -42l-250 -308h277q6 -11 11.5 -27t5.5 -36q0 -35 -15 -50.5t-41 -15.5h-398q-15 13 -25 34t-10 49q0 23 11.5 46t28.5 43zM363 841q38 0 59.5 -18.5t21.5 -45.5
q0 -19 -9 -34t-34 -31l-97 -61q-36 0 -55 16t-19 38q0 12 4 22.5t18 22.5z" />
    <glyph glyph-name="zacute" unicode="&#x17a;" horiz-adv-x="479" 
d="M67 0q-14 13 -22.5 30t-8.5 38q0 19 8.5 36.5t21.5 33.5l188 224h-198q-5 10 -10.5 25.5t-5.5 33.5q0 32 14.5 46t37.5 14h316q14 -13 23 -30t9 -39q0 -18 -8.5 -35.5t-21.5 -33.5l-185 -225h210q6 -9 11 -25t5 -33q0 -32 -14.5 -46t-37.5 -14h-332zM309 740
q46 -1 69.5 -20.5t23.5 -45.5q0 -21 -9 -35t-31 -33l-94 -80q-40 0 -60.5 18.5t-20.5 41.5q0 11 4.5 21t17.5 24z" />
    <glyph glyph-name="Zdotaccent" unicode="&#x17b;" horiz-adv-x="559" 
d="M328 480h-265q-7 11 -12 26.5t-5 35.5q0 35 15 51t42 16h377q39 -33 39 -85q0 -23 -10 -45t-27 -42l-250 -308h277q6 -11 11.5 -27t5.5 -36q0 -35 -15 -50.5t-41 -15.5h-398q-15 13 -25 34t-10 49q0 23 11.5 46t28.5 43zM367 754q0 -34 -22.5 -57t-59.5 -23
q-38 0 -60.5 23t-22.5 57q0 35 22.5 57.5t60.5 22.5q37 0 59.5 -22.5t22.5 -57.5z" />
    <glyph glyph-name="zdotaccent" unicode="&#x17c;" horiz-adv-x="479" 
d="M67 0q-14 13 -22.5 30t-8.5 38q0 19 8.5 36.5t21.5 33.5l188 224h-198q-5 10 -10.5 25.5t-5.5 33.5q0 32 14.5 46t37.5 14h316q14 -13 23 -30t9 -39q0 -18 -8.5 -35.5t-21.5 -33.5l-185 -225h210q6 -9 11 -25t5 -33q0 -32 -14.5 -46t-37.5 -14h-332zM326 627
q0 -34 -22.5 -57t-59.5 -23q-38 0 -60.5 23t-22.5 57q0 35 22.5 57.5t60.5 22.5q37 0 59.5 -22.5t22.5 -57.5z" />
    <glyph glyph-name="Zcaron" unicode="&#x17d;" horiz-adv-x="559" 
d="M328 480h-265q-7 11 -12 26.5t-5 35.5q0 35 15 51t42 16h377q39 -33 39 -85q0 -23 -10 -45t-27 -42l-250 -308h277q6 -11 11.5 -27t5.5 -36q0 -35 -15 -50.5t-41 -15.5h-398q-15 13 -25 34t-10 49q0 23 11.5 46t28.5 43zM294 754q23 21 47 44t47 43q29 -1 48.5 -17
t19.5 -41q0 -20 -9.5 -34t-34.5 -33l-34 -29q-26 -20 -44 -27.5t-40 -7.5q-27 0 -47.5 10.5t-38.5 27.5l-83 77q0 34 16 52.5t45 18.5q19 0 34.5 -10t41.5 -38z" />
    <glyph glyph-name="zcaron" unicode="&#x17e;" horiz-adv-x="479" 
d="M67 0q-14 13 -22.5 30t-8.5 38q0 19 8.5 36.5t21.5 33.5l188 224h-198q-5 10 -10.5 25.5t-5.5 33.5q0 32 14.5 46t37.5 14h316q14 -13 23 -30t9 -39q0 -18 -8.5 -35.5t-21.5 -33.5l-185 -225h210q6 -9 11 -25t5 -33q0 -32 -14.5 -46t-37.5 -14h-332zM241 642l90 87
q35 -1 56 -17.5t21 -42.5q0 -20 -10.5 -33.5t-33.5 -32.5l-48 -42q-35 -29 -73 -29q-12 0 -22 1.5t-21 7t-23.5 14.5t-28.5 24l-76 69q-1 2 -1 6v8q0 24 14 44.5t44 20.5q9 0 16.5 -1.5t16 -6.5t18 -13.5t22.5 -21.5z" />
    <glyph glyph-name="uni018F" unicode="&#x18f;" horiz-adv-x="661" 
d="M34 251q0 37 22.5 56.5t58.5 24.5l339 52q-20 58 -65 85.5t-105 27.5q-55 0 -98 -18.5t-70 -40.5q-20 14 -31.5 30.5t-11.5 40.5q0 23 12.5 42t35.5 32q33 20 78 30.5t100 10.5q66 0 124.5 -21t103 -63t70.5 -104.5t26 -145.5q0 -77 -22 -134t-61.5 -95.5t-94 -57.5
t-119.5 -19q-72 0 -126.5 21.5t-91 58t-55.5 85t-19 102.5zM323 110q80 0 113.5 42t35.5 117l-281 -44q1 -22 11 -42.5t27 -36.5t41 -26t53 -10z" />
    <glyph glyph-name="florin" unicode="&#x192;" horiz-adv-x="530" 
d="M315 313l-24 -234q-10 -97 -57.5 -141t-124.5 -44q-60 0 -91 19.5t-31 59.5q0 19 7.5 33.5t16.5 22.5q13 -5 26.5 -9t36.5 -4q31 0 46 15.5t19 53.5l40 402q10 98 68 143t146 45q69 0 102 -18t33 -61q0 -18 -7 -33t-17 -23q-19 6 -38.5 10t-47.5 4q-42 0 -63 -17.5
t-26 -55.5l-6 -50h153q6 -10 11 -25t5 -33q0 -32 -14.5 -46t-37.5 -14h-125z" />
    <glyph glyph-name="Ohorn" unicode="&#x1a0;" horiz-adv-x="754" 
d="M662 304q0 -78 -23.5 -138t-65.5 -100.5t-99 -61.5t-124 -21t-124 21t-98.5 61.5t-65 100.5t-23.5 138t24 137.5t66 100t98.5 61.5t122.5 21q74 0 136 -26t105 -77q20 10 32.5 32t12.5 60v34q13 6 25.5 9.5t30.5 3.5q29 0 49.5 -13.5t20.5 -46.5v-7q0 -66 -34 -108.5
t-85 -57.5q9 -28 14 -58.5t5 -64.5zM500 304q0 96 -40.5 144.5t-109.5 48.5q-68 0 -109 -48.5t-41 -144.5q0 -97 40.5 -145.5t109.5 -48.5t109.5 48.5t40.5 145.5z" />
    <glyph glyph-name="ohorn" unicode="&#x1a1;" horiz-adv-x="639" 
d="M546 241q0 -59 -18 -106.5t-51.5 -80.5t-80.5 -51t-105 -18t-105.5 17.5t-81 50.5t-51.5 80.5t-18 107.5q0 58 18.5 105.5t52 80.5t81 51t104.5 18q62 0 111.5 -21.5t83.5 -59.5q14 12 22 32.5t8 50.5v34q13 6 25.5 9.5t30.5 3.5q29 0 49.5 -13.5t20.5 -46.5v-7
q0 -63 -29.5 -103.5t-75.5 -58.5q9 -35 9 -75zM291 376q-47 0 -73 -35t-26 -100q0 -67 25.5 -101.5t73.5 -34.5t73.5 35t25.5 101q0 64 -26 99.5t-73 35.5z" />
    <glyph glyph-name="Uhorn" unicode="&#x1af;" horiz-adv-x="752" 
d="M591 419v-199q0 -54 -18 -97.5t-52 -74.5t-83 -48t-111 -17t-110.5 17t-82.5 48t-52 74.5t-18 97.5v388q11 2 31.5 5t41.5 3q45 0 64.5 -15t19.5 -59v-319q0 -54 29.5 -83.5t76.5 -29.5q48 0 77.5 29.5t29.5 83.5v385q11 2 31.5 5t41.5 3q45 0 64.5 -15t19.5 -59v-26
q26 8 41.5 31t15.5 66v34q13 6 25.5 9.5t30.5 3.5q29 0 49.5 -13.5t20.5 -46.5v-7q0 -42 -14 -74t-38 -54.5t-55.5 -34t-66.5 -11.5h-9z" />
    <glyph glyph-name="uhorn" unicode="&#x1b0;" horiz-adv-x="697" 
d="M520 100q0 -47 -41 -72q-32 -20 -79 -31.5t-104 -11.5q-54 0 -98 11.5t-75.5 36.5t-49 63t-17.5 92v291q11 3 29 6t40 3q45 0 64.5 -15t19.5 -57v-227q0 -45 23 -64.5t65 -19.5q26 0 43.5 4.5t26.5 9.5v360q10 3 28 6t40 3q45 0 65 -15t20 -57v-10q20 10 32.5 32t12.5 60
v34q13 6 25.5 9.5t30.5 3.5q29 0 49.5 -13.5t20.5 -46.5v-7q0 -41 -14 -73.5t-37 -54.5t-54.5 -34t-65.5 -12v-204v0z" />
    <glyph glyph-name="Gcaron" unicode="&#x1e6;" horiz-adv-x="659" 
d="M606 92q0 -29 -11 -43t-35 -28q-14 -8 -34 -15t-44.5 -12t-51 -8t-52.5 -3q-72 0 -133.5 18.5t-107.5 57.5t-72 99t-26 144q0 79 26.5 139.5t72 101t107 61t132.5 20.5q93 0 148 -29t55 -74q0 -23 -12 -40.5t-28 -27.5q-25 16 -62.5 30t-88.5 14q-42 0 -76.5 -13.5
t-59.5 -38.5t-39 -61t-14 -81q0 -49 13.5 -85.5t37.5 -60.5t57.5 -36t72.5 -12q24 0 43.5 5t30.5 10v113h-115q-6 10 -11 26t-5 34q0 32 15 47t39 15h168q28 0 44 -15.5t16 -43.5v-208zM357 754q23 21 47 44t47 43q29 -1 48.5 -17t19.5 -41q0 -20 -9.5 -34t-34.5 -33
l-34 -29q-26 -20 -44 -27.5t-40 -7.5q-27 0 -47.5 10.5t-38.5 27.5l-83 77q0 34 16 52.5t45 18.5q19 0 34.5 -10t41.5 -38z" />
    <glyph glyph-name="gcaron" unicode="&#x1e7;" horiz-adv-x="561" 
d="M360 39q-20 -9 -45 -14.5t-57 -5.5q-45 0 -85.5 12.5t-70.5 40.5t-48 73t-18 110q0 59 18 104t51.5 75.5t80 46t103.5 15.5q56 0 102.5 -14.5t72.5 -31.5q19 -13 30 -29.5t11 -41.5v-377q0 -52 -19 -90t-52.5 -62.5t-78.5 -36.5t-97 -12q-54 0 -93.5 9t-62.5 23
q-34 24 -34 64q0 21 9 38.5t20 25.5q28 -16 64.5 -27.5t77.5 -11.5q56 0 88.5 19.5t32.5 64.5v33zM285 134q24 0 41.5 6t31.5 16v205q-12 5 -26.5 10t-36.5 5q-48 0 -77.5 -29.5t-29.5 -92.5q0 -34 7.5 -57t20.5 -37t30.5 -20t38.5 -6zM290 642l90 87q35 -1 56 -17.5
t21 -42.5q0 -20 -10.5 -33.5t-33.5 -32.5l-48 -42q-35 -29 -73 -29q-12 0 -22 1.5t-21 7t-23.5 14.5t-28.5 24l-76 69q-1 2 -1 6v8q0 24 14 44.5t44 20.5q9 0 16.5 -1.5t16 -6.5t18 -13.5t22.5 -21.5z" />
    <glyph glyph-name="Scommaaccent" unicode="&#x218;" horiz-adv-x="546" 
d="M252 111q53 0 75.5 18.5t22.5 44.5q0 24 -17.5 38.5t-52.5 25.5l-51 16q-42 13 -76 28.5t-58 37t-37.5 51t-13.5 71.5q0 84 63.5 133t176.5 49q43 0 79.5 -6t62.5 -18.5t41 -30.5t15 -42q0 -23 -11.5 -40.5t-26.5 -29.5q-23 16 -61 27t-83 11q-48 0 -71 -15t-23 -38
q0 -20 15 -30.5t47 -21.5l54 -18q47 -16 82.5 -34.5t59.5 -42t36 -54t12 -69.5q0 -42 -16.5 -76.5t-49 -59.5t-80 -39t-109.5 -14q-46 0 -85 7.5t-67.5 21.5t-45 34.5t-16.5 46.5q0 27 15.5 45t34.5 29q27 -22 67.5 -39t91.5 -17zM293 -219q-15 -17 -33 -23.5t-38 -6.5
q-36 0 -58 21q20 41 30.5 79.5t15.5 76.5q14 8 33 13t39 5q29 0 47.5 -11t18.5 -37q0 -12 -5 -28t-13 -32.5t-18 -31.5t-19 -25z" />
    <glyph glyph-name="scommaaccent" unicode="&#x219;" horiz-adv-x="483" 
d="M450 141q0 -74 -55 -115.5t-162 -41.5q-42 0 -76.5 6t-59.5 18t-39 30t-14 42q0 22 9 37.5t23 25.5q29 -17 66 -30t86 -13q71 0 71 40q0 17 -12.5 26t-42.5 16l-40 9q-82 17 -122 52.5t-40 99.5q0 71 57.5 112.5t154.5 41.5q36 0 68 -5.5t55 -16.5t36.5 -27.5t13.5 -38.5
q0 -20 -8 -35.5t-21 -25.5q-8 5 -23.5 11t-33.5 11t-38 8t-37 3q-35 0 -54.5 -9.5t-19.5 -28.5q0 -14 11 -22t40 -15l38 -9q91 -20 130 -58t39 -98zM273 -219q-15 -17 -33 -23.5t-38 -6.5q-36 0 -58 21q20 41 30.5 79.5t15.5 76.5q14 8 33 13t39 5q29 0 47.5 -11t18.5 -37
q0 -12 -5 -28t-13 -32.5t-18 -31.5t-19 -25z" />
    <glyph glyph-name="Wgrave" unicode="&#x1e80;" horiz-adv-x="851" 
d="M347 458q11 5 31.5 10.5t43.5 5.5q38 0 63 -11t31 -33q12 -44 23 -81.5t21 -72.5t19.5 -69t18.5 -71h5q10 62 18 119.5t15.5 113t14.5 110.5t14 113q32 19 71 19q33 0 57 -14.5t24 -48.5q0 -21 -4.5 -61.5t-12.5 -91t-18.5 -105.5t-22 -106.5t-23.5 -94t-23 -67.5
q-14 -12 -44 -20.5t-62 -8.5q-42 0 -71.5 11.5t-36.5 32.5q-14 42 -32.5 105.5t-38.5 136.5q-8 -36 -17 -72t-18 -70t-17.5 -63.5t-15.5 -52.5q-14 -11 -40.5 -19.5t-59.5 -8.5q-40 0 -72.5 12t-42.5 32q-8 19 -19 55t-22.5 82.5t-23 100t-22 107t-18.5 104.5t-13 93
q13 11 35 21.5t49 10.5q34 0 55.5 -15.5t27.5 -50.5q16 -94 26.5 -160t18 -113t13 -79t10.5 -57h5q10 41 19 76t18.5 71.5t20 78t22.5 96.5zM262 745q-1 4 -1 10.5v9.5q0 33 18.5 52t46.5 19q18 0 34 -8.5t33 -25.5l86 -88q-4 -32 -23 -47t-41 -15q-19 0 -33 6.5t-28 17.5z
" />
    <glyph glyph-name="wgrave" unicode="&#x1e81;" horiz-adv-x="776" 
d="M392 286q-9 -37 -20 -76t-22 -76t-21 -68t-16 -51q-27 -24 -86 -24q-36 0 -63 10t-36 30q-11 24 -26 76t-29.5 114t-27.5 126t-21 112q12 13 33.5 22.5t46.5 9.5q32 0 52 -14.5t25 -49.5q10 -70 17.5 -120t13.5 -85t10.5 -56.5t6.5 -33.5h4l12 48t19 72.5t23.5 87
t24.5 93.5q17 10 35.5 15.5t44.5 5.5q32 0 54.5 -10.5t28.5 -31.5q13 -45 25 -88.5t22 -80.5t17.5 -66t11.5 -45h5q14 79 27 165.5t24 175.5q16 9 34 13.5t36 4.5q31 0 51.5 -13.5t20.5 -46.5q0 -15 -5.5 -47t-14 -72t-19.5 -84.5t-22 -85.5t-21.5 -75t-17.5 -52
q-11 -11 -37 -17.5t-56 -6.5q-76 0 -89 37q-7 20 -17 49t-20.5 63.5t-20.5 72t-17 73.5zM220 644q-1 4 -1.5 10.5t-0.5 10.5q0 32 19 51t47 19q18 0 35.5 -8t31.5 -25l89 -112q-4 -32 -23 -47t-41 -15q-19 0 -32 5.5t-27 18.5z" />
    <glyph glyph-name="Wacute" unicode="&#x1e82;" horiz-adv-x="851" 
d="M347 458q11 5 31.5 10.5t43.5 5.5q38 0 63 -11t31 -33q12 -44 23 -81.5t21 -72.5t19.5 -69t18.5 -71h5q10 62 18 119.5t15.5 113t14.5 110.5t14 113q32 19 71 19q33 0 57 -14.5t24 -48.5q0 -21 -4.5 -61.5t-12.5 -91t-18.5 -105.5t-22 -106.5t-23.5 -94t-23 -67.5
q-14 -12 -44 -20.5t-62 -8.5q-42 0 -71.5 11.5t-36.5 32.5q-14 42 -32.5 105.5t-38.5 136.5q-8 -36 -17 -72t-18 -70t-17.5 -63.5t-15.5 -52.5q-14 -11 -40.5 -19.5t-59.5 -8.5q-40 0 -72.5 12t-42.5 32q-8 19 -19 55t-22.5 82.5t-23 100t-22 107t-18.5 104.5t-13 93
q13 11 35 21.5t49 10.5q34 0 55.5 -15.5t27.5 -50.5q16 -94 26.5 -160t18 -113t13 -79t10.5 -57h5q10 41 19 76t18.5 71.5t20 78t22.5 96.5zM515 841q38 0 59.5 -18.5t21.5 -45.5q0 -19 -9 -34t-34 -31l-97 -61q-36 0 -55 16t-19 38q0 12 4 22.5t18 22.5z" />
    <glyph glyph-name="wacute" unicode="&#x1e83;" horiz-adv-x="776" 
d="M392 286q-9 -37 -20 -76t-22 -76t-21 -68t-16 -51q-27 -24 -86 -24q-36 0 -63 10t-36 30q-11 24 -26 76t-29.5 114t-27.5 126t-21 112q12 13 33.5 22.5t46.5 9.5q32 0 52 -14.5t25 -49.5q10 -70 17.5 -120t13.5 -85t10.5 -56.5t6.5 -33.5h4l12 48t19 72.5t23.5 87
t24.5 93.5q17 10 35.5 15.5t44.5 5.5q32 0 54.5 -10.5t28.5 -31.5q13 -45 25 -88.5t22 -80.5t17.5 -66t11.5 -45h5q14 79 27 165.5t24 175.5q16 9 34 13.5t36 4.5q31 0 51.5 -13.5t20.5 -46.5q0 -15 -5.5 -47t-14 -72t-19.5 -84.5t-22 -85.5t-21.5 -75t-17.5 -52
q-11 -11 -37 -17.5t-56 -6.5q-76 0 -89 37q-7 20 -17 49t-20.5 63.5t-20.5 72t-17 73.5zM467 740q46 -1 69.5 -20.5t23.5 -45.5q0 -21 -9 -35t-31 -33l-94 -80q-40 0 -60.5 18.5t-20.5 41.5q0 11 4.5 21t17.5 24z" />
    <glyph glyph-name="Wdieresis" unicode="&#x1e84;" horiz-adv-x="851" 
d="M347 458q11 5 31.5 10.5t43.5 5.5q38 0 63 -11t31 -33q12 -44 23 -81.5t21 -72.5t19.5 -69t18.5 -71h5q10 62 18 119.5t15.5 113t14.5 110.5t14 113q32 19 71 19q33 0 57 -14.5t24 -48.5q0 -21 -4.5 -61.5t-12.5 -91t-18.5 -105.5t-22 -106.5t-23.5 -94t-23 -67.5
q-14 -12 -44 -20.5t-62 -8.5q-42 0 -71.5 11.5t-36.5 32.5q-14 42 -32.5 105.5t-38.5 136.5q-8 -36 -17 -72t-18 -70t-17.5 -63.5t-15.5 -52.5q-14 -11 -40.5 -19.5t-59.5 -8.5q-40 0 -72.5 12t-42.5 32q-8 19 -19 55t-22.5 82.5t-23 100t-22 107t-18.5 104.5t-13 93
q13 11 35 21.5t49 10.5q34 0 55.5 -15.5t27.5 -50.5q16 -94 26.5 -160t18 -113t13 -79t10.5 -57h5q10 41 19 76t18.5 71.5t20 78t22.5 96.5zM399 744q0 -32 -21.5 -53.5t-56.5 -21.5t-56 21.5t-21 53.5t21 54.5t56 22.5t56.5 -22.5t21.5 -54.5zM606 744q0 -32 -21 -53.5
t-56 -21.5t-56.5 21.5t-21.5 53.5t21.5 54.5t56.5 22.5t56 -22.5t21 -54.5z" />
    <glyph glyph-name="wdieresis" unicode="&#x1e85;" horiz-adv-x="776" 
d="M392 286q-9 -37 -20 -76t-22 -76t-21 -68t-16 -51q-27 -24 -86 -24q-36 0 -63 10t-36 30q-11 24 -26 76t-29.5 114t-27.5 126t-21 112q12 13 33.5 22.5t46.5 9.5q32 0 52 -14.5t25 -49.5q10 -70 17.5 -120t13.5 -85t10.5 -56.5t6.5 -33.5h4l12 48t19 72.5t23.5 87
t24.5 93.5q17 10 35.5 15.5t44.5 5.5q32 0 54.5 -10.5t28.5 -31.5q13 -45 25 -88.5t22 -80.5t17.5 -66t11.5 -45h5q14 79 27 165.5t24 175.5q16 9 34 13.5t36 4.5q31 0 51.5 -13.5t20.5 -46.5q0 -15 -5.5 -47t-14 -72t-19.5 -84.5t-22 -85.5t-21.5 -75t-17.5 -52
q-11 -11 -37 -17.5t-56 -6.5q-76 0 -89 37q-7 20 -17 49t-20.5 63.5t-20.5 72t-17 73.5zM361 616q0 -32 -21.5 -53.5t-56.5 -21.5t-56 21.5t-21 53.5t21 54.5t56 22.5t56.5 -22.5t21.5 -54.5zM568 616q0 -32 -21 -53.5t-56 -21.5t-56.5 21.5t-21.5 53.5t21.5 54.5t56.5 22.5
t56 -22.5t21 -54.5z" />
    <glyph glyph-name="Ygrave" unicode="&#x1ef2;" horiz-adv-x="569" 
d="M555 544q0 -12 -8.5 -34t-29.5 -61t-56.5 -99t-89.5 -147v-202q-11 -3 -30.5 -5.5t-40.5 -2.5q-47 0 -65 16t-18 56v139q-26 38 -56 85.5t-59 96t-54 95.5t-40 84q11 17 31.5 31t50.5 14q35 0 57 -14.5t42 -54.5q2 -3 10 -18.5t18.5 -36t22.5 -44.5t22.5 -44.5
t18.5 -35.5t10 -18h5q16 33 29.5 63t26.5 59.5t26.5 60t28.5 66.5q16 8 35.5 12.5t36.5 4.5q32 0 54 -17t22 -49zM119 745q-1 4 -1 10.5v9.5q0 33 18.5 52t46.5 19q18 0 34 -8.5t33 -25.5l86 -88q-4 -32 -23 -47t-41 -15q-19 0 -33 6.5t-28 17.5z" />
    <glyph glyph-name="ygrave" unicode="&#x1ef3;" horiz-adv-x="539" 
d="M136 120q-23 50 -52.5 130.5t-61.5 208.5q12 13 33.5 22.5t46.5 9.5q32 0 52 -13.5t31 -49.5q22 -73 44.5 -144t45.5 -143h4q12 34 25 74.5t25 84t22.5 88t18.5 86.5q31 17 65 17q32 0 55 -14t23 -46q0 -36 -12.5 -91.5t-33 -116t-46 -120t-52.5 -104.5
q-56 -95 -101 -141.5t-91 -46.5q-37 0 -61 22.5t-29 57.5q32 28 66.5 65.5t58.5 75.5q-17 5 -35.5 22.5t-40.5 65.5zM115 644q-1 4 -1.5 10.5t-0.5 10.5q0 32 19 51t47 19q18 0 35.5 -8t31.5 -25l89 -112q-4 -32 -23 -47t-41 -15q-19 0 -32 5.5t-27 18.5z" />
    <glyph glyph-name="circumflex" unicode="&#x2c6;" horiz-adv-x="348" 
d="M172 624q-13 -14 -23.5 -25.5t-20 -22.5t-19 -21.5t-19.5 -23.5q-35 1 -56 16.5t-21 41.5q0 19 10 32t30 33l39 40q17 17 36.5 28t45.5 11q24 0 44 -9t45 -40l74 -90q0 -25 -15 -43t-45 -18q-18 0 -32 10t-28 27z" />
    <glyph glyph-name="caron" unicode="&#x2c7;" horiz-adv-x="350" 
d="M174 642l90 87q35 -1 56 -17.5t21 -42.5q0 -20 -10.5 -33.5t-33.5 -32.5l-48 -42q-35 -29 -73 -29q-12 0 -22 1.5t-21 7t-23.5 14.5t-28.5 24l-76 69q-1 2 -1 6v8q0 24 14 44.5t44 20.5q9 0 16.5 -1.5t16 -6.5t18 -13.5t22.5 -21.5z" />
    <glyph glyph-name="breve" unicode="&#x2d8;" horiz-adv-x="336" 
d="M170 663q31 0 50.5 15.5t25.5 39.5q5 1 9 1h9q35 0 53 -20t18 -46q0 -42 -42.5 -72t-122.5 -30q-81 0 -123 30t-42 72q0 26 17.5 46t53.5 20h9t9 -1q5 -24 25 -39.5t51 -15.5z" />
    <glyph glyph-name="dotaccent" unicode="&#x2d9;" horiz-adv-x="206" 
d="M185 627q0 -34 -22.5 -57t-59.5 -23q-38 0 -60.5 23t-22.5 57q0 35 22.5 57.5t60.5 22.5q37 0 59.5 -22.5t22.5 -57.5z" />
    <glyph glyph-name="ring" unicode="&#x2da;" horiz-adv-x="286" 
d="M13 635q0 46 34 77.5t93 31.5q62 0 96.5 -31.5t34.5 -77.5q0 -45 -34.5 -76t-96.5 -31q-59 0 -93 31t-34 76zM106 635q0 -17 10.5 -26.5t24.5 -9.5q16 0 26 9.5t10 26.5t-10 27t-26 10q-14 0 -24.5 -10t-10.5 -27z" />
    <glyph glyph-name="ogonek" unicode="&#x2db;" horiz-adv-x="235" 
d="M197 10q-16 -10 -27.5 -23.5t-11.5 -34.5q0 -46 56 -46h7q3 -8 5 -17.5t2 -20.5q0 -26 -18.5 -46.5t-67.5 -20.5q-54 0 -88.5 27.5t-34.5 76.5q0 20 6 37t15 30t19.5 22t20.5 14z" />
    <glyph glyph-name="tilde" unicode="&#x2dc;" horiz-adv-x="374" 
d="M102 703q21 0 40.5 -4.5t37.5 -10.5t33.5 -10.5t27.5 -4.5q21 0 32 12.5t16 22.5h5q29 0 50.5 -20t21.5 -52q0 -42 -26.5 -62t-66.5 -20q-24 0 -44 4.5t-37.5 10.5t-32 10.5t-26.5 4.5q-21 0 -32 -12t-16 -23h-4q-29 0 -51 19.5t-22 52.5q0 21 8.5 36.5t22 25.5t30 15
t33.5 5z" />
    <glyph glyph-name="hungarumlaut" unicode="&#x2dd;" horiz-adv-x="488" 
d="M133 740q46 -1 69.5 -20.5t23.5 -44.5q0 -20 -10 -34t-30 -35l-74 -80q-40 0 -60.5 18.5t-20.5 40.5q0 11 4 21t15 25zM349 740q46 -1 69.5 -20.5t23.5 -44.5q0 -20 -11 -35t-29 -34l-74 -80q-40 0 -60.5 18.5t-20.5 40.5q0 11 4 21t15 25z" />
    <glyph glyph-name="gravecomb" unicode="&#x300;" 
d="M-277 644q-1 4 -1.5 10.5t-0.5 10.5q0 32 19 51t47 19q18 0 35.5 -8t31.5 -25l89 -112q-4 -32 -23 -47t-41 -15q-19 0 -32 5.5t-27 18.5z" />
    <glyph glyph-name="acutecomb" unicode="&#x301;" 
d="M-119 740q46 -1 69.5 -20.5t23.5 -45.5q0 -21 -9 -35t-31 -33l-94 -80q-40 0 -60.5 18.5t-20.5 41.5q0 11 4.5 21t17.5 24z" />
    <glyph glyph-name="tildecomb" unicode="&#x303;" 
d="M-272 705q21 0 40.5 -4.5t37.5 -10t33 -10t27 -4.5q22 0 33.5 12t16.5 23q32 -1 54 -21t22 -52q0 -41 -26.5 -61.5t-67.5 -20.5q-23 0 -43 4.5t-37 10.5t-31.5 10.5t-26.5 4.5q-21 0 -32.5 -12t-17.5 -23q-32 0 -53.5 20t-21.5 52q0 21 8 36t21 25.5t29.5 15.5t34.5 5z
" />
    <glyph glyph-name="hookabovecomb" unicode="&#x309;" 
d="M-138 758q27 0 53.5 -7t47.5 -20.5t33.5 -34.5t12.5 -49q0 -24 -8.5 -42t-22.5 -30t-32.5 -18t-38.5 -7v-26q-5 -2 -18 -5.5t-30 -3.5q-31 0 -42.5 6.5t-11.5 17.5v36q0 24 11 32t28 8h15q37 0 37 28q0 14 -12 22.5t-39 8.5q-21 0 -39.5 -6t-30.5 -11q-23 15 -23 43
q0 15 9 25.5t24 18t35 11t42 3.5z" />
    <glyph glyph-name="dotbelowcomb" unicode="&#x323;" 
d="M-21 -140q0 -34 -22.5 -57t-60.5 -23q-37 0 -59.5 23t-22.5 57q0 35 22.5 57.5t59.5 22.5q38 0 60.5 -22.5t22.5 -57.5z" />
    <glyph glyph-name="uni02BC" unicode="&#x2bc;" horiz-adv-x="204" 
d="M138 399q-11 -17 -24.5 -24.5t-34.5 -7.5q-17 0 -31.5 4t-27.5 10q5 57 10.5 120t8.5 114q13 7 32.5 13t39.5 6q29 0 52.5 -13t23.5 -46q0 -19 -4 -43t-11 -49t-16 -47t-18 -37z" />
    <glyph glyph-name="uni02BB" unicode="&#x2bb;" horiz-adv-x="206" 
d="M68 602q11 17 24.5 24.5t34.5 7.5q17 0 31.5 -4t27.5 -10q-2 -28 -5 -58.5t-5.5 -61t-5 -60t-3.5 -54.5q-13 -7 -32.5 -13t-38.5 -6q-30 0 -53.5 12.5t-23.5 46.5q0 19 4 43.5t11 49t16 47t18 36.5z" />
    <glyph glyph-name="uni02C9" unicode="&#x2c9;" horiz-adv-x="355" 
d="M32 565q-5 10 -10 25t-5 31q0 33 13.5 46.5t36.5 13.5h258q8 -10 11.5 -24.5t3.5 -31.5q0 -33 -13.5 -46.5t-36.5 -13.5h-258z" />
    <glyph glyph-name="uni02CB" unicode="&#x2cb;" horiz-adv-x="292" 
d="M25 644q-1 4 -1.5 10.5t-0.5 10.5q0 32 19 51t47 19q18 0 35.5 -8t31.5 -25l89 -112q-4 -32 -23 -47t-41 -15q-19 0 -32 5.5t-27 18.5z" />
    <glyph glyph-name="uni02BE" unicode="&#x2be;" horiz-adv-x="255" 
d="M105 512q0 70 -82 70q-2 5 -3 13.5t-1 12.5q0 26 19.5 43t54.5 17q24 0 47 -9.5t42 -29t30.5 -48.5t11.5 -69t-11.5 -69.5t-30.5 -49t-42 -29t-47 -9.5q-35 0 -54.5 17t-19.5 43q0 4 1 12.5t3 13.5q82 0 82 71z" />
    <glyph glyph-name="uni02BF" unicode="&#x2bf;" horiz-adv-x="255" 
d="M151 512q0 -71 81 -71q2 -5 3 -13.5t1 -12.5q0 -26 -19.5 -43t-54.5 -17q-24 0 -47 9.5t-41.5 29t-30 49t-11.5 69.5t11.5 69t30 48.5t41.5 29t47 9.5q35 0 54.5 -17t19.5 -43q0 -4 -1 -12.5t-3 -13.5q-81 0 -81 -70z" />
    <glyph glyph-name="uni02CA" unicode="&#x2ca;" horiz-adv-x="309" 
d="M179 740q46 -1 69.5 -20.5t23.5 -45.5q0 -21 -9 -35t-31 -33l-94 -80q-40 0 -60.5 18.5t-20.5 41.5q0 11 4.5 21t17.5 24z" />
    <glyph glyph-name="uni02CC" unicode="&#x2cc;" horiz-adv-x="382" 
d="M241 -321q-8 -2 -23.5 -4.5t-29.5 -2.5q-32 0 -47.5 10.5t-15.5 44.5v172q8 2 23.5 5t30.5 3q29 0 45.5 -11t16.5 -45v-172z" />
    <glyph glyph-name="uni02C8" unicode="&#x2c8;" horiz-adv-x="342" 
d="M241 534q-8 -2 -23.5 -4.5t-29.5 -2.5q-32 0 -47.5 10.5t-15.5 44.5v172q8 2 23.5 5t30.5 3q29 0 45.5 -11t16.5 -45v-172z" />
    <glyph glyph-name="uni0308" unicode="&#x308;" horiz-adv-x="374" 
d="M161 625q0 -32 -21.5 -53.5t-56.5 -21.5t-56 21.5t-21 53.5t21 54.5t56 22.5t56.5 -22.5t21.5 -54.5zM368 625q0 -32 -21 -53.5t-56 -21.5t-56.5 21.5t-21.5 53.5t21.5 54.5t56.5 22.5t56 -22.5t21 -54.5z" />
    <glyph glyph-name="uni0307" unicode="&#x307;" horiz-adv-x="206" 
d="M185 627q0 -34 -22.5 -57t-59.5 -23q-38 0 -60.5 23t-22.5 57q0 35 22.5 57.5t60.5 22.5q37 0 59.5 -22.5t22.5 -57.5z" />
    <glyph glyph-name="uni030B" unicode="&#x30b;" horiz-adv-x="298" 
d="M131 740q46 -1 69.5 -20.5t23.5 -44.5q0 -20 -10 -34t-30 -35l-74 -80q-40 0 -60.5 18.5t-20.5 40.5q0 11 4 21t15 25zM347 740q46 -1 69.5 -20.5t23.5 -44.5q0 -20 -11 -35t-29 -34l-74 -80q-40 0 -60.5 18.5t-20.5 40.5q0 11 4 21t15 25z" />
    <glyph glyph-name="uni0302" unicode="&#x302;" horiz-adv-x="348" 
d="M172 624q-13 -14 -23.5 -25.5t-20 -22.5t-19 -21.5t-19.5 -23.5q-35 1 -56 16.5t-21 41.5q0 19 10 32t30 33l39 40q17 17 36.5 28t45.5 11q24 0 44 -9t45 -40l74 -90q0 -25 -15 -43t-45 -18q-18 0 -32 10t-28 27z" />
    <glyph glyph-name="uni030C" unicode="&#x30c;" horiz-adv-x="350" 
d="M174 642l90 87q35 -1 56 -17.5t21 -42.5q0 -20 -10.5 -33.5t-33.5 -32.5l-48 -42q-35 -29 -73 -29q-12 0 -22 1.5t-21 7t-23.5 14.5t-28.5 24l-76 69q-1 2 -1 6v8q0 24 14 44.5t44 20.5q9 0 16.5 -1.5t16 -6.5t18 -13.5t22.5 -21.5z" />
    <glyph glyph-name="uni0306" unicode="&#x306;" horiz-adv-x="336" 
d="M170 663q31 0 50.5 15.5t25.5 39.5q5 1 9 1h9q35 0 53 -20t18 -46q0 -42 -42.5 -72t-122.5 -30q-81 0 -123 30t-42 72q0 26 17.5 46t53.5 20h9t9 -1q5 -24 25 -39.5t51 -15.5z" />
    <glyph glyph-name="uni030A" unicode="&#x30a;" horiz-adv-x="286" 
d="M13 635q0 46 34 77.5t93 31.5q62 0 96.5 -31.5t34.5 -77.5q0 -45 -34.5 -76t-96.5 -31q-59 0 -93 31t-34 76zM106 635q0 -17 10.5 -26.5t24.5 -9.5q16 0 26 9.5t10 26.5t-10 27t-26 10q-14 0 -24.5 -10t-10.5 -27z" />
    <glyph glyph-name="uni0304" unicode="&#x304;" horiz-adv-x="321" 
d="M32 565q-5 10 -10 25t-5 31q0 33 13.5 46.5t36.5 13.5h258q8 -10 11.5 -24.5t3.5 -31.5q0 -33 -13.5 -46.5t-36.5 -13.5h-258z" />
    <glyph glyph-name="uni030F" unicode="&#x30f;" horiz-adv-x="302" 
d="M12 654v6q0 35 19.5 53t46.5 18q22 0 38 -11.5t30 -31.5l78 -112q-8 -31 -24 -43t-38 -12q-18 0 -33 9.5t-28 23.5zM232 654v5q0 35 19 53.5t46 18.5q23 0 39 -11.5t30 -31.5l78 -112q-8 -31 -24 -43t-39 -12q-18 0 -32.5 9.5t-27.5 23.5z" />
    <glyph glyph-name="uni0311" unicode="&#x311;" horiz-adv-x="336" 
d="M170 734q-31 0 -50.5 -15.5t-25.5 -38.5q-5 -1 -9 -1h-9q-36 0 -53.5 20t-17.5 45q0 43 42.5 73t122.5 30t122.5 -30.5t42.5 -72.5q0 -25 -17.5 -45t-53.5 -20h-9t-9 1q-5 23 -25 38.5t-51 15.5z" />
    <glyph glyph-name="uni0312" unicode="&#x312;" horiz-adv-x="206" 
d="M74 689q15 17 33 23.5t38 6.5q35 0 58 -21q-20 -41 -30.5 -79.5t-15.5 -75.5q-14 -8 -33 -13.5t-39 -5.5q-29 0 -47.5 11t-18.5 37q0 12 5 28t13 32.5t18 31.5t19 25z" />
    <glyph glyph-name="uni031B" unicode="&#x31b;" horiz-adv-x="218" 
d="M-7 305q-7 10 -12 38t-5 55q37 0 61 23t24 77v34q13 6 25.5 9.5t30.5 3.5q29 0 49.5 -13.5t20.5 -46.5v-7q0 -42 -14 -74t-38 -54.5t-55.5 -34t-66.5 -11.5z" />
    <glyph glyph-name="uni0324" unicode="&#x324;" horiz-adv-x="374" 
d="M161 -145q0 -32 -21.5 -53.5t-56.5 -21.5t-56 21.5t-21 53.5t21 54.5t56 22.5t56.5 -22.5t21.5 -54.5zM368 -145q0 -32 -21 -53.5t-56 -21.5t-56.5 21.5t-21.5 53.5t21.5 54.5t56.5 22.5t56 -22.5t21 -54.5z" />
    <glyph glyph-name="uni0326" unicode="&#x326;" horiz-adv-x="200" 
d="M136 -219q-15 -17 -33 -23.5t-38 -6.5q-36 0 -58 21q20 41 30.5 79.5t15.5 76.5q14 8 33 13t39 5q29 0 47.5 -11t18.5 -37q0 -12 -5 -28t-13 -32.5t-18 -31.5t-19 -25z" />
    <glyph glyph-name="uni0327" unicode="&#x327;" horiz-adv-x="195" 
d="M123 34q36 -21 50.5 -52t14.5 -66q0 -51 -31.5 -83.5t-86.5 -32.5q-39 0 -62.5 18.5t-23.5 52.5q0 14 5 29h11q32 0 46 15t14 38q0 11 -4.5 25.5t-15.5 25.5z" />
    <glyph glyph-name="uni0328" unicode="&#x328;" horiz-adv-x="235" 
d="M197 10q-16 -10 -27.5 -23.5t-11.5 -34.5q0 -46 56 -46h7q3 -8 5 -17.5t2 -20.5q0 -26 -18.5 -46.5t-67.5 -20.5q-54 0 -88.5 27.5t-34.5 76.5q0 20 6 37t15 30t19.5 22t20.5 14z" />
    <glyph glyph-name="uni032E" unicode="&#x32e;" horiz-adv-x="336" 
d="M170 -91q31 0 50.5 15.5t25.5 39.5q5 1 9 1h9q35 0 53 -20t18 -46q0 -42 -42.5 -72t-122.5 -30q-81 0 -123 30t-42 72q0 26 17.5 46t53.5 20h9t9 -1q5 -24 25 -39.5t51 -15.5z" />
    <glyph glyph-name="uni0331" unicode="&#x331;" horiz-adv-x="368" 
d="M30 -208q-5 10 -10 24.5t-5 31.5q0 33 14 46.5t37 13.5h269q8 -10 11.5 -25t3.5 -31q0 -33 -13.5 -46.5t-36.5 -13.5h-270z" />
    <glyph glyph-name="uni1E0C" unicode="&#x1e0c;" horiz-adv-x="663" 
d="M463 303q0 97 -47.5 144.5t-123.5 47.5q-18 0 -34 -1t-32 -4v-372q13 -3 31.5 -4.5t35.5 -1.5q78 0 124 47.5t46 143.5zM625 305q0 -80 -24 -140t-67.5 -100t-105 -60t-136.5 -20q-17 0 -38.5 1t-44 3.5t-45.5 7t-42 11.5q-52 19 -52 68v476q0 20 10.5 31t30.5 18
q41 13 87 17t84 4q77 0 140 -19t108 -58.5t70 -99t25 -140.5zM381 -140q0 -34 -22.5 -57t-60.5 -23q-37 0 -59.5 23t-22.5 57q0 35 22.5 57.5t59.5 22.5q38 0 60.5 -22.5t22.5 -57.5z" />
    <glyph glyph-name="uni1E0D" unicode="&#x1e0d;" horiz-adv-x="578" 
d="M286 496q23 0 43.5 -3.5t37.5 -9.5v168q11 3 29 6t40 3q45 0 64.5 -15t19.5 -57v-487q0 -24 -10 -40.5t-32 -30.5q-28 -17 -72 -31t-101 -14q-126 0 -198.5 63.5t-72.5 190.5q0 66 19.5 114t53.5 80t80 47.5t99 15.5zM368 361q-13 6 -28.5 10.5t-32.5 4.5q-54 0 -86 -33
t-32 -105q0 -69 30.5 -100.5t84.5 -31.5q21 0 37.5 4.5t26.5 10.5v240zM387 -140q0 -34 -22.5 -57t-60.5 -23q-37 0 -59.5 23t-22.5 57q0 35 22.5 57.5t59.5 22.5q38 0 60.5 -22.5t22.5 -57.5z" />
    <glyph glyph-name="uni1E0E" unicode="&#x1e0e;" horiz-adv-x="663" 
d="M463 303q0 97 -47.5 144.5t-123.5 47.5q-18 0 -34 -1t-32 -4v-372q13 -3 31.5 -4.5t35.5 -1.5q78 0 124 47.5t46 143.5zM625 305q0 -80 -24 -140t-67.5 -100t-105 -60t-136.5 -20q-17 0 -38.5 1t-44 3.5t-45.5 7t-42 11.5q-52 19 -52 68v476q0 20 10.5 31t30.5 18
q41 13 87 17t84 4q77 0 140 -19t108 -58.5t70 -99t25 -140.5zM148 -206q-5 10 -10 24.5t-5 31.5q0 33 14 46.5t37 13.5h269q8 -10 11.5 -25t3.5 -31q0 -33 -13.5 -46.5t-36.5 -13.5h-270z" />
    <glyph glyph-name="uni1E0F" unicode="&#x1e0f;" horiz-adv-x="578" 
d="M286 496q23 0 43.5 -3.5t37.5 -9.5v168q11 3 29 6t40 3q45 0 64.5 -15t19.5 -57v-487q0 -24 -10 -40.5t-32 -30.5q-28 -17 -72 -31t-101 -14q-126 0 -198.5 63.5t-72.5 190.5q0 66 19.5 114t53.5 80t80 47.5t99 15.5zM368 361q-13 6 -28.5 10.5t-32.5 4.5q-54 0 -86 -33
t-32 -105q0 -69 30.5 -100.5t84.5 -31.5q21 0 37.5 4.5t26.5 10.5v240zM145 -206q-5 10 -10 24.5t-5 31.5q0 33 14 46.5t37 13.5h269q8 -10 11.5 -25t3.5 -31q0 -33 -13.5 -46.5t-36.5 -13.5h-270z" />
    <glyph glyph-name="uni0237" unicode="&#x237;" horiz-adv-x="279" 
d="M218 -12q0 -48 -11.5 -82t-30.5 -56t-43.5 -32t-51.5 -10q-40 0 -62 24.5t-24 60.5q36 17 53 41.5t17 68.5v476q11 3 29 6t40 3q45 0 64.5 -15t19.5 -57v-428v0z" />
    <glyph glyph-name="uni0251" unicode="&#x251;" horiz-adv-x="580" 
d="M520 150q0 -40 9.5 -62t23.5 -39q-4 -26 -27 -45t-56 -19q-51 0 -73 39q-23 -17 -56 -28t-75 -11q-47 0 -89 14.5t-73.5 45t-50.5 77.5t-19 113t20.5 115.5t56.5 81.5t85 48t107 16q54 0 100.5 -12t75.5 -32q19 -13 30 -29.5t11 -41.5v-231zM293 106q24 0 44 8t31 20v227
q-9 5 -25.5 10t-35.5 5q-54 0 -86 -33.5t-32 -103.5q0 -71 28.5 -102t75.5 -31z" />
    <glyph glyph-name="uni0259" unicode="&#x259;" horiz-adv-x="543" 
d="M31 195q0 32 17 48t48 21l260 38q-14 43 -48 61t-79 18q-39 0 -74 -11.5t-57 -25.5q-14 9 -24.5 25.5t-10.5 35.5q0 22 13.5 39.5t37 28.5t56 17t70.5 6q58 0 107.5 -16.5t85 -49.5t55.5 -82t20 -114t-20.5 -112t-55 -77.5t-79 -45t-91.5 -14.5q-52 0 -94.5 16t-73 44
t-47 66.5t-16.5 83.5zM262 98q42 0 70.5 25.5t32.5 76.5l-190 -30q3 -28 23.5 -50t63.5 -22z" />
    <glyph glyph-name="uni0261" unicode="&#x261;" horiz-adv-x="561" 
d="M360 39q-20 -9 -45 -14.5t-57 -5.5q-45 0 -85.5 12.5t-70.5 40.5t-48 73t-18 110q0 59 18 104t51.5 75.5t80 46t103.5 15.5q56 0 102.5 -14.5t72.5 -31.5q19 -13 30 -29.5t11 -41.5v-377q0 -52 -19 -90t-52.5 -62.5t-78.5 -36.5t-97 -12q-54 0 -93.5 9t-62.5 23
q-34 24 -34 64q0 21 9 38.5t20 25.5q28 -16 64.5 -27.5t77.5 -11.5q56 0 88.5 19.5t32.5 64.5v33zM285 134q24 0 41.5 6t31.5 16v205q-12 5 -26.5 10t-36.5 5q-48 0 -77.5 -29.5t-29.5 -92.5q0 -34 7.5 -57t20.5 -37t30.5 -20t38.5 -6z" />
    <glyph glyph-name="uni1E20" unicode="&#x1e20;" horiz-adv-x="659" 
d="M606 92q0 -29 -11 -43t-35 -28q-14 -8 -34 -15t-44.5 -12t-51 -8t-52.5 -3q-72 0 -133.5 18.5t-107.5 57.5t-72 99t-26 144q0 79 26.5 139.5t72 101t107 61t132.5 20.5q93 0 148 -29t55 -74q0 -23 -12 -40.5t-28 -27.5q-25 16 -62.5 30t-88.5 14q-42 0 -76.5 -13.5
t-59.5 -38.5t-39 -61t-14 -81q0 -49 13.5 -85.5t37.5 -60.5t57.5 -36t72.5 -12q24 0 43.5 5t30.5 10v113h-115q-6 10 -11 26t-5 34q0 32 15 47t39 15h168q28 0 44 -15.5t16 -43.5v-208zM201 692q-5 10 -10 25t-5 31q0 33 13.5 46.5t36.5 13.5h258q8 -10 11.5 -24.5
t3.5 -31.5q0 -33 -13.5 -46.5t-36.5 -13.5h-258z" />
    <glyph glyph-name="uni1E21" unicode="&#x1e21;" horiz-adv-x="561" 
d="M360 39q-20 -9 -45 -14.5t-57 -5.5q-45 0 -85.5 12.5t-70.5 40.5t-48 73t-18 110q0 59 18 104t51.5 75.5t80 46t103.5 15.5q56 0 102.5 -14.5t72.5 -31.5q19 -13 30 -29.5t11 -41.5v-377q0 -52 -19 -90t-52.5 -62.5t-78.5 -36.5t-97 -12q-54 0 -93.5 9t-62.5 23
q-34 24 -34 64q0 21 9 38.5t20 25.5q28 -16 64.5 -27.5t77.5 -11.5q56 0 88.5 19.5t32.5 64.5v33zM285 134q24 0 41.5 6t31.5 16v205q-12 5 -26.5 10t-36.5 5q-48 0 -77.5 -29.5t-29.5 -92.5q0 -34 7.5 -57t20.5 -37t30.5 -20t38.5 -6zM137 565q-5 10 -10 25t-5 31
q0 33 13.5 46.5t36.5 13.5h258q8 -10 11.5 -24.5t3.5 -31.5q0 -33 -13.5 -46.5t-36.5 -13.5h-258z" />
    <glyph glyph-name="uni1E24" unicode="&#x1e24;" horiz-adv-x="667" 
d="M240 1q-11 -3 -31 -5.5t-42 -2.5q-47 0 -65.5 16t-18.5 58v541q11 2 31.5 5t40.5 3q45 0 65 -15t20 -59v-176h215v242q11 2 31.5 5t41.5 3q44 0 64 -16t20 -60v-539q-11 -3 -31 -5.5t-42 -2.5q-47 0 -65.5 16t-18.5 58v175h-215v-241zM438 -140q0 -34 -22.5 -57
t-60.5 -23q-37 0 -59.5 23t-22.5 57q0 35 22.5 57.5t59.5 22.5q38 0 60.5 -22.5t22.5 -57.5z" />
    <glyph glyph-name="uni1E25" unicode="&#x1e25;" horiz-adv-x="574" 
d="M225 1q-10 -3 -28 -5.5t-40 -2.5q-45 0 -65 14.5t-20 56.5v587q11 3 29 6t40 3q45 0 64.5 -15t19.5 -57v-115q21 10 47.5 16.5t57.5 6.5q96 0 150.5 -48.5t54.5 -145.5v-301q-10 -3 -28 -5.5t-40 -2.5q-45 0 -65 14.5t-20 56.5v229q0 45 -22.5 64t-57.5 19
q-23 0 -42 -6.5t-35 -15.5v-353zM390 -140q0 -34 -22.5 -57t-60.5 -23q-37 0 -59.5 23t-22.5 57q0 35 22.5 57.5t59.5 22.5q38 0 60.5 -22.5t22.5 -57.5z" />
    <glyph glyph-name="uni1E2A" unicode="&#x1e2a;" horiz-adv-x="667" 
d="M240 1q-11 -3 -31 -5.5t-42 -2.5q-47 0 -65.5 16t-18.5 58v541q11 2 31.5 5t40.5 3q45 0 65 -15t20 -59v-176h215v242q11 2 31.5 5t41.5 3q44 0 64 -16t20 -60v-539q-11 -3 -31 -5.5t-42 -2.5q-47 0 -65.5 16t-18.5 58v175h-215v-241zM362 -107q31 0 50.5 15.5t25.5 39.5
q5 1 9 1h9q35 0 53 -20t18 -46q0 -42 -42.5 -72t-122.5 -30q-81 0 -123 30t-42 72q0 26 17.5 46t53.5 20h9t9 -1q5 -24 25 -39.5t51 -15.5z" />
    <glyph glyph-name="uni1E2B" unicode="&#x1e2b;" horiz-adv-x="574" 
d="M225 1q-10 -3 -28 -5.5t-40 -2.5q-45 0 -65 14.5t-20 56.5v587q11 3 29 6t40 3q45 0 64.5 -15t19.5 -57v-115q21 10 47.5 16.5t57.5 6.5q96 0 150.5 -48.5t54.5 -145.5v-301q-10 -3 -28 -5.5t-40 -2.5q-45 0 -65 14.5t-20 56.5v229q0 45 -22.5 64t-57.5 19
q-23 0 -42 -6.5t-35 -15.5v-353zM317 -107q31 0 50.5 15.5t25.5 39.5q5 1 9 1h9q35 0 53 -20t18 -46q0 -42 -42.5 -72t-122.5 -30q-81 0 -123 30t-42 72q0 26 17.5 46t53.5 20h9t9 -1q5 -24 25 -39.5t51 -15.5z" />
    <glyph glyph-name="uni1E36" unicode="&#x1e36;" horiz-adv-x="511" 
d="M153 -2q-38 0 -60.5 22.5t-22.5 60.5v527q11 2 31.5 5t40.5 3q45 0 65 -15t20 -59v-417h240q6 -10 11.5 -26t5.5 -35q0 -33 -14.5 -49.5t-39.5 -16.5h-277zM357 -140q0 -34 -22.5 -57t-60.5 -23q-37 0 -59.5 23t-22.5 57q0 35 22.5 57.5t59.5 22.5q38 0 60.5 -22.5
t22.5 -57.5z" />
    <glyph glyph-name="uni1E37" unicode="&#x1e37;" horiz-adv-x="277" 
d="M146 -7q-45 0 -64.5 14.5t-19.5 56.5v587q10 3 28.5 6t40.5 3q44 0 64 -15t20 -57v-587q-11 -3 -29 -5.5t-40 -2.5zM226 -140q0 -34 -22.5 -57t-60.5 -23q-37 0 -59.5 23t-22.5 57q0 35 22.5 57.5t59.5 22.5q38 0 60.5 -22.5t22.5 -57.5z" />
    <glyph glyph-name="uni1E38" unicode="&#x1e38;" horiz-adv-x="511" 
d="M153 -2q-38 0 -60.5 22.5t-22.5 60.5v527q11 2 31.5 5t40.5 3q45 0 65 -15t20 -59v-417h240q6 -10 11.5 -26t5.5 -35q0 -33 -14.5 -49.5t-39.5 -16.5h-277zM14 692q-5 10 -10 25t-5 31q0 33 13.5 46.5t36.5 13.5h258q8 -10 11.5 -24.5t3.5 -31.5q0 -33 -13.5 -46.5
t-36.5 -13.5h-258zM358 -140q0 -34 -22.5 -57t-60.5 -23q-37 0 -59.5 23t-22.5 57q0 35 22.5 57.5t59.5 22.5q38 0 60.5 -22.5t22.5 -57.5z" />
    <glyph glyph-name="uni1E39" unicode="&#x1e39;" horiz-adv-x="277" 
d="M146 -7q-45 0 -64.5 14.5t-19.5 56.5v587q10 3 28.5 6t40.5 3q44 0 64 -15t20 -57v-587q-11 -3 -29 -5.5t-40 -2.5zM-16 713q-5 10 -10 25t-5 31q0 33 13.5 46.5t36.5 13.5h258q8 -10 11.5 -24.5t3.5 -31.5q0 -33 -13.5 -46.5t-36.5 -13.5h-258zM226 -140
q0 -34 -22.5 -57t-60.5 -23q-37 0 -59.5 23t-22.5 57q0 35 22.5 57.5t59.5 22.5q38 0 60.5 -22.5t22.5 -57.5z" />
    <glyph glyph-name="uni1E3A" unicode="&#x1e3a;" horiz-adv-x="511" 
d="M153 -2q-38 0 -60.5 22.5t-22.5 60.5v527q11 2 31.5 5t40.5 3q45 0 65 -15t20 -59v-417h240q6 -10 11.5 -26t5.5 -35q0 -33 -14.5 -49.5t-39.5 -16.5h-277zM118 -206q-5 10 -10 24.5t-5 31.5q0 33 14 46.5t37 13.5h269q8 -10 11.5 -25t3.5 -31q0 -33 -13.5 -46.5
t-36.5 -13.5h-270z" />
    <glyph glyph-name="uni1E3B" unicode="&#x1e3b;" horiz-adv-x="277" 
d="M146 -7q-45 0 -64.5 14.5t-19.5 56.5v587q10 3 28.5 6t40.5 3q44 0 64 -15t20 -57v-587q-11 -3 -29 -5.5t-40 -2.5zM-4 -206q-5 10 -10 24.5t-5 31.5q0 33 14 46.5t37 13.5h269q8 -10 11.5 -25t3.5 -31q0 -33 -13.5 -46.5t-36.5 -13.5h-270z" />
    <glyph glyph-name="uni1E42" unicode="&#x1e42;" horiz-adv-x="794" 
d="M475 151q-12 -10 -31 -16t-43 -6q-32 0 -53.5 8t-28.5 28q-32 93 -54.5 154.5t-35.5 106.5h-4q-3 -62 -5 -113.5t-3.5 -100.5t-3.5 -99t-5 -110q-11 -4 -29.5 -7.5t-38.5 -3.5q-39 0 -61 13.5t-22 46.5q0 19 1.5 52.5t4 77t6 93.5t7 101.5t6.5 102t6 93.5q8 11 32.5 24.5
t68.5 13.5q47 0 74 -15t41 -49q11 -27 23 -60.5t24 -68.5t23.5 -69.5t21.5 -63.5h5q28 88 56 170.5t49 138.5q14 7 35.5 12t47.5 5q45 0 72 -13t32 -38q4 -20 9 -61t10 -94t10 -111.5t9 -113t7 -99.5t4 -70q-15 -9 -32 -13.5t-43 -4.5q-33 0 -56.5 12t-25.5 47
q-7 116 -9.5 212.5t-5.5 158.5h-5q-12 -42 -34.5 -106t-55.5 -165zM484 -140q0 -34 -22.5 -57t-60.5 -23q-37 0 -59.5 23t-22.5 57q0 35 22.5 57.5t59.5 22.5q38 0 60.5 -22.5t22.5 -57.5z" />
    <glyph glyph-name="uni1E43" unicode="&#x1e43;" horiz-adv-x="837" 
d="M784 1q-11 -3 -29 -5.5t-40 -2.5q-45 0 -64.5 14.5t-19.5 56.5v248q0 33 -18 48.5t-49 15.5q-20 0 -37.5 -7t-31.5 -18q1 -5 1.5 -10t0.5 -10v-330q-11 -3 -29 -5.5t-40 -2.5q-45 0 -64.5 14.5t-19.5 56.5v248q0 33 -20 48.5t-49 15.5q-21 0 -38 -6.5t-28 -12.5v-356
q-10 -3 -28 -5.5t-40 -2.5q-45 0 -65 14.5t-20 56.5v309q0 26 11 42t31 30q33 23 81.5 37t101.5 14q42 0 79.5 -11.5t68.5 -35.5q30 20 68 33.5t90 13.5q39 0 74.5 -9.5t62.5 -31t43.5 -56t16.5 -83.5v-315zM507 -140q0 -34 -22.5 -57t-60.5 -23q-37 0 -59.5 23t-22.5 57
q0 35 22.5 57.5t59.5 22.5q38 0 60.5 -22.5t22.5 -57.5z" />
    <glyph glyph-name="uni1E44" unicode="&#x1e44;" horiz-adv-x="674" 
d="M606 19q-14 -12 -38 -19.5t-57 -7.5q-34 0 -64 11t-50 50l-116 224q-17 32 -31.5 64t-28.5 67l-7 -2q5 -60 6 -114.5t1 -105.5v-186q-10 -2 -29.5 -4.5t-40.5 -2.5q-45 0 -63 15.5t-18 55.5v515q12 17 38.5 26.5t56.5 9.5q35 0 64.5 -11t49.5 -49l117 -225
q17 -32 31.5 -64t28.5 -67l4 1q-5 67 -5.5 127t-0.5 115v166q10 2 29.5 5t41.5 3q45 0 63 -15.5t18 -55.5v-526zM420 754q0 -34 -22.5 -57t-59.5 -23q-38 0 -60.5 23t-22.5 57q0 35 22.5 57.5t60.5 22.5q37 0 59.5 -22.5t22.5 -57.5z" />
    <glyph glyph-name="uni1E45" unicode="&#x1e45;" horiz-adv-x="577" 
d="M367 307q0 35 -21 52t-56 17q-24 0 -44 -6t-37 -15v-354q-10 -3 -28 -5.5t-40 -2.5q-45 0 -65 14.5t-20 56.5v309q0 26 11 42t31 30q32 23 82.5 37t111.5 14q109 0 168.5 -48t59.5 -137v-310q-11 -3 -29 -5.5t-40 -2.5q-45 0 -64.5 14.5t-19.5 56.5v243zM366 627
q0 -34 -22.5 -57t-59.5 -23q-38 0 -60.5 23t-22.5 57q0 35 22.5 57.5t60.5 22.5q37 0 59.5 -22.5t22.5 -57.5z" />
    <glyph glyph-name="uni1E46" unicode="&#x1e46;" horiz-adv-x="675" 
d="M606 19q-14 -12 -38 -19.5t-57 -7.5q-34 0 -64 11t-50 50l-116 224q-17 32 -31.5 64t-28.5 67l-7 -2q5 -60 6 -114.5t1 -105.5v-186q-10 -2 -29.5 -4.5t-40.5 -2.5q-45 0 -63 15.5t-18 55.5v515q12 17 38.5 26.5t56.5 9.5q35 0 64.5 -11t49.5 -49l117 -225
q17 -32 31.5 -64t28.5 -67l4 1q-5 67 -5.5 127t-0.5 115v166q10 2 29.5 5t41.5 3q45 0 63 -15.5t18 -55.5v-526zM424 -140q0 -34 -22.5 -57t-60.5 -23q-37 0 -59.5 23t-22.5 57q0 35 22.5 57.5t59.5 22.5q38 0 60.5 -22.5t22.5 -57.5z" />
    <glyph glyph-name="uni1E47" unicode="&#x1e47;" horiz-adv-x="577" 
d="M367 307q0 35 -21 52t-56 17q-24 0 -44 -6t-37 -15v-354q-10 -3 -28 -5.5t-40 -2.5q-45 0 -65 14.5t-20 56.5v309q0 26 11 42t31 30q32 23 82.5 37t111.5 14q109 0 168.5 -48t59.5 -137v-310q-11 -3 -29 -5.5t-40 -2.5q-45 0 -64.5 14.5t-19.5 56.5v243zM375 -140
q0 -34 -22.5 -57t-60.5 -23q-37 0 -59.5 23t-22.5 57q0 35 22.5 57.5t59.5 22.5q38 0 60.5 -22.5t22.5 -57.5z" />
    <glyph glyph-name="uni1E48" unicode="&#x1e48;" horiz-adv-x="675" 
d="M606 19q-14 -12 -38 -19.5t-57 -7.5q-34 0 -64 11t-50 50l-116 224q-17 32 -31.5 64t-28.5 67l-7 -2q5 -60 6 -114.5t1 -105.5v-186q-10 -2 -29.5 -4.5t-40.5 -2.5q-45 0 -63 15.5t-18 55.5v515q12 17 38.5 26.5t56.5 9.5q35 0 64.5 -11t49.5 -49l117 -225
q17 -32 31.5 -64t28.5 -67l4 1q-5 67 -5.5 127t-0.5 115v166q10 2 29.5 5t41.5 3q45 0 63 -15.5t18 -55.5v-526zM187 -206q-5 10 -10 24.5t-5 31.5q0 33 14 46.5t37 13.5h269q8 -10 11.5 -25t3.5 -31q0 -33 -13.5 -46.5t-36.5 -13.5h-270z" />
    <glyph glyph-name="uni1E49" unicode="&#x1e49;" horiz-adv-x="577" 
d="M367 307q0 35 -21 52t-56 17q-24 0 -44 -6t-37 -15v-354q-10 -3 -28 -5.5t-40 -2.5q-45 0 -65 14.5t-20 56.5v309q0 26 11 42t31 30q32 23 82.5 37t111.5 14q109 0 168.5 -48t59.5 -137v-310q-11 -3 -29 -5.5t-40 -2.5q-45 0 -64.5 14.5t-19.5 56.5v243zM146 -206
q-5 10 -10 24.5t-5 31.5q0 33 14 46.5t37 13.5h269q8 -10 11.5 -25t3.5 -31q0 -33 -13.5 -46.5t-36.5 -13.5h-270z" />
    <glyph glyph-name="uni1E5A" unicode="&#x1e5a;" horiz-adv-x="605" 
d="M554 411q0 -58 -30.5 -104t-82.5 -73q41 -54 78.5 -101.5t55.5 -76.5q-9 -32 -33.5 -48.5t-53.5 -16.5q-38 0 -58 16.5t-38 45.5l-96 149h-69v-201q-11 -3 -31 -5.5t-42 -2.5q-47 0 -65.5 16t-18.5 58v485q0 20 10.5 31t30.5 17q32 12 77 17t94 5q136 0 204 -56.5
t68 -154.5zM287 323q48 0 78 21.5t30 65.5q0 86 -115 86q-16 0 -29 -1.5t-26 -3.5v-168h62zM381 -140q0 -34 -22.5 -57t-60.5 -23q-37 0 -59.5 23t-22.5 57q0 35 22.5 57.5t59.5 22.5q38 0 60.5 -22.5t22.5 -57.5z" />
    <glyph glyph-name="uni1E5B" unicode="&#x1e5b;" horiz-adv-x="408" 
d="M211 1q-10 -3 -28 -5.5t-40 -2.5q-45 0 -65 14.5t-20 56.5v305q0 28 14 48t39 35q33 20 79.5 31.5t97.5 11.5q104 0 104 -70q0 -17 -5 -31t-11 -24q-23 5 -56 5q-29 0 -58 -7t-51 -19v-348zM219 -140q0 -34 -22.5 -57t-60.5 -23q-37 0 -59.5 23t-22.5 57q0 35 22.5 57.5
t59.5 22.5q38 0 60.5 -22.5t22.5 -57.5z" />
    <glyph glyph-name="uni1E5C" unicode="&#x1e5c;" horiz-adv-x="605" 
d="M554 411q0 -58 -30.5 -104t-82.5 -73q41 -54 78.5 -101.5t55.5 -76.5q-9 -32 -33.5 -48.5t-53.5 -16.5q-38 0 -58 16.5t-38 45.5l-96 149h-69v-201q-11 -3 -31 -5.5t-42 -2.5q-47 0 -65.5 16t-18.5 58v485q0 20 10.5 31t30.5 17q32 12 77 17t94 5q136 0 204 -56.5
t68 -154.5zM287 323q48 0 78 21.5t30 65.5q0 86 -115 86q-16 0 -29 -1.5t-26 -3.5v-168h62zM142 692q-5 10 -10 25t-5 31q0 33 13.5 46.5t36.5 13.5h258q8 -10 11.5 -24.5t3.5 -31.5q0 -33 -13.5 -46.5t-36.5 -13.5h-258zM381 -140q0 -34 -22.5 -57t-60.5 -23
q-37 0 -59.5 23t-22.5 57q0 35 22.5 57.5t59.5 22.5q38 0 60.5 -22.5t22.5 -57.5z" />
    <glyph glyph-name="uni1E5D" unicode="&#x1e5d;" horiz-adv-x="406" 
d="M210 1q-10 -3 -28 -5.5t-40 -2.5q-45 0 -65 14.5t-20 56.5v305q0 28 14 48t39 35q33 20 79.5 31.5t97.5 11.5q104 0 104 -70q0 -17 -5 -31t-11 -24q-23 5 -56 5q-29 0 -58 -7t-51 -19v-348zM76 565q-5 10 -10 25t-5 31q0 33 13.5 46.5t36.5 13.5h258q8 -10 11.5 -24.5
t3.5 -31.5q0 -33 -13.5 -46.5t-36.5 -13.5h-258zM219 -140q0 -34 -22.5 -57t-60.5 -23q-37 0 -59.5 23t-22.5 57q0 35 22.5 57.5t59.5 22.5q38 0 60.5 -22.5t22.5 -57.5z" />
    <glyph glyph-name="uni1E5E" unicode="&#x1e5e;" horiz-adv-x="605" 
d="M554 411q0 -58 -30.5 -104t-82.5 -73q41 -54 78.5 -101.5t55.5 -76.5q-9 -32 -33.5 -48.5t-53.5 -16.5q-38 0 -58 16.5t-38 45.5l-96 149h-69v-201q-11 -3 -31 -5.5t-42 -2.5q-47 0 -65.5 16t-18.5 58v485q0 20 10.5 31t30.5 17q32 12 77 17t94 5q136 0 204 -56.5
t68 -154.5zM287 323q48 0 78 21.5t30 65.5q0 86 -115 86q-16 0 -29 -1.5t-26 -3.5v-168h62zM150 -206q-5 10 -10 24.5t-5 31.5q0 33 14 46.5t37 13.5h269q8 -10 11.5 -25t3.5 -31q0 -33 -13.5 -46.5t-36.5 -13.5h-270z" />
    <glyph glyph-name="uni1E5F" unicode="&#x1e5f;" horiz-adv-x="408" 
d="M211 1q-10 -3 -28 -5.5t-40 -2.5q-45 0 -65 14.5t-20 56.5v305q0 28 14 48t39 35q33 20 79.5 31.5t97.5 11.5q104 0 104 -70q0 -17 -5 -31t-11 -24q-23 5 -56 5q-29 0 -58 -7t-51 -19v-348zM62 -206q-5 10 -10 24.5t-5 31.5q0 33 14 46.5t37 13.5h269q8 -10 11.5 -25
t3.5 -31q0 -33 -13.5 -46.5t-36.5 -13.5h-270z" />
    <glyph glyph-name="uni1E60" unicode="&#x1e60;" horiz-adv-x="547" 
d="M254 111q53 0 75.5 18.5t22.5 44.5q0 24 -17.5 38.5t-52.5 25.5l-51 16q-42 13 -76 28.5t-58 37t-37.5 51t-13.5 71.5q0 84 63.5 133t176.5 49q43 0 79.5 -6t62.5 -18.5t41 -30.5t15 -42q0 -23 -11.5 -40.5t-26.5 -29.5q-23 16 -61 27t-83 11q-48 0 -71 -15t-23 -38
q0 -20 15 -30.5t47 -21.5l54 -18q47 -16 82.5 -34.5t59.5 -42t36 -54t12 -69.5q0 -42 -16.5 -76.5t-49 -59.5t-80 -39t-109.5 -14q-46 0 -85 7.5t-67.5 21.5t-45 34.5t-16.5 46.5q0 27 15.5 45t34.5 29q27 -22 67.5 -39t91.5 -17zM360 754q0 -34 -22.5 -57t-59.5 -23
q-38 0 -60.5 23t-22.5 57q0 35 22.5 57.5t60.5 22.5q37 0 59.5 -22.5t22.5 -57.5z" />
    <glyph glyph-name="uni1E61" unicode="&#x1e61;" horiz-adv-x="483" 
d="M450 141q0 -74 -55 -115.5t-162 -41.5q-42 0 -76.5 6t-59.5 18t-39 30t-14 42q0 22 9 37.5t23 25.5q29 -17 66 -30t86 -13q71 0 71 40q0 17 -12.5 26t-42.5 16l-40 9q-82 17 -122 52.5t-40 99.5q0 71 57.5 112.5t154.5 41.5q36 0 68 -5.5t55 -16.5t36.5 -27.5t13.5 -38.5
q0 -20 -8 -35.5t-21 -25.5q-8 5 -23.5 11t-33.5 11t-38 8t-37 3q-35 0 -54.5 -9.5t-19.5 -28.5q0 -14 11 -22t40 -15l38 -9q91 -20 130 -58t39 -98zM322 627q0 -34 -22.5 -57t-59.5 -23q-38 0 -60.5 23t-22.5 57q0 35 22.5 57.5t60.5 22.5q37 0 59.5 -22.5t22.5 -57.5z" />
    <glyph glyph-name="uni1E62" unicode="&#x1e62;" horiz-adv-x="547" 
d="M254 111q53 0 75.5 18.5t22.5 44.5q0 24 -17.5 38.5t-52.5 25.5l-51 16q-42 13 -76 28.5t-58 37t-37.5 51t-13.5 71.5q0 84 63.5 133t176.5 49q43 0 79.5 -6t62.5 -18.5t41 -30.5t15 -42q0 -23 -11.5 -40.5t-26.5 -29.5q-23 16 -61 27t-83 11q-48 0 -71 -15t-23 -38
q0 -20 15 -30.5t47 -21.5l54 -18q47 -16 82.5 -34.5t59.5 -42t36 -54t12 -69.5q0 -42 -16.5 -76.5t-49 -59.5t-80 -39t-109.5 -14q-46 0 -85 7.5t-67.5 21.5t-45 34.5t-16.5 46.5q0 27 15.5 45t34.5 29q27 -22 67.5 -39t91.5 -17zM363 -140q0 -34 -22.5 -57t-60.5 -23
q-37 0 -59.5 23t-22.5 57q0 35 22.5 57.5t59.5 22.5q38 0 60.5 -22.5t22.5 -57.5z" />
    <glyph glyph-name="uni1E63" unicode="&#x1e63;" horiz-adv-x="483" 
d="M450 141q0 -74 -55 -115.5t-162 -41.5q-42 0 -76.5 6t-59.5 18t-39 30t-14 42q0 22 9 37.5t23 25.5q29 -17 66 -30t86 -13q71 0 71 40q0 17 -12.5 26t-42.5 16l-40 9q-82 17 -122 52.5t-40 99.5q0 71 57.5 112.5t154.5 41.5q36 0 68 -5.5t55 -16.5t36.5 -27.5t13.5 -38.5
q0 -20 -8 -35.5t-21 -25.5q-8 5 -23.5 11t-33.5 11t-38 8t-37 3q-35 0 -54.5 -9.5t-19.5 -28.5q0 -14 11 -22t40 -15l38 -9q91 -20 130 -58t39 -98zM327 -140q0 -34 -22.5 -57t-60.5 -23q-37 0 -59.5 23t-22.5 57q0 35 22.5 57.5t59.5 22.5q38 0 60.5 -22.5t22.5 -57.5z" />
    <glyph glyph-name="uni1E6C" unicode="&#x1e6c;" horiz-adv-x="550" 
d="M351 480v-479q-11 -3 -31 -5.5t-42 -2.5q-47 0 -66 16t-19 58v413h-157q-6 10 -11.5 26t-5.5 35q0 34 15 49.5t41 15.5h437q7 -10 12 -26t5 -35q0 -33 -15 -49t-41 -16h-122zM357 -140q0 -34 -22.5 -57t-60.5 -23q-37 0 -59.5 23t-22.5 57q0 35 22.5 57.5t59.5 22.5
q38 0 60.5 -22.5t22.5 -57.5z" />
    <glyph glyph-name="uni1E6D" unicode="&#x1e6d;" horiz-adv-x="392" 
d="M209 159q0 -28 18 -40.5t50 -12.5q15 0 32 3.5t29 8.5q9 -10 15 -23t6 -30q0 -35 -27.5 -57.5t-95.5 -22.5q-84 0 -131 38.5t-47 125.5v449q11 3 29 6.5t39 3.5q44 0 63.5 -15.5t19.5 -56.5v-65h138q5 -10 10 -25.5t5 -32.5q0 -32 -14.5 -46t-37.5 -14h-101v-194z
M286 -140q0 -34 -22.5 -57t-60.5 -23q-37 0 -59.5 23t-22.5 57q0 35 22.5 57.5t59.5 22.5q38 0 60.5 -22.5t22.5 -57.5z" />
    <glyph glyph-name="uni1E6E" unicode="&#x1e6e;" horiz-adv-x="550" 
d="M351 480v-479q-11 -3 -31 -5.5t-42 -2.5q-47 0 -66 16t-19 58v413h-157q-6 10 -11.5 26t-5.5 35q0 34 15 49.5t41 15.5h437q7 -10 12 -26t5 -35q0 -33 -15 -49t-41 -16h-122zM121 -206q-5 10 -10 24.5t-5 31.5q0 33 14 46.5t37 13.5h269q8 -10 11.5 -25t3.5 -31
q0 -33 -13.5 -46.5t-36.5 -13.5h-270z" />
    <glyph glyph-name="uni1E6F" unicode="&#x1e6f;" horiz-adv-x="392" 
d="M209 159q0 -28 18 -40.5t50 -12.5q15 0 32 3.5t29 8.5q9 -10 15 -23t6 -30q0 -35 -27.5 -57.5t-95.5 -22.5q-84 0 -131 38.5t-47 125.5v449q11 3 29 6.5t39 3.5q44 0 63.5 -15.5t19.5 -56.5v-65h138q5 -10 10 -25.5t5 -32.5q0 -32 -14.5 -46t-37.5 -14h-101v-194z
M54 -206q-5 10 -10 24.5t-5 31.5q0 33 14 46.5t37 13.5h269q8 -10 11.5 -25t3.5 -31q0 -33 -13.5 -46.5t-36.5 -13.5h-270z" />
    <glyph glyph-name="uni1E8E" unicode="&#x1e8e;" horiz-adv-x="569" 
d="M555 544q0 -12 -8.5 -34t-29.5 -61t-56.5 -99t-89.5 -147v-202q-11 -3 -30.5 -5.5t-40.5 -2.5q-47 0 -65 16t-18 56v139q-26 38 -56 85.5t-59 96t-54 95.5t-40 84q11 17 31.5 31t50.5 14q35 0 57 -14.5t42 -54.5q2 -3 10 -18.5t18.5 -36t22.5 -44.5t22.5 -44.5
t18.5 -35.5t10 -18h5q16 33 29.5 63t26.5 59.5t26.5 60t28.5 66.5q16 8 35.5 12.5t36.5 4.5q32 0 54 -17t22 -49zM369 755q0 -34 -22.5 -57t-59.5 -23q-38 0 -60.5 23t-22.5 57q0 35 22.5 57.5t60.5 22.5q37 0 59.5 -22.5t22.5 -57.5z" />
    <glyph glyph-name="uni1E8F" unicode="&#x1e8f;" horiz-adv-x="539" 
d="M136 120q-23 50 -52.5 130.5t-61.5 208.5q12 13 33.5 22.5t46.5 9.5q32 0 52 -13.5t31 -49.5q22 -73 44.5 -144t45.5 -143h4q12 34 25 74.5t25 84t22.5 88t18.5 86.5q31 17 65 17q32 0 55 -14t23 -46q0 -36 -12.5 -91.5t-33 -116t-46 -120t-52.5 -104.5
q-56 -95 -101 -141.5t-91 -46.5q-37 0 -61 22.5t-29 57.5q32 28 66.5 65.5t58.5 75.5q-17 5 -35.5 22.5t-40.5 65.5zM353 627q0 -34 -22.5 -57t-59.5 -23q-38 0 -60.5 23t-22.5 57q0 35 22.5 57.5t60.5 22.5q37 0 59.5 -22.5t22.5 -57.5z" />
    <glyph glyph-name="uni1E92" unicode="&#x1e92;" horiz-adv-x="559" 
d="M328 480h-265q-7 11 -12 26.5t-5 35.5q0 35 15 51t42 16h377q39 -33 39 -85q0 -23 -10 -45t-27 -42l-250 -308h277q6 -11 11.5 -27t5.5 -36q0 -35 -15 -50.5t-41 -15.5h-398q-15 13 -25 34t-10 49q0 23 11.5 46t28.5 43zM364 -140q0 -34 -22.5 -57t-60.5 -23
q-37 0 -59.5 23t-22.5 57q0 35 22.5 57.5t59.5 22.5q38 0 60.5 -22.5t22.5 -57.5z" />
    <glyph glyph-name="uni1E93" unicode="&#x1e93;" horiz-adv-x="479" 
d="M67 0q-14 13 -22.5 30t-8.5 38q0 19 8.5 36.5t21.5 33.5l188 224h-198q-5 10 -10.5 25.5t-5.5 33.5q0 32 14.5 46t37.5 14h316q14 -13 23 -30t9 -39q0 -18 -8.5 -35.5t-21.5 -33.5l-185 -225h210q6 -9 11 -25t5 -33q0 -32 -14.5 -46t-37.5 -14h-332zM322 -140
q0 -34 -22.5 -57t-60.5 -23q-37 0 -59.5 23t-22.5 57q0 35 22.5 57.5t59.5 22.5q38 0 60.5 -22.5t22.5 -57.5z" />
    <glyph glyph-name="uni1E97" unicode="&#x1e97;" horiz-adv-x="392" 
d="M209 159q0 -28 18 -40.5t50 -12.5q15 0 32 3.5t29 8.5q9 -10 15 -23t6 -30q0 -35 -27.5 -57.5t-95.5 -22.5q-84 0 -131 38.5t-47 125.5v449q11 3 29 6.5t39 3.5q44 0 63.5 -15.5t19.5 -56.5v-65h138q5 -10 10 -25.5t5 -32.5q0 -32 -14.5 -46t-37.5 -14h-101v-194z
M101 714q0 -32 -21.5 -53.5t-56.5 -21.5t-56 21.5t-21 53.5t21 54.5t56 22.5t56.5 -22.5t21.5 -54.5zM308 714q0 -32 -21 -53.5t-56 -21.5t-56.5 21.5t-21.5 53.5t21.5 54.5t56.5 22.5t56 -22.5t21 -54.5z" />
    <glyph glyph-name="uni1E9E" unicode="&#x1e9e;" horiz-adv-x="628" 
d="M212 0q-10 -2 -28.5 -5t-39.5 -3q-45 0 -65 15t-20 57v322q0 59 19 103.5t53 74.5t79.5 45t98.5 15q50 0 91 -12t72.5 -33t53 -48t32.5 -57q7 -17 7 -29q0 -24 -28 -45l-100 -71q28 -2 58 -14t54.5 -33t40 -51t15.5 -68q0 -46 -15.5 -80t-42 -56t-63 -33t-78.5 -11
q-60 0 -94.5 20t-34.5 53q0 21 9 36.5t23 24.5q14 -9 28.5 -15t36.5 -6q32 0 53 18.5t21 50.5q0 42 -26 60t-70 18h-37q-12 15 -19.5 38.5t-7.5 52.5v12l120 100q-9 19 -30.5 36.5t-64.5 17.5q-42 0 -71.5 -28.5t-29.5 -84.5v-387v0z" />
    <glyph glyph-name="uni1EA0" unicode="&#x1ea0;" horiz-adv-x="620" 
d="M407 132h-196q-11 -36 -20.5 -71t-16.5 -62q-13 -4 -27 -7t-34 -3q-44 0 -66.5 15.5t-22.5 44.5q0 14 4 27t9 30q7 27 20 67t28.5 86.5t32.5 95.5t33 93.5t29 81.5t22 59q15 9 46.5 17t62.5 8q45 0 79.5 -12.5t44.5 -41.5q19 -53 41 -123t44.5 -144t43.5 -146t37 -129
q-11 -13 -32.5 -21t-51.5 -8q-43 0 -60.5 15t-25.5 47zM310 474q-14 -45 -34.5 -102.5t-38.5 -117.5h143q-17 63 -34.5 120.5t-29.5 99.5h-6zM396 -140q0 -34 -22.5 -57t-60.5 -23q-37 0 -59.5 23t-22.5 57q0 35 22.5 57.5t59.5 22.5q38 0 60.5 -22.5t22.5 -57.5z" />
    <glyph glyph-name="uni1EA1" unicode="&#x1ea1;" horiz-adv-x="535" 
d="M256 97q22 0 43.5 4.5t32.5 11.5v92l-82 -7q-32 -3 -51.5 -14.5t-19.5 -34.5q0 -24 18 -38t59 -14zM250 496q52 0 94.5 -10.5t72.5 -32.5t46.5 -56t16.5 -80v-226q0 -26 -13.5 -41.5t-32.5 -26.5q-31 -19 -76 -29t-102 -10q-103 0 -164 39.5t-61 120.5q0 69 41 105
t126 45l133 14v11q0 32 -26 47t-75 15q-38 0 -74.5 -9t-65.5 -21q-12 8 -20.5 24.5t-8.5 35.5q0 44 46 63q29 11 67.5 16.5t75.5 5.5zM341 -140q0 -34 -22.5 -57t-60.5 -23q-37 0 -59.5 23t-22.5 57q0 35 22.5 57.5t59.5 22.5q38 0 60.5 -22.5t22.5 -57.5z" />
    <glyph glyph-name="uni01CD" unicode="&#x1cd;" horiz-adv-x="620" 
d="M407 133h-196q-11 -36 -20.5 -71t-16.5 -62q-13 -4 -27 -7t-34 -3q-44 0 -66.5 15.5t-22.5 44.5q0 14 4 27t9 30q7 27 20 67t28.5 86.5t32.5 95.5t33 93.5t29 81.5t22 59q15 9 46.5 17t62.5 8q45 0 79.5 -12.5t44.5 -41.5q19 -53 41 -123t44.5 -144t43.5 -146t37 -129
q-11 -13 -32.5 -21t-51.5 -8q-43 0 -60.5 15t-25.5 47zM310 475q-14 -45 -34.5 -102.5t-38.5 -117.5h143q-17 63 -34.5 120.5t-29.5 99.5h-6zM313 754q23 21 47 44t47 43q29 -1 48.5 -17t19.5 -41q0 -20 -9.5 -34t-34.5 -33l-34 -29q-26 -20 -44 -27.5t-40 -7.5
q-27 0 -47.5 10.5t-38.5 27.5l-83 77q0 34 16 52.5t45 18.5q19 0 34.5 -10t41.5 -38z" />
    <glyph glyph-name="uni01CE" unicode="&#x1ce;" horiz-adv-x="535" 
d="M256 97q22 0 43.5 4.5t32.5 11.5v92l-82 -7q-32 -3 -51.5 -14.5t-19.5 -34.5q0 -24 18 -38t59 -14zM250 496q52 0 94.5 -10.5t72.5 -32.5t46.5 -56t16.5 -80v-226q0 -26 -13.5 -41.5t-32.5 -26.5q-31 -19 -76 -29t-102 -10q-103 0 -164 39.5t-61 120.5q0 69 41 105
t126 45l133 14v11q0 32 -26 47t-75 15q-38 0 -74.5 -9t-65.5 -21q-12 8 -20.5 24.5t-8.5 35.5q0 44 46 63q29 11 67.5 16.5t75.5 5.5zM269 642l90 87q35 -1 56 -17.5t21 -42.5q0 -20 -10.5 -33.5t-33.5 -32.5l-48 -42q-35 -29 -73 -29q-12 0 -22 1.5t-21 7t-23.5 14.5
t-28.5 24l-76 69q-1 2 -1 6v8q0 24 14 44.5t44 20.5q9 0 16.5 -1.5t16 -6.5t18 -13.5t22.5 -21.5z" />
    <glyph glyph-name="uni1EA2" unicode="&#x1ea2;" horiz-adv-x="620" 
d="M407 133h-196q-11 -36 -20.5 -71t-16.5 -62q-13 -4 -27 -7t-34 -3q-44 0 -66.5 15.5t-22.5 44.5q0 14 4 27t9 30q7 27 20 67t28.5 86.5t32.5 95.5t33 93.5t29 81.5t22 59q15 9 46.5 17t62.5 8q45 0 79.5 -12.5t44.5 -41.5q19 -53 41 -123t44.5 -144t43.5 -146t37 -129
q-11 -13 -32.5 -21t-51.5 -8q-43 0 -60.5 15t-25.5 47zM310 475q-14 -45 -34.5 -102.5t-38.5 -117.5h143q-17 63 -34.5 120.5t-29.5 99.5h-6zM309 890q27 0 53.5 -7t47.5 -20.5t33.5 -34.5t12.5 -49q0 -24 -8.5 -42t-22.5 -30t-32.5 -18t-38.5 -7v-26q-5 -2 -18 -5.5
t-30 -3.5q-31 0 -42.5 6.5t-11.5 17.5v36q0 24 11 32t28 8h15q37 0 37 28q0 14 -12 22.5t-39 8.5q-21 0 -39.5 -6t-30.5 -11q-23 15 -23 43q0 15 9 25.5t24 18t35 11t42 3.5z" />
    <glyph glyph-name="uni1EA3" unicode="&#x1ea3;" horiz-adv-x="535" 
d="M256 97q22 0 43.5 4.5t32.5 11.5v92l-82 -7q-32 -3 -51.5 -14.5t-19.5 -34.5q0 -24 18 -38t59 -14zM250 496q52 0 94.5 -10.5t72.5 -32.5t46.5 -56t16.5 -80v-226q0 -26 -13.5 -41.5t-32.5 -26.5q-31 -19 -76 -29t-102 -10q-103 0 -164 39.5t-61 120.5q0 69 41 105
t126 45l133 14v11q0 32 -26 47t-75 15q-38 0 -74.5 -9t-65.5 -21q-12 8 -20.5 24.5t-8.5 35.5q0 44 46 63q29 11 67.5 16.5t75.5 5.5zM261 757q27 0 53.5 -7t47.5 -20.5t33.5 -34.5t12.5 -49q0 -24 -8.5 -42t-22.5 -30t-32.5 -18t-38.5 -7v-26q-5 -2 -18 -5.5t-30 -3.5
q-31 0 -42.5 6.5t-11.5 17.5v36q0 24 11 32t28 8h15q37 0 37 28q0 14 -12 22.5t-39 8.5q-21 0 -39.5 -6t-30.5 -11q-23 15 -23 43q0 15 9 25.5t24 18t35 11t42 3.5z" />
    <glyph glyph-name="uni1EA4" unicode="&#x1ea4;" horiz-adv-x="620" 
d="M527 949q38 0 56.5 -16.5t18.5 -37.5q0 -17 -7.5 -29t-24.5 -29l-63 -65q-30 0 -48.5 14.5t-18.5 33.5q0 9 3.5 18t13.5 22zM407 133h-196q-11 -36 -20.5 -71t-16.5 -62q-13 -4 -27 -7t-34 -3q-44 0 -66.5 15.5t-22.5 44.5q0 14 4 27t9 30q7 27 20 67t28.5 86.5
t32.5 95.5t33 93.5t29 81.5t22 59q15 9 46.5 17t62.5 8q45 0 79.5 -12.5t44.5 -41.5q19 -53 41 -123t44.5 -144t43.5 -146t37 -129q-11 -13 -32.5 -21t-51.5 -8q-43 0 -60.5 15t-25.5 47zM310 475q-14 -45 -34.5 -102.5t-38.5 -117.5h143q-17 63 -34.5 120.5t-29.5 99.5h-6z
M319 731q-23 -21 -46.5 -43.5t-46.5 -42.5q-29 0 -48 16t-19 41q0 20 9.5 33.5t33.5 32.5l35 29q26 20 45.5 29t38.5 9q24 0 43.5 -9.5t39.5 -29.5l81 -84q0 -32 -16.5 -48t-45.5 -16q-19 0 -34 11.5t-38 35.5z" />
    <glyph glyph-name="uni1EA5" unicode="&#x1ea5;" horiz-adv-x="535" 
d="M475 847q38 0 56.5 -16.5t18.5 -37.5q0 -17 -8 -29t-25 -29l-63 -65q-30 0 -48 14.5t-18 33.5q0 9 3.5 18t13.5 22zM267 624q-13 -14 -23.5 -25.5t-20 -22.5t-19 -21.5t-19.5 -23.5q-35 1 -56 16.5t-21 41.5q0 19 10 32t30 33l39 40q17 17 37 28t46 11q23 0 43 -9t46 -40
l73 -90q0 -25 -15 -43t-45 -18q-18 0 -32 10t-28 27zM256 97q22 0 43.5 4.5t32.5 11.5v92l-82 -7q-32 -3 -51.5 -14.5t-19.5 -34.5q0 -24 18 -38t59 -14zM250 496q52 0 94.5 -10.5t72.5 -32.5t46.5 -56t16.5 -80v-226q0 -26 -13.5 -41.5t-32.5 -26.5q-31 -19 -76 -29
t-102 -10q-103 0 -164 39.5t-61 120.5q0 69 41 105t126 45l133 14v11q0 32 -26 47t-75 15q-38 0 -74.5 -9t-65.5 -21q-12 8 -20.5 24.5t-8.5 35.5q0 44 46 63q29 11 67.5 16.5t75.5 5.5z" />
    <glyph glyph-name="uni1EA6" unicode="&#x1ea6;" horiz-adv-x="620" 
d="M400 888q1 29 17.5 45t37.5 16q20 0 34 -10t27 -28l63 -91q-3 -23 -19 -35.5t-33 -12.5q-14 0 -25.5 6.5t-23.5 19.5zM407 133h-196q-11 -36 -20.5 -71t-16.5 -62q-13 -4 -27 -7t-34 -3q-44 0 -66.5 15.5t-22.5 44.5q0 14 4 27t9 30q7 27 20 67t28.5 86.5t32.5 95.5
t33 93.5t29 81.5t22 59q15 9 46.5 17t62.5 8q45 0 79.5 -12.5t44.5 -41.5q19 -53 41 -123t44.5 -144t43.5 -146t37 -129q-11 -13 -32.5 -21t-51.5 -8q-43 0 -60.5 15t-25.5 47zM310 475q-14 -45 -34.5 -102.5t-38.5 -117.5h143q-17 63 -34.5 120.5t-29.5 99.5h-6zM319 731
q-23 -21 -46.5 -43.5t-46.5 -42.5q-29 0 -48 16t-19 41q0 20 9.5 33.5t33.5 32.5l35 29q26 20 45.5 29t38.5 9q24 0 43.5 -9.5t39.5 -29.5l81 -84q0 -32 -16.5 -48t-45.5 -16q-19 0 -34 11.5t-38 35.5z" />
    <glyph glyph-name="uni1EA7" unicode="&#x1ea7;" horiz-adv-x="535" 
d="M346 786q1 29 17.5 45t38.5 16q20 0 34 -9.5t27 -28.5l63 -91q-4 -23 -19.5 -35.5t-32.5 -12.5q-26 0 -50 26zM256 97q22 0 43.5 4.5t32.5 11.5v92l-82 -7q-32 -3 -51.5 -14.5t-19.5 -34.5q0 -24 18 -38t59 -14zM250 496q52 0 94.5 -10.5t72.5 -32.5t46.5 -56t16.5 -80
v-226q0 -26 -13.5 -41.5t-32.5 -26.5q-31 -19 -76 -29t-102 -10q-103 0 -164 39.5t-61 120.5q0 69 41 105t126 45l133 14v11q0 32 -26 47t-75 15q-38 0 -74.5 -9t-65.5 -21q-12 8 -20.5 24.5t-8.5 35.5q0 44 46 63q29 11 67.5 16.5t75.5 5.5zM267 624q-13 -14 -23.5 -25.5
t-20 -22.5t-19 -21.5t-19.5 -23.5q-35 1 -56 16.5t-21 41.5q0 19 10 32t30 33l39 40q17 17 36.5 28t45.5 11q24 0 44 -9t45 -40l74 -90q0 -25 -15 -43t-45 -18q-18 0 -32 10t-28 27z" />
    <glyph glyph-name="uni1EA8" unicode="&#x1ea8;" horiz-adv-x="620" 
d="M493 991q48 0 80 -24t32 -70q0 -36 -23.5 -54.5t-51.5 -20.5v-30q-7 -3 -16 -5t-21 -2q-22 0 -32.5 5t-10.5 19v38q0 27 25 27h6q35 0 35 24q0 11 -9.5 17.5t-26.5 6.5q-15 0 -29.5 -5t-24.5 -10q-9 6 -13.5 15.5t-4.5 20.5q0 23 23.5 35.5t61.5 12.5zM407 133h-196
q-11 -36 -20.5 -71t-16.5 -62q-13 -4 -27 -7t-34 -3q-44 0 -66.5 15.5t-22.5 44.5q0 14 4 27t9 30q7 27 20 67t28.5 86.5t32.5 95.5t33 93.5t29 81.5t22 59q15 9 46.5 17t62.5 8q45 0 79.5 -12.5t44.5 -41.5q19 -53 41 -123t44.5 -144t43.5 -146t37 -129q-11 -13 -32.5 -21
t-51.5 -8q-43 0 -60.5 15t-25.5 47zM310 475q-14 -45 -34.5 -102.5t-38.5 -117.5h143q-17 63 -34.5 120.5t-29.5 99.5h-6zM319 731q-23 -21 -46.5 -43.5t-46.5 -42.5q-29 0 -48 16t-19 41q0 20 9.5 33.5t33.5 32.5l35 29q26 20 45.5 29t38.5 9q24 0 43.5 -9.5t39.5 -29.5
l81 -84q0 -32 -16.5 -48t-45.5 -16q-19 0 -34 11.5t-38 35.5z" />
    <glyph glyph-name="uni1EA9" unicode="&#x1ea9;" horiz-adv-x="535" 
d="M441 888q48 0 80 -24t32 -70q0 -36 -23.5 -54.5t-50.5 -20.5v-30q-8 -3 -17 -5t-21 -2q-22 0 -32.5 5t-10.5 19v38q0 27 25 27h6q35 0 35 24q0 11 -9.5 17.5t-26.5 6.5q-15 0 -29 -5t-25 -10q-9 6 -13.5 15.5t-4.5 20.5q0 23 23.5 35.5t61.5 12.5zM256 97q22 0 43.5 4.5
t32.5 11.5v92l-82 -7q-32 -3 -51.5 -14.5t-19.5 -34.5q0 -24 18 -38t59 -14zM250 496q52 0 94.5 -10.5t72.5 -32.5t46.5 -56t16.5 -80v-226q0 -26 -13.5 -41.5t-32.5 -26.5q-31 -19 -76 -29t-102 -10q-103 0 -164 39.5t-61 120.5q0 69 41 105t126 45l133 14v11q0 32 -26 47
t-75 15q-38 0 -74.5 -9t-65.5 -21q-12 8 -20.5 24.5t-8.5 35.5q0 44 46 63q29 11 67.5 16.5t75.5 5.5zM267 624q-13 -14 -23.5 -25.5t-20 -22.5t-19 -21.5t-19.5 -23.5q-35 1 -56 16.5t-21 41.5q0 19 10 32t30 33l39 40q17 17 36.5 28t45.5 11q24 0 44 -9t45 -40l74 -90
q0 -25 -15 -43t-45 -18q-18 0 -32 10t-28 27z" />
    <glyph glyph-name="uni1EAA" unicode="&#x1eaa;" horiz-adv-x="620" 
d="M407 133h-196q-11 -36 -20.5 -71t-16.5 -62q-13 -4 -27 -7t-34 -3q-44 0 -66.5 15.5t-22.5 44.5q0 14 4 27t9 30q7 27 20 67t28.5 86.5t32.5 95.5t33 93.5t29 81.5t22 59q15 9 46.5 17t62.5 8q45 0 79.5 -12.5t44.5 -41.5q19 -53 41 -123t44.5 -144t43.5 -146t37 -129
q-11 -13 -32.5 -21t-51.5 -8q-43 0 -60.5 15t-25.5 47zM310 475q-14 -45 -34.5 -102.5t-38.5 -117.5h143q-17 63 -34.5 120.5t-29.5 99.5h-6zM319 731q-23 -21 -46.5 -43.5t-46.5 -42.5q-29 0 -48 16t-19 41q0 20 9.5 33.5t33.5 32.5l35 29q26 20 45.5 29t38.5 9
q24 0 43.5 -9.5t39.5 -29.5l81 -84q0 -32 -16.5 -48t-45.5 -16q-19 0 -34 11.5t-38 35.5zM242 1004q18 0 36 -4.5t35 -9.5t31.5 -9.5t24.5 -4.5q19 0 28.5 9.5t14.5 22.5h5q26 0 45 -15.5t19 -44.5q0 -34 -24 -52t-60 -18q-21 0 -39.5 4t-34.5 9.5t-30 9.5t-24 4
q-19 0 -28.5 -9.5t-14.5 -22.5h-4q-26 0 -45.5 15.5t-19.5 45.5q0 19 7.5 32t19.5 21.5t27 12.5t31 4z" />
    <glyph glyph-name="uni1EAB" unicode="&#x1eab;" horiz-adv-x="535" 
d="M190 901q18 0 36 -4.5t35 -9.5t31.5 -9.5t24.5 -4.5q19 0 28.5 9.5t14.5 22.5h5q26 0 45 -15.5t19 -44.5q0 -34 -24 -52t-60 -18q-21 0 -39.5 4t-34.5 9.5t-30 9.5t-24 4q-19 0 -28.5 -9.5t-14.5 -22.5h-4q-26 0 -45.5 15.5t-19.5 45.5q0 19 7.5 32t19.5 21.5t27 12.5
t31 4zM256 97q22 0 43.5 4.5t32.5 11.5v92l-82 -7q-32 -3 -51.5 -14.5t-19.5 -34.5q0 -24 18 -38t59 -14zM250 496q52 0 94.5 -10.5t72.5 -32.5t46.5 -56t16.5 -80v-226q0 -26 -13.5 -41.5t-32.5 -26.5q-31 -19 -76 -29t-102 -10q-103 0 -164 39.5t-61 120.5q0 69 41 105
t126 45l133 14v11q0 32 -26 47t-75 15q-38 0 -74.5 -9t-65.5 -21q-12 8 -20.5 24.5t-8.5 35.5q0 44 46 63q29 11 67.5 16.5t75.5 5.5zM267 623q-13 -14 -23.5 -25.5t-20 -22.5t-19 -21.5t-19.5 -23.5q-35 1 -56 16.5t-21 41.5q0 19 10 32t30 33l39 40q17 17 36.5 28t45.5 11
q24 0 44 -9t45 -40l74 -90q0 -25 -15 -43t-45 -18q-18 0 -32 10t-28 27z" />
    <glyph glyph-name="uni1EAC" unicode="&#x1eac;" horiz-adv-x="620" 
d="M407 133h-196q-11 -36 -20.5 -71t-16.5 -62q-13 -4 -27 -7t-34 -3q-44 0 -66.5 15.5t-22.5 44.5q0 14 4 27t9 30q7 27 20 67t28.5 86.5t32.5 95.5t33 93.5t29 81.5t22 59q15 9 46.5 17t62.5 8q45 0 79.5 -12.5t44.5 -41.5q19 -53 41 -123t44.5 -144t43.5 -146t37 -129
q-11 -13 -32.5 -21t-51.5 -8q-43 0 -60.5 15t-25.5 47zM310 475q-14 -45 -34.5 -102.5t-38.5 -117.5h143q-17 63 -34.5 120.5t-29.5 99.5h-6zM319 737q-23 -21 -46.5 -43.5t-46.5 -42.5q-29 0 -48 16t-19 41q0 20 9.5 33.5t33.5 32.5l35 29q26 20 45.5 29t38.5 9
q24 0 43.5 -9.5t39.5 -29.5l81 -84q0 -32 -16.5 -48t-45.5 -16q-19 0 -34 11.5t-38 35.5zM395 -140q0 -34 -22.5 -57t-60.5 -23q-37 0 -59.5 23t-22.5 57q0 35 22.5 57.5t59.5 22.5q38 0 60.5 -22.5t22.5 -57.5z" />
    <glyph glyph-name="uni1EAD" unicode="&#x1ead;" horiz-adv-x="535" 
d="M256 97q22 0 43.5 4.5t32.5 11.5v92l-82 -7q-32 -3 -51.5 -14.5t-19.5 -34.5q0 -24 18 -38t59 -14zM250 496q52 0 94.5 -10.5t72.5 -32.5t46.5 -56t16.5 -80v-226q0 -26 -13.5 -41.5t-32.5 -26.5q-31 -19 -76 -29t-102 -10q-103 0 -164 39.5t-61 120.5q0 69 41 105
t126 45l133 14v11q0 32 -26 47t-75 15q-38 0 -74.5 -9t-65.5 -21q-12 8 -20.5 24.5t-8.5 35.5q0 44 46 63q29 11 67.5 16.5t75.5 5.5zM267 624q-13 -14 -23.5 -25.5t-20 -22.5t-19 -21.5t-19.5 -23.5q-35 1 -56 16.5t-21 41.5q0 19 10 32t30 33l39 40q17 17 36.5 28t45.5 11
q24 0 44 -9t45 -40l74 -90q0 -25 -15 -43t-45 -18q-18 0 -32 10t-28 27zM341 -140q0 -34 -22.5 -57t-60.5 -23q-37 0 -59.5 23t-22.5 57q0 35 22.5 57.5t59.5 22.5q38 0 60.5 -22.5t22.5 -57.5z" />
    <glyph glyph-name="uni1EAE" unicode="&#x1eae;" horiz-adv-x="620" 
d="M354 1012q38 0 57 -16.5t19 -37.5q0 -16 -8 -28.5t-25 -29.5l-63 -64q-30 0 -48.5 14.5t-18.5 32.5q0 10 3.5 19t13.5 21zM407 133h-196q-11 -36 -20.5 -71t-16.5 -62q-13 -4 -27 -7t-34 -3q-44 0 -66.5 15.5t-22.5 44.5q0 14 4 27t9 30q7 27 20 67t28.5 86.5t32.5 95.5
t33 93.5t29 81.5t22 59q15 9 46.5 17t62.5 8q45 0 79.5 -12.5t44.5 -41.5q19 -53 41 -123t44.5 -144t43.5 -146t37 -129q-11 -13 -32.5 -21t-51.5 -8q-43 0 -60.5 15t-25.5 47zM310 475q-14 -45 -34.5 -102.5t-38.5 -117.5h143q-17 63 -34.5 120.5t-29.5 99.5h-6zM313 774
q31 0 50.5 15.5t25.5 39.5q5 1 9 1h9q35 0 53 -20t18 -46q0 -42 -42.5 -72t-122.5 -30q-81 0 -123 30t-42 72q0 26 17.5 46t53.5 20h9t9 -1q5 -24 25 -39.5t51 -15.5z" />
    <glyph glyph-name="uni1EAF" unicode="&#x1eaf;" horiz-adv-x="535" 
d="M309 902q38 -1 56.5 -17t18.5 -37q0 -17 -8 -29t-25 -29l-62 -65q-31 0 -49 14.5t-18 33.5q0 9 3.5 18t13.5 22zM256 97q22 0 43.5 4.5t32.5 11.5v92l-82 -7q-32 -3 -51.5 -14.5t-19.5 -34.5q0 -24 18 -38t59 -14zM250 496q52 0 94.5 -10.5t72.5 -32.5t46.5 -56t16.5 -80
v-226q0 -26 -13.5 -41.5t-32.5 -26.5q-31 -19 -76 -29t-102 -10q-103 0 -164 39.5t-61 120.5q0 69 41 105t126 45l133 14v11q0 32 -26 47t-75 15q-38 0 -74.5 -9t-65.5 -21q-12 8 -20.5 24.5t-8.5 35.5q0 44 46 63q29 11 67.5 16.5t75.5 5.5zM268 662q31 0 50.5 15.5
t25.5 39.5q5 1 9 1h9q35 0 53 -20t18 -46q0 -42 -42.5 -72t-122.5 -30q-81 0 -123 30t-42 72q0 26 17.5 46t53.5 20h9t9 -1q5 -24 25 -39.5t51 -15.5z" />
    </font>
</defs>
</svg>
