<svg width="61" height="61" viewBox="0 0 61 61" fill="none" xmlns="http://www.w3.org/2000/svg">
<g filter="url(#filter0_d)">
<rect x="8" y="6" width="45" height="45" rx="8" fill="#20B4B3"/>
</g>
<path d="M26.1504 29.9503V33.8171C26.1504 33.9453 26.2013 34.0682 26.292 34.1589C26.3826 34.2495 26.5055 34.3004 26.6337 34.3004C26.7619 34.3004 26.8849 34.2495 26.9755 34.1589C27.0662 34.0682 27.1171 33.9453 27.1171 33.8171V29.9503C27.1171 29.5658 27.2699 29.1969 27.5418 28.925C27.8137 28.6531 28.1825 28.5003 28.5671 28.5003H32.4339C32.8185 28.5003 33.1873 28.6531 33.4592 28.925C33.7311 29.1969 33.8839 29.5658 33.8839 29.9503V33.8171C33.8839 33.9453 33.9348 34.0682 34.0255 34.1589C34.1161 34.2495 34.2391 34.3004 34.3673 34.3004C34.4955 34.3004 34.6184 34.2495 34.709 34.1589C34.7997 34.0682 34.8506 33.9453 34.8506 33.8171V29.9503C34.8503 29.3783 34.6472 28.8249 34.2772 28.3885C33.9073 27.9522 33.3945 27.6613 32.8302 27.5674C33.3209 27.1015 33.6606 26.4992 33.8055 25.8382C33.9503 25.1773 33.8937 24.4881 33.6429 23.8597C33.392 23.2312 32.9585 22.6925 32.3984 22.3129C31.8382 21.9333 31.1771 21.7305 30.5005 21.7305C29.8239 21.7305 29.1628 21.9333 28.6026 22.3129C28.0425 22.6925 27.609 23.2312 27.3581 23.8597C27.1073 24.4881 27.0507 25.1773 27.1955 25.8382C27.3404 26.4992 27.6801 27.1015 28.1708 27.5674C27.6065 27.6613 27.0937 27.9522 26.7238 28.3885C26.3538 28.8249 26.1507 29.3783 26.1504 29.9503ZM28.0838 25.1169C28.0838 24.6389 28.2255 24.1716 28.4911 23.7742C28.7566 23.3768 29.1341 23.067 29.5757 22.8841C30.0173 22.7012 30.5032 22.6533 30.972 22.7466C31.4408 22.8398 31.8714 23.07 32.2094 23.408C32.5474 23.746 32.7775 24.1766 32.8708 24.6454C32.964 25.1142 32.9162 25.6001 32.7333 26.0417C32.5503 26.4833 32.2406 26.8608 31.8432 27.1263C31.4457 27.3919 30.9785 27.5336 30.5005 27.5336C29.8595 27.5336 29.2448 27.279 28.7916 26.8258C28.3384 26.3725 28.0838 25.7578 28.0838 25.1169Z" fill="white"/>
<path d="M30.5018 18.833C28.6919 18.8327 26.9183 19.3404 25.3828 20.2985C23.8472 21.2565 22.6115 22.6264 21.8162 24.2522C21.021 25.878 20.6981 27.6944 20.8843 29.4947C21.0706 31.295 21.7585 33.0068 22.8698 34.4354C22.9088 34.4855 22.9573 34.5275 23.0126 34.5589C23.0678 34.5903 23.1287 34.6105 23.1918 34.6183C23.2549 34.6262 23.3189 34.6216 23.3801 34.6047C23.4414 34.5878 23.4987 34.559 23.5489 34.52C23.599 34.481 23.641 34.4324 23.6724 34.3772C23.7038 34.3219 23.724 34.261 23.7318 34.198C23.7397 34.1349 23.735 34.0709 23.7181 34.0096C23.7013 33.9484 23.6725 33.891 23.6335 33.8409C22.4401 32.317 21.7947 30.4355 21.8016 28.4999C21.8016 26.7792 22.3118 25.0971 23.2678 23.6663C24.2238 22.2356 25.5826 21.1205 27.1724 20.462C28.7621 19.8035 30.5115 19.6312 32.1991 19.9669C33.8868 20.3026 35.437 21.1312 36.6538 22.3479C37.8705 23.5647 38.6991 25.1149 39.0348 26.8026C39.3705 28.4903 39.1983 30.2396 38.5398 31.8293C37.8813 33.4191 36.7661 34.7779 35.3354 35.7339C33.9046 36.6899 32.2225 37.2001 30.5018 37.2001C29.236 37.2039 27.985 36.9282 26.838 36.393C26.7214 36.3391 26.5881 36.3338 26.4676 36.3782C26.347 36.4226 26.249 36.5131 26.1952 36.6298C26.1413 36.7464 26.1361 36.8797 26.1805 37.0003C26.2249 37.1208 26.3154 37.2188 26.432 37.2726C27.7439 37.8799 29.1754 38.1852 30.6209 38.166C32.0664 38.1468 33.4892 37.8037 34.7845 37.1618C36.0799 36.52 37.2148 35.5958 38.1057 34.4573C38.9966 33.3188 39.6208 31.995 39.9324 30.5833C40.2439 29.1717 40.2349 27.7081 39.906 26.3004C39.577 24.8927 38.9366 23.5766 38.0317 22.4492C37.1269 21.3218 35.9807 20.4116 34.6775 19.7858C33.3744 19.16 31.9474 18.8344 30.5018 18.833Z" fill="white"/>
<path d="M44.1681 17.04C44.3704 16.7501 44.4894 16.4104 44.5121 16.0577C44.5348 15.705 44.4605 15.3528 44.297 15.0394C44.1336 14.726 43.8874 14.4634 43.5851 14.2801C43.2829 14.0969 42.9362 14 42.5827 14C42.2293 14 41.8826 14.0969 41.5804 14.2801C41.2781 14.4634 41.0319 14.726 40.8685 15.0394C40.705 15.3528 40.6306 15.705 40.6534 16.0577C40.6761 16.4104 40.7951 16.7501 40.9974 17.04C40.749 17.1572 40.539 17.3425 40.3918 17.5744C40.2446 17.8063 40.1663 18.0752 40.166 18.3498V20.2832C40.166 20.4114 40.2169 20.5344 40.3076 20.625C40.3982 20.7156 40.5212 20.7666 40.6494 20.7666C40.7776 20.7666 40.9005 20.7156 40.9911 20.625C41.0818 20.5344 41.1327 20.4114 41.1327 20.2832V18.3498C41.1327 18.2217 41.1836 18.0987 41.2743 18.0081C41.3649 17.9174 41.4879 17.8665 41.6161 17.8665H43.5494C43.6776 17.8665 43.8006 17.9174 43.8912 18.0081C43.9819 18.0987 44.0328 18.2217 44.0328 18.3498V20.2832C44.0328 20.4114 44.0837 20.5344 44.1743 20.625C44.265 20.7156 44.3879 20.7666 44.5161 20.7666C44.6443 20.7666 44.7673 20.7156 44.8579 20.625C44.9485 20.5344 44.9995 20.4114 44.9995 20.2832V18.3498C44.9992 18.0752 44.9209 17.8063 44.7737 17.5744C44.6265 17.3425 44.4165 17.1572 44.1681 17.04ZM42.5827 14.9664C42.7739 14.9664 42.9608 15.0231 43.1198 15.1293C43.2788 15.2356 43.4027 15.3865 43.4758 15.5632C43.549 15.7398 43.5682 15.9342 43.5309 16.1217C43.4936 16.3092 43.4015 16.4815 43.2663 16.6167C43.1311 16.7519 42.9589 16.8439 42.7713 16.8812C42.5838 16.9185 42.3894 16.8994 42.2128 16.8262C42.0362 16.7531 41.8852 16.6292 41.779 16.4702C41.6727 16.3112 41.6161 16.1243 41.6161 15.9331C41.6161 15.6767 41.7179 15.4309 41.8992 15.2496C42.0805 15.0683 42.3264 14.9664 42.5827 14.9664Z" fill="white"/>
<path d="M44.1681 39.2744C44.3704 38.9845 44.4894 38.6448 44.5121 38.2921C44.5348 37.9393 44.4605 37.5871 44.297 37.2738C44.1336 36.9604 43.8874 36.6978 43.5851 36.5145C43.2829 36.3313 42.9362 36.2344 42.5827 36.2344C42.2293 36.2344 41.8826 36.3313 41.5804 36.5145C41.2781 36.6978 41.0319 36.9604 40.8685 37.2738C40.705 37.5871 40.6306 37.9393 40.6534 38.2921C40.6761 38.6448 40.7951 38.9845 40.9974 39.2744C40.749 39.3915 40.539 39.5769 40.3918 39.8088C40.2446 40.0406 40.1663 40.3096 40.166 40.5842V42.5176C40.166 42.6458 40.2169 42.7687 40.3076 42.8594C40.3982 42.95 40.5212 43.0009 40.6494 43.0009C40.7776 43.0009 40.9005 42.95 40.9911 42.8594C41.0818 42.7687 41.1327 42.6458 41.1327 42.5176V40.5842C41.1327 40.456 41.1836 40.3331 41.2743 40.2424C41.3649 40.1518 41.4879 40.1009 41.6161 40.1009H43.5494C43.6776 40.1009 43.8006 40.1518 43.8912 40.2424C43.9819 40.3331 44.0328 40.456 44.0328 40.5842V42.5176C44.0328 42.6458 44.0837 42.7687 44.1743 42.8594C44.265 42.95 44.3879 43.0009 44.5161 43.0009C44.6443 43.0009 44.7673 42.95 44.8579 42.8594C44.9485 42.7687 44.9995 42.6458 44.9995 42.5176V40.5842C44.9992 40.3096 44.9209 40.0406 44.7737 39.8088C44.6265 39.5769 44.4165 39.3915 44.1681 39.2744ZM42.5827 37.2008C42.7739 37.2008 42.9608 37.2575 43.1198 37.3637C43.2788 37.4699 43.4027 37.6209 43.4758 37.7976C43.549 37.9742 43.5682 38.1686 43.5309 38.3561C43.4936 38.5436 43.4015 38.7159 43.2663 38.851C43.1311 38.9862 42.9589 39.0783 42.7713 39.1156C42.5838 39.1529 42.3894 39.1338 42.2128 39.0606C42.0362 38.9874 41.8852 38.8635 41.779 38.7046C41.6727 38.5456 41.6161 38.3587 41.6161 38.1675C41.6161 37.9111 41.7179 37.6652 41.8992 37.4839C42.0805 37.3026 42.3264 37.2008 42.5827 37.2008Z" fill="white"/>
<path d="M16.4843 20.7675C16.6125 20.7675 16.7355 20.7166 16.8261 20.626C16.9167 20.5353 16.9677 20.4124 16.9677 20.2842V18.3508C16.9677 18.2226 17.0186 18.0997 17.1092 18.009C17.1999 17.9184 17.3228 17.8675 17.451 17.8675H19.3844C19.5126 17.8675 19.6355 17.9184 19.7262 18.009C19.8168 18.0997 19.8677 18.2226 19.8677 18.3508V20.2842C19.8677 20.4124 19.9187 20.5353 20.0093 20.626C20.1 20.7166 20.2229 20.7675 20.3511 20.7675C20.4793 20.7675 20.6022 20.7166 20.6929 20.626C20.7835 20.5353 20.8344 20.4124 20.8344 20.2842V18.3508C20.8341 18.0762 20.7558 17.8072 20.6087 17.5754C20.4615 17.3435 20.2515 17.1581 20.0031 17.041C20.2054 16.7511 20.3244 16.4114 20.3471 16.0587C20.3698 15.7059 20.2954 15.3537 20.132 15.0404C19.9685 14.727 19.7223 14.4644 19.4201 14.2811C19.1178 14.0979 18.7712 14.001 18.4177 14.001C18.0643 14.001 17.7176 14.0979 17.4153 14.2811C17.1131 14.4644 16.8669 14.727 16.7034 15.0404C16.54 15.3537 16.4656 15.7059 16.4883 16.0587C16.511 16.4114 16.63 16.7511 16.8323 17.041C16.5839 17.1581 16.3739 17.3435 16.2267 17.5754C16.0796 17.8072 16.0013 18.0762 16.001 18.3508V20.2842C16.001 20.4124 16.0519 20.5353 16.1425 20.626C16.2332 20.7166 16.3561 20.7675 16.4843 20.7675ZM18.4177 14.9674C18.6089 14.9674 18.7958 15.0241 18.9548 15.1303C19.1137 15.2365 19.2376 15.3875 19.3108 15.5642C19.384 15.7408 19.4031 15.9352 19.3658 16.1227C19.3285 16.3102 19.2365 16.4825 19.1013 16.6176C18.9661 16.7528 18.7938 16.8449 18.6063 16.8822C18.4188 16.9195 18.2244 16.9004 18.0478 16.8272C17.8711 16.754 17.7202 16.6301 17.6139 16.4712C17.5077 16.3122 17.451 16.1253 17.451 15.9341C17.451 15.6777 17.5529 15.4318 17.7342 15.2505C17.9154 15.0693 18.1613 14.9674 18.4177 14.9674Z" fill="white"/>
<path d="M20.4845 38.791C20.6868 38.5011 20.8058 38.1614 20.8285 37.8087C20.8513 37.4559 20.7769 37.1037 20.6134 36.7904C20.45 36.477 20.2038 36.2144 19.9015 36.0311C19.5993 35.8479 19.2526 35.751 18.8991 35.751C18.5457 35.751 18.199 35.8479 17.8968 36.0311C17.5945 36.2144 17.3483 36.477 17.1849 36.7904C17.0214 37.1037 16.947 37.4559 16.9698 37.8087C16.9925 38.1614 17.1115 38.5011 17.3138 38.791C17.0654 38.9081 16.8554 39.0935 16.7082 39.3254C16.561 39.5572 16.4827 39.8262 16.4824 40.1008V42.0342C16.4824 42.1624 16.5333 42.2853 16.624 42.376C16.7146 42.4666 16.8376 42.5175 16.9658 42.5175C17.094 42.5175 17.2169 42.4666 17.3075 42.376C17.3982 42.2853 17.4491 42.1624 17.4491 42.0342V40.1008C17.4491 39.9726 17.5 39.8497 17.5907 39.759C17.6813 39.6684 17.8043 39.6175 17.9325 39.6175H19.8658C19.994 39.6175 20.117 39.6684 20.2076 39.759C20.2983 39.8497 20.3492 39.9726 20.3492 40.1008V42.0342C20.3492 42.1624 20.4001 42.2853 20.4908 42.376C20.5814 42.4666 20.7043 42.5175 20.8325 42.5175C20.9607 42.5175 21.0837 42.4666 21.1743 42.376C21.265 42.2853 21.3159 42.1624 21.3159 42.0342V40.1008C21.3156 39.8262 21.2373 39.5572 21.0901 39.3254C20.9429 39.0935 20.7329 38.9081 20.4845 38.791ZM18.8991 36.7174C19.0903 36.7174 19.2772 36.7741 19.4362 36.8803C19.5952 36.9865 19.7191 37.1375 19.7923 37.3142C19.8654 37.4908 19.8846 37.6852 19.8473 37.8727C19.81 38.0602 19.7179 38.2325 19.5827 38.3676C19.4475 38.5028 19.2753 38.5949 19.0877 38.6322C18.9002 38.6695 18.7059 38.6504 18.5292 38.5772C18.3526 38.504 18.2016 38.3801 18.0954 38.2212C17.9892 38.0622 17.9325 37.8753 17.9325 37.6841C17.9325 37.4277 18.0343 37.1818 18.2156 37.0005C18.3969 36.8193 18.6428 36.7174 18.8991 36.7174Z" fill="white"/>
<path d="M44.5173 28.0166H42.5839C42.4557 28.0166 42.3328 28.0675 42.2422 28.1582C42.1515 28.2488 42.1006 28.3718 42.1006 28.4999C42.1006 28.6281 42.1515 28.7511 42.2422 28.8417C42.3328 28.9324 42.4557 28.9833 42.5839 28.9833H44.5173C44.6455 28.9833 44.7684 28.9324 44.8591 28.8417C44.9497 28.7511 45.0007 28.6281 45.0007 28.4999C45.0007 28.3718 44.9497 28.2488 44.8591 28.1582C44.7684 28.0675 44.6455 28.0166 44.5173 28.0166Z" fill="white"/>
<path d="M18.4167 28.9833C18.5449 28.9833 18.6679 28.9324 18.7585 28.8417C18.8491 28.7511 18.9001 28.6281 18.9001 28.4999C18.9001 28.3718 18.8491 28.2488 18.7585 28.1582C18.6679 28.0675 18.5449 28.0166 18.4167 28.0166H16.4833C16.3552 28.0166 16.2322 28.0675 16.1416 28.1582C16.0509 28.2488 16 28.3718 16 28.4999C16 28.6281 16.0509 28.7511 16.1416 28.8417C16.2322 28.9324 16.3552 28.9833 16.4833 28.9833H18.4167Z" fill="white"/>
<path d="M30.5009 16.9001C30.6291 16.9001 30.7521 16.8491 30.8427 16.7585C30.9333 16.6679 30.9843 16.5449 30.9843 16.4167V14.4833C30.9843 14.3552 30.9333 14.2322 30.8427 14.1416C30.7521 14.0509 30.6291 14 30.5009 14C30.3727 14 30.2498 14.0509 30.1591 14.1416C30.0685 14.2322 30.0176 14.3552 30.0176 14.4833V16.4167C30.0176 16.5449 30.0685 16.6679 30.1591 16.7585C30.2498 16.8491 30.3727 16.9001 30.5009 16.9001Z" fill="white"/>
<path d="M30.5009 40.1006C30.3727 40.1006 30.2498 40.1515 30.1591 40.2422C30.0685 40.3328 30.0176 40.4557 30.0176 40.5839V42.5173C30.0176 42.6455 30.0685 42.7684 30.1591 42.8591C30.2498 42.9497 30.3727 43.0007 30.5009 43.0007C30.6291 43.0007 30.7521 42.9497 30.8427 42.8591C30.9333 42.7684 30.9843 42.6455 30.9843 42.5173V40.5839C30.9843 40.4557 30.9333 40.3328 30.8427 40.2422C30.7521 40.1515 30.6291 40.1006 30.5009 40.1006Z" fill="white"/>
<defs>
<filter id="filter0_d" x="0" y="0" width="61" height="61" filterUnits="userSpaceOnUse" color-interpolation-filters="sRGB">
<feFlood flood-opacity="0" result="BackgroundImageFix"/>
<feColorMatrix in="SourceAlpha" type="matrix" values="0 0 0 0 0 0 0 0 0 0 0 0 0 0 0 0 0 0 127 0"/>
<feOffset dy="2"/>
<feGaussianBlur stdDeviation="4"/>
<feColorMatrix type="matrix" values="0 0 0 0 0 0 0 0 0 0 0 0 0 0 0 0 0 0 0.1 0"/>
<feBlend mode="normal" in2="BackgroundImageFix" result="effect1_dropShadow"/>
<feBlend mode="normal" in="SourceGraphic" in2="effect1_dropShadow" result="shape"/>
</filter>
</defs>
</svg>
