<svg width="61" height="61" viewBox="0 0 61 61" fill="none" xmlns="http://www.w3.org/2000/svg">
<g filter="url(#filter0_d)">
<rect x="8" y="6" width="45" height="45" rx="8" fill="#20B4B3"/>
</g>
<path d="M29.3747 22.6847L27.903 23.3152C27.2142 23.6099 26.6271 24.1004 26.2147 24.7259C25.8022 25.3513 25.5826 26.0841 25.583 26.8333V27.375H26.6663V26.8333C26.6661 26.2962 26.8236 25.7707 27.1193 25.3223C27.415 24.8739 27.836 24.5221 28.3298 24.3108L30.1298 23.5395C30.2272 23.4977 30.3102 23.4283 30.3685 23.3398C30.4269 23.2513 30.458 23.1477 30.458 23.0417V22.9875C30.8154 23.0605 31.1839 23.0605 31.5413 22.9875V23.0417C31.5414 23.1477 31.5725 23.2513 31.6308 23.3398C31.6892 23.4283 31.7722 23.4977 31.8696 23.5395L33.6695 24.3108C34.1634 24.5221 34.5843 24.8739 34.88 25.3223C35.1757 25.7707 35.3333 26.2962 35.333 26.8333V27.375H36.4163V26.8333C36.4168 26.0841 36.1971 25.3513 35.7847 24.7259C35.3723 24.1004 34.7852 23.6099 34.0964 23.3152L32.6247 22.6847V22.5H32.6079C32.9479 22.25 33.2246 21.9238 33.4156 21.5475C33.6067 21.1712 33.7068 20.7554 33.708 20.3333V18.7083C33.708 17.99 33.4227 17.3012 32.9148 16.7933C32.4068 16.2853 31.718 16 30.9997 16C30.2814 16 29.5925 16.2853 29.0846 16.7933C28.5767 17.3012 28.2913 17.99 28.2913 18.7083V20.3333C28.2925 20.7554 28.3927 21.1712 28.5837 21.5475C28.7748 21.9238 29.0514 22.25 29.3915 22.5H29.3747V22.6847ZM30.9997 17.0833C31.3346 17.0847 31.6608 17.1895 31.9339 17.3835C32.2069 17.5774 32.4134 17.8509 32.525 18.1667H29.4743C29.586 17.8509 29.7924 17.5774 30.0655 17.3835C30.3385 17.1895 30.6648 17.0847 30.9997 17.0833ZM29.3747 19.25H32.6247V20.3333C32.6247 20.7643 32.4535 21.1776 32.1487 21.4824C31.844 21.7871 31.4307 21.9583 30.9997 21.9583C30.5687 21.9583 30.1554 21.7871 29.8506 21.4824C29.5459 21.1776 29.3747 20.7643 29.3747 20.3333V19.25Z" fill="white"/>
<path d="M41.8333 19.25C41.3647 19.2509 40.9088 19.4028 40.5333 19.6833L39.6667 20.3333V16.5417C39.6667 16.398 39.6096 16.2602 39.508 16.1587C39.4064 16.0571 39.2687 16 39.125 16H34.25V17.0833H38.5833V20.3333C38.5833 25.9585 36.0375 32.25 32.625 32.25C32.4888 32.2495 32.3574 32.3004 32.257 32.3924C32.1567 32.4845 32.0946 32.611 32.0833 32.7467L31.5417 39.2467C31.5354 39.3215 31.5448 39.3968 31.5692 39.4678C31.5937 39.5388 31.6326 39.604 31.6835 39.6591C31.7344 39.7143 31.7963 39.7583 31.8651 39.7883C31.9339 39.8182 32.0083 39.8336 32.0833 39.8333H35.3333C35.6693 39.8337 35.9969 39.9381 36.2713 40.132C36.5456 40.326 36.7533 40.6001 36.8657 40.9167H25.1343C25.2456 40.5994 25.453 40.3246 25.7276 40.1304C26.0022 39.9363 26.3304 39.8325 26.6667 39.8333H29.9167C29.9917 39.8336 30.0661 39.8182 30.1349 39.7883C30.2037 39.7583 30.2656 39.7143 30.3165 39.6591C30.3674 39.604 30.4063 39.5388 30.4308 39.4678C30.4552 39.3968 30.4646 39.3215 30.4583 39.2467L29.9638 33.3333H31V32.25H29.375C25.9625 32.25 23.4167 25.9585 23.4167 20.3333V17.0833H27.75V16H22.875C22.7313 16 22.5936 16.0571 22.492 16.1587C22.3904 16.2602 22.3333 16.398 22.3333 16.5417V20.3333L21.4667 19.6833C21.1448 19.4419 20.762 19.2949 20.3612 19.2588C19.9605 19.2226 19.5576 19.2988 19.1977 19.4787C18.8378 19.6587 18.5351 19.9353 18.3236 20.2776C18.112 20.6199 18 21.0143 18 21.4167V21.6388C18.0004 23.3485 18.3625 25.0388 19.0627 26.5986C19.7629 28.1584 20.7852 29.5524 22.0625 30.6889C22.4366 31.0197 22.9132 31.2116 23.4121 31.2324C23.911 31.2532 24.4019 31.1017 24.8022 30.8032L25.0904 30.5865C26.1196 32.0967 27.4044 33.1112 28.8723 33.3003L29.3279 38.75H26.6667C26.3109 38.7496 25.9586 38.8195 25.6298 38.9554C25.3011 39.0914 25.0024 39.2909 24.7508 39.5425C24.4992 39.794 24.2997 40.0927 24.1638 40.4215C24.0278 40.7502 23.958 41.1026 23.9583 41.4583C23.9583 41.602 24.0154 41.7398 24.117 41.8414C24.2186 41.9429 24.3563 42 24.5 42H37.5C37.6437 42 37.7814 41.9429 37.883 41.8414C37.9846 41.7398 38.0417 41.602 38.0417 41.4583C38.0408 40.7403 37.7552 40.0519 37.2475 39.5442C36.7397 39.0365 36.0514 38.7509 35.3333 38.75H32.6721L33.126 33.3008C34.594 33.1118 35.8766 32.0972 36.908 30.5871L37.1961 30.8038C37.5964 31.1023 38.0872 31.2539 38.586 31.2331C39.0849 31.2122 39.5614 31.0203 39.9353 30.6895C41.2132 29.5531 42.236 28.1592 42.9366 26.5992C43.6371 25.0393 43.9995 23.3488 44 21.6388V21.4167C44 20.842 43.7717 20.2909 43.3654 19.8846C42.9591 19.4783 42.408 19.25 41.8333 19.25ZM24.1539 29.9365C23.9537 30.0856 23.7083 30.1613 23.4589 30.151C23.2094 30.1406 22.9712 30.0448 22.784 29.8797C21.6207 28.8449 20.6895 27.5756 20.0517 26.1553C19.4139 24.7349 19.0839 23.1957 19.0833 21.6388V21.4167C19.0833 21.2155 19.1394 21.0183 19.2451 20.8471C19.3509 20.676 19.5022 20.5377 19.6822 20.4477C19.8621 20.3577 20.0636 20.3196 20.264 20.3377C20.4643 20.3558 20.6557 20.4293 20.8167 20.55L22.3805 21.7227C22.5245 24.4902 23.2551 27.1955 24.5238 29.6592L24.1539 29.9365ZM42.9167 21.6388C42.9161 23.1958 42.5861 24.735 41.9482 26.1554C41.3103 27.5757 40.3789 28.845 39.2155 29.8797C39.0284 30.0449 38.7902 30.1407 38.5409 30.1511C38.2915 30.1614 38.0462 30.0857 37.8461 29.9365L37.4762 29.6592C38.7449 27.1955 39.4755 24.4902 39.6195 21.7227L41.1833 20.55C41.3443 20.4293 41.5357 20.3558 41.736 20.3377C41.9364 20.3196 42.1379 20.3577 42.3178 20.4477C42.4978 20.5377 42.6491 20.676 42.7549 20.8471C42.8606 21.0183 42.9167 21.2155 42.9167 21.4167V21.6388Z" fill="white"/>
<defs>
<filter id="filter0_d" x="0" y="0" width="61" height="61" filterUnits="userSpaceOnUse" color-interpolation-filters="sRGB">
<feFlood flood-opacity="0" result="BackgroundImageFix"/>
<feColorMatrix in="SourceAlpha" type="matrix" values="0 0 0 0 0 0 0 0 0 0 0 0 0 0 0 0 0 0 127 0"/>
<feOffset dy="2"/>
<feGaussianBlur stdDeviation="4"/>
<feColorMatrix type="matrix" values="0 0 0 0 0 0 0 0 0 0 0 0 0 0 0 0 0 0 0.1 0"/>
<feBlend mode="normal" in2="BackgroundImageFix" result="effect1_dropShadow"/>
<feBlend mode="normal" in="SourceGraphic" in2="effect1_dropShadow" result="shape"/>
</filter>
</defs>
</svg>
