<svg width="61" height="61" viewBox="0 0 61 61" fill="none" xmlns="http://www.w3.org/2000/svg">
<g filter="url(#filter0_d)">
<rect x="8" y="6" width="45" height="45" rx="8" fill="#20B4B3"/>
</g>
<path d="M39.383 33.3108C39.2558 33.1837 39.0439 33.1837 38.8743 33.2684L38.4929 33.5228L37.7723 32.4631C40.2307 30.7253 41.799 27.843 41.799 24.6217C41.799 19.3234 37.4756 15 32.1773 15C26.8791 15 22.5557 19.3234 22.5557 24.6217C22.5557 29.9199 26.8791 34.2433 32.1773 34.2433C33.9575 34.2433 35.6106 33.7347 37.0517 32.9294L37.7723 33.989L37.3908 34.2433C37.2213 34.3281 37.1789 34.54 37.2213 34.7096C37.4332 35.4301 39.5101 41.7457 42.0957 41.9576C42.0957 41.9576 42.1381 41.9576 42.1805 41.9576C42.7315 41.9576 43.8335 41.2794 44.0455 40.686C44.8932 38.27 39.9764 33.8195 39.383 33.3108ZM32.1773 15.8477C37.0094 15.8477 40.9513 19.7896 40.9513 24.6217C40.9513 26.5714 40.3155 28.3516 39.2558 29.7928C39.2134 29.6656 39.171 28.8179 38.3233 28.5636L34.8053 27.4615L34.2966 26.3171C36.4583 24.325 36.8822 20.595 35.3987 18.8571C34.0423 17.2465 30.2276 17.2465 28.8288 18.8571C27.3877 20.5526 27.7692 24.4097 29.9732 26.3595L29.507 27.4615L25.9889 28.5636C25.1412 28.8179 25.0988 29.6656 25.0564 29.7928C23.9968 28.3516 23.361 26.5714 23.361 24.6217C23.4034 19.7896 27.3453 15.8477 32.1773 15.8477ZM29.507 19.4082C30.5667 18.179 33.7456 18.179 34.7629 19.4082C35.2715 20.0016 35.4835 20.9765 35.3987 22.2057C34.4662 21.3579 34.1695 20.2983 34.1695 20.2983C34.0423 19.832 33.4065 19.8744 33.3218 20.3407C33.3218 20.3407 32.8979 21.9089 28.8712 22.0361C28.8288 20.8493 29.0408 19.9592 29.507 19.4082ZM33.7032 21.3579C33.9999 21.9089 34.4662 22.6295 35.2715 23.1805C35.0596 23.9435 34.2119 26.1052 32.1773 26.5714C30.5243 26.2323 29.2103 24.3673 28.9984 22.8838C31.7959 22.7567 33.1098 21.9937 33.7032 21.3579ZM30.7362 26.8681C31.1177 27.0801 31.5839 27.292 32.0926 27.3768C32.1349 27.3768 32.1349 27.3768 32.1773 27.3768C32.2197 27.3768 32.2197 27.3768 32.2621 27.3768C32.8131 27.292 33.2794 27.0801 33.6608 26.8257L34.0847 27.8006C33.9152 28.1821 33.4065 29.2418 32.2197 29.6232C31.0329 29.2418 30.5243 28.1821 30.3547 27.8006L30.7362 26.8681ZM25.777 30.5981L26.0313 29.6656C26.0737 29.5385 26.1585 29.4113 26.328 29.3689L29.6765 28.3093C29.9732 28.9027 30.6514 30.0471 32.0926 30.4286C32.1349 30.4286 32.1773 30.4286 32.2197 30.4286H32.3045C32.3469 30.4286 32.3893 30.4286 32.4316 30.4286C33.8304 30.0047 34.551 28.9027 34.8477 28.3093L38.1962 29.3689C38.3233 29.4113 38.4505 29.5385 38.4929 29.6656L38.62 30.5981C37.0094 32.3359 34.7205 33.3956 32.2197 33.3956C29.6765 33.3956 27.3877 32.3359 25.777 30.5981ZM43.2401 40.4317C43.1554 40.6436 42.3924 41.1099 42.1805 41.1099C40.697 40.9827 38.9591 37.2951 38.1538 34.7943L38.62 34.4976L39.0863 34.2009C41.036 35.9388 43.7064 39.033 43.2401 40.4317Z" fill="white"/>
<path d="M24.7599 36.4474C24.5903 36.3627 24.4208 36.405 24.2936 36.5322L22.5558 38.27L20.818 36.5322C20.6908 36.405 20.5213 36.3627 20.3517 36.4474C18.4867 37.2528 17.1728 38.9906 17.0032 41.0675C16.9608 41.5762 17.3423 42 17.8509 42H27.2607C27.7693 42 28.1508 41.5762 28.1084 41.0675C27.9389 38.9906 26.6673 37.2528 24.7599 36.4474ZM25.7772 41.1099V39.9655C25.7772 39.7112 25.6076 39.5416 25.3533 39.5416C25.099 39.5416 24.9294 39.7112 24.9294 39.9655V41.1099H20.1822V39.9655C20.1822 39.7112 20.0126 39.5416 19.7583 39.5416C19.504 39.5416 19.3345 39.7112 19.3345 39.9655V41.1099H17.8509C17.9781 39.4568 18.9954 38.0581 20.4365 37.2951L22.2591 39.1178C22.4286 39.2873 22.683 39.2873 22.8525 39.1178L24.6751 37.2951C26.1162 38.0157 27.1335 39.4568 27.2607 41.1099H25.7772Z" fill="white"/>
<path d="M22.5558 36.3627C23.8274 36.3627 24.8871 35.303 24.8871 34.0314C24.8871 32.7599 23.8274 31.7002 22.5558 31.7002C21.2843 31.7002 20.2246 32.7599 20.2246 34.0314C20.2246 35.3454 21.2843 36.3627 22.5558 36.3627ZM22.5558 32.5903C23.3612 32.5903 24.0394 33.2685 24.0394 34.0738C24.0394 34.8792 23.3612 35.5573 22.5558 35.5573C21.7505 35.5573 21.0723 34.8792 21.0723 34.0738C21.0723 33.2261 21.7505 32.5903 22.5558 32.5903Z" fill="white"/>
<defs>
<filter id="filter0_d" x="0" y="0" width="61" height="61" filterUnits="userSpaceOnUse" color-interpolation-filters="sRGB">
<feFlood flood-opacity="0" result="BackgroundImageFix"/>
<feColorMatrix in="SourceAlpha" type="matrix" values="0 0 0 0 0 0 0 0 0 0 0 0 0 0 0 0 0 0 127 0"/>
<feOffset dy="2"/>
<feGaussianBlur stdDeviation="4"/>
<feColorMatrix type="matrix" values="0 0 0 0 0 0 0 0 0 0 0 0 0 0 0 0 0 0 0.1 0"/>
<feBlend mode="normal" in2="BackgroundImageFix" result="effect1_dropShadow"/>
<feBlend mode="normal" in="SourceGraphic" in2="effect1_dropShadow" result="shape"/>
</filter>
</defs>
</svg>
