<svg width="202" height="25" viewBox="0 0 202 25" fill="none" xmlns="http://www.w3.org/2000/svg">
<g clip-path="url(#clip0)">
<path d="M45.0605 14.5652C45.0605 21.6667 49.5525 25 55.1675 25H68.6435V4.13043H55.0973C49.5525 4.13043 45.0605 7.53623 45.0605 14.5652ZM62.6776 9.42029V19.7826H56.0097C54.3954 19.7826 53.2724 19.2754 52.4302 18.4783C51.5879 17.6812 51.0264 16.4493 51.0264 14.5652C51.0264 12.7536 51.5879 11.4493 52.5004 10.6522C53.3426 9.85507 54.4656 9.42029 56.0799 9.42029H62.6776ZM13.476 4.13043H5.89576V0H0V25H13.476C19.0209 25 23.583 21.6667 23.583 14.5652C23.5129 7.53623 19.0209 4.13043 13.476 4.13043ZM16.1432 18.4058C15.3009 19.1304 14.1779 19.7101 12.5636 19.7101H5.89576V9.42029H12.5636C14.1077 9.42029 15.3009 9.92754 16.1432 10.6522C16.9854 11.4493 17.6171 12.7536 17.6171 14.5652C17.6171 16.3768 16.9854 17.6087 16.1432 18.4058ZM26.6011 13.913V25H32.4969V14.2754C32.4969 11.5217 34.6025 9.34783 37.2696 9.34783H43.4462V4.13043H36.0063C30.8124 4.13043 26.6011 8.47826 26.6011 13.913ZM95.385 4.13043H89.4892V13.6957C89.0681 17.5362 86.7519 18.7681 83.6637 19.7101C80.5754 18.7681 78.2592 17.5362 77.8381 13.6957V4.13043H71.9423V13.7681C71.9423 13.7681 71.7318 23.5507 83.6637 25C95.5956 23.6232 95.385 13.7681 95.385 13.7681V4.13043ZM118.196 6.15942C114.757 3.91304 110.124 4.13043 110.124 4.13043C110.124 4.13043 105.422 3.84058 102.053 6.15942C99.8068 7.6087 98.3329 10.2174 98.3329 14.5652C98.3329 18.913 99.8068 21.5217 102.053 22.971C105.492 25.2174 110.124 25 110.124 25C110.124 25 114.827 25.2899 118.196 22.971C120.442 21.5217 121.916 18.913 121.916 14.5652C121.916 10.2174 120.442 7.6087 118.196 6.15942ZM114.476 18.4058C113.423 19.3478 111.739 19.7101 110.124 19.7101C108.37 19.7101 106.615 19.2754 105.562 18.1884C104.58 17.2464 104.229 15.8696 104.229 14.4928C104.229 13.0435 104.65 11.5217 105.773 10.5797C106.826 9.63768 108.51 9.27536 110.124 9.27536C111.598 9.27536 113.142 9.56522 114.195 10.3623C115.459 11.3043 116.02 12.8986 116.02 14.4203C116.02 16.0145 115.529 17.4638 114.476 18.4058Z" fill="url(#paint0_linear)"/>
<path d="M137.217 7.10149C136.375 6.44932 135.252 6.15946 133.918 6.15946C133.357 6.15946 132.865 6.23193 132.304 6.30439C131.812 6.44932 131.321 6.59425 130.9 6.8841C130.479 7.17396 130.198 7.46381 129.917 7.89859C129.707 8.33338 129.566 8.91309 129.566 9.4928C129.566 10.0725 129.777 10.5798 130.058 11.0145C130.409 11.3769 130.9 11.7392 131.461 11.9566C132.023 12.174 132.725 12.3913 133.427 12.5363C134.199 12.6812 134.901 12.8986 135.673 13.0435C136.445 13.1884 137.217 13.4783 137.919 13.6957C138.691 13.9131 139.322 14.2754 139.884 14.7102C140.445 15.145 140.937 15.6522 141.288 16.3044C141.639 16.9566 141.779 17.7537 141.779 18.7682C141.779 19.8551 141.568 20.7247 141.077 21.4493C140.586 22.174 140.024 22.8261 139.322 23.2609C138.621 23.7682 137.778 24.058 136.936 24.2754C136.024 24.4928 135.181 24.5653 134.269 24.5653C133.216 24.5653 132.163 24.4203 131.181 24.1305C130.198 23.8406 129.356 23.4058 128.654 22.8986C127.952 22.3189 127.32 21.5942 126.899 20.7247C126.478 19.8551 126.268 18.7682 126.268 17.6087H128.724C128.724 18.4783 128.865 19.1305 129.215 19.7827C129.496 20.3624 129.917 20.8696 130.479 21.3044C130.97 21.6667 131.602 21.9566 132.304 22.174C133.006 22.3913 133.707 22.4638 134.409 22.4638C134.971 22.4638 135.532 22.3913 136.164 22.3189C136.726 22.174 137.287 22.029 137.708 21.7392C138.199 21.4493 138.55 21.087 138.831 20.6522C139.112 20.2174 139.252 19.5653 139.252 18.8406C139.252 18.1884 139.042 17.6087 138.761 17.174C138.41 16.7392 137.919 16.3769 137.357 16.1595C136.796 15.8696 136.094 15.6522 135.392 15.5073C134.62 15.3624 133.918 15.145 133.146 15C132.374 14.8551 131.602 14.6377 130.9 14.4203C130.128 14.2029 129.496 13.9131 128.935 13.4783C128.373 13.116 127.882 12.6087 127.531 12.029C127.18 11.4493 127.04 10.6522 127.04 9.78265C127.04 8.76816 127.25 7.89859 127.601 7.17396C128.022 6.44932 128.514 5.86961 129.145 5.36236C129.777 4.85511 130.549 4.56526 131.391 4.2754C132.234 4.05801 133.076 3.91309 133.988 3.91309C134.971 3.91309 135.883 4.05801 136.726 4.2754C137.568 4.4928 138.34 4.92758 138.972 5.43483C139.603 5.94207 140.095 6.59425 140.516 7.39135C140.867 8.18845 141.077 9.13048 141.147 10.2174H138.691C138.55 8.76816 138.059 7.75367 137.217 7.10149Z" fill="#1FB4B3"/>
<path d="M158.484 22.8257C157.15 24.1301 155.325 24.7098 152.869 24.7098C150.412 24.7098 148.447 24.1301 147.043 22.8982C145.639 21.6663 144.938 19.7098 144.938 17.1011V4.41992H147.534V17.1011C147.534 18.9127 148.026 20.217 148.938 21.1591C149.851 22.1011 151.184 22.5359 152.939 22.5359C154.553 22.5359 155.817 22.1011 156.659 21.1591C157.501 20.217 157.922 18.9127 157.922 17.1011V4.41992H160.519V17.1011C160.449 19.6373 159.817 21.5214 158.484 22.8257Z" fill="#1FB4B3"/>
<path d="M167.187 4.41992V24.275H164.59V4.41992H167.187Z" fill="#1FB4B3"/>
<path d="M170.205 6.59384V4.41992H185.646V6.6663H179.259V24.3475H176.662V6.59384H170.205Z" fill="#1FB4B3"/>
<path d="M201.93 4.41992V6.6663H191.192V12.9706H201.229V15.217H191.192V22.1011H202.001V24.3475H188.595V4.41992H201.93Z" fill="#1FB4B3"/>
</g>
<defs>
<linearGradient id="paint0_linear" x1="0" y1="12.4896" x2="121.942" y2="12.4896" gradientUnits="userSpaceOnUse">
<stop stop-color="#1FB4B3"/>
<stop offset="0.2556" stop-color="#24ABB5"/>
<stop offset="0.6709" stop-color="#3093B9"/>
<stop offset="1" stop-color="#3C7BBE"/>
</linearGradient>
<clipPath id="clip0">
<rect width="202" height="25" fill="white"/>
</clipPath>
</defs>
</svg>
