<?xml version="1.0" encoding="UTF-8"?>
<svg width="16px" height="16px" viewBox="0 0 16 16" version="1.1" xmlns="http://www.w3.org/2000/svg" xmlns:xlink="http://www.w3.org/1999/xlink">
    <!-- Generator: sketchtool 64 (101010) - https://sketch.com -->
    <title>913371AD-7666-4270-8248-BABE5C60DA95</title>
    <desc>Created with sketchtool.</desc>
    <g id="Styleguide" stroke="none" stroke-width="1" fill="none" fill-rule="evenodd">
        <g id="SectionThirteen" transform="translate(-686.000000, -3201.000000)" fill="#000000" fill-rule="nonzero">
            <g id="share-(2)" transform="translate(686.000000, 3201.000000)">
                <path d="M15.25,2.49992956 C15.25,3.88067269 14.130782,5 12.75,5 C11.369218,5 10.25,3.88067269 10.25,2.49992956 C10.25,1.11932731 11.369218,0 12.75,0 C14.130782,0 15.25,1.11932731 15.25,2.49992956 L15.25,2.49992956 Z" id="Path"></path>
                <path d="M12.25,6 C10.5954337,6 9.25,4.65445971 9.25,2.99993132 C9.25,1.34554029 10.5954337,0 12.25,0 C13.9045663,0 15.25,1.34554029 15.25,2.99993132 C15.25,4.65445971 13.9045663,6 12.25,6 Z M12.25,1.12499142 C11.2157587,1.12499142 10.3750172,1.96653773 10.3750172,2.99993132 C10.3750172,4.03346227 11.2157587,4.87500858 12.25,4.87500858 C13.2842413,4.87500858 14.1249828,4.03346227 14.1249828,2.99993132 C14.1249828,1.96653773 13.2842413,1.12499142 12.25,1.12499142 Z" id="Shape"></path>
                <path d="M15.25,13.5000704 C15.25,14.8806727 14.130782,16 12.75,16 C11.369218,16 10.25,14.8806727 10.25,13.5000704 C10.25,12.1193273 11.369218,11 12.75,11 C14.130782,11 15.25,12.1193273 15.25,13.5000704 L15.25,13.5000704 Z" id="Path"></path>
                <path d="M12.25,16 C10.5954337,16 9.25,14.6544597 9.25,13.0000687 C9.25,11.3455403 10.5954337,10 12.25,10 C13.9045663,10 15.25,11.3455403 15.25,13.0000687 C15.25,14.6544597 13.9045663,16 12.25,16 Z M12.25,11.1249914 C11.2157587,11.1249914 10.3750172,11.9665377 10.3750172,13.0000687 C10.3750172,14.0334623 11.2157587,14.8750086 12.25,14.8750086 C13.2842413,14.8750086 14.1249828,14.0334623 14.1249828,13.0000687 C14.1249828,11.9665377 13.2842413,11.1249914 12.25,11.1249914 L12.25,11.1249914 Z" id="Shape"></path>
                <path d="M5.25,8.5 C5.25,9.88078203 4.13067269,11 2.74992956,11 C1.36932731,11 0.25,9.88078203 0.25,8.5 C0.25,7.11921797 1.36932731,6 2.74992956,6 C4.13067269,6 5.25,7.11921797 5.25,8.5 Z" id="Path"></path>
                <path d="M3.24993132,11 C1.59554029,11 0.25,9.65456627 0.25,8 C0.25,6.34543373 1.59554029,5 3.24993132,5 C4.90445971,5 6.25,6.34543373 6.25,8 C6.25,9.65456627 4.90445971,11 3.24993132,11 Z M3.24993132,6.12501717 C2.21571374,6.12501717 1.37499142,6.96644539 1.37499142,8 C1.37499142,9.03355461 2.21571374,9.87498283 3.24993132,9.87498283 C4.28428622,9.87498283 5.12500858,9.03355461 5.12500858,8 C5.12500858,6.96644539 4.28428622,6.12501717 3.24993132,6.12501717 Z" id="Shape"></path>
                <path d="M3.9599996,8 C3.71310672,8 3.47335695,7.87581637 3.34283231,7.65369212 C3.14918827,7.32521447 3.26841378,6.90620456 3.6081675,6.71823398 L10.1895969,3.09066537 C10.5293506,2.90206698 10.9627444,3.0173355 11.1571677,3.34706882 C11.3508117,3.67554647 11.2315862,4.09455638 10.8918325,4.28252695 L4.3102732,7.91009557 C4.19961947,7.97112007 4.07909522,8 3.9599996,8 Z" id="Path"></path>
                <path d="M10.5400922,13 C10.4208657,13 10.3003405,12.9711193 10.1896859,12.9100931 L3.60807279,9.28242675 C3.26831631,9.0952045 3.14921972,8.6761833 3.3428653,8.3469434 C3.53573168,8.01782905 3.96977837,7.90192956 4.31031414,8.09053304 L10.8919272,11.7181994 C11.2316837,11.9054217 11.3507803,12.3244429 11.1571347,12.6536828 C11.0259596,12.875813 10.7862079,13 10.5400922,13 L10.5400922,13 Z" id="Path"></path>
            </g>
        </g>
    </g>
</svg>