<svg xmlns="http://www.w3.org/2000/svg" width="30" height="30" fill="none" viewBox="0 0 30 30">
    <circle cx="15" cy="15" r="14.5" stroke="#fff"/>
    <path fill="#fff" d="M21.956 13.958c-.056-.25-.212-.482-.39-.579-.057-.03-.407-.068-.782-.084-.628-.028-.697-.04-.897-.156-.315-.185-.4-.385-.403-.922-.003-1.032-.431-1.992-1.278-2.854-.603-.616-1.278-1.032-2.047-1.266-.184-.057-.597-.075-1.978-.091-2.17-.025-2.65.019-3.388.313-1.36.537-2.334 1.681-2.69 3.144-.066.275-.082.716-.098 3.248-.018 3.173.004 3.638.2 4.267.488 1.55 1.872 2.697 3.263 2.947.463.085 6.166.104 6.75.026 1.016-.138 1.813-.548 2.56-1.31.54-.554.878-1.15 1.1-1.941.153-.55.14-4.464.078-4.742zM11.89 11.97c.244-.247.313-.257 1.838-.257 1.372 0 1.418.003 1.619.107.29.146.418.353.418.684 0 .297-.119.507-.384.675-.144.09-.228.097-1.572.103-.828.007-1.49-.012-1.588-.037-.518-.147-.712-.89-.331-1.275zm5.994 6.245l-.465.075-2.423.028c-2.128.025-2.728-.012-2.84-.062-.222-.097-.432-.366-.466-.607-.034-.228.081-.54.256-.7.222-.2.319-.206 3.041-.21 2.8-.003 2.785-.003 3.05.244.378.354.297.976-.153 1.232z"/>
</svg>
