<svg width="21" height="21" viewBox="0 0 21 21" fill="none" xmlns="http://www.w3.org/2000/svg">
<rect width="21" height="21" rx="4" fill="#20B4B3"/>
<path d="M15.7 6H5.3C4.585 6 4 6.61875 4 7.375V15.625C4 16.3813 4.585 17 5.3 17H15.7C16.415 17 17 16.3813 17 15.625V7.375C17 6.61875 16.415 6 15.7 6ZM15.44 8.92188L11.189 11.7338C10.7665 12.0156 10.2335 12.0156 9.811 11.7338L5.56 8.92188C5.49482 8.88318 5.43775 8.83089 5.39223 8.76819C5.34671 8.70548 5.31369 8.63366 5.29517 8.55707C5.27666 8.48048 5.27303 8.40071 5.2845 8.32259C5.29598 8.24447 5.32232 8.16962 5.36193 8.10258C5.40155 8.03554 5.45361 7.9777 5.51497 7.93256C5.57633 7.88742 5.64572 7.85591 5.71892 7.83996C5.79213 7.824 5.86763 7.82391 5.94087 7.83971C6.01411 7.85551 6.08355 7.88687 6.145 7.93187L10.5 10.8125L14.855 7.93187C14.9164 7.88687 14.9859 7.85551 15.0591 7.83971C15.1324 7.82391 15.2079 7.824 15.2811 7.83996C15.3543 7.85591 15.4237 7.88742 15.485 7.93256C15.5464 7.9777 15.5985 8.03554 15.6381 8.10258C15.6777 8.16962 15.704 8.24447 15.7155 8.32259C15.727 8.40071 15.7233 8.48048 15.7048 8.55707C15.6863 8.63366 15.6533 8.70548 15.6078 8.76819C15.5623 8.83089 15.5052 8.88318 15.44 8.92188Z" fill="white"/>
</svg>
