<svg width="21" height="21" viewBox="0 0 21 21" fill="none" xmlns="http://www.w3.org/2000/svg">
<rect width="21" height="21" rx="4" fill="#20B4B3"/>
<path d="M16.6582 13.4262L13.9482 10.9622C13.8201 10.8457 13.6518 10.7836 13.4787 10.789C13.3057 10.7943 13.1415 10.8667 13.0209 10.9908L11.4255 12.6315C11.0415 12.5582 10.2695 12.3175 9.47485 11.5248C8.68019 10.7295 8.43952 9.95551 8.36819 9.57418L10.0075 7.97818C10.1318 7.85759 10.2043 7.69339 10.2096 7.52031C10.215 7.34724 10.1528 7.17887 10.0362 7.05084L7.57285 4.34151C7.45622 4.21308 7.29411 4.13518 7.12096 4.12435C6.94781 4.11352 6.77725 4.17061 6.64552 4.28351L5.19885 5.52418C5.0836 5.63985 5.0148 5.79381 5.00552 5.95684C4.99552 6.12351 4.80485 10.0715 7.86619 13.1342C10.5369 15.8042 13.8822 15.9995 14.8035 15.9995C14.9382 15.9995 15.0209 15.9955 15.0429 15.9942C15.2059 15.9851 15.3597 15.9159 15.4749 15.8002L16.7149 14.3528C16.8282 14.2215 16.8857 14.0511 16.8751 13.878C16.8645 13.7048 16.7867 13.5427 16.6582 13.4262Z" fill="white"/>
</svg>
