<svg xmlns="http://www.w3.org/2000/svg" width="430" height="44" fill="none" viewBox="0 0 430 44">
    <path fill="#fff" d="M253.851 7.206h-27.679v3.849h11.547v32.347h4.586V11.055h11.546v-3.85zm8.763 0l-13.431 36.278h4.668l3.849-10.4h14.659l3.767 10.4h5.077l-13.43-36.278h-5.159zm-3.44 21.947l5.896-17.77h.082l5.733 17.77h-11.711zm30.054-21.046h-4.585v35.295h22.929v-3.849h-18.344V8.107zm75.095 28.825h-.082L345.979 7.288h-4.913v36.114h4.34V14.085h.082l18.18 29.317h5.077V7.288h-4.34v29.644h-.082zm8.107-25.795h11.547v32.265h4.586V11.137h11.547v-3.85h-27.68v3.85zm56.424 17.77c-.655-1.146-1.474-2.047-2.539-2.784-1.064-.737-2.211-1.31-3.521-1.802-1.31-.41-2.703-.819-4.013-1.146-1.392-.328-2.702-.655-4.013-.901-1.31-.246-2.538-.655-3.521-1.065-1.064-.41-1.883-.982-2.539-1.638-.655-.655-.982-1.556-.982-2.62 0-1.147.245-2.047.655-2.866.409-.737.983-1.393 1.72-1.802.737-.491 1.556-.737 2.456-.983.901-.163 1.884-.327 2.867-.327 2.374 0 4.34.573 5.896 1.638 1.556 1.146 2.457 2.948 2.702 5.404h4.34c-.081-1.883-.409-3.52-1.064-4.913-.655-1.392-1.556-2.539-2.703-3.44-1.146-.9-2.456-1.555-4.012-1.965-1.556-.41-3.194-.655-4.914-.655-1.556 0-3.112.164-4.586.573-1.474.41-2.866.983-4.012 1.802-1.147.819-2.13 1.883-2.867 3.112-.737 1.31-1.064 2.784-1.064 4.504 0 1.556.327 2.866.983 3.93.655 1.065 1.474 1.884 2.538 2.54 1.065.654 2.211 1.228 3.522 1.637 1.31.41 2.702.737 4.012 1.065 1.392.327 2.703.573 4.013.9 1.31.328 2.539.656 3.521 1.147 1.065.491 1.884 1.065 2.539 1.802.655.737.983 1.72.983 2.866 0 1.228-.246 2.293-.737 3.112-.492.819-1.229 1.474-2.048 1.883-.819.492-1.801.82-2.866.983-1.065.164-2.129.327-3.112.327-1.31 0-2.538-.163-3.767-.49-1.228-.328-2.293-.82-3.194-1.475-.9-.655-1.637-1.556-2.211-2.62-.573-1.065-.819-2.294-.819-3.768h-4.34c0 2.13.41 3.931 1.147 5.487.737 1.556 1.801 2.785 3.111 3.767 1.311.983 2.867 1.72 4.586 2.211 1.72.492 3.522.737 5.487.737 1.556 0 3.194-.163 4.75-.573 1.638-.41 3.03-.983 4.34-1.801 1.31-.82 2.375-1.884 3.194-3.194S430 34.639 430 32.756c-.245-1.31-.573-2.702-1.146-3.849zM81.715 25.305c0 12.365 8.107 18.098 18.098 18.098h24.158V7.206H99.813c-9.991 0-18.098 5.979-18.098 18.099zm31.692-9.009v18.017h-12.038c-2.867 0-4.996-.901-6.388-2.212-1.556-1.392-2.62-3.52-2.62-6.715 0-3.111 1.064-5.404 2.62-6.797 1.474-1.31 3.603-2.21 6.388-2.21h12.038v-.083zm-88.443-9.09H11.37V0H.806v43.403h24.158c9.99 0 18.098-5.733 18.098-18.098 0-12.12-8.107-18.099-18.098-18.099zm4.831 24.896c-1.474 1.31-3.603 2.21-6.387 2.21H11.37V16.297h12.038c2.784 0 4.913.82 6.387 2.212 1.556 1.392 2.62 3.685 2.62 6.797 0 3.193-1.064 5.323-2.62 6.797zm18.753-7.944v19.245h10.564V24.895c0-4.75 3.85-8.599 8.6-8.599h11.136v-9.09H65.5c-9.336 0-16.952 7.616-16.952 16.952zM172.124 7.206h-10.564v16.625c-.737 6.715-4.913 8.844-10.482 10.482-5.569-1.638-9.745-3.767-10.482-10.483V7.207h-10.564v16.706s-.41 17.034 21.046 19.49c21.456-2.456 21.046-19.49 21.046-19.49V7.206zm40.946 3.44c-6.142-3.93-14.495-3.44-14.495-3.44s-8.353-.49-14.495 3.44c-4.012 2.539-6.715 7.043-6.715 14.659 0 7.615 2.703 12.038 6.715 14.658 6.142 3.93 14.495 3.44 14.495 3.44s8.353.49 14.495-3.44c4.013-2.538 6.715-7.043 6.715-14.659 0-7.615-2.702-12.037-6.715-14.658zm-6.715 21.374c-1.884 1.556-4.914 2.293-7.78 2.293-3.112 0-6.306-.737-8.271-2.62-1.72-1.639-2.375-4.096-2.375-6.389 0-2.538.819-5.159 2.784-6.796 1.884-1.638 4.996-2.212 7.862-2.212 2.703 0 5.405.574 7.288 1.966 2.212 1.638 3.276 4.34 3.276 7.043 0 2.538-.819 5.077-2.784 6.715zM335.579 7.206v3.849h-19.491v12.284h18.017v3.849h-18.017V39.47h19.491v3.931h-24.077V7.206h24.077z"/>
</svg>
