<?xml version="1.0" encoding="UTF-8"?>
<svg width="198px" height="33px" viewBox="0 0 198 33" version="1.1" xmlns="http://www.w3.org/2000/svg" xmlns:xlink="http://www.w3.org/1999/xlink">
    <!-- Generator: sketchtool 64 (101010) - https://sketch.com -->
    <title>14C07B3B-8356-443B-8A2B-DBBD567BCABF</title>
    <desc>Created with sketchtool.</desc>
    <defs>
        <polygon id="path-1" points="0.000343949045 0.0259757143 14.3785605 0.0259757143 14.3785605 15.9620879 0.000343949045 15.9620879"></polygon>
        <polygon id="path-3" points="0 32.1122758 197.997363 32.1122758 197.997363 -6.52762337e-15 0 -6.52762337e-15"></polygon>
    </defs>
    <g id="Styleguide" stroke="none" stroke-width="1" fill="none" fill-rule="evenodd">
        <g id="Footer" transform="translate(-60.000000, -155.000000)">
            <g transform="translate(0.000000, 115.000000)" id="Group-43">
                <g transform="translate(60.000000, 40.000000)">
                    <g id="Group-42">
                        <path d="M0,12.1329782 C0,11.4543024 0.530369427,10.9525876 1.14901911,10.9525876 C1.82682803,10.9525876 2.32773248,11.4543024 2.32773248,12.1329782 L2.32773248,30.7252508 C2.32773248,31.4039266 1.82682803,31.9057563 1.14901911,31.9057563 C0.530369427,31.9057563 0,31.4039266 0,30.7252508 L0,12.1329782 Z" id="Fill-1" fill="#231F20"></path>
                        <path d="M7.30678471,17.5042093 C7.30678471,16.8843291 7.80757452,16.3532165 8.4264535,16.3532165 C9.10403312,16.3532165 9.57547261,16.8253038 9.57547261,17.5042093 L9.57547261,19.1568022 C10.6066318,17.5042093 12.1681605,16.1762555 14.790428,16.1762555 C18.4440841,16.1762555 20.6242624,18.6549725 20.6242624,22.2849121 L20.6242624,30.7546945 C20.6242624,31.4333703 20.1234726,31.9056874 19.5047083,31.9056874 C18.827014,31.9056874 18.3555745,31.4333703 18.3555745,30.7546945 L18.3555745,22.8456522 C18.3555745,20.0126687 16.8529758,18.2419104 14.1423134,18.2419104 C11.5200459,18.2419104 9.57547261,20.1602319 9.57547261,23.0228429 L9.57547261,30.7546945 C9.57547261,31.4333703 9.13349809,31.9056874 8.45580382,31.9056874 C7.77810955,31.9056874 7.30678471,31.4333703 7.30678471,30.7546945 L7.30678471,17.5042093 Z" id="Fill-3" fill="#231F20"></path>
                        <path d="M25.6333873,18.5074438 L24.3959732,18.5074438 C23.8361389,18.5074438 23.4237439,18.0648691 23.4237439,17.5042438 C23.4237439,16.9435037 23.8361389,16.5300971 24.3959732,16.5300971 L25.6333873,16.5300971 L25.6333873,15.2021432 C25.6333873,13.4610125 26.0753618,12.1625713 26.9591962,11.277307 C27.7547503,10.4804658 28.8449541,10.0966866 30.2298076,10.0966866 C30.9073873,10.0966866 31.5260369,10.1558268 32.0270561,10.2738773 C32.4689159,10.3624152 32.8520752,10.7459647 32.8520752,11.2476795 C32.8520752,11.8380471 32.3511707,12.3101345 31.7618713,12.2215965 C31.3788268,12.1329438 30.9664318,12.0740334 30.5243427,12.0740334 C28.7565592,12.0740334 27.8726102,13.1660009 27.8726102,15.3203086 L27.8726102,16.5597246 L31.8208013,16.5597246 C32.3806357,16.5597246 32.8224955,16.9729015 32.8224955,17.5336416 C32.8224955,18.0942669 32.3806357,18.5074438 31.8208013,18.5074438 L27.9020752,18.5074438 L27.9020752,30.7546141 C27.9020752,31.3743795 27.4602153,31.9057218 26.7824064,31.9057218 C26.1048268,31.9057218 25.6333873,31.3743795 25.6333873,30.7546141 L25.6333873,18.5074438 Z" id="Fill-5" fill="#231F20"></path>
                        <path d="M47.2302917,24.2032335 L47.2302917,24.1442082 C47.2302917,20.8683055 44.784814,18.1828852 41.5732471,18.1828852 C38.2734,18.1828852 36.0047121,20.8683055 36.0047121,24.0850681 L36.0047121,24.1442082 C36.0047121,27.4199962 38.4206102,30.0760187 41.6321771,30.0760187 C44.9321389,30.0760187 47.2302917,27.3903687 47.2302917,24.2032335 M33.6769796,24.2032335 L33.6769796,24.1442082 C33.6769796,19.8060802 37.0064064,16.1762555 41.6321771,16.1762555 C46.2285975,16.1762555 49.5579096,19.7764527 49.5579096,24.0850681 L49.5579096,24.1442082 C49.5579096,28.4824511 46.1695529,32.1122758 41.5732471,32.1122758 C37.0064064,32.1122758 33.6769796,28.5118489 33.6769796,24.2032335" id="Fill-7" fill="#231F20"></path>
                        <path d="M53.3590166,12.1625827 C53.3590166,11.5429322 53.889386,11.0115899 54.5080357,11.0115899 L54.7732204,11.0115899 C55.2741248,11.0115899 55.6277045,11.2773185 55.8634242,11.6312404 L63.2293223,22.7276476 L70.5952204,11.6312404 C70.8604051,11.2180635 71.2138701,11.0115899 71.6854242,11.0115899 L71.9504943,11.0115899 C72.5693732,11.0115899 73.099628,11.5429322 73.099628,12.1625827 L73.099628,30.7252278 C73.099628,31.4040185 72.5693732,31.9057333 71.9504943,31.9057333 C71.2729146,31.9057333 70.7720102,31.3449932 70.7720102,30.7252278 L70.7720102,15.3203201 L64.1720866,25.0295185 C63.9070166,25.4130679 63.5829019,25.619886 63.1998573,25.619886 C62.8168127,25.619886 62.4632331,25.4130679 62.1981631,25.0295185 L55.6277045,15.3497179 L55.6277045,30.7546256 C55.6277045,31.4333014 55.156265,31.9057333 54.4786854,31.9057333 C53.8598064,31.9057333 53.3590166,31.4333014 53.3590166,30.7546256 L53.3590166,12.1625827 Z" id="Fill-9" fill="#231F20"></path>
                        <g id="Group-13" transform="translate(76.929936, 16.150188)">
                            <mask id="mask-2" fill="white">
                                <use xlink:href="#path-1"></use>
                            </mask>
                            <g id="Clip-12"></g>
                            <path d="M12.1098726,7.13817681 C11.8741529,4.39361637 10.3126242,1.94418231 7.24849682,1.94418231 C4.56718471,1.94418231 2.62261146,4.18702791 2.29849682,7.13817681 L12.1098726,7.13817681 Z M7.60207643,15.9621109 C3.44751592,15.9621109 0.000343949045,12.7453482 0.000343949045,8.0234411 L0.000343949045,7.96441582 C0.000343949045,3.56726253 3.06447134,0.0259757143 7.3073121,0.0259757143 C11.8153376,0.0259757143 14.3785605,3.71482571 14.3785605,7.75782736 C14.3785605,8.37759275 13.8777707,8.82028231 13.3179363,8.82028231 L2.29849682,8.82028231 C2.62261146,12.1256977 4.9502293,13.9847642 7.66089172,13.9847642 C9.54664968,13.9847642 10.9019236,13.2470631 12.0509427,12.2140059 C12.2571975,12.0370449 12.4929172,11.948507 12.6992866,11.948507 C13.2590064,11.948507 13.7009809,12.3615691 13.7009809,12.9223092 C13.7009809,13.2174356 13.583121,13.4536515 13.3474013,13.66024 C11.9036178,15.0472191 10.1947643,15.9621109 7.60207643,15.9621109 L7.60207643,15.9621109 Z" id="Fill-11" fill="#231F20" mask="url(#mask-2)"></path>
                        </g>
                        <path d="M96.0818102,24.0850337 L96.0818102,24.1442886 C96.0818102,27.7741134 98.6157975,30.0463568 101.444205,30.0463568 C104.272727,30.0463568 106.953925,27.655948 106.953925,24.1442886 L106.953925,24.0850337 C106.953925,20.5733743 104.272727,18.2122485 101.444205,18.2122485 C98.4978229,18.2122485 96.0818102,20.3961837 96.0818102,24.0850337 L96.0818102,24.0850337 Z M109.134332,30.7546601 C109.134332,31.4333359 108.633428,31.9057677 108.014664,31.9057677 C107.336969,31.9057677 106.865645,31.4333359 106.865645,30.7546601 L106.865645,28.6890051 C105.598651,30.5184441 103.860332,32.0827287 101.03181,32.0827287 C97.3782688,32.0827287 93.7541924,29.1904903 93.7541924,24.1735716 L93.7541924,24.1146612 C93.7541924,19.1567677 97.3782688,16.176221 101.03181,16.176221 C103.860332,16.176221 105.686931,17.6811359 106.865645,19.4222666 L106.865645,11.218098 C106.865645,10.5394221 107.307504,10.0673348 107.985084,10.0673348 C108.662778,10.0673348 109.134332,10.5394221 109.134332,11.218098 L109.134332,30.7546601 Z" id="Fill-14" fill="#231F20"></path>
                        <path d="M113.730581,17.5042093 C113.730581,16.8843291 114.231371,16.3532165 114.85025,16.3532165 C115.527829,16.3532165 115.999269,16.8253038 115.999269,17.5042093 L115.999269,30.7546945 C115.999269,31.4333703 115.557294,31.9056874 114.8796,31.9056874 C114.201906,31.9056874 113.730581,31.4333703 113.730581,30.7546945 L113.730581,17.5042093 Z M113.524326,11.7198473 C113.524326,10.9821462 114.113625,10.5100588 114.85025,10.5100588 C115.645689,10.5100588 116.205524,10.9821462 116.205524,11.7198473 L116.205524,12.1036264 C116.205524,12.8119297 115.645689,13.3134148 114.85025,13.3134148 C114.113625,13.3134148 113.524326,12.8119297 113.524326,12.1036264 L113.524326,11.7198473 Z" id="Fill-16" fill="#231F20"></path>
                        <path d="M120.123871,30.1349521 L125.103222,23.996668 L120.418406,18.2419334 C120.182801,17.9763197 120.064827,17.7108208 120.064827,17.4155796 C120.064827,16.7366741 120.536381,16.3531246 121.125566,16.3531246 C121.56754,16.3531246 121.86219,16.5597131 122.127375,16.8842373 L126.51754,22.4621257 L130.878126,16.9138647 C131.143196,16.5893405 131.408496,16.3531246 131.850355,16.3531246 C132.439655,16.3531246 132.881515,16.795929 132.881515,17.3859521 C132.881515,17.6515658 132.793234,17.8877818 132.58698,18.1238829 L127.843349,23.9376427 L132.793234,30.0170164 C132.999489,30.2825153 133.117349,30.5776416 133.117349,30.8432554 C133.117349,31.4629059 132.64591,31.9057103 132.05661,31.9057103 C131.61475,31.9057103 131.319986,31.6991219 131.054916,31.374368 L126.429031,25.5015829 L121.832725,31.3449702 C121.56754,31.6694944 121.302355,31.9057103 120.860496,31.9057103 C120.271082,31.9057103 119.829222,31.4333933 119.829222,30.8726532 C119.829222,30.5776416 119.917617,30.3415405 120.123871,30.1349521" id="Fill-18" fill="#231F20"></path>
                        <polygon id="Fill-20" fill="#0788A8" points="142.386615 21.0083699 153.289112 9.15209852 152.745558 23.2032145"></polygon>
                        <path d="M169.69015,9.0016989 L158.624736,9.0016989 L158.624736,9.00445495 C157.324265,9.01915385 156.123997,9.45414945 155.154176,10.1843863 C155.156125,10.1742808 155.158532,10.1648643 155.161169,10.1565962 L155.055462,10.2624742 C154.68159,10.556567 154.343946,10.8947566 154.049985,11.2695786 C153.254316,12.2839176 152.778061,13.5639852 152.778061,14.9569357 L152.778061,17.5088027 L152.770724,17.516267 L152.770724,18.8530632 C152.770724,19.6109753 152.151501,20.2310852 151.394927,20.2310852 C150.999615,20.2310852 148.382507,20.2665692 147.961743,20.2665692 C146.531717,20.2665692 145.220239,20.7778154 144.197564,21.6286291 C142.884825,22.7209412 142.048112,24.3729599 142.048112,26.221806 L142.048112,30.2893824 C142.048112,31.0513137 142.670431,31.674639 143.431131,31.674639 L147.26066,31.674639 C147.490762,31.7020846 147.724418,31.7177022 147.961743,31.7177022 L152.778061,31.7177022 L158.624736,31.7177022 L170.731513,31.7110418 L170.731513,31.1473159 L170.731513,27.0394324 L166.46345,27.0394324 L161.930545,27.0394324 L161.930545,24.8002615 L166.46345,24.8002615 L166.46345,22.5609758 L170.731513,22.5609758 L170.731513,18.0419824 L166.46345,18.0419824 L161.930545,18.0419824 L161.930545,15.8028115 L166.46345,15.8028115 L166.46345,13.5635258 L170.731513,13.5635258 L170.731513,9.52695495 L170.731513,9.0016989 L169.69015,9.0016989 Z" id="Fill-22" fill="#DFDDDD"></path>
                        <polyline id="Fill-24" fill="#DFDDDD" points="170.729725 13.6006061 175.265381 13.6006061 175.265381 18.1436001 170.729725 18.1436001"></polyline>
                        <polyline id="Fill-26" fill="#DFDDDD" points="170.729725 22.7101467 175.265381 22.7101467 175.265381 27.2531407 170.729725 27.2531407"></polyline>
                        <mask id="mask-4" fill="white">
                            <use xlink:href="#path-3"></use>
                        </mask>
                        <g id="Clip-29"></g>
                        <polygon id="Fill-28" fill="#DFDDDD" mask="url(#mask-4)" points="179.822522 9.13605604 184.358178 9.13605604 184.358178 4.59306209 179.822522 4.59306209"></polygon>
                        <polygon id="Fill-30" fill="#DFDDDD" mask="url(#mask-4)" points="179.822522 27.2531407 184.358178 27.2531407 184.358178 22.7101467 179.822522 22.7101467"></polygon>
                        <polygon id="Fill-31" fill="#EE3A23" mask="url(#mask-4)" points="175.275975 4.54287912 179.811631 4.54287912 179.811631 -0.000114835165 175.275975 -0.000114835165"></polygon>
                        <polygon id="Fill-32" fill="#109B48" mask="url(#mask-4)" points="175.275975 22.7533247 179.811631 22.7533247 179.811631 18.2103308 175.275975 18.2103308"></polygon>
                        <polygon id="Fill-33" fill="#F6C513" mask="url(#mask-4)" points="175.275975 31.7727082 179.811631 31.7727082 179.811631 27.2297143 175.275975 27.2297143"></polygon>
                        <polygon id="Fill-34" fill="#9B64A4" mask="url(#mask-4)" points="175.275975 13.6520637 179.811631 13.6520637 179.811631 9.10906978 175.275975 9.10906978"></polygon>
                        <polygon id="Fill-35" fill="#F6C513" mask="url(#mask-4)" points="188.915274 4.54287912 193.45093 4.54287912 193.45093 -0.000114835165 188.915274 -0.000114835165"></polygon>
                        <polygon id="Fill-36" fill="#DFDDDD" mask="url(#mask-4)" points="188.915274 18.2197473 193.45093 18.2197473 193.45093 13.6768681 188.915274 13.6768681"></polygon>
                        <polygon id="Fill-37" fill="#0788A8" mask="url(#mask-4)" points="184.368955 13.6520637 188.904497 13.6520637 188.904497 9.10906978 184.368955 9.10906978"></polygon>
                        <polygon id="Fill-38" fill="#EE3A23" mask="url(#mask-4)" points="184.368955 22.7423005 188.904497 22.7423005 188.904497 18.1993066 184.368955 18.1993066"></polygon>
                        <polygon id="Fill-39" fill="#109B48" mask="url(#mask-4)" points="193.461822 13.6520637 197.997478 13.6520637 197.997478 9.10906978 193.461822 9.10906978"></polygon>
                        <path d="M154.476447,20.1998041 L143.735033,20.1998041 C142.905428,20.1998041 142.233008,20.8734271 142.233008,21.7043744 L142.233008,30.2447804 C142.233008,31.0756129 142.905428,31.7491211 143.735033,31.7491211 L154.476447,31.7491211 C155.305938,31.7491211 155.978473,31.0756129 155.978473,30.2447804 L155.978473,21.7043744 C155.978473,20.8734271 155.305938,20.1998041 154.476447,20.1998041" id="Fill-40" fill="#DFDDDD" mask="url(#mask-4)"></path>
                        <path d="M159.526743,8.97612511 L153.941698,8.97612511 C153.31445,8.97612511 152.806208,9.48541907 152.806208,10.1134526 L152.806208,19.3881147 C152.806208,20.016263 153.31445,20.5254421 153.941698,20.5254421 L159.526743,20.5254421 C160.153876,20.5254421 160.662233,20.016263 160.662233,19.3881147 L160.662233,10.1134526 C160.662233,9.48541907 160.153876,8.97612511 159.526743,8.97612511" id="Fill-41" fill="#DFDDDD" mask="url(#mask-4)"></path>
                    </g>
                </g>
            </g>
        </g>
    </g>
</svg>