<?xml version="1.0" encoding="UTF-8"?>
<svg width="120px" height="120px" viewBox="0 0 120 120" version="1.1" xmlns="http://www.w3.org/2000/svg" xmlns:xlink="http://www.w3.org/1999/xlink">
    <!-- Generator: sketchtool 64 (101010) - https://sketch.com -->
    <title>D027D90B-05A1-4A46-9875-1F6529B32C1F</title>
    <desc>Created with sketchtool.</desc>
    <g id="Styleguide" stroke="none" stroke-width="1" fill="none" fill-rule="evenodd">
        <g id="SectionThree" transform="translate(-486.000000, -180.000000)" fill-rule="nonzero">
            <g id="coding" transform="translate(486.000000, 180.000000)">
                <path d="M0,0 L0,120 L120,120 L120,0 L0,0 Z M115,115 L5,115 L5,25 L115,25 L115,115 Z M115,20 L5,20 L5,5 L115,5 L115,20 Z" id="Shape" fill-opacity="0.8" fill="#2F2F2F"></path>
                <rect id="Rectangle" fill-opacity="0.8" fill="#2F2F2F" x="105" y="10" width="5" height="5"></rect>
                <rect id="Rectangle" fill-opacity="0.8" fill="#2F2F2F" x="94" y="10" width="5" height="5"></rect>
                <rect id="Rectangle" fill-opacity="0.8" fill="#2F2F2F" x="84" y="10" width="5" height="5"></rect>
                <rect id="Rectangle" fill-opacity="0.8" fill="#2F2F2F" x="13" y="10" width="61" height="5"></rect>
                <polygon id="Path" fill="#109C49" points="81.5657388 48 78 51.4860618 93.8685225 67 78 82.5139382 81.5657388 86 101 67"></polygon>
                <polygon id="Path" fill="#109C49" points="41 51.4860618 37.4342612 48 18 67 37.4342612 86 41 82.5139382 25.1314775 67"></polygon>
                <polygon id="Rectangle" fill-opacity="0.8" fill="#2F2F2F" transform="translate(58.698284, 69.931519) rotate(-67.766643) translate(-58.698284, -69.931519) " points="29.0130362 67.4338241 88.3835308 67.4338241 88.3835308 72.4292134 29.0130362 72.4292134"></polygon>
            </g>
        </g>
    </g>
</svg>