<?xml version="1.0" encoding="UTF-8"?>
<svg width="144px" height="149px" viewBox="0 0 144 149" version="1.1" xmlns="http://www.w3.org/2000/svg" xmlns:xlink="http://www.w3.org/1999/xlink">
    <!-- Generator: sketchtool 64 (101010) - https://sketch.com -->
    <title>35271685-224A-4944-BF63-C5FF803DD366</title>
    <desc>Created with sketchtool.</desc>
    <g id="Styleguide" stroke="none" stroke-width="1" fill="none" fill-rule="evenodd">
        <g id="SectionThree" transform="translate(-815.000000, -180.000000)" fill-rule="nonzero">
            <g id="health-(1)" transform="translate(815.000000, 180.000000)">
                <path d="M81.5,30.5 L76.5,30.5 L76.5,25.5 C76.5,24.119375 75.380625,23 74,23 L64,23 C62.619375,23 61.5,24.119375 61.5,25.5 L61.5,30.5 L56.5,30.5 C55.119375,30.5 54,31.619375 54,33 L54,43 C54,44.380625 55.119375,45.5 56.5,45.5 L61.5,45.5 L61.5,50.5 C61.5,51.880625 62.619375,53 64,53 L74,53 C75.380625,53 76.5,51.880625 76.5,50.5 L76.5,45.5 L81.5,45.5 C82.880625,45.5 84,44.380625 84,43 L84,33 C84,31.619375 82.880625,30.5 81.5,30.5 Z M79,40.5 L74,40.5 C72.619375,40.5 71.5,41.619375 71.5,43 L71.5,48 L66.5,48 L66.5,43 C66.5,41.619375 65.380625,40.5 64,40.5 L59,40.5 L59,35.5 L64,35.5 C65.380625,35.5 66.5,34.380625 66.5,33 L66.5,28 L71.5,28 L71.5,33 C71.5,34.380625 72.619375,35.5 74,35.5 L79,35.5 L79,40.5 Z" id="Shape" fill="#F7C613"></path>
                <path d="M143.993744,119.025 L142.952199,104.065 C142.868813,102.700625 141.704515,101.662813 140.351127,101.746562 C140.335317,101.7475 140.319508,101.74875 140.303699,101.75 L127.944033,102.625 L118.852834,103.265 L118.852834,32.5 L131.252178,32.5 C132.621686,32.5 133.732047,31.380625 133.732047,30 L133.732047,20 C133.732047,14.4771875 129.290912,10 123.812572,10 L29.5775592,10 C24.0992191,10 19.6580842,14.4771875 19.6580842,20 L19.6580842,110.285 L14.1428561,110.6775 C13.6992695,110.719375 13.2761419,110.884687 12.9202808,111.155 L12.8954821,111.12 L1.05906851,119.4775 C-0.0633820845,120.26875 -0.337097598,121.8275 0.447780862,122.959063 C0.681198509,123.295625 0.993351988,123.569063 1.35665276,123.755 L14.2519703,130.3625 L14.2693294,130.33 C14.6096913,130.518125 14.9897312,130.621875 15.3778307,130.6325 L15.5514215,130.6325 L19.6580842,130.3325 L19.6580842,137.5 C19.6580842,138.880625 20.7684454,140 22.1379529,140 L116.372966,140 C117.742473,140 118.852834,138.880625 118.852834,137.5 L118.852834,123.3125 L119.395926,123.2725 L119.430644,123.2725 L129.3278,122.57 L141.694905,121.695 C143.061003,121.5975 144.090149,120.402187 143.993744,119.025 Z M118.852834,20 C118.852834,17.2384375 121.073247,15 123.812572,15 C126.551897,15 128.772309,17.2384375 128.772309,20 L128.772309,27.5 L118.852834,27.5 L118.852834,20 Z M7.27857934,121.1875 L12.1515214,117.75 L12.5805387,123.905 L7.27857934,121.1875 Z M24.6178217,20 C24.6178217,17.2384375 26.8382342,15 29.5775592,15 L115.271904,15 C114.379461,16.5134375 113.903326,18.239375 113.893097,20 L113.893097,103.6175 L24.6178217,109.935 L24.6178217,20 Z M113.893097,135 L24.6178217,135 L24.6178217,129.9825 L113.893097,123.6625 L113.893097,135 Z M17.6593099,125.4725 L16.9649467,115.5 L115.91171,108.5 L116.606073,118.4725 L17.6593099,125.4725 Z M121.558371,118.1075 L120.864008,108.135 L121.037599,108.135 L125.811346,107.7975 L126.505709,117.77 L121.558371,118.1075 Z M131.450568,117.4075 L130.756204,107.435 L138.178451,106.91 L138.875295,116.8825 L131.450568,117.4075 Z" id="Shape" fill-opacity="0.8" fill="#2F2F2F"></path>
                <rect id="Rectangle" fill-opacity="0.8" fill="#2F2F2F" x="38" y="58" width="4" height="4"></rect>
                <rect id="Rectangle" fill-opacity="0.8" fill="#2F2F2F" x="49" y="58" width="60" height="4"></rect>
                <rect id="Rectangle" fill-opacity="0.8" fill="#2F2F2F" x="31" y="68" width="76" height="4"></rect>
                <rect id="Rectangle" fill-opacity="0.8" fill="#2F2F2F" x="33" y="77" width="65" height="4"></rect>
                <rect id="Rectangle" fill-opacity="0.8" fill="#2F2F2F" x="33" y="93" width="18" height="4"></rect>
                <rect id="Rectangle" fill-opacity="0.8" fill="#2F2F2F" x="79" y="93" width="18" height="4"></rect>
                <rect id="Rectangle" fill-opacity="0.8" fill="#2F2F2F" x="54" y="93" width="4" height="4"></rect>
                <rect id="Rectangle" fill-opacity="0.8" fill="#2F2F2F" x="102" y="93" width="4" height="4"></rect>
                <path d="M125.066667,131 L125.066667,138.714286 C125.066667,141.55475 122.858075,143.857143 120.133333,143.857143 L93,143.857143 L93,149 L120.133333,149 C125.582508,149 130,144.394893 130,138.714286 L130,131 L125.066667,131 Z" id="Path" fill-opacity="0.8" fill="#2F2F2F"></path>
                <rect id="Rectangle" fill-opacity="0.8" fill="#2F2F2F" x="82" y="145" width="4" height="4"></rect>
                <path d="M27.6666667,0 C17.9149821,0.0127272727 10.012619,7.98286364 10,17.8181818 L10,28 L15.047619,28 L15.047619,17.8181818 C15.0558214,10.7927273 20.7009524,5.09918182 27.6666667,5.09090909 L63,5.09090909 L63,0 L27.6666667,0 Z" id="Path" fill-opacity="0.8" fill="#2F2F2F"></path>
                <rect id="Rectangle" fill-opacity="0.8" fill="#2F2F2F" x="66" y="0" width="4" height="4"></rect>
            </g>
        </g>
    </g>
</svg>