<svg width="28" height="28" viewBox="0 0 28 28" fill="none" xmlns="http://www.w3.org/2000/svg">
<circle cx="14" cy="14" r="13.5" stroke="white"/>
<path d="M13.9355 9.9873C13.54 9.9873 13.1533 10.1046 12.8244 10.3244C12.4955 10.5441 12.2392 10.8565 12.0878 11.2219C11.9364 11.5874 11.8968 11.9895 11.974 12.3775C12.0511 12.7654 12.2416 13.1218 12.5213 13.4015C12.801 13.6812 13.1574 13.8717 13.5454 13.9489C13.9333 14.026 14.3355 13.9864 14.7009 13.8351C15.0664 13.6837 15.3787 13.4273 15.5985 13.0984C15.8182 12.7695 15.9355 12.3829 15.9355 11.9873C15.9349 11.4571 15.724 10.9487 15.3491 10.5738C14.9742 10.1988 14.4658 9.98791 13.9355 9.9873V9.9873ZM13.9355 12.9873C13.7378 12.9873 13.5444 12.9287 13.38 12.8188C13.2155 12.7089 13.0874 12.5527 13.0117 12.37C12.936 12.1873 12.9162 11.9862 12.9548 11.7922C12.9933 11.5982 13.0886 11.4201 13.2284 11.2802C13.3683 11.1403 13.5465 11.0451 13.7405 11.0065C13.9344 10.9679 14.1355 10.9877 14.3182 11.0634C14.501 11.1391 14.6571 11.2673 14.767 11.4317C14.8769 11.5962 14.9355 11.7895 14.9355 11.9873C14.9352 12.2524 14.8298 12.5066 14.6423 12.6941C14.4548 12.8815 14.2007 12.987 13.9355 12.9873V12.9873Z" fill="white"/>
<path d="M17.7778 8.14122C16.8275 7.19123 15.5591 6.6269 14.2172 6.55714C12.8754 6.48738 11.5553 6.91714 10.5117 7.76347C9.46806 8.60981 8.77494 9.81272 8.56608 11.14C8.35722 12.4674 8.64743 13.825 9.3807 14.9509L13.159 20.7513C13.2431 20.8804 13.3581 20.9865 13.4935 21.0599C13.6289 21.1333 13.7805 21.1717 13.9346 21.1717C14.0886 21.1717 14.2402 21.1333 14.3757 21.0599C14.5111 20.9865 14.6261 20.8804 14.7101 20.7513L18.4886 14.9509C19.169 13.9065 19.4697 12.6599 19.3403 11.4201C19.2108 10.1803 18.6592 9.02265 17.7778 8.14122V8.14122ZM17.6507 14.4051L13.9346 20.1098L10.2184 14.4051C9.08095 12.6589 9.32492 10.322 10.7985 8.84831C11.2104 8.43647 11.6993 8.10978 12.2374 7.88689C12.7755 7.664 13.3522 7.54928 13.9346 7.54928C14.517 7.54928 15.0937 7.664 15.6318 7.88689C16.1699 8.10978 16.6588 8.43647 17.0707 8.84831C18.5443 10.322 18.7882 12.6589 17.6507 14.4051Z" fill="white"/>
</svg>
