<svg width="28" height="28" viewBox="0 0 28 28" fill="none" xmlns="http://www.w3.org/2000/svg">
<circle cx="14" cy="14" r="13.5" stroke="white"/>
<path d="M18.3236 21.7508C18.1741 21.7504 18.0251 21.734 17.8791 21.7019C15.0998 21.127 12.5394 19.7789 10.4925 17.813C8.4892 15.8427 7.09983 13.3341 6.49246 10.5908C6.42084 10.2489 6.43842 9.89428 6.5435 9.56113C6.64858 9.22798 6.83763 8.92748 7.09246 8.68855L8.87023 6.97743C8.96104 6.89156 9.06893 6.8258 9.18686 6.78445C9.3048 6.74309 9.43013 6.72707 9.55468 6.73743C9.68382 6.75091 9.80844 6.79251 9.91978 6.85931C10.0311 6.92611 10.1265 7.01649 10.1991 7.1241L12.4213 10.4085C12.5047 10.536 12.5449 10.6868 12.5361 10.8388C12.5273 10.9908 12.4699 11.136 12.3725 11.253L11.2569 12.5863C11.7012 13.5696 12.3304 14.4584 13.1102 15.2041C13.885 15.9769 14.8008 16.594 15.808 17.0219L17.1902 15.9241C17.3063 15.8324 17.4476 15.7781 17.5953 15.7686C17.7429 15.7591 17.89 15.7947 18.0169 15.8708L21.3725 18.0397C21.4876 18.1084 21.5857 18.2023 21.6594 18.3144C21.7331 18.4264 21.7805 18.5537 21.798 18.6867C21.8156 18.8196 21.8028 18.9548 21.7606 19.0822C21.7185 19.2095 21.6481 19.3256 21.5547 19.4219L19.8213 21.1374C19.6245 21.3334 19.3908 21.4884 19.1337 21.5937C18.8767 21.6989 18.6013 21.7523 18.3236 21.7508V21.7508ZM9.48357 7.61743L7.70579 9.32855C7.56243 9.46212 7.45632 9.63071 7.39787 9.81774C7.33943 10.0048 7.33067 10.2038 7.37246 10.3952C7.93722 12.9695 9.23544 15.3251 11.1102 17.1774C13.0365 19.027 15.4461 20.2949 18.0613 20.8352C18.2593 20.8766 18.4644 20.8682 18.6584 20.8108C18.8523 20.7534 19.0289 20.6488 19.1725 20.5063L20.9058 18.7908L17.6658 16.6974L16.1813 17.8797C16.1245 17.9246 16.0575 17.955 15.9863 17.9682C15.915 17.9814 15.8416 17.9769 15.7725 17.9552C14.5399 17.5011 13.4229 16.7802 12.5013 15.8441C11.5482 14.954 10.8083 13.8601 10.3369 12.6441C10.317 12.5705 10.3163 12.493 10.335 12.419C10.3537 12.3451 10.3911 12.2772 10.4436 12.2219L11.6436 10.7863L9.48357 7.61743Z" fill="white"/>
</svg>
