<?xml version="1.0" standalone="no"?>
<!DOCTYPE svg PUBLIC "-//W3C//DTD SVG 1.1//EN" "http://www.w3.org/Graphics/SVG/1.1/DTD/svg11.dtd" >
<svg xmlns="http://www.w3.org/2000/svg" xmlns:xlink="http://www.w3.org/1999/xlink" version="1.1">
<metadata>
Created by FontForge 20190801 at Sat Jan  9 01:33:18 2016
 By Jimmy Wärting
Copyright (c) 2005-2009, Joshua Darden &#38; Phil's Fonts, Inc. All rights reserved. Published by Garagefonts USA 301-879-9222 www.garagefonts.com
</metadata>
<defs>
<font id="FreightDispProMedium-Italic" horiz-adv-x="448" >
  <font-face 
    font-family="FreightDispProMedium-Italic"
    font-weight="400"
    font-style="italic"
    font-stretch="normal"
    units-per-em="1000"
    panose-1="2 0 6 3 8 0 0 9 0 4"
    ascent="800"
    descent="-200"
    x-height="444"
    cap-height="625"
    bbox="-235 -270 1299 977"
    underline-thickness="20"
    underline-position="-186"
    slope="-12"
    unicode-range="U+0020-FB04"
  />
<missing-glyph horiz-adv-x="500" 
 />
    <glyph glyph-name="ff" unicode="ff" horiz-adv-x="488" 
d="M426 596c5.33301 8 11.999 15.999 19.999 23.999c33.333 33.333 72.666 50 117.999 50c25.333 0 45.5 -5.66699 60.5 -17s22.5 -26.333 22.5 -45c0 -13.333 -5.16699 -25.166 -15.5 -35.499s-22.166 -15.5 -35.499 -15.5c-20.667 0 -34.5 8.83301 -41.5 26.5
s-4.16699 36.167 8.5 55.5c-19.333 3.33301 -33 5 -41 5c-19.333 -4 -35.833 -24.167 -49.5 -60.5s-26.834 -86.5 -39.501 -150.5h106l-10 -39h-104l-52 -236c-17.333 -76.667 -34 -137.5 -50 -182.5s-36 -79.833 -60 -104.5c-27.333 -27.333 -61.666 -41 -102.999 -41
c-21.333 0 -39 5.5 -53 16.5s-21 25.167 -21 42.5c0 12.667 4.5 24.167 13.5 34.5s20.5 15.5 34.5 15.5c18 0 31.667 -8.5 41 -25.5s9.66602 -35.167 0.999023 -54.5c16 1.33301 27 2 33 2c15.333 4 28.833 24.333 40.5 61s27.834 105.667 48.501 207l48 265h-150l-57 -266
c-32 -144 -71.333 -239.667 -118 -287c-26.667 -27.333 -61 -41 -103 -41c-22 0 -40.5 5.5 -55.5 16.5s-22.5 25.167 -22.5 42.5c0 12.667 4.66699 24.167 14 34.5s21 15.5 35 15.5c18 0 32 -8.5 42 -25.5s11 -35.167 3 -54.5c18 1.33301 30 2 36 2
c15.333 4 29.5 25.333 42.5 64s29.5 106.667 49.5 204l56 294l-84 2l11 33l83 7c16.667 68.667 45.667 123.667 87 165c34.667 33.333 76.334 50 125.001 50c23.333 0 42.5 -5 57.5 -15s24.5 -23 28.5 -39zM388.999 530.999l-7.00098 -0.000976562
c-20.667 0 -34.667 8.83301 -42 26.5s-4.33301 34.834 9 51.501c-17.333 9.33301 -33 14 -47 14c-23.333 -4 -42.5 -21.667 -57.5 -53s-28.5 -77 -40.5 -137l153 1c8.66699 34.667 19.334 67 32.001 97z" />
    <glyph glyph-name="fi" unicode="fi" horiz-adv-x="467" 
d="M-82 -200c-22 0 -40.499 5.49805 -55.499 16.498s-22.5 25.167 -22.5 42.5c0 12.667 4.66699 24.167 14 34.5s21 15.5 35 15.5c18 0 32 -8.5 42 -25.5s11 -35.167 3 -54.5c18 1.33301 30 2 36 2c15.333 4 29.5 25.333 42.5 64s29.5 106.667 49.5 204l56 294l-84 2l11 33
l83 7c16.667 76 46 135 88 177c40 40 89 60 147 60c28.667 0 51.834 -7.16699 69.501 -21.5s26.5 -31.833 26.5 -52.5c0 -13.333 -4.5 -24.666 -13.5 -33.999s-20.833 -14 -35.5 -14c-20.667 0 -34.834 9 -42.501 27s-5.16699 35.333 7.5 52c-27.333 9.33301 -48 14 -62 14
c-25.333 -6.66699 -46.666 -26.667 -63.999 -60s-32.333 -83.333 -45 -150h125c14 8.66699 27.333 13 40 13c14 0 28.333 -7 43 -21s21.667 -27.667 21 -41c0 -7.33301 -8 -34.166 -24 -80.499s-35 -99.666 -57 -159.999s-34 -93.833 -36 -100.5l52 -8l70 90l8 -7
c-19.333 -40.667 -41 -72.667 -65 -96s-44.333 -35 -61 -35c-10.667 0 -26.834 5 -48.501 15s-32.167 18 -31.5 24c0 4 8.66699 31.333 26 82s37.333 108 60 172s35.667 101 39 111l-3 3h-166l-57 -266c-16.667 -73.333 -33.667 -133.333 -51 -180
s-38.333 -82.334 -63 -107.001c-26.667 -27.333 -62.334 -41 -107.001 -41z" />
    <glyph glyph-name="fl" unicode="fl" horiz-adv-x="478" 
d="M430 652l77.0049 21.001l-177 -631l43 -7l69 90l10 -7c-20 -41.333 -41.333 -73.5 -64 -96.5s-42.334 -34.5 -59.001 -34.5c-10.667 0 -26.334 4.33301 -47.001 13s-30.334 15.334 -29.001 20.001l144 534c-16 4.66699 -25.833 15.167 -29.5 31.5
s0.166016 30.833 11.499 43.5c-26 9.33301 -49 14 -69 14c-25.333 -6.66699 -46 -26.334 -62 -59.001s-30.667 -83 -44 -151h111l-9 -39h-110l-57 -266c-16.667 -73.333 -33.667 -133.333 -51 -180s-38.333 -82.334 -63 -107.001c-26.667 -27.333 -62.334 -41 -107.001 -41
c-22 0 -40.5 5.5 -55.5 16.5s-22.5 25.167 -22.5 42.5c0 12.667 4.66699 24.167 14 34.5s21 15.5 35 15.5c18 0 32 -8.5 42 -25.5s11 -35.167 3 -54.5c18.667 1.33301 31 2 37 2c16 4 30.5 25.5 43.5 64.5s29.167 106.833 48.5 203.5l54 294l-83 2l11 33l83 7
c16.667 76 46 135 88 177c40 40 87.667 60 143 60c28 0 51.667 -6.66699 71 -20z" />
    <glyph glyph-name="ffi" unicode="ffi" horiz-adv-x="700" 
d="M435 596c2.66699 4 7.33105 9.33301 13.998 16c40 40 88.667 60 146 60c28.667 0 52 -7.33301 70 -22s27 -32 27 -52c0 -13.333 -4.5 -24.666 -13.5 -33.999s-21.167 -14 -36.5 -14c-20.667 0 -34.667 9 -42 27s-4.66602 35.333 8.00098 52
c-27.333 9.33301 -48 14 -62 14c-25.333 -6.66699 -46.666 -26.667 -63.999 -60s-32.333 -83.333 -45 -150h125c14 8.66699 27.333 13 40 13c13.333 0 27.5 -7 42.5 -21s22.167 -27.667 21.5 -41c0 -11.333 -39.333 -125 -118 -341l52 -8l70 90l9 -7
c-19.333 -40.667 -41.166 -72.667 -65.499 -96s-44.833 -35 -61.5 -35c-10.667 0 -26.667 5 -48 15s-32 18 -32 24c0 4 8.66699 31.333 26 82s37.333 108 60 172s35.667 101 39 111l-3 3h-165l-52 -236c-32.667 -146.667 -71 -242.334 -115 -287.001
c-27.333 -27.333 -60 -41 -98 -41c-22 0 -40 5.5 -54 16.5s-21 25.167 -21 42.5c0 12.667 4.66699 24.167 14 34.5s21 15.5 35 15.5c18 0 31.667 -8.5 41 -25.5s9.66602 -35.167 0.999023 -54.5c12.667 1.33301 21.667 2 27 2c16 4 30.833 25.833 44.5 65.5
s30.167 107.167 49.5 202.5l49 265h-154l-57 -266c-32 -144 -71.333 -239.667 -118 -287c-26.667 -27.333 -61 -41 -103 -41c-22 0 -40.5 5.5 -55.5 16.5s-22.5 25.167 -22.5 42.5c0 12.667 4.66699 24.167 14 34.5s21 15.5 35 15.5c18 0 32 -8.5 42 -25.5
s11 -35.167 3 -54.5c18 1.33301 30 2 36 2c15.333 4 29.5 25.333 42.5 64s29.5 106.667 49.5 204l56 294l-84 2l11 33l83 7c15.333 69.333 44.666 125.666 87.999 168.999c34.667 34.667 77.334 52 128.001 52c25.333 0 45.833 -5.66699 61.5 -17s25.5 -25.666 29.5 -42.999
zM394.997 536c-3.33301 -0.666992 -6.00098 -1.00098 -8.00098 -1.00098c-20.667 0 -34.667 8.83301 -42 26.5s-4.33301 34.834 9 51.501c-20 9.33301 -37 14 -51 14c-44 -11.333 -77 -76 -99 -194l156 1c8.66699 38 20.334 72 35.001 102z" />
    <glyph glyph-name="ffl" unicode="ffl" horiz-adv-x="711" 
d="M662 651l78.002 22.002l-177 -631l43 -7l69 90l9 -7c-20 -41.333 -41.167 -73.5 -63.5 -96.5s-41.833 -34.5 -58.5 -34.5c-6.66699 0 -16.334 2 -29.001 6s-24 8.66699 -34 14s-14.667 9.66602 -14 12.999l144 534c-15.333 4.66699 -25 15 -29 31s-0.333008 30.667 11 44
c-25.333 9.33301 -48.333 14 -69 14c-24.667 -6.66699 -45.167 -26.5 -61.5 -59.5s-30.833 -83.167 -43.5 -150.5h111l-10 -39h-109l-52 -236c-32.667 -146.667 -71 -242.334 -115 -287.001c-27.333 -27.333 -60 -41 -98 -41c-22 0 -40 5.5 -54 16.5s-21 25.167 -21 42.5
c0 12.667 4.66699 24.167 14 34.5s21 15.5 35 15.5c18 0 31.667 -8.5 41 -25.5s9.66602 -35.167 0.999023 -54.5c12.667 1.33301 21.667 2 27 2c16 4 30.833 25.833 44.5 65.5s30.167 107.167 49.5 202.5l49 265h-154l-57 -266c-32 -144 -71.333 -239.667 -118 -287
c-26.667 -27.333 -61 -41 -103 -41c-22 0 -40.5 5.5 -55.5 16.5s-22.5 25.167 -22.5 42.5c0 12.667 4.66699 24.167 14 34.5s21 15.5 35 15.5c18 0 32 -8.5 42 -25.5s11 -35.167 3 -54.5c18 1.33301 30 2 36 2c15.333 4 29.5 25.333 42.5 64s29.5 106.667 49.5 204l56 294
l-84 2l11 33l83 7c15.333 69.333 44.666 125.666 87.999 168.999c34.667 34.667 77.334 52 128.001 52c25.333 0 45.833 -5.66699 61.5 -17s25.5 -25.666 29.5 -42.999c2.66699 4 7.33398 9.33301 14.001 16c40 40 87.667 60 143 60c29.333 0 52.666 -7 69.999 -21z
M395.002 536.002c-3.33301 -0.666992 -6.00098 -1.00098 -8.00098 -1.00098c-20.667 0 -34.667 8.83301 -42 26.5s-4.33301 34.834 9 51.501c-20 9.33301 -37 14 -51 14c-44 -11.333 -77 -76 -99 -194l156 1c8.66699 38 20.334 72 35.001 102z" />
    <glyph glyph-name=".notdef" horiz-adv-x="500" 
 />
    <glyph glyph-name="space" unicode=" " horiz-adv-x="180" 
 />
    <glyph glyph-name="exclam" unicode="!" horiz-adv-x="260" 
d="M129 189c0 -1.33301 -1 -2.33203 -3 -2.99902s-3.83301 -0.5 -5.5 0.5s-2.5 2.16699 -2.5 3.5l32 406c2 14.667 6.66699 26 14 34s21 11 41 9h3c38 -2.66699 52 -20.334 42 -53.001zM100 -13.999c-17.333 0 -31.834 5.83301 -43.501 17.5s-17.5 25.5 -17.5 41.5
c0 15.333 5.83301 28.666 17.5 39.999s25.834 17 42.501 17s30.667 -5.66699 42 -17s17 -24.666 17 -39.999c0 -16 -5.5 -29.833 -16.5 -41.5s-24.833 -17.5 -41.5 -17.5z" />
    <glyph glyph-name="quotedbl" unicode="&#x22;" horiz-adv-x="334" 
d="M202 403l141 243h1l61 -27l-184 -216h-19zM39 403l141 243h2l61 -27l-185 -216h-19z" />
    <glyph glyph-name="numbersign" unicode="#" horiz-adv-x="516" 
d="M88 -5l51 194h-136v17h141l55 211h-136v17h141l52 198h20l-53 -198h165l53 198h19l-52 -198h135v-17h-140l-55 -211h135v-17h-140l-51 -194h-19l51 194h-165l-52 -194h-19zM163 206h165l56 211h-165z" />
    <glyph glyph-name="dollar" unicode="$" horiz-adv-x="499" 
d="M105 -3c-43.333 8.66699 -80 21.335 -110 38.002l23 155h16l18 -82c12.667 -36 34.334 -63 65.001 -81l110 264h-1c-46.667 26 -82.167 52.667 -106.5 80s-36.5 60 -36.5 98c0 44.667 19.167 84 57.5 118s86.166 51 143.499 51c30.667 0 58.334 -3 83.001 -9l45 110h20
c-31.333 -76 -47 -114.333 -47 -115c9.33301 -2.66699 27.333 -8.33398 54 -17.001l42 10l-31 -169l-15 1l-31 124c-7.33301 6.66699 -18 14 -32 22l-23 -56l-46 -112l-23 -56l6 -3c49.333 -27.333 86.833 -55.333 112.5 -84s38.5 -62.334 38.5 -101.001
c0 -52 -22 -97.667 -66 -137s-100 -59 -168 -59c-28.667 0 -55.334 2 -80.001 6l-65 -158h-20zM134 19.001c21.333 -8 44.333 -12 69 -12c42 0 76.667 13.5 104 40.5s41.333 60.167 42 99.5c0 48.667 -35.333 93.667 -106 135zM356 603.001c-22 10 -45.332 15 -69.999 15
c-32.667 0 -60.834 -10.167 -84.501 -30.5s-35.5 -46.5 -35.5 -78.5c0 -47.333 32.667 -90 98 -128z" />
    <glyph glyph-name="percent" unicode="%" horiz-adv-x="608" 
d="M199 364c-39.333 0 -71.5 12.667 -96.5 38s-37.5 57 -37.5 95c0 40 13.333 74.167 40 102.5s60.667 42.5 102 42.5c40 0 72.5 -12.833 97.5 -38.5s37.5 -57.5 37.5 -95.5c0 -40 -13.333 -74 -40 -102s-61 -42 -103 -42zM11 -14l598 654h26l-597 -654h-27zM441 -16
c-39.333 0 -71.333 12.5 -96 37.5s-37 56.5 -37 94.5c0 40.667 13.333 75.167 40 103.5s60.667 42.5 102 42.5c39.333 0 71.5 -12.833 96.5 -38.5s37.5 -57.5 37.5 -95.5c0 -40 -13.333 -74 -40 -102s-61 -42 -103 -42zM200 384c34.667 0 63 11.667 85 35s33 52 33 86
c0 33.333 -10.333 61.166 -31 83.499s-47.667 33.5 -81 33.5c-34.667 0 -63 -12.167 -85 -36.5s-33 -53.5 -33 -87.5c0 -33.333 10.333 -60.666 31 -81.999s47.667 -32 81 -32zM443 4c34.667 0 63 11.8311 85 35.498s33 52.834 33 87.501c0 32.667 -10.5 60 -31.5 82
s-47.833 33 -80.5 33c-34.667 0 -63 -12.167 -85 -36.5s-33 -53.5 -33 -87.5c0 -33.333 10.333 -60.666 31 -81.999s47.667 -32 81 -32z" />
    <glyph glyph-name="ampersand" unicode="&#x26;" horiz-adv-x="720" 
d="M619 373c26.667 -9.33301 47.5029 -25.6689 62.5029 -49.002s22.5 -51 22.5 -83c0 -69.333 -35.167 -129.166 -105.5 -179.499s-154.833 -75.5 -253.5 -75.5c-93.333 0 -170.666 23.167 -231.999 69.5s-92 104.833 -92 175.5c0 46 14.667 87.667 44 125
s67.666 64.333 114.999 81c-4 12.667 -6 26 -6 40c0 43.333 16.167 81.333 48.5 114s70.833 48.667 115.5 48c38.667 0 70 -17.167 94 -51.5s33 -73.833 27 -118.5l-16 3c2 30 -5.16699 56.5 -21.5 79.5s-39.5 34.5 -69.5 34.5c-26 0 -48 -11.167 -66 -33.5
s-27 -49.833 -27 -82.5c0 -8 0.333008 -13.667 1 -17h16c35.333 0 64.333 -7.83301 87 -23.5s34 -35.167 34 -58.5c0 -16 -6.66699 -29.167 -20 -39.5s-31 -15.5 -53 -15.5c-29.333 0 -56.833 9.83301 -82.5 29.5s-44.167 44.5 -55.5 74.5c-58 -24.667 -87 -69.667 -87 -135
c0 -74.667 28.833 -132.167 86.5 -172.5s139.834 -60.5 246.501 -60.5c75.333 0 136.666 17.833 183.999 53.5s71 81.167 71 136.5c0 30.667 -9.83301 57.834 -29.5 81.501s-42.167 35.5 -67.5 35.5c-26 0 -51.5 -9.5 -76.5 -28.5s-37.5 -38.167 -37.5 -57.5
c0 -16 7.16699 -28.833 21.5 -38.5s33.166 -15.167 56.499 -16.5c-9.33301 3.33301 -15 10.833 -17 22.5s0.666992 22.5 8 32.5s18 15 32 15c12 0 22 -3.83301 30 -11.5s12 -17.167 12 -28.5c0 -14 -5 -26 -15 -36s-23.333 -15 -40 -15c-32.667 0 -60.167 11 -82.5 33
s-33.5 50.667 -33.5 86c0 26 9.5 48 28.5 66s42.167 31.833 69.5 41.5s54.666 19 81.999 28s50.5 21.167 69.5 36.5s28.5 34 28.5 56c0 20.667 -7 36.834 -21 48.501s-33.333 18.167 -58 19.5c8 -4.66699 13 -13 15 -25s-0.333008 -23.5 -7 -34.5s-17.667 -16.5 -33 -16.5
c-13.333 0 -24 4.16699 -32 12.5s-12 19.166 -12 32.499c0 14 6.33301 26.333 19 37s26.667 16 42 16c33.333 0 61.333 -13 84 -39s34 -58.333 34 -97c0 -30 -9.83301 -54 -29.5 -72s-55.834 -35.667 -108.501 -53zM264.003 436.997
c6.66699 -22 18.1689 -40.332 34.502 -54.999s34.166 -22 53.499 -22c5.33301 0 10.166 2 14.499 6s6.5 8.66699 6.5 14c0 15.333 -9.5 28.666 -28.5 39.999s-41.833 17 -68.5 17h-12z" />
    <glyph glyph-name="quotesingle" unicode="'" horiz-adv-x="173" 
d="M39 403l141 243h2l61 -27l-185 -216h-19z" />
    <glyph glyph-name="parenleft" unicode="(" horiz-adv-x="340" 
d="M265 -264c-26.667 17.333 -52.3359 40.501 -77.0029 69.501s-47.667 63.5 -69 103.5s-36.333 86.833 -45 140.5s-8.66699 108.834 0 165.501s25.334 110.167 50.001 160.5s53.167 93.166 85.5 128.499s64.833 65 97.5 89s64.334 42.333 95.001 55l12 -18
c-30 -12.667 -60.833 -30.834 -92.5 -54.501s-63 -52.667 -94 -87s-58.167 -75.5 -81.5 -123.5s-39 -98.667 -47 -152c-8 -54 -8 -106.667 0 -158s21.833 -96.333 41.5 -135s41.334 -72 65.001 -100s48.167 -50.333 73.5 -67z" />
    <glyph glyph-name="parenright" unicode=")" horiz-adv-x="340" 
d="M-58 -264l-10.9971 17.999c30 12.667 60.667 30.834 92 54.501s62.5 52.5 93.5 86.5s58.167 75.167 81.5 123.5s39 99.166 47 152.499c7.33301 57.333 7.5 110 0.5 158s-20.667 92.333 -41 133s-42.166 74.834 -65.499 102.501s-47.666 49.834 -72.999 66.501l13 17
c59.333 -38.667 110.166 -101 152.499 -187s55.5 -183 39.5 -291c-8.66699 -56.667 -25.334 -110.334 -50.001 -161.001s-53.334 -93.667 -86.001 -129s-65.334 -65 -98.001 -89s-64.334 -42.333 -95.001 -55z" />
    <glyph glyph-name="asterisk" unicode="*" horiz-adv-x="317" 
d="M241 310l-47.999 45l11 108c0 0.666992 -1.33301 1.66699 -4 3s-4.33398 1.66602 -5.00098 0.999023l-65 -84h-66l-3 8l28 60l103 21c1.33301 0 2 1.33301 2 4s-0.666992 4.66699 -2 6l-98 39l-21 62l5 8l67 -10l51 -95c0 -0.666992 0.666992 -1 2 -1
s2.83301 0.333008 4.5 1s2.5 1.33398 2.5 2.00098l9 110l51 35l8 -2l13 -63l-76 -82c-0.666992 -1.33301 -0.166992 -3.16602 1.5 -5.49902s3.16699 -3.5 4.5 -3.5l106 30l50 -41c0.666992 -4.66699 0.666992 -7.33398 0 -8.00098l-56 -32l-100 46
c-1.33301 0.666992 -3 0 -5 -2s-2.66699 -3.66699 -2 -5l61 -93l-22 -60z" />
    <glyph glyph-name="plus" unicode="+" 
d="M217 27v198h-198l3 22h195v198h22v-198h195l3 -22h-198v-198h-22z" />
    <glyph glyph-name="comma" unicode="," horiz-adv-x="194" 
d="M-32 -125l-7.99902 8c29.333 11.333 55 27.833 77 49.5s33 44.167 33 67.5c0 21.333 -8.5 36.833 -25.5 46.5s-32.167 10.5 -45.5 2.5c-4 16 -0.333008 31.333 11 46s27.666 22 48.999 22s39.333 -7.66699 54 -23s22 -34.333 22 -57c0 -34.667 -17 -67 -51 -97
s-72.667 -51.667 -116 -65z" />
    <glyph glyph-name="hyphen" unicode="-" horiz-adv-x="294" 
d="M23 212l10 44h244l-7 -44h-247z" />
    <glyph glyph-name="period" unicode="." horiz-adv-x="209" 
d="M74 -13c-17.333 0 -32 6.16797 -44 18.501s-18 26.833 -18 43.5c0 16 5.83301 30 17.5 42s26.167 18 43.5 18c18 0 32.833 -5.83301 44.5 -17.5s17.5 -25.834 17.5 -42.501s-5.83301 -31.167 -17.5 -43.5s-26.167 -18.5 -43.5 -18.5z" />
    <glyph glyph-name="slash" unicode="/" horiz-adv-x="258" 
d="M13 -236l212 877h21l-211 -877h-22z" />
    <glyph glyph-name="zero" unicode="0" horiz-adv-x="518" 
d="M237 -13c-60 0 -108.333 20.167 -145 60.5s-55 92.833 -55 157.5c0 76.667 24.5 142.167 73.5 196.5s107.5 81.5 175.5 81.5c60 0 108.333 -20.167 145 -60.5s55 -92.833 55 -157.5c0 -77.333 -24.5 -143 -73.5 -197s-107.5 -81 -175.5 -81zM229 3
c47.333 0 87.668 31.168 121.001 93.501s50 136.166 50 221.499c0 46 -9.83301 82.167 -29.5 108.5s-45.834 39.5 -78.501 39.5c-48 0 -88.167 -31.333 -120.5 -94s-48.5 -138.667 -48.5 -228c0 -46 9.16699 -81 27.5 -105s44.5 -36 78.5 -36z" />
    <glyph glyph-name="one" unicode="1" horiz-adv-x="350" 
d="M16 0l2.99805 15.001l47 4c25.333 0.666992 39 6.66699 41 18l73 390l-102 16l4 13l189 22l-84 -443c-0.666992 -2.66699 -0.166992 -5 1.5 -7s5.83398 -3.83301 12.501 -5.5s16.334 -2.83398 29.001 -3.50098l42 -4l2 -15h-258z" />
    <glyph glyph-name="two" unicode="2" horiz-adv-x="446" 
d="M-14 0l0.000976562 24c127.333 90 211 153.667 251 191s60 74 60 110c0 32.667 -9.5 57.834 -28.5 75.501s-43.833 26.5 -74.5 26.5c-44.667 0 -86 -22.667 -124 -68l-6 11c52.667 74.667 115.334 112 188.001 112c37.333 0 68.833 -11.167 94.5 -33.5
s38.5 -50.166 38.5 -83.499c0 -12.667 -2 -25.167 -6 -37.5s-8.5 -23.5 -13.5 -33.5s-13.833 -21.333 -26.5 -34s-23.667 -23.167 -33 -31.5s-24.333 -19.833 -45 -34.5s-37.334 -26.334 -50.001 -35.001s-33.334 -22.334 -62.001 -41.001s-51 -33.667 -67 -45v-3h174
c32 0 58 7.33301 78 22s41.333 40.667 64 78l11 18h16l-76 -188h-363z" />
    <glyph glyph-name="three" unicode="3" horiz-adv-x="405" 
d="M93 -200c-41.333 0 -76.333 5.99707 -105 17.9971s-43 31 -43 57c0 13.333 4.83301 24.833 14.5 34.5s21.834 14.5 36.501 14.5c18.667 0 34.334 -9.16699 47.001 -27.5s13.667 -38.166 3 -59.499c20 -11.333 40.667 -17 62 -17c41.333 0 76.666 17 105.999 51
s44 74 44 120c0 41.333 -12.833 74.666 -38.5 99.999s-61.167 38 -106.5 38c-20.667 0 -40.667 -2.66699 -60 -8l-5 12c80 35.333 137.667 66.5 173 93.5s53 61.167 53 102.5c0 28 -9 51.5 -27 70.5s-42 28.5 -72 28.5c-24 0 -47.833 -7.16699 -71.5 -21.5
s-43.834 -32.833 -60.501 -55.5l-7 11c22 34.667 50.167 63.334 84.5 86.001s71.166 34 110.499 34c37.333 0 69 -11.667 95 -35s39 -52 39 -86c0 -76 -62.333 -136.667 -187 -182v-2c2 0.666992 5.66699 1 11 1c46.667 -3.33301 83.834 -20.166 111.501 -50.499
s41.5 -66.166 41.5 -107.499c0 -56.667 -25.5 -107.5 -76.5 -152.5s-108.5 -67.5 -172.5 -67.5z" />
    <glyph glyph-name="four" unicode="4" horiz-adv-x="476" 
d="M199 -184l37 203h-264v14l403 445h26l-75 -400h111l-17 -59h-106l-38 -203h-77zM41 78h207l55 286h-3z" />
    <glyph glyph-name="five" unicode="5" horiz-adv-x="402" 
d="M61 -200c-36.667 4 -65.001 12.833 -85.001 26.5s-29.667 31.5 -29 53.5c1.33301 13.333 7.16602 24.166 17.499 32.499s22.833 11.833 37.5 10.5c18.667 -1.33301 32.667 -11.166 42 -29.499s14.666 -39.5 15.999 -63.5c10.667 -4.66699 23.334 -8 38.001 -10
c36 -3.33301 69 9.16699 99 37.5s47 65.5 51 111.5c4 50.667 -13.667 95 -53 133s-91.666 65.333 -156.999 82l103 284h257l-26 -84h-239l-46 -129c78.667 -19.333 139.167 -50.5 181.5 -93.5s61.5 -93.167 57.5 -150.5c-4.66699 -61.333 -33.167 -113.333 -85.5 -156
s-112.166 -61 -179.499 -55z" />
    <glyph glyph-name="six" unicode="6" horiz-adv-x="493" 
d="M229 -12c-59.333 0 -106.167 21.3301 -140.5 63.9971s-51.5 94.667 -51.5 156c0 50.667 12.167 100.834 36.5 150.501s58.166 94.667 101.499 135s98 73.333 164 99s137.667 39.5 215 41.5l1 -14c-96.667 -11.333 -180.167 -43.166 -250.5 -95.499
s-122.833 -117.166 -157.5 -194.499l5 -1c48.667 43.333 100.334 65 155.001 65c46.667 0 83.667 -14.5 111 -43.5s41 -69.167 41 -120.5c0 -67.333 -23.333 -124.5 -70 -171.5s-100 -70.5 -160 -70.5zM227.999 4.99707c38.667 0 72.166 20.168 100.499 60.501
s42.5 89.5 42.5 147.5c0 43.333 -10 78.666 -30 105.999s-48 41 -84 41c-37.333 0 -74.666 -18 -111.999 -54c-17.333 -44.667 -26 -88.667 -26 -132c0 -112.667 36.333 -169 109 -169z" />
    <glyph glyph-name="seven" unicode="7" horiz-adv-x="430" 
d="M38 -184l360.001 569.001l-1 4h-136c-68.667 0 -113.834 -3.33301 -135.501 -10s-39.167 -24.334 -52.5 -53.001l-14 -25h-16l52 167h363v-17l-359 -635h-61z" />
    <glyph glyph-name="eight" unicode="8" horiz-adv-x="481" 
d="M227 -16c-56 0 -104.166 15.6689 -144.499 47.002s-60.5 70.666 -60.5 117.999c0 44 17 80.667 51 110s77.667 48 131 56v2c-64.667 48.667 -97.334 99 -98.001 151c0 46 18.333 86.333 55 121s82.334 52 137.001 52c50 0 92.5 -14.667 127.5 -44s52.5 -66.333 52.5 -111
c0 -40 -14.5 -72.5 -43.5 -97.5s-67.5 -42.167 -115.5 -51.5v-2c37.333 -28 66.333 -55 87 -81s31 -57 31 -93c0 -50.667 -20.333 -92.834 -61 -126.501s-90.334 -50.5 -149.001 -50.5zM306.001 345.002c62 31.333 92.999 82.334 92.999 153.001
c0 34.667 -8.66699 64.5 -26 89.5s-43 37.5 -77 37.5c-33.333 0 -60 -11.833 -80 -35.5s-30 -52.167 -30 -85.5c0 -20.667 6.5 -41.334 19.5 -62.001s26.833 -37.5 41.5 -50.5s34.334 -28.5 59.001 -46.5zM233 1.00293c37.333 0 67.332 12.001 89.999 36.001
s34.334 53.333 35.001 88c0 22.667 -7.33301 45.5 -22 68.5s-28.667 40.167 -42 51.5s-34.333 28 -63 50c-2 2 -3.66699 3.33301 -5 4s-2.83301 1.66699 -4.5 3s-3.16699 2.66602 -4.5 3.99902c-76.667 -33.333 -115 -89.333 -115 -168c0 -39.333 11.333 -72 34 -98
s55 -39 97 -39z" />
    <glyph glyph-name="nine" unicode="9" horiz-adv-x="493" 
d="M-53 -160l-1 14.0039c96.667 11.333 180.167 43.166 250.5 95.499s122.833 117.166 157.5 194.499h-5c-50 -43.333 -101.667 -65 -155 -65c-46.667 0 -83.667 14.667 -111 44s-41 69.666 -41 120.999c0 67.333 23.333 124.5 70 171.5s100 70.5 160 70.5
c59.333 0 106.166 -21.333 140.499 -64s51.5 -94.667 51.5 -156c0 -50.667 -12.167 -100.834 -36.5 -150.501s-58.166 -94.667 -101.499 -135s-98 -73.333 -164 -99s-137.667 -39.5 -215 -41.5zM244 113.004c35.333 0 72.667 18.333 112 55c17.333 46 26 90 26 132
c0 112 -36.333 168 -109 168c-38.667 0 -72.167 -20 -100.5 -60s-42.5 -89 -42.5 -147c0 -43.333 10 -78.833 30 -106.5s48 -41.5 84 -41.5z" />
    <glyph glyph-name="colon" unicode=":" horiz-adv-x="208" 
d="M132 292c-17.333 0 -32.168 6.16699 -44.501 18.5s-18.5 26.833 -18.5 43.5c0 16 6 29.833 18 41.5s26.667 17.5 44 17.5s31.833 -5.83301 43.5 -17.5s17.5 -25.5 17.5 -41.5c0 -16.667 -5.66699 -31.167 -17 -43.5s-25.666 -18.5 -42.999 -18.5zM73.998 -13
c-17.333 0 -32 6.16699 -44 18.5s-18 26.833 -18 43.5c0 16 5.83301 29.833 17.5 41.5s26.167 17.5 43.5 17.5s32 -5.83301 44 -17.5s18 -25.5 18 -41.5c0 -16.667 -5.83301 -31.167 -17.5 -43.5s-26.167 -18.5 -43.5 -18.5z" />
    <glyph glyph-name="semicolon" unicode=";" horiz-adv-x="194" 
d="M127 292c-18 0 -33.168 6.16699 -45.501 18.5s-18.5 26.5 -18.5 42.5s6 30 18 42s27 18 45 18c17.333 0 31.833 -6 43.5 -18s17.5 -26 17.5 -42c0 -16.667 -5.66699 -31 -17 -43s-25.666 -18 -42.999 -18zM-32.001 -125l-7.99902 9.00195
c30 11.333 55.833 27.666 77.5 48.999s32.5 43.666 32.5 66.999c0 21.333 -8.5 36.833 -25.5 46.5s-32.167 10.5 -45.5 2.5c-4 15.333 -0.333008 30.333 11 45s27.666 22 48.999 22s39.333 -7.5 54 -22.5s22 -33.833 22 -56.5c0 -34 -16.833 -66 -50.5 -96
s-72.5 -52 -116.5 -66z" />
    <glyph glyph-name="less" unicode="&#x3c;" horiz-adv-x="438" 
d="M414 35l-397 193v14l397 193l8 -20l-368 -177v-4l368 -179z" />
    <glyph glyph-name="equal" unicode="=" 
d="M33 311l-3 22h396l-3 -22h-390zM30 138l3 22h390l3 -22h-396z" />
    <glyph glyph-name="greater" unicode="&#x3e;" horiz-adv-x="438" 
d="M429 228l-397 -193l-8 20l368 179v4l-368 177l8 20l397 -193v-14z" />
    <glyph glyph-name="question" unicode="?" horiz-adv-x="321" 
d="M142 183c-42 39.333 -63.002 75.6689 -63.002 109.002c0 27.333 10 48.666 30 63.999s51.667 29.666 95 42.999c44 12.667 73.667 23.5 89 32.5s23 22.833 23 41.5c0 23.333 -14.167 44 -42.5 62s-68.166 27 -119.499 27c-14 0 -29.667 -1.33301 -47 -4
c-2.66699 5.33301 -4 13 -4 23c0 17.333 4.33301 31.333 13 42s25.667 16 51 16c51.333 0 92.5 -16.333 123.5 -49s46.5 -71 46.5 -115c0 -40.667 -9.5 -72.167 -28.5 -94.5s-49.833 -40.5 -92.5 -54.5c-26 -8.66699 -44.167 -15 -54.5 -19s-20.166 -10.5 -29.499 -19.5
s-14 -20.167 -14 -33.5c0 -20.667 12.667 -43.667 38 -69zM111.998 -13.9971c-16.667 0 -30.833 5.83301 -42.5 17.5s-17.5 25.5 -17.5 41.5c0 15.333 5.66699 28.666 17 39.999s25.333 17 42 17c17.333 0 31.5 -5.66699 42.5 -17s16.5 -24.666 16.5 -39.999
c0 -16 -5.5 -29.833 -16.5 -41.5s-24.833 -17.5 -41.5 -17.5z" />
    <glyph glyph-name="at" unicode="@" horiz-adv-x="786" 
d="M405 -110c-106 0 -193.334 33.499 -262.001 100.499s-102 153.167 -100 258.5c2 108.667 41.5 201.334 118.5 278.001s168.5 114.667 274.5 114c98 -1.33301 179 -32.333 243 -93s94.667 -137.334 92 -230.001c-1.33301 -74 -25.333 -136.833 -72 -188.5
s-98.334 -77.5 -155.001 -77.5c-38.667 0 -66.167 8 -82.5 24s-23.5 35.333 -21.5 58c0 8 2.33301 22.833 7 44.5s9.33398 37.834 14.001 48.501h-5c-38 -58 -69.833 -101 -95.5 -129s-50.5 -42 -74.5 -42s-44.833 8.66699 -62.5 26s-26.5 38.333 -26.5 63
c0 38.667 14.333 83.334 43 134.001s60.667 92 96 124c43.333 40 82 60 116 60c16 0 29.167 -8.5 39.5 -25.5s16.5 -37.5 18.5 -61.5h4l34 101l69 -3l-62 -159l-37 -133c-20.667 -62 -2 -93 56 -93c45.333 0 85.833 22.167 121.5 66.5s54.167 98.833 55.5 163.5
c2 86.667 -27 158.667 -87 216s-136.333 86.666 -229 87.999c-100 0.666992 -186.5 -35.833 -259.5 -109.5s-110.167 -162.167 -111.5 -265.5c-2.66699 -98.667 28.5 -180 93.5 -244s147.5 -96 247.5 -96c55.333 0 106.833 13.167 154.5 39.5s83.834 59.5 108.501 99.5
l10 -14c-27.333 -42 -65.333 -76.333 -114 -103s-101.667 -40 -159 -40zM322.999 106.999c14.667 0 36.168 17.334 64.501 52.001s55.5 76.667 81.5 126c16.667 30.667 25 51.667 25 63c-2 15.333 -11.5 30.333 -28.5 45s-35.833 22 -56.5 22
c-14.667 0 -28.334 -5.66699 -41.001 -17c-21.333 -19.333 -41.5 -53.333 -60.5 -102s-28.5 -90.334 -28.5 -125.001c0 -20 4.33301 -35.667 13 -47s19 -17 31 -17z" />
    <glyph glyph-name="A" unicode="A" horiz-adv-x="607" 
d="M361 257l-172.001 0.000976562l-52 -100l-1 -2c-30.667 -56.667 -46.334 -91.334 -47.001 -104.001c-0.666992 -14 8.33301 -23.333 27 -28c7.33301 -1.33301 17.333 -2.66602 30 -3.99902l34 -4l2 -15h-223l3 15l22 5c26.667 4 47.667 15 63 33s45 66.667 89 146
l188 360l-4 36c13.333 3.33301 28.333 9.5 45 18.5s27.667 17.5 33 25.5h13l61 -522c4.66699 -38.667 10.834 -64 18.501 -76s21.834 -19 42.501 -21l36 -5l1 -15h-275l3 15l38 4c20.667 1.33301 33.5 8.16602 38.5 20.499s5.83301 32.833 2.5 61.5zM199.999 279.001h159
l-25 253h-4z" />
    <glyph glyph-name="B" unicode="B" horiz-adv-x="580" 
d="M-11 0l2.99902 15.002l43 6c28 4 42.667 10 44 18l105 549c0.666992 4 -1.66602 7.16699 -6.99902 9.5s-18 4.83301 -38 7.5l-33 5l-1 15h242c74.667 0 128.5 -13.5 161.5 -40.5s49.5 -59.833 49.5 -98.5c0 -42.667 -17.833 -76.834 -53.5 -102.501
s-85.167 -41.167 -148.5 -46.5l2 -3c56 -8.66699 99.333 -27.334 130 -56.001s46 -62 46 -100c0 -57.333 -25.667 -101.333 -77 -132s-124 -46 -218 -46h-250zM229.999 19.002l44 -0.00195312c48.667 0.666992 87 17.334 115 50.001s42 71.334 42 116.001
c0 45.333 -15.333 80.833 -46 106.5s-72 38.5 -124 38.5h-32l-57 -294zM299.999 348c50.667 0 89.5 14.167 116.5 42.5s40.5 61.833 40.5 100.5c0 36 -12 64.167 -36 84.5s-58.333 30.5 -103 30.5h-37l-48 -254c12.667 -2.66699 35 -4 67 -4z" />
    <glyph glyph-name="C" unicode="C" horiz-adv-x="663" 
d="M364 -15c-95.333 0 -171.334 26.333 -228.001 79s-85 121 -85 205c0 100 35.667 186.833 107 260.5s160 110.5 266 110.5c66.667 0 122.667 -12.333 168 -37l70 16l-33 -187l-16 1l-31 139c-37.333 32 -87.333 48 -150 48c-83.333 0 -150.666 -36.333 -201.999 -109
s-77 -159 -77 -259c0 -75.333 19 -135.333 57 -180s90.667 -67 158 -67c70 0 132.667 32.333 188 97l38 68l18 -1l-52 -162l-39 1c-46 -15.333 -98.333 -23 -157 -23z" />
    <glyph glyph-name="D" unicode="D" horiz-adv-x="664" 
d="M-11 0l2.99902 14.998l43 6c28 4 42.667 10 44 18l105 549c0.666992 4 -1.66602 7.16699 -6.99902 9.5s-18 4.83301 -38 7.5l-33 5l-1 15l239 1c100.667 0.666992 177.5 -23.166 230.5 -71.499s79.5 -111.166 79.5 -188.499c0 -102 -36.5 -188.5 -109.5 -259.5
s-171.5 -106.5 -295.5 -106.5h-260zM238.999 16.998c97.333 0.666992 173.667 34.332 229 100.999s83 151.334 83 254.001c0 69.333 -18 125.833 -54 169.5s-90.333 65.5 -163 65.5h-53l-108 -568z" />
    <glyph glyph-name="E" unicode="E" horiz-adv-x="588" 
d="M-11 0l2.99512 15.001l40 6c30.667 4 46.334 10 47.001 18l105 549c0.666992 4 -1.66602 7.16699 -6.99902 9.5s-18 4.83301 -38 7.5l-32 5l-2 15h454l1 -192h-19l-6 38c-6 18.667 -10.5 32.334 -13.5 41.001s-8 19.5 -15 32.5s-14.5 22.333 -22.5 28
s-18.667 11.667 -32 18s-29.333 10.666 -48 12.999s-40.667 3.5 -66 3.5h-57l-53 -277l39 1c49.333 1.33301 83.333 6.16602 102 14.499s34.334 25.5 47.001 51.5l15 30l17 -1l-47 -213l-17 1l3 29c4 28 -2.33301 45.833 -19 53.5s-53 12.5 -109 14.5l-34 1l-55 -290l93 -4
c38 0 70.833 3.5 98.5 10.5s50.834 18 69.501 33s33.334 29.167 44.001 42.5s23 32 37 56l19 37l19 -1l-64 -196h-497z" />
    <glyph glyph-name="F" unicode="F" horiz-adv-x="562" 
d="M-11 0l2.99609 15.002l46 6c26 2.66699 39.667 8.66699 41 18l105 549c0.666992 3.33301 0.333984 5.66602 -0.999023 6.99902s-5.16602 3 -11.499 5s-16.166 3.66699 -29.499 5l-35 5l-2 15h463l-4 -192h-19l-7 38c-6.66699 22 -12 38.167 -16 48.5
s-10.833 22.333 -20.5 36s-20.667 23.5 -33 29.5s-29.166 11.167 -50.499 15.5s-47.333 6.5 -78 6.5h-59l-54 -283l42 1c49.333 1.33301 83.5 6 102.5 14s34.5 25 46.5 51l15 30l16 -1l-46 -212l-16 1l2 29c2 28 -5 45.833 -21 53.5s-51.667 12.5 -107 14.5l-37 1l-52 -269
c-0.666992 -3.33301 0 -6 2 -8s6.33301 -3.83301 13 -5.5s16.667 -2.83398 30 -3.50098l49 -5l2 -15h-279z" />
    <glyph glyph-name="G" unicode="G" horiz-adv-x="690" 
d="M349 -15c-92.667 0 -165.498 26.165 -218.498 78.498s-79.5 120.166 -79.5 203.499c0 100 35 187.167 105 261.5s159.333 111.5 268 111.5c65.333 0 121.333 -12.667 168 -38l70 16l-33 -189h-15l-32 142c-36 32 -85.667 48 -149 48
c-54.667 0 -103.834 -17.667 -147.501 -53s-76.667 -80.666 -99 -135.999s-33.5 -114.666 -33.5 -177.999c0 -74.667 18.667 -134.667 56 -180s88.666 -68 153.999 -68c38.667 0 72 7.33301 100 22l42 209c0.666992 4.66699 -2.16602 8.33398 -8.49902 11.001
s-19.833 5 -40.5 7l-42 5l-2 15h271l-4 -15l-39 -6c-28.667 -4 -43.667 -10 -45 -18l-37 -189l54 2v-11c-94.667 -34 -182.334 -51 -263.001 -51z" />
    <glyph glyph-name="H" unicode="H" horiz-adv-x="723" 
d="M-10 0l3.00098 15.0039l42 6c28 3.33301 43 9.33301 45 18l104 549c0.666992 2 0.666992 3.66699 0 5s-2.66699 2.66602 -6 3.99902s-8 2.66602 -14 3.99902s-14.333 2.66602 -25 3.99902l-32 5l-1 15h264l-4 -15l-44 -6c-28 -3.33301 -42.667 -9.33301 -44 -18l-49 -258
h305l50 260c1.33301 4.66699 -0.833984 8 -6.50098 10s-18.5 4.33301 -38.5 7l-35 5l-1 15h264l-4 -15l-41 -6c-28 -3.33301 -42.667 -9.33301 -44 -18l-105 -549c-0.666992 -4.66699 1.5 -7.83398 6.5 -9.50098s17.833 -4.16699 38.5 -7.5l32 -5l1 -15h-264l3 15l45 6
c28 2.66699 42.667 8.66699 44 18l51 270h-306l-51 -272c-1.33301 -4.66699 0.666992 -8 6 -10s18.333 -4.33301 39 -7l35 -5l1 -15h-264z" />
    <glyph glyph-name="I" unicode="I" horiz-adv-x="344" 
d="M-6 0l3.00098 15l49 6c28 2.66699 42.667 8.66699 44 18l105 549c0.666992 2.66699 0 5 -2 7s-6.33301 3.83301 -13 5.5s-16.667 3.16699 -30 4.5l-38 5l-2 15h273l-3 -15l-48 -6c-28 -4 -42.667 -10 -44 -18l-105 -549c-0.666992 -4.66699 1.66602 -8 6.99902 -10
s18 -4.33301 38 -7l38 -5l2 -15h-274z" />
    <glyph glyph-name="J" unicode="J" horiz-adv-x="344" 
d="M-12 -121c-27.333 0 -49 5.66504 -65 16.998s-24 26.333 -24 45c0 16 5.5 29.333 16.5 40s24.833 16 41.5 16c27.333 0 44.833 -11.667 52.5 -35s2.5 -44.666 -15.5 -63.999c25.333 -3.33301 47.833 9.83398 67.5 39.501s35.167 76.167 46.5 139.5l101 511
c0.666992 2.66699 0 5 -2 7s-6.33301 3.83301 -13 5.5s-16.667 3.16699 -30 4.5l-41 5l-2 15h276l-4 -15l-47 -6c-28 -3.33301 -42.667 -9.33301 -44 -18l-104 -525c-7.33301 -44.667 -32.833 -86.167 -76.5 -124.5s-88.167 -57.5 -133.5 -57.5z" />
    <glyph glyph-name="K" unicode="K" horiz-adv-x="662" 
d="M-11 0l2.99805 15l46 6c26 2.66699 39.667 8.66699 41 18l105 549c0.666992 3.33301 0.333984 5.66602 -0.999023 6.99902s-5.16602 3 -11.499 5s-16.166 3.66699 -29.499 5l-35 5l-2 15h272l-4 -15l-52 -6c-27.333 -2.66699 -42 -8.66699 -44 -18l-58 -307l186 158
c88 76 135 123.333 141 142c3.33301 11.333 -4.33398 19.333 -23.001 24c-5.33301 0.666992 -12.333 1.66699 -21 3l-37 4v15h248l-3 -14l-17 -2c-28.667 -2.66699 -56.5 -13.167 -83.5 -31.5s-80.833 -61.833 -161.5 -130.5l-64 -56l133 -301
c13.333 -30.667 23.666 -49.667 30.999 -57s20.333 -12.333 39 -15l29 -3l2 -15h-259l3 15l30 4c18.667 1.33301 29.334 8.33301 32.001 21s-2.33301 35.334 -15 68.001l-97 224l-99 -83l-41 -212c-0.666992 -4.66699 1.83301 -8.16699 7.5 -10.5s18.167 -4.5 37.5 -6.5
l42 -5l2 -15h-272z" />
    <glyph glyph-name="L" unicode="L" horiz-adv-x="557" 
d="M-11 0l2.99609 15l46 6c26 2.66699 39.667 8.66699 41 18l104 549c0.666992 2.66699 0.333984 4.83398 -0.999023 6.50098s-5.16602 3.5 -11.499 5.5s-16.166 3.66699 -29.499 5l-35 5l-2 15h281l-3 -15l-61 -6c-28 -2.66699 -42.667 -8.66699 -44 -18l-107 -564l77 -4
c36.667 0 67.334 2.83301 92.001 8.5s46 15.667 64 30s32.5 29.166 43.5 44.499s24.167 37.333 39.5 66l19 42h20l-64 -209h-472z" />
    <glyph glyph-name="M" unicode="M" horiz-adv-x="812" 
d="M-19 0l3 15.001l30 4c28 2 46.5 8.16699 55.5 18.5s16.833 32.833 23.5 67.5l108 484c-7.33301 9.33301 -22 15 -44 17l-36 4l-2 15h193l75 -495l3 -1l283 496h187l-4 -15l-44 -6c-28 -3.33301 -42.667 -9.33301 -44 -18l-95 -498
c-2.66699 -26.667 -1.66699 -43.834 3 -51.501s17.667 -13.167 39 -16.5l33 -5l1 -15h-268l3 15l46 6c16 1.33301 27.667 6.83301 35 16.5s12.333 27.167 15 52.5l91 483h-3l-325 -567h-27l-88 552c0 1.33301 -2.66699 8.33301 -8 21l-104 -475
c-5.33301 -33.333 -4.5 -55.333 2.5 -66s25.5 -17 55.5 -19l29 -4l2 -15h-224z" />
    <glyph glyph-name="N" unicode="N" horiz-adv-x="673" 
d="M500 -6l-298.002 550.005h-3l-87 -439c-4.66699 -32.667 -3.5 -54.334 3.5 -65.001s24.167 -17.667 51.5 -21l27 -4l1 -15h-214l3 15l28 4c23.333 2.66699 41 10 53 22s20 34 24 66l88 433c-3.33301 17.333 -9.66602 31.666 -18.999 42.999
s-24.666 18.666 -45.999 21.999l-22 5l-2 15h180l256 -482h3l75 377c4.66699 33.333 3.66699 55.166 -3 65.499s-23.667 17.166 -51 20.499l-27 4l-2 15h215l-3 -15l-28 -4c-23.333 -2 -41 -9 -53 -21s-20.333 -34.333 -25 -67l-104 -524h-21z" />
    <glyph glyph-name="O" unicode="O" horiz-adv-x="719" 
d="M357 -14c-90 0 -163 28.832 -219 86.499s-84 128.834 -84 213.501c0 94 32.5 176.333 97.5 247s147.833 106 248.5 106c89.333 0 161.833 -29 217.5 -87s83.5 -129.333 83.5 -214c0 -96 -32.833 -178.667 -98.5 -248s-147.5 -104 -245.5 -104zM351 6.99902
c48.667 0 92.834 19.667 132.501 59s69.667 87.5 90 144.5s30.5 114.5 30.5 172.5c0 69.333 -17.667 126 -53 170s-84.333 66 -147 66c-50 0 -94.833 -20 -134.5 -60s-69.334 -88.333 -89.001 -145s-29.5 -114 -29.5 -172c0 -69.333 17.833 -125.833 53.5 -169.5
s84.5 -65.5 146.5 -65.5z" />
    <glyph glyph-name="P" unicode="P" horiz-adv-x="556" 
d="M-20 0l3 15.001l52 6c28 2.66699 42.667 8.66699 44 18l105 549c0.666992 3.33301 0.166992 5.83301 -1.5 7.5s-6 3.33398 -13 5.00098s-17.167 3.16699 -30.5 4.5l-42 5l-2 15h272c65.333 0 116.333 -14.167 153 -42.5s55 -64.5 55 -108.5
c0 -54.667 -23.167 -99.334 -69.5 -134.001s-104.5 -52 -174.5 -52c-26.667 0 -62.667 4.66699 -108 14l-51 -265c-0.666992 -3.33301 0 -6 2 -8s6.33301 -3.83301 13 -5.5s16.667 -2.83398 30 -3.50098l56 -5l1 -15h-294zM318 307.001c48.667 0 87 17.833 115 53.5
s42 79.167 42 130.5c0 35.333 -10.167 63.333 -30.5 84s-48.833 31 -85.5 31h-78l-53 -282c32.667 -11.333 62.667 -17 90 -17z" />
    <glyph glyph-name="Q" unicode="Q" horiz-adv-x="720" 
d="M563 -182c-78 0 -140.833 13.667 -188.5 41s-80.167 73 -97.5 137c-68 16 -122.167 50.667 -162.5 104s-60.5 115.333 -60.5 186c0 94 32.5 176.333 97.5 247s147.833 106 248.5 106c89.333 0 161.833 -29 217.5 -87s83.5 -129.333 83.5 -214
c0 -90 -29.167 -168.667 -87.5 -236s-132.5 -105.333 -222.5 -114c17.333 -58 46.5 -97.667 87.5 -119s98.167 -31.333 171.5 -30v-14c-18 -4.66699 -47 -7 -87 -7zM351 7c48.667 0 92.834 19.667 132.501 59s69.667 87.5 90 144.5s30.5 114.5 30.5 172.5
c0 69.333 -17.667 126 -53 170s-84.333 66 -147 66c-50 0 -94.833 -20 -134.5 -60s-69.334 -88.333 -89.001 -145s-29.5 -114 -29.5 -172c0 -69.333 17.833 -125.833 53.5 -169.5s84.5 -65.5 146.5 -65.5z" />
    <glyph glyph-name="R" unicode="R" horiz-adv-x="621" 
d="M-20 0l3 15.001l52 6c28 2.66699 42.667 8.66699 44 18l104 549c0.666992 2.66699 0.166992 5 -1.5 7s-6 3.83301 -13 5.5s-17.167 3.16699 -30.5 4.5l-42 5l-1 15h275c66 0 117.833 -13.833 155.5 -41.5s56.5 -63.167 56.5 -106.5c0 -47.333 -18.833 -86.5 -56.5 -117.5
s-85.5 -49.5 -143.5 -55.5l100 -206c13.333 -30 26.5 -50.333 39.5 -61s30.167 -17 51.5 -19l17 -3l2 -15h-171l-133 305c-2.66699 1.33301 -12.167 4.16602 -28.5 8.49902s-26.833 7.83301 -31.5 10.5l-56 -287c-0.666992 -4 3.83301 -7.5 13.5 -10.5
s20.167 -5.16699 31.5 -6.5l45 -5l2 -15h-284zM323 324.001c47.333 1.33301 85.668 16.5 115.001 45.5s44 68.5 44 118.5c0 36 -11.667 64.667 -35 86s-56 32 -98 32h-68l-49 -261c29.333 -14 59.666 -21 90.999 -21z" />
    <glyph glyph-name="S" unicode="S" horiz-adv-x="496" 
d="M216 -13c-78.667 0 -147.667 16 -207 48l23 156h16l18 -83c11.333 -33.333 30.166 -58.5 56.499 -75.5s57.833 -25.5 94.5 -25.5c42 0 77 13.5 105 40.5s42 60.167 42 99.5c0 29.333 -10.5 55.166 -31.5 77.499s-51.833 44.5 -92.5 66.5
c-46.667 26 -81.834 52.667 -105.501 80s-35.5 60.666 -35.5 99.999c0 44 18.833 83 56.5 117s85.167 51 142.5 51c46.667 0 98.334 -10.333 155.001 -31l42 10l-31 -170l-15 1l-31 125c-35.333 29.333 -74.666 44 -117.999 44c-33.333 0 -62 -10.167 -86 -30.5
s-36 -46.166 -36 -77.499c0 -30.667 9 -56 27 -76s49.667 -42 95 -66c49.333 -27.333 86.5 -55.166 111.5 -83.499s37.5 -62.833 37.5 -103.5c0 -50.667 -21.833 -95.667 -65.5 -135s-99.5 -59 -167.5 -59z" />
    <glyph glyph-name="T" unicode="T" horiz-adv-x="646" 
d="M135 0l4.00098 15l58 6c27.333 2.66699 42 8.66699 44 18l107 568h-38c-84.667 -3.33301 -150.334 -45.333 -197.001 -126l-18 -41h-19l52 185h543l-23 -185h-17l-5 38c-6 44.667 -20 77 -42 97s-57.667 30.667 -107 32h-34l-109 -570c-0.666992 -2.66699 0 -5 2 -7
s6.33301 -3.83301 13 -5.5s16.667 -3.16699 30 -4.5l47 -5l2 -15h-293z" />
    <glyph glyph-name="U" unicode="U" horiz-adv-x="687" 
d="M345 -15c-72 0 -130.502 14.167 -175.502 42.5s-67.5 70.833 -67.5 127.5c0 24 3.33301 51 10 81l67 352c0.666992 3.33301 0.166992 5.83301 -1.5 7.5s-6 3.33398 -13 5.00098s-17.167 3.16699 -30.5 4.5l-42 5l-2 15h282l-4 -15l-52 -6
c-27.333 -2.66699 -42 -8.66699 -44 -18l-65 -340c-5.33301 -28 -8 -52.667 -8 -74c0 -100 58.333 -150 175 -150c50 0 90.333 15.5 121 46.5s52.334 80.167 65.001 147.5l61 304c5.33301 32.667 4.5 54.334 -2.5 65.001s-24.167 17.667 -51.5 21l-27 4l-2 15h215l-4 -15
l-27 -4c-23.333 -2.66699 -40.833 -9.83398 -52.5 -21.501s-20.167 -33.834 -25.5 -66.501l-62 -309c-14 -74.667 -40.167 -130.667 -78.5 -168s-91.166 -56 -158.499 -56z" />
    <glyph glyph-name="V" unicode="V" horiz-adv-x="617" 
d="M252 -11l-88.999 521c-7.33301 44 -13.333 70.333 -18 79s-18 14.334 -40 17.001l-35 4l-2 15h273l-3 -15l-42 -3c-23.333 -1.33301 -37.333 -6.33301 -42 -15s-4.66699 -26.334 0 -53.001l69 -427h3l195 369c0.666992 2 2 4.66699 4 8
c27.333 48 40.666 77.667 39.999 89c-0.666992 14 -15.667 23 -45 27c-4 0 -8 0.333008 -12 1l-34 4l-2 15h224l-4 -15l-22 -5c-26.667 -4 -47.667 -15 -63 -33s-45.333 -66.667 -90 -146l-235 -437h-30z" />
    <glyph glyph-name="W" unicode="W" horiz-adv-x="952" 
d="M248 -11l-84 520.999c-6.66699 41.333 -13 67 -19 77s-20 16.333 -42 19l-36 4l-1 15h273l-3 -15l-38 -3c-22 -1.33301 -35.667 -6.33301 -41 -15s-6 -26.334 -2 -53.001l65 -435h3l199 362l-8 44c-7.33301 41.333 -14 67 -20 77s-20 16.333 -42 19l-35 4l-2 15h272
l-4 -15l-38 -3c-24 -1.33301 -38.5 -6.66602 -43.5 -15.999s-4.83301 -27.333 0.5 -54l65 -432l3 -1l190 379c28 47.333 41.167 78.5 39.5 93.5s-21.167 24.833 -58.5 29.5l-27 4l-1 15h222l-4 -15l-22 -5c-24 -3.33301 -44 -13.166 -60 -29.499s-39 -51.5 -69 -105.5
l-249 -481h-33l-68 439h-3l-246 -439h-33z" />
    <glyph glyph-name="X" unicode="X" horiz-adv-x="643" 
d="M-43 0l3 14.998l26 3c28 3.33301 51.167 11.833 69.5 25.5s49.166 44.834 92.499 93.501l150 170l-95 193c-15.333 32 -25.666 53 -30.999 63s-12.333 19.167 -21 27.5s-19 13.166 -31 14.499l-31 5l-3 15h260l-4 -15l-31 -2c-22 -1.33301 -34 -8.16602 -36 -20.499
s6.33301 -38.5 25 -78.5l66 -143h2l111 129c38 42.667 57.667 69.667 59 81c2 11.333 -5.66699 19.333 -23 24c-8 2.66699 -18.333 4.66699 -31 6l-24 4l-2 15h234l-4 -15l-24 -3c-28.667 -3.33301 -52 -11.833 -70 -25.5s-49 -44.834 -93 -93.501l-123 -141l126 -262
c12 -25.333 22 -42 30 -50s19.667 -13 35 -15l30 -5l2 -15h-257l3 15l32 2c20.667 1.33301 33 6.83301 37 16.5s1 23.834 -9 42.501l-98 211h-3l-135 -157c-37.333 -42 -57.333 -69 -60 -81c-2 -11.333 6.33301 -19.666 25 -24.999c7.33301 -2 17 -3.66699 29 -5l25 -4
l2 -15h-235z" />
    <glyph glyph-name="Y" unicode="Y" horiz-adv-x="615" 
d="M123 0l3.00098 15.002l58 6c28 2.66699 42.667 8.66699 44 18l46 237l-101 257c-10 26.667 -19.667 44.667 -29 54s-23.333 15.333 -42 18l-32 5l-1 15h272l-4 -15l-28 -2c-26 -2 -41 -9 -45 -21s0 -32.333 12 -61l81 -218h3l127 179c35.333 49.333 54 79 56 89
c2.66699 12 -5 20.333 -23 25c-6.66699 1.33301 -15.334 2.66602 -26.001 3.99902l-29 5l-2 15h220l-4 -15l-26 -4c-20.667 -3.33301 -41 -13.333 -61 -30s-46.333 -47.334 -79 -92.001l-145 -201l-47 -246c-0.666992 -2.66699 0 -5 2 -7s6.33301 -3.83301 13 -5.5
s16.667 -3.16699 30 -4.5l48 -5l1 -15h-292z" />
    <glyph glyph-name="Z" unicode="Z" horiz-adv-x="571" 
d="M-10 0l2.99902 14.002l500 590l-1 3h-110c-42.667 0 -79.167 -3.33301 -109.5 -10s-54.666 -16.834 -72.999 -30.501s-32.5 -27.334 -42.5 -41.001s-19.667 -31.167 -29 -52.5l-13 -32h-16l33 184h477l-3 -15l-499 -588v-3h123c44 0 81 2.83301 111 8.5
s54.667 15.5 74 29.5s34.5 28.5 45.5 43.5s22.833 35.833 35.5 62.5l15 35h20l-51 -198h-490z" />
    <glyph glyph-name="bracketleft" unicode="[" horiz-adv-x="325" 
d="M-4 -239l130 872h247l-1 -20h-224l-127 -832h224l-2 -20h-247z" />
    <glyph glyph-name="backslash" unicode="\" horiz-adv-x="246" 
d="M210 -236l-212 877h22l211 -877h-21z" />
    <glyph glyph-name="bracketright" unicode="]" horiz-adv-x="325" 
d="M-57 -239l2 20h224l127 832h-224l1 20h247l-130 -872h-247z" />
    <glyph glyph-name="asciicircum" unicode="^" horiz-adv-x="379" 
d="M105 489l153 194h32l80 -194h-12l-93 116h-3l-147 -116h-10z" />
    <glyph glyph-name="underscore" unicode="_" horiz-adv-x="453" 
d="M-31 -36l3 37h424l3 -37h-430z" />
    <glyph glyph-name="grave" unicode="`" horiz-adv-x="379" 
d="M270 497l-139 187h90l61 -187h-12z" />
    <glyph glyph-name="a" unicode="a" horiz-adv-x="453" 
d="M310 -13c-11.333 0 -27.8311 4.33008 -49.498 12.9971s-32.5 16.334 -32.5 23.001c0 22 16 76.667 48 164h-4c-4 -6.66699 -9.66699 -16 -17 -28c-20.667 -34 -35.834 -58.667 -45.501 -74s-21.667 -32.166 -36 -50.499s-27 -30.666 -38 -36.999s-22.833 -9.5 -35.5 -9.5
c-24.667 0 -45.334 9.5 -62.001 28.5s-25 44.167 -25 75.5c0 50 13.333 100.333 40 151s58.334 94.667 95.001 132c43.333 44.667 85.666 67 126.999 67c16 0 27.333 -6.66699 34 -20s10.667 -37 12 -71h4l34 95l75 -3l-72 -200l-57 -201l46 -7l70 91l9 -7
c-20 -42 -41 -74.5 -63 -97.5s-41 -34.5 -57 -34.5zM140.002 46.9971c28.667 0 76.999 65 144.999 195c4.66699 8.66699 9.83398 22.167 15.501 40.5s8.5 30.833 8.5 37.5c-3.33301 19.333 -13.5 36.5 -30.5 51.5s-35.833 22.5 -56.5 22.5c-16 0 -30.667 -6.66699 -44 -20
c-20 -20.667 -39 -57.667 -57 -111s-27 -100 -27 -140c0 -50.667 15.333 -76 46 -76z" />
    <glyph glyph-name="b" unicode="b" horiz-adv-x="424" 
d="M155 -16c-34 0 -63.8311 8.99902 -89.498 26.999s-33.834 42.333 -24.501 73l137 518c4 14 2.33301 21.667 -5 23l-75 10l3 12l176 26l-31 -115l-105 -337c-1.33301 -3.33301 -1.33301 -5.33301 0 -6c1.33301 0 3 1.33301 5 4c37.333 80.667 70.666 138.5 99.999 173.5
s57.666 52.5 84.999 52.5c25.333 0 46.333 -11.333 63 -34s25 -52 25 -88c0 -42 -10.333 -88.167 -31 -138.5s-51 -95.166 -91 -134.499c-19.333 -20 -42.166 -36 -68.499 -48s-50.833 -18 -73.5 -18zM189.002 6.99902c13.333 0 28.999 8.33398 46.999 25.001
c27.333 27.333 51.333 68.333 72 123s31 104 31 148c0 56 -16.667 84 -50 84c-20 0 -41.667 -17.333 -65 -52s-51.666 -88.334 -84.999 -161.001c-6.66699 -15.333 -12.667 -33.833 -18 -55.5s-8 -36.5 -8 -44.5c5.33301 -19.333 15 -35.333 29 -48s29.667 -19 47 -19z" />
    <glyph glyph-name="c" unicode="c" horiz-adv-x="354" 
d="M142 -13c-36.667 0 -67.0029 14 -91.0029 42s-36 62 -36 102c0 74 26 145 78 213s110 102 174 102c26.667 0 50.334 -7.33301 71.001 -22s31 -32.667 31 -54c0 -15.333 -5.16699 -28.5 -15.5 -39.5s-22.166 -16.5 -35.499 -16.5c-12.667 0 -23.667 3.83301 -33 11.5
s-14 17.167 -14 28.5c0 18 9 33.667 27 47c-17.333 15.333 -35 23 -53 23c-16 0 -34.333 -10.333 -55 -31c-24 -24 -45.167 -60.333 -63.5 -109s-27.5 -94.667 -27.5 -138c0 -70 25.667 -105 77 -105c22 0 41.833 6.5 59.5 19.5s39.834 36.5 66.501 70.5l9 -7
c-27.333 -42.667 -54.333 -76.167 -81 -100.5s-56 -36.5 -88 -36.5z" />
    <glyph glyph-name="d" unicode="d" horiz-adv-x="453" 
d="M310 -13c-11.333 0 -27.833 4.33008 -49.5 12.9971s-32.5 16.334 -32.5 23.001c0 20.667 15.667 75.334 47 164.001h-4c-3.33301 -6 -8.33301 -14.333 -15 -25c-20.667 -34.667 -36 -59.834 -46 -75.501s-22 -32.667 -36 -51s-26.667 -30.833 -38 -37.5
s-23.333 -10 -36 -10c-24.667 0 -45.334 9.5 -62.001 28.5s-25 44.167 -25 75.5c0 50 13.333 100.333 40 151s58.334 94.334 95.001 131.001c46 47.333 87.667 71 125 71c11.333 0 20.5 -5.5 27.5 -16.5s11.5 -21.5 13.5 -31.5s4.33301 -25.333 7 -46h4l73 251
c2.66699 14.667 0.666992 22.334 -6 23.001l-88 10l3 12l191 26l-123 -392l-70 -239l46 -7l70 90l9 -7c-20 -41.333 -41 -73.5 -63 -96.5s-41 -34.5 -57 -34.5zM140 46.9971c29.333 0 77.666 65 144.999 195c4.66699 8.66699 9.83398 22.167 15.501 40.5
s8.5 30.833 8.5 37.5c-3.33301 18.667 -13.5 35.5 -30.5 50.5s-35.833 22.5 -56.5 22.5c-16 0 -30.667 -6.66699 -44 -20c-20 -20 -39 -56.667 -57 -110s-27 -100 -27 -140c0 -50.667 15.333 -76 46 -76z" />
    <glyph glyph-name="e" unicode="e" horiz-adv-x="362" 
d="M142 -13c-36.667 0 -67 13.998 -91 41.998s-36 62 -36 102c0 74.667 25.833 145.834 77.5 213.501s107.5 101.5 167.5 101.5c32 0 57.667 -7.5 77 -22.5s29 -34.833 29 -59.5c0 -31.333 -19.5 -57.666 -58.5 -78.999s-105.5 -45.333 -199.5 -72
c-6 -25.333 -9 -47.666 -9 -66.999c0 -70 27.333 -105 82 -105c21.333 0 41.333 6.66699 60 20s41 36.666 67 69.999l9 -7c-58 -91.333 -116.333 -137 -175 -137zM112 226.998c67.333 21.333 114 42.667 140 64s39 48.333 39 81c0 14 -5 25.833 -15 35.5
s-21.667 14.5 -35 14.5c-16 0 -33 -8.33301 -51 -25c-34 -34 -60.667 -90.333 -80 -169z" />
    <glyph glyph-name="f" unicode="f" horiz-adv-x="265" 
d="M-82 -200c-22 0 -40.501 5.5 -55.501 16.5s-22.5 25.167 -22.5 42.5c0 12.667 4.66699 24.167 14 34.5s21 15.5 35 15.5c18 0 32 -8.5 42 -25.5s11 -35.167 3 -54.5c18 1.33301 30 2 36 2c15.333 4 29.5 25.333 42.5 64s29.5 106.667 49.5 204l56 294l-84 2l11 33l83 7
c19.333 82 49 143 89 183c33.333 34.667 73.333 52 120 52c26 0 47 -6 63 -18s24 -27 24 -45c0 -14 -5.16699 -26 -15.5 -36s-22.166 -15 -35.499 -15c-20.667 0 -34.667 9 -42 27s-4.66602 36.333 8.00098 55c-23.333 2 -39 3 -47 3c-36 -10 -65.667 -79.333 -89 -208h105
l-9 -39h-104l-58 -266c-32 -148 -69.333 -243.667 -112 -287c-26.667 -27.333 -62.334 -41 -107.001 -41z" />
    <glyph glyph-name="g" unicode="g" horiz-adv-x="394" 
d="M106 -244c-57.333 0 -104.001 10.667 -140.001 32s-54 50.333 -54 87c0 26 14.667 50.333 44 73s64 39.334 104 50.001v3c-40 20 -60 44 -60 72c0 18 9.66699 35.167 29 51.5s42.666 28.166 69.999 35.499v3c-35.333 28 -53 65 -53 111
c0 45.333 17.833 85.166 53.5 119.499s75.834 51.5 120.501 51.5c34 0 65 -9.66699 93 -29l125 16l-14 -64l-115 30v-5c28.667 -32 43 -64.667 43 -98c0 -41.333 -17.667 -78.333 -53 -111s-73.666 -49 -114.999 -49c-26 0 -48.667 5.33301 -68 16
c-14.667 -2 -26.667 -8 -36 -18s-14 -20.667 -14 -32s6.33301 -20.666 19 -27.999s38.667 -18 78 -32l26 -9c50 -18 88.333 -37 115 -57s40 -45.333 40 -76c0 -38.667 -22.667 -72.167 -68 -100.5s-102 -42.5 -170 -42.5zM162.999 151c23.333 0 44.333 9.99902 63 29.999
c18.667 18.667 33.167 44.5 43.5 77.5s15.5 63.5 15.5 91.5c0 22 -5.5 39.833 -16.5 53.5s-24.5 20.5 -40.5 20.5c-15.333 0 -31.333 -7.66699 -48 -23c-19.333 -20 -35 -46.667 -47 -80s-17.667 -63 -17 -89c1.33301 -33.333 7 -55.666 17 -66.999
c9.33301 -9.33301 19.333 -14 30 -14zM149.999 -224.001c35.333 0 65.668 9.16602 91.001 27.499s38 39.833 38 64.5c0 21.333 -11.167 39.333 -33.5 54s-52.5 28.667 -90.5 42c-47.333 16.667 -72.333 25.334 -75 26.001c-26.667 -6.66699 -48.667 -19 -66 -37
s-26 -39 -26 -63c0 -32 15.167 -59 45.5 -81s69.166 -33 116.499 -33z" />
    <glyph glyph-name="h" unicode="h" horiz-adv-x="460" 
d="M303 -13c-10.667 0 -25.834 4.33008 -45.501 12.9971s-29.5 16.334 -29.5 23.001s22 70.334 66 191.001c3.33301 10 8.5 23.833 15.5 41.5s12.333 31.667 16 42s7.16699 20.833 10.5 31.5s5 18.334 5 23.001c0 9.33301 -4.83301 18 -14.5 26s-20.167 12 -31.5 12
c-15.333 0 -39.666 -25.167 -72.999 -75.5s-71 -120.166 -113 -209.499l-35 -109l-81 5c0.666992 2 4.33398 13.167 11.001 33.5s14.167 43.333 22.5 69s14.5 44.5 18.5 56.5c11.333 36 27 90.833 47 164.5s37 138.167 51 193.5l21 84c4 14 2.33301 21.667 -5 23l-75 10
l3 12l175 26l-30 -115c-8 -26.667 -19.333 -65.834 -34 -117.501s-26.167 -91.667 -34.5 -120s-17.5 -58.5 -27.5 -90.5s-18.667 -56.333 -26 -73l7 -1c64.667 131.333 115.334 215.333 152.001 252c24 24 49 36 75 36c18.667 0 35.667 -5.83301 51 -17.5s23 -25.5 23 -41.5
c0 -26 -16 -82 -48 -168c-6 -16 -14.333 -38.5 -25 -67.5s-19.834 -53.5 -27.501 -73.5s-11.834 -31.333 -12.501 -34l45 -7l70 90l9 -7c-19.333 -40.667 -41 -72.667 -65 -96s-44.333 -35 -61 -35z" />
    <glyph glyph-name="i" unicode="i" horiz-adv-x="249" 
d="M231 530c-15.333 0 -27.667 4.83301 -37 14.5s-14 21.834 -14 36.501c0 18.667 5 34.5 15 47.5s22 19.5 36 19.5c16 0 28.667 -4.83301 38 -14.5s14 -21.834 14 -36.501c-0.666992 -18.667 -6 -34.5 -16 -47.5s-22 -19.5 -36 -19.5zM102.999 -13
c-11.333 0 -27.833 3.99902 -49.5 11.999s-32.167 15 -31.5 21c0 4 42 127.667 126 371l-54 5l-67 -96l-10 8c20.667 42.667 43.167 76.334 67.5 101.001s46.833 37 67.5 37c14 0 28.667 -6 44 -18s22.666 -24.667 21.999 -38c0 -7.33301 -7.83301 -34.333 -23.5 -81
s-35 -101.667 -58 -165s-35.167 -97 -36.5 -101l51 -8l70 90l9 -7c-19.333 -40.667 -41.166 -72.667 -65.499 -96s-44.833 -35 -61.5 -35z" />
    <glyph glyph-name="j" unicode="j" horiz-adv-x="233" 
d="M227 530c-15.333 0 -27.666 4.83301 -36.999 14.5s-14 21.834 -14 36.501c0 18.667 5.16699 34.334 15.5 47.001s22.166 19 35.499 19c16 0 28.833 -4.83301 38.5 -14.5s14.167 -21.834 13.5 -36.501c-0.666992 -18.667 -6 -34.334 -16 -47.001s-22 -19 -36 -19z
M-104 -253c-16.667 0 -31.834 5.33301 -45.501 16s-20.5 24 -20.5 40c0 12 4.5 22.667 13.5 32s20.167 14 33.5 14c18 0 31.5 -7.33301 40.5 -22s9.16699 -32 0.5 -52l39 13c18.667 24.667 43.667 95 75 211l111 393l-50 4l-71 -96l-9 8c20 42.667 42.333 76.334 67 101.001
s47.334 37 68.001 37c14 0 28.833 -6.16699 44.5 -18.5s23.167 -24.833 22.5 -37.5c0 -12.667 -13.333 -63.834 -40 -153.501s-48 -154.5 -64 -194.5c-41.333 -125.333 -83.333 -209.333 -126 -252c-27.333 -28.667 -57 -43 -89 -43z" />
    <glyph glyph-name="k" unicode="k" horiz-adv-x="421" 
d="M280 -13c-20 0 -37.3311 8.00293 -51.998 24.0029c-4 64.667 -11.333 118.5 -22 161.5s-23.334 64.5 -38.001 64.5c-5.33301 0 -10.833 -1.16699 -16.5 -3.5s-10 -4.66602 -13 -6.99902s-4.5 -3.83301 -4.5 -4.5l-60 -226l-81 5l11 33c6.66699 20 14.167 43 22.5 69
s14.5 45 18.5 57c11.333 36 27 90.833 47 164.5s37 138.167 51 193.5l21 84c4 14 2.33301 21.667 -5 23l-75 10l3 12l175 26l-30 -115c-47.333 -160.667 -78.333 -264.334 -93 -311.001c5.33301 1.33301 13.666 2 24.999 2c32.667 12.667 68.167 29.167 106.5 49.5
s59.5 34.5 63.5 42.5v4c-24.667 9.33301 -37 26.666 -37 51.999c0 12.667 5.33301 24.167 16 34.5s22.667 15.5 36 15.5c14.667 0 27.334 -5.33301 38.001 -16s16 -23.334 16 -38.001c0 -22.667 -9 -42.5 -27 -59.5s-54.667 -36.5 -110 -58.5l-60 -24
c23.333 -4 43.666 -27.833 60.999 -71.5s29 -89.834 35 -138.501l27 -2l66 97l8 -6c-16.667 -42 -36 -76.333 -58 -103s-43.667 -40 -65 -40z" />
    <glyph glyph-name="l" unicode="l" horiz-adv-x="231" 
d="M84 -13c-10.667 0 -26.3311 4.33203 -46.998 12.999s-30.334 15.334 -29.001 20.001l157 582c4 14 2.33301 21.667 -5 23l-75 10l3 12l175 26l-178 -631l43 -7l69 90l10 -7c-20 -41.333 -41.333 -73.5 -64 -96.5s-42.334 -34.5 -59.001 -34.5z" />
    <glyph glyph-name="m" unicode="m" horiz-adv-x="694" 
d="M547 -13c-11.333 0 -27.5 4.33105 -48.5 12.998s-31.5 16.334 -31.5 23.001c0 6 22.333 69.667 67 191c3.33301 10 8.5 23.833 15.5 41.5s12.333 31.667 16 42s7.16699 20.833 10.5 31.5s5 18.334 5 23.001c0 10 -5 19 -15 27s-20.667 12 -32 12
c-28 0 -86.667 -95.333 -176 -286l-34 -109l-82 5l50 157c6.66699 20 15.834 45.833 27.501 77.5s20.834 57.167 27.501 76.5s10 32 10 38c0 10.667 -4.16699 20.167 -12.5 28.5s-17.833 12.5 -28.5 12.5c-29.333 0 -89.333 -95.333 -180 -286l-33 -109l-81 5l51 160l62 232
l-43 4l-68 -97l-9 8c43.333 92.667 85 139 125 139c11.333 0 25.666 -6.16699 42.999 -18.5s26 -24.833 26 -37.5c0 -13.333 -7.5 -44.5 -22.5 -93.5s-31.167 -95.5 -48.5 -139.5l7 -2c69.333 141.333 117.666 225.666 144.999 252.999c24 24 49 36 75 36
c18 0 33.333 -6.66699 46 -20s19 -29.333 19 -48c0 -27.333 -23.333 -100.333 -70 -219l6 -2c22.667 44.667 37.5 74 44.5 88s18.333 35.833 34 65.5s28.167 51.5 37.5 65.5s18.333 25.333 27 34c24 24 49 36 75 36c18.667 0 35.667 -6 51 -18s23 -25.667 23 -41
c0 -26.667 -16 -83 -48 -169l-66 -175l46 -7l70 91l9 -7c-20 -41.333 -41.333 -73.666 -64 -96.999s-42 -35 -58 -35z" />
    <glyph glyph-name="n" unicode="n" horiz-adv-x="483" 
d="M335 -13c-11.333 0 -27.333 4.33105 -48 12.998s-31 16.334 -31 23.001c0 8 22 71.667 66 191c3.33301 10 8.5 23.833 15.5 41.5s12.333 31.667 16 42s7.16699 20.833 10.5 31.5s5 18.334 5 23.001c0 10 -4.83301 19 -14.5 27s-20.167 12 -31.5 12
c-15.333 0 -39.666 -25.167 -72.999 -75.5s-71.333 -120.5 -114 -210.5l-33 -109l-81 5l51 160l62 230l-43 5l-68 -96l-9 8c20 43.333 41.5 77.333 64.5 102s44.5 37 64.5 37c10.667 0 24.167 -6.16699 40.5 -18.5s24.5 -24.833 24.5 -37.5
c0 -13.333 -7.33301 -44.833 -22 -94.5s-30.334 -95.834 -47.001 -138.501l5 -2c65.333 132.667 116 217 152 253c24 24 49 36 75 36c18.667 0 35.667 -6 51 -18s23 -25.667 23 -41c0 -26.667 -16 -83 -48 -169c-40.667 -110 -62.667 -168.333 -66 -175l46 -7l70 91l9 -7
c-20 -41.333 -41.333 -73.666 -64 -96.999s-42 -35 -58 -35z" />
    <glyph glyph-name="o" unicode="o" horiz-adv-x="410" 
d="M163 -12c-42 0 -75.999 17.667 -101.999 53s-39 79.333 -39 132c0 63.333 23.167 124.333 69.5 183s95.833 88 148.5 88c43.333 0 78.833 -17.667 106.5 -53s41.5 -79 41.5 -131c0 -64 -23.833 -125.333 -71.5 -184s-98.834 -88 -153.501 -88zM155.001 6
c29.333 0 56.001 17.167 80.001 51.5s43 75.833 57 124.5c11.333 39.333 17 82.666 17 129.999c0 34 -4.83301 61.333 -14.5 82s-23.5 31 -41.5 31c-24 0 -49.333 -20 -76 -60s-47.334 -83.667 -62.001 -131c-12 -41.333 -18 -80.666 -18 -117.999
c0 -31.333 5.16699 -57.5 15.5 -78.5s24.5 -31.5 42.5 -31.5z" />
    <glyph glyph-name="p" unicode="p" horiz-adv-x="445" 
d="M-105 -251l2.00195 14.999l31 4c14 1.33301 23.5 3 28.5 5s8.16699 6 9.5 12l169 607l-43 4l-68 -96l-9 8c43.333 92 85 138 125 138c11.333 0 25.5 -6.5 42.5 -19.5s25.5 -25.167 25.5 -36.5c0 -16 -10.333 -52.333 -31 -109h7c28 57.333 54.167 98.833 78.5 124.5
s51.166 38.5 80.499 38.5c24.667 0 45 -13.167 61 -39.5s24 -59.166 24 -98.499c0 -78.667 -26 -151.5 -78 -218.5s-108 -100.5 -168 -100.5c-30.667 0 -53.667 14.333 -69 43h-2l-67 -247c-0.666992 -2.66699 0.166016 -5 2.49902 -7s7 -3.83301 14 -5.5
s16.5 -2.5 28.5 -2.5l42 -4l1 -15h-237zM194.002 4.99902c15.333 0 33 9.99805 53 29.998c24.667 24.667 47.667 64.834 69 120.501s32 102.834 32 141.501c0 60.667 -16.667 91 -50 91c-25.333 0 -50.833 -22.5 -76.5 -67.5s-55.5 -110.833 -89.5 -197.5
c-6.66699 -20 -10 -38.333 -10 -55c4.66699 -16 14.167 -30.5 28.5 -43.5s28.833 -19.5 43.5 -19.5z" />
    <glyph glyph-name="q" unicode="q" horiz-adv-x="435" 
d="M66 -251l2.99805 14.9971l40 4c26 0.666992 40.667 7 44 19l79 260l45 141h-4c-52 -86 -86.333 -138.667 -103 -158c-24.667 -27.333 -48 -41.333 -70 -42c-24.667 0 -45.334 9.5 -62.001 28.5s-25 44.167 -25 75.5c0 50 13.333 100.333 40 151
s58.334 94.334 95.001 131.001c46 47.333 87.667 71 125 71c11.333 0 20.5 -5.5 27.5 -16.5s11.5 -21.5 13.5 -31.5s4.33301 -25.333 7 -46h4l31 87l76 -3l-70 -192l-131 -458c-1.33301 -5.33301 1.33398 -9.16602 8.00098 -11.499s17.334 -4.16602 32.001 -5.49902l29 -4
l3 -15h-237zM139.998 46.9971c29.333 0 77.666 65 144.999 195c4.66699 8.66699 9.83398 22.167 15.501 40.5s8.5 30.833 8.5 37.5c-3.33301 18.667 -13.5 35.5 -30.5 50.5s-35.833 22.5 -56.5 22.5c-16 0 -30.667 -6.66699 -44 -20c-20 -20 -39 -56.667 -57 -110
s-27 -100 -27 -140c0 -50.667 15.333 -76 46 -76z" />
    <glyph glyph-name="r" unicode="r" horiz-adv-x="386" 
d="M104 -4l-82 5.00195l51 160l62 232l-43 4l-68 -97l-9 8c43.333 92.667 85 139 125 139c11.333 0 25.666 -6.16699 42.999 -18.5s26 -24.833 26 -37.5c0 -26.667 -21 -96.334 -63 -209.001h7c54.667 112.667 90.667 181.334 108 206.001
c9.33301 13.333 18 23.666 26 30.999c20.667 19.333 41 28.666 61 27.999c19.333 -1.33301 34.833 -8.5 46.5 -21.5s16.834 -28.167 15.501 -45.5c-0.666992 -16 -6.66699 -29.667 -18 -41s-23.333 -16.333 -36 -15c-19.333 1.33301 -32 10 -38 26s-1.66699 32.667 13 50
l-22 8c-14.667 -9.33301 -33 -31.833 -55 -67.5s-58.333 -101.5 -109 -197.5z" />
    <glyph glyph-name="s" unicode="s" horiz-adv-x="321" 
d="M116 -13c-35.333 0 -65.5 7.32812 -90.5 21.9951s-37.5 35.334 -37.5 62.001c0 14 4.83301 26 14.5 36s21.834 15 36.501 15c11.333 0 20.666 -4.33301 27.999 -13s11 -18.334 11 -29.001c0 -7.33301 -2.5 -15.833 -7.5 -25.5s-10.167 -16.5 -15.5 -20.5
c27.333 -17.333 55 -26.666 83 -27.999c20.667 1.33301 37.5 11 50.5 29s19.833 35.667 20.5 53c0 8 -1.16699 15.667 -3.5 23s-6.66602 15 -12.999 23s-11 14 -14 18s-9.83301 11 -20.5 21s-17.334 16.333 -20.001 19c-19.333 18.667 -33.333 32.667 -42 42
s-17.334 22.333 -26.001 39s-12.667 33 -12 49c0.666992 36 16.334 65.5 47.001 88.5s64.334 34.5 101.001 34.5c76 0 114 -26 114 -78c0 -15.333 -4.83301 -27.5 -14.5 -36.5s-21.5 -13.5 -35.5 -13.5c-11.333 0 -20.833 4.33301 -28.5 13s-11.5 18.667 -11.5 30
c0 17.333 8 31.666 24 42.999c-26 14 -47.333 21.333 -64 22c-20.667 -0.666992 -36.667 -9.16699 -48 -25.5s-17.333 -33.166 -18 -50.499c0 -5.33301 0.5 -10.333 1.5 -15s3 -9.66699 6 -15s5.5 -10 7.5 -14s5.66699 -8.83301 11 -14.5s9.33301 -10 12 -13
s7.5 -8 14.5 -15l14.5 -14.5c1.33301 -1.33301 5.33301 -5.16602 12 -11.499s11 -10.666 13 -12.999s6 -6.66602 12 -12.999s10.167 -11.166 12.5 -14.499s5.83301 -8 10.5 -14s8 -11.333 10 -16s4.16699 -10 6.5 -16s4 -12 5 -18s1.5 -12 1.5 -18
c-0.666992 -35.333 -17.834 -65.333 -51.501 -90s-69.167 -37 -106.5 -37z" />
    <glyph glyph-name="t" unicode="t" horiz-adv-x="283" 
d="M112 -13c-12 0 -30.832 3.83301 -56.499 11.5s-37.834 14.167 -36.501 19.5l101 374l-78 3l11 33l79 11l35 127h80l-35 -133h95l1 -39h-107l-105 -352l61 -7l69 90l9 -7c-19.333 -40.667 -40.5 -72.667 -63.5 -96s-42.833 -35 -59.5 -35z" />
    <glyph glyph-name="u" unicode="u" horiz-adv-x="483" 
d="M339 -14c-10.667 0 -23.999 6.16895 -39.999 18.502s-24 24.833 -24 37.5c0 14 7.33301 46 22 96s30 96 46 138l-5 1c-66.667 -134.667 -117 -219 -151 -253c-24 -24 -49 -36 -75 -36c-18.667 0 -35.667 6 -51 18s-23 25.667 -23 41c0 26.667 16 83 48 169l65 176l-46 5
l-68 -97l-10 7c20 43.333 41.333 77.333 64 102s42 37 58 37c11.333 0 27.333 -4.33301 48 -13s31 -16.334 31 -23.001c0 -8 -22 -71.667 -66 -191c-3.33301 -8.66699 -7.5 -19.834 -12.5 -33.501s-9.33301 -25.167 -13 -34.5s-7.16699 -19.166 -10.5 -29.499s-6 -19 -8 -26
s-3 -12.167 -3 -15.5c0 -9.33301 4.83301 -18 14.5 -26s20.167 -12 31.5 -12c15.333 0 39.666 25.167 72.999 75.5s71.333 120.166 114 209.499l33 110l80 -5l-50 -160c-40 -147.333 -61 -224.333 -63 -231l43 -6l69 90l9 -7c-20 -42 -41.667 -74.5 -65 -97.5
s-45 -34.5 -65 -34.5z" />
    <glyph glyph-name="v" unicode="v" horiz-adv-x="410" 
d="M131 -13c-22.667 0 -43.833 8.16602 -63.5 24.499s-29.5 34.833 -29.5 55.5c0 10 3.16699 24.167 9.5 42.5s15.666 40.833 27.999 67.5s23 49 32 67s21.5 42.5 37.5 73.5s25.333 49.167 28 54.5l-94 17l-59 -82l-8 7c42 90 80.667 135 116 135c14 0 34 -2.5 60 -7.5
s39 -9.5 39 -13.5c0 -4.66699 -19 -48 -57 -130s-57 -138 -57 -168c0 -25.333 8.33301 -45.166 25 -59.499s36 -21.5 58 -21.5c14 0 34.5 18.5 61.5 55.5s51.333 79.667 73 128s32.5 86.166 32.5 113.499c-14 -3.33301 -28.667 0.333984 -44 11.001s-23 23 -23 37
s5.16699 26.333 15.5 37s22.5 16 36.5 16c16.667 0 30.5 -5.83301 41.5 -17.5s16.5 -26.834 16.5 -45.501c0 -34.667 -15.333 -83.667 -46 -147s-64.667 -115.666 -102 -156.999c-49.333 -62 -91.666 -93 -126.999 -93z" />
    <glyph glyph-name="w" unicode="w" horiz-adv-x="589" 
d="M111 -13c-19.333 0 -36.8301 7.99805 -52.4971 23.998s-23.5 34.667 -23.5 56c0 20 7.66699 47.667 23 83s37.166 79 65.499 131s44.5 82.333 48.5 91l-93 17l-59 -82l-8 7c42 90 80.667 135 116 135c14 0 34 -2.5 60 -7.5s39 -9.5 39 -13.5
c0 -6.66699 -10 -29.834 -30 -69.501s-40 -82.667 -60 -129s-30 -80.5 -30 -102.5c0 -23.333 6.66699 -40 20 -50s27.333 -15 42 -15c19.333 0 49.666 30.667 90.999 92s76.666 121.333 105.999 180l-5 3l-12.5 7.5c-5 3 -10 6.83301 -15 11.5s-9.16699 10.334 -12.5 17.001
s-5 13.667 -5 21c0 14.667 4.83301 26.834 14.5 36.501s22.167 14.5 37.5 14.5c14 0 26 -5.16699 36 -15.5s15 -23.5 15 -39.5c0 -18 -9.83301 -39.5 -29.5 -64.5s-33.5 -47.833 -41.5 -68.5c-16 -44 -24 -79.667 -24 -107c0 -30.667 7.66699 -53 23 -67s32.333 -21 51 -21
c17.333 0 38 16.5 62 49.5s44.5 72.167 61.5 117.5s25.5 84.333 25.5 117c-14 -3.33301 -28 0.333984 -42 11.001s-21 23 -21 37s4.83301 26.333 14.5 37s21.5 16 35.5 16c15.333 0 28.5 -5.66699 39.5 -17s16.5 -26.333 16.5 -45c0 -35.333 -13.5 -85.666 -40.5 -150.999
s-57.167 -118 -90.5 -158c-40.667 -59.333 -76.667 -89 -108 -89c-18.667 0 -34.667 8.66699 -48 26s-20 35.666 -20 54.999c0 28 15.333 82.333 46 163c-46 -80 -86.5 -140.667 -121.5 -182s-67.167 -62 -96.5 -62z" />
    <glyph glyph-name="x" unicode="x" horiz-adv-x="443" 
d="M49 -13c-20.667 0 -37.8311 5.49805 -51.498 16.498s-20.167 25.5 -19.5 43.5c0 16 4.66699 29 14 39s20.666 15 33.999 15c16.667 0 28.5 -7 35.5 -21s5.83301 -28.667 -3.5 -44c0 -1.33301 3.33301 -4 10 -8s10.667 -5.66699 12 -5
c9.33301 1.33301 26.5 21.333 51.5 60s44.833 75.334 59.5 110.001c-5.33301 43.333 -13.833 87.333 -25.5 132s-22.167 67 -31.5 67h-37l-44 -73l-10 7c34 80.667 72.333 121 115 121c23.333 0 41.5 -12.667 54.5 -38s25.5 -67 37.5 -125h2
c26.667 64 48.667 107.167 66 129.5s37.666 33.5 60.999 33.5c19.333 0 36 -5.5 50 -16.5s20.667 -24.833 20 -41.5c0 -15.333 -4.66699 -28.166 -14 -38.499s-20.333 -15.5 -33 -15.5c-16 0 -28 7 -36 21s-8 27.333 0 40c0 0.666992 -3.16699 2.16699 -9.5 4.5
s-10.5 3.5 -12.5 3.5c-7.33301 -1.33301 -21 -18.5 -41 -51.5s-35.333 -63.167 -46 -90.5c21.333 -146 41.333 -219 60 -219h36l45 73l10 -9c-35.333 -80 -74 -120 -116 -120c-24.667 0 -43.834 14.667 -57.501 44s-26.167 75 -37.5 137h-3
c-32.667 -72 -58.667 -120.167 -78 -144.5s-41.666 -36.5 -66.999 -36.5z" />
    <glyph glyph-name="y" unicode="y" horiz-adv-x="423" 
d="M-46 -204c-26 0 -46.1602 5.50391 -60.4932 16.5039s-21.5 26.5 -21.5 46.5c0 14 5 25.5 15 34.5s21.667 13.5 35 13.5c18.667 0 33 -7.66699 43 -23s11 -32.666 3 -51.999l31 -8c21.333 4.66699 50.666 21.834 87.999 51.501s68 57.834 92 84.501
c0 112 -7.5 212.667 -22.5 302s-32.833 134 -53.5 134l-20 1l-63 -97l-10 8c23.333 49.333 43.5 84.666 60.5 105.999s37.833 32 62.5 32c29.333 0 52.166 -11.833 68.499 -35.5s28.166 -63.334 35.499 -119.001s11.666 -135.5 12.999 -239.5l4 -1
c26 43.333 52.5 98.666 79.5 165.999s40.833 116.666 41.5 147.999c-18 -10 -35.5 -10.333 -52.5 -1s-25.833 21.333 -26.5 36c-1.33301 14.667 2.5 27 11.5 37s21.167 15 36.5 15c16 0 29.833 -6 41.5 -18s17.5 -29.333 17.5 -52c0 -58 -23.333 -131.833 -70 -221.5
s-93.334 -157.167 -140.001 -202.5c-0.666992 -0.666992 -7.33398 -7.16699 -20.001 -19.5s-21.334 -20.833 -26.001 -25.5s-13.834 -13.334 -27.501 -26.001s-24.667 -22 -33 -28s-19.166 -13.833 -32.499 -23.5s-25 -16.834 -35 -21.501s-20.833 -8.83398 -32.5 -12.501
s-22.5 -5.5 -32.5 -5.5z" />
    <glyph glyph-name="z" unicode="z" horiz-adv-x="373" 
d="M236 -21c-24 0 -47.1699 6.83008 -69.5029 20.4971s-43.166 29.667 -62.499 48s-33.333 29.5 -42 33.5h-8l-25 -93c-12.667 1.33301 -24.167 6.33301 -34.5 15s-15.5 18 -15.5 28c0 25.333 17.333 45 52 59l260 245c-19.333 -4 -39.333 -0.833008 -60 9.5
s-41.334 24.333 -62.001 42s-33 27.834 -37 30.501c-1.33301 0.666992 -4.66602 -1.5 -9.99902 -6.5s-10.333 -10.167 -15 -15.5s-6.33398 -8 -5.00098 -8c10.667 -2.66699 19.5 -8.16699 26.5 -16.5s10.5 -17.166 10.5 -26.499c0 -12.667 -4.16699 -23.334 -12.5 -32.001
s-19.166 -13 -32.499 -13s-23.833 4.33301 -31.5 13s-11.5 19.334 -11.5 32.001c0 24 14.167 47.167 42.5 69.5s57.5 33.833 87.5 34.5c20 -1.33301 36.833 -6.33301 50.5 -15s23.167 -18 28.5 -28s11.166 -20.167 17.499 -30.5s12.5 -17.166 18.5 -20.499l7 1l25 92
c12.667 -1.33301 24 -6.5 34 -15.5s15 -18.833 15 -29.5c-0.666992 -24 -18.334 -43 -53.001 -57l-260 -245c26.667 4.66699 54.334 1.5 83.001 -9.5s57.667 -26.833 87 -47.5l44 -31c1.33301 -0.666992 3.83301 1.33301 7.5 6s6.83398 9.5 9.50098 14.5s3.66699 7.5 3 7.5
c-11.333 3.33301 -20.666 9.83301 -27.999 19.5s-11 19.5 -11 29.5c0 12.667 4.33301 23.167 13 31.5s20 12.5 34 12.5c12.667 0 22.834 -4.5 30.501 -13.5s11.5 -20.5 11.5 -34.5c0 -24 -12.333 -47.333 -37 -70s-49.667 -34.667 -75 -36z" />
    <glyph glyph-name="braceleft" unicode="{" horiz-adv-x="312" 
d="M245 -248c-58.667 7.33301 -104.834 25.667 -138.501 55s-47.167 65.666 -40.5 108.999c4 29.333 16.5 65.666 37.5 108.999s33.167 75.333 36.5 96c4 26 -4.83301 45.667 -26.5 59s-55.5 23.666 -101.5 30.999l-5 12l7 12c94.667 0 145.334 23 152.001 69
c3.33301 20.667 1.5 53.5 -5.5 98.5s-8.16699 82.5 -3.5 112.5c6.66699 42.667 30.5 75.834 71.5 99.501s91.5 34.834 151.5 33.501v-15c-48.667 -2 -84.834 -10.667 -108.501 -26s-37.834 -37.666 -42.501 -66.999c-3.33301 -21.333 -1.66602 -54.833 5.00098 -100.5
s8 -82.5 4 -110.5c-4.66699 -30.667 -23.167 -55.5 -55.5 -74.5s-69.833 -29.5 -112.5 -31.5v-4l-1 -3c42 -9.33301 75.667 -25.5 101 -48.5s36 -50.5 32 -82.5c-4 -28 -16.667 -63.833 -38 -107.5s-33.666 -76.167 -36.999 -97.5c-5.33301 -29.333 1.5 -53.333 20.5 -72
s52.167 -33 99.5 -43z" />
    <glyph glyph-name="bar" unicode="|" horiz-adv-x="190" 
d="M86 -207v877h18v-877h-18z" />
    <glyph glyph-name="braceright" unicode="}" horiz-adv-x="312" 
d="M-57 -247l0.00292969 14.0029c91.333 3.33301 142 34.666 152 93.999c3.33301 21.333 -2 55.166 -16 101.499s-19 83.166 -15 110.499c4 31.333 22 56.5 54 75.5s69.667 29.5 113 31.5c0 0.666992 0.333008 2 1 4v3c-41.333 9.33301 -74.833 25.833 -100.5 49.5
s-36.167 50.834 -31.5 81.501c4 28 20.167 63.5 48.5 106.5s44.166 75.5 47.499 97.5c5.33301 28.667 -1.5 52.167 -20.5 70.5s-52.167 32.5 -99.5 42.5l3 14c58.667 -8 104.667 -26.333 138 -55s46.666 -64.667 39.999 -108c-4.66699 -29.333 -20.834 -65.333 -48.501 -108
s-43.167 -74.667 -46.5 -96c-6.66699 -46.667 35.666 -77 126.999 -91l5 -11l-6 -11c-46.667 0 -82.667 -5 -108 -15s-40 -28.333 -44 -55c-3.33301 -21.333 1.83398 -54.833 15.501 -100.5s18.5 -82.834 14.5 -111.501c-6.66699 -42.667 -30.5 -76 -71.5 -100
s-91.5 -35.333 -151.5 -34z" />
    <glyph glyph-name="asciitilde" unicode="~" horiz-adv-x="369" 
d="M250 156c-22 0 -51.3301 10.833 -87.9971 32.5s-60.667 32.5 -72 32.5c-13.333 0 -23.833 -3.5 -31.5 -10.5s-14.834 -22.5 -21.501 -46.5h-13c9.33301 40 20.666 68.5 33.999 85.5s32.333 25.5 57 25.5c22 0 51.333 -10.833 88 -32.5s60.667 -32.5 72 -32.5
c13.333 0 23.833 3.66699 31.5 11s15.167 22.666 22.5 45.999h14c-10 -39.333 -21.833 -67.666 -35.5 -84.999s-32.834 -26 -57.501 -26z" />
    <glyph glyph-name="nbspace" unicode="&#xa0;" horiz-adv-x="139" 
 />
    <glyph glyph-name="exclamdown" unicode="&#xa1;" horiz-adv-x="260" 
d="M212 518c-16.667 0 -30.666 5.66699 -41.999 17s-17 25 -17 41s5.5 29.833 16.5 41.5s24.833 17.5 41.5 17.5c17.333 0 31.833 -5.83301 43.5 -17.5s17.5 -25.5 17.5 -41.5s-5.83301 -29.667 -17.5 -41s-25.834 -17 -42.501 -17zM103.001 -19c-38 3.33301 -52 21 -42 53
l121 398c0.666992 1.33301 2 2.33301 4 3s3.66699 0.5 5 -0.5s2 -2.16699 2 -3.5l-32 -406c-2 -14.667 -6.66699 -26 -14 -34s-21 -11.333 -41 -10h-3z" />
    <glyph glyph-name="cent" unicode="&#xa2;" horiz-adv-x="352" 
d="M110 -9c-28 7.33301 -50.835 23.999 -68.502 49.999s-26.5 55.667 -26.5 89c0 74.667 26 145.834 78 213.501s110 101.5 174 101.5c11.333 0 21.333 -1.33301 30 -4l71 173h19l-74 -178c16.667 -6 30.167 -15 40.5 -27s15.5 -25.333 15.5 -40s-5.16699 -27.5 -15.5 -38.5
s-22.166 -16.5 -35.499 -16.5c-20.667 0 -35.667 8.66699 -45 26l-122 -296c8 -2 16.333 -3 25 -3c22 0 41.833 6.5 59.5 19.5s39.834 36.5 66.501 70.5l9 -8c-27.333 -42.667 -54.333 -76 -81 -100s-56 -36 -88 -36c-6 0 -10.667 0.333008 -14 1l-61 -148h-19z
M283.998 410.999c-10 8 -23.001 11.999 -39.001 11.999c-15.333 0 -33.666 -10 -54.999 -30c-24 -24 -45.167 -60.333 -63.5 -109s-27.5 -94.667 -27.5 -138c0 -47.333 12 -78.666 36 -93.999z" />
    <glyph glyph-name="sterling" unicode="&#xa3;" horiz-adv-x="516" 
d="M179 284l-109.999 -0.00195312l4 19h105c-1.33301 25.333 -1.66602 44.666 -0.999023 57.999c3.33301 72.667 28.833 135.834 76.5 189.501s107.5 80.5 179.5 80.5c36.667 0 65 -7 85 -21s29.333 -32.333 28 -55c-0.666992 -14.667 -6.16699 -27.167 -16.5 -37.5
s-22.833 -15.5 -37.5 -15.5c-22.667 0 -37.167 10.5 -43.5 31.5s-3.5 39.833 8.5 56.5c-12.667 12.667 -30.667 19 -54 19c-29.333 0 -55.666 -11.5 -78.999 -34.5s-39 -57.833 -47 -104.5c-2.66699 -15.333 -5.33398 -43.666 -8.00098 -84.999s-4.66699 -68.666 -6 -81.999
h129l1 -19h-132c-2.66699 -24 -5.33398 -42.333 -8.00098 -55c-8 -43.333 -27 -86.666 -57 -129.999c7.33301 -2 19.166 -5.66699 35.499 -11s28.833 -9.33301 37.5 -12s19.334 -5.83398 32.001 -9.50098s24 -6.16699 34 -7.5s19.333 -2 28 -2
c28.667 0 50.834 7.33301 66.501 22s29.834 42 42.501 82l11 -3c-10.667 -49.333 -29.834 -90 -57.501 -122s-60.834 -48 -99.501 -48c-48.667 0 -105.334 20.667 -170.001 62c-40.667 -42 -81 -63 -121 -63c-18.667 0 -34 5.66699 -46 17s-17.333 25.333 -16 42
c0.666992 22.667 9.66699 41.5 27 56.5s41.333 22.5 72 22.5c22.667 0 54 -5.33301 94 -16c10 24 15.333 47 16 69c1.33301 18 0.333008 53.333 -3 106zM138.001 60.998c-42 26 -72.998 39 -92.998 39c-16 0 -29.333 -5.16699 -40 -15.5s-16.334 -22.833 -17.001 -37.5
c-0.666992 -12.667 3.66602 -23.5 12.999 -32.5s21 -13.5 35 -13.5c36.667 0 70.667 20 102 60z" />
    <glyph glyph-name="currency" unicode="&#xa4;" 
d="M88 199l-14.002 14.002l57 57c-22 25.333 -33 55 -33 89s11 63.667 33 89l-57 57l14 14l57 -57c26.667 22 56.334 33 89.001 33s62.334 -11 89.001 -33l57 57l14 -14l-57 -57c22 -26.667 33 -56.334 33 -89.001s-11 -62.334 -33 -89.001l57 -57l-14 -14l-57 57
c-25.333 -22 -55 -33 -89 -33s-63.667 11 -89 33zM117.998 359.002c0 -32 11.333 -59.333 34 -82s50 -34 82 -34s59.333 11.333 82 34s34 50 34 82s-11.333 59.333 -34 82s-50 34 -82 34s-59.333 -11.333 -82 -34s-34 -50 -34 -82z" />
    <glyph glyph-name="yen" unicode="&#xa5;" horiz-adv-x="607" 
d="M273 288l-180 0.00195312l-1 20h176l-94 235c-8 22 -16.833 37.667 -26.5 47s-23.5 14.666 -41.5 15.999l-28 4l-2 15h269l-3 -15l-29 -2c-26 -2 -40.833 -9.5 -44.5 -22.5s1.5 -35.5 15.5 -67.5l73 -194h2l124 171c22.667 31.333 37 54.166 43 68.499s6 24.333 0 30
s-20 10.167 -42 13.5l-21 3l-2 15h207l-3 -15l-23 -3c-22 -3.33301 -41.333 -11.333 -58 -24s-41 -41 -73 -85l-138 -190h172v-5.5c0 -3 -0.333008 -6.16699 -1 -9.5v-5h-179l-21 -107h181l2 -19h-187l-23 -125c-0.666992 -2.66699 0 -5 2 -7s6.33301 -3.83301 13 -5.5
s16.667 -3.16699 30 -4.5l48 -5l2 -15h-292l3 15l58 6c28 2.66699 42.667 8.66699 44 18l24 123h-178l4 19h177c1.33301 0 8.33301 35.667 21 107z" />
    <glyph glyph-name="brokenbar" unicode="&#xa6;" horiz-adv-x="190" 
d="M86 292v335h18v-335h-18zM86 -154v335h18v-335h-18z" />
    <glyph glyph-name="section" unicode="&#xa7;" horiz-adv-x="390" 
d="M136 -50c-33.333 0 -62.3301 6.66309 -86.9971 19.9961s-37 30.666 -37 51.999c0 14.667 4.5 26.834 13.5 36.501s20.5 14.5 34.5 14.5c19.333 0 32 -9.16699 38 -27.5s4.66699 -36.166 -4 -53.499c9.33301 -15.333 28.666 -23 57.999 -23c24 0 43.667 8.33301 59 25
s23 34.334 23 53.001c0 21.333 -8.66699 42 -26 62s-42.333 42.667 -75 68s-58.334 49.333 -77.001 72s-28 47.667 -28 75c0 28.667 10 54 30 76s45.667 38.333 77 49c-10 16.667 -15 36.334 -15 59.001c0 35.333 15 66 45 92s67.667 39 113 39
c30.667 0 58.334 -7 83.001 -21s37 -31.667 37 -53c0 -12.667 -5 -23.667 -15 -33s-21.667 -14 -35 -14c-20.667 0 -33.834 9.5 -39.501 28.5s-3.83398 36.833 5.49902 53.5c-9.33301 14 -25.666 21 -48.999 21c-25.333 0 -45.5 -7.83301 -60.5 -23.5
s-22.5 -32.834 -22.5 -51.501c0 -22 8.66699 -42.833 26 -62.5s43 -42.5 77 -68.5c33.333 -25.333 59.166 -49.166 77.499 -71.499s27.5 -46.833 27.5 -73.5c0 -29.333 -10.333 -55.333 -31 -78s-46.667 -39 -78 -49c10.667 -17.333 16 -37.666 16 -60.999
c0 -36 -15.833 -67 -47.5 -93s-69.5 -39 -113.5 -39zM275.003 153.996c34.667 20 52 46.666 52 79.999c0 30 -24 64.667 -72 104c-6.66699 5.33301 -17.667 14 -33 26s-26.5 20.833 -33.5 26.5s-15.167 13 -24.5 22s-16.666 17.5 -21.999 25.5
c-35.333 -19.333 -53 -45.666 -53 -78.999c0 -18 6.16699 -34.833 18.5 -50.5s31.166 -33.5 56.499 -53.5c60.667 -47.333 97.667 -81 111 -101z" />
    <glyph glyph-name="dieresis" unicode="&#xa8;" horiz-adv-x="379" 
d="M349 520c-16.667 0 -29.834 5.83301 -39.501 17.5s-14.5 24.167 -14.5 37.5c0 14 4.83301 27.167 14.5 39.5s22.834 18.5 39.501 18.5s29.834 -6.16699 39.501 -18.5s14.5 -25.5 14.5 -39.5c0 -13.333 -4.83301 -25.833 -14.5 -37.5s-22.834 -17.5 -39.501 -17.5z
M163 520c-16.667 0 -29.834 5.83301 -39.501 17.5s-14.5 24.167 -14.5 37.5c0 14 4.83301 27.167 14.5 39.5s22.834 18.5 39.501 18.5s29.834 -6.16699 39.501 -18.5s14.5 -25.5 14.5 -39.5c0 -13.333 -4.83301 -25.833 -14.5 -37.5s-22.834 -17.5 -39.501 -17.5z" />
    <glyph glyph-name="copyright" unicode="&#xa9;" horiz-adv-x="713" 
d="M365 -14c-90.667 0 -167.834 31.833 -231.501 95.5s-95.5 140.834 -95.5 231.501s31.833 168 95.5 232s140.834 96 231.501 96s167.834 -32 231.501 -96s95.5 -141.333 95.5 -232s-31.833 -167.834 -95.5 -231.501s-140.834 -95.5 -231.501 -95.5zM365 2
c84.667 0 157.167 30.5 217.5 91.5s90.5 134.167 90.5 219.5s-30.167 158.5 -90.5 219.5s-132.833 91.5 -217.5 91.5c-85.333 0 -158.166 -30.5 -218.499 -91.5s-90.5 -134.167 -90.5 -219.5s30.167 -158.5 90.5 -219.5s133.166 -91.5 218.499 -91.5zM375 118
c-61.333 0 -110.833 17.667 -148.5 53s-56.5 81.333 -56.5 138s19.333 103.334 58 140.001s88.667 55 150 55c36 0 68 -6.66699 96 -20l39 14l2 -121h-11l-46 90c-18 14.667 -45.667 22 -83 22c-43.333 0 -77.833 -16.333 -103.5 -49s-38.5 -73.334 -38.5 -122.001
c0 -54.667 14 -99.167 42 -133.5s63.333 -51.5 106 -51.5c26 0 47.333 5.66699 64 17s33 29 49 53l20 41h11l-19 -105l-23 -2c-29.333 -12.667 -65.333 -19 -108 -19z" />
    <glyph glyph-name="ordfeminine" unicode="&#xaa;" horiz-adv-x="352" 
d="M135 288c-18.667 0 -34.333 7.50293 -47 22.5029s-19 34.833 -19 59.5c0 37.333 10 75.166 30 113.499s44 71.5 72 99.5c32.667 34 65 51 97 51c12 0 20.5 -5.16699 25.5 -15.5s8.16699 -28.5 9.5 -54.5h3l26 74l56 -2l-54 -154l-43 -153l35 -5l56 74l5 -5
c-16.667 -32.667 -33.5 -58.334 -50.5 -77.001s-31.833 -28 -44.5 -28c-8 0 -19.833 3.83301 -35.5 11.5s-23.5 14.167 -23.5 19.5c0 10.667 13.333 54 40 130h-3c-44.667 -75.333 -75 -121.333 -91 -138c-15.333 -14.667 -30 -22.334 -44 -23.001zM166.001 334.003
c10 0 25.167 13.832 45.5 41.499s41.5 62.834 63.5 105.501c12 24 18 43.333 18 58c-2.66699 14.667 -10.334 27.667 -23.001 39s-27 17 -43 17c-14 0 -25.333 -5 -34 -15c-16 -16 -30.5 -43.167 -43.5 -81.5s-19.5 -73.5 -19.5 -105.5c0 -18.667 3.33301 -33.167 10 -43.5
s15.334 -15.5 26.001 -15.5z" />
    <glyph glyph-name="guillemotleft" unicode="&#xab;" horiz-adv-x="452" 
d="M393 48l-185 167l2 19l249 164l4 -11l-170 -171l107 -157zM205 58l-187 157l2 19l247 153l4 -10l-164 -161l105 -147z" />
    <glyph glyph-name="logicalnot" unicode="&#xac;" 
d="M422 312v-180h-22v158h-382l3 22h401z" />
    <glyph glyph-name="uni00AD" unicode="&#xad;" horiz-adv-x="294" 
d="M23 212l10 44h244l-7 -44h-247z" />
    <glyph glyph-name="registered" unicode="&#xae;" horiz-adv-x="713" 
d="M365 -14c-90.667 0 -167.834 31.833 -231.501 95.5s-95.5 140.834 -95.5 231.501s31.833 168 95.5 232s140.834 96 231.501 96s167.834 -32 231.501 -96s95.5 -141.333 95.5 -232s-31.833 -167.834 -95.5 -231.501s-140.834 -95.5 -231.501 -95.5zM365 2
c84.667 0 157.167 30.5 217.5 91.5s90.5 134.167 90.5 219.5s-30.167 158.5 -90.5 219.5s-132.833 91.5 -217.5 91.5c-85.333 0 -158.166 -30.5 -218.499 -91.5s-90.5 -134.167 -90.5 -219.5s30.167 -158.5 90.5 -219.5s133.166 -91.5 218.499 -91.5zM196 130
l1.99805 11.998l30 4c16 1.33301 24 5 24 11v316c0 4.66699 -9.33301 7.66699 -28 9l-25 4l-2 12h158c48 0 84.167 -8.66699 108.5 -26s36.5 -41 36.5 -71c0 -22.667 -8.16699 -42.667 -24.5 -60s-38.166 -28.666 -65.499 -33.999l78 -118
c12 -17.333 21.833 -28.833 29.5 -34.5s17.834 -9.16699 30.501 -10.5l15 -2l2 -12h-109l-9 17l-97 157c-1.33301 0 -7.33301 1 -18 3s-18 3.66699 -22 5v-157c0 -3.33301 9.33301 -6.66602 28 -9.99902l27 -3l1 -12h-170zM355.998 319.998
c54.667 1.33301 82.001 28.334 82.001 81.001c0 55.333 -34 81.666 -102 78.999l-26 -1v-151c17.333 -5.33301 32.666 -8 45.999 -8z" />
    <glyph glyph-name="macron" unicode="&#xaf;" horiz-adv-x="378" 
d="M117 527l11 30h248l-8 -30h-251z" />
    <glyph glyph-name="degree" unicode="&#xb0;" horiz-adv-x="321" 
d="M211 360c-40 0 -72.832 12.999 -98.499 38.999s-38.5 58.333 -38.5 97c0 40.667 13.667 75.334 41 104.001s61.666 43 102.999 43c40 0 72.667 -13 98 -39s38 -58 38 -96c0 -40.667 -13.5 -75.5 -40.5 -104.5s-61.167 -43.5 -102.5 -43.5zM212.001 380.999
c34.667 0 62.834 12 84.501 36s32.5 53.333 32.5 88c0.666992 32 -9.5 59.167 -30.5 81.5s-48.5 33.833 -82.5 34.5c-34.667 0 -62.834 -12.167 -84.501 -36.5s-32.5 -53.5 -32.5 -87.5c-0.666992 -33.333 9.5 -61 30.5 -83s48.5 -33 82.5 -33z" />
    <glyph glyph-name="plusminus" unicode="&#xb1;" 
d="M217 84v162h-198l3 22h195v168h22v-168h195l3 -22h-198v-162h-22zM424 27h-392l3 22h386z" />
    <glyph glyph-name="twosuperior" unicode="&#xb2;" horiz-adv-x="282" 
d="M-16 267l0.000976562 13.9951c10.667 8.66699 25.667 20.834 45 36.501s33.166 26.834 41.499 33.501s20 16.334 35 29.001s25.667 22.334 32 29.001s14.5 15.334 24.5 26.001s17.167 19.5 21.5 26.5s9 15.333 14 25s8.33301 18.834 10 27.501s2.5 18 2.5 28
c0 22.667 -6.83301 40.5 -20.5 53.5s-30.5 19.5 -50.5 19.5c-28 0 -56 -16 -84 -48l-5 7c36.667 53.333 79 80 127 80c26.667 0 49.167 -8.5 67.5 -25.5s27.833 -38.5 28.5 -64.5c0 -18 -3.16699 -34.833 -9.5 -50.5s-18 -32.167 -35 -49.5s-32.167 -31.333 -45.5 -42
s-35.666 -27.834 -66.999 -51.501s-55.333 -42.167 -72 -55.5v-2h119c19.333 0 35.166 4.33301 47.499 13s25.5 23.667 39.5 45l8 11h10l-47 -115h-237z" />
    <glyph glyph-name="threesuperior" unicode="&#xb3;" horiz-adv-x="268" 
d="M88 245c-26.667 0 -49.333 3.8291 -68 11.4961s-28 19.834 -28 36.501c0 8.66699 3.16699 16.167 9.5 22.5s14.5 9.5 24.5 9.5c12.667 0 23 -6.16699 31 -18.5s8.33301 -25.166 1 -38.499c11.333 -7.33301 24 -11 38 -11c26 0 47.833 10.333 65.5 31s26.5 45 26.5 73
c0 24.667 -7.5 44.167 -22.5 58.5s-36.167 21.5 -63.5 21.5c-11.333 0 -24.333 -2 -39 -6l-4 9c53.333 22.667 90.5 41.5 111.5 56.5s31.5 34.5 31.5 58.5c0 16.667 -5.83301 30.5 -17.5 41.5s-26.167 16.5 -43.5 16.5c-33.333 0 -62.333 -16 -87 -48l-4 7
c14 22.667 32.333 41.334 55 56.001s47 22 73 22c23.333 0 43.833 -7.16699 61.5 -21.5s26.5 -31.5 26.5 -51.5c0 -45.333 -41.667 -81.666 -125 -108.999v-2c2.66699 0.666992 7 1 13 1c28.667 -2 51.667 -12 69 -30s26 -39.667 26 -65c0 -34 -16.5 -64.333 -49.5 -91
s-70.167 -40 -111.5 -40z" />
    <glyph glyph-name="acute" unicode="&#xb4;" horiz-adv-x="379" 
d="M196 497l124 187h97l-209 -187h-12z" />
    <glyph glyph-name="mu" unicode="&#xb5;" horiz-adv-x="494" 
d="M219 -251l-211 0.000976562l3 15l21 1c26.667 2 40 7.33301 40 16v618c0 5.33301 -2.5 8.66602 -7.5 9.99902s-18.833 3 -41.5 5l-17 2l-3 15h154l-3 -313c0 -48 28 -72 84 -72c42 0 78.333 13 109 39v290c0 14.667 -3 24.5 -9 29.5s-18.667 8.16699 -38 9.5l-21 2l-3 15
h155v-361c0 -15.333 4.66699 -24.333 14 -27l54 -13l-1 -11l-150 -35v81h-2c-12 -18.667 -21.167 -32 -27.5 -40s-16.5 -16.5 -30.5 -25.5s-29.667 -13.5 -47 -13.5c-35.333 0 -63.333 20 -84 60h-2v-265c0 -8.66699 13.333 -14 40 -16l21 -1z" />
    <glyph glyph-name="mu" unicode="&#x3bc;" horiz-adv-x="494" 
d="M219 -251l-211 0.000976562l3 15l21 1c26.667 2 40 7.33301 40 16v618c0 5.33301 -2.5 8.66602 -7.5 9.99902s-18.833 3 -41.5 5l-17 2l-3 15h154l-3 -313c0 -48 28 -72 84 -72c42 0 78.333 13 109 39v290c0 14.667 -3 24.5 -9 29.5s-18.667 8.16699 -38 9.5l-21 2l-3 15
h155v-361c0 -15.333 4.66699 -24.333 14 -27l54 -13l-1 -11l-150 -35v81h-2c-12 -18.667 -21.167 -32 -27.5 -40s-16.5 -16.5 -30.5 -25.5s-29.667 -13.5 -47 -13.5c-35.333 0 -63.333 20 -84 60h-2v-265c0 -8.66699 13.333 -14 40 -16l21 -1z" />
    <glyph glyph-name="paragraph" unicode="&#xb6;" horiz-adv-x="452" 
d="M322 -31l52.999 285.001c-9.33301 -2 -17 -3 -23 -3c-87.333 0 -156.333 16 -207 48s-76 76 -76 132c0 65.333 23.333 114.166 70 146.499s107.334 48.5 182.001 48.5h147l-124 -657h-22z" />
    <glyph glyph-name="periodcentered" unicode="&#xb7;" horiz-adv-x="211" 
d="M99 163c-17.333 0 -32 6.16797 -44 18.501s-18 26.833 -18 43.5c0 16 5.83301 30 17.5 42s26.167 18 43.5 18s32 -5.83301 44 -17.5s18 -25.834 18 -42.501s-5.83301 -31.167 -17.5 -43.5s-26.167 -18.5 -43.5 -18.5z" />
    <glyph glyph-name="cedilla" unicode="&#xb8;" horiz-adv-x="379" 
d="M3 -260l-1 11c112 10 168 40 168 90c0 32 -27.667 48 -83 48c-15.333 0 -33.666 -1.66699 -54.999 -5l2 11l120 109h22l-72 -67c37.333 2 68.166 -4 92.499 -18s36.5 -33.333 36.5 -58c0 -38 -21.333 -66.833 -64 -86.5s-98 -31.167 -166 -34.5z" />
    <glyph glyph-name="onesuperior" unicode="&#xb9;" horiz-adv-x="254" 
d="M21 267l2.00098 10.999l35 2c16 0.666992 24.667 4.66699 26 12l62 321l-67 10l3 8l132 19l-70 -359c-0.666992 -2 -0.333984 -3.66699 0.999023 -5s4 -2.66602 8 -3.99902s9.66699 -2 17 -2l28 -2l2 -11h-179z" />
    <glyph glyph-name="ordmasculine" unicode="&#xba;" horiz-adv-x="318" 
d="M183 286c-32 0 -58 13.333 -78 40s-30 60 -30 100c0 48.667 17.833 96 53.5 142s73.5 69 113.5 69c33.333 0 60.5 -13.5 81.5 -40.5s31.5 -60.5 31.5 -100.5c0 -50 -18 -97.5 -54 -142.5s-75.333 -67.5 -118 -67.5zM176 300c22.667 0 43.333 13.5 62 40.5
s33.667 59.167 45 96.5c8 30.667 12 63.667 12 99c0 26 -3.66699 46.667 -11 62s-18 23 -32 23c-18 0 -37.333 -15.667 -58 -47s-36.667 -65.333 -48 -102c-9.33301 -30 -14 -59.667 -14 -89c0 -24.667 3.83301 -44.667 11.5 -60s18.5 -23 32.5 -23z" />
    <glyph glyph-name="guillemotright" unicode="&#xbb;" horiz-adv-x="452" 
d="M182 57l-3 10l164 160l-107 149l8 10l187 -157l-1 -19zM-9 47l-4 10l169 170l-108 159l8 11l185 -168l-1 -19z" />
    <glyph glyph-name="onequarter" unicode="&#xbc;" horiz-adv-x="646" 
d="M481 -136l21 107h-160v9l243 271l26 -2l-46 -241h67l-10 -37h-64l-22 -107h-55zM384 8h125l34 174h-3zM21 267l2.00098 10.999l35 2c16 0.666992 24.667 4.66699 26 12l62 321l-67 10l3 8l132 19l-70 -359c-0.666992 -2 -0.333984 -3.66699 0.999023 -5
s4 -2.66602 8 -3.99902s9.66699 -2 17 -2l28 -2l2 -11h-179zM-15.999 -121.001l678 751h27l-678 -751h-27z" />
    <glyph glyph-name="onehalf" unicode="&#xbd;" horiz-adv-x="660" 
d="M356 -137l0.000976562 13.9951c10.667 8.66699 25.667 20.834 45 36.501s33.166 26.834 41.499 33.501s20 16.334 35 29.001s25.667 22.334 32 29.001s14.5 15.334 24.5 26.001s17.167 19.5 21.5 26.5s9 15.333 14 25s8.33301 18.834 10 27.501s2.5 18 2.5 28
c0 22.667 -6.83301 40.5 -20.5 53.5s-30.5 19.5 -50.5 19.5c-28 0 -56 -16 -84 -48l-5 7c36.667 53.333 79 80 127 80c26.667 0 49.167 -8.5 67.5 -25.5s27.833 -38.5 28.5 -64.5c0 -18 -3.16699 -34.833 -9.5 -50.5s-18 -32.167 -35 -49.5s-32.167 -31.333 -45.5 -42
s-35.666 -27.834 -66.999 -51.501s-55.333 -42.167 -72 -55.5v-2h119c19.333 0 35.166 4.33301 47.499 13s25.5 23.667 39.5 45l8 11h10l-47 -115h-237zM21.001 266.995l2.00098 10.999l35 2c16 0.666992 24.667 4.66699 26 12l62 321l-67 10l3 8l132 19l-70 -359
c-0.666992 -2 -0.333984 -3.66699 0.999023 -5s4 -2.66602 8 -3.99902s9.66699 -2 17 -2l28 -2l2 -11h-179zM-15.998 -121.006l678 751h27l-678 -751h-27z" />
    <glyph glyph-name="threequarters" unicode="&#xbe;" horiz-adv-x="620" 
d="M455 -136l21 107h-160v9l243 271l26 -2l-46 -241h67l-10 -37h-64l-22 -107h-55zM358 8h125l34 174h-3zM88 245c-26.667 0 -49.333 3.8291 -68 11.4961s-28 19.834 -28 36.501c0 8.66699 3.16699 16.167 9.5 22.5s14.5 9.5 24.5 9.5c12.667 0 23 -6.16699 31 -18.5
s8.33301 -25.166 1 -38.499c11.333 -7.33301 24 -11 38 -11c26 0 47.833 10.333 65.5 31s26.5 45 26.5 73c0 24.667 -7.5 44.167 -22.5 58.5s-36.167 21.5 -63.5 21.5c-11.333 0 -24.333 -2 -39 -6l-4 9c53.333 22.667 90.5 41.5 111.5 56.5s31.5 34.5 31.5 58.5
c0 16.667 -5.83301 30.5 -17.5 41.5s-26.167 16.5 -43.5 16.5c-33.333 0 -62.333 -16 -87 -48l-4 7c14 22.667 32.333 41.334 55 56.001s47 22 73 22c23.333 0 43.833 -7.16699 61.5 -21.5s26.5 -31.5 26.5 -51.5c0 -45.333 -41.667 -81.666 -125 -108.999v-2
c2.66699 0.666992 7 1 13 1c28.667 -2 51.667 -12 69 -30s26 -39.667 26 -65c0 -34 -16.5 -64.333 -49.5 -91s-70.167 -40 -111.5 -40zM-41.999 -121.004l678 751h27l-678 -751h-27z" />
    <glyph glyph-name="questiondown" unicode="&#xbf;" horiz-adv-x="321" 
d="M243 525c-16.667 0 -30.6689 5.66602 -42.002 16.999s-17 24.666 -17 39.999c0 16.667 5.5 30.834 16.5 42.501s25.167 17.5 42.5 17.5c16.667 0 30.834 -6 42.501 -18s17.5 -26 17.5 -42c0 -15.333 -5.66699 -28.666 -17 -39.999s-25.666 -17 -42.999 -17z
M187.998 -12.001c-51.333 0 -92.5 16.5 -123.5 49.5s-46.5 71.167 -46.5 114.5c0 40.667 9.33301 72.167 28 94.5s49.667 40.5 93 54.5c26 8.66699 44.167 15 54.5 19s20 10.5 29 19.5s13.5 20.167 13.5 33.5c0 21.333 -12.333 44.333 -37 69l13 2
c42 -38 63 -74.333 63 -109c0 -27.333 -9.83301 -48.5 -29.5 -63.5s-51.5 -29.167 -95.5 -42.5c-44 -12.667 -73.667 -23.667 -89 -33s-23 -23.666 -23 -42.999c0 -22 14.333 -42.167 43 -60.5s68.667 -27.5 120 -27.5c14.667 0 30 1.33301 46 4
c3.33301 -6.66699 5 -14.334 5 -23.001c0 -38.667 -21.333 -58 -64 -58z" />
    <glyph glyph-name="Agrave" unicode="&#xc0;" horiz-adv-x="607" 
d="M361 257l-172.001 0.000976562l-52 -100l-1 -2c-30.667 -56.667 -46.334 -91.334 -47.001 -104.001c-0.666992 -14 8.33301 -23.333 27 -28c7.33301 -1.33301 17.333 -2.66602 30 -3.99902l34 -4l2 -15h-223l3 15l22 5c26.667 4 47.667 15 63 33s45 66.667 89 146
l188 360l-4 36c13.333 3.33301 28.333 9.5 45 18.5s27.667 17.5 33 25.5h13l61 -522c4.66699 -38.667 10.834 -64 18.501 -76s21.834 -19 42.501 -21l36 -5l1 -15h-275l3 15l38 4c20.667 1.33301 33.5 8.16602 38.5 20.499s5.83301 32.833 2.5 61.5zM199.999 279.001h159
l-25 253h-4zM386.999 664.001l-139 187h90l61 -187h-12z" />
    <glyph glyph-name="Aacute" unicode="&#xc1;" horiz-adv-x="607" 
d="M361 257l-172.001 0.000976562l-52 -100l-1 -2c-30.667 -56.667 -46.334 -91.334 -47.001 -104.001c-0.666992 -14 8.33301 -23.333 27 -28c7.33301 -1.33301 17.333 -2.66602 30 -3.99902l34 -4l2 -15h-223l3 15l22 5c26.667 4 47.667 15 63 33s45 66.667 89 146
l188 360l-4 36c13.333 3.33301 28.333 9.5 45 18.5s27.667 17.5 33 25.5h13l61 -522c4.66699 -38.667 10.834 -64 18.501 -76s21.834 -19 42.501 -21l36 -5l1 -15h-275l3 15l38 4c20.667 1.33301 33.5 8.16602 38.5 20.499s5.83301 32.833 2.5 61.5zM199.999 279.001h159
l-25 253h-4zM332.999 664.001l124 187h97l-209 -187h-12z" />
    <glyph glyph-name="Acircumflex" unicode="&#xc2;" horiz-adv-x="607" 
d="M361 257l-172.001 0.000976562l-52 -100l-1 -2c-30.667 -56.667 -46.334 -91.334 -47.001 -104.001c-0.666992 -14 8.33301 -23.333 27 -28c7.33301 -1.33301 17.333 -2.66602 30 -3.99902l34 -4l2 -15h-223l3 15l22 5c26.667 4 47.667 15 63 33s45 66.667 89 146
l188 360l-4 36c13.333 3.33301 28.333 9.5 45 18.5s27.667 17.5 33 25.5h13l61 -522c4.66699 -38.667 10.834 -64 18.501 -76s21.834 -19 42.501 -21l36 -5l1 -15h-275l3 15l38 4c20.667 1.33301 33.5 8.16602 38.5 20.499s5.83301 32.833 2.5 61.5zM199.999 279.001h159
l-25 253h-4zM244.999 656.001l152 194h32l81 -194h-12l-94 116h-3l-146 -116h-10z" />
    <glyph glyph-name="Atilde" unicode="&#xc3;" horiz-adv-x="607" 
d="M361 257l-172.001 0.000976562l-52 -100l-1 -2c-30.667 -56.667 -46.334 -91.334 -47.001 -104.001c-0.666992 -14 8.33301 -23.333 27 -28c7.33301 -1.33301 17.333 -2.66602 30 -3.99902l34 -4l2 -15h-223l3 15l22 5c26.667 4 47.667 15 63 33s45 66.667 89 146
l188 360l-4 36c13.333 3.33301 28.333 9.5 45 18.5s27.667 17.5 33 25.5h13l61 -522c4.66699 -38.667 10.834 -64 18.501 -76s21.834 -19 42.501 -21l36 -5l1 -15h-275l3 15l38 4c20.667 1.33301 33.5 8.16602 38.5 20.499s5.83301 32.833 2.5 61.5zM199.999 279.001h159
l-25 253h-4zM454.999 671.001c-22 0 -51.3301 10.833 -87.9971 32.5s-60.667 32.5 -72 32.5c-13.333 0 -23.833 -3.5 -31.5 -10.5s-14.834 -22.5 -21.501 -46.5h-13c9.33301 40 20.666 68.5 33.999 85.5s32.333 25.5 57 25.5c21.333 0 50.333 -10.833 87 -32.5
s61 -32.5 73 -32.5c13.333 0 23.833 3.66699 31.5 11s15.167 22.666 22.5 45.999h14c-10 -39.333 -21.833 -67.666 -35.5 -84.999s-32.834 -26 -57.501 -26z" />
    <glyph glyph-name="Adieresis" unicode="&#xc4;" horiz-adv-x="607" 
d="M361 257l-172.001 0.000976562l-52 -100l-1 -2c-30.667 -56.667 -46.334 -91.334 -47.001 -104.001c-0.666992 -14 8.33301 -23.333 27 -28c7.33301 -1.33301 17.333 -2.66602 30 -3.99902l34 -4l2 -15h-223l3 15l22 5c26.667 4 47.667 15 63 33s45 66.667 89 146
l188 360l-4 36c13.333 3.33301 28.333 9.5 45 18.5s27.667 17.5 33 25.5h13l61 -522c4.66699 -38.667 10.834 -64 18.501 -76s21.834 -19 42.501 -21l36 -5l1 -15h-275l3 15l38 4c20.667 1.33301 33.5 8.16602 38.5 20.499s5.83301 32.833 2.5 61.5zM199.999 279.001h159
l-25 253h-4zM475.999 687.001c-16.667 0 -29.834 5.83301 -39.501 17.5s-14.5 24.167 -14.5 37.5c0 14 4.83301 27.167 14.5 39.5s22.834 18.5 39.501 18.5s29.834 -6.16699 39.501 -18.5s14.5 -25.5 14.5 -39.5c0 -13.333 -4.83301 -25.833 -14.5 -37.5
s-22.834 -17.5 -39.501 -17.5zM289.999 687.001c-16.667 0 -29.834 5.83301 -39.501 17.5s-14.5 24.167 -14.5 37.5c0 14 4.83301 27.167 14.5 39.5s22.834 18.5 39.501 18.5s29.834 -6.16699 39.501 -18.5s14.5 -25.5 14.5 -39.5c0 -13.333 -4.83301 -25.833 -14.5 -37.5
s-22.834 -17.5 -39.501 -17.5z" />
    <glyph glyph-name="Aring" unicode="&#xc5;" horiz-adv-x="607" 
d="M361 257l-172.001 0.000976562l-52 -100l-1 -2c-30.667 -56.667 -46.334 -91.334 -47.001 -104.001c-0.666992 -14 8.33301 -23.333 27 -28c7.33301 -1.33301 17.333 -2.66602 30 -3.99902l34 -4l2 -15h-223l3 15l22 5c26.667 4 47.667 15 63 33s45 66.667 89 146
l220 419c-32.667 14.667 -49 41.667 -49 81c0 24.667 8.16699 45.834 24.5 63.501s37.833 26.5 64.5 26.5s48.167 -8.83301 64.5 -26.5s24.5 -38.834 24.5 -63.501c0 -22 -6.33301 -41 -19 -57s-30 -26 -52 -30l58 -495c4.66699 -38.667 10.834 -64 18.501 -76
s21.834 -19 42.501 -21l36 -5l1 -15h-275l3 15l38 4c20.667 1.33301 33.5 8.16602 38.5 20.499s5.83301 32.833 2.5 61.5zM395.999 624.001c22 0 39.667 7.16699 53 21.5s20 32.166 20 53.499c0 20.667 -6.66699 38.5 -20 53.5s-31 22.5 -53 22.5s-39.667 -7.5 -53 -22.5
s-20 -32.833 -20 -53.5c0 -21.333 6.66699 -39.166 20 -53.499s31 -21.5 53 -21.5zM199.999 279.001h159l-25 252h-4z" />
    <glyph glyph-name="AE" unicode="&#xc6;" horiz-adv-x="834" 
d="M375 257l-173.004 0.000976562l-67 -90c-48 -63.333 -74.333 -101.333 -79 -114c-5.33301 -14.667 1 -24.334 19 -29.001c6.66699 -2 16.334 -3.66699 29.001 -5l26 -4l3 -15h-216l3 15l24 5c28.667 3.33301 51.334 12.333 68.001 27s48 51.334 94 110.001l301 408
c11.333 12 14.833 21.333 10.5 28s-19.5 11 -45.5 13l-42 4l-2 15h479v-192h-18l-7 38c-6.66699 22 -12 38.167 -16 48.5s-10.5 22.333 -19.5 36s-19.667 23.334 -32 29.001s-29.166 10.667 -50.499 15s-47.333 6.5 -78 6.5h-53l-52 -276l34 1
c49.333 1.33301 83.333 6.16602 102 14.499s34.334 25.5 47.001 51.5l15 30l16 -1l-46 -213l-17 1l3 29c4 28 -2.33301 45.833 -19 53.5s-53 12.5 -109 14.5l-30 1l-54 -290l89 -3c30.667 0 58 2.66699 82 8s43.833 11.666 59.5 18.999s30.5 17.833 44.5 31.5s25 26 33 37
s17.667 26.167 29 45.5l18 37l20 -1l-65 -196h-491l3 15l45 6c28 2.66699 42.667 8.66699 44 18zM216.996 279.001h162l54 288h-3c-141.333 -192 -212.333 -288 -213 -288z" />
    <glyph glyph-name="Ccedilla" unicode="&#xc7;" horiz-adv-x="663" 
d="M338 -14c-88.667 4.66699 -158.668 33 -210.001 85s-77 118 -77 198c0 100 35.667 186.833 107 260.5s160 110.5 266 110.5c66.667 0 122.667 -12.333 168 -37l70 16l-33 -187l-16 1l-31 139c-37.333 32 -87.333 48 -150 48c-83.333 0 -150.666 -36.333 -201.999 -109
s-77 -159 -77 -259c0 -75.333 19 -135.333 57 -180s90.667 -67 158 -67c70 0 132.667 32.333 188 97l38 68l18 -1l-52 -162l-39 1c-46 -15.333 -98.333 -23 -157 -23h-4l-52 -48c37.333 2 68.166 -4 92.499 -18s36.5 -33.333 36.5 -58c0 -38 -21.333 -66.833 -64 -86.5
s-98 -31.167 -166 -34.5l-1 11c112 10 168 40 168 90c0 32 -27.667 48 -83 48c-15.333 0 -33.666 -1.66699 -54.999 -5l2 11z" />
    <glyph glyph-name="Egrave" unicode="&#xc8;" horiz-adv-x="588" 
d="M-11 0l2.99512 15.001l40 6c30.667 4 46.334 10 47.001 18l105 549c0.666992 4 -1.66602 7.16699 -6.99902 9.5s-18 4.83301 -38 7.5l-32 5l-2 15h454l1 -192h-19l-6 38c-6 18.667 -10.5 32.334 -13.5 41.001s-8 19.5 -15 32.5s-14.5 22.333 -22.5 28
s-18.667 11.667 -32 18s-29.333 10.666 -48 12.999s-40.667 3.5 -66 3.5h-57l-53 -277l39 1c49.333 1.33301 83.333 6.16602 102 14.499s34.334 25.5 47.001 51.5l15 30l17 -1l-47 -213l-17 1l3 29c4 28 -2.33301 45.833 -19 53.5s-53 12.5 -109 14.5l-34 1l-55 -290l93 -4
c38 0 70.833 3.5 98.5 10.5s50.834 18 69.501 33s33.334 29.167 44.001 42.5s23 32 37 56l19 37l19 -1l-64 -196h-497zM372.995 664.001l-139 187h90l61 -187h-12z" />
    <glyph glyph-name="Eacute" unicode="&#xc9;" horiz-adv-x="588" 
d="M-11 0l2.99512 15.001l40 6c30.667 4 46.334 10 47.001 18l105 549c0.666992 4 -1.66602 7.16699 -6.99902 9.5s-18 4.83301 -38 7.5l-32 5l-2 15h454l1 -192h-19l-6 38c-6 18.667 -10.5 32.334 -13.5 41.001s-8 19.5 -15 32.5s-14.5 22.333 -22.5 28
s-18.667 11.667 -32 18s-29.333 10.666 -48 12.999s-40.667 3.5 -66 3.5h-57l-53 -277l39 1c49.333 1.33301 83.333 6.16602 102 14.499s34.334 25.5 47.001 51.5l15 30l17 -1l-47 -213l-17 1l3 29c4 28 -2.33301 45.833 -19 53.5s-53 12.5 -109 14.5l-34 1l-55 -290l93 -4
c38 0 70.833 3.5 98.5 10.5s50.834 18 69.501 33s33.334 29.167 44.001 42.5s23 32 37 56l19 37l19 -1l-64 -196h-497zM306.995 664.001l124 187h97l-209 -187h-12z" />
    <glyph glyph-name="Ecircumflex" unicode="&#xca;" horiz-adv-x="588" 
d="M-11 0l2.99512 15.001l40 6c30.667 4 46.334 10 47.001 18l105 549c0.666992 4 -1.66602 7.16699 -6.99902 9.5s-18 4.83301 -38 7.5l-32 5l-2 15h454l1 -192h-19l-6 38c-6 18.667 -10.5 32.334 -13.5 41.001s-8 19.5 -15 32.5s-14.5 22.333 -22.5 28
s-18.667 11.667 -32 18s-29.333 10.666 -48 12.999s-40.667 3.5 -66 3.5h-57l-53 -277l39 1c49.333 1.33301 83.333 6.16602 102 14.499s34.334 25.5 47.001 51.5l15 30l17 -1l-47 -213l-17 1l3 29c4 28 -2.33301 45.833 -19 53.5s-53 12.5 -109 14.5l-34 1l-55 -290l93 -4
c38 0 70.833 3.5 98.5 10.5s50.834 18 69.501 33s33.334 29.167 44.001 42.5s23 32 37 56l19 37l19 -1l-64 -196h-497zM218.995 656.001l152 194h32l81 -194h-12l-94 116h-3l-146 -116h-10z" />
    <glyph glyph-name="Edieresis" unicode="&#xcb;" horiz-adv-x="588" 
d="M-11 0l2.99512 15.001l40 6c30.667 4 46.334 10 47.001 18l105 549c0.666992 4 -1.66602 7.16699 -6.99902 9.5s-18 4.83301 -38 7.5l-32 5l-2 15h454l1 -192h-19l-6 38c-6 18.667 -10.5 32.334 -13.5 41.001s-8 19.5 -15 32.5s-14.5 22.333 -22.5 28
s-18.667 11.667 -32 18s-29.333 10.666 -48 12.999s-40.667 3.5 -66 3.5h-57l-53 -277l39 1c49.333 1.33301 83.333 6.16602 102 14.499s34.334 25.5 47.001 51.5l15 30l17 -1l-47 -213l-17 1l3 29c4 28 -2.33301 45.833 -19 53.5s-53 12.5 -109 14.5l-34 1l-55 -290l93 -4
c38 0 70.833 3.5 98.5 10.5s50.834 18 69.501 33s33.334 29.167 44.001 42.5s23 32 37 56l19 37l19 -1l-64 -196h-497zM451.995 687.001c-16.667 0 -29.834 5.83301 -39.501 17.5s-14.5 24.167 -14.5 37.5c0 14 4.83301 27.167 14.5 39.5s22.834 18.5 39.501 18.5
s29.834 -6.16699 39.501 -18.5s14.5 -25.5 14.5 -39.5c0 -13.333 -4.83301 -25.833 -14.5 -37.5s-22.834 -17.5 -39.501 -17.5zM265.995 687.001c-16.667 0 -29.834 5.83301 -39.501 17.5s-14.5 24.167 -14.5 37.5c0 14 4.83301 27.167 14.5 39.5s22.834 18.5 39.501 18.5
s29.834 -6.16699 39.501 -18.5s14.5 -25.5 14.5 -39.5c0 -13.333 -4.83301 -25.833 -14.5 -37.5s-22.834 -17.5 -39.501 -17.5z" />
    <glyph glyph-name="Igrave" unicode="&#xcc;" horiz-adv-x="344" 
d="M-6 0l3.00098 15l49 6c28 2.66699 42.667 8.66699 44 18l105 549c0.666992 2.66699 0 5 -2 7s-6.33301 3.83301 -13 5.5s-16.667 3.16699 -30 4.5l-38 5l-2 15h273l-3 -15l-48 -6c-28 -4 -42.667 -10 -44 -18l-105 -549c-0.666992 -4.66699 1.66602 -8 6.99902 -10
s18 -4.33301 38 -7l38 -5l2 -15h-274zM269.001 664l-139 187h90l61 -187h-12z" />
    <glyph glyph-name="Iacute" unicode="&#xcd;" horiz-adv-x="344" 
d="M-6 0l3.00098 15l49 6c28 2.66699 42.667 8.66699 44 18l105 549c0.666992 2.66699 0 5 -2 7s-6.33301 3.83301 -13 5.5s-16.667 3.16699 -30 4.5l-38 5l-2 15h273l-3 -15l-48 -6c-28 -4 -42.667 -10 -44 -18l-105 -549c-0.666992 -4.66699 1.66602 -8 6.99902 -10
s18 -4.33301 38 -7l38 -5l2 -15h-274zM213.001 664l124 187h97l-209 -187h-12z" />
    <glyph glyph-name="Icircumflex" unicode="&#xce;" horiz-adv-x="344" 
d="M-6 0l3.00098 15l49 6c28 2.66699 42.667 8.66699 44 18l105 549c0.666992 2.66699 0 5 -2 7s-6.33301 3.83301 -13 5.5s-16.667 3.16699 -30 4.5l-38 5l-2 15h273l-3 -15l-48 -6c-28 -4 -42.667 -10 -44 -18l-105 -549c-0.666992 -4.66699 1.66602 -8 6.99902 -10
s18 -4.33301 38 -7l38 -5l2 -15h-274zM116.001 656l152 194h32l81 -194h-12l-94 116h-3l-146 -116h-10z" />
    <glyph glyph-name="Idieresis" unicode="&#xcf;" horiz-adv-x="344" 
d="M-6 0l3.00098 15l49 6c28 2.66699 42.667 8.66699 44 18l105 549c0.666992 2.66699 0 5 -2 7s-6.33301 3.83301 -13 5.5s-16.667 3.16699 -30 4.5l-38 5l-2 15h273l-3 -15l-48 -6c-28 -4 -42.667 -10 -44 -18l-105 -549c-0.666992 -4.66699 1.66602 -8 6.99902 -10
s18 -4.33301 38 -7l38 -5l2 -15h-274zM356.001 687c-16.667 0 -29.834 5.83301 -39.501 17.5s-14.5 24.167 -14.5 37.5c0 14 4.83301 27.167 14.5 39.5s22.834 18.5 39.501 18.5s29.834 -6.16699 39.501 -18.5s14.5 -25.5 14.5 -39.5
c0 -13.333 -4.83301 -25.833 -14.5 -37.5s-22.834 -17.5 -39.501 -17.5zM170.001 687c-16.667 0 -29.834 5.83301 -39.501 17.5s-14.5 24.167 -14.5 37.5c0 14 4.83301 27.167 14.5 39.5s22.834 18.5 39.501 18.5s29.834 -6.16699 39.501 -18.5s14.5 -25.5 14.5 -39.5
c0 -13.333 -4.83301 -25.833 -14.5 -37.5s-22.834 -17.5 -39.501 -17.5z" />
    <glyph glyph-name="Eth" unicode="&#xd0;" horiz-adv-x="664" 
d="M130 305l-91 -0.00195312l4 21h91l50 262c0.666992 4 -1.66602 7.16699 -6.99902 9.5s-18 4.83301 -38 7.5l-33 5l-1 15l239 1c100.667 0.666992 177.5 -23.166 230.5 -71.499s79.5 -111.166 79.5 -188.499c0 -102 -36.333 -188.5 -109 -259.5
s-171.334 -106.5 -296.001 -106.5h-260l3 15l43 6c28 4 42.667 10 44 18zM228 325.998l139.001 -0.00195312l2 -21h-145l-51 -266l66 -22c97.333 0.666992 173.666 34.334 228.999 101.001s83 151.334 83 254.001c0 69.333 -18 125.833 -54 169.5s-90.333 65.5 -163 65.5
h-53z" />
    <glyph glyph-name="Ntilde" unicode="&#xd1;" horiz-adv-x="673" 
d="M500 -6l-298.002 550.005h-3l-87 -439c-4.66699 -32.667 -3.5 -54.334 3.5 -65.001s24.167 -17.667 51.5 -21l27 -4l1 -15h-214l3 15l28 4c23.333 2.66699 41 10 53 22s20 34 24 66l88 433c-3.33301 17.333 -9.66602 31.666 -18.999 42.999
s-24.666 18.666 -45.999 21.999l-22 5l-2 15h180l256 -482h3l75 377c4.66699 33.333 3.66699 55.166 -3 65.499s-23.667 17.166 -51 20.499l-27 4l-2 15h215l-3 -15l-28 -4c-23.333 -2 -41 -9 -53 -21s-20.333 -34.333 -25 -67l-104 -524h-21zM480.998 671.005
c-22 0 -51.3301 10.833 -87.9971 32.5s-60.667 32.5 -72 32.5c-13.333 0 -23.833 -3.5 -31.5 -10.5s-14.834 -22.5 -21.501 -46.5h-13c9.33301 40 20.666 68.5 33.999 85.5s32.333 25.5 57 25.5c21.333 0 50.333 -10.833 87 -32.5s61 -32.5 73 -32.5
c13.333 0 23.833 3.66699 31.5 11s15.167 22.666 22.5 45.999h14c-10 -39.333 -21.833 -67.666 -35.5 -84.999s-32.834 -26 -57.501 -26z" />
    <glyph glyph-name="Ograve" unicode="&#xd2;" horiz-adv-x="719" 
d="M357 -14c-90 0 -163 28.832 -219 86.499s-84 128.834 -84 213.501c0 94 32.5 176.333 97.5 247s147.833 106 248.5 106c89.333 0 161.833 -29 217.5 -87s83.5 -129.333 83.5 -214c0 -96 -32.833 -178.667 -98.5 -248s-147.5 -104 -245.5 -104zM351 6.99902
c48.667 0 92.834 19.667 132.501 59s69.667 87.5 90 144.5s30.5 114.5 30.5 172.5c0 69.333 -17.667 126 -53 170s-84.333 66 -147 66c-50 0 -94.833 -20 -134.5 -60s-69.334 -88.333 -89.001 -145s-29.5 -114 -29.5 -172c0 -69.333 17.833 -125.833 53.5 -169.5
s84.5 -65.5 146.5 -65.5zM434 663.999l-139 187h90l61 -187h-12z" />
    <glyph glyph-name="Oacute" unicode="&#xd3;" horiz-adv-x="719" 
d="M357 -14c-90 0 -163 28.832 -219 86.499s-84 128.834 -84 213.501c0 94 32.5 176.333 97.5 247s147.833 106 248.5 106c89.333 0 161.833 -29 217.5 -87s83.5 -129.333 83.5 -214c0 -96 -32.833 -178.667 -98.5 -248s-147.5 -104 -245.5 -104zM351 6.99902
c48.667 0 92.834 19.667 132.501 59s69.667 87.5 90 144.5s30.5 114.5 30.5 172.5c0 69.333 -17.667 126 -53 170s-84.333 66 -147 66c-50 0 -94.833 -20 -134.5 -60s-69.334 -88.333 -89.001 -145s-29.5 -114 -29.5 -172c0 -69.333 17.833 -125.833 53.5 -169.5
s84.5 -65.5 146.5 -65.5zM373 663.999l124 187h97l-209 -187h-12z" />
    <glyph glyph-name="Ocircumflex" unicode="&#xd4;" horiz-adv-x="719" 
d="M357 -14c-90 0 -163 28.832 -219 86.499s-84 128.834 -84 213.501c0 94 32.5 176.333 97.5 247s147.833 106 248.5 106c89.333 0 161.833 -29 217.5 -87s83.5 -129.333 83.5 -214c0 -96 -32.833 -178.667 -98.5 -248s-147.5 -104 -245.5 -104zM351 6.99902
c48.667 0 92.834 19.667 132.501 59s69.667 87.5 90 144.5s30.5 114.5 30.5 172.5c0 69.333 -17.667 126 -53 170s-84.333 66 -147 66c-50 0 -94.833 -20 -134.5 -60s-69.334 -88.333 -89.001 -145s-29.5 -114 -29.5 -172c0 -69.333 17.833 -125.833 53.5 -169.5
s84.5 -65.5 146.5 -65.5zM286 655.999l152 194h32l81 -194h-12l-94 116h-3l-146 -116h-10z" />
    <glyph glyph-name="Otilde" unicode="&#xd5;" horiz-adv-x="719" 
d="M357 -14c-90 0 -163 28.832 -219 86.499s-84 128.834 -84 213.501c0 94 32.5 176.333 97.5 247s147.833 106 248.5 106c89.333 0 161.833 -29 217.5 -87s83.5 -129.333 83.5 -214c0 -96 -32.833 -178.667 -98.5 -248s-147.5 -104 -245.5 -104zM351 6.99902
c48.667 0 92.834 19.667 132.501 59s69.667 87.5 90 144.5s30.5 114.5 30.5 172.5c0 69.333 -17.667 126 -53 170s-84.333 66 -147 66c-50 0 -94.833 -20 -134.5 -60s-69.334 -88.333 -89.001 -145s-29.5 -114 -29.5 -172c0 -69.333 17.833 -125.833 53.5 -169.5
s84.5 -65.5 146.5 -65.5zM503 670.999c-22 0 -51.3301 10.833 -87.9971 32.5s-60.667 32.5 -72 32.5c-13.333 0 -23.833 -3.5 -31.5 -10.5s-14.834 -22.5 -21.501 -46.5h-13c9.33301 40 20.666 68.5 33.999 85.5s32.333 25.5 57 25.5c21.333 0 50.333 -10.833 87 -32.5
s61 -32.5 73 -32.5c13.333 0 23.833 3.66699 31.5 11s15.167 22.666 22.5 45.999h14c-10 -39.333 -21.833 -67.666 -35.5 -84.999s-32.834 -26 -57.501 -26z" />
    <glyph glyph-name="Odieresis" unicode="&#xd6;" horiz-adv-x="719" 
d="M357 -14c-90 0 -163 28.832 -219 86.499s-84 128.834 -84 213.501c0 94 32.5 176.333 97.5 247s147.833 106 248.5 106c89.333 0 161.833 -29 217.5 -87s83.5 -129.333 83.5 -214c0 -96 -32.833 -178.667 -98.5 -248s-147.5 -104 -245.5 -104zM351 6.99902
c48.667 0 92.834 19.667 132.501 59s69.667 87.5 90 144.5s30.5 114.5 30.5 172.5c0 69.333 -17.667 126 -53 170s-84.333 66 -147 66c-50 0 -94.833 -20 -134.5 -60s-69.334 -88.333 -89.001 -145s-29.5 -114 -29.5 -172c0 -69.333 17.833 -125.833 53.5 -169.5
s84.5 -65.5 146.5 -65.5zM520 686.999c-16.667 0 -29.834 5.83301 -39.501 17.5s-14.5 24.167 -14.5 37.5c0 14 4.83301 27.167 14.5 39.5s22.834 18.5 39.501 18.5s29.834 -6.16699 39.501 -18.5s14.5 -25.5 14.5 -39.5c0 -13.333 -4.83301 -25.833 -14.5 -37.5
s-22.834 -17.5 -39.501 -17.5zM334 686.999c-16.667 0 -29.834 5.83301 -39.501 17.5s-14.5 24.167 -14.5 37.5c0 14 4.83301 27.167 14.5 39.5s22.834 18.5 39.501 18.5s29.834 -6.16699 39.501 -18.5s14.5 -25.5 14.5 -39.5c0 -13.333 -4.83301 -25.833 -14.5 -37.5
s-22.834 -17.5 -39.501 -17.5z" />
    <glyph glyph-name="multiply" unicode="&#xd7;" 
d="M37 61l175 175l-175 175l16 16l175 -175l175 175l16 -16l-175 -175l175 -175l-16 -16l-175 175l-175 -175z" />
    <glyph glyph-name="Oslash" unicode="&#xd8;" horiz-adv-x="719" 
d="M585 580c36.667 -27.333 65.167 -62.3311 85.5 -104.998s30.5 -88.334 30.5 -137.001c0 -96 -32.833 -178.667 -98.5 -248s-147.5 -104 -245.5 -104c-63.333 0 -119.333 15.333 -168 46l-76 -105h-24l84 116c-37.333 27.333 -66.5 62.166 -87.5 104.499
s-31.5 88.5 -31.5 138.5c0 94 32.5 176.333 97.5 247s147.833 106 248.5 106c63.333 0 120 -16 170 -48l71 98h23zM199 79.002l347 478.999c-35.333 40.667 -82.666 61 -141.999 61c-50 0 -94.833 -20 -134.5 -60s-69.334 -88.333 -89.001 -145s-29.5 -114 -29.5 -172
c0 -65.333 16 -119.666 48 -162.999zM558 543.001l-86.001 -119l-174 -240l-86 -120c36 -38 82.333 -57 139 -57c48.667 0 92.834 19.667 132.501 59s69.667 87.5 90 144.5s30.5 114.5 30.5 172.5c0 64.667 -15.333 118 -46 160z" />
    <glyph glyph-name="Ugrave" unicode="&#xd9;" horiz-adv-x="687" 
d="M345 -15c-72 0 -130.502 14.167 -175.502 42.5s-67.5 70.833 -67.5 127.5c0 24 3.33301 51 10 81l67 352c0.666992 3.33301 0.166992 5.83301 -1.5 7.5s-6 3.33398 -13 5.00098s-17.167 3.16699 -30.5 4.5l-42 5l-2 15h282l-4 -15l-52 -6
c-27.333 -2.66699 -42 -8.66699 -44 -18l-65 -340c-5.33301 -28 -8 -52.667 -8 -74c0 -100 58.333 -150 175 -150c50 0 90.333 15.5 121 46.5s52.334 80.167 65.001 147.5l61 304c5.33301 32.667 4.5 54.334 -2.5 65.001s-24.167 17.667 -51.5 21l-27 4l-2 15h215l-4 -15
l-27 -4c-23.333 -2.66699 -40.833 -9.83398 -52.5 -21.501s-20.167 -33.834 -25.5 -66.501l-62 -309c-14 -74.667 -40.167 -130.667 -78.5 -168s-91.166 -56 -158.499 -56zM463.998 664l-139 187h90l61 -187h-12z" />
    <glyph glyph-name="Uacute" unicode="&#xda;" horiz-adv-x="687" 
d="M345 -15c-72 0 -130.502 14.167 -175.502 42.5s-67.5 70.833 -67.5 127.5c0 24 3.33301 51 10 81l67 352c0.666992 3.33301 0.166992 5.83301 -1.5 7.5s-6 3.33398 -13 5.00098s-17.167 3.16699 -30.5 4.5l-42 5l-2 15h282l-4 -15l-52 -6
c-27.333 -2.66699 -42 -8.66699 -44 -18l-65 -340c-5.33301 -28 -8 -52.667 -8 -74c0 -100 58.333 -150 175 -150c50 0 90.333 15.5 121 46.5s52.334 80.167 65.001 147.5l61 304c5.33301 32.667 4.5 54.334 -2.5 65.001s-24.167 17.667 -51.5 21l-27 4l-2 15h215l-4 -15
l-27 -4c-23.333 -2.66699 -40.833 -9.83398 -52.5 -21.501s-20.167 -33.834 -25.5 -66.501l-62 -309c-14 -74.667 -40.167 -130.667 -78.5 -168s-91.166 -56 -158.499 -56zM399.998 664l124 187h97l-209 -187h-12z" />
    <glyph glyph-name="Ucircumflex" unicode="&#xdb;" horiz-adv-x="687" 
d="M345 -15c-72 0 -130.502 14.167 -175.502 42.5s-67.5 70.833 -67.5 127.5c0 24 3.33301 51 10 81l67 352c0.666992 3.33301 0.166992 5.83301 -1.5 7.5s-6 3.33398 -13 5.00098s-17.167 3.16699 -30.5 4.5l-42 5l-2 15h282l-4 -15l-52 -6
c-27.333 -2.66699 -42 -8.66699 -44 -18l-65 -340c-5.33301 -28 -8 -52.667 -8 -74c0 -100 58.333 -150 175 -150c50 0 90.333 15.5 121 46.5s52.334 80.167 65.001 147.5l61 304c5.33301 32.667 4.5 54.334 -2.5 65.001s-24.167 17.667 -51.5 21l-27 4l-2 15h215l-4 -15
l-27 -4c-23.333 -2.66699 -40.833 -9.83398 -52.5 -21.501s-20.167 -33.834 -25.5 -66.501l-62 -309c-14 -74.667 -40.167 -130.667 -78.5 -168s-91.166 -56 -158.499 -56zM304.998 656l152 194h32l81 -194h-12l-94 116h-3l-146 -116h-10z" />
    <glyph glyph-name="Udieresis" unicode="&#xdc;" horiz-adv-x="687" 
d="M345 -15c-72 0 -130.502 14.167 -175.502 42.5s-67.5 70.833 -67.5 127.5c0 24 3.33301 51 10 81l67 352c0.666992 3.33301 0.166992 5.83301 -1.5 7.5s-6 3.33398 -13 5.00098s-17.167 3.16699 -30.5 4.5l-42 5l-2 15h282l-4 -15l-52 -6
c-27.333 -2.66699 -42 -8.66699 -44 -18l-65 -340c-5.33301 -28 -8 -52.667 -8 -74c0 -100 58.333 -150 175 -150c50 0 90.333 15.5 121 46.5s52.334 80.167 65.001 147.5l61 304c5.33301 32.667 4.5 54.334 -2.5 65.001s-24.167 17.667 -51.5 21l-27 4l-2 15h215l-4 -15
l-27 -4c-23.333 -2.66699 -40.833 -9.83398 -52.5 -21.501s-20.167 -33.834 -25.5 -66.501l-62 -309c-14 -74.667 -40.167 -130.667 -78.5 -168s-91.166 -56 -158.499 -56zM529.998 687c-16.667 0 -29.834 5.83301 -39.501 17.5s-14.5 24.167 -14.5 37.5
c0 14 4.83301 27.167 14.5 39.5s22.834 18.5 39.501 18.5s29.834 -6.16699 39.501 -18.5s14.5 -25.5 14.5 -39.5c0 -13.333 -4.83301 -25.833 -14.5 -37.5s-22.834 -17.5 -39.501 -17.5zM343.998 687c-16.667 0 -29.834 5.83301 -39.501 17.5s-14.5 24.167 -14.5 37.5
c0 14 4.83301 27.167 14.5 39.5s22.834 18.5 39.501 18.5s29.834 -6.16699 39.501 -18.5s14.5 -25.5 14.5 -39.5c0 -13.333 -4.83301 -25.833 -14.5 -37.5s-22.834 -17.5 -39.501 -17.5z" />
    <glyph glyph-name="Yacute" unicode="&#xdd;" horiz-adv-x="615" 
d="M123 0l3.00098 15.002l58 6c28 2.66699 42.667 8.66699 44 18l46 237l-101 257c-10 26.667 -19.667 44.667 -29 54s-23.333 15.333 -42 18l-32 5l-1 15h272l-4 -15l-28 -2c-26 -2 -41 -9 -45 -21s0 -32.333 12 -61l81 -218h3l127 179c35.333 49.333 54 79 56 89
c2.66699 12 -5 20.333 -23 25c-6.66699 1.33301 -15.334 2.66602 -26.001 3.99902l-29 5l-2 15h220l-4 -15l-26 -4c-20.667 -3.33301 -41 -13.333 -61 -30s-46.333 -47.334 -79 -92.001l-145 -201l-47 -246c-0.666992 -2.66699 0 -5 2 -7s6.33301 -3.83301 13 -5.5
s16.667 -3.16699 30 -4.5l48 -5l1 -15h-292zM359.001 664.002l124 187h97l-209 -187h-12z" />
    <glyph glyph-name="Thorn" unicode="&#xde;" horiz-adv-x="556" 
d="M-20 0l3.00098 15.001l52 6c28 2.66699 43 8.66699 45 18l105 549c0.666992 3.33301 0.166992 5.83301 -1.5 7.5s-6 3.33398 -13 5.00098s-17.167 3.16699 -30.5 4.5l-42 5l-1 15h281l-4 -15l-52 -6c-27.333 -2.66699 -42 -8.66699 -44 -18l-17 -89h83
c65.333 0 116.166 -14.333 152.499 -43s54.5 -65 54.5 -109c0 -54.667 -23.167 -99.334 -69.5 -134.001s-104.5 -52 -174.5 -52c-28 0 -63.667 4.66699 -107 14l-27 -136c-0.666992 -3.33301 0 -6 2 -8s6.33301 -3.83301 13 -5.5s16.667 -2.83398 30 -3.50098l55 -5l2 -15
h-295zM294.001 179.001c48.667 0 87 17.667 115 53s42 78.333 42 129c0 36 -10 64.333 -30 85s-48.667 31 -86 31h-78l-53 -281c32.667 -11.333 62.667 -17 90 -17z" />
    <glyph glyph-name="germandbls" unicode="&#xdf;" horiz-adv-x="492" 
d="M336 417c36 -26.667 66.8281 -61.9971 92.4951 -105.997s37.167 -87.667 34.5 -131c-2.66699 -50.667 -21.667 -95.667 -57 -135s-75.666 -58.333 -120.999 -57c-30 0.666992 -55.5 10.334 -76.5 29.001s-30.833 39.334 -29.5 62.001
c0.666992 18 7.33398 32.667 20.001 44s27.334 16.666 44.001 15.999c21.333 -0.666992 36.333 -9.33398 45 -26.001s7.83398 -33 -2.49902 -49s-27.5 -23.667 -51.5 -23c2.66699 -6.66699 9 -14.167 19 -22.5s21.333 -12.833 34 -13.5
c26.667 -0.666992 49.5 12.5 68.5 39.5s29.167 59.5 30.5 97.5c2.66699 44.667 -8 90.667 -32 138s-60.333 89.666 -109 126.999l2 10c49.333 3.33301 86.166 16.166 110.499 38.499s37.5 56.833 39.5 103.5c1.33301 24.667 -4.16699 46.167 -16.5 64.5
s-30.166 27.5 -53.499 27.5c-33.333 0 -57.5 -15.833 -72.5 -47.5s-31.167 -88.5 -48.5 -170.5l-65 -305c-33.333 -148.667 -71 -244.334 -113 -287.001c-27.333 -27.333 -62.666 -41 -105.999 -41c-22 0 -40.5 5.5 -55.5 16.5s-22.5 25.167 -22.5 42.5
c0 12.667 4.5 24.167 13.5 34.5s20.5 15.5 34.5 15.5c18 0 32 -8.5 42 -25.5s11 -35.167 3 -54.5c18 1.33301 30 2 36 2c15.333 4 29.5 25.333 42.5 64s29.5 106.667 49.5 204l55 294l-83 2l11 33l83 7c19.333 82.667 45.5 142.5 78.5 179.5s73.833 55.5 122.5 55.5
c46.667 0 82.5 -12 107.5 -36s36.167 -54.333 33.5 -91c-2 -34.667 -15.5 -62.5 -40.5 -83.5s-57.167 -35.167 -96.5 -42.5z" />
    <glyph glyph-name="agrave" unicode="&#xe0;" horiz-adv-x="453" 
d="M310 -13c-11.333 0 -27.8311 4.33008 -49.498 12.9971s-32.5 16.334 -32.5 23.001c0 22 16 76.667 48 164h-4c-4 -6.66699 -9.66699 -16 -17 -28c-20.667 -34 -35.834 -58.667 -45.501 -74s-21.667 -32.166 -36 -50.499s-27 -30.666 -38 -36.999s-22.833 -9.5 -35.5 -9.5
c-24.667 0 -45.334 9.5 -62.001 28.5s-25 44.167 -25 75.5c0 50 13.333 100.333 40 151s58.334 94.667 95.001 132c43.333 44.667 85.666 67 126.999 67c16 0 27.333 -6.66699 34 -20s10.667 -37 12 -71h4l34 95l75 -3l-72 -200l-57 -201l46 -7l70 91l9 -7
c-20 -42 -41 -74.5 -63 -97.5s-41 -34.5 -57 -34.5zM140.002 46.9971c28.667 0 76.999 65 144.999 195c4.66699 8.66699 9.83398 22.167 15.501 40.5s8.5 30.833 8.5 37.5c-3.33301 19.333 -13.5 36.5 -30.5 51.5s-35.833 22.5 -56.5 22.5c-16 0 -30.667 -6.66699 -44 -20
c-20 -20.667 -39 -57.667 -57 -111s-27 -100 -27 -140c0 -50.667 15.333 -76 46 -76zM303.001 496.997l-139 187h90l61 -187h-12z" />
    <glyph glyph-name="aacute" unicode="&#xe1;" horiz-adv-x="453" 
d="M310 -13c-11.333 0 -27.8311 4.33008 -49.498 12.9971s-32.5 16.334 -32.5 23.001c0 22 16 76.667 48 164h-4c-4 -6.66699 -9.66699 -16 -17 -28c-20.667 -34 -35.834 -58.667 -45.501 -74s-21.667 -32.166 -36 -50.499s-27 -30.666 -38 -36.999s-22.833 -9.5 -35.5 -9.5
c-24.667 0 -45.334 9.5 -62.001 28.5s-25 44.167 -25 75.5c0 50 13.333 100.333 40 151s58.334 94.667 95.001 132c43.333 44.667 85.666 67 126.999 67c16 0 27.333 -6.66699 34 -20s10.667 -37 12 -71h4l34 95l75 -3l-72 -200l-57 -201l46 -7l70 91l9 -7
c-20 -42 -41 -74.5 -63 -97.5s-41 -34.5 -57 -34.5zM140.002 46.9971c28.667 0 76.999 65 144.999 195c4.66699 8.66699 9.83398 22.167 15.501 40.5s8.5 30.833 8.5 37.5c-3.33301 19.333 -13.5 36.5 -30.5 51.5s-35.833 22.5 -56.5 22.5c-16 0 -30.667 -6.66699 -44 -20
c-20 -20.667 -39 -57.667 -57 -111s-27 -100 -27 -140c0 -50.667 15.333 -76 46 -76zM233.001 496.997l124 187h97l-209 -187h-12z" />
    <glyph glyph-name="acircumflex" unicode="&#xe2;" horiz-adv-x="453" 
d="M310 -13c-11.333 0 -27.8311 4.33008 -49.498 12.9971s-32.5 16.334 -32.5 23.001c0 22 16 76.667 48 164h-4c-4 -6.66699 -9.66699 -16 -17 -28c-20.667 -34 -35.834 -58.667 -45.501 -74s-21.667 -32.166 -36 -50.499s-27 -30.666 -38 -36.999s-22.833 -9.5 -35.5 -9.5
c-24.667 0 -45.334 9.5 -62.001 28.5s-25 44.167 -25 75.5c0 50 13.333 100.333 40 151s58.334 94.667 95.001 132c43.333 44.667 85.666 67 126.999 67c16 0 27.333 -6.66699 34 -20s10.667 -37 12 -71h4l34 95l75 -3l-72 -200l-57 -201l46 -7l70 91l9 -7
c-20 -42 -41 -74.5 -63 -97.5s-41 -34.5 -57 -34.5zM140.002 46.9971c28.667 0 76.999 65 144.999 195c4.66699 8.66699 9.83398 22.167 15.501 40.5s8.5 30.833 8.5 37.5c-3.33301 19.333 -13.5 36.5 -30.5 51.5s-35.833 22.5 -56.5 22.5c-16 0 -30.667 -6.66699 -44 -20
c-20 -20.667 -39 -57.667 -57 -111s-27 -100 -27 -140c0 -50.667 15.333 -76 46 -76zM138.001 488.997l152 194h32l81 -194h-12l-94 116h-3l-146 -116h-10z" />
    <glyph glyph-name="atilde" unicode="&#xe3;" horiz-adv-x="453" 
d="M310 -13c-11.333 0 -27.8311 4.33008 -49.498 12.9971s-32.5 16.334 -32.5 23.001c0 22 16 76.667 48 164h-4c-4 -6.66699 -9.66699 -16 -17 -28c-20.667 -34 -35.834 -58.667 -45.501 -74s-21.667 -32.166 -36 -50.499s-27 -30.666 -38 -36.999s-22.833 -9.5 -35.5 -9.5
c-24.667 0 -45.334 9.5 -62.001 28.5s-25 44.167 -25 75.5c0 50 13.333 100.333 40 151s58.334 94.667 95.001 132c43.333 44.667 85.666 67 126.999 67c16 0 27.333 -6.66699 34 -20s10.667 -37 12 -71h4l34 95l75 -3l-72 -200l-57 -201l46 -7l70 91l9 -7
c-20 -42 -41 -74.5 -63 -97.5s-41 -34.5 -57 -34.5zM140.002 46.9971c28.667 0 76.999 65 144.999 195c4.66699 8.66699 9.83398 22.167 15.501 40.5s8.5 30.833 8.5 37.5c-3.33301 19.333 -13.5 36.5 -30.5 51.5s-35.833 22.5 -56.5 22.5c-16 0 -30.667 -6.66699 -44 -20
c-20 -20.667 -39 -57.667 -57 -111s-27 -100 -27 -140c0 -50.667 15.333 -76 46 -76zM372.001 503.997c-22 0 -51.3301 10.833 -87.9971 32.5s-60.667 32.5 -72 32.5c-13.333 0 -23.833 -3.5 -31.5 -10.5s-14.834 -22.5 -21.501 -46.5h-13
c9.33301 40 20.666 68.5 33.999 85.5s32.333 25.5 57 25.5c22 0 51.333 -10.833 88 -32.5s60.667 -32.5 72 -32.5c13.333 0 23.833 3.66699 31.5 11s15.167 22.666 22.5 45.999h14c-10 -39.333 -21.833 -67.666 -35.5 -84.999s-32.834 -26 -57.501 -26z" />
    <glyph glyph-name="adieresis" unicode="&#xe4;" horiz-adv-x="453" 
d="M310 -13c-11.333 0 -27.8311 4.33008 -49.498 12.9971s-32.5 16.334 -32.5 23.001c0 22 16 76.667 48 164h-4c-4 -6.66699 -9.66699 -16 -17 -28c-20.667 -34 -35.834 -58.667 -45.501 -74s-21.667 -32.166 -36 -50.499s-27 -30.666 -38 -36.999s-22.833 -9.5 -35.5 -9.5
c-24.667 0 -45.334 9.5 -62.001 28.5s-25 44.167 -25 75.5c0 50 13.333 100.333 40 151s58.334 94.667 95.001 132c43.333 44.667 85.666 67 126.999 67c16 0 27.333 -6.66699 34 -20s10.667 -37 12 -71h4l34 95l75 -3l-72 -200l-57 -201l46 -7l70 91l9 -7
c-20 -42 -41 -74.5 -63 -97.5s-41 -34.5 -57 -34.5zM140.002 46.9971c28.667 0 76.999 65 144.999 195c4.66699 8.66699 9.83398 22.167 15.501 40.5s8.5 30.833 8.5 37.5c-3.33301 19.333 -13.5 36.5 -30.5 51.5s-35.833 22.5 -56.5 22.5c-16 0 -30.667 -6.66699 -44 -20
c-20 -20.667 -39 -57.667 -57 -111s-27 -100 -27 -140c0 -50.667 15.333 -76 46 -76zM379.001 519.997c-16.667 0 -29.834 5.83301 -39.501 17.5s-14.5 24.167 -14.5 37.5c0 14 4.83301 27.167 14.5 39.5s22.834 18.5 39.501 18.5s29.834 -6.16699 39.501 -18.5
s14.5 -25.5 14.5 -39.5c0 -13.333 -4.83301 -25.833 -14.5 -37.5s-22.834 -17.5 -39.501 -17.5zM193.001 519.997c-16.667 0 -29.834 5.83301 -39.501 17.5s-14.5 24.167 -14.5 37.5c0 14 4.83301 27.167 14.5 39.5s22.834 18.5 39.501 18.5s29.834 -6.16699 39.501 -18.5
s14.5 -25.5 14.5 -39.5c0 -13.333 -4.83301 -25.833 -14.5 -37.5s-22.834 -17.5 -39.501 -17.5z" />
    <glyph glyph-name="aring" unicode="&#xe5;" horiz-adv-x="453" 
d="M291 504c-26.667 0 -48.333 8.66699 -65 26s-24.667 38.666 -24 63.999c0 24.667 8.16699 45.834 24.5 63.501s37.833 26.5 64.5 26.5s48.167 -8.83301 64.5 -26.5s24.5 -38.834 24.5 -63.501c0 -25.333 -8.16699 -46.666 -24.5 -63.999s-37.833 -26 -64.5 -26z
M310.001 -13c-11.333 0 -27.8311 4.33008 -49.498 12.9971s-32.5 16.334 -32.5 23.001c0 22 16 76.667 48 164h-4c-4 -6.66699 -9.66699 -16 -17 -28c-20.667 -34 -35.834 -58.667 -45.501 -74s-21.667 -32.166 -36 -50.499s-27 -30.666 -38 -36.999
s-22.833 -9.5 -35.5 -9.5c-24.667 0 -45.334 9.5 -62.001 28.5s-25 44.167 -25 75.5c0 50 13.333 100.333 40 151s58.334 94.667 95.001 132c43.333 44.667 85.666 67 126.999 67c16 0 27.333 -6.66699 34 -20s10.667 -37 12 -71h4l34 95l75 -3l-72 -200l-57 -201l46 -7
l70 91l9 -7c-20 -42 -41 -74.5 -63 -97.5s-41 -34.5 -57 -34.5zM291.003 517.997c22 0 39.667 7.33301 53 22s20 32.667 20 54c0 20.667 -6.66699 38.334 -20 53.001s-31 22 -53 22s-39.667 -7.33301 -53 -22s-20 -32.334 -20 -53.001c0 -21.333 6.66699 -39.333 20 -54
s31 -22 53 -22zM140.003 46.9971c28.667 0 76.999 65 144.999 195c4.66699 8.66699 9.83398 22.167 15.501 40.5s8.5 30.833 8.5 37.5c-3.33301 19.333 -13.5 36.5 -30.5 51.5s-35.833 22.5 -56.5 22.5c-16 0 -30.667 -6.66699 -44 -20c-20 -20.667 -39 -57.667 -57 -111
s-27 -100 -27 -140c0 -50.667 15.333 -76 46 -76z" />
    <glyph glyph-name="ae" unicode="&#xe6;" horiz-adv-x="604" 
d="M97 -13c-24.667 0 -44.834 10.332 -60.501 30.999s-23.5 47.334 -23.5 80.001c0 50 12.833 99.333 38.5 148s56.834 91.667 93.501 129c45.333 46.667 87 70 125 70c37.333 0 59 -35 65 -105c51.333 70.667 107 106 167 106c32 0 57.667 -7.5 77 -22.5
s29 -34.833 29 -59.5c0 -31.333 -19.5 -57.666 -58.5 -78.999s-105.167 -45.333 -198.5 -72c-6 -21.333 -9 -43.666 -9 -66.999c0 -70 27.333 -105 82 -105c21.333 0 41.333 6.66699 60 20s40.667 36.666 66 69.999l9 -7c-58 -91.333 -116 -137 -174 -137
c-36.667 0 -67 14 -91 42s-36 62 -36 102c0 14.667 0.666992 25.667 2 33c-39.333 -62.667 -70.833 -107.834 -94.5 -135.501s-46.5 -41.5 -68.5 -41.5zM354 226.999c67.333 21.333 114 42.667 140 64s39 48.333 39 81c0 14 -5 25.833 -15 35.5s-21.667 14.5 -35 14.5
c-15.333 0 -32 -8.33301 -50 -25c-33.333 -32 -60.333 -88.333 -81 -169zM135 49c31.333 0 79.999 64.334 145.999 193.001c15.333 29.333 24 52.666 26 69.999c-3.33301 22 -13.666 41.167 -30.999 57.5s-36.333 24.5 -57 24.5c-16.667 0 -31.667 -6.66699 -45 -20
c-20 -20.667 -38.333 -56.5 -55 -107.5s-25 -96.833 -25 -137.5c0 -24.667 3.83301 -44.167 11.5 -58.5s17.5 -21.5 29.5 -21.5z" />
    <glyph glyph-name="ccedilla" unicode="&#xe7;" horiz-adv-x="354" 
d="M130 -12c-33.333 2.66699 -60.8369 17.833 -82.5039 45.5s-32.5 60.167 -32.5 97.5c0 74 26 145 78 213s110 102 174 102c26.667 0 50.334 -7.33301 71.001 -22s31 -32.667 31 -54c0 -15.333 -5.16699 -28.5 -15.5 -39.5s-22.166 -16.5 -35.499 -16.5
c-12.667 0 -23.667 3.83301 -33 11.5s-14 17.167 -14 28.5c0 18 9 33.667 27 47c-17.333 15.333 -35 23 -53 23c-16 0 -34.333 -10.333 -55 -31c-24 -24 -45.167 -60.333 -63.5 -109s-27.5 -94.667 -27.5 -138c0 -70 25.667 -105 77 -105c22 0 41.833 6.5 59.5 19.5
s39.834 36.5 66.501 70.5l9 -7c-26 -40.667 -51.667 -73 -77 -97s-52.666 -37.333 -81.999 -40l-54 -50c37.333 2 68.166 -4 92.499 -18s36.5 -33.333 36.5 -58c0 -38 -21.333 -66.833 -64 -86.5s-98 -31.167 -166 -34.5l-1 11c112 10 168 40 168 90c0 32 -27.667 48 -83 48
c-15.333 0 -33.666 -1.66699 -54.999 -5l2 11z" />
    <glyph glyph-name="egrave" unicode="&#xe8;" horiz-adv-x="362" 
d="M142 -13c-36.667 0 -67 13.998 -91 41.998s-36 62 -36 102c0 74.667 25.833 145.834 77.5 213.501s107.5 101.5 167.5 101.5c32 0 57.667 -7.5 77 -22.5s29 -34.833 29 -59.5c0 -31.333 -19.5 -57.666 -58.5 -78.999s-105.5 -45.333 -199.5 -72
c-6 -25.333 -9 -47.666 -9 -66.999c0 -70 27.333 -105 82 -105c21.333 0 41.333 6.66699 60 20s41 36.666 67 69.999l9 -7c-58 -91.333 -116.333 -137 -175 -137zM112 226.998c67.333 21.333 114 42.667 140 64s39 48.333 39 81c0 14 -5 25.833 -15 35.5
s-21.667 14.5 -35 14.5c-16 0 -33 -8.33301 -51 -25c-34 -34 -60.667 -90.333 -80 -169zM268 496.999l-139 187h90l61 -187h-12z" />
    <glyph glyph-name="eacute" unicode="&#xe9;" horiz-adv-x="362" 
d="M142 -13c-36.667 0 -67 13.998 -91 41.998s-36 62 -36 102c0 74.667 25.833 145.834 77.5 213.501s107.5 101.5 167.5 101.5c32 0 57.667 -7.5 77 -22.5s29 -34.833 29 -59.5c0 -31.333 -19.5 -57.666 -58.5 -78.999s-105.5 -45.333 -199.5 -72
c-6 -25.333 -9 -47.666 -9 -66.999c0 -70 27.333 -105 82 -105c21.333 0 41.333 6.66699 60 20s41 36.666 67 69.999l9 -7c-58 -91.333 -116.333 -137 -175 -137zM112 226.998c67.333 21.333 114 42.667 140 64s39 48.333 39 81c0 14 -5 25.833 -15 35.5
s-21.667 14.5 -35 14.5c-16 0 -33 -8.33301 -51 -25c-34 -34 -60.667 -90.333 -80 -169zM215 496.999l124 187h97l-209 -187h-12z" />
    <glyph glyph-name="ecircumflex" unicode="&#xea;" horiz-adv-x="362" 
d="M142 -13c-36.667 0 -67 13.998 -91 41.998s-36 62 -36 102c0 74.667 25.833 145.834 77.5 213.501s107.5 101.5 167.5 101.5c32 0 57.667 -7.5 77 -22.5s29 -34.833 29 -59.5c0 -31.333 -19.5 -57.666 -58.5 -78.999s-105.5 -45.333 -199.5 -72
c-6 -25.333 -9 -47.666 -9 -66.999c0 -70 27.333 -105 82 -105c21.333 0 41.333 6.66699 60 20s41 36.666 67 69.999l9 -7c-58 -91.333 -116.333 -137 -175 -137zM112 226.998c67.333 21.333 114 42.667 140 64s39 48.333 39 81c0 14 -5 25.833 -15 35.5
s-21.667 14.5 -35 14.5c-16 0 -33 -8.33301 -51 -25c-34 -34 -60.667 -90.333 -80 -169zM118 488.999l152 194h32l81 -194h-12l-94 116h-3l-146 -116h-10z" />
    <glyph glyph-name="edieresis" unicode="&#xeb;" horiz-adv-x="362" 
d="M142 -13c-36.667 0 -67 13.998 -91 41.998s-36 62 -36 102c0 74.667 25.833 145.834 77.5 213.501s107.5 101.5 167.5 101.5c32 0 57.667 -7.5 77 -22.5s29 -34.833 29 -59.5c0 -31.333 -19.5 -57.666 -58.5 -78.999s-105.5 -45.333 -199.5 -72
c-6 -25.333 -9 -47.666 -9 -66.999c0 -70 27.333 -105 82 -105c21.333 0 41.333 6.66699 60 20s41 36.666 67 69.999l9 -7c-58 -91.333 -116.333 -137 -175 -137zM112 226.998c67.333 21.333 114 42.667 140 64s39 48.333 39 81c0 14 -5 25.833 -15 35.5
s-21.667 14.5 -35 14.5c-16 0 -33 -8.33301 -51 -25c-34 -34 -60.667 -90.333 -80 -169zM351 519.999c-16.667 0 -29.834 5.83301 -39.501 17.5s-14.5 24.167 -14.5 37.5c0 14 4.83301 27.167 14.5 39.5s22.834 18.5 39.501 18.5s29.834 -6.16699 39.501 -18.5
s14.5 -25.5 14.5 -39.5c0 -13.333 -4.83301 -25.833 -14.5 -37.5s-22.834 -17.5 -39.501 -17.5zM165 519.999c-16.667 0 -29.834 5.83301 -39.501 17.5s-14.5 24.167 -14.5 37.5c0 14 4.83301 27.167 14.5 39.5s22.834 18.5 39.501 18.5s29.834 -6.16699 39.501 -18.5
s14.5 -25.5 14.5 -39.5c0 -13.333 -4.83301 -25.833 -14.5 -37.5s-22.834 -17.5 -39.501 -17.5z" />
    <glyph glyph-name="igrave" unicode="&#xec;" horiz-adv-x="249" 
d="M103 -13c-11.333 0 -27.833 3.99902 -49.5 11.999s-32.167 15 -31.5 21c0 4 42 127.667 126 371l-54 5l-67 -96l-10 8c20.667 42.667 43.167 76.334 67.5 101.001s46.833 37 67.5 37c14 0 28.667 -6 44 -18s22.666 -24.667 21.999 -38
c0 -7.33301 -7.83301 -34.333 -23.5 -81s-35 -101.667 -58 -165s-35.167 -97 -36.5 -101l51 -8l70 90l9 -7c-19.333 -40.667 -41.166 -72.667 -65.499 -96s-44.833 -35 -61.5 -35zM196 496.999l-139 187h90l61 -187h-12z" />
    <glyph glyph-name="iacute" unicode="&#xed;" horiz-adv-x="249" 
d="M103 -13c-11.333 0 -27.833 3.99902 -49.5 11.999s-32.167 15 -31.5 21c0 4 42 127.667 126 371l-54 5l-67 -96l-10 8c20.667 42.667 43.167 76.334 67.5 101.001s46.833 37 67.5 37c14 0 28.667 -6 44 -18s22.666 -24.667 21.999 -38
c0 -7.33301 -7.83301 -34.333 -23.5 -81s-35 -101.667 -58 -165s-35.167 -97 -36.5 -101l51 -8l70 90l9 -7c-19.333 -40.667 -41.166 -72.667 -65.499 -96s-44.833 -35 -61.5 -35zM132 496.999l124 187h97l-209 -187h-12z" />
    <glyph glyph-name="icircumflex" unicode="&#xee;" horiz-adv-x="249" 
d="M46 491l146 193h32l74 -193h-13l-90 116h-3l-135 -116h-11zM103 -13c-11.333 0 -27.833 3.99902 -49.5 11.999s-32.167 15 -31.5 21c0 4 42 127.667 126 371l-54 5l-67 -96l-10 8c20.667 42.667 43.167 76.334 67.5 101.001s46.833 37 67.5 37c14 0 28.667 -6 44 -18
s22.666 -24.667 21.999 -38c0 -7.33301 -7.83301 -34.333 -23.5 -81s-35 -101.667 -58 -165s-35.167 -97 -36.5 -101l51 -8l70 90l9 -7c-19.333 -40.667 -41.166 -72.667 -65.499 -96s-44.833 -35 -61.5 -35z" />
    <glyph glyph-name="idieresis" unicode="&#xef;" horiz-adv-x="249" 
d="M103 -13c-11.333 0 -27.833 3.99902 -49.5 11.999s-32.167 15 -31.5 21c0 4 42 127.667 126 371l-54 5l-67 -96l-10 8c20.667 42.667 43.167 76.334 67.5 101.001s46.833 37 67.5 37c14 0 28.667 -6 44 -18s22.666 -24.667 21.999 -38
c0 -7.33301 -7.83301 -34.333 -23.5 -81s-35 -101.667 -58 -165s-35.167 -97 -36.5 -101l51 -8l70 90l9 -7c-19.333 -40.667 -41.166 -72.667 -65.499 -96s-44.833 -35 -61.5 -35zM292 519.999c-16.667 0 -29.834 5.83301 -39.501 17.5s-14.5 24.167 -14.5 37.5
c0 14 4.83301 27.167 14.5 39.5s22.834 18.5 39.501 18.5s29.834 -6.16699 39.501 -18.5s14.5 -25.5 14.5 -39.5c0 -13.333 -4.83301 -25.833 -14.5 -37.5s-22.834 -17.5 -39.501 -17.5zM106 519.999c-16.667 0 -29.834 5.83301 -39.501 17.5s-14.5 24.167 -14.5 37.5
c0 14 4.83301 27.167 14.5 39.5s22.834 18.5 39.501 18.5s29.834 -6.16699 39.501 -18.5s14.5 -25.5 14.5 -39.5c0 -13.333 -4.83301 -25.833 -14.5 -37.5s-22.834 -17.5 -39.501 -17.5z" />
    <glyph glyph-name="eth" unicode="&#xf0;" horiz-adv-x="414" 
d="M235 558l-130.999 -39.999l6 22l111 34c-26.667 29.333 -56.334 50.333 -89.001 63l7 18c46.667 -14 88.667 -36.667 126 -68l125 39l-4 -21l-104 -32c35.333 -34 63 -74 83 -120s30.333 -94.667 31 -146c0 -80.667 -24.167 -154 -72.5 -220s-101.833 -99 -160.5 -99
c-42 0 -76 17.667 -102 53s-39 79.333 -39 132c0 63.333 23 124.166 69 182.499s95.333 87.5 148 87.5c28 0 49.333 -9.33301 64 -28c-13.333 55.333 -36 103 -68 143zM155.001 6.00098c29.333 0 56.501 17.333 81.501 52s44.5 76 58.5 124
c11.333 39.333 17 82.666 17 129.999c0 33.333 -5.33301 60.333 -16 81s-25 31 -43 31c-24 0 -49.333 -20 -76 -60s-47.334 -83.333 -62.001 -130c-12 -41.333 -18 -80.666 -18 -117.999c0 -31.333 5.16699 -57.5 15.5 -78.5s24.5 -31.5 42.5 -31.5z" />
    <glyph glyph-name="ntilde" unicode="&#xf1;" horiz-adv-x="483" 
d="M335 -13c-11.333 0 -27.333 4.33105 -48 12.998s-31 16.334 -31 23.001c0 8 22 71.667 66 191c3.33301 10 8.5 23.833 15.5 41.5s12.333 31.667 16 42s7.16699 20.833 10.5 31.5s5 18.334 5 23.001c0 10 -4.83301 19 -14.5 27s-20.167 12 -31.5 12
c-15.333 0 -39.666 -25.167 -72.999 -75.5s-71.333 -120.5 -114 -210.5l-33 -109l-81 5l51 160l62 230l-43 5l-68 -96l-9 8c20 43.333 41.5 77.333 64.5 102s44.5 37 64.5 37c10.667 0 24.167 -6.16699 40.5 -18.5s24.5 -24.833 24.5 -37.5
c0 -13.333 -7.33301 -44.833 -22 -94.5s-30.334 -95.834 -47.001 -138.501l5 -2c65.333 132.667 116 217 152 253c24 24 49 36 75 36c18.667 0 35.667 -6 51 -18s23 -25.667 23 -41c0 -26.667 -16 -83 -48 -169c-40.667 -110 -62.667 -168.333 -66 -175l46 -7l70 91l9 -7
c-20 -41.333 -41.333 -73.666 -64 -96.999s-42 -35 -58 -35zM367 503.998c-22 0 -51.3301 10.833 -87.9971 32.5s-60.667 32.5 -72 32.5c-13.333 0 -23.833 -3.5 -31.5 -10.5s-14.834 -22.5 -21.501 -46.5h-13c9.33301 40 20.666 68.5 33.999 85.5s32.333 25.5 57 25.5
c21.333 0 50.333 -10.833 87 -32.5s61 -32.5 73 -32.5c13.333 0 23.833 3.66699 31.5 11s15.167 22.666 22.5 45.999h14c-10 -39.333 -21.833 -67.666 -35.5 -84.999s-32.834 -26 -57.501 -26z" />
    <glyph glyph-name="ograve" unicode="&#xf2;" horiz-adv-x="410" 
d="M163 -12c-42 0 -75.999 17.667 -101.999 53s-39 79.333 -39 132c0 63.333 23.167 124.333 69.5 183s95.833 88 148.5 88c43.333 0 78.833 -17.667 106.5 -53s41.5 -79 41.5 -131c0 -64 -23.833 -125.333 -71.5 -184s-98.834 -88 -153.501 -88zM155.001 6
c29.333 0 56.001 17.167 80.001 51.5s43 75.833 57 124.5c11.333 39.333 17 82.666 17 129.999c0 34 -4.83301 61.333 -14.5 82s-23.5 31 -41.5 31c-24 0 -49.333 -20 -76 -60s-47.334 -83.667 -62.001 -131c-12 -41.333 -18 -80.666 -18 -117.999
c0 -31.333 5.16699 -57.5 15.5 -78.5s24.5 -31.5 42.5 -31.5zM295.002 497l-139 187h90l61 -187h-12z" />
    <glyph glyph-name="oacute" unicode="&#xf3;" horiz-adv-x="410" 
d="M163 -12c-42 0 -75.999 17.667 -101.999 53s-39 79.333 -39 132c0 63.333 23.167 124.333 69.5 183s95.833 88 148.5 88c43.333 0 78.833 -17.667 106.5 -53s41.5 -79 41.5 -131c0 -64 -23.833 -125.333 -71.5 -184s-98.834 -88 -153.501 -88zM155.001 6
c29.333 0 56.001 17.167 80.001 51.5s43 75.833 57 124.5c11.333 39.333 17 82.666 17 129.999c0 34 -4.83301 61.333 -14.5 82s-23.5 31 -41.5 31c-24 0 -49.333 -20 -76 -60s-47.334 -83.667 -62.001 -131c-12 -41.333 -18 -80.666 -18 -117.999
c0 -31.333 5.16699 -57.5 15.5 -78.5s24.5 -31.5 42.5 -31.5zM221.002 497l124 187h97l-209 -187h-12z" />
    <glyph glyph-name="ocircumflex" unicode="&#xf4;" horiz-adv-x="410" 
d="M163 -12c-42 0 -75.999 17.667 -101.999 53s-39 79.333 -39 132c0 63.333 23.167 124.333 69.5 183s95.833 88 148.5 88c43.333 0 78.833 -17.667 106.5 -53s41.5 -79 41.5 -131c0 -64 -23.833 -125.333 -71.5 -184s-98.834 -88 -153.501 -88zM155.001 6
c29.333 0 56.001 17.167 80.001 51.5s43 75.833 57 124.5c11.333 39.333 17 82.666 17 129.999c0 34 -4.83301 61.333 -14.5 82s-23.5 31 -41.5 31c-24 0 -49.333 -20 -76 -60s-47.334 -83.667 -62.001 -131c-12 -41.333 -18 -80.666 -18 -117.999
c0 -31.333 5.16699 -57.5 15.5 -78.5s24.5 -31.5 42.5 -31.5zM131.002 489l152 194h32l81 -194h-12l-94 116h-3l-146 -116h-10z" />
    <glyph glyph-name="otilde" unicode="&#xf5;" horiz-adv-x="410" 
d="M163 -12c-42 0 -75.999 17.667 -101.999 53s-39 79.333 -39 132c0 63.333 23.167 124.333 69.5 183s95.833 88 148.5 88c43.333 0 78.833 -17.667 106.5 -53s41.5 -79 41.5 -131c0 -64 -23.833 -125.333 -71.5 -184s-98.834 -88 -153.501 -88zM155.001 6
c29.333 0 56.001 17.167 80.001 51.5s43 75.833 57 124.5c11.333 39.333 17 82.666 17 129.999c0 34 -4.83301 61.333 -14.5 82s-23.5 31 -41.5 31c-24 0 -49.333 -20 -76 -60s-47.334 -83.667 -62.001 -131c-12 -41.333 -18 -80.666 -18 -117.999
c0 -31.333 5.16699 -57.5 15.5 -78.5s24.5 -31.5 42.5 -31.5zM345.002 504c-22 0 -51.3301 10.833 -87.9971 32.5s-60.667 32.5 -72 32.5c-13.333 0 -23.833 -3.5 -31.5 -10.5s-14.834 -22.5 -21.501 -46.5h-13c9.33301 40 20.666 68.5 33.999 85.5s32.333 25.5 57 25.5
c21.333 0 50.333 -10.833 87 -32.5s61 -32.5 73 -32.5c13.333 0 23.833 3.66699 31.5 11s15.167 22.666 22.5 45.999h14c-10 -39.333 -21.833 -67.666 -35.5 -84.999s-32.834 -26 -57.501 -26z" />
    <glyph glyph-name="odieresis" unicode="&#xf6;" horiz-adv-x="410" 
d="M163 -12c-42 0 -75.999 17.667 -101.999 53s-39 79.333 -39 132c0 63.333 23.167 124.333 69.5 183s95.833 88 148.5 88c43.333 0 78.833 -17.667 106.5 -53s41.5 -79 41.5 -131c0 -64 -23.833 -125.333 -71.5 -184s-98.834 -88 -153.501 -88zM155.001 6
c29.333 0 56.001 17.167 80.001 51.5s43 75.833 57 124.5c11.333 39.333 17 82.666 17 129.999c0 34 -4.83301 61.333 -14.5 82s-23.5 31 -41.5 31c-24 0 -49.333 -20 -76 -60s-47.334 -83.667 -62.001 -131c-12 -41.333 -18 -80.666 -18 -117.999
c0 -31.333 5.16699 -57.5 15.5 -78.5s24.5 -31.5 42.5 -31.5zM374.002 520c-16.667 0 -29.834 5.83301 -39.501 17.5s-14.5 24.167 -14.5 37.5c0 14 4.83301 27.167 14.5 39.5s22.834 18.5 39.501 18.5s29.834 -6.16699 39.501 -18.5s14.5 -25.5 14.5 -39.5
c0 -13.333 -4.83301 -25.833 -14.5 -37.5s-22.834 -17.5 -39.501 -17.5zM188.002 520c-16.667 0 -29.834 5.83301 -39.501 17.5s-14.5 24.167 -14.5 37.5c0 14 4.83301 27.167 14.5 39.5s22.834 18.5 39.501 18.5s29.834 -6.16699 39.501 -18.5s14.5 -25.5 14.5 -39.5
c0 -13.333 -4.83301 -25.833 -14.5 -37.5s-22.834 -17.5 -39.501 -17.5z" />
    <glyph glyph-name="divide" unicode="&#xf7;" 
d="M277 377c0 -13.333 -4.83301 -25 -14.5 -35s-21.5 -15 -35.5 -15s-25.667 5 -35 15s-14 21.667 -14 35c0 12.667 4.66699 23.834 14 33.501s21 14.5 35 14.5s25.833 -4.83301 35.5 -14.5s14.5 -20.834 14.5 -33.501zM428 225h-400l3 22h394zM277 98
c0 -13.333 -4.66699 -25 -14 -35s-21 -15 -35 -15s-25.833 5 -35.5 15s-14.5 21.667 -14.5 35c0 12.667 4.83301 23.667 14.5 33s21.5 14 35.5 14s25.667 -4.66699 35 -14s14 -20.333 14 -33z" />
    <glyph glyph-name="oslash" unicode="&#xf8;" horiz-adv-x="410" 
d="M344 393c29.333 -34.667 44.002 -78.998 44.002 -132.998c0 -64.667 -23.833 -126.167 -71.5 -184.5s-98.834 -87.5 -153.501 -87.5c-32.667 0 -61 11.333 -85 34l-108 -150h-21c4.66699 6.66699 11.167 15.667 19.5 27s21 28.833 38 52.5s31.167 43.167 42.5 58.5l17 24
c-29.333 35.333 -44 81.666 -44 138.999c0 63.333 23.167 124.166 69.5 182.499s95.833 87.5 148.5 87.5c35.333 0 66.333 -12.667 93 -38l124 173h21c-88.667 -123.333 -133.334 -185 -134.001 -185zM99.002 81.002l205.001 284c-10 39.333 -27 59 -51 59
s-49.333 -20 -76 -60s-47.334 -83.333 -62.001 -130c-12 -41.333 -18 -80.666 -18 -117.999c0 -8.66699 0.666992 -20.334 2 -35.001zM307.003 341.002l-203 -282c10 -34.667 27 -52 51 -52c29.333 0 56 17 80 51s43 75 57 123c11.333 40 17 83.667 17 131
c0 13.333 -0.666992 23 -2 29z" />
    <glyph glyph-name="ugrave" unicode="&#xf9;" horiz-adv-x="483" 
d="M339 -14c-10.667 0 -23.999 6.16895 -39.999 18.502s-24 24.833 -24 37.5c0 14 7.33301 46 22 96s30 96 46 138l-5 1c-66.667 -134.667 -117 -219 -151 -253c-24 -24 -49 -36 -75 -36c-18.667 0 -35.667 6 -51 18s-23 25.667 -23 41c0 26.667 16 83 48 169l65 176l-46 5
l-68 -97l-10 7c20 43.333 41.333 77.333 64 102s42 37 58 37c11.333 0 27.333 -4.33301 48 -13s31 -16.334 31 -23.001c0 -8 -22 -71.667 -66 -191c-3.33301 -8.66699 -7.5 -19.834 -12.5 -33.501s-9.33301 -25.167 -13 -34.5s-7.16699 -19.166 -10.5 -29.499s-6 -19 -8 -26
s-3 -12.167 -3 -15.5c0 -9.33301 4.83301 -18 14.5 -26s20.167 -12 31.5 -12c15.333 0 39.666 25.167 72.999 75.5s71.333 120.166 114 209.499l33 110l80 -5l-50 -160c-40 -147.333 -61 -224.333 -63 -231l43 -6l69 90l9 -7c-20 -42 -41.667 -74.5 -65 -97.5
s-45 -34.5 -65 -34.5zM330.001 497.002l-139 187h90l61 -187h-12z" />
    <glyph glyph-name="uacute" unicode="&#xfa;" horiz-adv-x="483" 
d="M339 -14c-10.667 0 -23.999 6.16895 -39.999 18.502s-24 24.833 -24 37.5c0 14 7.33301 46 22 96s30 96 46 138l-5 1c-66.667 -134.667 -117 -219 -151 -253c-24 -24 -49 -36 -75 -36c-18.667 0 -35.667 6 -51 18s-23 25.667 -23 41c0 26.667 16 83 48 169l65 176l-46 5
l-68 -97l-10 7c20 43.333 41.333 77.333 64 102s42 37 58 37c11.333 0 27.333 -4.33301 48 -13s31 -16.334 31 -23.001c0 -8 -22 -71.667 -66 -191c-3.33301 -8.66699 -7.5 -19.834 -12.5 -33.501s-9.33301 -25.167 -13 -34.5s-7.16699 -19.166 -10.5 -29.499s-6 -19 -8 -26
s-3 -12.167 -3 -15.5c0 -9.33301 4.83301 -18 14.5 -26s20.167 -12 31.5 -12c15.333 0 39.666 25.167 72.999 75.5s71.333 120.166 114 209.499l33 110l80 -5l-50 -160c-40 -147.333 -61 -224.333 -63 -231l43 -6l69 90l9 -7c-20 -42 -41.667 -74.5 -65 -97.5
s-45 -34.5 -65 -34.5zM259.001 497.002l124 187h97l-209 -187h-12z" />
    <glyph glyph-name="ucircumflex" unicode="&#xfb;" horiz-adv-x="483" 
d="M339 -14c-10.667 0 -23.999 6.16895 -39.999 18.502s-24 24.833 -24 37.5c0 14 7.33301 46 22 96s30 96 46 138l-5 1c-66.667 -134.667 -117 -219 -151 -253c-24 -24 -49 -36 -75 -36c-18.667 0 -35.667 6 -51 18s-23 25.667 -23 41c0 26.667 16 83 48 169l65 176l-46 5
l-68 -97l-10 7c20 43.333 41.333 77.333 64 102s42 37 58 37c11.333 0 27.333 -4.33301 48 -13s31 -16.334 31 -23.001c0 -8 -22 -71.667 -66 -191c-3.33301 -8.66699 -7.5 -19.834 -12.5 -33.501s-9.33301 -25.167 -13 -34.5s-7.16699 -19.166 -10.5 -29.499s-6 -19 -8 -26
s-3 -12.167 -3 -15.5c0 -9.33301 4.83301 -18 14.5 -26s20.167 -12 31.5 -12c15.333 0 39.666 25.167 72.999 75.5s71.333 120.166 114 209.499l33 110l80 -5l-50 -160c-40 -147.333 -61 -224.333 -63 -231l43 -6l69 90l9 -7c-20 -42 -41.667 -74.5 -65 -97.5
s-45 -34.5 -65 -34.5zM169.001 489.002l152 194h32l81 -194h-12l-94 116h-3l-146 -116h-10z" />
    <glyph glyph-name="udieresis" unicode="&#xfc;" horiz-adv-x="483" 
d="M339 -14c-10.667 0 -23.999 6.16895 -39.999 18.502s-24 24.833 -24 37.5c0 14 7.33301 46 22 96s30 96 46 138l-5 1c-66.667 -134.667 -117 -219 -151 -253c-24 -24 -49 -36 -75 -36c-18.667 0 -35.667 6 -51 18s-23 25.667 -23 41c0 26.667 16 83 48 169l65 176l-46 5
l-68 -97l-10 7c20 43.333 41.333 77.333 64 102s42 37 58 37c11.333 0 27.333 -4.33301 48 -13s31 -16.334 31 -23.001c0 -8 -22 -71.667 -66 -191c-3.33301 -8.66699 -7.5 -19.834 -12.5 -33.501s-9.33301 -25.167 -13 -34.5s-7.16699 -19.166 -10.5 -29.499s-6 -19 -8 -26
s-3 -12.167 -3 -15.5c0 -9.33301 4.83301 -18 14.5 -26s20.167 -12 31.5 -12c15.333 0 39.666 25.167 72.999 75.5s71.333 120.166 114 209.499l33 110l80 -5l-50 -160c-40 -147.333 -61 -224.333 -63 -231l43 -6l69 90l9 -7c-20 -42 -41.667 -74.5 -65 -97.5
s-45 -34.5 -65 -34.5zM226.001 520.002c-16.667 0 -29.834 5.83301 -39.501 17.5s-14.5 24.167 -14.5 37.5c0 14 4.83301 27.167 14.5 39.5s22.834 18.5 39.501 18.5s29.834 -6.16699 39.501 -18.5s14.5 -25.5 14.5 -39.5c0 -13.333 -4.83301 -25.833 -14.5 -37.5
s-22.834 -17.5 -39.501 -17.5zM412.001 520.002c-16.667 0 -29.834 5.83301 -39.501 17.5s-14.5 24.167 -14.5 37.5c0 14 4.83301 27.167 14.5 39.5s22.834 18.5 39.501 18.5s29.834 -6.16699 39.501 -18.5s14.5 -25.5 14.5 -39.5c0 -13.333 -4.83301 -25.833 -14.5 -37.5
s-22.834 -17.5 -39.501 -17.5z" />
    <glyph glyph-name="yacute" unicode="&#xfd;" horiz-adv-x="423" 
d="M-46 -204c-26 0 -46.1602 5.50391 -60.4932 16.5039s-21.5 26.5 -21.5 46.5c0 14 5 25.5 15 34.5s21.667 13.5 35 13.5c18.667 0 33 -7.66699 43 -23s11 -32.666 3 -51.999l31 -8c21.333 4.66699 50.666 21.834 87.999 51.501s68 57.834 92 84.501
c0 112 -7.5 212.667 -22.5 302s-32.833 134 -53.5 134l-20 1l-63 -97l-10 8c23.333 49.333 43.5 84.666 60.5 105.999s37.833 32 62.5 32c29.333 0 52.166 -11.833 68.499 -35.5s28.166 -63.334 35.499 -119.001s11.666 -135.5 12.999 -239.5l4 -1
c26 43.333 52.5 98.666 79.5 165.999s40.833 116.666 41.5 147.999c-18 -10 -35.5 -10.333 -52.5 -1s-25.833 21.333 -26.5 36c-1.33301 14.667 2.5 27 11.5 37s21.167 15 36.5 15c16 0 29.833 -6 41.5 -18s17.5 -29.333 17.5 -52c0 -58 -23.333 -131.833 -70 -221.5
s-93.334 -157.167 -140.001 -202.5c-0.666992 -0.666992 -7.33398 -7.16699 -20.001 -19.5s-21.334 -20.833 -26.001 -25.5s-13.834 -13.334 -27.501 -26.001s-24.667 -22 -33 -28s-19.166 -13.833 -32.499 -23.5s-25 -16.834 -35 -21.501s-20.833 -8.83398 -32.5 -12.501
s-22.5 -5.5 -32.5 -5.5zM245.007 497.004l124 187h97l-209 -187h-12z" />
    <glyph glyph-name="thorn" unicode="&#xfe;" horiz-adv-x="418" 
d="M-132 -251l2.00293 15l30 4c14 1.33301 23.667 3 29 5s8.66602 6 9.99902 12l225 816c4 14 2.33301 21.667 -5 23l-75 10l3 12l176 27l-31 -115l-105 -338c-1.33301 -3.33301 -1.33301 -5.33301 0 -6c1.33301 0 3 1.33301 5 4c37.333 81.333 70.5 139.5 99.5 174.5
s57.5 52.5 85.5 52.5c25.333 0 45.666 -13.167 60.999 -39.5s23 -59.5 23 -99.5c0 -78.667 -26 -151.5 -78 -218.5s-108 -100.5 -168 -100.5c-30 0 -53.333 14.333 -70 43h-1l-67 -247c-0.666992 -2.66699 0.166016 -5 2.49902 -7s7 -3.83301 14 -5.5s16.5 -2.5 28.5 -2.5
l41 -4l2 -15h-237zM167.003 5c16 0 33.332 10.002 51.999 30.002c24.667 24.667 47.834 64.667 69.501 120s32.5 102.666 32.5 141.999c0 60 -15.333 90 -46 90c-20 0 -41.667 -17.333 -65 -52s-51.666 -88.334 -84.999 -161.001c-6.66699 -16 -13.334 -36 -20.001 -60
s-10 -39.333 -10 -46c4.66699 -16 14.167 -30.5 28.5 -43.5s28.833 -19.5 43.5 -19.5z" />
    <glyph glyph-name="ydieresis" unicode="&#xff;" horiz-adv-x="423" 
d="M-46 -204c-26 0 -46.1602 5.50391 -60.4932 16.5039s-21.5 26.5 -21.5 46.5c0 14 5 25.5 15 34.5s21.667 13.5 35 13.5c18.667 0 33 -7.66699 43 -23s11 -32.666 3 -51.999l31 -8c21.333 4.66699 50.666 21.834 87.999 51.501s68 57.834 92 84.501
c0 112 -7.5 212.667 -22.5 302s-32.833 134 -53.5 134l-20 1l-63 -97l-10 8c23.333 49.333 43.5 84.666 60.5 105.999s37.833 32 62.5 32c29.333 0 52.166 -11.833 68.499 -35.5s28.166 -63.334 35.499 -119.001s11.666 -135.5 12.999 -239.5l4 -1
c26 43.333 52.5 98.666 79.5 165.999s40.833 116.666 41.5 147.999c-18 -10 -35.5 -10.333 -52.5 -1s-25.833 21.333 -26.5 36c-1.33301 14.667 2.5 27 11.5 37s21.167 15 36.5 15c16 0 29.833 -6 41.5 -18s17.5 -29.333 17.5 -52c0 -58 -23.333 -131.833 -70 -221.5
s-93.334 -157.167 -140.001 -202.5c-0.666992 -0.666992 -7.33398 -7.16699 -20.001 -19.5s-21.334 -20.833 -26.001 -25.5s-13.834 -13.334 -27.501 -26.001s-24.667 -22 -33 -28s-19.166 -13.833 -32.499 -23.5s-25 -16.834 -35 -21.501s-20.833 -8.83398 -32.5 -12.501
s-22.5 -5.5 -32.5 -5.5zM385.007 520.004c-16.667 0 -29.834 5.83301 -39.501 17.5s-14.5 24.167 -14.5 37.5c0 14 4.83301 27.167 14.5 39.5s22.834 18.5 39.501 18.5s29.834 -6.16699 39.501 -18.5s14.5 -25.5 14.5 -39.5c0 -13.333 -4.83301 -25.833 -14.5 -37.5
s-22.834 -17.5 -39.501 -17.5zM199.007 520.004c-16.667 0 -29.834 5.83301 -39.501 17.5s-14.5 24.167 -14.5 37.5c0 14 4.83301 27.167 14.5 39.5s22.834 18.5 39.501 18.5s29.834 -6.16699 39.501 -18.5s14.5 -25.5 14.5 -39.5c0 -13.333 -4.83301 -25.833 -14.5 -37.5
s-22.834 -17.5 -39.501 -17.5z" />
    <glyph glyph-name="Amacron" unicode="&#x100;" horiz-adv-x="607" 
d="M361 257l-172.001 0.000976562l-52 -100l-1 -2c-30.667 -56.667 -46.334 -91.334 -47.001 -104.001c-0.666992 -14 8.33301 -23.333 27 -28c7.33301 -1.33301 17.333 -2.66602 30 -3.99902l34 -4l2 -15h-223l3 15l22 5c26.667 4 47.667 15 63 33s45 66.667 89 146
l188 360l-4 36c13.333 3.33301 28.333 9.5 45 18.5s27.667 17.5 33 25.5h13l61 -522c4.66699 -38.667 10.834 -64 18.501 -76s21.834 -19 42.501 -21l36 -5l1 -15h-275l3 15l38 4c20.667 1.33301 33.5 8.16602 38.5 20.499s5.83301 32.833 2.5 61.5zM199.999 279.001h159
l-25 253h-4zM253.999 705.001l11 30h248l-8 -30h-251z" />
    <glyph glyph-name="amacron" unicode="&#x101;" horiz-adv-x="453" 
d="M310 -13c-11.333 0 -27.8311 4.33008 -49.498 12.9971s-32.5 16.334 -32.5 23.001c0 22 16 76.667 48 164h-4c-4 -6.66699 -9.66699 -16 -17 -28c-20.667 -34 -35.834 -58.667 -45.501 -74s-21.667 -32.166 -36 -50.499s-27 -30.666 -38 -36.999s-22.833 -9.5 -35.5 -9.5
c-24.667 0 -45.334 9.5 -62.001 28.5s-25 44.167 -25 75.5c0 50 13.333 100.333 40 151s58.334 94.667 95.001 132c43.333 44.667 85.666 67 126.999 67c16 0 27.333 -6.66699 34 -20s10.667 -37 12 -71h4l34 95l75 -3l-72 -200l-57 -201l46 -7l70 91l9 -7
c-20 -42 -41 -74.5 -63 -97.5s-41 -34.5 -57 -34.5zM140.002 46.9971c28.667 0 76.999 65 144.999 195c4.66699 8.66699 9.83398 22.167 15.501 40.5s8.5 30.833 8.5 37.5c-3.33301 19.333 -13.5 36.5 -30.5 51.5s-35.833 22.5 -56.5 22.5c-16 0 -30.667 -6.66699 -44 -20
c-20 -20.667 -39 -57.667 -57 -111s-27 -100 -27 -140c0 -50.667 15.333 -76 46 -76zM189.001 526.997l11 30h248l-8 -30h-251z" />
    <glyph glyph-name="Abreve" unicode="&#x102;" horiz-adv-x="607" 
d="M361 257l-172.001 0.000976562l-52 -100l-1 -2c-30.667 -56.667 -46.334 -91.334 -47.001 -104.001c-0.666992 -14 8.33301 -23.333 27 -28c7.33301 -1.33301 17.333 -2.66602 30 -3.99902l34 -4l2 -15h-223l3 15l22 5c26.667 4 47.667 15 63 33s45 66.667 89 146
l188 360l-4 36c13.333 3.33301 28.333 9.5 45 18.5s27.667 17.5 33 25.5h13l61 -522c4.66699 -38.667 10.834 -64 18.501 -76s21.834 -19 42.501 -21l36 -5l1 -15h-275l3 15l38 4c20.667 1.33301 33.5 8.16602 38.5 20.499s5.83301 32.833 2.5 61.5zM199.999 279.001h159
l-25 253h-4zM375.999 670.001c-20.667 0 -37.834 5.00195 -51.501 15.002s-23.667 24.667 -30 44s-10.833 38.5 -13.5 57.5s-4 41.833 -4 68.5h12c7.33301 -42.667 18.333 -74.834 33 -96.501s35.667 -32.5 63 -32.5c26.667 0 50.834 10.667 72.501 32
s44.167 53.666 67.5 96.999h13c-27.333 -67.333 -49.333 -112 -66 -134c-26 -34 -58 -51 -96 -51z" />
    <glyph glyph-name="abreve" unicode="&#x103;" horiz-adv-x="453" 
d="M310 -13c-11.333 0 -27.8311 4.33008 -49.498 12.9971s-32.5 16.334 -32.5 23.001c0 22 16 76.667 48 164h-4c-4 -6.66699 -9.66699 -16 -17 -28c-20.667 -34 -35.834 -58.667 -45.501 -74s-21.667 -32.166 -36 -50.499s-27 -30.666 -38 -36.999s-22.833 -9.5 -35.5 -9.5
c-24.667 0 -45.334 9.5 -62.001 28.5s-25 44.167 -25 75.5c0 50 13.333 100.333 40 151s58.334 94.667 95.001 132c43.333 44.667 85.666 67 126.999 67c16 0 27.333 -6.66699 34 -20s10.667 -37 12 -71h4l34 95l75 -3l-72 -200l-57 -201l46 -7l70 91l9 -7
c-20 -42 -41 -74.5 -63 -97.5s-41 -34.5 -57 -34.5zM140.002 46.9971c28.667 0 76.999 65 144.999 195c4.66699 8.66699 9.83398 22.167 15.501 40.5s8.5 30.833 8.5 37.5c-3.33301 19.333 -13.5 36.5 -30.5 51.5s-35.833 22.5 -56.5 22.5c-16 0 -30.667 -6.66699 -44 -20
c-20 -20.667 -39 -57.667 -57 -111s-27 -100 -27 -140c0 -50.667 15.333 -76 46 -76zM304.001 491.997c-20.667 0 -37.834 5.00195 -51.501 15.002s-23.667 24.667 -30 44s-10.833 38.5 -13.5 57.5s-4 41.833 -4 68.5h12c7.33301 -42.667 18.333 -74.834 33 -96.501
s35.667 -32.5 63 -32.5c26.667 0 50.834 10.667 72.501 32s44.167 53.666 67.5 96.999h13c-27.333 -67.333 -49.333 -112 -66 -134c-26 -34 -58 -51 -96 -51z" />
    <glyph glyph-name="Aogonek" unicode="&#x104;" horiz-adv-x="607" 
d="M444 -230c-24.667 0.666992 -43.5 8.83301 -56.5 24.5s-18.833 35.834 -17.5 60.501c1.33301 29.333 15.666 56.5 42.999 81.5s60.333 46.167 99 63.5h-217l3 15l38 4c20.667 1.33301 33.5 8.16602 38.5 20.499s5.83301 32.833 2.5 61.5l-15 156h-173l-52 -99l-1 -1v-1
c-30.667 -57.333 -46.334 -92.666 -47.001 -105.999c-0.666992 -14 10.333 -23.333 33 -28c6.66699 -1.33301 14.667 -2.33301 24 -3l34 -4l2 -15h-223l3 15l22 5c26.667 4 47.667 15 63 33s45 67 89 147l188 359l-4 36c14 3.33301 30 9.5 48 18.5s30 17.5 36 25.5h7
l61 -522c4.66699 -38.667 10.834 -64 18.501 -76s21.834 -19 42.501 -21l36 -5l1 -15c-39.333 -6.66699 -71.5 -22.334 -96.5 -47.001s-37.833 -52 -38.5 -82c-1.33301 -40 14.667 -60.333 48 -61c17.333 0 36 6.66699 56 20l4 -5c-10 -15.333 -24 -28.5 -42 -39.5
s-37 -16.167 -57 -15.5zM199 278.999h160l-25 253h-4z" />
    <glyph glyph-name="aogonek" unicode="&#x105;" horiz-adv-x="453" 
d="M255 -230c-24 0.666992 -42.499 8.99805 -55.499 24.998s-18.833 36.667 -17.5 62c2.66699 49.333 40.334 93.333 113.001 132c-14 2.66699 -28.667 7.66699 -44 15s-23 13.666 -23 18.999c0 22 16 76.667 48 164h-4c-4 -6.66699 -9.66699 -16 -17 -28
c-20.667 -34 -35.834 -58.667 -45.501 -74s-21.667 -32.166 -36 -50.499s-27 -30.666 -38 -36.999s-22.833 -9.5 -35.5 -9.5c-24.667 0 -45.334 9.5 -62.001 28.5s-25 44.167 -25 75.5c0 50 13.333 100.333 40 151s58.334 94.667 95.001 132
c43.333 44.667 85.666 67 126.999 67c16 0 27.333 -6.66699 34 -20s10.667 -37 12 -71h4l34 95l75 -3l-72 -200l-57 -201l46 -7l70 91l9 -7c-30.667 -64 -62.334 -106 -95.001 -126c-26.667 -15.333 -47.667 -33.666 -63 -54.999s-23.666 -43 -24.999 -65
c-2.66699 -41.333 13 -62.333 47 -63c16.667 0 35.667 6.66699 57 20l3 -5c-10 -15.333 -24 -28.5 -42 -39.5s-37 -16.167 -57 -15.5zM309.001 319.998c-3.33301 19.333 -13.501 36.5 -30.501 51.5s-35.833 22.5 -56.5 22.5c-16 0 -30.667 -6.66699 -44 -20
c-20 -20.667 -39 -57.667 -57 -111s-27 -100 -27 -140c0 -50.667 15.333 -76 46 -76c28.667 0 77 65 145 195c4.66699 8.66699 9.83398 22.167 15.501 40.5s8.5 30.833 8.5 37.5z" />
    <glyph glyph-name="Cacute" unicode="&#x106;" horiz-adv-x="664" 
d="M370 675l124 187h97l-209 -187h-12zM364 -15c-95.333 0 -171.334 26.333 -228.001 79s-85 121 -85 205c0 100 35.667 186.833 107 260.5s160 110.5 266 110.5c66.667 0 122.667 -12.333 168 -37l70 16l-33 -187l-16 1l-31 139c-37.333 32 -87.333 48 -150 48
c-83.333 0 -150.666 -36.333 -201.999 -109s-77 -159 -77 -259c0 -75.333 19 -135.333 57 -180s90.667 -67 158 -67c70 0 132.667 32.333 188 97l38 68l18 -1l-52 -162l-39 1c-46 -15.333 -98.333 -23 -157 -23z" />
    <glyph glyph-name="cacute" unicode="&#x107;" horiz-adv-x="354" 
d="M206 497l124 187h97l-209 -187h-12zM142 -13c-36.667 0 -67.0029 14 -91.0029 42s-36 62 -36 102c0 74 26 145 78 213s110 102 174 102c26.667 0 50.334 -7.33301 71.001 -22s31 -32.667 31 -54c0 -15.333 -5.16699 -28.5 -15.5 -39.5s-22.166 -16.5 -35.499 -16.5
c-12.667 0 -23.667 3.83301 -33 11.5s-14 17.167 -14 28.5c0 18 9 33.667 27 47c-17.333 15.333 -35 23 -53 23c-16 0 -34.333 -10.333 -55 -31c-24 -24 -45.167 -60.333 -63.5 -109s-27.5 -94.667 -27.5 -138c0 -70 25.667 -105 77 -105c22 0 41.833 6.5 59.5 19.5
s39.834 36.5 66.501 70.5l9 -7c-27.333 -42.667 -54.333 -76.167 -81 -100.5s-56 -36.5 -88 -36.5z" />
    <glyph glyph-name="Ccircumflex" unicode="&#x108;" horiz-adv-x="664" 
d="M290 667l152 194h32l81 -194h-12l-94 116h-3l-146 -116h-10zM364 -15c-95.333 0 -171.334 26.333 -228.001 79s-85 121 -85 205c0 100 35.667 186.833 107 260.5s160 110.5 266 110.5c66.667 0 122.667 -12.333 168 -37l70 16l-33 -187l-16 1l-31 139
c-37.333 32 -87.333 48 -150 48c-83.333 0 -150.666 -36.333 -201.999 -109s-77 -159 -77 -259c0 -75.333 19 -135.333 57 -180s90.667 -67 158 -67c70 0 132.667 32.333 188 97l38 68l18 -1l-52 -162l-39 1c-46 -15.333 -98.333 -23 -157 -23z" />
    <glyph glyph-name="ccircumflex" unicode="&#x109;" horiz-adv-x="354" 
d="M120 489l152 194h32l81 -194h-12l-94 116h-3l-146 -116h-10zM142 -13c-36.667 0 -67.0029 14 -91.0029 42s-36 62 -36 102c0 74 26 145 78 213s110 102 174 102c26.667 0 50.334 -7.33301 71.001 -22s31 -32.667 31 -54c0 -15.333 -5.16699 -28.5 -15.5 -39.5
s-22.166 -16.5 -35.499 -16.5c-12.667 0 -23.667 3.83301 -33 11.5s-14 17.167 -14 28.5c0 18 9 33.667 27 47c-17.333 15.333 -35 23 -53 23c-16 0 -34.333 -10.333 -55 -31c-24 -24 -45.167 -60.333 -63.5 -109s-27.5 -94.667 -27.5 -138c0 -70 25.667 -105 77 -105
c22 0 41.833 6.5 59.5 19.5s39.834 36.5 66.501 70.5l9 -7c-27.333 -42.667 -54.333 -76.167 -81 -100.5s-56 -36.5 -88 -36.5z" />
    <glyph glyph-name="Cdotaccent" unicode="&#x10a;" horiz-adv-x="664" 
d="M364 -15c-95.333 0 -171.334 26.333 -228.001 79s-85 121 -85 205c0 100 35.667 186.833 107 260.5s160 110.5 266 110.5c66.667 0 122.667 -12.333 168 -37l70 16l-33 -187l-16 1l-31 139c-37.333 32 -87.333 48 -150 48c-83.333 0 -150.666 -36.333 -201.999 -109
s-77 -159 -77 -259c0 -75.333 19 -135.333 57 -180s90.667 -67 158 -67c70 0 132.667 32.333 188 97l38 68l18 -1l-52 -162l-39 1c-46 -15.333 -98.333 -23 -157 -23zM441.999 709c-16.667 0 -29.834 5.83301 -39.501 17.5s-14.5 24.167 -14.5 37.5
c0 14 4.83301 27.167 14.5 39.5s22.834 18.5 39.501 18.5c17.333 0 30.833 -6.16699 40.5 -18.5s14.5 -25.5 14.5 -39.5c0 -13.333 -4.83301 -25.833 -14.5 -37.5s-23.167 -17.5 -40.5 -17.5z" />
    <glyph glyph-name="cdotaccent" unicode="&#x10b;" horiz-adv-x="354" 
d="M142 -13c-36.667 0 -67.0029 14 -91.0029 42s-36 62 -36 102c0 74 26 145 78 213s110 102 174 102c26.667 0 50.334 -7.33301 71.001 -22s31 -32.667 31 -54c0 -15.333 -5.16699 -28.5 -15.5 -39.5s-22.166 -16.5 -35.499 -16.5c-12.667 0 -23.667 3.83301 -33 11.5
s-14 17.167 -14 28.5c0 18 9 33.667 27 47c-17.333 15.333 -35 23 -53 23c-16 0 -34.333 -10.333 -55 -31c-24 -24 -45.167 -60.333 -63.5 -109s-27.5 -94.667 -27.5 -138c0 -70 25.667 -105 77 -105c22 0 41.833 6.5 59.5 19.5s39.834 36.5 66.501 70.5l9 -7
c-27.333 -42.667 -54.333 -76.167 -81 -100.5s-56 -36.5 -88 -36.5zM277.997 531c-16.667 0 -29.834 5.83301 -39.501 17.5s-14.5 24.167 -14.5 37.5c0 14 4.83301 27.167 14.5 39.5s22.834 18.5 39.501 18.5c17.333 0 30.833 -6.16699 40.5 -18.5s14.5 -25.5 14.5 -39.5
c0 -13.333 -4.83301 -25.833 -14.5 -37.5s-23.167 -17.5 -40.5 -17.5z" />
    <glyph glyph-name="Ccaron" unicode="&#x10c;" horiz-adv-x="664" 
d="M404 667l-81 194h12l95 -116h3l144 116h11l-153 -194h-31zM364 -15c-95.333 0 -171.334 26.333 -228.001 79s-85 121 -85 205c0 100 35.667 186.833 107 260.5s160 110.5 266 110.5c66.667 0 122.667 -12.333 168 -37l70 16l-33 -187l-16 1l-31 139
c-37.333 32 -87.333 48 -150 48c-83.333 0 -150.666 -36.333 -201.999 -109s-77 -159 -77 -259c0 -75.333 19 -135.333 57 -180s90.667 -67 158 -67c70 0 132.667 32.333 188 97l38 68l18 -1l-52 -162l-39 1c-46 -15.333 -98.333 -23 -157 -23z" />
    <glyph glyph-name="ccaron" unicode="&#x10d;" horiz-adv-x="354" 
d="M226 489l-81 194h12l95 -116h3l144 116h11l-153 -194h-31zM142 -13c-36.667 0 -67.0029 14 -91.0029 42s-36 62 -36 102c0 74 26 145 78 213s110 102 174 102c26.667 0 50.334 -7.33301 71.001 -22s31 -32.667 31 -54c0 -15.333 -5.16699 -28.5 -15.5 -39.5
s-22.166 -16.5 -35.499 -16.5c-12.667 0 -23.667 3.83301 -33 11.5s-14 17.167 -14 28.5c0 18 9 33.667 27 47c-17.333 15.333 -35 23 -53 23c-16 0 -34.333 -10.333 -55 -31c-24 -24 -45.167 -60.333 -63.5 -109s-27.5 -94.667 -27.5 -138c0 -70 25.667 -105 77 -105
c22 0 41.833 6.5 59.5 19.5s39.834 36.5 66.501 70.5l9 -7c-27.333 -42.667 -54.333 -76.167 -81 -100.5s-56 -36.5 -88 -36.5z" />
    <glyph glyph-name="Dcaron" unicode="&#x10e;" horiz-adv-x="664" 
d="M-11 0l2.99902 14.998l43 6c28 4 42.667 10 44 18l105 549c0.666992 4 -1.66602 7.16699 -6.99902 9.5s-18 4.83301 -38 7.5l-33 5l-1 15l239 1c100.667 0.666992 177.5 -23.166 230.5 -71.499s79.5 -111.166 79.5 -188.499c0 -102 -36.5 -188.5 -109.5 -259.5
s-171.5 -106.5 -295.5 -106.5h-260zM238.999 16.998c97.333 0.666992 173.667 34.332 229 100.999s83 151.334 83 254.001c0 69.333 -18 125.833 -54 169.5s-90.333 65.5 -163 65.5h-53l-108 -568zM336 666.996l-81 194h12l95 -116h3l144 116h11l-153 -194h-31z" />
    <glyph glyph-name="dcaron" unicode="&#x10f;" horiz-adv-x="642" 
d="M524 432l-8.99902 9.00391c29.333 11.333 54.666 27.666 75.999 48.999s32 43.666 32 66.999c0 10 -2.5 19.167 -7.5 27.5s-10.833 14.833 -17.5 19.5s-13.5 8.66699 -20.5 12s-13 5.66602 -18 6.99902s-7.5 2.33301 -7.5 3c2 13.333 8.66699 25.166 20 35.499
s25.333 15.5 42 15.5c21.333 0 39.333 -7.83301 54 -23.5s22 -35.167 22 -58.5c0 -35.333 -15.333 -67.833 -46 -97.5s-70.667 -51.5 -120 -65.5zM310.001 -12.9961c-11.333 0 -27.833 4.33008 -49.5 12.9971s-32.5 16.334 -32.5 23.001c0 20.667 15.667 75.334 47 164.001
h-4c-3.33301 -6 -8.33301 -14.333 -15 -25c-20.667 -34.667 -36 -59.834 -46 -75.501s-22 -32.667 -36 -51s-26.667 -30.833 -38 -37.5s-23.333 -10 -36 -10c-24.667 0 -45.334 9.5 -62.001 28.5s-25 44.167 -25 75.5c0 50 13.333 100.333 40 151
s58.334 94.334 95.001 131.001c46 47.333 87.667 71 125 71c11.333 0 20.5 -5.5 27.5 -16.5s11.5 -21.5 13.5 -31.5s4.33301 -25.333 7 -46h4l73 251c2.66699 14.667 0.666992 22.334 -6 23.001l-88 10l3 12l191 26l-123 -392l-70 -239l46 -7l70 90l9 -7
c-20 -41.333 -41 -73.5 -63 -96.5s-41 -34.5 -57 -34.5zM140.001 47.001c29.333 0 77.666 65 144.999 195c4.66699 8.66699 9.83398 22.167 15.501 40.5s8.5 30.833 8.5 37.5c-3.33301 18.667 -13.5 35.5 -30.5 50.5s-35.833 22.5 -56.5 22.5
c-16 0 -30.667 -6.66699 -44 -20c-20 -20 -39 -56.667 -57 -110s-27 -100 -27 -140c0 -50.667 15.333 -76 46 -76z" />
    <glyph glyph-name="Dcroat" unicode="&#x110;" horiz-adv-x="664" 
d="M130 305l-91 -0.00195312l4 21h91l50 262c0.666992 4 -1.66602 7.16699 -6.99902 9.5s-18 4.83301 -38 7.5l-33 5l-1 15l239 1c100.667 0.666992 177.5 -23.166 230.5 -71.499s79.5 -111.166 79.5 -188.499c0 -102 -36.333 -188.5 -109 -259.5
s-171.334 -106.5 -296.001 -106.5h-260l3 15l43 6c28 4 42.667 10 44 18zM228 325.998l139.001 -0.00195312l2 -21h-145l-51 -266l66 -22c97.333 0.666992 173.666 34.334 228.999 101.001s83 151.334 83 254.001c0 69.333 -18 125.833 -54 169.5s-90.333 65.5 -163 65.5
h-53z" />
    <glyph glyph-name="dcroat" unicode="&#x111;" horiz-adv-x="453" 
d="M310 -13c-11.333 0 -27.833 4.33008 -49.5 12.9971s-32.5 16.334 -32.5 23.001c0 20.667 15.667 75.334 47 164.001h-4c-3.33301 -6 -8.33301 -14.333 -15 -25c-20.667 -34.667 -36 -59.834 -46 -75.501s-22 -32.667 -36 -51s-26.667 -30.833 -38 -37.5
s-23.333 -10 -36 -10c-24.667 0 -45.334 9.5 -62.001 28.5s-25 44.167 -25 75.5c0 50 13.333 100.333 40 151s58.334 94.334 95.001 131.001c46 47.333 87.667 71 125 71c11.333 0 20.5 -5.5 27.5 -16.5s11.5 -21.5 13.5 -31.5s4.33301 -25.333 7 -46h4l47 164h-117l12 30
h114l17 57c2.66699 14.667 0.666992 22.334 -6 23.001l-88 10l3 12l191 26l-40 -128h62l-9 -30h-63l-73 -234l-70 -239l46 -7l70 90l9 -7c-20 -41.333 -41 -73.5 -63 -96.5s-41 -34.5 -57 -34.5zM140 46.9971c29.333 0 77.666 65 144.999 195
c4.66699 8.66699 9.83398 22.167 15.501 40.5s8.5 30.833 8.5 37.5c-3.33301 18.667 -13.5 35.5 -30.5 50.5s-35.833 22.5 -56.5 22.5c-16 0 -30.667 -6.66699 -44 -20c-20 -20 -39 -56.667 -57 -110s-27 -100 -27 -140c0 -50.667 15.333 -76 46 -76z" />
    <glyph glyph-name="Emacron" unicode="&#x112;" horiz-adv-x="588" 
d="M-11 0l2.99512 15.001l40 6c30.667 4 46.334 10 47.001 18l105 549c0.666992 4 -1.66602 7.16699 -6.99902 9.5s-18 4.83301 -38 7.5l-32 5l-2 15h454l1 -192h-19l-6 38c-6 18.667 -10.5 32.334 -13.5 41.001s-8 19.5 -15 32.5s-14.5 22.333 -22.5 28
s-18.667 11.667 -32 18s-29.333 10.666 -48 12.999s-40.667 3.5 -66 3.5h-57l-53 -277l39 1c49.333 1.33301 83.333 6.16602 102 14.499s34.334 25.5 47.001 51.5l15 30l17 -1l-47 -213l-17 1l3 29c4 28 -2.33301 45.833 -19 53.5s-53 12.5 -109 14.5l-34 1l-55 -290l93 -4
c38 0 70.833 3.5 98.5 10.5s50.834 18 69.501 33s33.334 29.167 44.001 42.5s23 32 37 56l19 37l19 -1l-64 -196h-497zM233.995 705.001l11 30h248l-8 -30h-251z" />
    <glyph glyph-name="emacron" unicode="&#x113;" horiz-adv-x="362" 
d="M142 -13c-36.667 0 -67 13.998 -91 41.998s-36 62 -36 102c0 74.667 25.833 145.834 77.5 213.501s107.5 101.5 167.5 101.5c32 0 57.667 -7.5 77 -22.5s29 -34.833 29 -59.5c0 -31.333 -19.5 -57.666 -58.5 -78.999s-105.5 -45.333 -199.5 -72
c-6 -25.333 -9 -47.666 -9 -66.999c0 -70 27.333 -105 82 -105c21.333 0 41.333 6.66699 60 20s41 36.666 67 69.999l9 -7c-58 -91.333 -116.333 -137 -175 -137zM112 226.998c67.333 21.333 114 42.667 140 64s39 48.333 39 81c0 14 -5 25.833 -15 35.5
s-21.667 14.5 -35 14.5c-16 0 -33 -8.33301 -51 -25c-34 -34 -60.667 -90.333 -80 -169zM117 526.999l11 30h248l-8 -30h-251z" />
    <glyph glyph-name="Ebreve" unicode="&#x114;" horiz-adv-x="588" 
d="M-11 0l2.99512 15.001l40 6c30.667 4 46.334 10 47.001 18l105 549c0.666992 4 -1.66602 7.16699 -6.99902 9.5s-18 4.83301 -38 7.5l-32 5l-2 15h454l1 -192h-19l-6 38c-6 18.667 -10.5 32.334 -13.5 41.001s-8 19.5 -15 32.5s-14.5 22.333 -22.5 28
s-18.667 11.667 -32 18s-29.333 10.666 -48 12.999s-40.667 3.5 -66 3.5h-57l-53 -277l39 1c49.333 1.33301 83.333 6.16602 102 14.499s34.334 25.5 47.001 51.5l15 30l17 -1l-47 -213l-17 1l3 29c4 28 -2.33301 45.833 -19 53.5s-53 12.5 -109 14.5l-34 1l-55 -290l93 -4
c38 0 70.833 3.5 98.5 10.5s50.834 18 69.501 33s33.334 29.167 44.001 42.5s23 32 37 56l19 37l19 -1l-64 -196h-497zM370.995 670.001c-20.667 0 -37.834 5.00195 -51.501 15.002s-23.667 24.667 -30 44s-10.833 38.5 -13.5 57.5s-4 41.833 -4 68.5h12
c7.33301 -42.667 18.333 -74.834 33 -96.501s35.667 -32.5 63 -32.5c26.667 0 50.834 10.667 72.501 32s44.167 53.666 67.5 96.999h13c-27.333 -67.333 -49.333 -112 -66 -134c-26 -34 -58 -51 -96 -51z" />
    <glyph glyph-name="ebreve" unicode="&#x115;" horiz-adv-x="362" 
d="M142 -13c-36.667 0 -67 13.998 -91 41.998s-36 62 -36 102c0 74.667 25.833 145.834 77.5 213.501s107.5 101.5 167.5 101.5c32 0 57.667 -7.5 77 -22.5s29 -34.833 29 -59.5c0 -31.333 -19.5 -57.666 -58.5 -78.999s-105.5 -45.333 -199.5 -72
c-6 -25.333 -9 -47.666 -9 -66.999c0 -70 27.333 -105 82 -105c21.333 0 41.333 6.66699 60 20s41 36.666 67 69.999l9 -7c-58 -91.333 -116.333 -137 -175 -137zM112 226.998c67.333 21.333 114 42.667 140 64s39 48.333 39 81c0 14 -5 25.833 -15 35.5
s-21.667 14.5 -35 14.5c-16 0 -33 -8.33301 -51 -25c-34 -34 -60.667 -90.333 -80 -169zM241 491.999c-20.667 0 -37.834 5.00195 -51.501 15.002s-23.667 24.667 -30 44s-10.833 38.5 -13.5 57.5s-4 41.833 -4 68.5h12c7.33301 -42.667 18.333 -74.834 33 -96.501
s35.667 -32.5 63 -32.5c26.667 0 50.834 10.667 72.501 32s44.167 53.666 67.5 96.999h13c-27.333 -67.333 -49.333 -112 -66 -134c-26 -34 -58 -51 -96 -51z" />
    <glyph glyph-name="Edotaccent" unicode="&#x116;" horiz-adv-x="588" 
d="M-11 0l2.99512 15.001l40 6c30.667 4 46.334 10 47.001 18l105 549c0.666992 4 -1.66602 7.16699 -6.99902 9.5s-18 4.83301 -38 7.5l-32 5l-2 15h454l1 -192h-19l-6 38c-6 18.667 -10.5 32.334 -13.5 41.001s-8 19.5 -15 32.5s-14.5 22.333 -22.5 28
s-18.667 11.667 -32 18s-29.333 10.666 -48 12.999s-40.667 3.5 -66 3.5h-57l-53 -277l39 1c49.333 1.33301 83.333 6.16602 102 14.499s34.334 25.5 47.001 51.5l15 30l17 -1l-47 -213l-17 1l3 29c4 28 -2.33301 45.833 -19 53.5s-53 12.5 -109 14.5l-34 1l-55 -290l93 -4
c38 0 70.833 3.5 98.5 10.5s50.834 18 69.501 33s33.334 29.167 44.001 42.5s23 32 37 56l19 37l19 -1l-64 -196h-497zM362.995 709.001c-16.667 0 -29.834 5.83301 -39.501 17.5s-14.5 24.167 -14.5 37.5c0 14 4.83301 27.167 14.5 39.5s22.834 18.5 39.501 18.5
c17.333 0 30.833 -6.16699 40.5 -18.5s14.5 -25.5 14.5 -39.5c0 -13.333 -4.83301 -25.833 -14.5 -37.5s-23.167 -17.5 -40.5 -17.5z" />
    <glyph glyph-name="edotaccent" unicode="&#x117;" horiz-adv-x="362" 
d="M142 -13c-36.667 0 -67 13.998 -91 41.998s-36 62 -36 102c0 74.667 25.833 145.834 77.5 213.501s107.5 101.5 167.5 101.5c32 0 57.667 -7.5 77 -22.5s29 -34.833 29 -59.5c0 -31.333 -19.5 -57.666 -58.5 -78.999s-105.5 -45.333 -199.5 -72
c-6 -25.333 -9 -47.666 -9 -66.999c0 -70 27.333 -105 82 -105c21.333 0 41.333 6.66699 60 20s41 36.666 67 69.999l9 -7c-58 -91.333 -116.333 -137 -175 -137zM112 226.998c67.333 21.333 114 42.667 140 64s39 48.333 39 81c0 14 -5 25.833 -15 35.5
s-21.667 14.5 -35 14.5c-16 0 -33 -8.33301 -51 -25c-34 -34 -60.667 -90.333 -80 -169zM257 530.999c-16.667 0 -29.834 5.83301 -39.501 17.5s-14.5 24.167 -14.5 37.5c0 14 4.83301 27.167 14.5 39.5s22.834 18.5 39.501 18.5c17.333 0 30.833 -6.16699 40.5 -18.5
s14.5 -25.5 14.5 -39.5c0 -13.333 -4.83301 -25.833 -14.5 -37.5s-23.167 -17.5 -40.5 -17.5z" />
    <glyph glyph-name="Eogonek" unicode="&#x118;" horiz-adv-x="588" 
d="M361 -230c-24.667 0.666992 -43.501 9.00098 -56.501 25.001s-18.5 36.667 -16.5 62c2.66699 54 47 101.667 133 143h-432l3 15l40 6c30.667 4 46.334 10 47.001 18l105 549c0.666992 2.66699 0 5 -2 7s-6.33301 3.83301 -13 5.5s-16.667 3.16699 -30 4.5l-32 5l-2 15
h454l1 -192h-19l-6 38c-6 18.667 -10.5 32.334 -13.5 41.001s-8 19.5 -15 32.5s-14.5 22.333 -22.5 28s-18.667 11.667 -32 18s-29.333 10.666 -48 12.999s-40.667 3.5 -66 3.5h-57l-53 -277l39 1c49.333 1.33301 83.5 6.16602 102.5 14.499s34.833 25.5 47.5 51.5l14 30
l17 -1l-47 -213l-16 1l2 29c4 28 -2.33301 45.833 -19 53.5s-53 12.5 -109 14.5l-34 1l-55 -290l94 -4c38 0 70.667 3.5 98 10.5s50.333 18 69 33s33.334 29.167 44.001 42.5s23 32 37 56l19 37l19 -1l-64 -196h-38c-62 -36 -93.667 -78.333 -95 -127
c-2.66699 -41.333 12.666 -62.333 45.999 -63c16.667 0 35.667 6.66699 57 20l3 -5c-10 -15.333 -23.833 -28.5 -41.5 -39.5s-36.5 -16.167 -56.5 -15.5z" />
    <glyph glyph-name="eogonek" unicode="&#x119;" horiz-adv-x="362" 
d="M115 -230c-24.667 0.666992 -43.5 8.83594 -56.5 24.5029s-18.833 36.167 -17.5 61.5c0.666992 25.333 11.167 50.666 31.5 75.999s44.166 44 71.499 56h-4c-36 -0.666992 -65.833 13.166 -89.5 41.499s-35.5 62.166 -35.5 101.499c0 74.667 25.833 145.834 77.5 213.501
s107.5 101.5 167.5 101.5c32 0 57.667 -7.5 77 -22.5s29 -34.833 29 -59.5c0 -31.333 -19.5 -57.666 -58.5 -78.999s-105.5 -45.333 -199.5 -72c-6 -22.667 -9 -45 -9 -67c0 -70 27.333 -105 82 -105c21.333 0 41.333 6.66699 60 20s41 36.666 67 69.999l9 -7
c-44.667 -70 -86.667 -113.333 -126 -130c-24.667 -10 -44.667 -27.333 -60 -52s-23.666 -48 -24.999 -70c-2 -40.667 14 -61.334 48 -62.001c17.333 0 36 6.66699 56 20l3 -5c-10 -15.333 -23.833 -28.5 -41.5 -39.5s-36.5 -16.167 -56.5 -15.5zM112 227.002
c67.333 21.333 114 42.667 140 64s39 48.333 39 81c0 14 -5 25.833 -15 35.5s-21.667 14.5 -35 14.5c-17.333 0 -34.333 -8.33301 -51 -25c-34 -34 -60.667 -90.333 -80 -169z" />
    <glyph glyph-name="Ecaron" unicode="&#x11a;" horiz-adv-x="588" 
d="M351 667l-81 194h12l95 -116h3l144 116h11l-153 -194h-31zM-11 0l2.99512 15.001l40 6c30.667 4 46.334 10 47.001 18l105 549c0.666992 4 -1.66602 7.16699 -6.99902 9.5s-18 4.83301 -38 7.5l-32 5l-2 15h454l1 -192h-19l-6 38c-6 18.667 -10.5 32.334 -13.5 41.001
s-8 19.5 -15 32.5s-14.5 22.333 -22.5 28s-18.667 11.667 -32 18s-29.333 10.666 -48 12.999s-40.667 3.5 -66 3.5h-57l-53 -277l39 1c49.333 1.33301 83.333 6.16602 102 14.499s34.334 25.5 47.001 51.5l15 30l17 -1l-47 -213l-17 1l3 29c4 28 -2.33301 45.833 -19 53.5
s-53 12.5 -109 14.5l-34 1l-55 -290l93 -4c38 0 70.833 3.5 98.5 10.5s50.834 18 69.501 33s33.334 29.167 44.001 42.5s23 32 37 56l19 37l19 -1l-64 -196h-497z" />
    <glyph glyph-name="ecaron" unicode="&#x11b;" horiz-adv-x="362" 
d="M223 489l-81 194h12l95 -116h3l144 116h11l-153 -194h-31zM142 -13c-36.667 0 -67 13.998 -91 41.998s-36 62 -36 102c0 74.667 25.833 145.834 77.5 213.501s107.5 101.5 167.5 101.5c32 0 57.667 -7.5 77 -22.5s29 -34.833 29 -59.5
c0 -31.333 -19.5 -57.666 -58.5 -78.999s-105.5 -45.333 -199.5 -72c-6 -25.333 -9 -47.666 -9 -66.999c0 -70 27.333 -105 82 -105c21.333 0 41.333 6.66699 60 20s41 36.666 67 69.999l9 -7c-58 -91.333 -116.333 -137 -175 -137zM112 226.998
c67.333 21.333 114 42.667 140 64s39 48.333 39 81c0 14 -5 25.833 -15 35.5s-21.667 14.5 -35 14.5c-16 0 -33 -8.33301 -51 -25c-34 -34 -60.667 -90.333 -80 -169z" />
    <glyph glyph-name="Gcircumflex" unicode="&#x11c;" horiz-adv-x="690" 
d="M280 667l152 194h32l81 -194h-12l-94 116h-3l-146 -116h-10zM349 -15c-92.667 0 -165.498 26.165 -218.498 78.498s-79.5 120.166 -79.5 203.499c0 100 35 187.167 105 261.5s159.333 111.5 268 111.5c65.333 0 121.333 -12.667 168 -38l70 16l-33 -189h-15l-32 142
c-36 32 -85.667 48 -149 48c-54.667 0 -103.834 -17.667 -147.501 -53s-76.667 -80.666 -99 -135.999s-33.5 -114.666 -33.5 -177.999c0 -74.667 18.667 -134.667 56 -180s88.666 -68 153.999 -68c38.667 0 72 7.33301 100 22l42 209
c0.666992 4.66699 -2.16602 8.33398 -8.49902 11.001s-19.833 5 -40.5 7l-42 5l-2 15h271l-4 -15l-39 -6c-28.667 -4 -43.667 -10 -45 -18l-37 -189l54 2v-11c-94.667 -34 -182.334 -51 -263.001 -51z" />
    <glyph glyph-name="gcircumflex" unicode="&#x11d;" horiz-adv-x="394" 
d="M110 489l152 194h32l81 -194h-12l-94 116h-3l-146 -116h-10zM106 -244c-57.333 0 -104.001 10.667 -140.001 32s-54 50.333 -54 87c0 26 14.667 50.333 44 73s64 39.334 104 50.001v3c-40 20 -60 44 -60 72c0 18 9.66699 35.167 29 51.5s42.666 28.166 69.999 35.499v3
c-35.333 28 -53 65 -53 111c0 45.333 17.833 85.166 53.5 119.499s75.834 51.5 120.501 51.5c34 0 65 -9.66699 93 -29l125 16l-14 -64l-115 30v-5c28.667 -32 43 -64.667 43 -98c0 -41.333 -17.667 -78.333 -53 -111s-73.666 -49 -114.999 -49
c-26 0 -48.667 5.33301 -68 16c-14.667 -2 -26.667 -8 -36 -18s-14 -20.667 -14 -32s6.33301 -20.666 19 -27.999s38.667 -18 78 -32l26 -9c50 -18 88.333 -37 115 -57s40 -45.333 40 -76c0 -38.667 -22.667 -72.167 -68 -100.5s-102 -42.5 -170 -42.5zM162.999 151
c23.333 0 44.333 9.99902 63 29.999c18.667 18.667 33.167 44.5 43.5 77.5s15.5 63.5 15.5 91.5c0 22 -5.5 39.833 -16.5 53.5s-24.5 20.5 -40.5 20.5c-15.333 0 -31.333 -7.66699 -48 -23c-19.333 -20 -35 -46.667 -47 -80s-17.667 -63 -17 -89
c1.33301 -33.333 7 -55.666 17 -66.999c9.33301 -9.33301 19.333 -14 30 -14zM149.999 -224.001c35.333 0 65.668 9.16602 91.001 27.499s38 39.833 38 64.5c0 21.333 -11.167 39.333 -33.5 54s-52.5 28.667 -90.5 42c-47.333 16.667 -72.333 25.334 -75 26.001
c-26.667 -6.66699 -48.667 -19 -66 -37s-26 -39 -26 -63c0 -32 15.167 -59 45.5 -81s69.166 -33 116.499 -33z" />
    <glyph glyph-name="Gbreve" unicode="&#x11e;" horiz-adv-x="690" 
d="M349 -15c-92.667 0 -165.498 26.165 -218.498 78.498s-79.5 120.166 -79.5 203.499c0 100 35 187.167 105 261.5s159.333 111.5 268 111.5c65.333 0 121.333 -12.667 168 -38l70 16l-33 -189h-15l-32 142c-36 32 -85.667 48 -149 48
c-54.667 0 -103.834 -17.667 -147.501 -53s-76.667 -80.666 -99 -135.999s-33.5 -114.666 -33.5 -177.999c0 -74.667 18.667 -134.667 56 -180s88.666 -68 153.999 -68c38.667 0 72 7.33301 100 22l42 209c0.666992 4.66699 -2.16602 8.33398 -8.49902 11.001
s-19.833 5 -40.5 7l-42 5l-2 15h271l-4 -15l-39 -6c-28.667 -4 -43.667 -10 -45 -18l-37 -189l54 2v-11c-94.667 -34 -182.334 -51 -263.001 -51zM427.002 669.998c-20.667 0 -37.834 5.00195 -51.501 15.002s-23.667 24.667 -30 44s-10.833 38.5 -13.5 57.5
s-4 41.833 -4 68.5h12c7.33301 -42.667 18.333 -74.834 33 -96.501s35.667 -32.5 63 -32.5c26.667 0 50.834 10.667 72.501 32s44.167 53.666 67.5 96.999h13c-27.333 -67.333 -49.333 -112 -66 -134c-26 -34 -58 -51 -96 -51z" />
    <glyph glyph-name="gbreve" unicode="&#x11f;" horiz-adv-x="394" 
d="M106 -244c-57.333 0 -104.001 10.667 -140.001 32s-54 50.333 -54 87c0 26 14.667 50.333 44 73s64 39.334 104 50.001v3c-40 20 -60 44 -60 72c0 18 9.66699 35.167 29 51.5s42.666 28.166 69.999 35.499v3c-35.333 28 -53 65 -53 111
c0 45.333 17.833 85.166 53.5 119.499s75.834 51.5 120.501 51.5c34 0 65 -9.66699 93 -29l125 16l-14 -64l-115 30v-5c28.667 -32 43 -64.667 43 -98c0 -41.333 -17.667 -78.333 -53 -111s-73.666 -49 -114.999 -49c-26 0 -48.667 5.33301 -68 16
c-14.667 -2 -26.667 -8 -36 -18s-14 -20.667 -14 -32s6.33301 -20.666 19 -27.999s38.667 -18 78 -32l26 -9c50 -18 88.333 -37 115 -57s40 -45.333 40 -76c0 -38.667 -22.667 -72.167 -68 -100.5s-102 -42.5 -170 -42.5zM162.999 151c23.333 0 44.333 9.99902 63 29.999
c18.667 18.667 33.167 44.5 43.5 77.5s15.5 63.5 15.5 91.5c0 22 -5.5 39.833 -16.5 53.5s-24.5 20.5 -40.5 20.5c-15.333 0 -31.333 -7.66699 -48 -23c-19.333 -20 -35 -46.667 -47 -80s-17.667 -63 -17 -89c1.33301 -33.333 7 -55.666 17 -66.999
c9.33301 -9.33301 19.333 -14 30 -14zM149.999 -224.001c35.333 0 65.668 9.16602 91.001 27.499s38 39.833 38 64.5c0 21.333 -11.167 39.333 -33.5 54s-52.5 28.667 -90.5 42c-47.333 16.667 -72.333 25.334 -75 26.001c-26.667 -6.66699 -48.667 -19 -66 -37
s-26 -39 -26 -63c0 -32 15.167 -59 45.5 -81s69.166 -33 116.499 -33zM244.001 491.998c-20.667 0 -37.834 5.00195 -51.501 15.002s-23.667 24.667 -30 44s-10.833 38.5 -13.5 57.5s-4 41.833 -4 68.5h12c7.33301 -42.667 18.333 -74.834 33 -96.501s35.667 -32.5 63 -32.5
c26.667 0 50.834 10.667 72.501 32s44.167 53.666 67.5 96.999h13c-27.333 -67.333 -49.333 -112 -66 -134c-26 -34 -58 -51 -96 -51z" />
    <glyph glyph-name="Gdotaccent" unicode="&#x120;" horiz-adv-x="690" 
d="M349 -15c-92.667 0 -165.498 26.165 -218.498 78.498s-79.5 120.166 -79.5 203.499c0 100 35 187.167 105 261.5s159.333 111.5 268 111.5c65.333 0 121.333 -12.667 168 -38l70 16l-33 -189h-15l-32 142c-36 32 -85.667 48 -149 48
c-54.667 0 -103.834 -17.667 -147.501 -53s-76.667 -80.666 -99 -135.999s-33.5 -114.666 -33.5 -177.999c0 -74.667 18.667 -134.667 56 -180s88.666 -68 153.999 -68c38.667 0 72 7.33301 100 22l42 209c0.666992 4.66699 -2.16602 8.33398 -8.49902 11.001
s-19.833 5 -40.5 7l-42 5l-2 15h271l-4 -15l-39 -6c-28.667 -4 -43.667 -10 -45 -18l-37 -189l54 2v-11c-94.667 -34 -182.334 -51 -263.001 -51zM442.002 708.998c-16.667 0 -29.834 5.83301 -39.501 17.5s-14.5 24.167 -14.5 37.5c0 14 4.83301 27.167 14.5 39.5
s22.834 18.5 39.501 18.5c17.333 0 30.833 -6.16699 40.5 -18.5s14.5 -25.5 14.5 -39.5c0 -13.333 -4.83301 -25.833 -14.5 -37.5s-23.167 -17.5 -40.5 -17.5z" />
    <glyph glyph-name="gdotaccent" unicode="&#x121;" horiz-adv-x="394" 
d="M106 -244c-57.333 0 -104.001 10.667 -140.001 32s-54 50.333 -54 87c0 26 14.667 50.333 44 73s64 39.334 104 50.001v3c-40 20 -60 44 -60 72c0 18 9.66699 35.167 29 51.5s42.666 28.166 69.999 35.499v3c-35.333 28 -53 65 -53 111
c0 45.333 17.833 85.166 53.5 119.499s75.834 51.5 120.501 51.5c34 0 65 -9.66699 93 -29l125 16l-14 -64l-115 30v-5c28.667 -32 43 -64.667 43 -98c0 -41.333 -17.667 -78.333 -53 -111s-73.666 -49 -114.999 -49c-26 0 -48.667 5.33301 -68 16
c-14.667 -2 -26.667 -8 -36 -18s-14 -20.667 -14 -32s6.33301 -20.666 19 -27.999s38.667 -18 78 -32l26 -9c50 -18 88.333 -37 115 -57s40 -45.333 40 -76c0 -38.667 -22.667 -72.167 -68 -100.5s-102 -42.5 -170 -42.5zM162.999 151c23.333 0 44.333 9.99902 63 29.999
c18.667 18.667 33.167 44.5 43.5 77.5s15.5 63.5 15.5 91.5c0 22 -5.5 39.833 -16.5 53.5s-24.5 20.5 -40.5 20.5c-15.333 0 -31.333 -7.66699 -48 -23c-19.333 -20 -35 -46.667 -47 -80s-17.667 -63 -17 -89c1.33301 -33.333 7 -55.666 17 -66.999
c9.33301 -9.33301 19.333 -14 30 -14zM149.999 -224.001c35.333 0 65.668 9.16602 91.001 27.499s38 39.833 38 64.5c0 21.333 -11.167 39.333 -33.5 54s-52.5 28.667 -90.5 42c-47.333 16.667 -72.333 25.334 -75 26.001c-26.667 -6.66699 -48.667 -19 -66 -37
s-26 -39 -26 -63c0 -32 15.167 -59 45.5 -81s69.166 -33 116.499 -33zM261.001 530.998c-16.667 0 -29.834 5.83301 -39.501 17.5s-14.5 24.167 -14.5 37.5c0 14 4.83301 27.167 14.5 39.5s22.834 18.5 39.501 18.5c17.333 0 30.833 -6.16699 40.5 -18.5
s14.5 -25.5 14.5 -39.5c0 -13.333 -4.83301 -25.833 -14.5 -37.5s-23.167 -17.5 -40.5 -17.5z" />
    <glyph glyph-name="Gcommaaccent" unicode="&#x122;" horiz-adv-x="690" 
d="M349 -15c-92.667 0 -165.498 26.165 -218.498 78.498s-79.5 120.166 -79.5 203.499c0 100 35 187.167 105 261.5s159.333 111.5 268 111.5c65.333 0 121.333 -12.667 168 -38l70 16l-33 -189h-15l-32 142c-36 32 -85.667 48 -149 48
c-54.667 0 -103.834 -17.667 -147.501 -53s-76.667 -80.666 -99 -135.999s-33.5 -114.666 -33.5 -177.999c0 -74.667 18.667 -134.667 56 -180s88.666 -68 153.999 -68c38.667 0 72 7.33301 100 22l42 209c0.666992 4.66699 -2.16602 8.33398 -8.49902 11.001
s-19.833 5 -40.5 7l-42 5l-2 15h271l-4 -15l-39 -6c-28.667 -4 -43.667 -10 -45 -18l-37 -189l54 2v-11c-94.667 -34 -182.334 -51 -263.001 -51zM383.002 -139.002c-6.66699 -32 -23.834 -58.667 -51.501 -80s-58.167 -36 -91.5 -44l-15 18
c20 5.33301 38.167 14.333 54.5 27s26.5 28.667 30.5 48c2 10.667 1.83301 20.334 -0.5 29.001s-6.16602 15.667 -11.499 21s-10.833 9.83301 -16.5 13.5s-10.5 6.5 -14.5 8.5l-6 3c3.33301 14.667 10.833 26.167 22.5 34.5s26.5 11.166 44.5 8.49902
c19.333 -2.66699 34.333 -12.667 45 -30s14 -36.333 10 -57z" />
    <glyph glyph-name="gcommaaccent" unicode="&#x123;" horiz-adv-x="394" 
d="M106 -244c-57.333 0 -104.001 10.667 -140.001 32s-54 50.333 -54 87c0 26 14.667 50.333 44 73s64 39.334 104 50.001v3c-40 20 -60 44 -60 72c0 18 9.66699 35.167 29 51.5s42.666 28.166 69.999 35.499v3c-35.333 28 -53 65 -53 111
c0 45.333 17.833 85.166 53.5 119.499s75.834 51.5 120.501 51.5c34 0 65 -9.66699 93 -29l125 16l-14 -64l-115 30v-5c28.667 -32 43 -64.667 43 -98c0 -41.333 -17.667 -78.333 -53 -111s-73.666 -49 -114.999 -49c-26 0 -48.667 5.33301 -68 16
c-14.667 -2 -26.667 -8 -36 -18s-14 -20.667 -14 -32s6.33301 -20.666 19 -27.999s38.667 -18 78 -32l26 -9c50 -18 88.333 -37 115 -57s40 -45.333 40 -76c0 -38.667 -22.667 -72.167 -68 -100.5s-102 -42.5 -170 -42.5zM162.999 151c23.333 0 44.333 9.99902 63 29.999
c18.667 18.667 33.167 44.5 43.5 77.5s15.5 63.5 15.5 91.5c0 22 -5.5 39.833 -16.5 53.5s-24.5 20.5 -40.5 20.5c-15.333 0 -31.333 -7.66699 -48 -23c-19.333 -20 -35 -46.667 -47 -80s-17.667 -63 -17 -89c1.33301 -33.333 7 -55.666 17 -66.999
c9.33301 -9.33301 19.333 -14 30 -14zM149.999 -224.001c35.333 0 65.668 9.16602 91.001 27.499s38 39.833 38 64.5c0 21.333 -11.167 39.333 -33.5 54s-52.5 28.667 -90.5 42c-47.333 16.667 -72.333 25.334 -75 26.001c-26.667 -6.66699 -48.667 -19 -66 -37
s-26 -39 -26 -63c0 -32 15.167 -59 45.5 -81s69.166 -33 116.499 -33zM193.001 584.998c6.66699 32 23.834 58.667 51.501 80s58.167 36 91.5 44l15 -18c-20 -5.33301 -38.167 -14.333 -54.5 -27s-26.5 -28.667 -30.5 -48c-2 -10.667 -1.83301 -20.334 0.5 -29.001
s6.16602 -15.667 11.499 -21s10.833 -9.83301 16.5 -13.5s10.5 -6.5 14.5 -8.5l6 -3c-3.33301 -14.667 -10.833 -26.167 -22.5 -34.5s-26.5 -11.166 -44.5 -8.49902c-19.333 2.66699 -34.333 12.667 -45 30s-14 36.333 -10 57z" />
    <glyph glyph-name="Hcircumflex" unicode="&#x124;" horiz-adv-x="723" 
d="M298 667l152 194h32l81 -194h-12l-94 116h-3l-146 -116h-10zM-10 0l3.00098 15.0039l42 6c28 3.33301 43 9.33301 45 18l104 549c0.666992 2 0.666992 3.66699 0 5s-2.66699 2.66602 -6 3.99902s-8 2.66602 -14 3.99902s-14.333 2.66602 -25 3.99902l-32 5l-1 15h264
l-4 -15l-44 -6c-28 -3.33301 -42.667 -9.33301 -44 -18l-49 -258h305l50 260c1.33301 4.66699 -0.833984 8 -6.50098 10s-18.5 4.33301 -38.5 7l-35 5l-1 15h264l-4 -15l-41 -6c-28 -3.33301 -42.667 -9.33301 -44 -18l-105 -549
c-0.666992 -4.66699 1.5 -7.83398 6.5 -9.50098s17.833 -4.16699 38.5 -7.5l32 -5l1 -15h-264l3 15l45 6c28 2.66699 42.667 8.66699 44 18l51 270h-306l-51 -272c-1.33301 -4.66699 0.666992 -8 6 -10s18.333 -4.33301 39 -7l35 -5l1 -15h-264z" />
    <glyph glyph-name="hcircumflex" unicode="&#x125;" horiz-adv-x="460" 
d="M66 682l152 194h32l81 -194h-12l-94 116h-3l-146 -116h-10zM303 -13c-10.667 0 -25.834 4.33008 -45.501 12.9971s-29.5 16.334 -29.5 23.001s22 70.334 66 191.001c3.33301 10 8.5 23.833 15.5 41.5s12.333 31.667 16 42s7.16699 20.833 10.5 31.5s5 18.334 5 23.001
c0 9.33301 -4.83301 18 -14.5 26s-20.167 12 -31.5 12c-15.333 0 -39.666 -25.167 -72.999 -75.5s-71 -120.166 -113 -209.499l-35 -109l-81 5c0.666992 2 4.33398 13.167 11.001 33.5s14.167 43.333 22.5 69s14.5 44.5 18.5 56.5c11.333 36 27 90.833 47 164.5
s37 138.167 51 193.5l21 84c4 14 2.33301 21.667 -5 23l-75 10l3 12l175 26l-30 -115c-8 -26.667 -19.333 -65.834 -34 -117.501s-26.167 -91.667 -34.5 -120s-17.5 -58.5 -27.5 -90.5s-18.667 -56.333 -26 -73l7 -1c64.667 131.333 115.334 215.333 152.001 252
c24 24 49 36 75 36c18.667 0 35.667 -5.83301 51 -17.5s23 -25.5 23 -41.5c0 -26 -16 -82 -48 -168c-6 -16 -14.333 -38.5 -25 -67.5s-19.834 -53.5 -27.501 -73.5s-11.834 -31.333 -12.501 -34l45 -7l70 90l9 -7c-19.333 -40.667 -41 -72.667 -65 -96s-44.333 -35 -61 -35z
" />
    <glyph glyph-name="Hbar" unicode="&#x126;" horiz-adv-x="723" 
d="M651 0l-263.999 0.000976562l3 15l45 6c28 2.66699 42.667 8.66699 44 18l51 270h-306l-51 -272c-1.33301 -4.66699 0.666992 -8 6 -10s18.333 -4.33301 39 -7l35 -5l1 -15h-264l3 15l42 6c28 3.33301 43 9.33301 45 18l73 391h-86l11 29h81l25 129
c0.666992 2.66699 0.166992 5 -1.5 7s-5.83398 3.83301 -12.501 5.5s-17 3.16699 -31 4.5l-32 5l-1 15h264l-4 -15l-44 -6c-28 -2.66699 -42.667 -8.66699 -44 -18l-25 -127h306l26 129c0.666992 4.66699 -1.83301 8 -7.5 10s-18.5 4.33301 -38.5 7l-35 5l-1 15h264l-4 -15
l-41 -6c-28 -2.66699 -42.667 -8.66699 -44 -18l-26 -127h69l-9 -29h-65l-74 -393c-0.666992 -4.66699 1.5 -7.83398 6.5 -9.50098s17.833 -4.16699 38.5 -7.5l32 -5zM229.001 328.001h305l20 102h-306z" />
    <glyph glyph-name="hbar" unicode="&#x127;" horiz-adv-x="460" 
d="M75 515l11.001 29.998h62l16 57c4 14 2.33301 21.667 -5 23l-75 10l3 12l175 26c-5.33301 -17.333 -10.5 -35.5 -15.5 -54.5s-9.33301 -35.333 -13 -49s-5.83398 -21.834 -6.50098 -24.501h112l-8 -30h-112c-7.33301 -25.333 -19.5 -67.5 -36.5 -126.5
s-31.333 -107.667 -43 -146s-21.5 -66.833 -29.5 -85.5l7 -1c64.667 131.333 115.334 215.333 152.001 252c24 24 49 36 75 36c18.667 0 35.667 -5.83301 51 -17.5s23 -25.5 23 -41.5c0 -26 -16 -82 -48 -168c-6 -16 -14.333 -38.5 -25 -67.5s-19.834 -53.5 -27.501 -73.5
s-11.834 -31.333 -12.501 -34l45 -7l70 90l9 -7c-19.333 -40.667 -41 -72.667 -65 -96s-44.333 -35 -61 -35c-10.667 0 -25.834 4.33301 -45.501 13s-29.5 16.334 -29.5 23.001s22 70.334 66 191.001c4 10.667 10.667 28.334 20 53.001s16.333 43.667 21 57
s7 22.666 7 27.999c0 9.33301 -5 18 -15 26s-20.667 12 -32 12c-15.333 0 -39.666 -25.167 -72.999 -75.5s-71 -120.166 -113 -209.499l-35 -109l-81 5c0.666992 2 4.33398 13.167 11.001 33.5s14.167 43.333 22.5 69s14.5 44.5 18.5 56.5c8.66699 27.333 25.5 89 50.5 185
s40.167 152.667 45.5 170h-66z" />
    <glyph glyph-name="Imacron" unicode="&#x12a;" horiz-adv-x="344" 
d="M-6 0l3.00098 15l49 6c28 2.66699 42.667 8.66699 44 18l105 549c0.666992 2.66699 0 5 -2 7s-6.33301 3.83301 -13 5.5s-16.667 3.16699 -30 4.5l-38 5l-2 15h273l-3 -15l-48 -6c-28 -4 -42.667 -10 -44 -18l-105 -549c-0.666992 -4.66699 1.66602 -8 6.99902 -10
s18 -4.33301 38 -7l38 -5l2 -15h-274zM128.001 705l11 30h248l-8 -30h-251z" />
    <glyph glyph-name="imacron" unicode="&#x12b;" horiz-adv-x="249" 
d="M103 -13c-11.333 0 -27.833 3.99902 -49.5 11.999s-32.167 15 -31.5 21c0 4 42 127.667 126 371l-54 5l-67 -96l-10 8c20.667 42.667 43.167 76.334 67.5 101.001s46.833 37 67.5 37c14 0 28.667 -6 44 -18s22.666 -24.667 21.999 -38
c0 -7.33301 -7.83301 -34.333 -23.5 -81s-35 -101.667 -58 -165s-35.167 -97 -36.5 -101l51 -8l70 90l9 -7c-19.333 -40.667 -41.166 -72.667 -65.499 -96s-44.833 -35 -61.5 -35zM52 526.999l11 30h248l-8 -30h-251z" />
    <glyph glyph-name="Ibreve" unicode="&#x12c;" horiz-adv-x="344" 
d="M-6 0l3.00098 15l49 6c28 2.66699 42.667 8.66699 44 18l105 549c0.666992 2.66699 0 5 -2 7s-6.33301 3.83301 -13 5.5s-16.667 3.16699 -30 4.5l-38 5l-2 15h273l-3 -15l-48 -6c-28 -4 -42.667 -10 -44 -18l-105 -549c-0.666992 -4.66699 1.66602 -8 6.99902 -10
s18 -4.33301 38 -7l38 -5l2 -15h-274zM253.001 670c-20.667 0 -37.834 5.00195 -51.501 15.002s-23.667 24.667 -30 44s-10.833 38.5 -13.5 57.5s-4 41.833 -4 68.5h12c7.33301 -42.667 18.333 -74.834 33 -96.501s35.667 -32.5 63 -32.5c26.667 0 50.834 10.667 72.501 32
s44.167 53.666 67.5 96.999h13c-27.333 -67.333 -49.333 -112 -66 -134c-26 -34 -58 -51 -96 -51z" />
    <glyph glyph-name="ibreve" unicode="&#x12d;" horiz-adv-x="249" 
d="M103 -13c-11.333 0 -27.833 3.99902 -49.5 11.999s-32.167 15 -31.5 21c0 4 42 127.667 126 371l-54 5l-67 -96l-10 8c20.667 42.667 43.167 76.334 67.5 101.001s46.833 37 67.5 37c14 0 28.667 -6 44 -18s22.666 -24.667 21.999 -38
c0 -7.33301 -7.83301 -34.333 -23.5 -81s-35 -101.667 -58 -165s-35.167 -97 -36.5 -101l51 -8l70 90l9 -7c-19.333 -40.667 -41.166 -72.667 -65.499 -96s-44.833 -35 -61.5 -35zM176 491.999c-20.667 0 -37.834 5.00195 -51.501 15.002s-23.667 24.667 -30 44
s-10.833 38.5 -13.5 57.5s-4 41.833 -4 68.5h12c7.33301 -42.667 18.333 -74.834 33 -96.501s35.667 -32.5 63 -32.5c26.667 0 50.834 10.667 72.501 32s44.167 53.666 67.5 96.999h13c-27.333 -67.333 -49.333 -112 -66 -134c-26 -34 -58 -51 -96 -51z" />
    <glyph glyph-name="Iogonek" unicode="&#x12e;" horiz-adv-x="344" 
d="M145 -230c-24.667 0.666992 -43.665 8.83301 -56.998 24.5s-19.333 36.167 -18 61.5c1.33301 32.667 16.833 62.334 46.5 89.001s64.834 45 105.501 55h-228l3 15l49 6c28 2.66699 42.667 8.66699 44 18l105 549c0.666992 2.66699 0 5 -2 7s-6.33301 3.83301 -13 5.5
s-16.667 3.16699 -30 4.5l-38 5l-2 15h273l-3 -15l-48 -6c-28 -2.66699 -42.667 -8.66699 -44 -18l-105 -549c-0.666992 -4.66699 1.66602 -8 6.99902 -10s18 -4.33301 38 -7l38 -5l2 -15c-36.667 -6.66699 -67.834 -22.667 -93.501 -48s-38.834 -52 -39.501 -80
c-2 -40.667 14 -61.334 48 -62.001c16.667 0 35.667 6.66699 57 20l3 -5c-10 -15.333 -23.833 -28.5 -41.5 -39.5s-36.5 -16.167 -56.5 -15.5z" />
    <glyph glyph-name="iogonek" unicode="&#x12f;" horiz-adv-x="249" 
d="M49 -230c-24.667 0.666992 -43.499 8.99805 -56.499 24.998s-18.5 36.667 -16.5 62c0.666992 26.667 12 51.5 34 74.5s49 42.5 81 58.5c-12.667 1.33301 -27 5.5 -43 12.5s-23.667 12.833 -23 17.5c0 4 42 127.667 126 371l-54 5l-67 -96l-10 8
c20.667 42.667 43.167 76.334 67.5 101.001s46.833 37 67.5 37c14 0 28.667 -6 44 -18s22.666 -24.667 21.999 -38c0 -7.33301 -7.83301 -34.333 -23.5 -81s-35 -101.667 -58 -165s-35.167 -97 -36.5 -101l51 -8l70 90l9 -7c-30.667 -64 -66 -106.667 -106 -128
c-26.667 -13.333 -47.5 -30.666 -62.5 -51.999s-22.833 -43 -23.5 -65c-2.66699 -41.333 13 -62.333 47 -63c16 0 34.667 6.66699 56 20l3 -5c-10 -15.333 -23.833 -28.5 -41.5 -39.5s-36.5 -16.167 -56.5 -15.5zM286.001 596.998
c-0.666992 -18.667 -6.00098 -34.5 -16.001 -47.5s-22 -19.5 -36 -19.5c-15.333 0 -27.666 4.83301 -36.999 14.5s-14 21.834 -14 36.501c0 18.667 5 34.5 15 47.5s22 19.5 36 19.5c16 0 28.667 -4.83301 38 -14.5s14 -21.834 14 -36.501z" />
    <glyph glyph-name="Idotaccent" unicode="&#x130;" horiz-adv-x="344" 
d="M-6 0l3.00098 15l49 6c28 2.66699 42.667 8.66699 44 18l105 549c0.666992 2.66699 0 5 -2 7s-6.33301 3.83301 -13 5.5s-16.667 3.16699 -30 4.5l-38 5l-2 15h273l-3 -15l-48 -6c-28 -4 -42.667 -10 -44 -18l-105 -549c-0.666992 -4.66699 1.66602 -8 6.99902 -10
s18 -4.33301 38 -7l38 -5l2 -15h-274zM272.001 709c-16.667 0 -29.834 5.83301 -39.501 17.5s-14.5 24.167 -14.5 37.5c0 14 4.83301 27.167 14.5 39.5s22.834 18.5 39.501 18.5c17.333 0 30.833 -6.16699 40.5 -18.5s14.5 -25.5 14.5 -39.5
c0 -13.333 -4.83301 -25.833 -14.5 -37.5s-23.167 -17.5 -40.5 -17.5z" />
    <glyph glyph-name="dotlessi" unicode="&#x131;" horiz-adv-x="249" 
d="M103 -13c-11.333 0 -27.833 3.99902 -49.5 11.999s-32.167 15 -31.5 21c0 4 42 127.667 126 371l-54 5l-67 -96l-10 8c20.667 42.667 43.167 76.334 67.5 101.001s46.833 37 67.5 37c14 0 28.667 -6 44 -18s22.666 -24.667 21.999 -38
c0 -7.33301 -7.83301 -34.333 -23.5 -81s-35 -101.667 -58 -165s-35.167 -97 -36.5 -101l51 -8l70 90l9 -7c-19.333 -40.667 -41.166 -72.667 -65.499 -96s-44.833 -35 -61.5 -35z" />
    <glyph glyph-name="Jcircumflex" unicode="&#x134;" horiz-adv-x="344" 
d="M128 667l152 194h32l81 -194h-12l-94 116h-3l-146 -116h-10zM-12 -121c-27.333 0 -49 5.66504 -65 16.998s-24 26.333 -24 45c0 16 5.5 29.333 16.5 40s24.833 16 41.5 16c27.333 0 44.833 -11.667 52.5 -35s2.5 -44.666 -15.5 -63.999
c25.333 -3.33301 47.833 9.83398 67.5 39.501s35.167 76.167 46.5 139.5l101 511c0.666992 2.66699 0 5 -2 7s-6.33301 3.83301 -13 5.5s-16.667 3.16699 -30 4.5l-41 5l-2 15h276l-4 -15l-47 -6c-28 -3.33301 -42.667 -9.33301 -44 -18l-104 -525
c-7.33301 -44.667 -32.833 -86.167 -76.5 -124.5s-88.167 -57.5 -133.5 -57.5z" />
    <glyph glyph-name="jcircumflex" unicode="&#x135;" horiz-adv-x="233" 
d="M38 489l152 194h32l81 -194h-12l-94 116h-3l-146 -116h-10zM-104 -253c-16.667 0 -31.834 5.33301 -45.501 16s-20.5 24 -20.5 40c0 12 4.5 22.667 13.5 32s20.167 14 33.5 14c18 0 31.5 -7.33301 40.5 -22s9.16699 -32 0.5 -52l39 13c18.667 24.667 43.667 95 75 211
l111 393l-50 4l-71 -96l-9 8c20 42.667 42.333 76.334 67 101.001s47.334 37 68.001 37c14 0 28.833 -6.16699 44.5 -18.5s23.167 -24.833 22.5 -37.5c0 -12.667 -13.333 -63.834 -40 -153.501s-48 -154.5 -64 -194.5c-41.333 -125.333 -83.333 -209.333 -126 -252
c-27.333 -28.667 -57 -43 -89 -43z" />
    <glyph glyph-name="Kcommaaccent" unicode="&#x136;" horiz-adv-x="662" 
d="M-11 0l2.99805 15l46 6c26 2.66699 39.667 8.66699 41 18l105 549c0.666992 3.33301 0.333984 5.66602 -0.999023 6.99902s-5.16602 3 -11.499 5s-16.166 3.66699 -29.499 5l-35 5l-2 15h272l-4 -15l-52 -6c-27.333 -2.66699 -42 -8.66699 -44 -18l-58 -307l186 158
c88 76 135 123.333 141 142c3.33301 11.333 -4.33398 19.333 -23.001 24c-5.33301 0.666992 -12.333 1.66699 -21 3l-37 4v15h248l-3 -14l-17 -2c-28.667 -2.66699 -56.5 -13.167 -83.5 -31.5s-80.833 -61.833 -161.5 -130.5l-64 -56l133 -301
c13.333 -30.667 23.666 -49.667 30.999 -57s20.333 -12.333 39 -15l29 -3l2 -15h-259l3 15l30 4c18.667 1.33301 29.334 8.33301 32.001 21s-2.33301 35.334 -15 68.001l-97 224l-99 -83l-41 -212c-0.666992 -4.66699 1.83301 -8.16699 7.5 -10.5s18.167 -4.5 37.5 -6.5
l42 -5l2 -15h-272zM342.998 -139c-6.66699 -32 -23.834 -58.667 -51.501 -80s-58.167 -36 -91.5 -44l-15 18c20 5.33301 38.167 14.333 54.5 27s26.5 28.667 30.5 48c2 10.667 1.83301 20.334 -0.5 29.001s-6.16602 15.667 -11.499 21s-10.833 9.83301 -16.5 13.5
s-10.5 6.5 -14.5 8.5l-6 3c3.33301 14.667 10.833 26.167 22.5 34.5s26.5 11.166 44.5 8.49902c19.333 -2.66699 34.333 -12.667 45 -30s14 -36.333 10 -57z" />
    <glyph glyph-name="kcommaaccent" unicode="&#x137;" horiz-adv-x="421" 
d="M280 -13c-20 0 -37.3311 8.00293 -51.998 24.0029c-4 64.667 -11.333 118.5 -22 161.5s-23.334 64.5 -38.001 64.5c-5.33301 0 -10.833 -1.16699 -16.5 -3.5s-10 -4.66602 -13 -6.99902s-4.5 -3.83301 -4.5 -4.5l-60 -226l-81 5l11 33c6.66699 20 14.167 43 22.5 69
s14.5 45 18.5 57c11.333 36 27 90.833 47 164.5s37 138.167 51 193.5l21 84c4 14 2.33301 21.667 -5 23l-75 10l3 12l175 26l-30 -115c-47.333 -160.667 -78.333 -264.334 -93 -311.001c5.33301 1.33301 13.666 2 24.999 2c32.667 12.667 68.167 29.167 106.5 49.5
s59.5 34.5 63.5 42.5v4c-24.667 9.33301 -37 26.666 -37 51.999c0 12.667 5.33301 24.167 16 34.5s22.667 15.5 36 15.5c14.667 0 27.334 -5.33301 38.001 -16s16 -23.334 16 -38.001c0 -22.667 -9 -42.5 -27 -59.5s-54.667 -36.5 -110 -58.5l-60 -24
c23.333 -4 43.666 -27.833 60.999 -71.5s29 -89.834 35 -138.501l27 -2l66 97l8 -6c-16.667 -42 -36 -76.333 -58 -103s-43.667 -40 -65 -40zM212.002 -138.997c-6.66699 -32 -23.834 -58.667 -51.501 -80s-58.167 -36 -91.5 -44l-15 18c20 5.33301 38.167 14.333 54.5 27
s26.5 28.667 30.5 48c2 10.667 1.83301 20.334 -0.5 29.001s-6.16602 15.667 -11.499 21s-10.833 9.83301 -16.5 13.5s-10.5 6.5 -14.5 8.5l-6 3c3.33301 14.667 10.833 26.167 22.5 34.5s26.5 11.166 44.5 8.49902c19.333 -2.66699 34.333 -12.667 45 -30
s14 -36.333 10 -57z" />
    <glyph glyph-name="Lacute" unicode="&#x139;" horiz-adv-x="557" 
d="M213 675l124 187h97l-209 -187h-12zM-11 0l2.99609 15l46 6c26 2.66699 39.667 8.66699 41 18l104 549c0.666992 2.66699 0.333984 4.83398 -0.999023 6.50098s-5.16602 3.5 -11.499 5.5s-16.166 3.66699 -29.499 5l-35 5l-2 15h281l-3 -15l-61 -6
c-28 -2.66699 -42.667 -8.66699 -44 -18l-107 -564l77 -4c36.667 0 67.334 2.83301 92.001 8.5s46 15.667 64 30s32.5 29.166 43.5 44.499s24.167 37.333 39.5 66l19 42h20l-64 -209h-472z" />
    <glyph glyph-name="lacute" unicode="&#x13a;" horiz-adv-x="231" 
d="M135 690l124 187h97l-209 -187h-12zM84 -13c-10.667 0 -26.3311 4.33203 -46.998 12.999s-30.334 15.334 -29.001 20.001l157 582c4 14 2.33301 21.667 -5 23l-75 10l3 12l175 26l-178 -631l43 -7l69 90l10 -7c-20 -41.333 -41.333 -73.5 -64 -96.5
s-42.334 -34.5 -59.001 -34.5z" />
    <glyph glyph-name="Lcommaaccent" unicode="&#x13b;" horiz-adv-x="557" 
d="M-11 0l2.99609 15l46 6c26 2.66699 39.667 8.66699 41 18l104 549c0.666992 2.66699 0.333984 4.83398 -0.999023 6.50098s-5.16602 3.5 -11.499 5.5s-16.166 3.66699 -29.499 5l-35 5l-2 15h281l-3 -15l-61 -6c-28 -2.66699 -42.667 -8.66699 -44 -18l-107 -564l77 -4
c36.667 0 67.334 2.83301 92.001 8.5s46 15.667 64 30s32.5 29.166 43.5 44.499s24.167 37.333 39.5 66l19 42h20l-64 -209h-472zM302.996 -139c-6.66699 -32 -23.834 -58.667 -51.501 -80s-58.167 -36 -91.5 -44l-15 18c20 5.33301 38.167 14.333 54.5 27
s26.5 28.667 30.5 48c2 10.667 1.83301 20.334 -0.5 29.001s-6.16602 15.667 -11.499 21s-10.833 9.83301 -16.5 13.5s-10.5 6.5 -14.5 8.5l-6 3c3.33301 14.667 10.833 26.167 22.5 34.5s26.5 11.166 44.5 8.49902c19.333 -2.66699 34.333 -12.667 45 -30
s14 -36.333 10 -57z" />
    <glyph glyph-name="lcommaaccent" unicode="&#x13c;" horiz-adv-x="231" 
d="M82 -13c-10.667 0 -26.3311 4.33203 -46.998 12.999s-30.334 15.334 -29.001 20.001l157 582c4 14 2.33301 21.667 -5 23l-75 10l3 12l175 26l-178 -631l43 -7l69 90l10 -7c-20 -41.333 -41.333 -73.5 -64 -96.5s-42.334 -34.5 -59.001 -34.5zM112.003 -139.001
c-6.66699 -32 -23.834 -58.667 -51.501 -80s-58.167 -36 -91.5 -44l-15 18c20 5.33301 38.167 14.333 54.5 27s26.5 28.667 30.5 48c2 10.667 1.83301 20.334 -0.5 29.001s-6.16602 15.667 -11.499 21s-10.833 9.83301 -16.5 13.5s-10.5 6.5 -14.5 8.5l-6 3
c3.33301 14.667 10.833 26.167 22.5 34.5s26.5 11.166 44.5 8.49902c19.333 -2.66699 34.333 -12.667 45 -30s14 -36.333 10 -57z" />
    <glyph glyph-name="Lcaron" unicode="&#x13d;" horiz-adv-x="655" 
d="M537 391l-8.99902 9.00195c29.333 11.333 54.666 27.5 75.999 48.5s32 43.5 32 67.5c0 10 -2.5 19.167 -7.5 27.5s-11 14.833 -18 19.5s-13.833 8.66699 -20.5 12s-12.5 5.66602 -17.5 6.99902s-7.5 2.33301 -7.5 3c2 13.333 8.66699 25.166 20 35.499
s25.333 15.5 42 15.5c21.333 0 39.333 -7.83301 54 -23.5s22 -35.167 22 -58.5c0 -35.333 -15.333 -67.833 -46 -97.5s-70.667 -51.5 -120 -65.5zM-10.999 0.00195312l2.99609 15l46 6c26 2.66699 39.667 8.66699 41 18l104 549
c0.666992 2.66699 0.333984 4.83398 -0.999023 6.50098s-5.16602 3.5 -11.499 5.5s-16.166 3.66699 -29.499 5l-35 5l-2 15h281l-3 -15l-61 -6c-28 -2.66699 -42.667 -8.66699 -44 -18l-107 -564l77 -4c36.667 0 67.334 2.83301 92.001 8.5s46 15.667 64 30
s32.5 29.166 43.5 44.499s24.167 37.333 39.5 66l19 42h20l-64 -209h-472z" />
    <glyph glyph-name="lcaron" unicode="&#x13e;" horiz-adv-x="414" 
d="M289 433l-8.99902 9.00195c29.333 11.333 54.666 27.5 75.999 48.5s32 43.5 32 67.5c0 10 -2.5 19.167 -7.5 27.5s-11 14.833 -18 19.5s-13.833 8.66699 -20.5 12s-12.5 5.66602 -17.5 6.99902s-7.5 2.33301 -7.5 3c2 13.333 8.66699 25.166 20 35.499
s25.333 15.5 42 15.5c21.333 0 39.333 -7.83301 54 -23.5s22 -35.167 22 -58.5c0 -35.333 -15.333 -67.833 -46 -97.5s-70.667 -51.5 -120 -65.5zM84.001 -12.998c-10.667 0 -26.3311 4.33203 -46.998 12.999s-30.334 15.334 -29.001 20.001l157 582
c4 14 2.33301 21.667 -5 23l-75 10l3 12l175 26l-178 -631l43 -7l69 90l10 -7c-20 -41.333 -41.333 -73.5 -64 -96.5s-42.334 -34.5 -59.001 -34.5z" />
    <glyph glyph-name="Ldot" unicode="&#x13f;" horiz-adv-x="631" 
d="M-11 0l2.99609 15l46 6c26 2.66699 39.667 8.66699 41 18l104 549c0.666992 2.66699 0.333984 4.83398 -0.999023 6.50098s-5.16602 3.5 -11.499 5.5s-16.166 3.66699 -29.499 5l-35 5l-2 15h281l-3 -15l-61 -6c-28 -2.66699 -42.667 -8.66699 -44 -18l-107 -564l77 -4
c36.667 0 67.334 2.83301 92.001 8.5s46 15.667 64 30s32.5 29.166 43.5 44.499s24.167 37.333 39.5 66l19 42h20l-64 -209h-472zM666.996 244c-17.333 0 -32 6.16699 -44 18.5s-18 26.833 -18 43.5c0 16 5.83301 30 17.5 42s26.167 18 43.5 18s32 -6 44 -18s18 -26 18 -42
c0 -16.667 -5.83301 -31.167 -17.5 -43.5s-26.167 -18.5 -43.5 -18.5z" />
    <glyph glyph-name="ldotaccent" unicode="&#x140;" horiz-adv-x="391" 
d="M84 -13c-10.667 0 -26.3311 4.33203 -46.998 12.999s-30.334 15.334 -29.001 20.001l157 582c4 14 2.33301 21.667 -5 23l-75 10l3 12l175 26l-178 -631l43 -7l69 90l10 -7c-20 -41.333 -41.333 -73.5 -64 -96.5s-42.334 -34.5 -59.001 -34.5zM332.003 249.999
c-17.333 0 -32 6.16699 -44 18.5s-18 26.833 -18 43.5c0 16 5.83301 30 17.5 42s26.167 18 43.5 18c18 0 32.833 -6 44.5 -18s17.5 -26 17.5 -42c0 -16.667 -5.83301 -31.167 -17.5 -43.5s-26.167 -18.5 -43.5 -18.5z" />
    <glyph glyph-name="Lslash" unicode="&#x141;" horiz-adv-x="557" 
d="M121 258l-24 -7l-48 -14l-24 -7l3 22c4 1.33301 9.33301 3 16 5s17.167 5 31.5 9s26.5 7.33301 36.5 10l14 4l58 308c0.666992 2.66699 0 5 -2 7s-6.33301 3.83301 -13 5.5s-16.667 3.16699 -30 4.5l-42 5l-2 15h291l-4 -15l-60 -6c-28 -2.66699 -43 -8.66699 -45 -18
l-52 -276l109 32l-1 -21l-113 -33l-12 -66l-26 -134l-12 -66l77 -4c36.667 0 67.5 3 92.5 9s46.5 16.333 64.5 31s32.333 29.5 43 44.5s24 36.5 40 64.5l18 42h21l-68 -209h-478l3 15l52 6c28 2.66699 43 8.66699 45 18s4.33301 21.5 7 36.5s7.16699 38.5 13.5 70.5
s11.5 58.667 15.5 80z" />
    <glyph glyph-name="lslash" unicode="&#x142;" horiz-adv-x="233" 
d="M84 244l-83.001 -24.0029l3 21c3.33301 1.33301 8 2.83301 14 4.5s15.333 4.33398 28 8.00098s23.334 6.5 32.001 8.5l12 4l91 336c2.66699 14.667 0.666992 22.334 -6 23.001l-75 10l3 12l175 26l-107 -383l72 22v-21l-79 -23
c-42 -149.333 -63.333 -224.666 -64 -225.999l43 -7l70 90l9 -7c-20 -41.333 -41.167 -73.5 -63.5 -96.5s-41.833 -34.5 -58.5 -34.5c-10.667 0 -26.167 5.33301 -46.5 16s-29.833 18.667 -28.5 24z" />
    <glyph glyph-name="Nacute" unicode="&#x143;" horiz-adv-x="673" 
d="M378 675l124 187h97l-209 -187h-12zM500 -6l-298.002 550.005h-3l-87 -439c-4.66699 -32.667 -3.5 -54.334 3.5 -65.001s24.167 -17.667 51.5 -21l27 -4l1 -15h-214l3 15l28 4c23.333 2.66699 41 10 53 22s20 34 24 66l88 433
c-3.33301 17.333 -9.66602 31.666 -18.999 42.999s-24.666 18.666 -45.999 21.999l-22 5l-2 15h180l256 -482h3l75 377c4.66699 33.333 3.66699 55.166 -3 65.499s-23.667 17.166 -51 20.499l-27 4l-2 15h215l-3 -15l-28 -4c-23.333 -2 -41 -9 -53 -21
s-20.333 -34.333 -25 -67l-104 -524h-21z" />
    <glyph glyph-name="nacute" unicode="&#x144;" horiz-adv-x="483" 
d="M258 497l124 187h97l-209 -187h-12zM335 -13c-11.333 0 -27.333 4.33105 -48 12.998s-31 16.334 -31 23.001c0 8 22 71.667 66 191c3.33301 10 8.5 23.833 15.5 41.5s12.333 31.667 16 42s7.16699 20.833 10.5 31.5s5 18.334 5 23.001c0 10 -4.83301 19 -14.5 27
s-20.167 12 -31.5 12c-15.333 0 -39.666 -25.167 -72.999 -75.5s-71.333 -120.5 -114 -210.5l-33 -109l-81 5l51 160l62 230l-43 5l-68 -96l-9 8c20 43.333 41.5 77.333 64.5 102s44.5 37 64.5 37c10.667 0 24.167 -6.16699 40.5 -18.5s24.5 -24.833 24.5 -37.5
c0 -13.333 -7.33301 -44.833 -22 -94.5s-30.334 -95.834 -47.001 -138.501l5 -2c65.333 132.667 116 217 152 253c24 24 49 36 75 36c18.667 0 35.667 -6 51 -18s23 -25.667 23 -41c0 -26.667 -16 -83 -48 -169c-40.667 -110 -62.667 -168.333 -66 -175l46 -7l70 91l9 -7
c-20 -41.333 -41.333 -73.666 -64 -96.999s-42 -35 -58 -35z" />
    <glyph glyph-name="Ncommaaccent" unicode="&#x145;" horiz-adv-x="673" 
d="M500 -6l-298.002 550.005h-3l-87 -439c-4.66699 -32.667 -3.5 -54.334 3.5 -65.001s24.167 -17.667 51.5 -21l27 -4l1 -15h-214l3 15l28 4c23.333 2.66699 41 10 53 22s20 34 24 66l88 433c-3.33301 17.333 -9.66602 31.666 -18.999 42.999
s-24.666 18.666 -45.999 21.999l-22 5l-2 15h180l256 -482h3l75 377c4.66699 33.333 3.66699 55.166 -3 65.499s-23.667 17.166 -51 20.499l-27 4l-2 15h215l-3 -15l-28 -4c-23.333 -2 -41 -9 -53 -21s-20.333 -34.333 -25 -67l-104 -524h-21zM364.998 -138.995
c-6.66699 -32 -23.834 -58.667 -51.501 -80s-58.167 -36 -91.5 -44l-15 18c20 5.33301 38.167 14.333 54.5 27s26.5 28.667 30.5 48c2 10.667 1.83301 20.334 -0.5 29.001s-6.16602 15.667 -11.499 21s-10.833 9.83301 -16.5 13.5s-10.5 6.5 -14.5 8.5l-6 3
c3.33301 14.667 10.833 26.167 22.5 34.5s26.5 11.166 44.5 8.49902c19.333 -2.66699 34.333 -12.667 45 -30s14 -36.333 10 -57z" />
    <glyph glyph-name="ncommaaccent" unicode="&#x146;" horiz-adv-x="483" 
d="M335 -13c-11.333 0 -27.333 4.33105 -48 12.998s-31 16.334 -31 23.001c0 8 22 71.667 66 191c3.33301 10 8.5 23.833 15.5 41.5s12.333 31.667 16 42s7.16699 20.833 10.5 31.5s5 18.334 5 23.001c0 10 -4.83301 19 -14.5 27s-20.167 12 -31.5 12
c-15.333 0 -39.666 -25.167 -72.999 -75.5s-71.333 -120.5 -114 -210.5l-33 -109l-81 5l51 160l62 230l-43 5l-68 -96l-9 8c20 43.333 41.5 77.333 64.5 102s44.5 37 64.5 37c10.667 0 24.167 -6.16699 40.5 -18.5s24.5 -24.833 24.5 -37.5
c0 -13.333 -7.33301 -44.833 -22 -94.5s-30.334 -95.834 -47.001 -138.501l5 -2c65.333 132.667 116 217 152 253c24 24 49 36 75 36c18.667 0 35.667 -6 51 -18s23 -25.667 23 -41c0 -26.667 -16 -83 -48 -169c-40.667 -110 -62.667 -168.333 -66 -175l46 -7l70 91l9 -7
c-20 -41.333 -41.333 -73.666 -64 -96.999s-42 -35 -58 -35zM240 -139.002c-6.66699 -32 -23.834 -58.667 -51.501 -80s-58.167 -36 -91.5 -44l-15 18c20 5.33301 38.167 14.333 54.5 27s26.5 28.667 30.5 48c2 10.667 1.83301 20.334 -0.5 29.001
s-6.16602 15.667 -11.499 21s-10.833 9.83301 -16.5 13.5s-10.5 6.5 -14.5 8.5l-6 3c3.33301 14.667 10.833 26.167 22.5 34.5s26.5 11.166 44.5 8.49902c19.333 -2.66699 34.333 -12.667 45 -30s14 -36.333 10 -57z" />
    <glyph glyph-name="Ncaron" unicode="&#x147;" horiz-adv-x="673" 
d="M396 667l-81 194h12l95 -116h3l144 116h11l-153 -194h-31zM500 -6l-298.002 550.005h-3l-87 -439c-4.66699 -32.667 -3.5 -54.334 3.5 -65.001s24.167 -17.667 51.5 -21l27 -4l1 -15h-214l3 15l28 4c23.333 2.66699 41 10 53 22s20 34 24 66l88 433
c-3.33301 17.333 -9.66602 31.666 -18.999 42.999s-24.666 18.666 -45.999 21.999l-22 5l-2 15h180l256 -482h3l75 377c4.66699 33.333 3.66699 55.166 -3 65.499s-23.667 17.166 -51 20.499l-27 4l-2 15h215l-3 -15l-28 -4c-23.333 -2 -41 -9 -53 -21
s-20.333 -34.333 -25 -67l-104 -524h-21z" />
    <glyph glyph-name="ncaron" unicode="&#x148;" horiz-adv-x="483" 
d="M265 489l-81 194h12l95 -116h3l144 116h11l-153 -194h-31zM335 -13c-11.333 0 -27.333 4.33105 -48 12.998s-31 16.334 -31 23.001c0 8 22 71.667 66 191c3.33301 10 8.5 23.833 15.5 41.5s12.333 31.667 16 42s7.16699 20.833 10.5 31.5s5 18.334 5 23.001
c0 10 -4.83301 19 -14.5 27s-20.167 12 -31.5 12c-15.333 0 -39.666 -25.167 -72.999 -75.5s-71.333 -120.5 -114 -210.5l-33 -109l-81 5l51 160l62 230l-43 5l-68 -96l-9 8c20 43.333 41.5 77.333 64.5 102s44.5 37 64.5 37c10.667 0 24.167 -6.16699 40.5 -18.5
s24.5 -24.833 24.5 -37.5c0 -13.333 -7.33301 -44.833 -22 -94.5s-30.334 -95.834 -47.001 -138.501l5 -2c65.333 132.667 116 217 152 253c24 24 49 36 75 36c18.667 0 35.667 -6 51 -18s23 -25.667 23 -41c0 -26.667 -16 -83 -48 -169
c-40.667 -110 -62.667 -168.333 -66 -175l46 -7l70 91l9 -7c-20 -41.333 -41.333 -73.666 -64 -96.999s-42 -35 -58 -35z" />
    <glyph glyph-name="Omacron" unicode="&#x14c;" horiz-adv-x="720" 
d="M307 705l11 30h248l-8 -30h-251zM357 -14c-90 0 -163 28.832 -219 86.499s-84 128.834 -84 213.501c0 94 32.5 176.333 97.5 247s147.833 106 248.5 106c89.333 0 161.833 -29 217.5 -87s83.5 -129.333 83.5 -214c0 -96 -32.833 -178.667 -98.5 -248
s-147.5 -104 -245.5 -104zM351 6.99902c48.667 0 92.834 19.667 132.501 59s69.667 87.5 90 144.5s30.5 114.5 30.5 172.5c0 69.333 -17.667 126 -53 170s-84.333 66 -147 66c-50 0 -94.833 -20 -134.5 -60s-69.334 -88.333 -89.001 -145s-29.5 -114 -29.5 -172
c0 -69.333 17.833 -125.833 53.5 -169.5s84.5 -65.5 146.5 -65.5z" />
    <glyph glyph-name="omacron" unicode="&#x14d;" horiz-adv-x="410" 
d="M136 527l11 30h248l-8 -30h-251zM163 -12c-42 0 -75.999 17.667 -101.999 53s-39 79.333 -39 132c0 63.333 23.167 124.333 69.5 183s95.833 88 148.5 88c43.333 0 78.833 -17.667 106.5 -53s41.5 -79 41.5 -131c0 -64 -23.833 -125.333 -71.5 -184
s-98.834 -88 -153.501 -88zM155.001 6c29.333 0 56.001 17.167 80.001 51.5s43 75.833 57 124.5c11.333 39.333 17 82.666 17 129.999c0 34 -4.83301 61.333 -14.5 82s-23.5 31 -41.5 31c-24 0 -49.333 -20 -76 -60s-47.334 -83.667 -62.001 -131
c-12 -41.333 -18 -80.666 -18 -117.999c0 -31.333 5.16699 -57.5 15.5 -78.5s24.5 -31.5 42.5 -31.5z" />
    <glyph glyph-name="Obreve" unicode="&#x14e;" horiz-adv-x="720" 
d="M357 -14c-90 0 -163 28.832 -219 86.499s-84 128.834 -84 213.501c0 94 32.5 176.333 97.5 247s147.833 106 248.5 106c89.333 0 161.833 -29 217.5 -87s83.5 -129.333 83.5 -214c0 -96 -32.833 -178.667 -98.5 -248s-147.5 -104 -245.5 -104zM351 6.99902
c48.667 0 92.834 19.667 132.501 59s69.667 87.5 90 144.5s30.5 114.5 30.5 172.5c0 69.333 -17.667 126 -53 170s-84.333 66 -147 66c-50 0 -94.833 -20 -134.5 -60s-69.334 -88.333 -89.001 -145s-29.5 -114 -29.5 -172c0 -69.333 17.833 -125.833 53.5 -169.5
s84.5 -65.5 146.5 -65.5zM429 669.999c-20.667 0 -37.834 5.00195 -51.501 15.002s-23.667 24.667 -30 44s-10.833 38.5 -13.5 57.5s-4 41.833 -4 68.5h12c7.33301 -42.667 18.333 -74.834 33 -96.501s35.667 -32.5 63 -32.5c26.667 0 50.834 10.667 72.501 32
s44.167 53.666 67.5 96.999h13c-27.333 -67.333 -49.333 -112 -66 -134c-26 -34 -58 -51 -96 -51z" />
    <glyph glyph-name="obreve" unicode="&#x14f;" horiz-adv-x="410" 
d="M163 -12c-42 0 -75.999 17.667 -101.999 53s-39 79.333 -39 132c0 63.333 23.167 124.333 69.5 183s95.833 88 148.5 88c43.333 0 78.833 -17.667 106.5 -53s41.5 -79 41.5 -131c0 -64 -23.833 -125.333 -71.5 -184s-98.834 -88 -153.501 -88zM155.001 6
c29.333 0 56.001 17.167 80.001 51.5s43 75.833 57 124.5c11.333 39.333 17 82.666 17 129.999c0 34 -4.83301 61.333 -14.5 82s-23.5 31 -41.5 31c-24 0 -49.333 -20 -76 -60s-47.334 -83.667 -62.001 -131c-12 -41.333 -18 -80.666 -18 -117.999
c0 -31.333 5.16699 -57.5 15.5 -78.5s24.5 -31.5 42.5 -31.5zM253.002 492c-20.667 0 -37.834 5.00195 -51.501 15.002s-23.667 24.667 -30 44s-10.833 38.5 -13.5 57.5s-4 41.833 -4 68.5h12c7.33301 -42.667 18.333 -74.834 33 -96.501s35.667 -32.5 63 -32.5
c26.667 0 50.834 10.667 72.501 32s44.167 53.666 67.5 96.999h13c-27.333 -67.333 -49.333 -112 -66 -134c-26 -34 -58 -51 -96 -51z" />
    <glyph glyph-name="Ohungarumlaut" unicode="&#x150;" horiz-adv-x="720" 
d="M459 675l124 187h86l-198 -187h-12zM307 675l124 187h86l-198 -187h-12zM357 -14c-90 0 -163 28.832 -219 86.499s-84 128.834 -84 213.501c0 94 32.5 176.333 97.5 247s147.833 106 248.5 106c89.333 0 161.833 -29 217.5 -87s83.5 -129.333 83.5 -214
c0 -96 -32.833 -178.667 -98.5 -248s-147.5 -104 -245.5 -104zM351 6.99902c48.667 0 92.834 19.667 132.501 59s69.667 87.5 90 144.5s30.5 114.5 30.5 172.5c0 69.333 -17.667 126 -53 170s-84.333 66 -147 66c-50 0 -94.833 -20 -134.5 -60s-69.334 -88.333 -89.001 -145
s-29.5 -114 -29.5 -172c0 -69.333 17.833 -125.833 53.5 -169.5s84.5 -65.5 146.5 -65.5z" />
    <glyph glyph-name="ohungarumlaut" unicode="&#x151;" horiz-adv-x="410" 
d="M300 497l124 187h86l-198 -187h-12zM148 497l124 187h86l-198 -187h-12zM163 -12c-42 0 -75.999 17.667 -101.999 53s-39 79.333 -39 132c0 63.333 23.167 124.333 69.5 183s95.833 88 148.5 88c43.333 0 78.833 -17.667 106.5 -53s41.5 -79 41.5 -131
c0 -64 -23.833 -125.333 -71.5 -184s-98.834 -88 -153.501 -88zM155.001 6c29.333 0 56.001 17.167 80.001 51.5s43 75.833 57 124.5c11.333 39.333 17 82.666 17 129.999c0 34 -4.83301 61.333 -14.5 82s-23.5 31 -41.5 31c-24 0 -49.333 -20 -76 -60
s-47.334 -83.667 -62.001 -131c-12 -41.333 -18 -80.666 -18 -117.999c0 -31.333 5.16699 -57.5 15.5 -78.5s24.5 -31.5 42.5 -31.5z" />
    <glyph glyph-name="OE" unicode="&#x152;" horiz-adv-x="932" 
d="M363 0c-55.333 0 -103.834 8.49902 -145.501 25.499s-74 40 -97 69s-38.833 62.167 -47.5 99.5s-9.66699 77.333 -3 120c13.333 91.333 55.333 166 126 224s161.667 87 273 87h446l-3 -192h-16l-6 38c-8 26.667 -14.833 46.334 -20.5 59.001s-15.334 26 -29.001 40
s-32.167 23.5 -55.5 28.5s-53.666 7.5 -90.999 7.5h-51l-52 -276l32 1c49.333 1.33301 83.833 6.5 103.5 15.5s35.834 26.5 48.501 52.5l12 28l16 -1l-47 -213l-16 1l3 29c4 28 -2.33301 45.833 -19 53.5s-53 12.5 -109 14.5l-28 1l-55 -290l87 -3
c38 0 70.667 3.33301 98 10s50.5 17.5 69.5 32.5s33.667 29.167 44 42.5s22.833 32 37.5 56l18 37l20 -1l-65 -196h-478zM384.999 18.999l52 0.000976562l108 568l-66 21c-83.333 -1.33301 -151.5 -26.833 -204.5 -76.5s-86.167 -119.834 -99.5 -210.501
c-8.66699 -53.333 -8 -102 2 -146s32.667 -81 68 -111s82 -45 140 -45z" />
    <glyph glyph-name="oe" unicode="&#x153;" horiz-adv-x="635" 
d="M163 -12c-42 0 -76.001 17.499 -102.001 52.499s-39 79.167 -39 132.5c0 63.333 23 124.333 69 183s95.667 88 149 88c30 0 56.167 -8.83301 78.5 -26.5s38.833 -41.5 49.5 -71.5c22.667 30.667 48.334 55 77.001 73s58 27 88 27c32 0 57.667 -7.5 77 -22.5
s29 -34.833 29 -59.5c0 -31.333 -19.5 -57.666 -58.5 -78.999s-105.5 -45.333 -199.5 -72c-6 -25.333 -9 -47.666 -9 -66.999c0 -70 27.333 -105 82 -105c21.333 0 41.333 6.66699 60 20s41 36.666 67 69.999l9 -7c-57.333 -90.667 -115.666 -136 -174.999 -136
c-52.667 0 -89.334 25.667 -110.001 77c-42.667 -51.333 -90 -77 -142 -77zM384.999 226.999c67.333 21.333 114 42.667 140 64s39 48.333 39 81c0 14 -5 25.833 -15 35.5s-21.667 14.5 -35 14.5c-16 0 -33 -8.33301 -51 -25c-34 -34 -60.667 -90.333 -80 -169zM154.999 6
c29.333 0 56.001 17.167 80.001 51.5s43 75.833 57 124.5c11.333 39.333 17 82.666 17 129.999c0 34 -4.83301 61.333 -14.5 82s-23.5 31 -41.5 31c-24 0 -49.333 -20 -76 -60s-47.334 -83.667 -62.001 -131c-12 -41.333 -18 -80.666 -18 -117.999
c0 -31.333 5.16699 -57.5 15.5 -78.5s24.5 -31.5 42.5 -31.5z" />
    </font>
</defs>
</svg>
