<?xml version="1.0" standalone="no"?>
<!DOCTYPE svg PUBLIC "-//W3C//DTD SVG 1.1//EN" "http://www.w3.org/Graphics/SVG/1.1/DTD/svg11.dtd" >
<svg xmlns="http://www.w3.org/2000/svg" xmlns:xlink="http://www.w3.org/1999/xlink" version="1.1">
<metadata>
Created by FontForge 20190801 at Sat Jan  9 01:34:22 2016
 By Jimmy Wärting
Copyright (c) 2005-2009, Joshua Darden &#38; Phil's Fonts, Inc. All rights reserved. Published by Garagefonts USA 301-879-9222 www.garagefonts.com
</metadata>
<defs>
<font id="FreightDispProLight-Italic" horiz-adv-x="448" >
  <font-face 
    font-family="FreightDispProLight-Italic"
    font-weight="400"
    font-style="italic"
    font-stretch="normal"
    units-per-em="1000"
    panose-1="2 0 6 6 8 0 0 9 0 4"
    ascent="800"
    descent="-200"
    x-height="443.998"
    cap-height="624.999"
    bbox="-235 -272.998 1189 975"
    underline-thickness="20"
    underline-position="-186"
    slope="-12"
    unicode-range="U+0020-FB04"
  />
<missing-glyph horiz-adv-x="500" 
 />
    <glyph glyph-name="ff" unicode="ff" horiz-adv-x="470" 
d="M-72 -200c-22 0 -38.833 4.66602 -50.5 13.999s-17.5 21.333 -17.5 36c0 11.333 3.5 20.666 10.5 27.999s15.5 11 25.5 11c14.667 0 24.667 -6.5 30 -19.5s2.33301 -27.833 -9 -44.5c4 -2 12.167 -1.16699 24.5 2.5s18.833 5.5 19.5 5.5c16 3.33301 29.167 12 39.5 26
s21 39.5 32 76.5s23.5 91.833 37.5 164.5l54 299l-78 1l7 27l80 5c18 78 45 135.667 81 173c30 32 64.667 48 104 48c20 0 37.333 -5.33301 52 -16s22 -23 22 -37c0 -12 -3.33301 -21.667 -10 -29s-15 -11 -25 -11c-14.667 0 -24.834 6.33301 -30.501 19
s-2.5 27.334 9.5 44.001c-26 2 -43.667 3 -53 3c-45.333 -12.667 -79.666 -78 -102.999 -196h163c22 96.667 49.667 162 83 196c28.667 29.333 62.667 44 102 44c20.667 0 38.334 -5.16699 53.001 -15.5s22 -22.833 22 -37.5c0 -12 -3.33301 -21.667 -10 -29
s-15 -11 -25 -11c-15.333 0 -25.666 6.33301 -30.999 19s-2 27.667 10 45c-26 1.33301 -44 2 -54 2c-25.333 -6 -45 -24 -59 -54s-28.667 -83 -44 -159l107 -1l-5 -30h-107l-56 -270c-30.667 -138.667 -65.334 -227.667 -104.001 -267
c-23.333 -23.333 -50.666 -35 -81.999 -35c-21.333 0 -38 4.83301 -50 14.5s-18 21.5 -18 35.5c0 11.333 3.5 20.666 10.5 27.999s15.5 11 25.5 11c15.333 0 25.666 -6.33301 30.999 -19s2 -27.667 -10 -45c4.66699 -2 13.167 -1.16699 25.5 2.5s18.833 5.5 19.5 5.5
c15.333 3.33301 28.333 11.833 39 25.5s21.5 39.334 32.5 77.001s23.5 92.5 37.5 164.5c2 11.333 4.66699 26.5 8 45.5s8.66602 48.333 15.999 88s13.333 72.834 18 99.501l6 39h-160l-61 -297c-30 -138.667 -64.667 -227.667 -104 -267
c-23.333 -23.333 -50.333 -35 -81 -35z" />
    <glyph glyph-name="fi" unicode="fi" horiz-adv-x="436" 
d="M-72 -200c-22 0 -38.8311 4.66602 -50.498 13.999s-17.5 21.333 -17.5 36c0 11.333 3.5 20.666 10.5 27.999s15.5 11 25.5 11c14.667 0 24.667 -6.5 30 -19.5s2.33301 -27.833 -9 -44.5c4 -2 12.167 -1.16699 24.5 2.5s18.833 5.5 19.5 5.5c16 3.33301 29.167 12 39.5 26
s21 39.5 32 76.5s23.5 91.833 37.5 164.5l54 299l-78 1l7 27l80 5c21.333 91.333 50.333 155.333 87 192c28.667 30.667 64.667 46 108 46c23.333 0 42.666 -6.16699 57.999 -18.5s23 -26.166 23 -41.499c0 -12 -3.33301 -21.667 -10 -29s-15 -11 -25 -11
c-14.667 0 -24.5 6.66699 -29.5 20s-1.5 28.333 10.5 45c-24.667 6 -45.334 9 -62.001 9c-27.333 -5.33301 -49.333 -23.333 -66 -54s-32.334 -84 -47.001 -160l147 -1c12 10 25 15 39 15c9.33301 0 17.833 -6 25.5 -18s11.167 -24.667 10.5 -38
c0 -6 -10.667 -39.167 -32 -99.5s-42.666 -119.166 -63.999 -176.499l-32 -87l38 -6l87 107l8 -8c-22 -39.333 -44.5 -71 -67.5 -95s-41.5 -36 -55.5 -36c-10 0 -21.5 4.5 -34.5 13.5s-19.167 16.833 -18.5 23.5l133 373l-2 2h-188l-61 -297
c-30 -138.667 -64.667 -227.667 -104 -267c-23.333 -23.333 -50.333 -35 -81 -35z" />
    <glyph glyph-name="fl" unicode="fl" horiz-adv-x="442" 
d="M411 648l62.001 24.999l-192 -645l41 -6l83 104l8 -8c-22 -39.333 -44.5 -71 -67.5 -95s-41.5 -36 -55.5 -36c-10 0 -21.333 4.5 -34 13.5s-18.667 16.833 -18 23.5c0 4 53 187.333 159 550c-14.667 0.666992 -25.334 7 -32.001 19s-4.66699 27.667 6 47
c-31.333 4.66699 -55.333 7 -72 7c-28.667 -6 -52 -24.667 -70 -56s-34.333 -84.666 -49 -159.999l107 -2l-5 -30h-108l-61 -297c-30 -138.667 -64.667 -227.667 -104 -267c-23.333 -24 -50.333 -36 -81 -36c-22 0 -38.833 4.83301 -50.5 14.5s-17.5 21.834 -17.5 36.501
c0 11.333 3.5 20.666 10.5 27.999s15.5 11 25.5 11c14.667 0 24.667 -6.5 30 -19.5s2.33301 -27.833 -9 -44.5c4 -2 12.167 -1.33301 24.5 2s18.833 5 19.5 5c16 3.33301 29.167 12 39.5 26s21 39.667 32 77s23.5 92.333 37.5 165l54 299l-78 1l7 27l80 5
c19.333 88.667 48.666 152.667 87.999 192c28.667 30.667 67.334 46 116.001 46c31.333 0 56 -7.33301 74 -22z" />
    <glyph glyph-name="ffi" unicode="ffi" horiz-adv-x="647" 
d="M-72 -200c-22 0 -38.834 4.66309 -50.501 13.9961s-17.5 21.333 -17.5 36c0 11.333 3.5 20.666 10.5 27.999s15.5 11 25.5 11c14.667 0 24.667 -6.5 30 -19.5s2.33301 -27.833 -9 -44.5c4 -2 12.167 -1.16699 24.5 2.5s18.833 5.5 19.5 5.5c16 3.33301 29.167 12 39.5 26
s21 39.5 32 76.5s23.5 91.833 37.5 164.5l54 299l-78 1l7 27l80 5c18 78 45 135.667 81 173c30 32 64.667 48 104 48c20 0 37.333 -5.33301 52 -16s22 -23 22 -37c0 -12 -3.33301 -21.667 -10 -29s-15 -11 -25 -11c-14.667 0 -24.834 6.33301 -30.501 19
s-2.5 27.334 9.5 44.001c-26 2 -43.667 3 -53 3c-45.333 -12.667 -79.666 -78 -102.999 -196h163c21.333 93.333 50.666 158 87.999 194c28.667 30.667 64.334 46 107.001 46c23.333 0 42.833 -6.16699 58.5 -18.5s23.5 -26.166 23.5 -41.499
c0 -12 -3.33301 -21.667 -10 -29s-15 -11 -25 -11c-14.667 0 -24.5 6.66699 -29.5 20s-1.5 28.333 10.5 45c-25.333 6 -46.333 9 -63 9c-27.333 -5.33301 -49.166 -23.166 -65.499 -53.499s-32.166 -83.833 -47.499 -160.5l148 -1c12 10 25 15 39 15c9.33301 0 18 -6 26 -18
s11.333 -24.667 10 -38c0 -6 -10.833 -39.167 -32.5 -99.5s-43.167 -119.166 -64.5 -176.499l-32 -87l38 -6l87 107l9 -8c-22 -39.333 -44.5 -71 -67.5 -95s-41.833 -36 -56.5 -36c-10 0 -21.5 4.5 -34.5 13.5s-19.167 16.833 -18.5 23.5l134 373l-2 2h-188l-56 -270
c-32 -140 -66.667 -229 -104 -267c-23.333 -23.333 -50.666 -35 -81.999 -35c-21.333 0 -38 4.83301 -50 14.5s-18 21.5 -18 35.5c0 11.333 3.5 20.666 10.5 27.999s15.5 11 25.5 11c15.333 0 25.666 -6.33301 30.999 -19s2 -27.667 -10 -45
c4.66699 -2 13.167 -1.16699 25.5 2.5s18.833 5.5 19.5 5.5c15.333 3.33301 28.333 11.833 39 25.5s21.5 39.334 32.5 77.001s23.5 92.5 37.5 164.5c2 11.333 4.66699 26.5 8 45.5s8.66602 48.333 15.999 88s13.333 72.834 18 99.501l6 39h-160l-61 -297
c-30 -138.667 -64.667 -227.667 -104 -267c-23.333 -23.333 -50.333 -35 -81 -35z" />
    <glyph glyph-name="ffl" unicode="ffl" horiz-adv-x="652" 
d="M621 648l62.0029 24.9971l-192 -645l41 -6l83 104l8 -8c-22 -39.333 -44.5 -71 -67.5 -95s-41.5 -36 -55.5 -36c-10 0 -21.333 4.5 -34 13.5s-18.667 16.833 -18 23.5c0 8.66699 52.333 192 157 550c-14 2 -23.833 9 -29.5 21s-3.5 27 6.5 45c-32 4.66699 -56 7 -72 7
c-28.667 -6 -52 -24.667 -70 -56s-34.667 -84.666 -50 -159.999l108 -2l-6 -30h-107l-56 -269c-30.667 -139.333 -65.334 -228.666 -104.001 -267.999c-23.333 -24 -50.666 -36 -81.999 -36c-21.333 0 -38 4.83301 -50 14.5s-18 21.834 -18 36.501
c0 11.333 3.5 20.666 10.5 27.999s15.5 11 25.5 11c15.333 0 25.666 -6.33301 30.999 -19s2 -27.667 -10 -45c4.66699 -2 13.167 -1.16699 25.5 2.5s18.833 5.5 19.5 5.5c23.333 4.66699 42.333 24.167 57 58.5s32 104.166 52 209.499c2 11.333 4.66699 26.333 8 45
s8.66602 47.834 15.999 87.501s13.333 72.834 18 99.501l6 39h-160l-61 -297c-30 -138.667 -64.667 -227.667 -104 -267c-23.333 -24 -50.333 -36 -81 -36c-22 0 -38.833 4.83301 -50.5 14.5s-17.5 21.834 -17.5 36.501c0 11.333 3.5 20.666 10.5 27.999s15.5 11 25.5 11
c14.667 0 24.667 -6.5 30 -19.5s2.33301 -27.833 -9 -44.5c4 -2 12.167 -1.33301 24.5 2s18.833 5 19.5 5c16 3.33301 29.167 12 39.5 26s21 39.667 32 77s23.5 92.333 37.5 165l54 299l-78 1l7 27l80 5c18 79.333 45 137 81 173c29.333 32 64 48 104 48
c20.667 0 38.167 -5.16699 52.5 -15.5s21.5 -22.833 21.5 -37.5c0 -12 -3.33301 -21.667 -10 -29s-15 -11 -25 -11c-14.667 0 -24.834 6.33301 -30.501 19s-2.5 27.667 9.5 45c-26 1.33301 -43.667 2 -53 2c-44.667 -11.333 -79 -76.333 -103 -195h163
c20.667 90.667 50 155 88 193c30 30.667 69 46 117 46c30.667 0 55 -7.33301 73 -22z" />
    <glyph glyph-name=".notdef" horiz-adv-x="500" 
 />
    <glyph glyph-name="space" unicode=" " horiz-adv-x="180" 
 />
    <glyph glyph-name="exclam" unicode="!" horiz-adv-x="236" 
d="M118 191c-0.666992 -4 -3.33105 -5.33301 -7.99805 -4c-2 1.33301 -3 2.66602 -3 3.99902l47 401c1.33301 10.667 2.66602 18.5 3.99902 23.5s4.83301 10.333 10.5 16s13.5 8.16699 23.5 7.5h15c9.33301 -0.666992 15.666 -4.16699 18.999 -10.5s4.5 -12.166 3.5 -17.499
s-2.83301 -13.333 -5.5 -24zM84.0029 -14c-12.667 0 -23.667 4.66699 -33 14s-13.666 20 -12.999 32c0 11.333 4.66699 21.333 14 30s20.333 13 33 13c13.333 0 24.166 -4.16699 32.499 -12.5s12.166 -18.5 11.499 -30.5c0 -12.667 -4.16699 -23.5 -12.5 -32.5
s-19.166 -13.5 -32.499 -13.5z" />
    <glyph glyph-name="quotedbl" unicode="&#x22;" horiz-adv-x="291" 
d="M172 403l162 244h1l36 -16l-188 -228h-11zM43 403l162 244h2l35 -16l-188 -228h-11z" />
    <glyph glyph-name="numbersign" unicode="#" horiz-adv-x="511" 
d="M90 -5l52 195h-137v14h141l56 214h-136v15h140l53 199h16l-52 -199h169l53 199h16l-53 -199h137v-15h-140l-57 -214h137v-14h-141l-51 -195h-17l52 195h-170l-51 -195h-17zM162 204h169l57 214h-169z" />
    <glyph glyph-name="dollar" unicode="$" horiz-adv-x="445" 
d="M100 -4c-36.667 9.33301 -69.667 22.333 -99 39l11 145h13l11 -70c12.667 -42 37.334 -72.333 74.001 -91l121 290l-3 2c-38.667 20.667 -69.334 43.167 -92.001 67.5s-34 54.5 -34 90.5c0 48.667 19 89.5 57 122.5s84.667 49.5 140 49.5c24 0 46 -3 66 -9l45 108h18
l-47 -112c16.667 -6 29.334 -11.333 38.001 -16l50 10l-18 -163l-13 1l-32 128c-9.33301 8 -20.333 15 -33 21l-103 -249l6 -3c42 -23.333 75.5 -48.333 100.5 -75s37.5 -60 37.5 -100c0 -56 -21.333 -103 -64 -141s-96.334 -57 -161.001 -57
c-22.667 0 -46.667 2.66699 -72 8l-65 -156h-18zM125 12c20.667 -7.33301 43 -11 67 -11c50 0 91 14.167 123 42.5s48 65.5 48 111.5c0 56 -39 105 -117 147zM358 615c-20 7.33301 -39.999 11.001 -59.999 11.001c-42.667 0 -77.834 -12.833 -105.501 -38.5
s-41.5 -55.834 -41.5 -90.501c0 -27.333 8.83301 -50.833 26.5 -70.5s43.5 -39.167 77.5 -58.5z" />
    <glyph glyph-name="percent" unicode="%" horiz-adv-x="608" 
d="M199 364c-39.333 0 -71.5 12.667 -96.5 38s-37.5 57 -37.5 95c0 40 13.333 74.167 40 102.5s60.667 42.5 102 42.5c40 0 72.5 -12.833 97.5 -38.5s37.5 -57.5 37.5 -95.5c0 -40 -13.333 -74 -40 -102s-61 -42 -103 -42zM11 -14l600 654h24l-600 -654h-24zM441 -16
c-39.333 0 -71.333 12.5 -96 37.5s-37 56.5 -37 94.5c0 40.667 13.333 75.167 40 103.5s60.667 42.5 102 42.5c39.333 0 71.5 -12.833 96.5 -38.5s37.5 -57.5 37.5 -95.5c0 -40 -13.333 -74 -40 -102s-61 -42 -103 -42zM200 380c36 0 65.333 12 88 36s34 53.667 34 89
c0 34 -10.667 62.5 -32 85.5s-49.333 34.5 -84 34.5c-35.333 0 -64.333 -12.333 -87 -37s-34 -54.667 -34 -90c0 -34.667 10.667 -63 32 -85s49 -33 83 -33zM443 0c35.333 0 64.5 12.333 87.5 37s34.5 54.667 34.5 90c0 33.333 -10.833 61.333 -32.5 84s-49.5 34 -83.5 34
c-35.333 0 -64.333 -12.333 -87 -37s-34 -54.667 -34 -90c0 -34.667 10.667 -63 32 -85s49 -33 83 -33z" />
    <glyph glyph-name="ampersand" unicode="&#x26;" horiz-adv-x="695" 
d="M601 354c55.333 -17.333 82.9961 -58.3359 82.9961 -123.003s-34.667 -121.5 -104 -170.5s-149.333 -73.5 -240 -73.5c-93.333 0 -169.833 22.5 -229.5 67.5s-89.5 102.833 -89.5 173.5c0 52 15.833 98.333 47.5 139s72.5 67.667 122.5 81c-2.66699 11.333 -4 24 -4 38
c0 44 12.5 80.5 37.5 109.5s56.167 43.5 93.5 43.5c39.333 0 72.833 -16.333 100.5 -49s38.167 -73 31.5 -121l-17 3c2 31.333 -5.66699 60.666 -23 87.999s-41.333 41 -72 41c-31.333 0 -56 -10.333 -74 -31s-27 -49.334 -27 -86.001c0 -6.66699 0.666992 -16 2 -28
c3.33301 0.666992 9 1 17 1c36 0 66.833 -8.83301 92.5 -26.5s38.5 -39.167 38.5 -64.5c0 -15.333 -6.16699 -27.666 -18.5 -36.999s-28.5 -14 -48.5 -14c-26.667 0 -51.5 11 -74.5 33s-39.5 49.333 -49.5 82c-37.333 -11.333 -67.666 -31.166 -90.999 -59.499
s-35 -60.833 -35 -97.5c0 -74.667 28.833 -133.834 86.5 -177.501s134.834 -65.5 231.501 -65.5c76.667 0 142.167 20 196.5 60s81.5 87 81.5 141c0 32 -10.333 58.833 -31 80.5s-46.667 32.5 -78 32.5c-19.333 0 -39.666 -7.83301 -60.999 -23.5s-32 -30.5 -32 -44.5
c0 -35.333 19.667 -55.333 59 -60c-9.33301 7.33301 -11.666 17.833 -6.99902 31.5s14.334 20.5 29.001 20.5c8 0 15.167 -3.33301 21.5 -10s9.5 -13.667 9.5 -21c0 -10 -4 -18.667 -12 -26s-18 -11 -30 -11c-28.667 0 -51.667 8 -69 24s-26 37.333 -26 64
c0 22.667 9.33301 42.334 28 59.001s41.5 29.834 68.5 39.501s53.833 19.334 80.5 29.001s49.334 22 68.001 37s28 32.833 28 53.5c0 22 -6.66699 40.333 -20 55s-31.333 23.334 -54 26.001c7.33301 -4 11.666 -10.333 12.999 -19s-0.5 -16.667 -5.5 -24
s-12.833 -11 -23.5 -11c-8.66699 0 -16.5 3.16699 -23.5 9.5s-10.5 13.5 -10.5 21.5c0 12 4.33301 21.833 13 29.5s20 11.5 34 11.5c27.333 0 51.166 -12.667 71.499 -38s30.5 -55 30.5 -89c0 -28.667 -10.667 -53 -32 -73s-56 -37 -104 -51zM241.996 437.997
c7.33301 -28.667 19.832 -51.5 37.499 -68.5s37.834 -25.5 60.501 -25.5c7.33301 0 13.666 2.83301 18.999 8.5s8 12.167 8 19.5c0 17.333 -11.167 32.833 -33.5 46.5s-47.5 20.5 -75.5 20.5c-7.33301 0 -12.666 -0.333008 -15.999 -1z" />
    <glyph glyph-name="quotesingle" unicode="'" horiz-adv-x="149" 
d="M42 403l163 244h2l35 -16l-188 -228h-12z" />
    <glyph glyph-name="parenleft" unicode="(" horiz-adv-x="340" 
d="M265 -262c-26.667 17.333 -52.335 40.3369 -77.002 69.0039s-47.5 63 -68.5 103s-35.833 86.667 -44.5 140s-8.66699 108.333 0 165c8.66699 56 25.167 109.167 49.5 159.5s52.833 93 85.5 128s65.167 64.5 97.5 88.5s63.833 42.333 94.5 55c6 -10 9 -15.667 9 -17
c-30 -12.667 -60.667 -30.834 -92 -54.501s-62.333 -52.5 -93 -86.5s-57.667 -75 -81 -123s-39 -98.667 -47 -152c-10.667 -70.667 -7.16699 -138.834 10.5 -204.501s41.334 -118.834 71.001 -159.501s61.834 -72.334 96.501 -95.001z" />
    <glyph glyph-name="parenright" unicode=")" horiz-adv-x="340" 
d="M-58 -262c-6 10 -9 15.666 -9 16.999c30 12.667 60.833 30.834 92.5 54.501s62.834 52.5 93.501 86.5s57.667 75 81 123s39 98.667 47 152c7.33301 57.333 7.33301 110 0 158s-21 92.333 -41 133s-41.667 74.667 -65 102s-47.666 49.333 -72.999 66l12 16
c26 -17.333 51.333 -40.5 76 -69.5s47.5 -63.333 68.5 -103s36 -86.167 45 -139.5s9.16699 -108 0.5 -164c-8.66699 -56.667 -25.334 -110.167 -50.001 -160.5s-53.334 -93 -86.001 -128s-65.167 -64.5 -97.5 -88.5s-63.833 -42.333 -94.5 -55z" />
    <glyph glyph-name="asterisk" unicode="*" horiz-adv-x="315" 
d="M221 335l-28.9971 47.002l11 91c0 0.666992 -1 1.66699 -3 3s-3.66699 1.66602 -5 0.999023l-72 -64l-57 -10c-0.666992 0 -1.5 1 -2.5 3s-1.16699 3.33301 -0.5 4l39 48l90 25c1.33301 0.666992 2.16602 2.16699 2.49902 4.5s0.166016 3.83301 -0.500977 4.5l-77 41
l-24 50c0 0.666992 0.833008 2.16699 2.5 4.5s2.83398 3.16602 3.50098 2.49902l55 -17l43 -77c0.666992 -0.666992 2.66699 -0.666992 6 0s5 1.66699 5 3l27 92l44 40c0.666992 0.666992 2 0.5 4 -0.5s3 -1.83301 3 -2.5l-5 -56l-69 -76
c-0.666992 -0.666992 -0.333984 -2.16699 0.999023 -4.5s2.66602 -3.5 3.99902 -3.5l97 16l47 -26c0 -5.33301 -0.333008 -8 -1 -8l-56 -19l-88 31c-1.33301 0.666992 -2.83301 0.166992 -4.5 -1.5s-2.5 -3.16699 -2.5 -4.5l36 -84l-16 -56z" />
    <glyph glyph-name="plus" unicode="+" 
d="M217 27v198h-198l3 22h195v198h22v-198h195l3 -22h-198v-198h-22z" />
    <glyph glyph-name="comma" unicode="," horiz-adv-x="167" 
d="M-30 -115l-5 7.99902c60.667 33.333 91.667 71.666 93 114.999c0.666992 16.667 -5.33301 29.334 -18 38.001s-25.667 10 -39 4c-2 13.333 1.5 25.333 10.5 36s21.5 16 37.5 16c18 0 32.5 -6.16699 43.5 -18.5s16.167 -28.166 15.5 -47.499
c-1.33301 -30 -15.5 -59.333 -42.5 -88s-58.833 -49.667 -95.5 -63z" />
    <glyph glyph-name="hyphen" unicode="-" horiz-adv-x="294" 
d="M18 227l6 28h242l-4 -28h-244z" />
    <glyph glyph-name="period" unicode="." horiz-adv-x="182" 
d="M57 -14c-13.333 0 -24.5 4.66699 -33.5 14s-13.167 20.333 -12.5 33c0 11.333 4.5 21.5 13.5 30.5s20.167 13.5 33.5 13.5c12.667 0 23.334 -4.5 32.001 -13.5s12.667 -19.167 12 -30.5c0 -12.667 -4.33301 -23.667 -13 -33s-19.334 -14 -32.001 -14z" />
    <glyph glyph-name="slash" unicode="/" horiz-adv-x="258" 
d="M15 -236l211 875h19l-211 -875h-19z" />
    <glyph glyph-name="zero" unicode="0" horiz-adv-x="512" 
d="M227 -12c-58 0 -104.167 19 -138.5 57s-51.5 88 -51.5 150c0 74 23 140.5 69 199.5s103 88.5 171 88.5c56.667 0 102.167 -19.333 136.5 -58s51.5 -88.667 51.5 -150c0 -76.667 -22.833 -143.667 -68.5 -201s-102.167 -86 -169.5 -86zM223 3
c54.667 0 99.5 29.5 134.5 88.5s52.5 126.833 52.5 203.5c0 49.333 -11.5 90.166 -34.5 122.499s-54.833 48.5 -95.5 48.5c-55.333 0 -100.5 -29.167 -135.5 -87.5s-52.5 -127.166 -52.5 -206.499c0 -50 11.5 -90.667 34.5 -122s55.167 -47 96.5 -47z" />
    <glyph glyph-name="one" unicode="1" horiz-adv-x="316" 
d="M18 0l1 3.99707l2 6l1 4l50 3c21.333 0 33 4.33301 35 13l76 406l-106 10l3 12l160 21l-85 -451v-2.5c0 -1 0.166992 -1.66699 0.5 -2l1.5 -1.5c0.666992 -0.666992 1.66699 -1.16699 3 -1.5s3 -0.666016 5 -0.999023s4.33301 -0.666016 7 -0.999023
s5.66699 -0.666016 9 -0.999023s7.33301 -0.5 12 -0.5l44 -3l1 -14h-220z" />
    <glyph glyph-name="two" unicode="2" horiz-adv-x="415" 
d="M-15 0l-1.00098 17.001c54 38.667 95.333 68.667 124 90s58.334 44.666 89.001 69.999s52.834 46.5 66.501 63.5s25 34.667 34 53s13.5 36.833 13.5 55.5c0 28 -9 50.333 -27 67s-41.333 25 -70 25c-52 0 -98.333 -26.667 -139 -80l-9 10
c24 33.333 51.833 60.333 83.5 81s63.5 31 95.5 31c36 0 65.667 -10.333 89 -31s35 -47 35 -79c0 -48 -30.667 -99.667 -92 -155c-31.333 -28 -105 -83.667 -221 -167v-3h182c31.333 0 55.666 7.16699 72.999 21.5s35.333 38.5 54 72.5l12 29l13 -1l-63 -170h-342z" />
    <glyph glyph-name="three" unicode="3" horiz-adv-x="393" 
d="M66 -201c-34 0 -62.1621 5.50098 -84.4951 16.501s-33.5 26.5 -33.5 46.5c0 12 4.66699 22.667 14 32s19.666 14 30.999 14c19.333 0 32.666 -8.33301 39.999 -25s5.33301 -34.667 -6 -54c25.333 -8 44.333 -12 57 -12c52.667 0 97 18.833 133 56.5s54 83.834 54 138.501
c0 37.333 -12 67.666 -36 90.999s-55.333 35 -94 35c-26.667 0 -54.334 -5 -83.001 -15l-4 12c79.333 36 138.166 69.833 176.499 101.5s57.5 67.5 57.5 107.5c0 30 -9.16699 53.833 -27.5 71.5s-42.5 26.5 -72.5 26.5c-50.667 0 -97 -28 -139 -84l-8 9
c53.333 77.333 113.666 116 180.999 116c35.333 0 65 -11 89 -33s36 -50.333 36 -85c0 -39.333 -16.333 -73.5 -49 -102.5s-77 -57.167 -133 -84.5v-3c2.66699 0.666992 7.66699 1 15 1c40 0 74.333 -13.833 103 -41.5s43 -61.834 43 -102.501
c0 -62 -26.667 -116.333 -80 -163s-113.333 -70 -180 -70z" />
    <glyph glyph-name="four" unicode="4" horiz-adv-x="446" 
d="M200 -184l37 202h-267l2 11l386 447h15l-79 -415l116 -1l-22 -42h-102l-37 -202h-49zM22 61h223l63 331h-2z" />
    <glyph glyph-name="five" unicode="5" horiz-adv-x="379" 
d="M45 -201c-31.333 0 -56 6 -74 18s-26.667 28 -26 48c0.666992 12 5.66699 22.667 15 32s19.666 14 30.999 14c19.333 0 33 -8.5 41 -25.5s5.66699 -35.833 -7 -56.5c18.667 -6 35.667 -9 51 -9c46 0 86.333 19.667 121 59s52.667 84 54 134
c1.33301 49.333 -16.167 90.5 -52.5 123.5s-87.5 56.167 -153.5 69.5l97 264h233l-20 -55h-215l-60 -169c70 -14.667 124.667 -41.167 164 -79.5s58 -83.833 56 -136.5c-2 -60 -27.667 -113.5 -77 -160.5s-108.666 -70.5 -177.999 -70.5z" />
    <glyph glyph-name="six" unicode="6" horiz-adv-x="462" 
d="M212 -12c-53.333 0 -96.6709 19.667 -130.004 59s-50 90.333 -50 153c0 70.667 22.333 138.667 67 204s104.834 118.833 180.501 160.5s156.834 64.5 243.501 68.5l6 -11c-98 -8.66699 -184.167 -42 -258.5 -100s-127.166 -128 -158.499 -210l3 -1
c52.667 54.667 109.334 82 170.001 82c46 0 81.667 -15.333 107 -46s38 -69.334 38 -116.001c0 -61.333 -22.167 -117.166 -66.5 -167.499s-94.833 -75.5 -151.5 -75.5zM212.995 3c43.333 0 80.333 21.668 111 65.001s46 94.333 46 153c0 44 -10.167 78.5 -30.5 103.5
s-48.5 37.5 -84.5 37.5c-48.667 0 -97.667 -23.667 -147 -71c-14 -38.667 -21 -77.334 -21 -116.001c0 -48 11.5 -88.667 34.5 -122s53.5 -50 91.5 -50z" />
    <glyph glyph-name="seven" unicode="7" horiz-adv-x="408" 
d="M5 -185l389 599l-1 5h-240c-21.333 0 -37.333 -4.83301 -48 -14.5s-22.667 -27.5 -36 -53.5c-6 -14 -9.66699 -22.333 -11 -25l-12 1l43 143h348v-13l-386 -642h-46z" />
    <glyph glyph-name="eight" unicode="8" horiz-adv-x="449" 
d="M195 -15c-51.333 0.666992 -93.1699 16.835 -125.503 48.502s-47.5 68.834 -45.5 111.501c1.33301 41.333 18.833 77.666 52.5 108.999s76.834 52.666 129.501 63.999v2c-70 44 -103.667 95 -101 153c1.33301 46 21.333 85 60 117s82.667 47.333 132 46
c45.333 -0.666992 82.833 -15.334 112.5 -44.001s43.834 -63 42.501 -103c-1.33301 -35.333 -16.166 -67.333 -44.499 -96s-65.5 -51 -111.5 -67v-1c76 -51.333 113 -106.666 111 -165.999c-2.66699 -52 -24.167 -94.333 -64.5 -127s-89.5 -48.334 -147.5 -47.001z
M283.996 332.001c34 14.667 61.832 35.8311 83.499 63.498s32.834 59.167 33.501 94.5c1.33301 37.333 -8.5 68.333 -29.5 93s-49.5 37.334 -85.5 38.001s-67 -11.333 -93 -36s-39.667 -54.667 -41 -90c-1.33301 -32.667 9.16699 -61.167 31.5 -85.5
s55.833 -50.166 100.5 -77.499zM210.995 -1.00195c42 -0.666992 76.999 11.6689 104.999 37.002s42.667 57.666 44 96.999c1.33301 35.333 -10.667 66.833 -36 94.5s-60.666 55.5 -105.999 83.5c-40.667 -12 -74.667 -33.833 -102 -65.5s-41.333 -67.834 -42 -108.501
c-2 -39.333 9.16699 -72 33.5 -98s58.833 -39.333 103.5 -40z" />
    <glyph glyph-name="nine" unicode="9" horiz-adv-x="462" 
d="M-58 -158l-5.99902 9.99805c98 9.33301 184 43 258 101s127 127.667 159 209l-3 1c-52.667 -54.667 -109.334 -82 -170.001 -82c-46 0 -81.667 15.333 -107 46s-38 69.334 -38 116.001c0 61.333 22.167 117.166 66.5 167.499s94.833 75.5 151.5 75.5
c53.333 0 96.833 -19.667 130.5 -59s50.5 -90 50.5 -152c0 -71.333 -22.333 -139.666 -67 -204.999s-105 -118.666 -181 -159.999s-157.333 -64 -244 -68zM210.001 111.998c48.667 0 97.667 24 147 72c14 40 21 78.333 21 115c0 48.667 -11.5 89.667 -34.5 123
s-53.5 50 -91.5 50c-43.333 0 -80.333 -21.833 -111 -65.5s-46 -94.834 -46 -153.501c0 -43.333 10.167 -77.666 30.5 -102.999s48.5 -38 84.5 -38z" />
    <glyph glyph-name="colon" unicode=":" horiz-adv-x="180" 
d="M115 296c-13.333 0 -24.332 4.66699 -32.999 14s-13 20.333 -13 33c0 12 4.33301 22.333 13 31s19.667 13 33 13s24.333 -4.33301 33 -13s12.667 -19 12 -31c0 -12.667 -4.33301 -23.667 -13 -33s-19.334 -14 -32.001 -14zM57.001 -14c-13.333 0 -24.5 4.66699 -33.5 14
s-13.167 20 -12.5 32c0 12 4.5 22.333 13.5 31s20.167 13 33.5 13c12.667 0 23.334 -4.33301 32.001 -13s12.667 -19 12 -31c0 -12 -4.33301 -22.667 -13 -32s-19.334 -14 -32.001 -14z" />
    <glyph glyph-name="semicolon" unicode=";" horiz-adv-x="167" 
d="M108 296c-12.667 0 -23.502 4.66699 -32.502 14s-13.5 20 -13.5 32s4.5 22.5 13.5 31.5s20.167 13.5 33.5 13.5c12.667 0 23.334 -4.5 32.001 -13.5s13 -19.5 13 -31.5c-0.666992 -12.667 -5.16699 -23.5 -13.5 -32.5s-19.166 -13.5 -32.499 -13.5zM-30.002 -114
l-5 8.00098c60.667 32 91.667 70 93 114c0.666992 16.667 -5.33301 29.334 -18 38.001s-25.667 10 -39 4c-2 13.333 1.5 25.166 10.5 35.499s21.5 15.5 37.5 15.5c18 0 32.5 -6.16699 43.5 -18.5s16.167 -27.833 15.5 -46.5c-1.33301 -30 -15.5 -59.333 -42.5 -88
s-58.833 -49.334 -95.5 -62.001z" />
    <glyph glyph-name="less" unicode="&#x3c;" horiz-adv-x="438" 
d="M414 35l-397 193v14l397 193l8 -20l-368 -177v-4l368 -179z" />
    <glyph glyph-name="equal" unicode="=" 
d="M33 311l-3 22h396l-3 -22h-390zM30 138l3 22h390l3 -22h-396z" />
    <glyph glyph-name="greater" unicode="&#x3e;" horiz-adv-x="438" 
d="M429 228l-397 -193l-8 20l368 179v4l-368 177l8 20l397 -193v-14z" />
    <glyph glyph-name="question" unicode="?" horiz-adv-x="303" 
d="M137 179c-44.667 38.667 -67 73.3301 -67 103.997c0 24.667 9.16699 46 27.5 64s50.5 36 96.5 54c43.333 16.667 72.833 30.834 88.5 42.501s23.5 26.834 23.5 45.501c0 24 -11.667 45.5 -35 64.5s-58.333 28.5 -105 28.5c-20 0 -41 -2.33301 -63 -7
c-2.66699 4 -4 8.66699 -4 14c0 34 24 51 72 51c44.667 0 81.167 -14.167 109.5 -42.5s42.5 -62.5 42.5 -102.5c0 -38.667 -9 -68 -27 -88s-50.667 -39 -98 -57c-34 -12.667 -59 -24.667 -75 -36s-24 -27.333 -24 -48c0 -25.333 17.333 -54.666 52 -87.999zM104 -14.0039
c-13.333 0 -24.5 4.66699 -33.5 14s-13.5 20 -13.5 32c0 11.333 4.66699 21.333 14 30s20.666 13 33.999 13c12.667 0 23.167 -4.16699 31.5 -12.5s12.5 -18.5 12.5 -30.5c0 -12.667 -4.16699 -23.5 -12.5 -32.5s-19.166 -13.5 -32.499 -13.5z" />
    <glyph glyph-name="at" unicode="@" horiz-adv-x="786" 
d="M400 -110c-106 0 -192.832 32.8359 -260.499 98.5029s-101.5 149.5 -101.5 251.5c0 110 38.167 204.333 114.5 283s168.166 118 275.499 118c96 0 176.5 -29.5 241.5 -88.5s97.5 -134.167 97.5 -225.5c0 -71.333 -22.667 -134.5 -68 -189.5s-98 -82.5 -158 -82.5
c-30 0 -54 6.83301 -72 20.5s-26.667 31.167 -26 52.5c0 10 4.33301 33.5 13 70.5s16.334 61.833 23.001 74.5h-4c-44 -70 -80 -121.667 -108 -155s-54 -50 -78 -50c-22.667 0 -42.667 9 -60 27s-26 39 -26 63c0 43.333 15 89.666 45 138.999s64.333 92.333 103 129
c27.333 25.333 55 38 83 38c20.667 0 37.667 -7.5 51 -22.5s21.333 -36.5 24 -64.5h3l36 104l46 -3l-71 -190l-23 -100c-14 -43.333 -16.5 -72.333 -7.5 -87s29.167 -22 60.5 -22c50.667 0 96.167 24.5 136.5 73.5s60.5 106.833 60.5 173.5
c0 87.333 -31 159.166 -93 215.499s-138.667 84.5 -230 84.5c-102.667 0 -190.5 -37.833 -263.5 -113.5s-109.5 -165.834 -109.5 -270.501c0 -98 32.5 -178.667 97.5 -242s148.5 -95 250.5 -95c54.667 0 105.667 13 153 39s83.666 59.333 108.999 100l9 -11
c-26.667 -42 -64.5 -76.333 -113.5 -103s-102.167 -40 -159.5 -40zM310.001 105.003c39.333 0 94.667 66.333 166 199c12.667 24 19 41.333 19 52c-2.66699 17.333 -12.834 35.333 -30.501 54s-34.5 28 -50.5 28c-18 0 -37 -9 -57 -27c-26 -24 -49.833 -60 -71.5 -108
s-32.5 -90.333 -32.5 -127c0 -20.667 5.83301 -37.667 17.5 -51s24.834 -20 39.501 -20z" />
    <glyph glyph-name="A" unicode="A" horiz-adv-x="588" 
d="M381 260l-200.999 0.000976562l-85 -167c-18.667 -31.333 -27 -51 -25 -59s18 -13.333 48 -16l37 -4l2 -14h-206l3 14l32 3c22.667 2.66699 39.167 9.66699 49.5 21s32.166 46 65.499 104l225 436l-3 23c25.333 12 42.333 23 51 33h8l85 -566
c3.33301 -20.667 7.5 -34.167 12.5 -40.5s15.5 -9.83301 31.5 -10.5l39 -3l2 -14h-226l3 14l42 2c29.333 1.33301 43 9.66602 41 24.999zM190.001 279.001h188l-40 282h-3z" />
    <glyph glyph-name="B" unicode="B" horiz-adv-x="547" 
d="M-9 0l2.99707 14.001l50 5c24.667 2.66699 37.334 7 38.001 13l106 563c0.666992 3.33301 -1.16602 5.66602 -5.49902 6.99902s-15.833 3 -34.5 5l-40 4l-1 14h229c56 0 101.833 -12.667 137.5 -38s53.5 -58 53.5 -98c0 -38.667 -16.167 -72.5 -48.5 -101.5
s-83.166 -45.5 -152.499 -49.5v-3c57.333 -9.33301 100.333 -27.5 129 -54.5s43 -58.833 43 -95.5c0 -60.667 -23.833 -106.667 -71.5 -138s-112.5 -47 -194.5 -47h-241zM231.997 16.001c1.33301 0 6.83301 0.167969 16.5 0.500977s15.167 0.5 16.5 0.5
c54 1.33301 95.833 18.333 125.5 51s44.5 72.667 44.5 120c0 43.333 -17.167 78.166 -51.5 104.499s-84.833 39.5 -151.5 39.5h-33l-58 -305c44 -7.33301 74.333 -11 91 -11zM284.997 345.002c56 0 99.5 13.832 130.5 41.499s46.5 64.834 46.5 111.501
c0 72.667 -48.667 109 -146 109h-65l-49 -257c23.333 -3.33301 51 -5 83 -5z" />
    <glyph glyph-name="C" unicode="C" horiz-adv-x="641" 
d="M344 -15c-89.333 0 -160.831 25.5 -214.498 76.5s-80.5 116.833 -80.5 197.5c0 103.333 34.667 192.5 104 267.5s155.666 112.5 258.999 112.5c69.333 0 128.666 -16.333 177.999 -49l51 16l-23 -176h-13l-25 141c-16.667 14 -40.167 26.167 -70.5 36.5
s-61.166 15.5 -92.499 15.5c-88.667 0 -161.5 -37.833 -218.5 -113.5s-85.5 -163.5 -85.5 -263.5c0 -74 20 -133.333 60 -178s97 -67 171 -67c39.333 0 74.166 8 104.499 24s60.5 40 90.5 72l39 66h13l-61 -155l-34 2c-55.333 -16.667 -106 -25 -152 -25z" />
    <glyph glyph-name="D" unicode="D" horiz-adv-x="634" 
d="M-9 0l2.99902 14l50 5c24.667 2.66699 37.334 7 38.001 13l106 563c0.666992 3.33301 -1.16602 5.66602 -5.49902 6.99902s-15.833 3 -34.5 5l-40 4l-1 14h234c85.333 0 153.666 -25.5 204.999 -76.5s77 -116.833 77 -197.5c0 -105.333 -36 -190.166 -108 -254.499
s-170.333 -96.5 -295 -96.5h-229zM243.999 17c97.333 0.666992 174.167 33.833 230.5 99.5s84.5 149.167 84.5 250.5c0 76.667 -19.333 136.167 -58 178.5s-96.667 63.5 -174 63.5h-76l-110 -583z" />
    <glyph glyph-name="E" unicode="E" horiz-adv-x="556" 
d="M-11 0l2.99902 13.999l52 5c24 2 36.667 6.33301 38 13l106 563c0.666992 3.33301 -1.16602 5.66602 -5.49902 6.99902s-15.833 3 -34.5 5l-43 4l-1 14h426l5 -163h-12l-5 44c-12.667 41.333 -28.5 68.833 -47.5 82.5s-54.833 20.5 -107.5 20.5h-112l-52 -272h88
c27.333 0 47.5 2.16699 60.5 6.5s21.667 9.33301 26 15s10.833 17.834 19.5 36.501l13 28l11 -1l-41 -191l-11 1l2 28c2 27.333 -1.16699 43.833 -9.5 49.5s-34.5 8.83398 -78.5 9.50098l-82 2l-58 -302l125 -3c44.667 0 81.667 5.5 111 16.5s50.833 23.5 64.5 37.5
s28.5 34 44.5 60l18 42l15 -1l-70 -171h-458z" />
    <glyph glyph-name="F" unicode="F" horiz-adv-x="523" 
d="M-11 0l2.99707 14.001l52 5c24 2 36.667 6.33301 38 13l106 563c0.666992 3.33301 -1.16602 5.66602 -5.49902 6.99902s-15.833 3 -34.5 5l-43 4l-1 14h433l3 -169l-14 -1l-3 42c-8 42.667 -22.5 72 -43.5 88s-63.5 24 -127.5 24h-101l-53 -278h86
c40 0.666992 65.333 4.16699 76 10.5s21 22.166 31 47.499l12 28l11 -1l-41 -191l-10 1l1 28c0 16 -0.166992 26.667 -0.5 32s-3.66602 10.833 -9.99902 16.5s-14.666 8.83398 -24.999 9.50098s-27.5 1 -51.5 1l-82 2l-53 -285
c-0.666992 -2.66699 -0.166992 -4.66699 1.5 -6s5.5 -2.5 11.5 -3.5s15 -1.83301 27 -2.5l62 -4l1 -14h-256z" />
    <glyph glyph-name="G" unicode="G" horiz-adv-x="660" 
d="M341 -15c-86.667 0 -157 26 -211 78s-81 118.333 -81 199c0 66 15 127.667 45 185s73 104 129 140s118.667 54 188 54c68 0 126.667 -16.333 176 -49l55 17l-30 -174l-12 1l-23 138c-16.667 14 -39.834 25.833 -69.501 35.5s-60.167 14.5 -91.5 14.5
c-58.667 0 -111.667 -18.167 -159 -54.5s-83.166 -82.5 -107.499 -138.5s-36.5 -114.667 -36.5 -176c0 -74 20.833 -134.667 62.5 -182s97.5 -71 167.5 -71c47.333 0 89 9.33301 125 28l40 212c0.666992 3.33301 -1.66602 5.83301 -6.99902 7.5s-17.333 3.16699 -36 4.5
l-53 4l-1 14h243l-4 -14l-48 -5c-24.667 -2.66699 -37.334 -7 -38.001 -13l-39 -201l63 4v-10c-100.667 -32 -183 -48 -247 -48z" />
    <glyph glyph-name="H" unicode="H" horiz-adv-x="698" 
d="M-9 0l3.00195 14l50 5c24.667 2.66699 37.334 7 38.001 13l106 563c0.666992 3.33301 -1.16602 5.66602 -5.49902 6.99902s-15.833 3 -34.5 5l-40 4l-1 14h234l-4 -14l-51 -5c-24 -2 -36.667 -6.33301 -38 -13l-50 -265h342l51 267
c0.666992 3.33301 -1.16602 5.66602 -5.49902 6.99902s-15.833 3 -34.5 5l-42 4l-2 14h234l-4 -14l-48 -5c-24.667 -2.66699 -37.334 -7 -38.001 -13l-107 -563c-0.666992 -3.33301 1.16602 -5.66602 5.49902 -6.99902s16.166 -3 35.499 -5l39 -4l2 -14h-234l3 14l52 5
c24 2 36.667 6.33301 38 13l52 278h-342l-54 -280c-0.666992 -3.33301 1.16602 -5.66602 5.49902 -6.99902s16.166 -3 35.499 -5l42 -4l2 -14h-235z" />
    <glyph glyph-name="I" unicode="I" horiz-adv-x="314" 
d="M-2 0l3 14l52 5c24.667 2 37.667 6.33301 39 13l106 563c0.666992 3.33301 -1.16602 5.66602 -5.49902 6.99902s-15.833 3 -34.5 5l-43 4l-1 14h237l-4 -14l-52 -5c-24 -2 -36.667 -6.33301 -38 -13l-106 -563c-0.666992 -3.33301 1.16602 -5.66602 5.49902 -6.99902
s15.833 -3 34.5 -5l43 -4l1 -14h-237z" />
    <glyph glyph-name="J" unicode="J" horiz-adv-x="307" 
d="M-31 -122c-23.333 0 -41.332 4.49902 -53.999 13.499s-18.667 21.5 -18 37.5c0.666992 12.667 5.16699 23 13.5 31s18.166 12 29.499 12c18 -0.666992 30.833 -9.66699 38.5 -27s3.83398 -33.666 -11.499 -48.999c31.333 -3.33301 59.166 9.5 83.499 38.5
s42.166 73.833 53.499 134.5l102 526c0.666992 3.33301 -1.16602 5.66602 -5.49902 6.99902s-15.833 3 -34.5 5l-45 4l-1 14h239l-4 -14l-51 -5c-24 -2 -36.667 -6.33301 -38 -13l-106 -538c-6 -35.333 -28.5 -73.666 -67.5 -114.999s-80.167 -62 -123.5 -62z" />
    <glyph glyph-name="K" unicode="K" horiz-adv-x="636" 
d="M-9 0l3.00195 14.001l50 5c24.667 2.66699 37.334 7 38.001 13l106 563c0.666992 3.33301 -1.16602 5.66602 -5.49902 6.99902s-15.833 3 -34.5 5l-40 4l-1 14h234l-4 -14l-51 -5c-24 -2 -36.667 -6.33301 -38 -13l-61 -323l248 215
c68 57.333 104.333 91.666 109 102.999c3.33301 8 -1.33398 13.333 -14.001 16c-5.33301 0.666992 -14 1.66699 -26 3l-45 4l-1 14h225l-3 -14l-27 -2c-22.667 -2 -38.667 -6 -48 -12c-7.33301 -4 -47.666 -36 -120.999 -96l-32 -26l-95 -83l145 -323
c9.33301 -23.333 17.166 -37.5 23.499 -42.5s18.166 -8.16699 35.499 -9.5l32 -3l2 -14h-219l3 14l36 3c16 0.666992 26 5.5 30 14.5s3.66699 16.833 -1 23.5l-131 300l-130 -110l-42 -215c-0.666992 -3.33301 1.16602 -5.66602 5.49902 -6.99902s16.166 -3 35.499 -5l42 -4
l2 -14h-235z" />
    <glyph glyph-name="L" unicode="L" horiz-adv-x="527" 
d="M-9 0l3 14.001l50 5c24 2.66699 36.667 7 38 13l106 563c0.666992 3.33301 -1.16602 5.66602 -5.49902 6.99902s-15.833 3 -34.5 5l-40 4l-1 14h251l-3 -14l-69 -5c-24 -2 -36.667 -6.33301 -38 -13l-109 -573l105 -3c33.333 0.666992 61.5 3.5 84.5 8.5
s42.167 13.333 57.5 25s27.166 23 35.499 34s17.833 26.5 28.5 46.5l20 50l15 -1l-59 -180h-435z" />
    <glyph glyph-name="M" unicode="M" horiz-adv-x="794" 
d="M-22 0l3.00195 13.998l47 3c36 2 55.333 9.33301 58 22l119 555c-6 6.66699 -22.333 11.334 -49 14.001l-44 3l-2 14h167l93 -531l2 -1l318 532h153l-4 -14l-50 -5c-24.667 -2.66699 -37.334 -7 -38.001 -13l-101 -563c0 -3.33301 2.16699 -5.66602 6.5 -6.99902
s15.833 -3 34.5 -5l40 -4l1 -14h-236l3 14l55 5c24 2 36.667 6.33301 38 13l97 549h-3l-345 -575h-12l-100 557c-0.666992 2.66699 -3.33398 10 -8.00098 22l-116 -548c-2 -11.333 18.667 -18 62 -20l39 -3l2 -14h-230z" />
    <glyph glyph-name="N" unicode="N" horiz-adv-x="670" 
d="M512 -6l-294 583h-2l-100 -540c-0.666992 -3.33301 0.5 -6.33301 3.5 -9s8.83301 -5 17.5 -7s20 -3.33301 34 -4l38 -3l2 -14h-215l3 14l41 3c34.667 3.33301 53.334 10.666 56.001 21.999l105 544c-6.66699 10 -28.334 17.667 -65.001 23l-31 5l-2 14h155l269 -533h2
l92 496c1.33301 11.333 -17 18 -55 20l-38 3l-2 14h215l-4 -14l-40 -3c-35.333 -3.33301 -54.333 -10.666 -57 -21.999l-113 -592h-15z" />
    <glyph glyph-name="O" unicode="O" horiz-adv-x="692" 
d="M337 -14c-84.667 0 -153.167 28.332 -205.5 84.999s-78.5 126.667 -78.5 210c0 92.667 32.5 175.334 97.5 248.001s145.167 109 240.5 109c84 0 152.333 -28.667 205 -86s79 -127.333 79 -210c0 -99.333 -33.5 -183.5 -100.5 -252.5s-146.167 -103.5 -237.5 -103.5z
M340 1.99902c79.333 0 144.001 35 194.001 105s75 154.333 75 253c0 76 -19.5 138.667 -58.5 188s-93.5 74 -163.5 74c-54 0 -102 -18 -144 -54s-73.333 -81.167 -94 -135.5s-31 -111.833 -31 -172.5c0 -76 19.167 -138 57.5 -186s93.166 -72 164.499 -72z" />
    <glyph glyph-name="P" unicode="P" horiz-adv-x="522" 
d="M-18 0l2.99902 14.002l59 5c24 2 36.667 6.33301 38 13l106 563c0.666992 3.33301 -1.33301 5.83301 -6 7.5s-16 3.16699 -34 4.5l-50 4l-1 14h235c64 0 115.333 -14.333 154 -43s58 -66.334 58 -113.001c0 -52.667 -21.167 -95.834 -63.5 -129.501
s-97.5 -50.5 -165.5 -50.5c-35.333 0 -75.666 5.66699 -120.999 17l-53 -276c-0.666992 -2.66699 -0.166992 -4.66699 1.5 -6s5.5 -2.5 11.5 -3.5s15.333 -1.83301 28 -2.5l61 -4l2 -14h-263zM308.999 305.002c52 0 93.333 15.5 124 46.5s46 73.5 46 127.5
c0 41.333 -13.167 73.333 -39.5 96s-65.5 34 -117.5 34c-43.333 0 -67 -0.333008 -71 -1l-53 -283c35.333 -13.333 72.333 -20 111 -20z" />
    <glyph glyph-name="Q" unicode="Q" horiz-adv-x="692" 
d="M555 -183c-139.333 0 -227 57.333 -263 172c-72.667 10.667 -130.667 42.667 -174 96s-65 118.666 -65 195.999c0 92.667 32.5 175.334 97.5 248.001s145.167 109 240.5 109c83.333 0 151.5 -28.667 204.5 -86s79.5 -127.333 79.5 -210c0 -92.667 -30 -173 -90 -241
s-132.333 -106 -217 -114c18.667 -61.333 48.5 -102.333 89.5 -123s100.5 -29.667 178.5 -27v-13c-21.333 -4.66699 -48.333 -7 -81 -7zM340 1c79.333 0 143.999 35.167 193.999 105.5s75 154.833 75 253.5c0 76 -19.5 138.667 -58.5 188s-93.5 74 -163.5 74
c-54 0 -102 -18 -144 -54s-73.333 -81.167 -94 -135.5s-31 -111.833 -31 -172.5c0 -76 19.333 -138.167 58 -186.5s93.334 -72.5 164.001 -72.5z" />
    <glyph glyph-name="R" unicode="R" horiz-adv-x="590" 
d="M-18 0l3.00098 13.998l59 5c8 0.666992 16.167 2.33398 24.5 5.00098s12.833 5.33398 13.5 8.00098l106 563c0.666992 3.33301 -1.33301 5.83301 -6 7.5s-16 3.16699 -34 4.5l-50 4l-1 14h251c59.333 0 106.833 -13.5 142.5 -40.5s53.5 -61.5 53.5 -103.5
c0 -46 -18.5 -84.667 -55.5 -116s-83.167 -50.666 -138.5 -57.999l106 -240c8.66699 -20.667 17 -33.834 25 -39.501s20 -9.16699 36 -10.5l27 -3l3 -14h-127l-129 305c-47.333 6.66699 -78.333 13.334 -93 20.001l-57 -295c0 -2 2.16699 -4 6.5 -6
s9.66602 -3.33301 15.999 -4s12.5 -1.33398 18.5 -2.00098l49 -4l2 -14h-251zM316.001 319.998c48 2.66699 87.3311 19.001 117.998 49.001s46 69 46 117c0 38 -13.167 68.167 -39.5 90.5s-62.833 33.166 -109.5 32.499l-81 -2l-49 -264
c12.667 -5.33301 31.334 -10.5 56.001 -15.5s44.334 -7.5 59.001 -7.5z" />
    <glyph glyph-name="S" unicode="S" horiz-adv-x="466" 
d="M205 -15c-32 0 -65.498 5 -100.498 15s-64.833 22.333 -89.5 37l14 147l12 -1l10 -71c10.667 -34.667 30.167 -61.834 58.5 -81.501s61.5 -29.5 99.5 -29.5c49.333 0 89.166 12 119.499 36s45.5 58.333 45.5 103c0 34 -10 62.167 -30 84.5s-55.667 49.5 -107 81.5
c-44 28 -77.333 54.667 -100 80s-34 56.333 -34 93c0 51.333 18.167 91.166 54.5 119.499s82.5 42.5 138.5 42.5c44 0 83.667 -10 119 -30l50 9l-23 -163l-13 1l-27 130c-26.667 25.333 -62.334 38 -107.001 38c-43.333 0 -78.333 -11 -105 -33s-40 -51.333 -40 -88
c0 -32 9.66699 -58.5 29 -79.5s53 -46.5 101 -76.5c30 -19.333 53.667 -35.666 71 -48.999s33.5 -31.666 48.5 -54.999s22.5 -48.333 22.5 -75c0 -56.667 -20 -101.667 -60 -135s-92.333 -50 -157 -50z" />
    <glyph glyph-name="T" unicode="T" horiz-adv-x="605" 
d="M134 0l3 14l62 5c24 2 36.667 6.33301 38 13l108 577h-77c-29.333 -1.33301 -53.833 -6.83301 -73.5 -16.5s-34.167 -20 -43.5 -31s-20.333 -27.5 -33 -49.5l-18 -46h-15l45 159h499l-17 -160h-12l-2 46c-5.33301 40 -15.333 65.833 -30 77.5s-45.667 18.5 -93 20.5h-69
l-110 -579c-0.666992 -3.33301 1.33301 -5.83301 6 -7.5s16 -3.16699 34 -4.5l53 -4l2 -14h-257z" />
    <glyph glyph-name="U" unicode="U" horiz-adv-x="665" 
d="M326 -16c-68.667 0 -123.17 14.666 -163.503 43.999s-60.5 72 -60.5 128c0 24.667 3 51 9 79l69 360v3c0 0.666992 -0.5 1.5 -1.5 2.5s-2.33301 1.66699 -4 2l-7.5 1.5c-3.33301 0.666992 -7.16602 1.16699 -11.499 1.5s-9.83301 0.833008 -16.5 1.5l-49 4l-2 14h251
l-3 -14l-59 -5c-24 -2 -36.667 -6.33301 -38 -13l-69 -366c-4.66699 -26.667 -7 -48.667 -7 -66c0 -47.333 15.833 -83.5 47.5 -108.5s77.5 -37.5 137.5 -37.5c106.667 0 172.334 65 197.001 195l71 378c0.666992 3.33301 -0.666016 6.33301 -3.99902 9s-9.5 5 -18.5 7
s-20.5 3.33301 -34.5 4l-38 3l-2 14h216l-4 -14l-40 -3c-34 -3.33301 -52.333 -10.666 -55 -21.999l-73 -380c-27.333 -148 -106.333 -222 -237 -222z" />
    <glyph glyph-name="V" unicode="V" horiz-adv-x="605" 
d="M253 -9l-99.002 566.001c-4 20.667 -8.33301 34.167 -13 40.5s-15 9.83301 -31 10.5l-39 3l-2 14h227l-4 -14l-41 -2c-12.667 -0.666992 -23.167 -3 -31.5 -7s-11.833 -10 -10.5 -18l86 -513h1l241 462c18.667 30.667 27 50 25 58s-18 13.333 -48 16l-37 4l-1 14h205
l-3 -14l-31 -3c-23.333 -2.66699 -40.166 -9.83398 -50.499 -21.501s-32.166 -46.167 -65.499 -103.5l-257 -492h-21z" />
    <glyph glyph-name="W" unicode="W" horiz-adv-x="917" 
d="M245 -9l-94.999 566.002c-4 20.667 -8.33301 34.167 -13 40.5s-15 9.83301 -31 10.5l-39 3l-1 14h229l-4 -14l-45 -2c-12 -0.666992 -22.167 -3 -30.5 -7s-11.833 -10 -10.5 -18l81 -513h2l211 410l-13 76c-4 20.667 -8.33301 34.167 -13 40.5s-15 9.83301 -31 10.5
l-40 3l-2 14h230l-4 -14l-45 -2c-12 -0.666992 -22.167 -3 -30.5 -7s-11.833 -10 -10.5 -18l76 -512h2l232 462c18 31.333 25.833 50.666 23.5 57.999s-18.833 12.333 -49.5 15l-37 4l-2 14h206l-4 -14l-31 -3c-22.667 -2.66699 -38.334 -9.33398 -47.001 -20.001
s-30 -46 -64 -106l-247 -491h-20l-73 455h-2l-237 -455h-21z" />
    <glyph glyph-name="X" unicode="X" horiz-adv-x="615" 
d="M-45 0l2.99805 14.001l33 2c24 1.33301 42.833 6.83301 56.5 16.5s37.167 33.167 70.5 70.5l178 208l-116 244c-8 19.333 -15.833 32.833 -23.5 40.5s-18.834 11.834 -33.501 12.501l-33 3l-1 14h228l-4 -13l-47 -2c-16.667 -0.666992 -27 -4.5 -31 -11.5
s-2.33301 -18.5 5 -34.5l99 -207h1l147 175c8 9.33301 14.833 17.333 20.5 24s9.83398 12.667 12.501 18s5 9.66602 7 12.999s1.83301 6.33301 -0.5 9s-3.66602 4.5 -3.99902 5.5s-3.83301 2 -10.5 3s-11 1.66699 -13 2s-8 0.833008 -18 1.5l-41 3l-1 14h228l-4 -14l-32 -2
c-24 -1.33301 -42 -5.83301 -54 -13.5s-34.333 -29.834 -67 -66.501l-160 -187l131 -272c6.66699 -14.667 11.334 -24.5 14.001 -29.5s7.5 -10 14.5 -15s16.5 -7.83301 28.5 -8.5l33 -3l2 -14h-230l3 14l49 2c16.667 0.666992 26.667 4.16699 30 10.5
s1.33301 17.833 -6 34.5l-112 235h-1l-164 -195c-16 -18.667 -27.5 -33 -34.5 -43s-10 -18 -9 -24s4.66699 -10 11 -12s16.833 -3.33301 31.5 -4l40 -4l2 -14h-228z" />
    <glyph glyph-name="Y" unicode="Y" horiz-adv-x="593" 
d="M129 0l3.00098 13.999l63 5c24 2 36.667 6.33301 38 13l46 245l-113 278c-5.33301 14 -9.5 23.833 -12.5 29.5s-8 10.834 -15 15.501s-16.5 7.33398 -28.5 8.00098l-35 3l-2 14h232l-4 -14l-48 -2c-16.667 -0.666992 -26.667 -4 -30 -10s-2 -17.333 4 -34l104 -263h2
l163 222c26 37.333 38.5 60.166 37.5 68.499s-16.5 13.5 -46.5 15.5l-39 3l-1 14h219l-4 -14l-32 -2c-22.667 -1.33301 -39.667 -6.33301 -51 -15s-32 -32.667 -62 -72l-177 -239l-48 -253v-3c0 -0.666992 0.5 -1.5 1.5 -2.5s2.33301 -1.66699 4 -2l7.5 -1.5
c3.33301 -0.666992 7.16602 -1.16699 11.499 -1.5s9.83301 -0.833008 16.5 -1.5l52 -4l1 -14h-257z" />
    <glyph glyph-name="Z" unicode="Z" horiz-adv-x="535" 
d="M-10 0l2 10.998l506 595v2l-188 1c-51.333 0 -89 -8.83301 -113 -26.5s-47 -48.167 -69 -91.5l-14 -43h-14l40 177h435l-2 -11l-504 -595l-1 -2l183 -1c34 0 62.833 2.83301 86.5 8.5s43.834 14.834 60.501 27.501s30.167 26.334 40.5 41.001s21.166 33.667 32.499 57
l18 47h16l-64 -197h-451z" />
    <glyph glyph-name="bracketleft" unicode="[" horiz-adv-x="325" 
d="M-3 -237l130 870h245l-1 -18h-224l-127 -835h224l-2 -17h-245z" />
    <glyph glyph-name="backslash" unicode="\" horiz-adv-x="246" 
d="M211 -236l-211 875h19l211 -875h-19z" />
    <glyph glyph-name="bracketright" unicode="]" horiz-adv-x="325" 
d="M-56 -237l2 17h224l127 835h-224l1 18h245l-130 -870h-245z" />
    <glyph glyph-name="asciicircum" unicode="^" horiz-adv-x="379" 
d="M115 488l145 177h26l79 -177h-8l-91 122h-3l-138 -122h-10z" />
    <glyph glyph-name="underscore" unicode="_" horiz-adv-x="453" 
d="M-33 -34l7 33h423l-2 -33h-428z" />
    <glyph glyph-name="grave" unicode="`" horiz-adv-x="379" 
d="M276 495l-138 184h64l84 -184h-10z" />
    <glyph glyph-name="a" unicode="a" horiz-adv-x="426" 
d="M276 -14c-10 0 -19.167 6.16504 -27.5 18.498s-12.5 24.833 -12.5 37.5c0 18 15.667 70.333 47 157h-5c-27.333 -46 -49 -81.167 -65 -105.5s-35.5 -48.166 -58.5 -71.499s-43.167 -35 -60.5 -35c-23.333 0 -42.5 10 -57.5 30s-22.5 45 -22.5 75
c0 48 15.333 101.333 46 160s64.667 106.334 102 143.001c30 30 59.333 45 88 45c20 0 36.667 -8.16699 50 -24.5s21 -38.166 23 -65.499h3l27 94l47 -2l-67 -212l-58 -202l42 -6l75 104l9 -8c-21.333 -40.667 -43 -72.834 -65 -96.501s-42 -35.5 -60 -35.5zM116 27.998
c20.667 0 45.668 19.998 75.001 59.998s63.333 95.667 102 167c13.333 26.667 20 49.334 20 68.001c-4.66699 19.333 -15.334 38.333 -32.001 57s-35.667 28 -57 28c-18 0 -36 -9 -54 -27c-26 -26 -49.833 -67.167 -71.5 -123.5s-32.5 -105.166 -32.5 -146.499
c0 -26.667 4.83301 -47.167 14.5 -61.5s21.5 -21.5 35.5 -21.5z" />
    <glyph glyph-name="b" unicode="b" horiz-adv-x="408" 
d="M154 -15c-31.333 0 -59.332 10.499 -83.999 31.499s-33.334 44.833 -26.001 71.5l146 531c2.66699 13.333 0.333984 20 -6.99902 20l-81 4l2 12l151 18l-30 -115c-68.667 -223.333 -106.667 -346.666 -114 -369.999c-1.33301 -4 -1.16602 -6.33301 0.500977 -7
s3.5 0.666016 5.5 3.99902c35.333 78.667 70.5 141.334 105.5 188.001s66.167 70 93.5 70c25.333 0 45.666 -11 60.999 -33s23 -49.333 23 -82c0 -45.333 -12 -94.833 -36 -148.5s-53.333 -97.5 -88 -131.5c-40.667 -42 -81.334 -63 -122.001 -63zM166.001 2.99902
c24.667 0 51 13.3311 79 39.998c28 28 52.167 68.333 72.5 121s30.5 102.667 30.5 150c0 26.667 -4.83301 47.834 -14.5 63.501s-23.167 23.834 -40.5 24.501c-22 0 -49 -23.333 -81 -70s-64.667 -106.667 -98 -180c-16.667 -38 -25 -68.667 -25 -92
c4 -16 14.333 -29.5 31 -40.5s32 -16.5 46 -16.5z" />
    <glyph glyph-name="c" unicode="c" horiz-adv-x="330" 
d="M135 -13c-35.333 0 -63.4971 13.834 -84.4971 41.501s-31.5 61.5 -31.5 101.5c0 77.333 25 149 75 215s102.667 99 158 99c25.333 0 47.166 -6.16699 65.499 -18.5s27.5 -28.5 27.5 -48.5c0 -12.667 -3.5 -22.834 -10.5 -30.501s-15.833 -11.5 -26.5 -11.5
c-8.66699 0 -16.334 3 -23.001 9s-10 13.667 -10 23c0 14 9 25.333 27 34c-14.667 18.667 -35.334 28 -62.001 28c-24.667 0 -49 -12 -73 -36c-25.333 -26 -47.666 -62.833 -66.999 -110.5s-29 -93.167 -29 -136.5c0 -38 8 -68 24 -90s36.333 -33 61 -33
c43.333 0 86.666 33.333 129.999 100l10 -8c-54 -85.333 -107.667 -128 -161 -128z" />
    <glyph glyph-name="d" unicode="d" horiz-adv-x="426" 
d="M276 -14c-10 0 -19.167 6.16602 -27.5 18.499s-12.5 24.833 -12.5 37.5c0 18 15.667 70.333 47 157h-5c-27.333 -46 -49 -81.167 -65 -105.5s-35.5 -48.166 -58.5 -71.499s-43.167 -35 -60.5 -35c-23.333 0 -42.5 10 -57.5 30s-22.5 45 -22.5 75
c0 48 15.5 101.833 46.5 161.5s64.833 107.834 101.5 144.501c30 30 59.333 45 88 45c20 0 36.167 -8.66699 48.5 -26s19.5 -41 21.5 -71h4l72 273c4.66699 13.333 2.66699 20 -6 20l-95 4l2 12l166 18l-107 -370l-81 -275l42 -6l75 103l9 -7
c-21.333 -40.667 -43 -72.834 -65 -96.501s-42 -35.5 -60 -35.5zM116 27.999c35.333 0 91.668 70.333 169.001 211c18.667 37.333 28 65.333 28 84c-4.66699 20 -15.334 39.667 -32.001 59s-35.667 29 -57 29c-16.667 0 -34.667 -9 -54 -27
c-25.333 -26 -49 -67.5 -71 -124.5s-33 -106.5 -33 -148.5c0 -26.667 4.83301 -47.167 14.5 -61.5s21.5 -21.5 35.5 -21.5z" />
    <glyph glyph-name="e" unicode="e" horiz-adv-x="328" 
d="M135 -13c-35.333 0 -63.5 13.832 -84.5 41.499s-31.5 61.5 -31.5 101.5c0 78 24 149.833 72 215.5s99.667 98.5 155 98.5c26.667 0 48.834 -6.66699 66.501 -20s26.5 -29.333 26.5 -48c0 -30.667 -18.333 -56.5 -55 -77.5s-104 -46.5 -202 -76.5
c-7.33301 -27.333 -11 -52.666 -11 -75.999c0 -38 8 -68 24 -90s36.333 -33 61 -33c43.333 0 86.666 33.333 129.999 100l10 -8c-54 -85.333 -107.667 -128 -161 -128zM88 237.999c78 22 130.667 42.668 158 62.001s41 44.666 41 75.999
c0 14.667 -4.83301 27.167 -14.5 37.5s-22.167 15.5 -37.5 15.5c-20 0 -43 -12.333 -69 -37c-34.667 -34 -61.334 -85 -80.001 -153c0.666992 0 1.33398 -0.333008 2.00098 -1z" />
    <glyph glyph-name="f" unicode="f" horiz-adv-x="245" 
d="M-72 -200c-22 0 -38.833 4.66797 -50.5 14.001s-17.5 21.333 -17.5 36c0 11.333 3.5 20.666 10.5 27.999s15.5 11 25.5 11c14.667 0 24.667 -6.5 30 -19.5s2.33301 -27.833 -9 -44.5c4 -2 12.167 -1.16699 24.5 2.5s18.833 5.5 19.5 5.5c16 3.33301 29.167 12 39.5 26
s21 39.5 32 76.5s23.5 91.833 37.5 164.5l54 299l-78 1l7 27l80 5c21.333 94 49 158.667 83 194c27.333 29.333 61.333 44 102 44c20.667 0 38.167 -5.16699 52.5 -15.5s21.5 -22.833 21.5 -37.5c0 -12 -3.33301 -21.667 -10 -29s-15 -11 -25 -11
c-14.667 0 -24.834 6.33301 -30.501 19s-2.5 27.667 9.5 45c-26 1.33301 -43.667 2 -53 2c-25.333 -6 -45.166 -24 -59.499 -54s-28.833 -83 -43.5 -159l106 -1l-5 -30h-107l-61 -297c-30 -138.667 -64.667 -227.667 -104 -267c-23.333 -23.333 -50.333 -35 -81 -35z" />
    <glyph glyph-name="g" unicode="g" horiz-adv-x="373" 
d="M113 -236c-51.333 0 -96.5 10.998 -135.5 32.998s-58.5 48.667 -58.5 80c0 24.667 15 49 45 73s65 42 105 54v3c-44 18 -66 40.667 -66 68c0 18 9.66699 34.333 29 49s41 24.334 65 29.001l1 2c-32 28.667 -48 66.334 -48 113.001c0 45.333 16.667 86 50 122
s72 54 116 54c28.667 0 55.667 -10 81 -30l113 17l-13 -43l-110 15v-3c25.333 -30 38 -63 38 -99c0 -42 -17.5 -80.667 -52.5 -116s-72.833 -53 -113.5 -53c-18.667 0 -34.667 4.66699 -48 14c-19.333 -4 -35.833 -11 -49.5 -21s-20.5 -20.333 -20.5 -31
c0 -11.333 7 -21.833 21 -31.5s40 -20.167 78 -31.5l28 -9c100 -32 150 -72.667 150 -122c0 -36.667 -20.167 -68.5 -60.5 -95.5s-88.5 -40.5 -144.5 -40.5zM156 144.998c24 0 46.333 10.333 67 31c38 39.333 57 96.333 57 171c0 21.333 -7.83301 40.166 -23.5 56.499
s-31.834 24.5 -48.501 24.5c-15.333 0 -32.666 -8.66699 -51.999 -26c-17.333 -18 -31.666 -42.5 -42.999 -73.5s-17 -62.167 -17 -93.5c0 -33.333 8.66699 -58.666 26 -75.999c9.33301 -9.33301 20.666 -14 33.999 -14zM133 -218.002c41.333 0 76.3301 9 104.997 27
s43 39.667 43 65c0 38.667 -40.667 71.667 -122 99c-5.33301 2 -16.666 5.83301 -33.999 11.5s-30.666 10.167 -39.999 13.5c-82 -28 -123 -65.333 -123 -112c0 -31.333 15.833 -56.5 47.5 -75.5s72.834 -28.5 123.501 -28.5z" />
    <glyph glyph-name="h" unicode="h" horiz-adv-x="430" 
d="M288 -13c-10 0 -22.1699 4.50293 -36.5029 13.5029s-21.5 16.833 -21.5 23.5c0 4.66699 3.33301 16.5 10 35.5s16.334 45.167 29.001 78.5s22.667 60.666 30 81.999c32.667 92 49 142.333 49 151c0 10.667 -4.5 19.667 -13.5 27s-19.167 11 -30.5 11
c-16 0 -46.167 -31.833 -90.5 -95.5s-87.833 -138.834 -130.5 -225.501l-29 -91l-51 5c0.666992 2 4 13 10 33s13 42.833 21 68.5s14 44.834 18 57.501c12 35.333 28.5 91.166 49.5 167.499s39.167 143.833 54.5 202.5l23 88c2.66699 13.333 0.333984 20 -6.99902 20l-81 4
l2 12l151 18l-30 -115c-7.33301 -25.333 -18.666 -64.833 -33.999 -118.5s-27.166 -94.834 -35.499 -123.501s-17.833 -59.5 -28.5 -92.5s-19.334 -57.833 -26.001 -74.5l7 -1c26.667 52 57.5 104 92.5 156s61.833 87.667 80.5 107c20 21.333 40.333 32 61 32
c15.333 0 30.166 -7 44.499 -21s21.5 -29.333 21.5 -46c0 -15.333 -16.667 -68.333 -50 -159l-71 -189l44 -6l76 104l9 -8c-21.333 -40 -42.666 -71.833 -63.999 -95.5s-39 -35.5 -53 -35.5z" />
    <glyph glyph-name="i" unicode="i" horiz-adv-x="234" 
d="M227 545c-10.667 0 -18.999 3.33203 -24.999 9.99902s-9 15.334 -9 26.001c0 13.333 4.16699 25.333 12.5 36s17.166 16 26.499 16c10.667 0 19.167 -3.33301 25.5 -10s9.5 -15 9.5 -25c0 -14 -4.16699 -26.333 -12.5 -37s-17.5 -16 -27.5 -16zM88.001 -13.001
c-10 0 -22.1699 4.5 -36.5029 13.5s-21.166 16.833 -20.499 23.5l134 380l-44 5l-75 -104l-9 8c21.333 40.667 43 72.667 65 96s42 35 60 35c10 0 19.5 -6.16699 28.5 -18.5s13.167 -24.833 12.5 -37.5c0 -6 -10.667 -39 -32 -99s-42.666 -118.333 -63.999 -175l-32 -86
l44 -6l77 104l9 -8c-21.333 -40 -42.666 -71.833 -63.999 -95.5s-39 -35.5 -53 -35.5z" />
    <glyph glyph-name="j" unicode="j" horiz-adv-x="211" 
d="M222 544c-10.667 0 -19.166 3.33301 -25.499 10s-9.5 15.667 -9.5 27c0 12.667 4.16699 24.5 12.5 35.5s17.166 16.5 26.499 16.5c10.667 0 19.167 -3.5 25.5 -10.5s9.5 -15.5 9.5 -25.5c0 -14 -4 -26.333 -12 -37s-17 -16 -27 -16zM-103.999 -253
c-14 0 -26.168 4.33594 -36.501 13.0029s-15.5 19 -15.5 31c0 9.33301 3.33301 17.666 10 24.999s15.334 11 26.001 11c14.667 0 25 -5.83301 31 -17.5s3.33301 -25.167 -8 -40.5l42 14c31.333 34.667 60.666 97.667 87.999 189l122 432l-42 5l-75 -104l-9 8
c21.333 40.667 43 72.667 65 96s42 35 60 35c9.33301 0 18.5 -6.16699 27.5 -18.5s13.167 -24.833 12.5 -37.5c0 -10.667 -15.167 -67.834 -45.5 -171.501s-53.166 -174.834 -68.499 -213.501c-40 -112.667 -75 -184 -105 -214c-26.667 -28 -53 -42 -79 -42z" />
    <glyph glyph-name="k" unicode="k" horiz-adv-x="402" 
d="M271 -14c-9.33301 0 -19.5 2.33301 -30.5 7s-19.167 10 -24.5 16c-4.66699 153.333 -24.334 230 -59.001 230c-8.66699 0 -21.667 -4.33301 -39 -13l-68 -230l-50 5c0.666992 2 4.16699 12.833 10.5 32.5s13.833 42.834 22.5 69.501s14.667 45.667 18 57
c12 35.333 28.5 91.333 49.5 168s39.167 144.334 54.5 203.001l23 88c4 13.333 1.66699 20 -7 20l-81 4l3 12l150 18l-30 -115c-58 -200.667 -88.667 -306 -92 -316c1.33301 0.666992 4.16602 1.16699 8.49902 1.5s7.5 0.5 9.5 0.5c48.667 18.667 90.334 39.5 125.001 62.5
s54.667 41.167 60 54.5l8 9c-10 2 -18.333 6.5 -25 13.5s-10 15.167 -10 24.5c0 8.66699 3.83301 16.667 11.5 24s16.167 11 25.5 11c10 0 18.5 -3.83301 25.5 -11.5s10.5 -16.834 10.5 -27.501c0 -47.333 -44 -89.333 -132 -126l-60 -28
c20.667 -0.666992 39.334 -24.334 56.001 -71.001s26.667 -98.667 30 -156l31 -1l70 111l9 -7c-17.333 -39.333 -35.5 -72.5 -54.5 -99.5s-35.167 -40.5 -48.5 -40.5z" />
    <glyph glyph-name="l" unicode="l" horiz-adv-x="212" 
d="M67 -13c-10 0 -21.833 4.5 -35.5 13.5s-20.167 16.833 -19.5 23.5l170 595c4 13.333 2 20 -6 20l-81 4l2 12l150 18l-192 -645l43 -6l78 104l9 -8c-21.333 -40 -42.833 -71.833 -64.5 -95.5s-39.5 -35.5 -53.5 -35.5z" />
    <glyph glyph-name="m" unicode="m" horiz-adv-x="683" 
d="M542 -13c-10 0 -22.0039 4.50098 -36.0039 13.501s-21 16.833 -21 23.5c0 3.33301 3.33301 14.5 10 33.5s16.334 45.833 29.001 80.5s22.667 62 30 82c32.667 92 49 141.667 49 149c0 10 -5.83301 19.333 -17.5 28s-23.167 13 -34.5 13
c-15.333 0 -44.166 -31.5 -86.499 -94.5s-85.166 -138.833 -128.499 -227.5l-30 -91l-51 5l50 162c6.66699 20 16 47.5 28 82.5s21.5 63 28.5 84s10.5 33.833 10.5 38.5c0 10 -5.16699 19.333 -15.5 28s-21.5 13 -33.5 13c-15.333 0 -43.5 -31.333 -84.5 -94
s-83.5 -138.667 -127.5 -228l-29 -91l-51 5l49 159l69 243l-42 5l-75 -104l-9 8c21.333 41.333 43 73.666 65 96.999s42 35 60 35c9.33301 0 18.333 -6 27 -18s13 -24.667 13 -38c0 -22 -23.667 -101.667 -71 -239l7 -1c28 54.667 58 107.167 90 157.5s56.667 84.5 74 102.5
c22 23.333 43 35 63 35c14.667 0 29.667 -7.66699 45 -23s23 -31.333 23 -48c0 -16 -25.667 -90.333 -77 -223l7 -1c27.333 52.667 57.333 104.5 90 155.5s58 85.833 76 104.5c22 23.333 43 35 63 35c15.333 0 31 -7.5 47 -22.5s24 -31.167 24 -48.5
c0 -18.667 -16.333 -70.667 -49 -156l-70 -189l43 -6l77 105l9 -8c-21.333 -40 -42.666 -72 -63.999 -96s-39 -36 -53 -36z" />
    <glyph glyph-name="n" unicode="n" horiz-adv-x="458" 
d="M316 -13c-10 0 -22.168 4.50098 -36.501 13.501s-21.5 16.833 -21.5 23.5c0 4.66699 3.33301 16.5 10 35.5s16.334 45.5 29.001 79.5s22.667 61 30 81c32.667 96.667 49 147.334 49 152.001c0 10.667 -4.5 19.667 -13.5 27s-19.167 11 -30.5 11
c-15.333 0 -45.333 -32 -90 -96s-88.334 -139.333 -131.001 -226l-29 -91l-51 5l49 159l67 243l-41 5l-74 -104l-9 8c21.333 41.333 43 73.666 65 96.999s42 35 60 35c9.33301 0 18.333 -6 27 -18s13 -24.667 13 -38c0 -24 -23.333 -103.667 -70 -239l7 -2
c26.667 51.333 57.334 103.166 92.001 155.499s61.667 88.5 81 108.5c20 21.333 40.333 32 61 32c15.333 0 30.166 -7 44.499 -21s21.5 -29.667 21.5 -47s-17 -70.333 -51 -159c-6.66699 -18 -15.667 -42.167 -27 -72.5s-21 -56.5 -29 -78.5s-12.667 -34.667 -14 -38l44 -6
l76 105l9 -8c-21.333 -40 -42.666 -72 -63.999 -96s-39 -36 -53 -36z" />
    <glyph glyph-name="o" unicode="o" horiz-adv-x="377" 
d="M141 -13c-40 0 -69.333 16.332 -88 48.999s-28 72 -28 118c0 66.667 21.333 131.667 64 195s90 95 142 95c38 0 67.667 -16.667 89 -50s32 -75.666 32 -126.999c0 -67.333 -21.5 -130.833 -64.5 -190.5s-91.833 -89.5 -146.5 -89.5zM135 2.99902
c30.667 0 59.667 16.6689 87 50.002s48.666 74.666 63.999 123.999c13.333 43.333 20 86.666 20 129.999c0 80 -23 120 -69 120c-29.333 0 -57.166 -19 -83.499 -57s-47.833 -83 -64.5 -135c-12.667 -42 -19 -81.667 -19 -119c0 -34 5.5 -61.333 16.5 -82
s27.167 -31 48.5 -31z" />
    <glyph glyph-name="p" unicode="p" horiz-adv-x="425" 
d="M-100 -251l3 14.002l37 2c20.667 0.666992 31.667 4.66699 33 12l174 627l-41 5l-74 -104l-9 8c20 40 41.333 71.833 64 95.5s43 35.5 61 35.5c9.33301 0 18.333 -6 27 -18s13 -24.667 13 -38c0 -6.66699 -1.66699 -16.834 -5 -30.501s-8.16602 -30.834 -14.499 -51.501
s-10.166 -33 -11.499 -37h5c10 22.667 22 45.667 36 69s32.5 46.666 55.5 69.999s44.167 35 63.5 35c27.333 0 48.666 -13 63.999 -39s23 -60 23 -102c0 -49.333 -9.5 -98.166 -28.5 -146.499s-46 -88.666 -81 -120.999s-72.5 -48.5 -112.5 -48.5
c-34.667 0 -62.334 21.667 -83.001 65h-2l-76 -275c-1.33301 -6.66699 12 -10.334 40 -11.001l49 -2l1 -14h-211zM187 0.00195312c22 0 45.668 12.665 71.001 37.998c29.333 29.333 52.5 69 69.5 119s25.5 98 25.5 144c0 31.333 -5.33301 56.833 -16 76.5
s-25 29.834 -43 30.501c-47.333 0 -107 -96.333 -179 -289c-4.66699 -28 -7 -42.667 -7 -44c5.33301 -17.333 15.166 -34.166 29.499 -50.499s30.833 -24.5 49.5 -24.5z" />
    <glyph glyph-name="q" unicode="q" horiz-adv-x="404" 
d="M70 -251l2.00098 13.9961l50 2c22 0.666992 35 5.33398 39 14.001c1.33301 4.66699 11.333 42 30 112s33 119.333 43 148c1.33301 4.66699 6.66602 23.5 15.999 56.5s20.333 67.5 33 103.5h-5c-27.333 -46 -49 -81.167 -65 -105.5s-35.5 -48.166 -58.5 -71.499
s-43.167 -35 -60.5 -35c-23.333 0 -42.5 10 -57.5 30s-22.5 45 -22.5 75c0 48 15.5 101.833 46.5 161.5s64.833 107.834 101.5 144.501c30 30 59.333 45 88 45c20 0 36.167 -8.66699 48.5 -26s19.5 -41 21.5 -71h4l26 87l47 -4l-64 -199l-126 -453
c-0.666992 -4 1.83301 -6.66699 7.5 -8s15.167 -2.66602 28.5 -3.99902l36 -2l3 -14h-212zM116.001 27.9961c35.333 0 91.668 70.333 169.001 211c18.667 37.333 28 65.333 28 84c-4.66699 20 -15.334 39.667 -32.001 59s-35.667 29 -57 29c-16.667 0 -34.667 -9 -54 -27
c-25.333 -26 -49 -67.5 -71 -124.5s-33 -106.5 -33 -148.5c0 -26.667 4.83301 -47.167 14.5 -61.5s21.5 -21.5 35.5 -21.5z" />
    <glyph glyph-name="r" unicode="r" horiz-adv-x="366" 
d="M82 -3l-50.9971 5.00098l52 159l64 243l-41 5l-74 -104l-9 8c21.333 41.333 43 73.666 65 96.999s42 35 60 35c9.33301 0 18.333 -6 27 -18s13 -24.667 13 -38c0 -23.333 -19.333 -95 -58 -215h5c64 121.333 106 192 126 212c15.333 23.333 27.666 39 36.999 47
s21.666 12 36.999 12c16 0 29.167 -5.66699 39.5 -17s15.5 -24 15.5 -38c0 -12 -3.83301 -21.833 -11.5 -29.5s-16.834 -11.5 -27.501 -11.5c-13.333 0 -22.833 5.83301 -28.5 17.5s-2.16699 25.167 10.5 40.5l-26 11c-9.33301 -4 -31 -32.833 -65 -86.5
s-72 -119.5 -114 -197.5z" />
    <glyph glyph-name="s" unicode="s" horiz-adv-x="301" 
d="M115 -13c-33.333 0 -61.166 7.16992 -83.499 21.5029s-33.5 33.166 -33.5 56.499c0 12 3.33301 22 10 30s14.667 12 24 12s17.166 -3.33301 23.499 -10s9.5 -14.667 9.5 -24c0 -16 -8.33301 -27.333 -25 -34c27.333 -24.667 58 -37.334 92 -38.001
c27.333 2 47.833 12 61.5 30s20.167 38 19.5 60c0 12.667 -4.66699 26.5 -14 41.5s-17.166 25.833 -23.499 32.5s-18.5 18.667 -36.5 36s-31.667 31 -41 41s-18.166 22.667 -26.499 38s-12.5 30.666 -12.5 45.999c-0.666992 32.667 13 60.5 41 83.5s58.667 34.5 92 34.5
c30 0 54.5 -6.5 73.5 -19.5s28.833 -31.167 29.5 -54.5c0 -12.667 -3.5 -22.667 -10.5 -30s-15.5 -11 -25.5 -11c-9.33301 0 -16.833 3.16699 -22.5 9.5s-8.5 14.5 -8.5 24.5c0 16 7.66699 27.333 23 34c-22.667 21.333 -47.334 32 -74.001 32
c-24.667 -2 -43.834 -11 -57.501 -27s-20.167 -35.333 -19.5 -58c0 -17.333 5.5 -33.333 16.5 -48s28.5 -33 52.5 -55c17.333 -16 30.666 -28.833 39.999 -38.5s19.5 -23.667 30.5 -42s16.5 -35.833 16.5 -52.5c0 -33.333 -14.167 -61.833 -42.5 -85.5
s-61.166 -35.5 -98.499 -35.5z" />
    <glyph glyph-name="t" unicode="t" horiz-adv-x="250" 
d="M91 -13c-10.667 0 -23.833 4.66797 -39.5 14.001s-22.167 17.666 -19.5 24.999l100 373l-75 1l7 27l77 5l37 134h46l-37 -136l96 -1l-4 -30h-101l-101 -371l47 -6l75 104l9 -8c-20.667 -40 -41.667 -71.833 -63 -95.5s-39.333 -35.5 -54 -35.5z" />
    <glyph glyph-name="u" unicode="u" horiz-adv-x="458" 
d="M310 -14c-9.33301 0 -18.333 6.16797 -27 18.501s-13 24.833 -13 37.5c0 26.667 23 106.667 69 240l-7 2c-26.667 -51.333 -57.334 -103.333 -92.001 -156s-61.334 -88.667 -80.001 -108c-20.667 -22 -42.334 -33 -65.001 -33c-14.667 0 -28.667 7 -42 21
s-20 29.667 -20 47c0 15.333 16.667 68.333 50 159l70 190l-44 5l-76 -105l-9 8c20.667 40.667 41.834 72.834 63.501 96.501s39.834 35.5 54.501 35.5c10 0 22.167 -4.33301 36.5 -13s21.5 -16.334 21.5 -23.001c0 -5.33301 -3.33301 -17.333 -10 -36
s-16.5 -45.167 -29.5 -79.5s-22.833 -61.5 -29.5 -81.5c-32.667 -90.667 -49 -141 -49 -151c0 -10.667 4.33301 -19.834 13 -27.501s19 -11.5 31 -11.5c15.333 0 45.333 31.833 90 95.5s88.334 138.834 131.001 225.501l31 92l50 -5l-50 -159l-68 -242l41 -6l75 104l9 -8
c-21.333 -40.667 -43 -72.834 -65 -96.501s-42 -35.5 -60 -35.5z" />
    <glyph glyph-name="v" unicode="v" horiz-adv-x="374" 
d="M125 -13c-22.667 0 -42.334 9.83398 -59.001 29.501s-25 43.5 -25 71.5c0 62.667 42 163.667 126 303l-73 17l-70 -105l-9 7c44 91.333 79.333 137 106 137c12 0 28.167 -2.5 48.5 -7.5s30.5 -9.5 30.5 -13.5c0 -6.66699 -9.33301 -29.5 -28 -68.5
s-37.334 -82.167 -56.001 -129.5s-28 -84.333 -28 -111c0 -26 8.83301 -46.667 26.5 -62s33.834 -23 48.501 -23c27.333 0 63 43 107 129s69.667 156 77 210c-12 -6.66699 -24.833 -6.5 -38.5 0.5s-20.5 18.833 -20.5 35.5c0 10 4 18.833 12 26.5s17.333 11.5 28 11.5
c14.667 0 26.167 -5.66699 34.5 -17s12.833 -26.333 13.5 -45c0 -22.667 -14.333 -67.834 -43 -135.501s-59.667 -122.167 -93 -163.5c-19.333 -26.667 -39.666 -49.5 -60.999 -68.5s-39.333 -28.5 -54 -28.5z" />
    <glyph glyph-name="w" unicode="w" horiz-adv-x="572" 
d="M103 -13c-18 0 -33.334 7.66797 -46.001 23.001s-19 34.333 -19 57c0 18.667 8.16699 47.334 24.5 86.001s38.333 84.667 66 138s44.167 85.666 49.5 96.999l-82 20l-72 -105l-9 7c44 91.333 82 137 114 137c12.667 0 30.334 -2.66699 53.001 -8s34 -9.66602 34 -12.999
c0 -6 -21.167 -54.5 -63.5 -145.5s-63.5 -150.167 -63.5 -177.5c0 -20 6.16699 -35.5 18.5 -46.5s25.5 -16.5 39.5 -16.5c19.333 0 51.833 37.667 97.5 113s83.167 143 112.5 203l-4 2c-2.66699 0.666992 -6.16699 2.16699 -10.5 4.5s-8.66602 5.16602 -12.999 8.49902
s-8 8 -11 14s-4.5 12.333 -4.5 19c0 11.333 3.83301 20.833 11.5 28.5s17.834 11.5 30.501 11.5c11.333 0 21 -4.33301 29 -13s12 -19 12 -31c0.666992 -12 -8.33301 -32.667 -27 -62s-31.667 -55 -39 -77c-19.333 -54.667 -29 -102.667 -29 -144
c0 -24.667 6.66699 -43.667 20 -57s28.333 -20 45 -20c17.333 0 39.666 20.667 66.999 62s51.166 88.166 71.499 140.499s30.5 93.166 30.5 122.499c-12 -2.66699 -23.667 -0.166992 -35 7.5s-17 18.167 -17 31.5c0 10.667 4 20.167 12 28.5s17.333 12.5 28 12.5
c12 0 22.5 -4.83301 31.5 -14.5s13.5 -21.5 13.5 -35.5c0.666992 -30 -13.166 -81.167 -41.499 -153.5s-59.5 -128.166 -93.5 -167.499c-42.667 -58 -76.667 -87 -102 -87c-17.333 0 -32.5 7.5 -45.5 22.5s-19.5 32.833 -19.5 53.5c0 26 14.333 84 43 174
c-44 -82 -82.333 -144.167 -115 -186.5s-63.334 -63.5 -92.001 -63.5z" />
    <glyph glyph-name="x" unicode="x" horiz-adv-x="425" 
d="M39 -15c-14 0 -26.3281 4.66504 -36.9951 13.998s-16 20.333 -16 33c0 12 3.33301 22 10 30s15 12 25 12c10.667 0 18.334 -5.16699 23.001 -15.5s3.66699 -20.5 -3 -30.5c0 -2.66699 3 -5.16699 9 -7.5s12 -3.5 18 -3.5c13.333 0 33.166 21.333 59.499 64
s48.166 85 65.499 127c-6.66699 43.333 -16.334 87 -29.001 131s-23.667 66 -33 66h-24l-51 -86l-11 7c15.333 34 31.833 62 49.5 84s31.834 33 42.501 33c12 0 22.667 -4.33301 32 -13s17.833 -23 25.5 -43s13.667 -39.167 18 -57.5s10.166 -44.166 17.499 -77.499h2
c34 75.333 60.667 126.166 80 152.499s42.666 39.5 69.999 39.5c14.667 0 27.167 -4.66699 37.5 -14s15.5 -20.666 15.5 -33.999c0 -11.333 -3.33301 -21 -10 -29s-14.667 -12 -24 -12c-11.333 0 -19.333 5 -24 15s-3.66699 19.667 3 29c0 2.66699 -3 5.16699 -9 7.5
s-11.667 3.5 -17 3.5c-14 0 -32.833 -18.833 -56.5 -56.5s-43.834 -77.5 -60.501 -119.5c8 -47.333 18.167 -94.166 30.5 -140.499s23.5 -69.5 33.5 -69.5l23 1l52 84l10 -7c-15.333 -34 -31.833 -62 -49.5 -84s-31.834 -33 -42.501 -33c-24 0 -42.667 17.167 -56 51.5
s-26.333 84.833 -39 151.5h-2c-36.667 -79.333 -65.167 -133 -85.5 -161s-44.5 -42 -72.5 -42z" />
    <glyph glyph-name="y" unicode="y" horiz-adv-x="406" 
d="M-20 -204c-24 0 -43.3369 4.83398 -58.0039 14.501s-22 22.834 -22 39.501c0.666992 11.333 4.66699 20.833 12 28.5s16.333 11.5 27 11.5c14.667 0 24.834 -7 30.501 -21s3.83398 -29.333 -5.49902 -46c22.667 -4.66699 37 -7.66699 43 -9
c26.667 3.33301 61.834 24.833 105.501 64.5s77.834 77.5 102.501 113.5c-10 110 -24.333 206.833 -43 290.5s-37.334 125.5 -56.001 125.5l-23 2l-67 -107l-10 8c22 46 41.167 80 57.5 102s33.5 33 51.5 33c24 0 43.667 -11.833 59 -35.5s28.333 -64 39 -121
s20 -136.5 28 -238.5v2c1.33301 1.33301 2.33301 0.666016 3 -2.00098c27.333 56 52 117.833 74 185.5s32.333 117.5 31 149.5c-15.333 -9.33301 -29.666 -10.333 -42.999 -3s-20 17.333 -20 30c0 10 3.66699 18.667 11 26s16.333 11 27 11
c14.667 0 26.167 -5.83301 34.5 -17.5s12.5 -26.834 12.5 -45.501c0 -63.333 -19 -139 -57 -227s-83.667 -161.667 -137 -221c-78 -95.333 -147 -143 -207 -143z" />
    <glyph glyph-name="z" unicode="z" horiz-adv-x="349" 
d="M212 -19c-20 2.66699 -40.666 11.499 -61.999 26.499s-40.833 30.333 -58.5 46s-31.834 24.834 -42.501 27.501l-6 -1l-27 -92c-10.667 2 -19.667 6.16699 -27 12.5s-11 13.5 -11 21.5c0 12.667 5 24.5 15 35.5s21.333 18.833 34 23.5l251 262
c-17.333 1.33301 -35.5 7 -54.5 17s-38.167 22.333 -57.5 37s-31 23 -35 25c-1.33301 0.666992 -5.5 -2.33301 -12.5 -9s-13.5 -13.5 -19.5 -20.5s-8 -10.5 -6 -10.5c17.333 -6 26 -17.333 26 -34c0 -9.33301 -3.16699 -17.166 -9.5 -23.499s-14.5 -9.5 -24.5 -9.5
c-21.333 0 -32 11 -32 33c0 19.333 12.167 39.333 36.5 60s49.5 33 75.5 37c21.333 -2.66699 40.166 -10.5 56.499 -23.5s30 -27.167 41 -42.5s18.167 -24 21.5 -26l6 1l25 92c25.333 -6.66699 38 -17 38 -31c0 -11.333 -5.5 -24 -16.5 -38s-21.833 -23 -32.5 -27l-250 -260
c60 -4.66699 123.667 -33.334 191 -86.001c0.666992 -0.666992 4.5 2 11.5 8s13.5 12.333 19.5 19s8.33301 10 7 10c-20.667 7.33301 -31 20.333 -31 39c0 9.33301 3.33301 17 10 23s15.334 9 26.001 9c9.33301 0 16.833 -3.5 22.5 -10.5s8.5 -15.5 8.5 -25.5
c0 -20 -11.333 -39.833 -34 -59.5s-47 -31.5 -73 -35.5z" />
    <glyph glyph-name="braceleft" unicode="{" horiz-adv-x="316" 
d="M229 -245c-56 7.33301 -98.001 25 -126.001 53s-38.667 64 -32 108c4 29.333 17.167 65.5 39.5 108.5s35.166 74.833 38.499 95.5c4 26 -5.5 46.167 -28.5 60.5s-57.5 25.166 -103.5 32.499l-5 11l7 10c96.667 0 148.334 23.333 155.001 70
c3.33301 20.667 1 53.5 -7 98.5s-9.66699 82.5 -5 112.5c6.66699 43.333 28 76.666 64 99.999s82.667 34.333 140 33v-12c-91.333 -3.33301 -142 -34.666 -152 -93.999c-3.33301 -21.333 -1 -54.833 7 -100.5s10 -82.5 6 -110.5
c-4.66699 -31.333 -21.334 -56.333 -50.001 -75s-64.334 -29.667 -107.001 -33l-1 -7c40.667 -10 72.334 -26.167 95.001 -48.5s31.667 -49.5 27 -81.5c-4 -28 -17.167 -63.667 -39.5 -107s-35.166 -75.666 -38.499 -96.999c-5.33301 -30 1.33398 -54.5 20.001 -73.5
s51.667 -33.5 99 -43.5z" />
    <glyph glyph-name="bar" unicode="|" horiz-adv-x="190" 
d="M86 -207v877h18v-877h-18z" />
    <glyph glyph-name="braceright" unicode="}" horiz-adv-x="316" 
d="M-56 -241l0.000976562 10.999c91.333 3.33301 142 35.333 152 96c3.33301 21.333 1 54.666 -7 99.999s-10 82 -6 110c4.66699 31.333 21.334 56.333 50.001 75s64.334 29.667 107.001 33v7c-40 9.33301 -71.333 25.333 -94 48s-31.667 50 -27 82
c4 28 17.167 63.833 39.5 107.5s35.166 76.167 38.499 97.5c5.33301 29.333 -1.5 53.333 -20.5 72s-51.833 33 -98.5 43l2 11c56 -7.33301 98.167 -25 126.5 -53s39.166 -63.667 32.499 -107c-4 -30 -17.167 -66.5 -39.5 -109.5s-35.166 -74.833 -38.499 -95.5
c-4 -26 5.66699 -46.167 29 -60.5s57.666 -25.166 102.999 -32.499l5 -10l-7 -11c-96.667 0 -148.334 -23.333 -155.001 -70c-3.33301 -20.667 -1 -53.5 7 -98.5s9.66699 -82.5 5 -112.5c-6.66699 -43.333 -28 -76.666 -64 -99.999s-82.667 -34.333 -140 -33z" />
    <glyph glyph-name="asciitilde" unicode="~" horiz-adv-x="379" 
d="M248 156c-16 0 -39.999 10.333 -71.999 31s-54 31 -66 31c-26 0 -45.667 -18.333 -59 -55h-12c19.333 62.667 47.333 94 84 94c16 0 40.167 -10.333 72.5 -31s54.166 -31 65.499 -31c26.667 0 46.667 18.333 60 55h12c-10 -32.667 -21.667 -56.5 -35 -71.5
s-30 -22.5 -50 -22.5z" />
    <glyph glyph-name="nbspace" unicode="&#xa0;" horiz-adv-x="138" 
 />
    <glyph glyph-name="exclamdown" unicode="&#xa1;" horiz-adv-x="236" 
d="M186 545c-12.667 0 -23.168 4.33301 -31.501 13s-12.5 19 -12.5 31c0 12.667 4.16699 23.5 12.5 32.5s19.166 13.5 32.499 13.5s24.333 -4.5 33 -13.5s13.334 -19.833 14.001 -32.5c0 -12 -4.66699 -22.333 -14 -31s-20.666 -13 -33.999 -13zM64.999 -18
c-7.33301 0.666992 -13.002 2.50098 -17.002 5.50098s-5.83301 7.66699 -5.5 14s0.833008 11.166 1.5 14.499s2 9 4 17l105 397c0.666992 4 3.33398 5 8.00098 3c2.66699 0 3.66699 -1 3 -3l-46 -401c-1.33301 -10.667 -2.66602 -18.5 -3.99902 -23.5
s-4.83301 -10.333 -10.5 -16s-13.5 -8.16699 -23.5 -7.5h-15z" />
    <glyph glyph-name="cent" unicode="&#xa2;" horiz-adv-x="329" 
d="M100 -7c-25.333 8.66699 -45.1641 25.3311 -59.4971 49.998s-21.5 53.334 -21.5 86.001c0 77.333 24.833 149 74.5 215s102.5 99 158.5 99c11.333 0 22.666 -1.66699 33.999 -5l74 176h18l-76 -181c28.667 -12 43 -31 43 -57c0 -12 -3.5 -21.833 -10.5 -29.5
s-15.833 -11.5 -26.5 -11.5c-8.66699 0 -16.334 2.83301 -23.001 8.5s-10 13.167 -10 22.5c0 0.666992 -0.333008 1.33398 -1 2.00098l-142 -341c7.33301 -2.66699 15.333 -4 24 -4c43.333 0 86.666 33 129.999 99l10 -7c-54 -85.333 -107.667 -128 -161 -128
c-2 0 -5 0.166992 -9 0.5s-7.33301 0.5 -10 0.5l-61 -147h-18zM278.002 418.997c-11.333 6.66699 -24.001 10 -38.001 10c-24 0 -48.333 -12.333 -73 -37c-25.333 -25.333 -47.666 -61.833 -66.999 -109.5s-29 -93.167 -29 -136.5c0 -54 15.333 -91.333 46 -112z
M292.001 409.997l-10 -22c4 4 10.667 8.33301 20 13c-2 3.33301 -5.33301 6.33301 -10 9z" />
    <glyph glyph-name="sterling" unicode="&#xa3;" horiz-adv-x="480" 
d="M178 282l-109 -0.000976562l6 17h103c0 28 0.333008 48 1 60c2 76 23.667 140.167 65 192.5s93.666 78.5 156.999 78.5c32.667 0 59.334 -6.5 80.001 -19.5s30.667 -29.5 30 -49.5c-0.666992 -10 -4.83398 -18.833 -12.501 -26.5s-16.5 -11.5 -26.5 -11.5
c-16.667 0 -27.167 7.5 -31.5 22.5s0.5 30.167 14.5 45.5c-16.667 15.333 -38 23 -64 23c-36 0 -66.833 -13 -92.5 -39s-42.834 -62 -51.501 -108c-4 -18.667 -8.33301 -74.667 -13 -168h128v-17h-129c-2.66699 -32 -5.66699 -55.333 -9 -70
c-8.66699 -48 -30 -95.333 -64 -142c3.33301 -0.666992 14.333 -4.16699 33 -10.5s31.167 -10.333 37.5 -12s16.5 -4.33398 30.5 -8.00098s25.833 -6.16699 35.5 -7.5s18.834 -2 27.501 -2c27.333 0 49.833 8 67.5 24s31.5 43.333 41.5 82l10 -3
c-6.66699 -45.333 -23.167 -81.166 -49.5 -107.499s-57.166 -39.5 -92.499 -39.5c-11.333 0 -22.5 1 -33.5 3s-23 5.66699 -36 11s-22.667 9.33301 -29 12s-17.666 8.5 -33.999 17.5s-25.833 14.167 -28.5 15.5c-36 -40.667 -71.667 -61 -107 -61
c-17.333 0 -31.333 4.66699 -42 14s-15.334 21.333 -14.001 36c0.666992 16.667 8 30.834 22 42.501s32 17.5 54 17.5c20 0 49.333 -6 88 -18c22.667 38 34.667 74.667 36 110c0.666992 10.667 1 42.667 1 96zM125 52.999c-32 16 -59.666 23.999 -82.999 23.999
c-16 0 -28.5 -4.16699 -37.5 -12.5s-13.5 -19.166 -13.5 -32.499c-0.666992 -9.33301 3.16602 -17.333 11.499 -24s18.833 -10 31.5 -10c32 0 62.333 18.333 91 55z" />
    <glyph glyph-name="currency" unicode="&#xa4;" 
d="M86 199l-14.002 14.002l57 57c-22 25.333 -33 55 -33 89s11 63.667 33 89l-57 57l14 14l57 -57c26.667 22 56.334 33 89.001 33s62.334 -11 89.001 -33l57 57l14 -14l-57 -57c22 -26.667 33 -56.334 33 -89.001s-11 -62.334 -33 -89.001l57 -57l-14 -14l-57 57
c-25.333 -22 -55 -33 -89 -33s-63.667 11 -89 33zM115.998 359.002c0 -32 11.333 -59.333 34 -82s50 -34 82 -34s59.333 11.333 82 34s34 50 34 82s-11.333 59.333 -34 82s-50 34 -82 34s-59.333 -11.333 -82 -34s-34 -50 -34 -82z" />
    <glyph glyph-name="yen" unicode="&#xa5;" horiz-adv-x="593" 
d="M283 284l-197.001 -0.00195312l-1 17h193l-106 254c-5.33301 14 -9.5 23.833 -12.5 29.5s-8 10.834 -15 15.501s-16.5 7.33398 -28.5 8.00098l-36 3l-1 14h230l-4 -14l-47 -2c-16.667 -0.666992 -26.834 -4 -30.501 -10s-2.5 -17.333 3.5 -34l102 -257h3l160 217
c26 37.333 38.333 60 37 68s-16.666 13 -45.999 15l-39 3l-2 14h219l-4 -14l-32 -2c-22.667 -1.33301 -39.667 -6.33301 -51 -15s-31.666 -32.667 -60.999 -72c-110 -147.333 -165.333 -221 -166 -221h179l-2 -17h-185l-22 -113h187l4 -18h-194l-24 -123
c-0.666992 -3.33301 1.33301 -5.83301 6 -7.5s16 -3.16699 34 -4.5l53 -4l1 -14h-257l3 14l63 5c24 2 36.667 6.33301 38 13l23 121h-193l3 18h194z" />
    <glyph glyph-name="brokenbar" unicode="&#xa6;" horiz-adv-x="190" 
d="M86 292v335h18v-335h-18zM86 -154v335h18v-335h-18z" />
    <glyph glyph-name="section" unicode="&#xa7;" horiz-adv-x="413" 
d="M154 -50c-29.333 0 -55.333 7.33496 -78 22.002s-34 31.667 -34 51c0 10 3.33301 18.667 10 26s15.334 11 26.001 11c16 0 25.667 -8.5 29 -25.5s-2.33398 -28.833 -17.001 -35.5c19.333 -22.667 43 -34 71 -34c26.667 0 48.667 8.33301 66 25s26 35 26 55
c0 42.667 -33.667 87 -101 133c-67.333 44.667 -101 90.334 -101 137.001c0 29.333 12 56.166 36 80.499s51.667 42.5 83 54.5c-14 19.333 -21 41 -21 65c0 32 12.667 60.833 38 86.5s56.333 38.5 93 38.5c28.667 0 54 -7.33301 76 -22s33 -31.667 33 -51
c0 -10 -3.33301 -18.667 -10 -26s-15.334 -11 -26.001 -11c-16 0 -26 8.33301 -30 25s1.33301 28.667 16 36c-18 22.667 -40.667 34 -68 34c-24 0 -43.667 -8.5 -59 -25.5s-23 -36.5 -23 -58.5c0 -16.667 5.33301 -32.834 16 -48.501s21.334 -27.834 32.001 -36.501
s27.667 -21 51 -37c33.333 -22.667 58.833 -44.667 76.5 -66s26.5 -46 26.5 -74c0 -28.667 -12 -54.834 -36 -78.501s-53 -43.167 -87 -58.5c15.333 -20.667 23 -43.667 23 -69c0 -31.333 -13.5 -59.666 -40.5 -84.999s-59.167 -38 -96.5 -38zM261 152.002
c24.667 9.33301 45.834 23 63.501 41s26.5 39 26.5 63c0 40.667 -30 80 -90 118c-42 28 -69.667 50.333 -83 67c-22.667 -7.33301 -42.667 -20.5 -60 -39.5s-26 -40.167 -26 -63.5c0 -20.667 7.16699 -40 21.5 -58s36.166 -37 65.499 -57c40.667 -28 68 -51.667 82 -71z" />
    <glyph glyph-name="dieresis" unicode="&#xa8;" horiz-adv-x="379" 
d="M331 513c-12 0 -21.668 4.33301 -29.001 13s-11 18 -11 28c0 10.667 3.5 20.667 10.5 30s16.833 14 29.5 14s22.334 -4.66699 29.001 -14s10 -19.333 10 -30c0 -10 -3.5 -19.333 -10.5 -28s-16.5 -13 -28.5 -13zM172.999 513c-12 0 -21.501 4.33301 -28.501 13
s-10.5 18 -10.5 28c0 10.667 3.33301 20.667 10 30s16.334 14 29.001 14s22.5 -4.66699 29.5 -14s10.5 -19.333 10.5 -30c0 -10 -3.66699 -19.333 -11 -28s-17 -13 -29 -13z" />
    <glyph glyph-name="copyright" unicode="&#xa9;" horiz-adv-x="713" 
d="M365 -14c-90.667 0 -167.834 31.833 -231.501 95.5s-95.5 140.834 -95.5 231.501s31.833 168 95.5 232s140.834 96 231.501 96s167.834 -32 231.501 -96s95.5 -141.333 95.5 -232s-31.833 -167.834 -95.5 -231.501s-140.834 -95.5 -231.501 -95.5zM365 2
c85.333 0 158.333 30.333 219 91s91 134 91 220c0 85.333 -30.333 158.666 -91 219.999s-133.667 92 -219 92s-158.333 -30.667 -219 -92s-91 -134.666 -91 -219.999c0 -86 30.333 -159.333 91 -220s133.667 -91 219 -91zM374 117c-58 0 -105.83 17.834 -143.497 53.501
s-56.5 81.834 -56.5 138.501c0 57.333 18.833 104.666 56.5 141.999s86.167 56 145.5 56c34 0 65.667 -7.33301 95 -22l35 12l5 -107h-8l-37 79c-28.667 18 -59.334 27 -92.001 27c-46.667 0 -84.667 -17 -114 -51s-44 -77.667 -44 -131c0 -54.667 15 -99.334 45 -134.001
s69 -52 117 -52c27.333 0 49.666 5.5 66.999 16.5s33.666 27.833 48.999 50.5l18 41h9l-20 -96l-21 -2c-32.667 -14 -68 -21 -106 -21z" />
    <glyph glyph-name="ordfeminine" unicode="&#xaa;" horiz-adv-x="325" 
d="M123 287c-18 0 -32.501 7.49805 -43.501 22.498s-16.5 33.833 -16.5 56.5c0 36.667 11.833 77.334 35.5 122.001s49.834 81.334 78.501 110.001c22.667 24 45 36 67 36c14.667 0 27.167 -6.33301 37.5 -19s16.166 -29.667 17.499 -51l3 4l20 69l36 -2l-51 -163l-45 -154
l31 -4l60 79l7 -5c-16.667 -31.333 -34.167 -56 -52.5 -74s-34.166 -27 -47.499 -27c-7.33301 0 -13.666 4.5 -18.999 13.5s-8 18.833 -8 29.5c0 12 13 55 39 129l-3 1c-32.667 -56.667 -60.334 -99.667 -83.001 -129s-43.667 -44 -63 -44zM139.999 317.998
c31.333 0 75 58 131 174c10.667 22.667 16 40 16 52c-2.66699 14.667 -9.66699 29.167 -21 43.5s-25.333 21.5 -42 21.5c-12 0 -26 -7.33301 -42 -22c-20 -20 -38.167 -51.167 -54.5 -93.5s-24.5 -79.5 -24.5 -111.5c0 -20.667 3.66699 -36.5 11 -47.5s16 -16.5 26 -16.5z
" />
    <glyph glyph-name="guillemotleft" unicode="&#xab;" horiz-adv-x="395" 
d="M333 54l-156 163l2 14l217 159l4 -8l-161 -163l101 -158zM172 64l-159 153l2 14l216 149l4 -8l-157 -154l100 -147z" />
    <glyph glyph-name="logicalnot" unicode="&#xac;" 
d="M422 312v-180h-22v158h-382l3 22h401z" />
    <glyph glyph-name="uni00AD" unicode="&#xad;" horiz-adv-x="294" 
d="M18 227l6 28h242l-4 -28h-244z" />
    <glyph glyph-name="registered" unicode="&#xae;" horiz-adv-x="713" 
d="M365 -14c-90.667 0 -167.834 31.833 -231.501 95.5s-95.5 140.834 -95.5 231.501s31.833 168 95.5 232s140.834 96 231.501 96s167.834 -32 231.501 -96s95.5 -141.333 95.5 -232s-31.833 -167.834 -95.5 -231.501s-140.834 -95.5 -231.501 -95.5zM365 2
c85.333 0 158.333 30.333 219 91s91 134 91 220c0 85.333 -30.333 158.666 -91 219.999s-133.667 92 -219 92s-158.333 -30.667 -219 -92s-91 -134.666 -91 -219.999c0 -86 30.333 -159.333 91 -220s133.667 -91 219 -91zM202 129l1.99902 9.99902l38 4
c4.66699 0 9.5 1 14.5 3s7.5 4 7.5 6v327c0 4.66699 -8 7.33398 -24 8.00098l-34 3l-3 10h154c42.667 0 76 -8.33301 100 -25s36 -39.334 36 -68.001c0 -24 -8.83301 -45 -26.5 -63s-40.167 -30 -67.5 -36l89 -138c5.33301 -8 10.333 -14 15 -18s8.83398 -6.5 12.501 -7.5
s9.5 -2.16699 17.5 -3.5l17 -2l3 -10h-83l-11 18l-98 156c-2 0 -11 1 -27 3s-26.667 3.66699 -32 5v-162c0 -3.33301 8.66699 -5.66602 26 -6.99902l36 -3l2 -10h-164zM360.999 315.999c26.667 1.33301 48.3311 9.66699 64.998 25s25 36.333 25 63s-9.66699 47.5 -29 62.5
s-46.666 22.167 -81.999 21.5l-38 -1v-162c16.667 -6 36.334 -9 59.001 -9z" />
    <glyph glyph-name="macron" unicode="&#xaf;" horiz-adv-x="379" 
d="M124 526l8 28h244l-7 -28h-245z" />
    <glyph glyph-name="degree" unicode="&#xb0;" horiz-adv-x="322" 
d="M216 360c-40 0 -72.667 13.002 -98 39.002s-38 58.333 -38 97c0 40 13.5 74.333 40.5 103s61.167 43 102.5 43c40 0 72.833 -12.833 98.5 -38.5s38.5 -57.834 38.5 -96.501c0 -40.667 -13.5 -75.334 -40.5 -104.001s-61.5 -43 -103.5 -43zM217 377.002
c36 0 65.167 12.167 87.5 36.5s33.5 54.5 33.5 90.5c0 34 -10.667 62.5 -32 85.5s-49.333 34.5 -84 34.5c-35.333 0 -64.5 -12.5 -87.5 -37.5s-34.5 -55.167 -34.5 -90.5c0 -34 11 -62.333 33 -85s50 -34 84 -34z" />
    <glyph glyph-name="plusminus" unicode="&#xb1;" 
d="M217 84v162h-198l3 22h195v168h22v-168h195l3 -22h-198v-162h-22zM424 27h-392l3 22h386z" />
    <glyph glyph-name="twosuperior" unicode="&#xb2;" horiz-adv-x="278" 
d="M-11 267l0.000976562 12.002c88 72 142.667 119 164 141c41.333 42.667 63.666 83 66.999 121c2 25.333 -3.83301 45.166 -17.5 59.499s-31.834 21.5 -54.501 21.5c-31.333 0 -61.333 -16.667 -90 -50l-5 6c37.333 50.667 78.666 76 123.999 76
c26.667 0 48.834 -9 66.501 -27s25.5 -40 23.5 -66c-0.666992 -14.667 -4.5 -29.334 -11.5 -44.001s-14.5 -27.667 -22.5 -39s-21 -25.333 -39 -42s-32.667 -29.667 -44 -39s-30 -24.5 -56 -45.5s-45.333 -36.5 -58 -46.5c-0.666992 -0.666992 -0.666992 -1 0 -1h124
c20.667 0 37.334 4.33301 50.001 13s25 23.667 37 45l7 14h10l-43 -109h-232z" />
    <glyph glyph-name="threesuperior" unicode="&#xb3;" horiz-adv-x="266" 
d="M86 247c-24 0 -44.668 3.6709 -62.001 11.0039s-26 18.333 -26 33c0 7.33301 3 13.833 9 19.5s13.333 8.5 22 8.5c11.333 0 20.5 -5.33301 27.5 -16s6.83301 -22.667 -0.5 -36c13.333 -6 26 -9 38 -9c30.667 0 56 10.667 76 32s30 47.333 30 78
c0 23.333 -7.5 42.166 -22.5 56.499s-35.833 21.5 -62.5 21.5c-14 0 -29.667 -2.66699 -47 -8l-3 8c54 23.333 92 43.166 114 59.499s33 36.833 33 61.5c0 17.333 -5.83301 31.333 -17.5 42s-26.5 16 -44.5 16c-33.333 0 -62.666 -16.667 -87.999 -50l-4 7
c32.667 48 72.667 72 120 72c22.667 0 42.167 -6.66699 58.5 -20s24.5 -30.333 24.5 -51c0 -44 -40 -80.667 -120 -110v-2c0.666992 0 2.33398 0.166992 5.00098 0.5s5 0.5 7 0.5c26.667 -0.666992 48.667 -9.83398 66 -27.501s26 -38.834 26 -63.501
c0 -35.333 -16.333 -66.5 -49 -93.5s-69.334 -40.5 -110.001 -40.5z" />
    <glyph glyph-name="acute" unicode="&#xb4;" horiz-adv-x="379" 
d="M198 495l148 184h69l-208 -184h-9z" />
    <glyph glyph-name="mu" unicode="&#xb5;" horiz-adv-x="498" 
d="M200 -251h-188.998l3 14l34 2c19.333 4 29.666 7.66699 30.999 11v626c0 3.33301 -1.66699 5.5 -5 6.5s-14 2.16699 -32 3.5l-31 3l-3 13h124v-330c0 -22.667 9.66699 -40 29 -52s43.666 -18 72.999 -18c48 0 89.333 19 124 57v289c0 15.333 -2.33301 25.166 -7 29.499
s-14.667 7.16602 -30 8.49902l-31 3l-3 13h125v-378c0 -9.33301 1.5 -16.166 4.5 -20.499s10.167 -6.83301 21.5 -7.5l45 -3l-2 -10l-123 -24l2 82h-2c-34 -53.333 -75.333 -80 -124 -80c-20.667 0 -40 6 -58 18s-32 26.333 -42 43h-2v-272
c0 -5.33301 6.66699 -8.66602 20 -9.99902c1.33301 0 3.33301 -0.333008 6 -1h5l34 -2z" />
    <glyph glyph-name="mu" unicode="&#x3bc;" horiz-adv-x="498" 
d="M200 -251h-188.998l3 14l34 2c19.333 4 29.666 7.66699 30.999 11v626c0 3.33301 -1.66699 5.5 -5 6.5s-14 2.16699 -32 3.5l-31 3l-3 13h124v-330c0 -22.667 9.66699 -40 29 -52s43.666 -18 72.999 -18c48 0 89.333 19 124 57v289c0 15.333 -2.33301 25.166 -7 29.499
s-14.667 7.16602 -30 8.49902l-31 3l-3 13h125v-378c0 -9.33301 1.5 -16.166 4.5 -20.499s10.167 -6.83301 21.5 -7.5l45 -3l-2 -10l-123 -24l2 82h-2c-34 -53.333 -75.333 -80 -124 -80c-20.667 0 -40 6 -58 18s-32 26.333 -42 43h-2v-272
c0 -5.33301 6.66699 -8.66602 20 -9.99902c1.33301 0 3.33301 -0.333008 6 -1h5l34 -2z" />
    <glyph glyph-name="paragraph" unicode="&#xb6;" horiz-adv-x="421" 
d="M296 -31l61 329.999c-13.333 -3.33301 -26.333 -5 -39 -5c-72 0 -130.333 12.167 -175 36.5s-67 61.833 -67 112.5c0 58.667 21.833 103.834 65.5 135.501s104.5 47.5 182.5 47.5h114l-123 -657h-19z" />
    <glyph glyph-name="periodcentered" unicode="&#xb7;" horiz-adv-x="182" 
d="M83 166c-13.333 0 -24.5 4.66699 -33.5 14s-13.167 20.333 -12.5 33c0 11.333 4.5 21.5 13.5 30.5s20.167 13.5 33.5 13.5c12.667 0 23.334 -4.5 32.001 -13.5s12.667 -19.167 12 -30.5c0 -12.667 -4.33301 -23.667 -13 -33s-19.334 -14 -32.001 -14z" />
    <glyph glyph-name="cedilla" unicode="&#xb8;" horiz-adv-x="379" 
d="M12 -242l-1.99805 8.99902c52 2.66699 92.167 11.334 120.5 26.001s42.5 34.334 42.5 59.001c0 14 -6.33301 25.333 -19 34s-30.334 13 -53.001 13c-11.333 0 -30.333 -2.66699 -57 -8l2 8l108 99h16l-76 -69c35.333 4 63.666 0 84.999 -12s32 -29.333 32 -52
c0 -33.333 -18.667 -59.333 -56 -78s-85 -28.334 -143 -29.001z" />
    <glyph glyph-name="onesuperior" unicode="&#xb9;" horiz-adv-x="249" 
d="M23 267l2.00293 9l37 3c17.333 2 26.333 5.66699 27 11l63 329l-71 9l3 8l119 13l-70 -360c-0.666992 -2 -0.333984 -3.66699 0.999023 -5s4.16602 -2.5 8.49902 -3.5s10.166 -1.5 17.499 -1.5l33 -3l1 -9h-171z" />
    <glyph glyph-name="ordmasculine" unicode="&#xba;" horiz-adv-x="288" 
d="M160 288c-30.667 0 -53 12.502 -67 37.502s-21 54.833 -21 89.5c0 51.333 16.333 101.166 49 149.499s69 72.5 109 72.5c28.667 0 51.167 -12.833 67.5 -38.5s24.5 -57.834 24.5 -96.501c0 -52 -16.5 -100.667 -49.5 -146s-70.5 -68 -112.5 -68zM155 300.002
c23.333 0 45.832 12.667 67.499 38s37.834 56.666 48.501 93.999c10 34.667 15 68.334 15 101.001c0 61.333 -17.333 92 -52 92c-22 0 -43.167 -14.667 -63.5 -44s-36.833 -64 -49.5 -104c-10 -30 -15 -60.333 -15 -91c0 -57.333 16.333 -86 49 -86z" />
    <glyph glyph-name="guillemotright" unicode="&#xbb;" horiz-adv-x="395" 
d="M164 64l-4 8l158 152l-102 147l6 8l161 -153l-2 -13zM0 54l-4 8l161 162l-102 158l7 8l157 -164l-2 -13z" />
    <glyph glyph-name="onequarter" unicode="&#xbc;" horiz-adv-x="627" 
d="M472 -136l20 109h-164v7l241 270h19l-46 -245h67l-13 -32h-61l-22 -109h-41zM364 5h134l36 187h-2zM23 267l2.00293 9l37 3c17.333 2 26.333 5.66699 27 11l63 329l-71 9l3 8l119 13l-70 -360c-0.666992 -2 -0.333984 -3.66699 0.999023 -5s4.16602 -2.5 8.49902 -3.5
s10.166 -1.5 17.499 -1.5l33 -3l1 -9h-171zM-20.9971 -121l678 751h27l-678 -751h-27z" />
    <glyph glyph-name="onehalf" unicode="&#xbd;" horiz-adv-x="651" 
d="M356 -137l0.000976562 12.002c88 72 142.667 119 164 141c41.333 42.667 63.666 83 66.999 121c2 25.333 -3.83301 45.166 -17.5 59.499s-31.834 21.5 -54.501 21.5c-31.333 0 -61.333 -16.667 -90 -50l-5 6c37.333 50.667 78.666 76 123.999 76
c26.667 0 48.834 -9 66.501 -27s25.5 -40 23.5 -66c-0.666992 -14.667 -4.5 -29.334 -11.5 -44.001s-14.5 -27.667 -22.5 -39s-21 -25.333 -39 -42s-32.667 -29.667 -44 -39s-30 -24.5 -56 -45.5s-45.333 -36.5 -58 -46.5c-0.666992 -0.666992 -0.666992 -1 0 -1h124
c20.667 0 37.334 4.33301 50.001 13s25 23.667 37 45l7 14h10l-43 -109h-232zM-20.999 -120.998l678 751h27l-678 -751h-27zM23.001 267.002l2.00293 9l37 3c17.333 2 26.333 5.66699 27 11l63 329l-71 9l3 8l119 13l-70 -360c-0.666992 -2 -0.333984 -3.66699 0.999023 -5
s4.16602 -2.5 8.49902 -3.5s10.166 -1.5 17.499 -1.5l33 -3l1 -9h-171z" />
    <glyph glyph-name="threequarters" unicode="&#xbe;" horiz-adv-x="604" 
d="M449 -136l20 109h-164v7l241 270h19l-46 -245h67l-13 -32h-61l-22 -109h-41zM341 5h134l36 187h-2zM86 247c-24 0 -44.668 3.6709 -62.001 11.0039s-26 18.333 -26 33c0 7.33301 3 13.833 9 19.5s13.333 8.5 22 8.5c11.333 0 20.5 -5.33301 27.5 -16
s6.83301 -22.667 -0.5 -36c13.333 -6 26 -9 38 -9c30.667 0 56 10.667 76 32s30 47.333 30 78c0 23.333 -7.5 42.166 -22.5 56.499s-35.833 21.5 -62.5 21.5c-14 0 -29.667 -2.66699 -47 -8l-3 8c54 23.333 92 43.166 114 59.499s33 36.833 33 61.5
c0 17.333 -5.83301 31.333 -17.5 42s-26.5 16 -44.5 16c-33.333 0 -62.666 -16.667 -87.999 -50l-4 7c32.667 48 72.667 72 120 72c22.667 0 42.167 -6.66699 58.5 -20s24.5 -30.333 24.5 -51c0 -44 -40 -80.667 -120 -110v-2c0.666992 0 2.33398 0.166992 5.00098 0.5
s5 0.5 7 0.5c26.667 -0.666992 48.667 -9.83398 66 -27.501s26 -38.834 26 -63.501c0 -35.333 -16.333 -66.5 -49 -93.5s-69.334 -40.5 -110.001 -40.5zM-44.001 -120.996l678 751h27l-678 -751h-27z" />
    <glyph glyph-name="questiondown" unicode="&#xbf;" horiz-adv-x="303" 
d="M233 550c-13.333 0 -23.999 4.33203 -31.999 12.999s-12 19 -12 31c0 12.667 4.16699 23.334 12.5 32.001s19.166 13 32.499 13c12.667 0 23.667 -4.5 33 -13.5s14 -19.5 14 -31.5c-0.666992 -12 -5.5 -22.333 -14.5 -31s-20.167 -13 -33.5 -13zM167.001 -14.001
c-44.667 0 -81.168 14.1699 -109.501 42.5029s-42.5 62.166 -42.5 101.499c0 38.667 9 68.167 27 88.5s50.667 39.5 98 57.5c34 12.667 59 24.667 75 36s24 27.333 24 48c-0.666992 25.333 -18 54.333 -52 87l14 -1c44.667 -38.667 67 -73 67 -103
c0 -24.667 -9.16699 -46 -27.5 -64s-50.833 -36.333 -97.5 -55c-43.333 -16.667 -72.666 -30.834 -87.999 -42.501s-23 -26.834 -23 -45.501c0 -24 11.667 -45.5 35 -64.5s58.333 -28.5 105 -28.5c22 0 43 2.66699 63 8c2.66699 -5.33301 4 -10 4 -14c0 -34 -24 -51 -72 -51
z" />
    <glyph glyph-name="Agrave" unicode="&#xc0;" horiz-adv-x="588" 
d="M381 260l-200.999 0.000976562l-85 -167c-18.667 -31.333 -27 -51 -25 -59s18 -13.333 48 -16l37 -4l2 -14h-206l3 14l32 3c22.667 2.66699 39.167 9.66699 49.5 21s32.166 46 65.499 104l225 436l-3 23c25.333 12 42.333 23 51 33h8l85 -566
c3.33301 -20.667 7.5 -34.167 12.5 -40.5s15.5 -9.83301 31.5 -10.5l39 -3l2 -14h-226l3 14l42 2c29.333 1.33301 43 9.66602 41 24.999zM190.001 279.001h188l-40 282h-3zM383.001 667.001l-138 184h64l84 -184h-10z" />
    <glyph glyph-name="Aacute" unicode="&#xc1;" horiz-adv-x="588" 
d="M381 260l-200.999 0.000976562l-85 -167c-18.667 -31.333 -27 -51 -25 -59s18 -13.333 48 -16l37 -4l2 -14h-206l3 14l32 3c22.667 2.66699 39.167 9.66699 49.5 21s32.166 46 65.499 104l225 436l-3 23c25.333 12 42.333 23 51 33h8l85 -566
c3.33301 -20.667 7.5 -34.167 12.5 -40.5s15.5 -9.83301 31.5 -10.5l39 -3l2 -14h-226l3 14l42 2c29.333 1.33301 43 9.66602 41 24.999zM190.001 279.001h188l-40 282h-3zM334.001 667.001l148 184h69l-208 -184h-9z" />
    <glyph glyph-name="Acircumflex" unicode="&#xc2;" horiz-adv-x="588" 
d="M381 260l-200.999 0.000976562l-85 -167c-18.667 -31.333 -27 -51 -25 -59s18 -13.333 48 -16l37 -4l2 -14h-206l3 14l32 3c22.667 2.66699 39.167 9.66699 49.5 21s32.166 46 65.499 104l225 436l-3 23c25.333 12 42.333 23 51 33h8l85 -566
c3.33301 -20.667 7.5 -34.167 12.5 -40.5s15.5 -9.83301 31.5 -10.5l39 -3l2 -14h-226l3 14l42 2c29.333 1.33301 43 9.66602 41 24.999zM190.001 279.001h188l-40 282h-3zM238.001 660.001l145 177h26l79 -177h-8l-91 122h-3l-138 -122h-10z" />
    <glyph glyph-name="Atilde" unicode="&#xc3;" horiz-adv-x="588" 
d="M381 260l-200.999 0.000976562l-85 -167c-18.667 -31.333 -27 -51 -25 -59s18 -13.333 48 -16l37 -4l2 -14h-206l3 14l32 3c22.667 2.66699 39.167 9.66699 49.5 21s32.166 46 65.499 104l225 436l-3 23c25.333 12 42.333 23 51 33h8l85 -566
c3.33301 -20.667 7.5 -34.167 12.5 -40.5s15.5 -9.83301 31.5 -10.5l39 -3l2 -14h-226l3 14l42 2c29.333 1.33301 43 9.66602 41 24.999zM190.001 279.001h188l-40 282h-3zM434.001 677.001c-16 0 -39.999 10.333 -71.999 31s-54 31 -66 31c-26 0 -45.667 -18.333 -59 -55
h-12c19.333 62.667 47.333 94 84 94c16 0 40.167 -10.333 72.5 -31s54.166 -31 65.499 -31c26.667 0 46.667 18.333 60 55h12c-10 -32.667 -21.667 -56.5 -35 -71.5s-30 -22.5 -50 -22.5z" />
    <glyph glyph-name="Adieresis" unicode="&#xc4;" horiz-adv-x="588" 
d="M381 260l-200.999 0.000976562l-85 -167c-18.667 -31.333 -27 -51 -25 -59s18 -13.333 48 -16l37 -4l2 -14h-206l3 14l32 3c22.667 2.66699 39.167 9.66699 49.5 21s32.166 46 65.499 104l225 436l-3 23c25.333 12 42.333 23 51 33h8l85 -566
c3.33301 -20.667 7.5 -34.167 12.5 -40.5s15.5 -9.83301 31.5 -10.5l39 -3l2 -14h-226l3 14l42 2c29.333 1.33301 43 9.66602 41 24.999zM190.001 279.001h188l-40 282h-3zM448.001 685.001c-12 0 -21.668 4.33301 -29.001 13s-11 18 -11 28c0 10.667 3.5 20.667 10.5 30
s16.833 14 29.5 14s22.334 -4.66699 29.001 -14s10 -19.333 10 -30c0 -10 -3.5 -19.333 -10.5 -28s-16.5 -13 -28.5 -13zM290 685.001c-12 0 -21.501 4.33301 -28.501 13s-10.5 18 -10.5 28c0 10.667 3.33301 20.667 10 30s16.334 14 29.001 14s22.5 -4.66699 29.5 -14
s10.5 -19.333 10.5 -30c0 -10 -3.66699 -19.333 -11 -28s-17 -13 -29 -13z" />
    <glyph glyph-name="Aring" unicode="&#xc5;" horiz-adv-x="588" 
d="M381 261l-200 0.00195312l-87 -168c-18.667 -31.333 -26.834 -51 -24.501 -59s18.5 -13.333 48.5 -16l37 -4l2 -14h-206l3 14l32 3c23.333 2.66699 40.5 10 51.5 22s32.5 46.333 64.5 103l243 473c-17.333 6 -31.166 16.667 -41.499 32s-15.5 32.666 -15.5 51.999
c0 24.667 8.16699 45.834 24.5 63.501s37.833 26.5 64.5 26.5s48.334 -8.83301 65.001 -26.5s24.667 -38.834 24 -63.501c0 -24 -7.33301 -44.333 -22 -61s-34.334 -25.667 -59.001 -27l82 -543c3.33301 -20.667 7.5 -34.167 12.5 -40.5s15.5 -9.83301 31.5 -10.5l39 -3
l2 -14h-226l3 14l42 2c29.333 1.33301 43 9.66602 41 24.999zM378 623.002c22 0 39.667 7.33301 53 22s20 32.667 20 54c0 20.667 -6.83301 38.5 -20.5 53.5s-31.5 22.5 -53.5 22.5s-39.667 -7.5 -53 -22.5s-20 -32.833 -20 -53.5c0 -21.333 6.83301 -39.333 20.5 -54
s31.5 -22 53.5 -22zM190 279.002h188l-40 280h-3z" />
    <glyph glyph-name="AE" unicode="&#xc6;" horiz-adv-x="823" 
d="M399 261l-195.997 -0.00292969l-27 -37c-18.667 -24 -37.334 -48.333 -56.001 -73l-27 -37c-33.333 -42.667 -51 -68 -53 -76c-1.33301 -8 4 -13.667 16 -17c5.33301 -1.33301 12.666 -2.33301 21.999 -3l47 -5l3 -13h-220l3 14l51 4c14 1.33301 28.167 8.33301 42.5 21
s38.833 40.334 73.5 83.001l353 467c6 7.33301 1 12.333 -15 15c-8 2 -18.667 3.33301 -32 4l-51 3v14h472l4 -163h-12l-4 44c-12.667 41.333 -28.667 68.833 -48 82.5s-55.333 20.5 -108 20.5h-111l-52 -272h88c27.333 0 47.5 2.16699 60.5 6.5s21.667 9.33301 26 15
s10.833 17.834 19.5 36.501l13 28l11 -1l-42 -191l-10 1l1 28c2 27.333 -1.16699 43.833 -9.5 49.5s-34.5 8.83398 -78.5 9.50098l-82 2l-57 -302l125 -2c44 0 80.667 5.33301 110 16s51 23 65 37s29 34 45 60l18 42l15 -1l-70 -171h-467l1 4l2 8l2 4l59 5
c23.333 2 35.666 6.33301 36.999 13zM216.003 278.997h186.001l60 318h-7c-158.667 -212 -238.334 -318 -239.001 -318z" />
    <glyph glyph-name="Ccedilla" unicode="&#xc7;" horiz-adv-x="641" 
d="M317 -14c-81.333 5.33301 -146.329 33.166 -194.996 83.499s-73 113.5 -73 189.5c0 103.333 34.667 192.5 104 267.5s155.666 112.5 258.999 112.5c69.333 0 128.666 -16.333 177.999 -49l51 16l-23 -176h-13l-25 141c-16.667 14 -40.167 26.167 -70.5 36.5
s-61.166 15.5 -92.499 15.5c-88.667 0 -161.5 -37.833 -218.5 -113.5s-85.5 -163.5 -85.5 -263.5c0 -74 20 -133.333 60 -178s97 -67 171 -67c39.333 0 74.166 8 104.499 24s60.5 40 90.5 72l39 66h13l-61 -155l-34 2c-55.333 -16.667 -106 -25 -152 -25h-12l-62 -56
c35.333 4 63.666 0 84.999 -12s32 -29.333 32 -52c0 -33.333 -18.667 -59.333 -56 -78s-85 -28.334 -143 -29.001l-2 9c52 2.66699 92.167 11.334 120.5 26.001s42.5 34.334 42.5 59.001c0 14 -6.33301 25.333 -19 34s-30.334 13 -53.001 13
c-11.333 0 -30.333 -2.66699 -57 -8l2 8z" />
    <glyph glyph-name="Egrave" unicode="&#xc8;" horiz-adv-x="556" 
d="M-11 0l2.99902 13.999l52 5c24 2 36.667 6.33301 38 13l106 563c0.666992 3.33301 -1.16602 5.66602 -5.49902 6.99902s-15.833 3 -34.5 5l-43 4l-1 14h426l5 -163h-12l-5 44c-12.667 41.333 -28.5 68.833 -47.5 82.5s-54.833 20.5 -107.5 20.5h-112l-52 -272h88
c27.333 0 47.5 2.16699 60.5 6.5s21.667 9.33301 26 15s10.833 17.834 19.5 36.501l13 28l11 -1l-41 -191l-11 1l2 28c2 27.333 -1.16699 43.833 -9.5 49.5s-34.5 8.83398 -78.5 9.50098l-82 2l-58 -302l125 -3c44.667 0 81.667 5.5 111 16.5s50.833 23.5 64.5 37.5
s28.5 34 44.5 60l18 42l15 -1l-70 -171h-458zM352.999 666.999l-138 184h64l84 -184h-10z" />
    <glyph glyph-name="Eacute" unicode="&#xc9;" horiz-adv-x="556" 
d="M-11 0l2.99902 13.999l52 5c24 2 36.667 6.33301 38 13l106 563c0.666992 3.33301 -1.16602 5.66602 -5.49902 6.99902s-15.833 3 -34.5 5l-43 4l-1 14h426l5 -163h-12l-5 44c-12.667 41.333 -28.5 68.833 -47.5 82.5s-54.833 20.5 -107.5 20.5h-112l-52 -272h88
c27.333 0 47.5 2.16699 60.5 6.5s21.667 9.33301 26 15s10.833 17.834 19.5 36.501l13 28l11 -1l-41 -191l-11 1l2 28c2 27.333 -1.16699 43.833 -9.5 49.5s-34.5 8.83398 -78.5 9.50098l-82 2l-58 -302l125 -3c44.667 0 81.667 5.5 111 16.5s50.833 23.5 64.5 37.5
s28.5 34 44.5 60l18 42l15 -1l-70 -171h-458zM311.999 666.999l148 184h69l-208 -184h-9z" />
    <glyph glyph-name="Ecircumflex" unicode="&#xca;" horiz-adv-x="556" 
d="M-11 0l2.99902 13.999l52 5c24 2 36.667 6.33301 38 13l106 563c0.666992 3.33301 -1.16602 5.66602 -5.49902 6.99902s-15.833 3 -34.5 5l-43 4l-1 14h426l5 -163h-12l-5 44c-12.667 41.333 -28.5 68.833 -47.5 82.5s-54.833 20.5 -107.5 20.5h-112l-52 -272h88
c27.333 0 47.5 2.16699 60.5 6.5s21.667 9.33301 26 15s10.833 17.834 19.5 36.501l13 28l11 -1l-41 -191l-11 1l2 28c2 27.333 -1.16699 43.833 -9.5 49.5s-34.5 8.83398 -78.5 9.50098l-82 2l-58 -302l125 -3c44.667 0 81.667 5.5 111 16.5s50.833 23.5 64.5 37.5
s28.5 34 44.5 60l18 42l15 -1l-70 -171h-458zM211.999 659.999l145 177h26l79 -177h-8l-91 122h-3l-138 -122h-10z" />
    <glyph glyph-name="Edieresis" unicode="&#xcb;" horiz-adv-x="556" 
d="M-11 0l2.99902 13.999l52 5c24 2 36.667 6.33301 38 13l106 563c0.666992 3.33301 -1.16602 5.66602 -5.49902 6.99902s-15.833 3 -34.5 5l-43 4l-1 14h426l5 -163h-12l-5 44c-12.667 41.333 -28.5 68.833 -47.5 82.5s-54.833 20.5 -107.5 20.5h-112l-52 -272h88
c27.333 0 47.5 2.16699 60.5 6.5s21.667 9.33301 26 15s10.833 17.834 19.5 36.501l13 28l11 -1l-41 -191l-11 1l2 28c2 27.333 -1.16699 43.833 -9.5 49.5s-34.5 8.83398 -78.5 9.50098l-82 2l-58 -302l125 -3c44.667 0 81.667 5.5 111 16.5s50.833 23.5 64.5 37.5
s28.5 34 44.5 60l18 42l15 -1l-70 -171h-458zM422.999 684.999c-12 0 -21.668 4.33301 -29.001 13s-11 18 -11 28c0 10.667 3.5 20.667 10.5 30s16.833 14 29.5 14s22.334 -4.66699 29.001 -14s10 -19.333 10 -30c0 -10 -3.5 -19.333 -10.5 -28s-16.5 -13 -28.5 -13z
M264.998 684.999c-12 0 -21.501 4.33301 -28.501 13s-10.5 18 -10.5 28c0 10.667 3.33301 20.667 10 30s16.334 14 29.001 14s22.5 -4.66699 29.5 -14s10.5 -19.333 10.5 -30c0 -10 -3.66699 -19.333 -11 -28s-17 -13 -29 -13z" />
    <glyph glyph-name="Igrave" unicode="&#xcc;" horiz-adv-x="314" 
d="M-2 0l3 14l52 5c24.667 2 37.667 6.33301 39 13l106 563c0.666992 3.33301 -1.16602 5.66602 -5.49902 6.99902s-15.833 3 -34.5 5l-43 4l-1 14h237l-4 -14l-52 -5c-24 -2 -36.667 -6.33301 -38 -13l-106 -563c-0.666992 -3.33301 1.16602 -5.66602 5.49902 -6.99902
s15.833 -3 34.5 -5l43 -4l1 -14h-237zM247 667l-138 184h64l84 -184h-10z" />
    <glyph glyph-name="Iacute" unicode="&#xcd;" horiz-adv-x="314" 
d="M-2 0l3 14l52 5c24.667 2 37.667 6.33301 39 13l106 563c0.666992 3.33301 -1.16602 5.66602 -5.49902 6.99902s-15.833 3 -34.5 5l-43 4l-1 14h237l-4 -14l-52 -5c-24 -2 -36.667 -6.33301 -38 -13l-106 -563c-0.666992 -3.33301 1.16602 -5.66602 5.49902 -6.99902
s15.833 -3 34.5 -5l43 -4l1 -14h-237zM207 667l148 184h69l-208 -184h-9z" />
    <glyph glyph-name="Icircumflex" unicode="&#xce;" horiz-adv-x="314" 
d="M-2 0l3 14l52 5c24.667 2 37.667 6.33301 39 13l106 563c0.666992 3.33301 -1.16602 5.66602 -5.49902 6.99902s-15.833 3 -34.5 5l-43 4l-1 14h237l-4 -14l-52 -5c-24 -2 -36.667 -6.33301 -38 -13l-106 -563c-0.666992 -3.33301 1.16602 -5.66602 5.49902 -6.99902
s15.833 -3 34.5 -5l43 -4l1 -14h-237zM108 660l145 177h26l79 -177h-8l-91 122h-3l-138 -122h-10z" />
    <glyph glyph-name="Idieresis" unicode="&#xcf;" horiz-adv-x="314" 
d="M-2 0l3 14l52 5c24.667 2 37.667 6.33301 39 13l106 563c0.666992 3.33301 -1.16602 5.66602 -5.49902 6.99902s-15.833 3 -34.5 5l-43 4l-1 14h237l-4 -14l-52 -5c-24 -2 -36.667 -6.33301 -38 -13l-106 -563c-0.666992 -3.33301 1.16602 -5.66602 5.49902 -6.99902
s15.833 -3 34.5 -5l43 -4l1 -14h-237zM314 685c-12 0 -21.668 4.33301 -29.001 13s-11 18 -11 28c0 10.667 3.5 20.667 10.5 30s16.833 14 29.5 14s22.334 -4.66699 29.001 -14s10 -19.333 10 -30c0 -10 -3.5 -19.333 -10.5 -28s-16.5 -13 -28.5 -13zM155.999 685
c-12 0 -21.501 4.33301 -28.501 13s-10.5 18 -10.5 28c0 10.667 3.33301 20.667 10 30s16.334 14 29.001 14s22.5 -4.66699 29.5 -14s10.5 -19.333 10.5 -30c0 -10 -3.66699 -19.333 -11 -28s-17 -13 -29 -13z" />
    <glyph glyph-name="Eth" unicode="&#xd0;" horiz-adv-x="655" 
d="M134 307h-83.001l5 19h81l51 269c0.666992 3.33301 -1.16602 5.66602 -5.49902 6.99902s-15.833 3 -34.5 5l-40 4l-1 14h234c85.333 0 153.666 -25.5 204.999 -76.5s77 -116.833 77 -197.5c0 -105.333 -36 -190.166 -108 -254.499s-170.333 -96.5 -295 -96.5h-229l3 14
l50 5c24.667 2.66699 37.334 7 38.001 13zM196.999 326l149.001 -0.000976562v-19h-153l-52 -278l103 -12c97.333 0.666992 174.166 33.834 230.499 99.501s84.5 149.167 84.5 250.5c0 76.667 -19.333 136.167 -58 178.5s-96.667 63.5 -174 63.5h-76z" />
    <glyph glyph-name="Ntilde" unicode="&#xd1;" horiz-adv-x="670" 
d="M512 -6l-294 583h-2l-100 -540c-0.666992 -3.33301 0.5 -6.33301 3.5 -9s8.83301 -5 17.5 -7s20 -3.33301 34 -4l38 -3l2 -14h-215l3 14l41 3c34.667 3.33301 53.334 10.666 56.001 21.999l105 544c-6.66699 10 -28.334 17.667 -65.001 23l-31 5l-2 14h155l269 -533h2
l92 496c1.33301 11.333 -17 18 -55 20l-38 3l-2 14h215l-4 -14l-40 -3c-35.333 -3.33301 -54.333 -10.666 -57 -21.999l-113 -592h-15zM483 677c-16 0 -39.999 10.333 -71.999 31s-54 31 -66 31c-26 0 -45.667 -18.333 -59 -55h-12c19.333 62.667 47.333 94 84 94
c16 0 40.167 -10.333 72.5 -31s54.166 -31 65.499 -31c26.667 0 46.667 18.333 60 55h12c-10 -32.667 -21.667 -56.5 -35 -71.5s-30 -22.5 -50 -22.5z" />
    <glyph glyph-name="Ograve" unicode="&#xd2;" horiz-adv-x="692" 
d="M337 -14c-84.667 0 -153.167 28.332 -205.5 84.999s-78.5 126.667 -78.5 210c0 92.667 32.5 175.334 97.5 248.001s145.167 109 240.5 109c84 0 152.333 -28.667 205 -86s79 -127.333 79 -210c0 -99.333 -33.5 -183.5 -100.5 -252.5s-146.167 -103.5 -237.5 -103.5z
M340 1.99902c79.333 0 144.001 35 194.001 105s75 154.333 75 253c0 76 -19.5 138.667 -58.5 188s-93.5 74 -163.5 74c-54 0 -102 -18 -144 -54s-73.333 -81.167 -94 -135.5s-31 -111.833 -31 -172.5c0 -76 19.167 -138 57.5 -186s93.166 -72 164.499 -72zM407.001 666.999
l-138 184h64l84 -184h-10z" />
    <glyph glyph-name="Oacute" unicode="&#xd3;" horiz-adv-x="692" 
d="M337 -14c-84.667 0 -153.167 28.332 -205.5 84.999s-78.5 126.667 -78.5 210c0 92.667 32.5 175.334 97.5 248.001s145.167 109 240.5 109c84 0 152.333 -28.667 205 -86s79 -127.333 79 -210c0 -99.333 -33.5 -183.5 -100.5 -252.5s-146.167 -103.5 -237.5 -103.5z
M340 1.99902c79.333 0 144.001 35 194.001 105s75 154.333 75 253c0 76 -19.5 138.667 -58.5 188s-93.5 74 -163.5 74c-54 0 -102 -18 -144 -54s-73.333 -81.167 -94 -135.5s-31 -111.833 -31 -172.5c0 -76 19.167 -138 57.5 -186s93.166 -72 164.499 -72zM385.001 666.999
l148 184h69l-208 -184h-9z" />
    <glyph glyph-name="Ocircumflex" unicode="&#xd4;" horiz-adv-x="692" 
d="M337 -14c-84.667 0 -153.167 28.332 -205.5 84.999s-78.5 126.667 -78.5 210c0 92.667 32.5 175.334 97.5 248.001s145.167 109 240.5 109c84 0 152.333 -28.667 205 -86s79 -127.333 79 -210c0 -99.333 -33.5 -183.5 -100.5 -252.5s-146.167 -103.5 -237.5 -103.5z
M340 1.99902c79.333 0 144.001 35 194.001 105s75 154.333 75 253c0 76 -19.5 138.667 -58.5 188s-93.5 74 -163.5 74c-54 0 -102 -18 -144 -54s-73.333 -81.167 -94 -135.5s-31 -111.833 -31 -172.5c0 -76 19.167 -138 57.5 -186s93.166 -72 164.499 -72zM275.001 659.999
l145 177h26l79 -177h-8l-91 122h-3l-138 -122h-10z" />
    <glyph glyph-name="Otilde" unicode="&#xd5;" horiz-adv-x="692" 
d="M337 -14c-84.667 0 -153.167 28.332 -205.5 84.999s-78.5 126.667 -78.5 210c0 92.667 32.5 175.334 97.5 248.001s145.167 109 240.5 109c84 0 152.333 -28.667 205 -86s79 -127.333 79 -210c0 -99.333 -33.5 -183.5 -100.5 -252.5s-146.167 -103.5 -237.5 -103.5z
M340 1.99902c79.333 0 144.001 35 194.001 105s75 154.333 75 253c0 76 -19.5 138.667 -58.5 188s-93.5 74 -163.5 74c-54 0 -102 -18 -144 -54s-73.333 -81.167 -94 -135.5s-31 -111.833 -31 -172.5c0 -76 19.167 -138 57.5 -186s93.166 -72 164.499 -72zM483.001 676.999
c-16 0 -39.999 10.333 -71.999 31s-54 31 -66 31c-26 0 -45.667 -18.333 -59 -55h-12c19.333 62.667 47.333 94 84 94c16 0 40.167 -10.333 72.5 -31s54.166 -31 65.499 -31c26.667 0 46.667 18.333 60 55h12c-10 -32.667 -21.667 -56.5 -35 -71.5s-30 -22.5 -50 -22.5z" />
    <glyph glyph-name="Odieresis" unicode="&#xd6;" horiz-adv-x="692" 
d="M337 -14c-84.667 0 -153.167 28.332 -205.5 84.999s-78.5 126.667 -78.5 210c0 92.667 32.5 175.334 97.5 248.001s145.167 109 240.5 109c84 0 152.333 -28.667 205 -86s79 -127.333 79 -210c0 -99.333 -33.5 -183.5 -100.5 -252.5s-146.167 -103.5 -237.5 -103.5z
M340 1.99902c79.333 0 144.001 35 194.001 105s75 154.333 75 253c0 76 -19.5 138.667 -58.5 188s-93.5 74 -163.5 74c-54 0 -102 -18 -144 -54s-73.333 -81.167 -94 -135.5s-31 -111.833 -31 -172.5c0 -76 19.167 -138 57.5 -186s93.166 -72 164.499 -72zM499.001 684.999
c-12 0 -21.668 4.33301 -29.001 13s-11 18 -11 28c0 10.667 3.5 20.667 10.5 30s16.833 14 29.5 14s22.334 -4.66699 29.001 -14s10 -19.333 10 -30c0 -10 -3.5 -19.333 -10.5 -28s-16.5 -13 -28.5 -13zM341 684.999c-12 0 -21.501 4.33301 -28.501 13s-10.5 18 -10.5 28
c0 10.667 3.33301 20.667 10 30s16.334 14 29.001 14s22.5 -4.66699 29.5 -14s10.5 -19.333 10.5 -30c0 -10 -3.66699 -19.333 -11 -28s-17 -13 -29 -13z" />
    <glyph glyph-name="multiply" unicode="&#xd7;" 
d="M37 61l175 175l-175 175l16 16l175 -175l175 175l16 -16l-175 -175l175 -175l-16 -16l-175 175l-175 -175z" />
    <glyph glyph-name="Oslash" unicode="&#xd8;" horiz-adv-x="692" 
d="M575 573c66.667 -57.333 100.003 -134.001 100.003 -230.001c0 -99.333 -33.5 -183.833 -100.5 -253.5s-146.167 -104.5 -237.5 -104.5c-64.667 0 -121.334 18 -170.001 54l-85 -112h-20l93 121c-32.667 27.333 -57.834 61.333 -75.501 102s-26.5 84.334 -26.5 131.001
c0 93.333 32.5 176.333 97.5 249s145.167 109 240.5 109c65.333 0 122.666 -18.667 171.999 -56l81 106h20zM175.003 74.999l368 482c-40 44 -92 66 -156 66c-54 0 -102 -18 -144 -54s-73.333 -81.167 -94 -135.5s-31 -111.833 -31 -172.5c0 -78 19 -140 57 -186z
M554.003 544.999l-368 -482.001c38 -41.333 89.333 -62 154 -62c79.333 0 144 35.333 194 106s75 155.334 75 254.001c0 74.667 -18.333 136 -55 184z" />
    <glyph glyph-name="Ugrave" unicode="&#xd9;" horiz-adv-x="665" 
d="M326 -16c-68.667 0 -123.17 14.666 -163.503 43.999s-60.5 72 -60.5 128c0 24.667 3 51 9 79l69 360v3c0 0.666992 -0.5 1.5 -1.5 2.5s-2.33301 1.66699 -4 2l-7.5 1.5c-3.33301 0.666992 -7.16602 1.16699 -11.499 1.5s-9.83301 0.833008 -16.5 1.5l-49 4l-2 14h251
l-3 -14l-59 -5c-24 -2 -36.667 -6.33301 -38 -13l-69 -366c-4.66699 -26.667 -7 -48.667 -7 -66c0 -47.333 15.833 -83.5 47.5 -108.5s77.5 -37.5 137.5 -37.5c106.667 0 172.334 65 197.001 195l71 378c0.666992 3.33301 -0.666016 6.33301 -3.99902 9s-9.5 5 -18.5 7
s-20.5 3.33301 -34.5 4l-38 3l-2 14h216l-4 -14l-40 -3c-34 -3.33301 -52.333 -10.666 -55 -21.999l-73 -380c-27.333 -148 -106.333 -222 -237 -222zM443.997 666.999l-138 184h64l84 -184h-10z" />
    <glyph glyph-name="Uacute" unicode="&#xda;" horiz-adv-x="665" 
d="M326 -16c-68.667 0 -123.17 14.666 -163.503 43.999s-60.5 72 -60.5 128c0 24.667 3 51 9 79l69 360v3c0 0.666992 -0.5 1.5 -1.5 2.5s-2.33301 1.66699 -4 2l-7.5 1.5c-3.33301 0.666992 -7.16602 1.16699 -11.499 1.5s-9.83301 0.833008 -16.5 1.5l-49 4l-2 14h251
l-3 -14l-59 -5c-24 -2 -36.667 -6.33301 -38 -13l-69 -366c-4.66699 -26.667 -7 -48.667 -7 -66c0 -47.333 15.833 -83.5 47.5 -108.5s77.5 -37.5 137.5 -37.5c106.667 0 172.334 65 197.001 195l71 378c0.666992 3.33301 -0.666016 6.33301 -3.99902 9s-9.5 5 -18.5 7
s-20.5 3.33301 -34.5 4l-38 3l-2 14h216l-4 -14l-40 -3c-34 -3.33301 -52.333 -10.666 -55 -21.999l-73 -380c-27.333 -148 -106.333 -222 -237 -222zM389.997 666.999l148 184h69l-208 -184h-9z" />
    <glyph glyph-name="Ucircumflex" unicode="&#xdb;" horiz-adv-x="665" 
d="M326 -16c-68.667 0 -123.17 14.666 -163.503 43.999s-60.5 72 -60.5 128c0 24.667 3 51 9 79l69 360v3c0 0.666992 -0.5 1.5 -1.5 2.5s-2.33301 1.66699 -4 2l-7.5 1.5c-3.33301 0.666992 -7.16602 1.16699 -11.499 1.5s-9.83301 0.833008 -16.5 1.5l-49 4l-2 14h251
l-3 -14l-59 -5c-24 -2 -36.667 -6.33301 -38 -13l-69 -366c-4.66699 -26.667 -7 -48.667 -7 -66c0 -47.333 15.833 -83.5 47.5 -108.5s77.5 -37.5 137.5 -37.5c106.667 0 172.334 65 197.001 195l71 378c0.666992 3.33301 -0.666016 6.33301 -3.99902 9s-9.5 5 -18.5 7
s-20.5 3.33301 -34.5 4l-38 3l-2 14h216l-4 -14l-40 -3c-34 -3.33301 -52.333 -10.666 -55 -21.999l-73 -380c-27.333 -148 -106.333 -222 -237 -222zM295.997 659.999l145 177h26l79 -177h-8l-91 122h-3l-138 -122h-10z" />
    <glyph glyph-name="Udieresis" unicode="&#xdc;" horiz-adv-x="665" 
d="M326 -16c-68.667 0 -123.17 14.666 -163.503 43.999s-60.5 72 -60.5 128c0 24.667 3 51 9 79l69 360v3c0 0.666992 -0.5 1.5 -1.5 2.5s-2.33301 1.66699 -4 2l-7.5 1.5c-3.33301 0.666992 -7.16602 1.16699 -11.499 1.5s-9.83301 0.833008 -16.5 1.5l-49 4l-2 14h251
l-3 -14l-59 -5c-24 -2 -36.667 -6.33301 -38 -13l-69 -366c-4.66699 -26.667 -7 -48.667 -7 -66c0 -47.333 15.833 -83.5 47.5 -108.5s77.5 -37.5 137.5 -37.5c106.667 0 172.334 65 197.001 195l71 378c0.666992 3.33301 -0.666016 6.33301 -3.99902 9s-9.5 5 -18.5 7
s-20.5 3.33301 -34.5 4l-38 3l-2 14h216l-4 -14l-40 -3c-34 -3.33301 -52.333 -10.666 -55 -21.999l-73 -380c-27.333 -148 -106.333 -222 -237 -222zM505.997 684.999c-12 0 -21.668 4.33301 -29.001 13s-11 18 -11 28c0 10.667 3.5 20.667 10.5 30s16.833 14 29.5 14
s22.334 -4.66699 29.001 -14s10 -19.333 10 -30c0 -10 -3.5 -19.333 -10.5 -28s-16.5 -13 -28.5 -13zM347.996 684.999c-12 0 -21.501 4.33301 -28.501 13s-10.5 18 -10.5 28c0 10.667 3.33301 20.667 10 30s16.334 14 29.001 14s22.5 -4.66699 29.5 -14
s10.5 -19.333 10.5 -30c0 -10 -3.66699 -19.333 -11 -28s-17 -13 -29 -13z" />
    <glyph glyph-name="Yacute" unicode="&#xdd;" horiz-adv-x="593" 
d="M129 0l3.00098 13.999l63 5c24 2 36.667 6.33301 38 13l46 245l-113 278c-5.33301 14 -9.5 23.833 -12.5 29.5s-8 10.834 -15 15.501s-16.5 7.33398 -28.5 8.00098l-35 3l-2 14h232l-4 -14l-48 -2c-16.667 -0.666992 -26.667 -4 -30 -10s-2 -17.333 4 -34l104 -263h2
l163 222c26 37.333 38.5 60.166 37.5 68.499s-16.5 13.5 -46.5 15.5l-39 3l-1 14h219l-4 -14l-32 -2c-22.667 -1.33301 -39.667 -6.33301 -51 -15s-32 -32.667 -62 -72l-177 -239l-48 -253v-3c0 -0.666992 0.5 -1.5 1.5 -2.5s2.33301 -1.66699 4 -2l7.5 -1.5
c3.33301 -0.666992 7.16602 -1.16699 11.499 -1.5s9.83301 -0.833008 16.5 -1.5l52 -4l1 -14h-257zM361.001 666.999l148 184h69l-208 -184h-9z" />
    <glyph glyph-name="Thorn" unicode="&#xde;" horiz-adv-x="522" 
d="M-18 0l3 14.001l59 5c24 2 36.667 6.33301 38 13l106 563c0.666992 3.33301 -1.33301 5.83301 -6 7.5s-16 3.16699 -34 4.5l-50 4l-1 14h251l-4 -14l-58 -5c-24 -2 -36.667 -6.33301 -38 -13l-20 -102h78c64 0 115.333 -14.5 154 -43.5s58 -66.5 58 -112.5
c0 -52.667 -21.167 -95.834 -63.5 -129.501s-97.5 -50.5 -165.5 -50.5c-40.667 0 -81 5 -121 15l-27 -140c-0.666992 -2.66699 -0.166992 -4.66699 1.5 -6s5.5 -2.5 11.5 -3.5s15.333 -1.83301 28 -2.5l61 -4l2 -14h-263zM283 171.001c52 0 93.333 15.499 124 46.499
s46 73.5 46 127.5c0 40.667 -13.333 72.334 -40 95.001s-66 34 -118 34c-2 0 -13.667 -0.166992 -35 -0.5s-33.333 -0.5 -36 -0.5l-52 -282c35.333 -13.333 72.333 -20 111 -20z" />
    <glyph glyph-name="germandbls" unicode="&#xdf;" horiz-adv-x="454" 
d="M294 410c36.667 -25.333 68.8379 -61.832 96.5049 -109.499s39.834 -93.5 36.501 -137.5c-2.66699 -48.667 -19.334 -89.834 -50.001 -123.501s-67.334 -50.167 -110.001 -49.5c-31.333 1.33301 -57.5 9.83301 -78.5 25.5s-30.833 34.167 -29.5 55.5
c0 13.333 4.16699 24.5 12.5 33.5s18.5 13.167 30.5 12.5c13.333 0 22.666 -5.83301 27.999 -17.5s5.16602 -23.167 -0.500977 -34.5s-15.167 -17.333 -28.5 -18c12.667 -28 35.667 -42.333 69 -43c30 -0.666992 54.333 12.333 73 39s29 60.667 31 102
c2.66699 43.333 -8 88.333 -32 135s-60 88.667 -108 126l2 7c47.333 1.33301 85.333 14.833 114 40.5s44.334 58.5 47.001 98.5c1.33301 28 -5.33398 52.167 -20.001 72.5s-34.667 30.833 -60 31.5c-36 1.33301 -63.667 -13.667 -83 -45s-37.333 -91.666 -54 -180.999
l-67 -328c-30 -138.667 -64.667 -227.667 -104 -267c-23.333 -23.333 -50.333 -35 -81 -35c-22 0 -38.833 4.66699 -50.5 14s-17.5 21.333 -17.5 36c0 11.333 3.5 20.666 10.5 27.999s15.5 11 25.5 11c14.667 0 24.667 -6.5 30 -19.5s2.33301 -27.833 -9 -44.5
c4 -2 12.167 -1.16699 24.5 2.5s18.833 5.5 19.5 5.5c16 3.33301 29.167 12 39.5 26s21 39.5 32 76.5s23.5 91.833 37.5 164.5l54 299l-78 1l7 27l80 5c18 82 40.667 142.167 68 180.5s65.666 57.5 114.999 57.5c40.667 0 73.334 -11.5 98.001 -34.5s36 -52.167 34 -87.5
c-2.66699 -37.333 -17.834 -67.833 -45.501 -91.5s-63.834 -39.167 -108.501 -46.5z" />
    <glyph glyph-name="agrave" unicode="&#xe0;" horiz-adv-x="426" 
d="M276 -14c-10 0 -19.167 6.16504 -27.5 18.498s-12.5 24.833 -12.5 37.5c0 18 15.667 70.333 47 157h-5c-27.333 -46 -49 -81.167 -65 -105.5s-35.5 -48.166 -58.5 -71.499s-43.167 -35 -60.5 -35c-23.333 0 -42.5 10 -57.5 30s-22.5 45 -22.5 75
c0 48 15.333 101.333 46 160s64.667 106.334 102 143.001c30 30 59.333 45 88 45c20 0 36.667 -8.16699 50 -24.5s21 -38.166 23 -65.499h3l27 94l47 -2l-67 -212l-58 -202l42 -6l75 104l9 -8c-21.333 -40.667 -43 -72.834 -65 -96.501s-42 -35.5 -60 -35.5zM116 27.998
c20.667 0 45.668 19.998 75.001 59.998s63.333 95.667 102 167c13.333 26.667 20 49.334 20 68.001c-4.66699 19.333 -15.334 38.333 -32.001 57s-35.667 28 -57 28c-18 0 -36 -9 -54 -27c-26 -26 -49.833 -67.167 -71.5 -123.5s-32.5 -105.166 -32.5 -146.499
c0 -26.667 4.83301 -47.167 14.5 -61.5s21.5 -21.5 35.5 -21.5zM268.001 494.996l-138 184h64l84 -184h-10z" />
    <glyph glyph-name="aacute" unicode="&#xe1;" horiz-adv-x="426" 
d="M276 -14c-10 0 -19.167 6.16504 -27.5 18.498s-12.5 24.833 -12.5 37.5c0 18 15.667 70.333 47 157h-5c-27.333 -46 -49 -81.167 -65 -105.5s-35.5 -48.166 -58.5 -71.499s-43.167 -35 -60.5 -35c-23.333 0 -42.5 10 -57.5 30s-22.5 45 -22.5 75
c0 48 15.333 101.333 46 160s64.667 106.334 102 143.001c30 30 59.333 45 88 45c20 0 36.667 -8.16699 50 -24.5s21 -38.166 23 -65.499h3l27 94l47 -2l-67 -212l-58 -202l42 -6l75 104l9 -8c-21.333 -40.667 -43 -72.834 -65 -96.501s-42 -35.5 -60 -35.5zM116 27.998
c20.667 0 45.668 19.998 75.001 59.998s63.333 95.667 102 167c13.333 26.667 20 49.334 20 68.001c-4.66699 19.333 -15.334 38.333 -32.001 57s-35.667 28 -57 28c-18 0 -36 -9 -54 -27c-26 -26 -49.833 -67.167 -71.5 -123.5s-32.5 -105.166 -32.5 -146.499
c0 -26.667 4.83301 -47.167 14.5 -61.5s21.5 -21.5 35.5 -21.5zM225.001 494.996l148 184h69l-208 -184h-9z" />
    <glyph glyph-name="acircumflex" unicode="&#xe2;" horiz-adv-x="426" 
d="M276 -14c-10 0 -19.167 6.16504 -27.5 18.498s-12.5 24.833 -12.5 37.5c0 18 15.667 70.333 47 157h-5c-27.333 -46 -49 -81.167 -65 -105.5s-35.5 -48.166 -58.5 -71.499s-43.167 -35 -60.5 -35c-23.333 0 -42.5 10 -57.5 30s-22.5 45 -22.5 75
c0 48 15.333 101.333 46 160s64.667 106.334 102 143.001c30 30 59.333 45 88 45c20 0 36.667 -8.16699 50 -24.5s21 -38.166 23 -65.499h3l27 94l47 -2l-67 -212l-58 -202l42 -6l75 104l9 -8c-21.333 -40.667 -43 -72.834 -65 -96.501s-42 -35.5 -60 -35.5zM116 27.998
c20.667 0 45.668 19.998 75.001 59.998s63.333 95.667 102 167c13.333 26.667 20 49.334 20 68.001c-4.66699 19.333 -15.334 38.333 -32.001 57s-35.667 28 -57 28c-18 0 -36 -9 -54 -27c-26 -26 -49.833 -67.167 -71.5 -123.5s-32.5 -105.166 -32.5 -146.499
c0 -26.667 4.83301 -47.167 14.5 -61.5s21.5 -21.5 35.5 -21.5zM132.001 487.996l145 177h26l79 -177h-8l-91 122h-3l-138 -122h-10z" />
    <glyph glyph-name="atilde" unicode="&#xe3;" horiz-adv-x="426" 
d="M276 -14c-10 0 -19.167 6.16504 -27.5 18.498s-12.5 24.833 -12.5 37.5c0 18 15.667 70.333 47 157h-5c-27.333 -46 -49 -81.167 -65 -105.5s-35.5 -48.166 -58.5 -71.499s-43.167 -35 -60.5 -35c-23.333 0 -42.5 10 -57.5 30s-22.5 45 -22.5 75
c0 48 15.333 101.333 46 160s64.667 106.334 102 143.001c30 30 59.333 45 88 45c20 0 36.667 -8.16699 50 -24.5s21 -38.166 23 -65.499h3l27 94l47 -2l-67 -212l-58 -202l42 -6l75 104l9 -8c-21.333 -40.667 -43 -72.834 -65 -96.501s-42 -35.5 -60 -35.5zM116 27.998
c20.667 0 45.668 19.998 75.001 59.998s63.333 95.667 102 167c13.333 26.667 20 49.334 20 68.001c-4.66699 19.333 -15.334 38.333 -32.001 57s-35.667 28 -57 28c-18 0 -36 -9 -54 -27c-26 -26 -49.833 -67.167 -71.5 -123.5s-32.5 -105.166 -32.5 -146.499
c0 -26.667 4.83301 -47.167 14.5 -61.5s21.5 -21.5 35.5 -21.5zM353.001 504.996c-16 0 -39.999 10.333 -71.999 31s-54 31 -66 31c-26 0 -45.667 -18.333 -59 -55h-12c19.333 62.667 47.333 94 84 94c16 0 40.167 -10.333 72.5 -31s54.166 -31 65.499 -31
c26.667 0 46.667 18.333 60 55h12c-10 -32.667 -21.667 -56.5 -35 -71.5s-30 -22.5 -50 -22.5z" />
    <glyph glyph-name="adieresis" unicode="&#xe4;" horiz-adv-x="426" 
d="M276 -14c-10 0 -19.167 6.16504 -27.5 18.498s-12.5 24.833 -12.5 37.5c0 18 15.667 70.333 47 157h-5c-27.333 -46 -49 -81.167 -65 -105.5s-35.5 -48.166 -58.5 -71.499s-43.167 -35 -60.5 -35c-23.333 0 -42.5 10 -57.5 30s-22.5 45 -22.5 75
c0 48 15.333 101.333 46 160s64.667 106.334 102 143.001c30 30 59.333 45 88 45c20 0 36.667 -8.16699 50 -24.5s21 -38.166 23 -65.499h3l27 94l47 -2l-67 -212l-58 -202l42 -6l75 104l9 -8c-21.333 -40.667 -43 -72.834 -65 -96.501s-42 -35.5 -60 -35.5zM116 27.998
c20.667 0 45.668 19.998 75.001 59.998s63.333 95.667 102 167c13.333 26.667 20 49.334 20 68.001c-4.66699 19.333 -15.334 38.333 -32.001 57s-35.667 28 -57 28c-18 0 -36 -9 -54 -27c-26 -26 -49.833 -67.167 -71.5 -123.5s-32.5 -105.166 -32.5 -146.499
c0 -26.667 4.83301 -47.167 14.5 -61.5s21.5 -21.5 35.5 -21.5zM348.001 512.996c-12 0 -21.668 4.33301 -29.001 13s-11 18 -11 28c0 10.667 3.5 20.667 10.5 30s16.833 14 29.5 14s22.334 -4.66699 29.001 -14s10 -19.333 10 -30c0 -10 -3.5 -19.333 -10.5 -28
s-16.5 -13 -28.5 -13zM190 512.996c-12 0 -21.501 4.33301 -28.501 13s-10.5 18 -10.5 28c0 10.667 3.33301 20.667 10 30s16.334 14 29.001 14s22.5 -4.66699 29.5 -14s10.5 -19.333 10.5 -30c0 -10 -3.66699 -19.333 -11 -28s-17 -13 -29 -13z" />
    <glyph glyph-name="aring" unicode="&#xe5;" horiz-adv-x="426" 
d="M278 502c-26.667 0 -48.167 8.66699 -64.5 26s-24.5 38.666 -24.5 63.999s8.16699 46.666 24.5 63.999s37.833 26 64.5 26s48.167 -8.66699 64.5 -26s24.5 -38.666 24.5 -63.999s-8.16699 -46.666 -24.5 -63.999s-37.833 -26 -64.5 -26zM276 -14
c-10 0 -19.167 6.16504 -27.5 18.498s-12.5 24.833 -12.5 37.5c0 18 15.667 70.333 47 157h-5c-27.333 -46 -49 -81.167 -65 -105.5s-35.5 -48.166 -58.5 -71.499s-43.167 -35 -60.5 -35c-23.333 0 -42.5 10 -57.5 30s-22.5 45 -22.5 75c0 48 15.333 101.333 46 160
s64.667 106.334 102 143.001c30 30 59.333 45 88 45c20 0 36.667 -8.16699 50 -24.5s21 -38.166 23 -65.499h3l27 94l47 -2l-67 -212l-58 -202l42 -6l75 104l9 -8c-21.333 -40.667 -43 -72.834 -65 -96.501s-42 -35.5 -60 -35.5zM278 515.998c22 0 39.668 7.33301 53.001 22
s20 32.667 20 54s-6.66699 39.333 -20 54s-31 22 -53 22s-39.667 -7.33301 -53 -22s-20 -32.667 -20 -54c-0.666992 -21.333 5.66602 -39.333 18.999 -54s31.333 -22 54 -22zM116.001 27.998c20.667 0 45.668 19.998 75.001 59.998s63.333 95.667 102 167
c13.333 26.667 20 49.334 20 68.001c-4.66699 19.333 -15.334 38.333 -32.001 57s-35.667 28 -57 28c-18 0 -36 -9 -54 -27c-26 -26 -49.833 -67.167 -71.5 -123.5s-32.5 -105.166 -32.5 -146.499c0 -26.667 4.83301 -47.167 14.5 -61.5s21.5 -21.5 35.5 -21.5z" />
    <glyph glyph-name="ae" unicode="&#xe6;" horiz-adv-x="574" 
d="M94 -13c-24 0 -43.334 9.83301 -58.001 29.5s-22 44.5 -22 74.5c0 48 15.333 101.167 46 159.5s64.667 106.166 102 143.499c30.667 30.667 60 46 88 46c20.667 0 37.834 -9.5 51.501 -28.5s20.834 -46.833 21.501 -83.5c23.333 35.333 49.833 63.5 79.5 84.5
s59.5 31.5 89.5 31.5c26 0 48 -6.66699 66 -20s27 -29 27 -47c0 -28.667 -18 -53 -54 -73s-104 -46 -204 -78c-7.33301 -28 -11 -54.667 -11 -80c0 -38 7.83301 -67.833 23.5 -89.5s36.167 -32.5 61.5 -32.5c43.333 0 86.666 33 129.999 99l10 -8
c-55.333 -84.667 -109 -127 -161 -127c-35.333 0 -63.5 13.667 -84.5 41s-31.5 61 -31.5 101c0 20.667 1.33301 39.334 4 56.001c-39.333 -68 -72.333 -118.167 -99 -150.5s-51.667 -48.5 -75 -48.5zM332.999 242c80.667 25.333 134.332 46.832 160.999 64.499
s40 40.834 40 69.501c0 14.667 -5.66699 27.167 -17 37.5s-25.666 15.5 -42.999 15.5s-38 -11.333 -62 -34c-36 -36 -63 -86.667 -81 -152zM115.997 27.999c38.667 0 95.668 75.667 171.001 227c13.333 26.667 20 49.334 20 68.001
c-2.66699 19.333 -11.834 38.333 -27.501 57s-34.167 28 -55.5 28c-16 0 -34 -9.33301 -54 -28c-26 -26.667 -49.833 -67.834 -71.5 -123.501s-32.5 -104.167 -32.5 -145.5c0 -26.667 4.83301 -47.167 14.5 -61.5s21.5 -21.5 35.5 -21.5z" />
    <glyph glyph-name="ccedilla" unicode="&#xe7;" horiz-adv-x="330" 
d="M121 -12c-31.333 4 -56.1621 19.334 -74.4951 46.001s-27.5 58.667 -27.5 96c0 77.333 25 149 75 215s102.667 99 158 99c25.333 0 47.166 -6.16699 65.499 -18.5s27.5 -28.5 27.5 -48.5c0 -12.667 -3.5 -22.834 -10.5 -30.501s-15.833 -11.5 -26.5 -11.5
c-8.66699 0 -16.334 3 -23.001 9s-10 13.667 -10 23c0 14 9 25.333 27 34c-14.667 18.667 -35.334 28 -62.001 28c-24.667 0 -49 -12 -73 -36c-25.333 -26 -47.666 -62.833 -66.999 -110.5s-29 -93.167 -29 -136.5c0 -38 8 -68 24 -90s36.333 -33 61 -33
c43.333 0 86.666 33.333 129.999 100l10 -8c-54 -84.667 -107.333 -127.334 -160 -128.001l-64 -58c35.333 4 63.666 0 84.999 -12s32 -29.333 32 -52c0 -33.333 -18.667 -59.333 -56 -78s-85 -28.334 -143 -29.001l-2 9c52 2.66699 92.167 11.334 120.5 26.001
s42.5 34.334 42.5 59.001c0 14 -6.33301 25.333 -19 34s-30.334 13 -53.001 13c-11.333 0 -30.333 -2.66699 -57 -8l2 8z" />
    <glyph glyph-name="egrave" unicode="&#xe8;" horiz-adv-x="328" 
d="M135 -13c-35.333 0 -63.5 13.832 -84.5 41.499s-31.5 61.5 -31.5 101.5c0 78 24 149.833 72 215.5s99.667 98.5 155 98.5c26.667 0 48.834 -6.66699 66.501 -20s26.5 -29.333 26.5 -48c0 -30.667 -18.333 -56.5 -55 -77.5s-104 -46.5 -202 -76.5
c-7.33301 -27.333 -11 -52.666 -11 -75.999c0 -38 8 -68 24 -90s36.333 -33 61 -33c43.333 0 86.666 33.333 129.999 100l10 -8c-54 -85.333 -107.667 -128 -161 -128zM88 237.999c78 22 130.667 42.668 158 62.001s41 44.666 41 75.999
c0 14.667 -4.83301 27.167 -14.5 37.5s-22.167 15.5 -37.5 15.5c-20 0 -43 -12.333 -69 -37c-34.667 -34 -61.334 -85 -80.001 -153c0.666992 0 1.33398 -0.333008 2.00098 -1zM259 495l-138 184h64l84 -184h-10z" />
    <glyph glyph-name="eacute" unicode="&#xe9;" horiz-adv-x="328" 
d="M135 -13c-35.333 0 -63.5 13.832 -84.5 41.499s-31.5 61.5 -31.5 101.5c0 78 24 149.833 72 215.5s99.667 98.5 155 98.5c26.667 0 48.834 -6.66699 66.501 -20s26.5 -29.333 26.5 -48c0 -30.667 -18.333 -56.5 -55 -77.5s-104 -46.5 -202 -76.5
c-7.33301 -27.333 -11 -52.666 -11 -75.999c0 -38 8 -68 24 -90s36.333 -33 61 -33c43.333 0 86.666 33.333 129.999 100l10 -8c-54 -85.333 -107.667 -128 -161 -128zM88 237.999c78 22 130.667 42.668 158 62.001s41 44.666 41 75.999
c0 14.667 -4.83301 27.167 -14.5 37.5s-22.167 15.5 -37.5 15.5c-20 0 -43 -12.333 -69 -37c-34.667 -34 -61.334 -85 -80.001 -153c0.666992 0 1.33398 -0.333008 2.00098 -1zM201 495l148 184h69l-208 -184h-9z" />
    <glyph glyph-name="ecircumflex" unicode="&#xea;" horiz-adv-x="328" 
d="M135 -13c-35.333 0 -63.5 13.832 -84.5 41.499s-31.5 61.5 -31.5 101.5c0 78 24 149.833 72 215.5s99.667 98.5 155 98.5c26.667 0 48.834 -6.66699 66.501 -20s26.5 -29.333 26.5 -48c0 -30.667 -18.333 -56.5 -55 -77.5s-104 -46.5 -202 -76.5
c-7.33301 -27.333 -11 -52.666 -11 -75.999c0 -38 8 -68 24 -90s36.333 -33 61 -33c43.333 0 86.666 33.333 129.999 100l10 -8c-54 -85.333 -107.667 -128 -161 -128zM88 237.999c78 22 130.667 42.668 158 62.001s41 44.666 41 75.999
c0 14.667 -4.83301 27.167 -14.5 37.5s-22.167 15.5 -37.5 15.5c-20 0 -43 -12.333 -69 -37c-34.667 -34 -61.334 -85 -80.001 -153c0.666992 0 1.33398 -0.333008 2.00098 -1zM108 488l145 177h26l79 -177h-8l-91 122h-3l-138 -122h-10z" />
    <glyph glyph-name="edieresis" unicode="&#xeb;" horiz-adv-x="328" 
d="M135 -13c-35.333 0 -63.5 13.832 -84.5 41.499s-31.5 61.5 -31.5 101.5c0 78 24 149.833 72 215.5s99.667 98.5 155 98.5c26.667 0 48.834 -6.66699 66.501 -20s26.5 -29.333 26.5 -48c0 -30.667 -18.333 -56.5 -55 -77.5s-104 -46.5 -202 -76.5
c-7.33301 -27.333 -11 -52.666 -11 -75.999c0 -38 8 -68 24 -90s36.333 -33 61 -33c43.333 0 86.666 33.333 129.999 100l10 -8c-54 -85.333 -107.667 -128 -161 -128zM88 237.999c78 22 130.667 42.668 158 62.001s41 44.666 41 75.999
c0 14.667 -4.83301 27.167 -14.5 37.5s-22.167 15.5 -37.5 15.5c-20 0 -43 -12.333 -69 -37c-34.667 -34 -61.334 -85 -80.001 -153c0.666992 0 1.33398 -0.333008 2.00098 -1zM317 513c-12 0 -21.668 4.33301 -29.001 13s-11 18 -11 28c0 10.667 3.5 20.667 10.5 30
s16.833 14 29.5 14s22.334 -4.66699 29.001 -14s10 -19.333 10 -30c0 -10 -3.5 -19.333 -10.5 -28s-16.5 -13 -28.5 -13zM158.999 513c-12 0 -21.501 4.33301 -28.501 13s-10.5 18 -10.5 28c0 10.667 3.33301 20.667 10 30s16.334 14 29.001 14s22.5 -4.66699 29.5 -14
s10.5 -19.333 10.5 -30c0 -10 -3.66699 -19.333 -11 -28s-17 -13 -29 -13z" />
    <glyph glyph-name="igrave" unicode="&#xec;" horiz-adv-x="234" 
d="M88 -13c-10 0 -22.1699 4.5 -36.5029 13.5s-21.166 16.833 -20.499 23.5l134 380l-44 5l-75 -104l-9 8c21.333 40.667 43 72.667 65 96s42 35 60 35c10 0 19.5 -6.16699 28.5 -18.5s13.167 -24.833 12.5 -37.5c0 -6 -10.667 -39 -32 -99s-42.666 -118.333 -63.999 -175
l-32 -86l44 -6l77 104l9 -8c-21.333 -40 -42.666 -71.833 -63.999 -95.5s-39 -35.5 -53 -35.5zM209.997 495l-138 184h64l84 -184h-10z" />
    <glyph glyph-name="iacute" unicode="&#xed;" horiz-adv-x="234" 
d="M88 -13c-10 0 -22.1699 4.5 -36.5029 13.5s-21.166 16.833 -20.499 23.5l134 380l-44 5l-75 -104l-9 8c21.333 40.667 43 72.667 65 96s42 35 60 35c10 0 19.5 -6.16699 28.5 -18.5s13.167 -24.833 12.5 -37.5c0 -6 -10.667 -39 -32 -99s-42.666 -118.333 -63.999 -175
l-32 -86l44 -6l77 104l9 -8c-21.333 -40 -42.666 -71.833 -63.999 -95.5s-39 -35.5 -53 -35.5zM164.997 495l148 184h69l-208 -184h-9z" />
    <glyph glyph-name="icircumflex" unicode="&#xee;" horiz-adv-x="234" 
d="M57 490l138 175h27l72 -175h-9l-84 121h-3l-132 -121h-9zM88 -13c-10 0 -22.1699 4.5 -36.5029 13.5s-21.166 16.833 -20.499 23.5l134 380l-44 5l-75 -104l-9 8c21.333 40.667 43 72.667 65 96s42 35 60 35c10 0 19.5 -6.16699 28.5 -18.5s13.167 -24.833 12.5 -37.5
c0 -6 -10.667 -39 -32 -99s-42.666 -118.333 -63.999 -175l-32 -86l44 -6l77 104l9 -8c-21.333 -40 -42.666 -71.833 -63.999 -95.5s-39 -35.5 -53 -35.5z" />
    <glyph glyph-name="idieresis" unicode="&#xef;" horiz-adv-x="234" 
d="M88 -13c-10 0 -22.1699 4.5 -36.5029 13.5s-21.166 16.833 -20.499 23.5l134 380l-44 5l-75 -104l-9 8c21.333 40.667 43 72.667 65 96s42 35 60 35c10 0 19.5 -6.16699 28.5 -18.5s13.167 -24.833 12.5 -37.5c0 -6 -10.667 -39 -32 -99s-42.666 -118.333 -63.999 -175
l-32 -86l44 -6l77 104l9 -8c-21.333 -40 -42.666 -71.833 -63.999 -95.5s-39 -35.5 -53 -35.5zM274.997 513c-12 0 -21.668 4.33301 -29.001 13s-11 18 -11 28c0 10.667 3.5 20.667 10.5 30s16.833 14 29.5 14s22.334 -4.66699 29.001 -14s10 -19.333 10 -30
c0 -10 -3.5 -19.333 -10.5 -28s-16.5 -13 -28.5 -13zM116.996 513c-12 0 -21.501 4.33301 -28.501 13s-10.5 18 -10.5 28c0 10.667 3.33301 20.667 10 30s16.334 14 29.001 14s22.5 -4.66699 29.5 -14s10.5 -19.333 10.5 -30c0 -10 -3.66699 -19.333 -11 -28
s-17 -13 -29 -13z" />
    <glyph glyph-name="eth" unicode="&#xf0;" horiz-adv-x="377" 
d="M141 -13c-40 0 -69.332 16.3311 -87.999 48.998s-28 72 -28 118c0 66.667 21.333 131.5 64 194.5s90 94.5 142 94.5c28 0 50.333 -12 67 -36c-16 58.667 -44 109 -84 151l-128 -41l4 20l111 36c-30 26.667 -63.333 50 -100 70l10 9
c46 -17.333 86.333 -40.666 121 -69.999l130 43l-1 -20l-115 -36c75.333 -70 112.333 -160 111 -270c0 -77.333 -21.833 -148.666 -65.5 -213.999s-93.834 -98 -150.501 -98zM135.001 2.99805c30.667 0 59.667 16.6689 87 50.002s48.666 74.666 63.999 123.999
c13.333 43.333 20 86.666 20 129.999c0 80 -23 120 -69 120c-29.333 0 -57.166 -19 -83.499 -57s-47.833 -83 -64.5 -135c-12.667 -42 -19 -81.667 -19 -119c0 -34 5.5 -61.333 16.5 -82s27.167 -31 48.5 -31z" />
    <glyph glyph-name="ntilde" unicode="&#xf1;" horiz-adv-x="458" 
d="M316 -13c-10 0 -22.168 4.50098 -36.501 13.501s-21.5 16.833 -21.5 23.5c0 4.66699 3.33301 16.5 10 35.5s16.334 45.5 29.001 79.5s22.667 61 30 81c32.667 96.667 49 147.334 49 152.001c0 10.667 -4.5 19.667 -13.5 27s-19.167 11 -30.5 11
c-15.333 0 -45.333 -32 -90 -96s-88.334 -139.333 -131.001 -226l-29 -91l-51 5l49 159l67 243l-41 5l-74 -104l-9 8c21.333 41.333 43 73.666 65 96.999s42 35 60 35c9.33301 0 18.333 -6 27 -18s13 -24.667 13 -38c0 -24 -23.333 -103.667 -70 -239l7 -2
c26.667 51.333 57.334 103.166 92.001 155.499s61.667 88.5 81 108.5c20 21.333 40.333 32 61 32c15.333 0 30.166 -7 44.499 -21s21.5 -29.667 21.5 -47s-17 -70.333 -51 -159c-6.66699 -18 -15.667 -42.167 -27 -72.5s-21 -56.5 -29 -78.5s-12.667 -34.667 -14 -38l44 -6
l76 105l9 -8c-21.333 -40 -42.666 -72 -63.999 -96s-39 -36 -53 -36zM349.999 505.001c-16 0 -39.999 10.333 -71.999 31s-54 31 -66 31c-26 0 -45.667 -18.333 -59 -55h-12c19.333 62.667 47.333 94 84 94c16 0 40.167 -10.333 72.5 -31s54.166 -31 65.499 -31
c26.667 0 46.667 18.333 60 55h12c-10 -32.667 -21.667 -56.5 -35 -71.5s-30 -22.5 -50 -22.5z" />
    <glyph glyph-name="ograve" unicode="&#xf2;" horiz-adv-x="377" 
d="M141 -13c-40 0 -69.333 16.332 -88 48.999s-28 72 -28 118c0 66.667 21.333 131.667 64 195s90 95 142 95c38 0 67.667 -16.667 89 -50s32 -75.666 32 -126.999c0 -67.333 -21.5 -130.833 -64.5 -190.5s-91.833 -89.5 -146.5 -89.5zM135 2.99902
c30.667 0 59.667 16.6689 87 50.002s48.666 74.666 63.999 123.999c13.333 43.333 20 86.666 20 129.999c0 80 -23 120 -69 120c-29.333 0 -57.166 -19 -83.499 -57s-47.833 -83 -64.5 -135c-12.667 -42 -19 -81.667 -19 -119c0 -34 5.5 -61.333 16.5 -82
s27.167 -31 48.5 -31zM266 495.001l-138 184h64l84 -184h-10z" />
    <glyph glyph-name="oacute" unicode="&#xf3;" horiz-adv-x="377" 
d="M141 -13c-40 0 -69.333 16.332 -88 48.999s-28 72 -28 118c0 66.667 21.333 131.667 64 195s90 95 142 95c38 0 67.667 -16.667 89 -50s32 -75.666 32 -126.999c0 -67.333 -21.5 -130.833 -64.5 -190.5s-91.833 -89.5 -146.5 -89.5zM135 2.99902
c30.667 0 59.667 16.6689 87 50.002s48.666 74.666 63.999 123.999c13.333 43.333 20 86.666 20 129.999c0 80 -23 120 -69 120c-29.333 0 -57.166 -19 -83.499 -57s-47.833 -83 -64.5 -135c-12.667 -42 -19 -81.667 -19 -119c0 -34 5.5 -61.333 16.5 -82
s27.167 -31 48.5 -31zM223 495.001l148 184h69l-208 -184h-9z" />
    <glyph glyph-name="ocircumflex" unicode="&#xf4;" horiz-adv-x="377" 
d="M141 -13c-40 0 -69.333 16.332 -88 48.999s-28 72 -28 118c0 66.667 21.333 131.667 64 195s90 95 142 95c38 0 67.667 -16.667 89 -50s32 -75.666 32 -126.999c0 -67.333 -21.5 -130.833 -64.5 -190.5s-91.833 -89.5 -146.5 -89.5zM135 2.99902
c30.667 0 59.667 16.6689 87 50.002s48.666 74.666 63.999 123.999c13.333 43.333 20 86.666 20 129.999c0 80 -23 120 -69 120c-29.333 0 -57.166 -19 -83.499 -57s-47.833 -83 -64.5 -135c-12.667 -42 -19 -81.667 -19 -119c0 -34 5.5 -61.333 16.5 -82
s27.167 -31 48.5 -31zM120 488.001l145 177h26l79 -177h-8l-91 122h-3l-138 -122h-10z" />
    <glyph glyph-name="otilde" unicode="&#xf5;" horiz-adv-x="377" 
d="M141 -13c-40 0 -69.333 16.332 -88 48.999s-28 72 -28 118c0 66.667 21.333 131.667 64 195s90 95 142 95c38 0 67.667 -16.667 89 -50s32 -75.666 32 -126.999c0 -67.333 -21.5 -130.833 -64.5 -190.5s-91.833 -89.5 -146.5 -89.5zM135 2.99902
c30.667 0 59.667 16.6689 87 50.002s48.666 74.666 63.999 123.999c13.333 43.333 20 86.666 20 129.999c0 80 -23 120 -69 120c-29.333 0 -57.166 -19 -83.499 -57s-47.833 -83 -64.5 -135c-12.667 -42 -19 -81.667 -19 -119c0 -34 5.5 -61.333 16.5 -82
s27.167 -31 48.5 -31zM320 505.001c-16 0 -39.999 10.333 -71.999 31s-54 31 -66 31c-26 0 -45.667 -18.333 -59 -55h-12c19.333 62.667 47.333 94 84 94c16 0 40.167 -10.333 72.5 -31s54.166 -31 65.499 -31c26.667 0 46.667 18.333 60 55h12
c-10 -32.667 -21.667 -56.5 -35 -71.5s-30 -22.5 -50 -22.5z" />
    <glyph glyph-name="odieresis" unicode="&#xf6;" horiz-adv-x="377" 
d="M141 -13c-40 0 -69.333 16.332 -88 48.999s-28 72 -28 118c0 66.667 21.333 131.667 64 195s90 95 142 95c38 0 67.667 -16.667 89 -50s32 -75.666 32 -126.999c0 -67.333 -21.5 -130.833 -64.5 -190.5s-91.833 -89.5 -146.5 -89.5zM135 2.99902
c30.667 0 59.667 16.6689 87 50.002s48.666 74.666 63.999 123.999c13.333 43.333 20 86.666 20 129.999c0 80 -23 120 -69 120c-29.333 0 -57.166 -19 -83.499 -57s-47.833 -83 -64.5 -135c-12.667 -42 -19 -81.667 -19 -119c0 -34 5.5 -61.333 16.5 -82
s27.167 -31 48.5 -31zM336 513.001c-12 0 -21.668 4.33301 -29.001 13s-11 18 -11 28c0 10.667 3.5 20.667 10.5 30s16.833 14 29.5 14s22.334 -4.66699 29.001 -14s10 -19.333 10 -30c0 -10 -3.5 -19.333 -10.5 -28s-16.5 -13 -28.5 -13zM177.999 513.001
c-12 0 -21.501 4.33301 -28.501 13s-10.5 18 -10.5 28c0 10.667 3.33301 20.667 10 30s16.334 14 29.001 14s22.5 -4.66699 29.5 -14s10.5 -19.333 10.5 -30c0 -10 -3.66699 -19.333 -11 -28s-17 -13 -29 -13z" />
    <glyph glyph-name="divide" unicode="&#xf7;" 
d="M277 377c0 -13.333 -4.83301 -25 -14.5 -35s-21.5 -15 -35.5 -15s-25.667 5 -35 15s-14 21.667 -14 35c0 12.667 4.66699 23.834 14 33.501s21 14.5 35 14.5s25.833 -4.83301 35.5 -14.5s14.5 -20.834 14.5 -33.501zM428 225h-400l3 22h394zM277 98
c0 -13.333 -4.66699 -25 -14 -35s-21 -15 -35 -15s-25.833 5 -35.5 15s-14.5 21.667 -14.5 35c0 12.667 4.83301 23.667 14.5 33s21.5 14 35.5 14s25.667 -4.66699 35 -14s14 -20.333 14 -33z" />
    <glyph glyph-name="oslash" unicode="&#xf8;" horiz-adv-x="377" 
d="M328 380c16 -30 24.0029 -67.6699 24.0029 -113.003c0 -68 -21.333 -131.667 -64 -191s-91.667 -89 -147 -89c-34.667 0 -62.334 13.667 -83.001 41l-26 -35l-54 -70l-27 -35h-20c4.66699 6.66699 11.167 15.334 19.5 26.001s21.166 27.334 38.499 50.001
s31.666 41.334 42.999 56.001l17 22c-16 30 -24 67.333 -24 112c0 66.667 21.333 131.5 64 194.5s90 94.5 142 94.5c36 0 65.333 -16 88 -48l125 164h20zM73.0029 73.9971l226 295c-10.667 38.667 -31.334 58 -62.001 58c-29.333 0 -57.166 -19 -83.499 -57
s-47.833 -83 -64.5 -135c-12.667 -42 -19 -81.667 -19 -119c0 -14.667 1 -28.667 3 -42zM303.003 347.997l-224.999 -294.001c10.667 -34 29.667 -51 57 -51c30.667 0 59.667 16.5 87 49.5s48.666 74.167 63.999 123.5c13.333 44.667 20 88.334 20 131.001
c0 15.333 -1 29 -3 41z" />
    <glyph glyph-name="ugrave" unicode="&#xf9;" horiz-adv-x="458" 
d="M310 -14c-9.33301 0 -18.333 6.16797 -27 18.501s-13 24.833 -13 37.5c0 26.667 23 106.667 69 240l-7 2c-26.667 -51.333 -57.334 -103.333 -92.001 -156s-61.334 -88.667 -80.001 -108c-20.667 -22 -42.334 -33 -65.001 -33c-14.667 0 -28.667 7 -42 21
s-20 29.667 -20 47c0 15.333 16.667 68.333 50 159l70 190l-44 5l-76 -105l-9 8c20.667 40.667 41.834 72.834 63.501 96.501s39.834 35.5 54.501 35.5c10 0 22.167 -4.33301 36.5 -13s21.5 -16.334 21.5 -23.001c0 -5.33301 -3.33301 -17.333 -10 -36
s-16.5 -45.167 -29.5 -79.5s-22.833 -61.5 -29.5 -81.5c-32.667 -90.667 -49 -141 -49 -151c0 -10.667 4.33301 -19.834 13 -27.501s19 -11.5 31 -11.5c15.333 0 45.333 31.833 90 95.5s88.334 138.834 131.001 225.501l31 92l50 -5l-50 -159l-68 -242l41 -6l75 104l9 -8
c-21.333 -40.667 -43 -72.834 -65 -96.501s-42 -35.5 -60 -35.5zM287 495.001l-138 184h64l84 -184h-10z" />
    <glyph glyph-name="uacute" unicode="&#xfa;" horiz-adv-x="458" 
d="M310 -14c-9.33301 0 -18.333 6.16797 -27 18.501s-13 24.833 -13 37.5c0 26.667 23 106.667 69 240l-7 2c-26.667 -51.333 -57.334 -103.333 -92.001 -156s-61.334 -88.667 -80.001 -108c-20.667 -22 -42.334 -33 -65.001 -33c-14.667 0 -28.667 7 -42 21
s-20 29.667 -20 47c0 15.333 16.667 68.333 50 159l70 190l-44 5l-76 -105l-9 8c20.667 40.667 41.834 72.834 63.501 96.501s39.834 35.5 54.501 35.5c10 0 22.167 -4.33301 36.5 -13s21.5 -16.334 21.5 -23.001c0 -5.33301 -3.33301 -17.333 -10 -36
s-16.5 -45.167 -29.5 -79.5s-22.833 -61.5 -29.5 -81.5c-32.667 -90.667 -49 -141 -49 -151c0 -10.667 4.33301 -19.834 13 -27.501s19 -11.5 31 -11.5c15.333 0 45.333 31.833 90 95.5s88.334 138.834 131.001 225.501l31 92l50 -5l-50 -159l-68 -242l41 -6l75 104l9 -8
c-21.333 -40.667 -43 -72.834 -65 -96.501s-42 -35.5 -60 -35.5zM252 495.001l148 184h69l-208 -184h-9z" />
    <glyph glyph-name="ucircumflex" unicode="&#xfb;" horiz-adv-x="458" 
d="M310 -14c-9.33301 0 -18.333 6.16797 -27 18.501s-13 24.833 -13 37.5c0 26.667 23 106.667 69 240l-7 2c-26.667 -51.333 -57.334 -103.333 -92.001 -156s-61.334 -88.667 -80.001 -108c-20.667 -22 -42.334 -33 -65.001 -33c-14.667 0 -28.667 7 -42 21
s-20 29.667 -20 47c0 15.333 16.667 68.333 50 159l70 190l-44 5l-76 -105l-9 8c20.667 40.667 41.834 72.834 63.501 96.501s39.834 35.5 54.501 35.5c10 0 22.167 -4.33301 36.5 -13s21.5 -16.334 21.5 -23.001c0 -5.33301 -3.33301 -17.333 -10 -36
s-16.5 -45.167 -29.5 -79.5s-22.833 -61.5 -29.5 -81.5c-32.667 -90.667 -49 -141 -49 -151c0 -10.667 4.33301 -19.834 13 -27.501s19 -11.5 31 -11.5c15.333 0 45.333 31.833 90 95.5s88.334 138.834 131.001 225.501l31 92l50 -5l-50 -159l-68 -242l41 -6l75 104l9 -8
c-21.333 -40.667 -43 -72.834 -65 -96.501s-42 -35.5 -60 -35.5zM165 488.001l145 177h26l79 -177h-8l-91 122h-3l-138 -122h-10z" />
    <glyph glyph-name="udieresis" unicode="&#xfc;" horiz-adv-x="458" 
d="M310 -14c-9.33301 0 -18.333 6.16797 -27 18.501s-13 24.833 -13 37.5c0 26.667 23 106.667 69 240l-7 2c-26.667 -51.333 -57.334 -103.333 -92.001 -156s-61.334 -88.667 -80.001 -108c-20.667 -22 -42.334 -33 -65.001 -33c-14.667 0 -28.667 7 -42 21
s-20 29.667 -20 47c0 15.333 16.667 68.333 50 159l70 190l-44 5l-76 -105l-9 8c20.667 40.667 41.834 72.834 63.501 96.501s39.834 35.5 54.501 35.5c10 0 22.167 -4.33301 36.5 -13s21.5 -16.334 21.5 -23.001c0 -5.33301 -3.33301 -17.333 -10 -36
s-16.5 -45.167 -29.5 -79.5s-22.833 -61.5 -29.5 -81.5c-32.667 -90.667 -49 -141 -49 -151c0 -10.667 4.33301 -19.834 13 -27.501s19 -11.5 31 -11.5c15.333 0 45.333 31.833 90 95.5s88.334 138.834 131.001 225.501l31 92l50 -5l-50 -159l-68 -242l41 -6l75 104l9 -8
c-21.333 -40.667 -43 -72.834 -65 -96.501s-42 -35.5 -60 -35.5zM223 513.001c-12 0 -21.501 4.33301 -28.501 13s-10.5 18 -10.5 28c0 10.667 3.33301 20.667 10 30s16.334 14 29.001 14s22.5 -4.66699 29.5 -14s10.5 -19.333 10.5 -30c0 -10 -3.66699 -19.333 -11 -28
s-17 -13 -29 -13zM380.999 513.001c-12 0 -21.668 4.33301 -29.001 13s-11 18 -11 28c0 10.667 3.5 20.667 10.5 30s16.833 14 29.5 14s22.334 -4.66699 29.001 -14s10 -19.333 10 -30c0 -10 -3.5 -19.333 -10.5 -28s-16.5 -13 -28.5 -13z" />
    <glyph glyph-name="yacute" unicode="&#xfd;" horiz-adv-x="406" 
d="M-20 -204c-24 0 -43.3369 4.83398 -58.0039 14.501s-22 22.834 -22 39.501c0.666992 11.333 4.66699 20.833 12 28.5s16.333 11.5 27 11.5c14.667 0 24.834 -7 30.501 -21s3.83398 -29.333 -5.49902 -46c22.667 -4.66699 37 -7.66699 43 -9
c26.667 3.33301 61.834 24.833 105.501 64.5s77.834 77.5 102.501 113.5c-10 110 -24.333 206.833 -43 290.5s-37.334 125.5 -56.001 125.5l-23 2l-67 -107l-10 8c22 46 41.167 80 57.5 102s33.5 33 51.5 33c24 0 43.667 -11.833 59 -35.5s28.333 -64 39 -121
s20 -136.5 28 -238.5v2c1.33301 1.33301 2.33301 0.666016 3 -2.00098c27.333 56 52 117.833 74 185.5s32.333 117.5 31 149.5c-15.333 -9.33301 -29.666 -10.333 -42.999 -3s-20 17.333 -20 30c0 10 3.66699 18.667 11 26s16.333 11 27 11
c14.667 0 26.167 -5.83301 34.5 -17.5s12.5 -26.834 12.5 -45.501c0 -63.333 -19 -139 -57 -227s-83.667 -161.667 -137 -221c-78 -95.333 -147 -143 -207 -143zM212.996 495.001l148 184h69l-208 -184h-9z" />
    <glyph glyph-name="thorn" unicode="&#xfe;" horiz-adv-x="410" 
d="M-128 -251l2.99805 14.001l37 2c20.667 1.33301 31.667 5.33301 33 12l234 841c2.66699 13.333 0.333984 20 -6.99902 20l-81 5l2 11l151 19l-30 -116l-118 -379c-1.33301 -4 -1.16602 -6.33301 0.500977 -7s3.5 0.666016 5.5 3.99902c80.667 176.667 148 266 202 268
c26 0 46.667 -11 62 -33s23 -49.333 23 -82c0 -50.667 -9.83301 -102 -29.5 -154s-48 -96.333 -85 -133s-76.833 -55 -119.5 -55c-35.333 0 -63.333 21.667 -84 65h-2l-76 -275c-0.666992 -2 0 -3.83301 2 -5.5s6.16699 -3 12.5 -4s14.833 -1.5 25.5 -1.5l49 -2l1 -14h-211z
M158.998 0.000976562c22 0 44.667 11.6699 68 35.0029c31.333 31.333 57.333 73.666 78 126.999s31 104 31 152c0 57.333 -18 86.666 -54 87.999c-22 0 -48.833 -23.167 -80.5 -69.5s-64.167 -106.5 -97.5 -180.5c-14.667 -36 -22 -61.667 -22 -77
c4 -16.667 13.333 -33.334 28 -50.001s31 -25 49 -25z" />
    <glyph glyph-name="ydieresis" unicode="&#xff;" horiz-adv-x="406" 
d="M-20 -204c-24 0 -43.3369 4.83398 -58.0039 14.501s-22 22.834 -22 39.501c0.666992 11.333 4.66699 20.833 12 28.5s16.333 11.5 27 11.5c14.667 0 24.834 -7 30.501 -21s3.83398 -29.333 -5.49902 -46c22.667 -4.66699 37 -7.66699 43 -9
c26.667 3.33301 61.834 24.833 105.501 64.5s77.834 77.5 102.501 113.5c-10 110 -24.333 206.833 -43 290.5s-37.334 125.5 -56.001 125.5l-23 2l-67 -107l-10 8c22 46 41.167 80 57.5 102s33.5 33 51.5 33c24 0 43.667 -11.833 59 -35.5s28.333 -64 39 -121
s20 -136.5 28 -238.5v2c1.33301 1.33301 2.33301 0.666016 3 -2.00098c27.333 56 52 117.833 74 185.5s32.333 117.5 31 149.5c-15.333 -9.33301 -29.666 -10.333 -42.999 -3s-20 17.333 -20 30c0 10 3.66699 18.667 11 26s16.333 11 27 11
c14.667 0 26.167 -5.83301 34.5 -17.5s12.5 -26.834 12.5 -45.501c0 -63.333 -19 -139 -57 -227s-83.667 -161.667 -137 -221c-78 -95.333 -147 -143 -207 -143zM324.996 513.001c-12 0 -21.668 4.33301 -29.001 13s-11 18 -11 28c0 10.667 3.5 20.667 10.5 30
s16.833 14 29.5 14s22.334 -4.66699 29.001 -14s10 -19.333 10 -30c0 -10 -3.5 -19.333 -10.5 -28s-16.5 -13 -28.5 -13zM166.995 513.001c-12 0 -21.501 4.33301 -28.501 13s-10.5 18 -10.5 28c0 10.667 3.33301 20.667 10 30s16.334 14 29.001 14s22.5 -4.66699 29.5 -14
s10.5 -19.333 10.5 -30c0 -10 -3.66699 -19.333 -11 -28s-17 -13 -29 -13z" />
    <glyph glyph-name="Amacron" unicode="&#x100;" horiz-adv-x="588" 
d="M381 260l-200.999 0.000976562l-85 -167c-18.667 -31.333 -27 -51 -25 -59s18 -13.333 48 -16l37 -4l2 -14h-206l3 14l32 3c22.667 2.66699 39.167 9.66699 49.5 21s32.166 46 65.499 104l225 436l-3 23c25.333 12 42.333 23 51 33h8l85 -566
c3.33301 -20.667 7.5 -34.167 12.5 -40.5s15.5 -9.83301 31.5 -10.5l39 -3l2 -14h-226l3 14l42 2c29.333 1.33301 43 9.66602 41 24.999zM190.001 279.001h188l-40 282h-3zM242.001 707.001l8 28h244l-7 -28h-245z" />
    <glyph glyph-name="amacron" unicode="&#x101;" horiz-adv-x="426" 
d="M276 -14c-10 0 -19.167 6.16504 -27.5 18.498s-12.5 24.833 -12.5 37.5c0 18 15.667 70.333 47 157h-5c-27.333 -46 -49 -81.167 -65 -105.5s-35.5 -48.166 -58.5 -71.499s-43.167 -35 -60.5 -35c-23.333 0 -42.5 10 -57.5 30s-22.5 45 -22.5 75
c0 48 15.333 101.333 46 160s64.667 106.334 102 143.001c30 30 59.333 45 88 45c20 0 36.667 -8.16699 50 -24.5s21 -38.166 23 -65.499h3l27 94l47 -2l-67 -212l-58 -202l42 -6l75 104l9 -8c-21.333 -40.667 -43 -72.834 -65 -96.501s-42 -35.5 -60 -35.5zM116 27.998
c20.667 0 45.668 19.998 75.001 59.998s63.333 95.667 102 167c13.333 26.667 20 49.334 20 68.001c-4.66699 19.333 -15.334 38.333 -32.001 57s-35.667 28 -57 28c-18 0 -36 -9 -54 -27c-26 -26 -49.833 -67.167 -71.5 -123.5s-32.5 -105.166 -32.5 -146.499
c0 -26.667 4.83301 -47.167 14.5 -61.5s21.5 -21.5 35.5 -21.5zM165.001 525.996l8 28h244l-7 -28h-245z" />
    <glyph glyph-name="Abreve" unicode="&#x102;" horiz-adv-x="588" 
d="M381 260l-200.999 0.000976562l-85 -167c-18.667 -31.333 -27 -51 -25 -59s18 -13.333 48 -16l37 -4l2 -14h-206l3 14l32 3c22.667 2.66699 39.167 9.66699 49.5 21s32.166 46 65.499 104l225 436l-3 23c25.333 12 42.333 23 51 33h8l85 -566
c3.33301 -20.667 7.5 -34.167 12.5 -40.5s15.5 -9.83301 31.5 -10.5l39 -3l2 -14h-226l3 14l42 2c29.333 1.33301 43 9.66602 41 24.999zM190.001 279.001h188l-40 282h-3zM357.001 672.001c-18.667 0 -34.166 4.33203 -46.499 12.999s-21.5 21.667 -27.5 39s-10 33 -12 47
s-3.66699 32 -5 54h10c7.33301 -38.667 17.666 -67.5 30.999 -86.5s32 -28.5 56 -28.5c45.333 0 89 38.333 131 115h12c-8.66699 -19.333 -15.167 -33.666 -19.5 -42.999s-11.5 -22.5 -21.5 -39.5s-19.5 -29.5 -28.5 -37.5s-20.5 -15.5 -34.5 -22.5s-29 -10.5 -45 -10.5z
" />
    <glyph glyph-name="abreve" unicode="&#x103;" horiz-adv-x="426" 
d="M276 -14c-10 0 -19.167 6.16504 -27.5 18.498s-12.5 24.833 -12.5 37.5c0 18 15.667 70.333 47 157h-5c-27.333 -46 -49 -81.167 -65 -105.5s-35.5 -48.166 -58.5 -71.499s-43.167 -35 -60.5 -35c-23.333 0 -42.5 10 -57.5 30s-22.5 45 -22.5 75
c0 48 15.333 101.333 46 160s64.667 106.334 102 143.001c30 30 59.333 45 88 45c20 0 36.667 -8.16699 50 -24.5s21 -38.166 23 -65.499h3l27 94l47 -2l-67 -212l-58 -202l42 -6l75 104l9 -8c-21.333 -40.667 -43 -72.834 -65 -96.501s-42 -35.5 -60 -35.5zM116 27.998
c20.667 0 45.668 19.998 75.001 59.998s63.333 95.667 102 167c13.333 26.667 20 49.334 20 68.001c-4.66699 19.333 -15.334 38.333 -32.001 57s-35.667 28 -57 28c-18 0 -36 -9 -54 -27c-26 -26 -49.833 -67.167 -71.5 -123.5s-32.5 -105.166 -32.5 -146.499
c0 -26.667 4.83301 -47.167 14.5 -61.5s21.5 -21.5 35.5 -21.5zM286.001 490.996c-18.667 0 -34.166 4.33203 -46.499 12.999s-21.5 21.667 -27.5 39s-10 33 -12 47s-3.66699 32 -5 54h10c7.33301 -38.667 17.666 -67.5 30.999 -86.5s32 -28.5 56 -28.5
c45.333 0 89 38.333 131 115h12c-8.66699 -19.333 -15.167 -33.666 -19.5 -42.999s-11.5 -22.5 -21.5 -39.5s-19.5 -29.5 -28.5 -37.5s-20.5 -15.5 -34.5 -22.5s-29 -10.5 -45 -10.5z" />
    <glyph glyph-name="Aogonek" unicode="&#x104;" horiz-adv-x="588" 
d="M453 -209c-20 0.666992 -36.332 7.83301 -48.999 21.5s-18.334 31.167 -17.001 52.5c2.66699 49.333 46.667 94.333 132 135h-193l3 14l42 2c12 0.666992 22.167 3 30.5 7s11.833 10 10.5 18l-31 220h-200l-86 -168c-18.667 -31.333 -27 -51 -25 -59s18 -13.333 48 -16
l37 -4l2 -14h-206l3 14l32 3c22.667 2.66699 39.167 9.66699 49.5 21s32.166 46 65.499 104l225 436l-3 23c28.667 12 46.667 23 54 33h5l85 -566c3.33301 -20.667 7.5 -34.167 12.5 -40.5s15.5 -9.83301 31.5 -10.5l40 -3l1 -14c-32.667 -10.667 -60.667 -27.667 -84 -51
s-35.666 -47.333 -36.999 -72c-1.33301 -16 2 -29.5 10 -40.5s19.333 -16.833 34 -17.5c22.667 -0.666992 42.667 9.33301 60 30l5 -5c-28 -36 -57 -53.667 -87 -53zM190.001 278.999h189l-41 282h-3z" />
    <glyph glyph-name="aogonek" unicode="&#x105;" horiz-adv-x="426" 
d="M232 -209c-20 0.666992 -36.1699 7.83301 -48.5029 21.5s-17.833 31.5 -16.5 53.5c2 42 36.333 82.333 103 121c-9.33301 0.666992 -17.333 7 -24 19s-10 24.333 -10 37c0 17.333 15.667 69.333 47 156h-5c-27.333 -46 -49 -81.167 -65 -105.5
s-35.5 -48.166 -58.5 -71.499s-43.167 -35 -60.5 -35c-23.333 0 -42.5 10 -57.5 30s-22.5 45 -22.5 75c0 48 15.333 101.167 46 159.5s64.667 106.166 102 143.499c30 30 59.333 45 88 45c20 0 36.667 -8.16699 50 -24.5s21 -38.166 23 -65.499h3l27 94l47 -2l-67 -212
l-58 -202l42 -6l75 104l9 -7c-33.333 -66.667 -65.666 -108.334 -96.999 -125.001c-60.667 -32 -91.667 -70.667 -93 -116c-1.33301 -16.667 1.83398 -30.5 9.50098 -41.5s18.834 -16.833 33.501 -17.5c22.667 -0.666992 42.667 9.33301 60 30l5 -5
c-28 -36 -57 -53.667 -87 -53zM312.997 322.999c-4.66699 19.333 -15.333 38.3311 -32 56.998s-35.667 28 -57 28c-18 0 -36 -9 -54 -27c-26 -26 -49.833 -67.167 -71.5 -123.5s-32.5 -105.166 -32.5 -146.499c0 -26.667 4.83301 -47.167 14.5 -61.5s21.5 -21.5 35.5 -21.5
c20.667 0 45.667 20 75 60s63.333 95.667 102 167c13.333 26.667 20 49.334 20 68.001z" />
    <glyph glyph-name="Cacute" unicode="&#x106;" horiz-adv-x="641" 
d="M367 676l148 184h69l-208 -184h-9zM344 -15c-89.333 0 -160.831 25.5 -214.498 76.5s-80.5 116.833 -80.5 197.5c0 103.333 34.667 192.5 104 267.5s155.666 112.5 258.999 112.5c69.333 0 128.666 -16.333 177.999 -49l51 16l-23 -176h-13l-25 141
c-16.667 14 -40.167 26.167 -70.5 36.5s-61.166 15.5 -92.499 15.5c-88.667 0 -161.5 -37.833 -218.5 -113.5s-85.5 -163.5 -85.5 -263.5c0 -74 20 -133.333 60 -178s97 -67 171 -67c39.333 0 74.166 8 104.499 24s60.5 40 90.5 72l39 66h13l-61 -155l-34 2
c-55.333 -16.667 -106 -25 -152 -25z" />
    <glyph glyph-name="cacute" unicode="&#x107;" horiz-adv-x="330" 
d="M190 495l148 184h69l-208 -184h-9zM135 -13c-35.333 0 -63.4971 13.834 -84.4971 41.501s-31.5 61.5 -31.5 101.5c0 77.333 25 149 75 215s102.667 99 158 99c25.333 0 47.166 -6.16699 65.499 -18.5s27.5 -28.5 27.5 -48.5c0 -12.667 -3.5 -22.834 -10.5 -30.501
s-15.833 -11.5 -26.5 -11.5c-8.66699 0 -16.334 3 -23.001 9s-10 13.667 -10 23c0 14 9 25.333 27 34c-14.667 18.667 -35.334 28 -62.001 28c-24.667 0 -49 -12 -73 -36c-25.333 -26 -47.666 -62.833 -66.999 -110.5s-29 -93.167 -29 -136.5c0 -38 8 -68 24 -90
s36.333 -33 61 -33c43.333 0 86.666 33.333 129.999 100l10 -8c-54 -85.333 -107.667 -128 -161 -128z" />
    <glyph glyph-name="Ccircumflex" unicode="&#x108;" horiz-adv-x="641" 
d="M282 669l145 177h26l79 -177h-8l-91 122h-3l-138 -122h-10zM344 -15c-89.333 0 -160.831 25.5 -214.498 76.5s-80.5 116.833 -80.5 197.5c0 103.333 34.667 192.5 104 267.5s155.666 112.5 258.999 112.5c69.333 0 128.666 -16.333 177.999 -49l51 16l-23 -176h-13
l-25 141c-16.667 14 -40.167 26.167 -70.5 36.5s-61.166 15.5 -92.499 15.5c-88.667 0 -161.5 -37.833 -218.5 -113.5s-85.5 -163.5 -85.5 -263.5c0 -74 20 -133.333 60 -178s97 -67 171 -67c39.333 0 74.166 8 104.499 24s60.5 40 90.5 72l39 66h13l-61 -155l-34 2
c-55.333 -16.667 -106 -25 -152 -25z" />
    <glyph glyph-name="ccircumflex" unicode="&#x109;" horiz-adv-x="330" 
d="M110 488l145 177h26l79 -177h-8l-91 122h-3l-138 -122h-10zM135 -13c-35.333 0 -63.4971 13.834 -84.4971 41.501s-31.5 61.5 -31.5 101.5c0 77.333 25 149 75 215s102.667 99 158 99c25.333 0 47.166 -6.16699 65.499 -18.5s27.5 -28.5 27.5 -48.5
c0 -12.667 -3.5 -22.834 -10.5 -30.501s-15.833 -11.5 -26.5 -11.5c-8.66699 0 -16.334 3 -23.001 9s-10 13.667 -10 23c0 14 9 25.333 27 34c-14.667 18.667 -35.334 28 -62.001 28c-24.667 0 -49 -12 -73 -36c-25.333 -26 -47.666 -62.833 -66.999 -110.5
s-29 -93.167 -29 -136.5c0 -38 8 -68 24 -90s36.333 -33 61 -33c43.333 0 86.666 33.333 129.999 100l10 -8c-54 -85.333 -107.667 -128 -161 -128z" />
    <glyph glyph-name="Cdotaccent" unicode="&#x10a;" horiz-adv-x="641" 
d="M344 -15c-89.333 0 -160.831 25.5 -214.498 76.5s-80.5 116.833 -80.5 197.5c0 103.333 34.667 192.5 104 267.5s155.666 112.5 258.999 112.5c69.333 0 128.666 -16.333 177.999 -49l51 16l-23 -176h-13l-25 141c-16.667 14 -40.167 26.167 -70.5 36.5
s-61.166 15.5 -92.499 15.5c-88.667 0 -161.5 -37.833 -218.5 -113.5s-85.5 -163.5 -85.5 -263.5c0 -74 20 -133.333 60 -178s97 -67 171 -67c39.333 0 74.166 8 104.499 24s60.5 40 90.5 72l39 66h13l-61 -155l-34 2c-55.333 -16.667 -106 -25 -152 -25zM434.002 710
c-12.667 0 -22.667 4.5 -30 13.5s-11 18.5 -11 28.5c0 11.333 3.66699 21.666 11 30.999s17.333 14 30 14s22.834 -4.66699 30.501 -14s11.5 -19.666 11.5 -30.999c0 -10 -3.83301 -19.5 -11.5 -28.5s-17.834 -13.5 -30.501 -13.5z" />
    <glyph glyph-name="cdotaccent" unicode="&#x10b;" horiz-adv-x="330" 
d="M135 -13c-35.333 0 -63.4971 13.834 -84.4971 41.501s-31.5 61.5 -31.5 101.5c0 77.333 25 149 75 215s102.667 99 158 99c25.333 0 47.166 -6.16699 65.499 -18.5s27.5 -28.5 27.5 -48.5c0 -12.667 -3.5 -22.834 -10.5 -30.501s-15.833 -11.5 -26.5 -11.5
c-8.66699 0 -16.334 3 -23.001 9s-10 13.667 -10 23c0 14 9 25.333 27 34c-14.667 18.667 -35.334 28 -62.001 28c-24.667 0 -49 -12 -73 -36c-25.333 -26 -47.666 -62.833 -66.999 -110.5s-29 -93.167 -29 -136.5c0 -38 8 -68 24 -90s36.333 -33 61 -33
c43.333 0 86.666 33.333 129.999 100l10 -8c-54 -85.333 -107.667 -128 -161 -128zM250.003 529.001c-12.667 0 -22.667 4.5 -30 13.5s-11 18.5 -11 28.5c0 11.333 3.66699 21.666 11 30.999s17.333 14 30 14s22.834 -4.66699 30.501 -14s11.5 -19.666 11.5 -30.999
c0 -10 -3.83301 -19.5 -11.5 -28.5s-17.834 -13.5 -30.501 -13.5z" />
    <glyph glyph-name="Ccaron" unicode="&#x10c;" horiz-adv-x="641" 
d="M400 669l-79 177h9l91 -122h3l138 122h10l-145 -177h-27zM344 -15c-89.333 0 -160.831 25.5 -214.498 76.5s-80.5 116.833 -80.5 197.5c0 103.333 34.667 192.5 104 267.5s155.666 112.5 258.999 112.5c69.333 0 128.666 -16.333 177.999 -49l51 16l-23 -176h-13l-25 141
c-16.667 14 -40.167 26.167 -70.5 36.5s-61.166 15.5 -92.499 15.5c-88.667 0 -161.5 -37.833 -218.5 -113.5s-85.5 -163.5 -85.5 -263.5c0 -74 20 -133.333 60 -178s97 -67 171 -67c39.333 0 74.166 8 104.499 24s60.5 40 90.5 72l39 66h13l-61 -155l-34 2
c-55.333 -16.667 -106 -25 -152 -25z" />
    <glyph glyph-name="ccaron" unicode="&#x10d;" horiz-adv-x="330" 
d="M218 488l-79 177h9l91 -122h3l138 122h10l-145 -177h-27zM135 -13c-35.333 0 -63.4971 13.834 -84.4971 41.501s-31.5 61.5 -31.5 101.5c0 77.333 25 149 75 215s102.667 99 158 99c25.333 0 47.166 -6.16699 65.499 -18.5s27.5 -28.5 27.5 -48.5
c0 -12.667 -3.5 -22.834 -10.5 -30.501s-15.833 -11.5 -26.5 -11.5c-8.66699 0 -16.334 3 -23.001 9s-10 13.667 -10 23c0 14 9 25.333 27 34c-14.667 18.667 -35.334 28 -62.001 28c-24.667 0 -49 -12 -73 -36c-25.333 -26 -47.666 -62.833 -66.999 -110.5
s-29 -93.167 -29 -136.5c0 -38 8 -68 24 -90s36.333 -33 61 -33c43.333 0 86.666 33.333 129.999 100l10 -8c-54 -85.333 -107.667 -128 -161 -128z" />
    <glyph glyph-name="Dcaron" unicode="&#x10e;" horiz-adv-x="634" 
d="M-9 0l2.99902 14l50 5c24.667 2.66699 37.334 7 38.001 13l106 563c0.666992 3.33301 -1.16602 5.66602 -5.49902 6.99902s-15.833 3 -34.5 5l-40 4l-1 14h234c85.333 0 153.666 -25.5 204.999 -76.5s77 -116.833 77 -197.5c0 -105.333 -36 -190.166 -108 -254.499
s-170.333 -96.5 -295 -96.5h-229zM243.999 17c97.333 0.666992 174.167 33.833 230.5 99.5s84.5 149.167 84.5 250.5c0 76.667 -19.333 136.167 -58 178.5s-96.667 63.5 -174 63.5h-76l-110 -583zM319 668.999l-79 177h9l91 -122h3l138 122h10l-145 -177h-27z" />
    <glyph glyph-name="dcaron" unicode="&#x10f;" horiz-adv-x="581" 
d="M491 439l-4.99707 7c63.333 34 95.666 72 96.999 114c0.666992 16.667 -5.5 29.5 -18.5 38.5s-27.167 12.5 -42.5 10.5c-2 10 1.66699 20.333 11 31s21.666 16 36.999 16c18 0 32.667 -6.33301 44 -19s16.666 -28.667 15.999 -48c-2 -30.667 -16.833 -59.667 -44.5 -87
s-59.167 -48.333 -94.5 -63zM276.003 -14c-10 0 -19.167 6.16602 -27.5 18.499s-12.5 24.833 -12.5 37.5c0 18 15.667 70.333 47 157h-5c-27.333 -46 -49 -81.167 -65 -105.5s-35.5 -48.166 -58.5 -71.499s-43.167 -35 -60.5 -35c-23.333 0 -42.5 10 -57.5 30
s-22.5 45 -22.5 75c0 48 15.5 101.833 46.5 161.5s64.833 107.834 101.5 144.501c30 30 59.333 45 88 45c20 0 36.167 -8.66699 48.5 -26s19.5 -41 21.5 -71h4l72 273c4.66699 13.333 2.66699 20 -6 20l-95 4l2 12l166 18l-107 -370l-81 -275l42 -6l75 103l9 -7
c-21.333 -40.667 -43 -72.834 -65 -96.501s-42 -35.5 -60 -35.5zM116.003 27.999c35.333 0 91.668 70.333 169.001 211c18.667 37.333 28 65.333 28 84c-4.66699 20 -15.334 39.667 -32.001 59s-35.667 29 -57 29c-16.667 0 -34.667 -9 -54 -27
c-25.333 -26 -49 -67.5 -71 -124.5s-33 -106.5 -33 -148.5c0 -26.667 4.83301 -47.167 14.5 -61.5s21.5 -21.5 35.5 -21.5z" />
    <glyph glyph-name="Dcroat" unicode="&#x110;" horiz-adv-x="655" 
d="M134 307h-83.001l5 19h81l51 269c0.666992 3.33301 -1.16602 5.66602 -5.49902 6.99902s-15.833 3 -34.5 5l-40 4l-1 14h234c85.333 0 153.666 -25.5 204.999 -76.5s77 -116.833 77 -197.5c0 -105.333 -36 -190.166 -108 -254.499s-170.333 -96.5 -295 -96.5h-229l3 14
l50 5c24.667 2.66699 37.334 7 38.001 13zM196.999 326l149.001 -0.000976562v-19h-153l-52 -278l103 -12c97.333 0.666992 174.166 33.834 230.499 99.501s84.5 149.167 84.5 250.5c0 76.667 -19.333 136.167 -58 178.5s-96.667 63.5 -174 63.5h-76z" />
    <glyph glyph-name="dcroat" unicode="&#x111;" horiz-adv-x="426" 
d="M276 -14c-10 0 -19.167 6.16602 -27.5 18.499s-12.5 24.833 -12.5 37.5c0 18 15.667 70.333 47 157h-5c-27.333 -46 -49 -81.167 -65 -105.5s-35.5 -48.166 -58.5 -71.499s-43.167 -35 -60.5 -35c-23.333 0 -42.5 10 -57.5 30s-22.5 45 -22.5 75
c0 48 15.5 101.833 46.5 161.5s64.833 107.834 101.5 144.501c30 30 59.333 45 88 45c20 0 36.167 -8.66699 48.5 -26s19.5 -41 21.5 -71h4l47 180h-88l8 25h87l18 68c4.66699 13.333 2.66699 20 -6 20l-95 4l2 12l166 18l-36 -122h72l-7 -25h-72l-64 -223l-81 -275l42 -6
l75 103l9 -7c-21.333 -40.667 -43 -72.834 -65 -96.501s-42 -35.5 -60 -35.5zM116 27.999c35.333 0 91.668 70.333 169.001 211c18.667 37.333 28 65.333 28 84c-4.66699 20 -15.334 39.667 -32.001 59s-35.667 29 -57 29c-16.667 0 -34.667 -9 -54 -27
c-25.333 -26 -49 -67.5 -71 -124.5s-33 -106.5 -33 -148.5c0 -26.667 4.83301 -47.167 14.5 -61.5s21.5 -21.5 35.5 -21.5z" />
    <glyph glyph-name="Emacron" unicode="&#x112;" horiz-adv-x="556" 
d="M-11 0l2.99902 13.999l52 5c24 2 36.667 6.33301 38 13l106 563c0.666992 3.33301 -1.16602 5.66602 -5.49902 6.99902s-15.833 3 -34.5 5l-43 4l-1 14h426l5 -163h-12l-5 44c-12.667 41.333 -28.5 68.833 -47.5 82.5s-54.833 20.5 -107.5 20.5h-112l-52 -272h88
c27.333 0 47.5 2.16699 60.5 6.5s21.667 9.33301 26 15s10.833 17.834 19.5 36.501l13 28l11 -1l-41 -191l-11 1l2 28c2 27.333 -1.16699 43.833 -9.5 49.5s-34.5 8.83398 -78.5 9.50098l-82 2l-58 -302l125 -3c44.667 0 81.667 5.5 111 16.5s50.833 23.5 64.5 37.5
s28.5 34 44.5 60l18 42l15 -1l-70 -171h-458zM228.999 706.999l8 28h244l-7 -28h-245z" />
    <glyph glyph-name="emacron" unicode="&#x113;" horiz-adv-x="328" 
d="M135 -13c-35.333 0 -63.5 13.832 -84.5 41.499s-31.5 61.5 -31.5 101.5c0 78 24 149.833 72 215.5s99.667 98.5 155 98.5c26.667 0 48.834 -6.66699 66.501 -20s26.5 -29.333 26.5 -48c0 -30.667 -18.333 -56.5 -55 -77.5s-104 -46.5 -202 -76.5
c-7.33301 -27.333 -11 -52.666 -11 -75.999c0 -38 8 -68 24 -90s36.333 -33 61 -33c43.333 0 86.666 33.333 129.999 100l10 -8c-54 -85.333 -107.667 -128 -161 -128zM88 237.999c78 22 130.667 42.668 158 62.001s41 44.666 41 75.999
c0 14.667 -4.83301 27.167 -14.5 37.5s-22.167 15.5 -37.5 15.5c-20 0 -43 -12.333 -69 -37c-34.667 -34 -61.334 -85 -80.001 -153c0.666992 0 1.33398 -0.333008 2.00098 -1zM103 526l8 28h244l-7 -28h-245z" />
    <glyph glyph-name="Ebreve" unicode="&#x114;" horiz-adv-x="556" 
d="M-11 0l2.99902 13.999l52 5c24 2 36.667 6.33301 38 13l106 563c0.666992 3.33301 -1.16602 5.66602 -5.49902 6.99902s-15.833 3 -34.5 5l-43 4l-1 14h426l5 -163h-12l-5 44c-12.667 41.333 -28.5 68.833 -47.5 82.5s-54.833 20.5 -107.5 20.5h-112l-52 -272h88
c27.333 0 47.5 2.16699 60.5 6.5s21.667 9.33301 26 15s10.833 17.834 19.5 36.501l13 28l11 -1l-41 -191l-11 1l2 28c2 27.333 -1.16699 43.833 -9.5 49.5s-34.5 8.83398 -78.5 9.50098l-82 2l-58 -302l125 -3c44.667 0 81.667 5.5 111 16.5s50.833 23.5 64.5 37.5
s28.5 34 44.5 60l18 42l15 -1l-70 -171h-458zM346.999 671.999c-18.667 0 -34.166 4.33203 -46.499 12.999s-21.5 21.667 -27.5 39s-10 33 -12 47s-3.66699 32 -5 54h10c7.33301 -38.667 17.666 -67.5 30.999 -86.5s32 -28.5 56 -28.5c45.333 0 89 38.333 131 115h12
c-8.66699 -19.333 -15.167 -33.666 -19.5 -42.999s-11.5 -22.5 -21.5 -39.5s-19.5 -29.5 -28.5 -37.5s-20.5 -15.5 -34.5 -22.5s-29 -10.5 -45 -10.5z" />
    <glyph glyph-name="ebreve" unicode="&#x115;" horiz-adv-x="328" 
d="M135 -13c-35.333 0 -63.5 13.832 -84.5 41.499s-31.5 61.5 -31.5 101.5c0 78 24 149.833 72 215.5s99.667 98.5 155 98.5c26.667 0 48.834 -6.66699 66.501 -20s26.5 -29.333 26.5 -48c0 -30.667 -18.333 -56.5 -55 -77.5s-104 -46.5 -202 -76.5
c-7.33301 -27.333 -11 -52.666 -11 -75.999c0 -38 8 -68 24 -90s36.333 -33 61 -33c43.333 0 86.666 33.333 129.999 100l10 -8c-54 -85.333 -107.667 -128 -161 -128zM88 237.999c78 22 130.667 42.668 158 62.001s41 44.666 41 75.999
c0 14.667 -4.83301 27.167 -14.5 37.5s-22.167 15.5 -37.5 15.5c-20 0 -43 -12.333 -69 -37c-34.667 -34 -61.334 -85 -80.001 -153c0.666992 0 1.33398 -0.333008 2.00098 -1zM239 491c-18.667 0 -34.166 4.33203 -46.499 12.999s-21.5 21.667 -27.5 39s-10 33 -12 47
s-3.66699 32 -5 54h10c7.33301 -38.667 17.666 -67.5 30.999 -86.5s32 -28.5 56 -28.5c45.333 0 89 38.333 131 115h12c-8.66699 -19.333 -15.167 -33.666 -19.5 -42.999s-11.5 -22.5 -21.5 -39.5s-19.5 -29.5 -28.5 -37.5s-20.5 -15.5 -34.5 -22.5s-29 -10.5 -45 -10.5z
" />
    <glyph glyph-name="Edotaccent" unicode="&#x116;" horiz-adv-x="556" 
d="M-11 0l2.99902 13.999l52 5c24 2 36.667 6.33301 38 13l106 563c0.666992 3.33301 -1.16602 5.66602 -5.49902 6.99902s-15.833 3 -34.5 5l-43 4l-1 14h426l5 -163h-12l-5 44c-12.667 41.333 -28.5 68.833 -47.5 82.5s-54.833 20.5 -107.5 20.5h-112l-52 -272h88
c27.333 0 47.5 2.16699 60.5 6.5s21.667 9.33301 26 15s10.833 17.834 19.5 36.501l13 28l11 -1l-41 -191l-11 1l2 28c2 27.333 -1.16699 43.833 -9.5 49.5s-34.5 8.83398 -78.5 9.50098l-82 2l-58 -302l125 -3c44.667 0 81.667 5.5 111 16.5s50.833 23.5 64.5 37.5
s28.5 34 44.5 60l18 42l15 -1l-70 -171h-458zM349.999 709.999c-12.667 0 -22.667 4.5 -30 13.5s-11 18.5 -11 28.5c0 11.333 3.66699 21.666 11 30.999s17.333 14 30 14s22.834 -4.66699 30.501 -14s11.5 -19.666 11.5 -30.999c0 -10 -3.83301 -19.5 -11.5 -28.5
s-17.834 -13.5 -30.501 -13.5z" />
    <glyph glyph-name="edotaccent" unicode="&#x117;" horiz-adv-x="328" 
d="M135 -13c-35.333 0 -63.5 13.832 -84.5 41.499s-31.5 61.5 -31.5 101.5c0 78 24 149.833 72 215.5s99.667 98.5 155 98.5c26.667 0 48.834 -6.66699 66.501 -20s26.5 -29.333 26.5 -48c0 -30.667 -18.333 -56.5 -55 -77.5s-104 -46.5 -202 -76.5
c-7.33301 -27.333 -11 -52.666 -11 -75.999c0 -38 8 -68 24 -90s36.333 -33 61 -33c43.333 0 86.666 33.333 129.999 100l10 -8c-54 -85.333 -107.667 -128 -161 -128zM88 237.999c78 22 130.667 42.668 158 62.001s41 44.666 41 75.999
c0 14.667 -4.83301 27.167 -14.5 37.5s-22.167 15.5 -37.5 15.5c-20 0 -43 -12.333 -69 -37c-34.667 -34 -61.334 -85 -80.001 -153c0.666992 0 1.33398 -0.333008 2.00098 -1zM257 529c-12.667 0 -22.667 4.5 -30 13.5s-11 18.5 -11 28.5
c0 11.333 3.66699 21.666 11 30.999s17.333 14 30 14s22.834 -4.66699 30.501 -14s11.5 -19.666 11.5 -30.999c0 -10 -3.83301 -19.5 -11.5 -28.5s-17.834 -13.5 -30.501 -13.5z" />
    <glyph glyph-name="Eogonek" unicode="&#x118;" horiz-adv-x="556" 
d="M331 -209c-20 0.666992 -36.168 7.83203 -48.501 21.499s-17.833 31.5 -16.5 53.5c2.66699 48 44.667 92.667 126 134h-403l3 14l52 5c24 2 36.667 6.33301 38 13l106 563c0.666992 3.33301 -1.33301 5.83301 -6 7.5s-16 3.16699 -34 4.5l-42 5l-2 13h426l5 -163h-12
l-5 44c-12.667 41.333 -28.5 68.833 -47.5 82.5s-54.833 20.5 -107.5 20.5h-112l-51 -272h87c27.333 0 47.5 2.16699 60.5 6.5s21.833 9.5 26.5 15.5s11 18 19 36l13 28l11 -1l-41 -191l-11 1l2 28c2 27.333 -1.16699 43.833 -9.5 49.5s-34.166 8.83398 -77.499 9.50098
l-83 2l-58 -302l125 -3c44.667 0 81.667 5.5 111 16.5s51 23.5 65 37.5s28.667 34 44 60l18 42l15 -1l-70 -171h-36c-65.333 -36 -99 -76.667 -101 -122c-1.33301 -16.667 2 -30.5 10 -41.5s19 -16.833 33 -17.5c22.667 -0.666992 42.667 9.33301 60 30l5 -5
c-28 -36 -57 -53.667 -87 -53z" />
    <glyph glyph-name="eogonek" unicode="&#x119;" horiz-adv-x="328" 
d="M110 -209c-20.667 0.666992 -36.6709 8.66504 -48.0039 23.998s-16.333 33.333 -15 54c2.66699 42.667 36.334 82 101.001 118c-1.33301 0 -3 -0.166992 -5 -0.5s-3.66699 -0.5 -5 -0.5c-36 0.666992 -64.833 14.5 -86.5 41.5s-32.5 61.167 -32.5 102.5
c0 78 24 149.833 72 215.5s99.667 98.5 155 98.5c26.667 0 48.834 -6.66699 66.501 -20s26.5 -29.333 26.5 -48c0 -30.667 -18.333 -56.5 -55 -77.5s-104 -46.5 -202 -76.5c-7.33301 -27.333 -11 -52.666 -11 -75.999c0 -37.333 8 -67.166 24 -89.499s36.333 -33.5 61 -33.5
c43.333 0 86.666 33.333 129.999 100l10 -8c-33.333 -56.667 -69.333 -95.334 -108 -116.001c-27.333 -14.667 -50.166 -32.667 -68.499 -54s-28.166 -43 -29.499 -65c-1.33301 -17.333 2 -31.666 10 -42.999s19 -17.333 33 -18c24 -1.33301 43.667 8.66699 59 30l6 -5
c-25.333 -35.333 -54.666 -53 -87.999 -53zM87.9961 237.998c78 22 130.667 42.668 158 62.001s41 44.666 41 75.999c0 14.667 -4.83301 27.167 -14.5 37.5s-22.167 15.5 -37.5 15.5c-20 0 -43 -12.333 -69 -37c-33.333 -32 -60 -83 -80 -153z" />
    <glyph glyph-name="Ecaron" unicode="&#x11a;" horiz-adv-x="556" 
d="M334 669l-79 177h9l91 -122h3l138 122h10l-145 -177h-27zM-11 0l2.99902 13.999l52 5c24 2 36.667 6.33301 38 13l106 563c0.666992 3.33301 -1.16602 5.66602 -5.49902 6.99902s-15.833 3 -34.5 5l-43 4l-1 14h426l5 -163h-12l-5 44
c-12.667 41.333 -28.5 68.833 -47.5 82.5s-54.833 20.5 -107.5 20.5h-112l-52 -272h88c27.333 0 47.5 2.16699 60.5 6.5s21.667 9.33301 26 15s10.833 17.834 19.5 36.501l13 28l11 -1l-41 -191l-11 1l2 28c2 27.333 -1.16699 43.833 -9.5 49.5s-34.5 8.83398 -78.5 9.50098
l-82 2l-58 -302l125 -3c44.667 0 81.667 5.5 111 16.5s50.833 23.5 64.5 37.5s28.5 34 44.5 60l18 42l15 -1l-70 -171h-458z" />
    <glyph glyph-name="ecaron" unicode="&#x11b;" horiz-adv-x="328" 
d="M228 488l-79 177h9l91 -122h3l138 122h10l-145 -177h-27zM135 -13c-35.333 0 -63.5 13.832 -84.5 41.499s-31.5 61.5 -31.5 101.5c0 78 24 149.833 72 215.5s99.667 98.5 155 98.5c26.667 0 48.834 -6.66699 66.501 -20s26.5 -29.333 26.5 -48
c0 -30.667 -18.333 -56.5 -55 -77.5s-104 -46.5 -202 -76.5c-7.33301 -27.333 -11 -52.666 -11 -75.999c0 -38 8 -68 24 -90s36.333 -33 61 -33c43.333 0 86.666 33.333 129.999 100l10 -8c-54 -85.333 -107.667 -128 -161 -128zM88 237.999
c78 22 130.667 42.668 158 62.001s41 44.666 41 75.999c0 14.667 -4.83301 27.167 -14.5 37.5s-22.167 15.5 -37.5 15.5c-20 0 -43 -12.333 -69 -37c-34.667 -34 -61.334 -85 -80.001 -153c0.666992 0 1.33398 -0.333008 2.00098 -1z" />
    <glyph glyph-name="Gcircumflex" unicode="&#x11c;" horiz-adv-x="661" 
d="M287 669l145 177h26l79 -177h-8l-91 122h-3l-138 -122h-10zM341 -15c-86.667 0 -157 26 -211 78s-81 118.333 -81 199c0 66 15 127.667 45 185s73 104 129 140s118.667 54 188 54c68 0 126.667 -16.333 176 -49l55 17l-30 -174l-12 1l-23 138
c-16.667 14 -39.834 25.833 -69.501 35.5s-60.167 14.5 -91.5 14.5c-58.667 0 -111.667 -18.167 -159 -54.5s-83.166 -82.5 -107.499 -138.5s-36.5 -114.667 -36.5 -176c0 -74 20.833 -134.667 62.5 -182s97.5 -71 167.5 -71c47.333 0 89 9.33301 125 28l40 212
c0.666992 3.33301 -1.66602 5.83301 -6.99902 7.5s-17.333 3.16699 -36 4.5l-53 4l-1 14h243l-4 -14l-48 -5c-24.667 -2.66699 -37.334 -7 -38.001 -13l-39 -201l63 4v-10c-100.667 -32 -183 -48 -247 -48z" />
    <glyph glyph-name="gcircumflex" unicode="&#x11d;" horiz-adv-x="373" 
d="M109 488l145 177h26l79 -177h-8l-91 122h-3l-138 -122h-10zM113 -236c-51.333 0 -96.5 10.998 -135.5 32.998s-58.5 48.667 -58.5 80c0 24.667 15 49 45 73s65 42 105 54v3c-44 18 -66 40.667 -66 68c0 18 9.66699 34.333 29 49s41 24.334 65 29.001l1 2
c-32 28.667 -48 66.334 -48 113.001c0 45.333 16.667 86 50 122s72 54 116 54c28.667 0 55.667 -10 81 -30l113 17l-13 -43l-110 15v-3c25.333 -30 38 -63 38 -99c0 -42 -17.5 -80.667 -52.5 -116s-72.833 -53 -113.5 -53c-18.667 0 -34.667 4.66699 -48 14
c-19.333 -4 -35.833 -11 -49.5 -21s-20.5 -20.333 -20.5 -31c0 -11.333 7 -21.833 21 -31.5s40 -20.167 78 -31.5l28 -9c100 -32 150 -72.667 150 -122c0 -36.667 -20.167 -68.5 -60.5 -95.5s-88.5 -40.5 -144.5 -40.5zM156 144.998c24 0 46.333 10.333 67 31
c38 39.333 57 96.333 57 171c0 21.333 -7.83301 40.166 -23.5 56.499s-31.834 24.5 -48.501 24.5c-15.333 0 -32.666 -8.66699 -51.999 -26c-17.333 -18 -31.666 -42.5 -42.999 -73.5s-17 -62.167 -17 -93.5c0 -33.333 8.66699 -58.666 26 -75.999
c9.33301 -9.33301 20.666 -14 33.999 -14zM133 -218.002c41.333 0 76.3301 9 104.997 27s43 39.667 43 65c0 38.667 -40.667 71.667 -122 99c-5.33301 2 -16.666 5.83301 -33.999 11.5s-30.666 10.167 -39.999 13.5c-82 -28 -123 -65.333 -123 -112
c0 -31.333 15.833 -56.5 47.5 -75.5s72.834 -28.5 123.501 -28.5z" />
    <glyph glyph-name="Gbreve" unicode="&#x11e;" horiz-adv-x="661" 
d="M341 -15c-86.667 0 -157 26 -211 78s-81 118.333 -81 199c0 66 15 127.667 45 185s73 104 129 140s118.667 54 188 54c68 0 126.667 -16.333 176 -49l55 17l-30 -174l-12 1l-23 138c-16.667 14 -39.834 25.833 -69.501 35.5s-60.167 14.5 -91.5 14.5
c-58.667 0 -111.667 -18.167 -159 -54.5s-83.166 -82.5 -107.499 -138.5s-36.5 -114.667 -36.5 -176c0 -74 20.833 -134.667 62.5 -182s97.5 -71 167.5 -71c47.333 0 89 9.33301 125 28l40 212c0.666992 3.33301 -1.66602 5.83301 -6.99902 7.5s-17.333 3.16699 -36 4.5
l-53 4l-1 14h243l-4 -14l-48 -5c-24.667 -2.66699 -37.334 -7 -38.001 -13l-39 -201l63 4v-10c-100.667 -32 -183 -48 -247 -48zM405 672c-18.667 0 -34.166 4.33203 -46.499 12.999s-21.5 21.667 -27.5 39s-10 33 -12 47s-3.66699 32 -5 54h10
c7.33301 -38.667 17.666 -67.5 30.999 -86.5s32 -28.5 56 -28.5c45.333 0 89 38.333 131 115h12c-8.66699 -19.333 -15.167 -33.666 -19.5 -42.999s-11.5 -22.5 -21.5 -39.5s-19.5 -29.5 -28.5 -37.5s-20.5 -15.5 -34.5 -22.5s-29 -10.5 -45 -10.5z" />
    <glyph glyph-name="gbreve" unicode="&#x11f;" horiz-adv-x="373" 
d="M113 -236c-51.333 0 -96.5 10.998 -135.5 32.998s-58.5 48.667 -58.5 80c0 24.667 15 49 45 73s65 42 105 54v3c-44 18 -66 40.667 -66 68c0 18 9.66699 34.333 29 49s41 24.334 65 29.001l1 2c-32 28.667 -48 66.334 -48 113.001c0 45.333 16.667 86 50 122
s72 54 116 54c28.667 0 55.667 -10 81 -30l113 17l-13 -43l-110 15v-3c25.333 -30 38 -63 38 -99c0 -42 -17.5 -80.667 -52.5 -116s-72.833 -53 -113.5 -53c-18.667 0 -34.667 4.66699 -48 14c-19.333 -4 -35.833 -11 -49.5 -21s-20.5 -20.333 -20.5 -31
c0 -11.333 7 -21.833 21 -31.5s40 -20.167 78 -31.5l28 -9c100 -32 150 -72.667 150 -122c0 -36.667 -20.167 -68.5 -60.5 -95.5s-88.5 -40.5 -144.5 -40.5zM133 -218.002c41.333 0 76.3301 9 104.997 27s43 39.667 43 65c0 38.667 -40.667 71.667 -122 99
c-5.33301 2 -16.666 5.83301 -33.999 11.5s-30.666 10.167 -39.999 13.5c-82 -28 -123 -65.333 -123 -112c0 -31.333 15.833 -56.5 47.5 -75.5s72.834 -28.5 123.501 -28.5zM155.997 144.998c24 0 46.333 10.333 67 31c38 39.333 57 96.333 57 171
c0 21.333 -7.83301 40.166 -23.5 56.499s-31.834 24.5 -48.501 24.5c-15.333 0 -32.666 -8.66699 -51.999 -26c-17.333 -18 -31.666 -42.5 -42.999 -73.5s-17 -62.167 -17 -93.5c0 -33.333 8.66699 -58.666 26 -75.999c9.33301 -9.33301 20.666 -14 33.999 -14z
M229.997 490.998c-18.667 0 -34.166 4.33203 -46.499 12.999s-21.5 21.667 -27.5 39s-10 33 -12 47s-3.66699 32 -5 54h10c7.33301 -38.667 17.666 -67.5 30.999 -86.5s32 -28.5 56 -28.5c45.333 0 89 38.333 131 115h12c-8.66699 -19.333 -15.167 -33.666 -19.5 -42.999
s-11.5 -22.5 -21.5 -39.5s-19.5 -29.5 -28.5 -37.5s-20.5 -15.5 -34.5 -22.5s-29 -10.5 -45 -10.5z" />
    <glyph glyph-name="Gdotaccent" unicode="&#x120;" horiz-adv-x="661" 
d="M341 -15c-86.667 0 -157 26 -211 78s-81 118.333 -81 199c0 66 15 127.667 45 185s73 104 129 140s118.667 54 188 54c68 0 126.667 -16.333 176 -49l55 17l-30 -174l-12 1l-23 138c-16.667 14 -39.834 25.833 -69.501 35.5s-60.167 14.5 -91.5 14.5
c-58.667 0 -111.667 -18.167 -159 -54.5s-83.166 -82.5 -107.499 -138.5s-36.5 -114.667 -36.5 -176c0 -74 20.833 -134.667 62.5 -182s97.5 -71 167.5 -71c47.333 0 89 9.33301 125 28l40 212c0.666992 3.33301 -1.66602 5.83301 -6.99902 7.5s-17.333 3.16699 -36 4.5
l-53 4l-1 14h243l-4 -14l-48 -5c-24.667 -2.66699 -37.334 -7 -38.001 -13l-39 -201l63 4v-10c-100.667 -32 -183 -48 -247 -48zM427 710c-12.667 0 -22.667 4.5 -30 13.5s-11 18.5 -11 28.5c0 11.333 3.66699 21.666 11 30.999s17.333 14 30 14s22.834 -4.66699 30.501 -14
s11.5 -19.666 11.5 -30.999c0 -10 -3.83301 -19.5 -11.5 -28.5s-17.834 -13.5 -30.501 -13.5z" />
    <glyph glyph-name="gdotaccent" unicode="&#x121;" horiz-adv-x="373" 
d="M113 -236c-51.333 0 -96.5 10.998 -135.5 32.998s-58.5 48.667 -58.5 80c0 24.667 15 49 45 73s65 42 105 54v3c-44 18 -66 40.667 -66 68c0 18 9.66699 34.333 29 49s41 24.334 65 29.001l1 2c-32 28.667 -48 66.334 -48 113.001c0 45.333 16.667 86 50 122
s72 54 116 54c28.667 0 55.667 -10 81 -30l113 17l-13 -43l-110 15v-3c25.333 -30 38 -63 38 -99c0 -42 -17.5 -80.667 -52.5 -116s-72.833 -53 -113.5 -53c-18.667 0 -34.667 4.66699 -48 14c-19.333 -4 -35.833 -11 -49.5 -21s-20.5 -20.333 -20.5 -31
c0 -11.333 7 -21.833 21 -31.5s40 -20.167 78 -31.5l28 -9c100 -32 150 -72.667 150 -122c0 -36.667 -20.167 -68.5 -60.5 -95.5s-88.5 -40.5 -144.5 -40.5zM156 144.998c24 0 46.333 10.333 67 31c38 39.333 57 96.333 57 171c0 21.333 -7.83301 40.166 -23.5 56.499
s-31.834 24.5 -48.501 24.5c-15.333 0 -32.666 -8.66699 -51.999 -26c-17.333 -18 -31.666 -42.5 -42.999 -73.5s-17 -62.167 -17 -93.5c0 -33.333 8.66699 -58.666 26 -75.999c9.33301 -9.33301 20.666 -14 33.999 -14zM133 -218.002c41.333 0 76.3301 9 104.997 27
s43 39.667 43 65c0 38.667 -40.667 71.667 -122 99c-5.33301 2 -16.666 5.83301 -33.999 11.5s-30.666 10.167 -39.999 13.5c-82 -28 -123 -65.333 -123 -112c0 -31.333 15.833 -56.5 47.5 -75.5s72.834 -28.5 123.501 -28.5zM249.997 528.998
c-12.667 0 -22.667 4.5 -30 13.5s-11 18.5 -11 28.5c0 11.333 3.66699 21.666 11 30.999s17.333 14 30 14s22.834 -4.66699 30.501 -14s11.5 -19.666 11.5 -30.999c0 -10 -3.83301 -19.5 -11.5 -28.5s-17.834 -13.5 -30.501 -13.5z" />
    <glyph glyph-name="Gcommaaccent" unicode="&#x122;" horiz-adv-x="661" 
d="M359 -140c-6 -26.667 -21.665 -50.998 -46.998 -72.998s-54 -37.333 -86 -46l-5 8c50.667 19.333 80.667 49.333 90 90c4 19.333 -0.166992 33.833 -12.5 43.5s-25.5 12.167 -39.5 7.5c-2.66699 13.333 1.16602 25.166 11.499 35.499s23.833 14.5 40.5 12.5
c17.333 -2 30.666 -10.333 39.999 -25s12 -32.334 8 -53.001zM341.002 -14.998c-86.667 0 -157 26 -211 78s-81 118.333 -81 199c0 66 15 127.667 45 185s73 104 129 140s118.667 54 188 54c68 0 126.667 -16.333 176 -49l55 17l-30 -174l-12 1l-23 138
c-16.667 14 -39.834 25.833 -69.501 35.5s-60.167 14.5 -91.5 14.5c-58.667 0 -111.667 -18.167 -159 -54.5s-83.166 -82.5 -107.499 -138.5s-36.5 -114.667 -36.5 -176c0 -74 20.833 -134.667 62.5 -182s97.5 -71 167.5 -71c47.333 0 89 9.33301 125 28l40 212
c0.666992 3.33301 -1.66602 5.83301 -6.99902 7.5s-17.333 3.16699 -36 4.5l-53 4l-1 14h243l-4 -14l-48 -5c-24.667 -2.66699 -37.334 -7 -38.001 -13l-39 -201l63 4v-10c-100.667 -32 -183 -48 -247 -48z" />
    <glyph glyph-name="gcommaaccent" unicode="&#x123;" horiz-adv-x="373" 
d="M216 581c6 26.667 21.665 50.998 46.998 72.998s54 37.333 86 46l5 -8c-50.667 -19.333 -80.667 -49.333 -90 -90c-4 -19.333 0.166992 -33.833 12.5 -43.5s25.5 -12.167 39.5 -7.5c2.66699 -13.333 -1.16602 -25.166 -11.499 -35.499s-23.833 -14.5 -40.5 -12.5
c-17.333 2 -30.666 10.333 -39.999 25s-12 32.334 -8 53.001zM112.998 -236.002c-51.333 0 -96.5 10.998 -135.5 32.998s-58.5 48.667 -58.5 80c0 24.667 15 49 45 73s65 42 105 54v3c-44 18 -66 40.667 -66 68c0 18 9.66699 34.333 29 49s41 24.334 65 29.001l1 2
c-32 28.667 -48 66.334 -48 113.001c0 45.333 16.667 86 50 122s72 54 116 54c28.667 0 55.667 -10 81 -30l113 17l-13 -43l-110 15v-3c25.333 -30 38 -63 38 -99c0 -42 -17.5 -80.667 -52.5 -116s-72.833 -53 -113.5 -53c-18.667 0 -34.667 4.66699 -48 14
c-19.333 -4 -35.833 -11 -49.5 -21s-20.5 -20.333 -20.5 -31c0 -11.333 7 -21.833 21 -31.5s40 -20.167 78 -31.5l28 -9c100 -32 150 -72.667 150 -122c0 -36.667 -20.167 -68.5 -60.5 -95.5s-88.5 -40.5 -144.5 -40.5zM155.998 144.996c24 0 46.333 10.333 67 31
c38 39.333 57 96.333 57 171c0 21.333 -7.83301 40.166 -23.5 56.499s-31.834 24.5 -48.501 24.5c-15.333 0 -32.666 -8.66699 -51.999 -26c-17.333 -18 -31.666 -42.5 -42.999 -73.5s-17 -62.167 -17 -93.5c0 -33.333 8.66699 -58.666 26 -75.999
c9.33301 -9.33301 20.666 -14 33.999 -14zM132.998 -218.004c41.333 0 76.3301 9 104.997 27s43 39.667 43 65c0 38.667 -40.667 71.667 -122 99c-5.33301 2 -16.666 5.83301 -33.999 11.5s-30.666 10.167 -39.999 13.5c-82 -28 -123 -65.333 -123 -112
c0 -31.333 15.833 -56.5 47.5 -75.5s72.834 -28.5 123.501 -28.5z" />
    <glyph glyph-name="Hcircumflex" unicode="&#x124;" horiz-adv-x="698" 
d="M299 669l145 177h26l79 -177h-8l-91 122h-3l-138 -122h-10zM-9 0l3.00195 14l50 5c24.667 2.66699 37.334 7 38.001 13l106 563c0.666992 3.33301 -1.16602 5.66602 -5.49902 6.99902s-15.833 3 -34.5 5l-40 4l-1 14h234l-4 -14l-51 -5c-24 -2 -36.667 -6.33301 -38 -13
l-50 -265h342l51 267c0.666992 3.33301 -1.16602 5.66602 -5.49902 6.99902s-15.833 3 -34.5 5l-42 4l-2 14h234l-4 -14l-48 -5c-24.667 -2.66699 -37.334 -7 -38.001 -13l-107 -563c-0.666992 -3.33301 1.16602 -5.66602 5.49902 -6.99902s16.166 -3 35.499 -5l39 -4l2 -14
h-234l3 14l52 5c24 2 36.667 6.33301 38 13l52 278h-342l-54 -280c-0.666992 -3.33301 1.16602 -5.66602 5.49902 -6.99902s16.166 -3 35.499 -5l42 -4l2 -14h-235z" />
    <glyph glyph-name="hcircumflex" unicode="&#x125;" horiz-adv-x="430" 
d="M288 -13c-10 0 -22.1699 4.50293 -36.5029 13.5029s-21.5 16.833 -21.5 23.5c0 4.66699 3.33301 16.5 10 35.5s16.334 45.167 29.001 78.5s22.667 60.666 30 81.999c32.667 92 49 142.333 49 151c0 10.667 -4.5 19.667 -13.5 27s-19.167 11 -30.5 11
c-16 0 -46.167 -31.833 -90.5 -95.5s-87.833 -138.834 -130.5 -225.501l-29 -91l-51 5c0.666992 2 4 13 10 33s13 42.833 21 68.5s14 44.834 18 57.501c12 35.333 28.5 91.166 49.5 167.499s39.167 143.833 54.5 202.5l23 88c2.66699 13.333 0.333984 20 -6.99902 20l-81 4
l2 12l151 18l-30 -115c-7.33301 -25.333 -18.666 -64.833 -33.999 -118.5s-27.166 -94.834 -35.499 -123.501s-17.833 -59.5 -28.5 -92.5s-19.334 -57.833 -26.001 -74.5l7 -1c26.667 52 57.5 104 92.5 156s61.833 87.667 80.5 107c20 21.333 40.333 32 61 32
c15.333 0 30.166 -7 44.499 -21s21.5 -29.333 21.5 -46c0 -15.333 -16.667 -68.333 -50 -159l-71 -189l44 -6l76 104l9 -8c-21.333 -40 -42.666 -71.833 -63.999 -95.5s-39 -35.5 -53 -35.5zM67.9971 683.003l145 177h26l79 -177h-8l-91 122h-3l-138 -122h-10z" />
    <glyph glyph-name="Hbar" unicode="&#x126;" horiz-adv-x="698" 
d="M626 0l-233.998 -0.00195312l3 14l52 5c24 2 36.667 6.33301 38 13l52 278h-342l-54 -280c-0.666992 -3.33301 1.16602 -5.66602 5.49902 -6.99902s16.166 -3 35.499 -5l42 -4l2 -14h-235l3 14l50 5c24.667 2.66699 37.334 7 38.001 13l82 436h-95l8 26h92l19 101
c0.666992 3.33301 -1.16602 5.66602 -5.49902 6.99902s-15.833 3 -34.5 5l-40 5l-1 13h234l-4 -13l-51 -6c-24 -2 -36.667 -6.33301 -38 -13l-19 -99h343l19 101c0 2 -0.166992 3.5 -0.5 4.5s-2 2 -5 3s-7 1.83301 -12 2.5s-12.5 1.33398 -22.5 2.00098l-42 5l-2 13h234
l-3 -13l-49 -6c-24 -2 -36.667 -6.33301 -38 -13l-19 -99h96l-6 -26h-96l-82 -438c-0.666992 -3.33301 1.16602 -5.66602 5.49902 -6.99902s16.166 -3 35.499 -5l39 -4zM198.002 327.998h342l26 140h-342z" />
    <glyph glyph-name="hbar" unicode="&#x127;" horiz-adv-x="430" 
d="M81 526l7.99805 25.0029h71l19 68c2.66699 13.333 0.333984 20 -6.99902 20l-81 4l3 12l150 18c-5.33301 -16.667 -10.666 -34.5 -15.999 -53.5s-9.5 -34.5 -12.5 -46.5s-5.16699 -19.333 -6.5 -22h88l-7 -25h-88c-6 -20 -18.333 -63.5 -37 -130.5
s-33.834 -120.167 -45.501 -159.5s-21.5 -68.333 -29.5 -87l7 -1c26.667 52 57.5 104 92.5 156s61.833 87.667 80.5 107c20 21.333 40.333 32 61 32c15.333 0 30.166 -7 44.499 -21s21.5 -29.333 21.5 -46c0 -15.333 -16.667 -68.333 -50 -159l-71 -189l44 -6l76 104l9 -7
c-21.333 -40 -42.666 -72 -63.999 -96s-39 -36 -53 -36c-10 0 -22.167 4.5 -36.5 13.5s-21.5 16.833 -21.5 23.5c0 4.66699 3.33301 16.5 10 35.5s16.334 45.167 29.001 78.5s22.667 60.666 30 81.999c32.667 92 49 142.333 49 151c0 10.667 -4.5 19.667 -13.5 27
s-19.167 11 -30.5 11c-16 0 -46.167 -31.833 -90.5 -95.5s-87.833 -138.834 -130.5 -225.501l-29 -91l-51 5c0.666992 2 4 13 10 33s13 42.833 21 68.5s14 44.834 18 57.501c9.33301 29.333 27.5 94.166 54.5 194.499s42.5 157.166 46.5 170.499h-72z" />
    <glyph glyph-name="Imacron" unicode="&#x12a;" horiz-adv-x="314" 
d="M-2 0l3 14l52 5c24.667 2 37.667 6.33301 39 13l106 563c0.666992 3.33301 -1.16602 5.66602 -5.49902 6.99902s-15.833 3 -34.5 5l-43 4l-1 14h237l-4 -14l-52 -5c-24 -2 -36.667 -6.33301 -38 -13l-106 -563c-0.666992 -3.33301 1.16602 -5.66602 5.49902 -6.99902
s15.833 -3 34.5 -5l43 -4l1 -14h-237zM123 707l8 28h244l-7 -28h-245z" />
    <glyph glyph-name="imacron" unicode="&#x12b;" horiz-adv-x="234" 
d="M88 -13c-10 0 -22.1699 4.5 -36.5029 13.5s-21.166 16.833 -20.499 23.5l134 380l-44 5l-75 -104l-9 8c21.333 40.667 43 72.667 65 96s42 35 60 35c10 0 19.5 -6.16699 28.5 -18.5s13.167 -24.833 12.5 -37.5c0 -6 -10.667 -39 -32 -99s-42.666 -118.333 -63.999 -175
l-32 -86l44 -6l77 104l9 -8c-21.333 -40 -42.666 -71.833 -63.999 -95.5s-39 -35.5 -53 -35.5zM52.9971 526l8 28h244l-7 -28h-245z" />
    <glyph glyph-name="Ibreve" unicode="&#x12c;" horiz-adv-x="314" 
d="M-2 0l3 14l52 5c24.667 2 37.667 6.33301 39 13l106 563c0.666992 3.33301 -1.16602 5.66602 -5.49902 6.99902s-15.833 3 -34.5 5l-43 4l-1 14h237l-4 -14l-52 -5c-24 -2 -36.667 -6.33301 -38 -13l-106 -563c-0.666992 -3.33301 1.16602 -5.66602 5.49902 -6.99902
s15.833 -3 34.5 -5l43 -4l1 -14h-237zM243 672c-18.667 0 -34.166 4.33203 -46.499 12.999s-21.5 21.667 -27.5 39s-10 33 -12 47s-3.66699 32 -5 54h10c7.33301 -38.667 17.666 -67.5 30.999 -86.5s32 -28.5 56 -28.5c45.333 0 89 38.333 131 115h12
c-8.66699 -19.333 -15.167 -33.666 -19.5 -42.999s-11.5 -22.5 -21.5 -39.5s-19.5 -29.5 -28.5 -37.5s-20.5 -15.5 -34.5 -22.5s-29 -10.5 -45 -10.5z" />
    <glyph glyph-name="ibreve" unicode="&#x12d;" horiz-adv-x="234" 
d="M88 -13c-10 0 -22.1699 4.5 -36.5029 13.5s-21.166 16.833 -20.499 23.5l134 380l-44 5l-75 -104l-9 8c21.333 40.667 43 72.667 65 96s42 35 60 35c10 0 19.5 -6.16699 28.5 -18.5s13.167 -24.833 12.5 -37.5c0 -6 -10.667 -39 -32 -99s-42.666 -118.333 -63.999 -175
l-32 -86l44 -6l77 104l9 -8c-21.333 -40 -42.666 -71.833 -63.999 -95.5s-39 -35.5 -53 -35.5zM173.997 491c-18.667 0 -34.166 4.33203 -46.499 12.999s-21.5 21.667 -27.5 39s-10 33 -12 47s-3.66699 32 -5 54h10c7.33301 -38.667 17.666 -67.5 30.999 -86.5
s32 -28.5 56 -28.5c45.333 0 89 38.333 131 115h12c-8.66699 -19.333 -15.167 -33.666 -19.5 -42.999s-11.5 -22.5 -21.5 -39.5s-19.5 -29.5 -28.5 -37.5s-20.5 -15.5 -34.5 -22.5s-29 -10.5 -45 -10.5z" />
    <glyph glyph-name="Iogonek" unicode="&#x12e;" horiz-adv-x="314" 
d="M137 -209c-20 0.666992 -36.166 7.83594 -48.499 21.5029s-18.166 31.167 -17.499 52.5c0.666992 26 13.834 51 39.501 75s56.167 44 91.5 60h-204l3 14l52 5c24.667 2 37.667 6.33301 39 13l106 563c0.666992 3.33301 -1.33301 5.83301 -6 7.5s-16 3.16699 -34 4.5
l-43 5l-1 13h237l-4 -13l-51 -6c-24.667 -2 -37.667 -6.33301 -39 -13l-106 -563c-0.666992 -3.33301 1.16602 -5.66602 5.49902 -6.99902s15.833 -3 34.5 -5l43 -4l1 -14c-31.333 -10.667 -59 -27.167 -83 -49.5s-36.333 -46.833 -37 -73.5
c-1.33301 -16.667 2.16699 -30.334 10.5 -41.001s19.833 -16.334 34.5 -17.001c22 -0.666992 41.667 9.33301 59 30l6 -5c-8.66699 -10.667 -16.334 -19.334 -23.001 -26.001s-15.834 -12.834 -27.501 -18.501s-24.167 -8.5 -37.5 -8.5z" />
    <glyph glyph-name="iogonek" unicode="&#x12f;" horiz-adv-x="234" 
d="M39 -209c-20 0.666992 -36.165 7.83594 -48.498 21.5029s-17.833 31.5 -16.5 53.5c2 42.667 37 83.667 105 123c-10.667 2 -21.167 6.83301 -31.5 14.5s-15.5 14.5 -15.5 20.5l134 380l-44 5l-75 -104l-9 8c21.333 40.667 43 72.667 65 96s42 35 60 35
c10 0 19.5 -6.16699 28.5 -18.5s13.167 -24.833 12.5 -37.5c0 -6 -10.667 -39 -32 -99s-42.666 -118.333 -63.999 -175l-32 -86l44 -6l77 104l9 -7c-13.333 -25.333 -29.5 -51 -48.5 -77s-35.833 -43 -50.5 -51c-58 -30.667 -88 -68.334 -90 -113.001
c-1.33301 -16.667 2.16699 -30.5 10.5 -41.5s19.5 -16.833 33.5 -17.5c23.333 -0.666992 43 9.33301 59 30l6 -5c-8.66699 -10.667 -16.334 -19.334 -23.001 -26.001s-15.834 -12.834 -27.501 -18.501s-23.834 -8.5 -36.501 -8.5zM268.002 598.002
c0 -14 -4.16602 -26.334 -12.499 -37.001s-17.5 -16 -27.5 -16c-10.667 0 -19 3.33301 -25 10s-9 15.334 -9 26.001c0 13.333 4.16699 25.333 12.5 36s17.166 16 26.499 16c10.667 0 19.167 -3.33301 25.5 -10s9.5 -15 9.5 -25z" />
    <glyph glyph-name="Idotaccent" unicode="&#x130;" horiz-adv-x="314" 
d="M-2 0l3 14l52 5c24.667 2 37.667 6.33301 39 13l106 563c0.666992 3.33301 -1.16602 5.66602 -5.49902 6.99902s-15.833 3 -34.5 5l-43 4l-1 14h237l-4 -14l-52 -5c-24 -2 -36.667 -6.33301 -38 -13l-106 -563c-0.666992 -3.33301 1.16602 -5.66602 5.49902 -6.99902
s15.833 -3 34.5 -5l43 -4l1 -14h-237zM255 710c-12.667 0 -22.667 4.5 -30 13.5s-11 18.5 -11 28.5c0 11.333 3.66699 21.666 11 30.999s17.333 14 30 14s22.834 -4.66699 30.501 -14s11.5 -19.666 11.5 -30.999c0 -10 -3.83301 -19.5 -11.5 -28.5
s-17.834 -13.5 -30.501 -13.5z" />
    <glyph glyph-name="dotlessi" unicode="&#x131;" horiz-adv-x="234" 
d="M88 -13c-10 0 -22.1699 4.5 -36.5029 13.5s-21.166 16.833 -20.499 23.5l134 380l-44 5l-75 -104l-9 8c21.333 40.667 43 72.667 65 96s42 35 60 35c10 0 19.5 -6.16699 28.5 -18.5s13.167 -24.833 12.5 -37.5c0 -6 -10.667 -39 -32 -99s-42.666 -118.333 -63.999 -175
l-32 -86l44 -6l77 104l9 -8c-21.333 -40 -42.666 -71.833 -63.999 -95.5s-39 -35.5 -53 -35.5z" />
    <glyph glyph-name="Jcircumflex" unicode="&#x134;" horiz-adv-x="307" 
d="M120 669l145 177h26l79 -177h-8l-91 122h-3l-138 -122h-10zM-31 -122c-23.333 0 -41.332 4.49902 -53.999 13.499s-18.667 21.5 -18 37.5c0.666992 12.667 5.16699 23 13.5 31s18.166 12 29.499 12c18 -0.666992 30.833 -9.66699 38.5 -27
s3.83398 -33.666 -11.499 -48.999c31.333 -3.33301 59.166 9.5 83.499 38.5s42.166 73.833 53.499 134.5l102 526c0.666992 3.33301 -1.16602 5.66602 -5.49902 6.99902s-15.833 3 -34.5 5l-45 4l-1 14h239l-4 -14l-51 -5c-24 -2 -36.667 -6.33301 -38 -13l-106 -538
c-6 -35.333 -28.5 -73.666 -67.5 -114.999s-80.167 -62 -123.5 -62z" />
    <glyph glyph-name="jcircumflex" unicode="&#x135;" horiz-adv-x="211" 
d="M154 444c9.33301 0 18.4961 -6.16406 27.4961 -18.4971s13.167 -24.833 12.5 -37.5c0 -10.667 -15.167 -67.834 -45.5 -171.501s-53.166 -174.834 -68.499 -213.501c-40 -112.667 -75 -184 -105 -214c-26.667 -28 -53 -42 -79 -42c-14.667 0 -27 4.33301 -37 13
s-15 19 -15 31c0 9.33301 3.33301 17.666 10 24.999s15.334 11 26.001 11c14.667 0 24.834 -5.83301 30.501 -17.5s2.83398 -25.167 -8.49902 -40.5l43 13c32 36 61.333 99.333 88 190l122 432l-42 5l-75 -104l-9 8c21.333 40.667 43 72.667 65 96s42 35 60 35z
M36.9961 488.003l145 177h26l79 -177h-8l-91 122h-3l-138 -122h-10z" />
    <glyph glyph-name="Kcommaaccent" unicode="&#x136;" horiz-adv-x="636" 
d="M324 -140c-6 -26.667 -21.665 -50.998 -46.998 -72.998s-54 -37.333 -86 -46l-5 8c50.667 19.333 80.667 49.333 90 90c4 19.333 -0.166992 33.833 -12.5 43.5s-25.5 12.167 -39.5 7.5c-2.66699 13.333 1.16602 25.166 11.499 35.499s23.833 14.5 40.5 12.5
c17.333 -2 30.666 -10.333 39.999 -25s12 -32.334 8 -53.001zM-8.99805 0.00195312l3.00195 14.001l50 5c24.667 2.66699 37.334 7 38.001 13l106 563c0.666992 3.33301 -1.16602 5.66602 -5.49902 6.99902s-15.833 3 -34.5 5l-40 4l-1 14h234l-4 -14l-51 -5
c-24 -2 -36.667 -6.33301 -38 -13l-61 -323l248 215c68 57.333 104.333 91.666 109 102.999c3.33301 8 -1.33398 13.333 -14.001 16c-5.33301 0.666992 -14 1.66699 -26 3l-45 4l-1 14h225l-3 -14l-27 -2c-22.667 -2 -38.667 -6 -48 -12
c-7.33301 -4 -47.666 -36 -120.999 -96l-32 -26l-95 -83l145 -323c9.33301 -23.333 17.166 -37.5 23.499 -42.5s18.166 -8.16699 35.499 -9.5l32 -3l2 -14h-219l3 14l36 3c16 0.666992 26 5.5 30 14.5s3.66699 16.833 -1 23.5l-131 300l-130 -110l-42 -215
c-0.666992 -3.33301 1.16602 -5.66602 5.49902 -6.99902s16.166 -3 35.499 -5l42 -4l2 -14h-235z" />
    <glyph glyph-name="kcommaaccent" unicode="&#x137;" horiz-adv-x="402" 
d="M188 -140c-6 -26.667 -21.665 -50.998 -46.998 -72.998s-54 -37.333 -86 -46l-5 8c50.667 19.333 80.667 49.333 90 90c4 19.333 -0.166992 33.833 -12.5 43.5s-25.5 12.167 -39.5 7.5c-2.66699 13.333 1.16602 25.166 11.499 35.499s23.833 14.5 40.5 12.5
c17.333 -2 30.666 -10.333 39.999 -25s12 -32.334 8 -53.001zM271.002 -13.998c-9.33301 0 -19.5 2.33301 -30.5 7s-19.167 10 -24.5 16c-4.66699 153.333 -24.334 230 -59.001 230c-8.66699 0 -21.667 -4.33301 -39 -13l-68 -230l-50 5
c0.666992 2 4.16699 12.833 10.5 32.5s13.833 42.834 22.5 69.501s14.667 45.667 18 57c12 35.333 28.5 91.333 49.5 168s39.167 144.334 54.5 203.001l23 88c4 13.333 1.66699 20 -7 20l-81 4l3 12l150 18l-30 -115c-58 -200.667 -88.667 -306 -92 -316
c1.33301 0.666992 4.16602 1.16699 8.49902 1.5s7.5 0.5 9.5 0.5c48.667 18.667 90.334 39.5 125.001 62.5s54.667 41.167 60 54.5l8 9c-10 2 -18.333 6.5 -25 13.5s-10 15.167 -10 24.5c0 8.66699 3.83301 16.667 11.5 24s16.167 11 25.5 11c10 0 18.5 -3.83301 25.5 -11.5
s10.5 -16.834 10.5 -27.501c0 -47.333 -44 -89.333 -132 -126l-60 -28c20.667 -0.666992 39.334 -24.334 56.001 -71.001s26.667 -98.667 30 -156l31 -1l70 111l9 -7c-17.333 -39.333 -35.5 -72.5 -54.5 -99.5s-35.167 -40.5 -48.5 -40.5z" />
    <glyph glyph-name="Lacute" unicode="&#x139;" horiz-adv-x="527" 
d="M194 676l148 184h69l-208 -184h-9zM-9 0l3 14.001l50 5c24 2.66699 36.667 7 38 13l106 563c0.666992 3.33301 -1.16602 5.66602 -5.49902 6.99902s-15.833 3 -34.5 5l-40 4l-1 14h251l-3 -14l-69 -5c-24 -2 -36.667 -6.33301 -38 -13l-109 -573l105 -3
c33.333 0.666992 61.5 3.5 84.5 8.5s42.167 13.333 57.5 25s27.166 23 35.499 34s17.833 26.5 28.5 46.5l20 50l15 -1l-59 -180h-435z" />
    <glyph glyph-name="lacute" unicode="&#x13a;" horiz-adv-x="212" 
d="M134 691l148 184h69l-208 -184h-9zM67 -13c-10 0 -21.833 4.5 -35.5 13.5s-20.167 16.833 -19.5 23.5l170 595c4 13.333 2 20 -6 20l-81 4l2 12l150 18l-192 -645l43 -6l78 104l9 -8c-21.333 -40 -42.833 -71.833 -64.5 -95.5s-39.5 -35.5 -53.5 -35.5z" />
    <glyph glyph-name="Lcommaaccent" unicode="&#x13b;" horiz-adv-x="527" 
d="M266 -140c-6 -26.667 -21.665 -50.998 -46.998 -72.998s-54 -37.333 -86 -46l-5 8c50.667 19.333 80.667 49.333 90 90c4 19.333 -0.166992 33.833 -12.5 43.5s-25.5 12.167 -39.5 7.5c-2.66699 13.333 1.16602 25.166 11.499 35.499s23.833 14.5 40.5 12.5
c17.333 -2 30.666 -10.333 39.999 -25s12 -32.334 8 -53.001zM-8.99805 0.00195312l3 14.001l50 5c24 2.66699 36.667 7 38 13l106 563c0.666992 3.33301 -1.16602 5.66602 -5.49902 6.99902s-15.833 3 -34.5 5l-40 4l-1 14h251l-3 -14l-69 -5
c-24 -2 -36.667 -6.33301 -38 -13l-109 -573l105 -3c33.333 0.666992 61.5 3.5 84.5 8.5s42.167 13.333 57.5 25s27.166 23 35.499 34s17.833 26.5 28.5 46.5l20 50l15 -1l-59 -180h-435z" />
    <glyph glyph-name="lcommaaccent" unicode="&#x13c;" horiz-adv-x="212" 
d="M90 -140c-6 -26.667 -21.665 -50.998 -46.998 -72.998s-54 -37.333 -86 -46l-5 8c50.667 19.333 80.667 49.333 90 90c4 19.333 -0.166992 33.833 -12.5 43.5s-25.5 12.167 -39.5 7.5c-2.66699 13.333 1.16602 25.166 11.499 35.499s23.833 14.5 40.5 12.5
c17.333 -2 30.666 -10.333 39.999 -25s12 -32.334 8 -53.001zM66.002 -12.998c-10 0 -21.833 4.5 -35.5 13.5s-20.167 16.833 -19.5 23.5l170 595c4 13.333 2 20 -6 20l-81 4l2 12l150 18l-192 -645l43 -6l78 104l9 -8c-21.333 -40 -42.833 -71.833 -64.5 -95.5
s-39.5 -35.5 -53.5 -35.5z" />
    <glyph glyph-name="Lcaron" unicode="&#x13d;" horiz-adv-x="598" 
d="M560 428l-4.99707 7c63.333 34 95.666 72 96.999 114c0.666992 16.667 -5.5 29.5 -18.5 38.5s-27.167 12.5 -42.5 10.5c-2 10 1.66699 20.333 11 31s21.666 16 36.999 16c18 0 32.667 -6.33301 44 -19s16.666 -28.667 15.999 -48c-2 -30.667 -16.833 -59.667 -44.5 -87
s-59.167 -48.333 -94.5 -63zM-8.99707 0l3 14.001l50 5c24 2.66699 36.667 7 38 13l106 563c0.666992 3.33301 -1.16602 5.66602 -5.49902 6.99902s-15.833 3 -34.5 5l-40 4l-1 14h251l-3 -14l-69 -5c-24 -2 -36.667 -6.33301 -38 -13l-109 -573l105 -3
c33.333 0.666992 61.5 3.5 84.5 8.5s42.167 13.333 57.5 25s27.166 23 35.499 34s17.833 26.5 28.5 46.5l20 50l15 -1l-59 -180h-435z" />
    <glyph glyph-name="lcaron" unicode="&#x13e;" horiz-adv-x="367" 
d="M277 439l-4.99707 7c63.333 34 95.666 72 96.999 114c0.666992 16.667 -5.5 29.5 -18.5 38.5s-27.167 12.5 -42.5 10.5c-2 10 1.66699 20.333 11 31s21.666 16 36.999 16c18 0 32.667 -6.33301 44 -19s16.666 -28.667 15.999 -48c-2 -30.667 -16.833 -59.667 -44.5 -87
s-59.167 -48.333 -94.5 -63zM67.0029 -13c-10 0 -21.833 4.5 -35.5 13.5s-20.167 16.833 -19.5 23.5l170 595c4 13.333 2 20 -6 20l-81 4l2 12l150 18l-192 -645l43 -6l78 104l9 -8c-21.333 -40 -42.833 -71.833 -64.5 -95.5s-39.5 -35.5 -53.5 -35.5z" />
    <glyph glyph-name="Ldot" unicode="&#x13f;" horiz-adv-x="617" 
d="M605 248c-13.333 0 -24.499 4.66699 -33.499 14s-13.167 20.333 -12.5 33c0 12 4.5 22.333 13.5 31s20.167 13 33.5 13c12.667 0 23.167 -4.33301 31.5 -13s12.5 -19 12.5 -31c0 -12.667 -4.33301 -23.667 -13 -33s-19.334 -14 -32.001 -14zM-8.99902 0l3 14.001l50 5
c24 2.66699 36.667 7 38 13l106 563c0.666992 3.33301 -1.16602 5.66602 -5.49902 6.99902s-15.833 3 -34.5 5l-40 4l-1 14h251l-3 -14l-69 -5c-24 -2 -36.667 -6.33301 -38 -13l-109 -573l105 -3c33.333 0.666992 61.5 3.5 84.5 8.5s42.167 13.333 57.5 25
s27.166 23 35.499 34s17.833 26.5 28.5 46.5l20 50l15 -1l-59 -180h-435z" />
    <glyph glyph-name="ldotaccent" unicode="&#x140;" horiz-adv-x="332" 
d="M307 265c-13.333 0 -24.499 4.66699 -33.499 14s-13.167 20.333 -12.5 33c0 12 4.5 22.333 13.5 31s20.167 13 33.5 13c12.667 0 23.167 -4.33301 31.5 -13s12.5 -19 12.5 -31c0 -12.667 -4.33301 -23.667 -13 -33s-19.334 -14 -32.001 -14zM67.001 -13
c-10 0 -21.833 4.5 -35.5 13.5s-20.167 16.833 -19.5 23.5l170 595c4 13.333 2 20 -6 20l-81 4l2 12l150 18l-192 -645l43 -6l78 104l9 -8c-21.333 -40 -42.833 -71.833 -64.5 -95.5s-39.5 -35.5 -53.5 -35.5z" />
    <glyph glyph-name="Lslash" unicode="&#x141;" horiz-adv-x="534" 
d="M125 261l-98 -28.999v19l102 30l59 314c0.666992 3.33301 -1.16602 5.66602 -5.49902 6.99902s-15.833 3 -34.5 5l-40 4l-1 14h251l-3 -14l-69 -5c-24 -2 -36.667 -6.33301 -38 -13l-56 -293l113 33l-1 -20l-116 -34l-12 -65c-8 -42.667 -16 -85.667 -24 -129l-13 -65
l105 -3c33.333 0.666992 61.5 3.5 84.5 8.5s42.167 13.333 57.5 25s27.166 23 35.499 34s17.833 26.5 28.5 46.5l20 50l15 -1l-59 -180h-435l3 14l50 5c24 2.66699 36.667 7 38 13z" />
    <glyph glyph-name="lslash" unicode="&#x142;" horiz-adv-x="210" 
d="M92 250l-81.001 -24l3 19l84 25l101 349c2.66699 13.333 0.333984 20 -6.99902 20l-81 4l2 12l150 18l-116 -388l66 19l-1 -19l-71 -21l-17 -59l-36 -118l-17 -59l43 -6l78 104l9 -8c-21.333 -40 -42.833 -71.833 -64.5 -95.5s-39.5 -35.5 -53.5 -35.5
c-10 0 -21.833 4.5 -35.5 13.5s-20.167 16.833 -19.5 23.5z" />
    <glyph glyph-name="Nacute" unicode="&#x143;" horiz-adv-x="670" 
d="M393 676l148 184h69l-208 -184h-9zM512 -6l-294 583h-2l-100 -540c-0.666992 -3.33301 0.5 -6.33301 3.5 -9s8.83301 -5 17.5 -7s20 -3.33301 34 -4l38 -3l2 -14h-215l3 14l41 3c34.667 3.33301 53.334 10.666 56.001 21.999l105 544
c-6.66699 10 -28.334 17.667 -65.001 23l-31 5l-2 14h155l269 -533h2l92 496c1.33301 11.333 -17 18 -55 20l-38 3l-2 14h215l-4 -14l-40 -3c-35.333 -3.33301 -54.333 -10.666 -57 -21.999l-113 -592h-15z" />
    <glyph glyph-name="nacute" unicode="&#x144;" horiz-adv-x="458" 
d="M233 495l148 184h69l-208 -184h-9zM316 -13c-10 0 -22.168 4.50098 -36.501 13.501s-21.5 16.833 -21.5 23.5c0 4.66699 3.33301 16.5 10 35.5s16.334 45.5 29.001 79.5s22.667 61 30 81c32.667 96.667 49 147.334 49 152.001c0 10.667 -4.5 19.667 -13.5 27
s-19.167 11 -30.5 11c-15.333 0 -45.333 -32 -90 -96s-88.334 -139.333 -131.001 -226l-29 -91l-51 5l49 159l67 243l-41 5l-74 -104l-9 8c21.333 41.333 43 73.666 65 96.999s42 35 60 35c9.33301 0 18.333 -6 27 -18s13 -24.667 13 -38c0 -24 -23.333 -103.667 -70 -239
l7 -2c26.667 51.333 57.334 103.166 92.001 155.499s61.667 88.5 81 108.5c20 21.333 40.333 32 61 32c15.333 0 30.166 -7 44.499 -21s21.5 -29.667 21.5 -47s-17 -70.333 -51 -159c-6.66699 -18 -15.667 -42.167 -27 -72.5s-21 -56.5 -29 -78.5s-12.667 -34.667 -14 -38
l44 -6l76 105l9 -8c-21.333 -40 -42.666 -72 -63.999 -96s-39 -36 -53 -36z" />
    <glyph glyph-name="Ncommaaccent" unicode="&#x145;" horiz-adv-x="670" 
d="M358 -140c-6 -26.667 -21.665 -50.998 -46.998 -72.998s-54 -37.333 -86 -46l-5 8c50.667 19.333 80.667 49.333 90 90c4 19.333 -0.166992 33.833 -12.5 43.5s-25.5 12.167 -39.5 7.5c-2.66699 13.333 1.16602 25.166 11.499 35.499s23.833 14.5 40.5 12.5
c17.333 -2 30.666 -10.333 39.999 -25s12 -32.334 8 -53.001zM512.002 -5.99805l-294 583h-2l-100 -540c-0.666992 -3.33301 0.5 -6.33301 3.5 -9s8.83301 -5 17.5 -7s20 -3.33301 34 -4l38 -3l2 -14h-215l3 14l41 3c34.667 3.33301 53.334 10.666 56.001 21.999l105 544
c-6.66699 10 -28.334 17.667 -65.001 23l-31 5l-2 14h155l269 -533h2l92 496c1.33301 11.333 -17 18 -55 20l-38 3l-2 14h215l-4 -14l-40 -3c-35.333 -3.33301 -54.333 -10.666 -57 -21.999l-113 -592h-15z" />
    <glyph glyph-name="ncommaaccent" unicode="&#x146;" horiz-adv-x="458" 
d="M212 -140c-6 -26.667 -21.665 -50.998 -46.998 -72.998s-54 -37.333 -86 -46l-5 8c50.667 19.333 80.667 49.333 90 90c4 19.333 -0.166992 33.833 -12.5 43.5s-25.5 12.167 -39.5 7.5c-2.66699 13.333 1.16602 25.166 11.499 35.499s23.833 14.5 40.5 12.5
c17.333 -2 30.666 -10.333 39.999 -25s12 -32.334 8 -53.001zM316.002 -12.998c-10 0 -22.168 4.50098 -36.501 13.501s-21.5 16.833 -21.5 23.5c0 4.66699 3.33301 16.5 10 35.5s16.334 45.5 29.001 79.5s22.667 61 30 81c32.667 96.667 49 147.334 49 152.001
c0 10.667 -4.5 19.667 -13.5 27s-19.167 11 -30.5 11c-15.333 0 -45.333 -32 -90 -96s-88.334 -139.333 -131.001 -226l-29 -91l-51 5l49 159l67 243l-41 5l-74 -104l-9 8c21.333 41.333 43 73.666 65 96.999s42 35 60 35c9.33301 0 18.333 -6 27 -18s13 -24.667 13 -38
c0 -24 -23.333 -103.667 -70 -239l7 -2c26.667 51.333 57.334 103.166 92.001 155.499s61.667 88.5 81 108.5c20 21.333 40.333 32 61 32c15.333 0 30.166 -7 44.499 -21s21.5 -29.667 21.5 -47s-17 -70.333 -51 -159c-6.66699 -18 -15.667 -42.167 -27 -72.5
s-21 -56.5 -29 -78.5s-12.667 -34.667 -14 -38l44 -6l76 105l9 -8c-21.333 -40 -42.666 -72 -63.999 -96s-39 -36 -53 -36z" />
    <glyph glyph-name="Ncaron" unicode="&#x147;" horiz-adv-x="670" 
d="M414 669l-79 177h9l91 -122h3l138 122h10l-145 -177h-27zM512 -6l-294 583h-2l-100 -540c-0.666992 -3.33301 0.5 -6.33301 3.5 -9s8.83301 -5 17.5 -7s20 -3.33301 34 -4l38 -3l2 -14h-215l3 14l41 3c34.667 3.33301 53.334 10.666 56.001 21.999l105 544
c-6.66699 10 -28.334 17.667 -65.001 23l-31 5l-2 14h155l269 -533h2l92 496c1.33301 11.333 -17 18 -55 20l-38 3l-2 14h215l-4 -14l-40 -3c-35.333 -3.33301 -54.333 -10.666 -57 -21.999l-113 -592h-15z" />
    <glyph glyph-name="ncaron" unicode="&#x148;" horiz-adv-x="458" 
d="M264 488l-79 177h9l91 -122h3l138 122h10l-145 -177h-27zM316 -13c-10 0 -22.168 4.50098 -36.501 13.501s-21.5 16.833 -21.5 23.5c0 4.66699 3.33301 16.5 10 35.5s16.334 45.5 29.001 79.5s22.667 61 30 81c32.667 96.667 49 147.334 49 152.001
c0 10.667 -4.5 19.667 -13.5 27s-19.167 11 -30.5 11c-15.333 0 -45.333 -32 -90 -96s-88.334 -139.333 -131.001 -226l-29 -91l-51 5l49 159l67 243l-41 5l-74 -104l-9 8c21.333 41.333 43 73.666 65 96.999s42 35 60 35c9.33301 0 18.333 -6 27 -18s13 -24.667 13 -38
c0 -24 -23.333 -103.667 -70 -239l7 -2c26.667 51.333 57.334 103.166 92.001 155.499s61.667 88.5 81 108.5c20 21.333 40.333 32 61 32c15.333 0 30.166 -7 44.499 -21s21.5 -29.667 21.5 -47s-17 -70.333 -51 -159c-6.66699 -18 -15.667 -42.167 -27 -72.5
s-21 -56.5 -29 -78.5s-12.667 -34.667 -14 -38l44 -6l76 105l9 -8c-21.333 -40 -42.666 -72 -63.999 -96s-39 -36 -53 -36z" />
    <glyph glyph-name="Omacron" unicode="&#x14c;" horiz-adv-x="692" 
d="M285 707l8 28h244l-7 -28h-245zM337 -14c-84.667 0 -153.167 28.332 -205.5 84.999s-78.5 126.667 -78.5 210c0 92.667 32.5 175.334 97.5 248.001s145.167 109 240.5 109c84 0 152.333 -28.667 205 -86s79 -127.333 79 -210c0 -99.333 -33.5 -183.5 -100.5 -252.5
s-146.167 -103.5 -237.5 -103.5zM340 1.99902c79.333 0 144.001 35 194.001 105s75 154.333 75 253c0 76 -19.5 138.667 -58.5 188s-93.5 74 -163.5 74c-54 0 -102 -18 -144 -54s-73.333 -81.167 -94 -135.5s-31 -111.833 -31 -172.5c0 -76 19.167 -138 57.5 -186
s93.166 -72 164.499 -72z" />
    <glyph glyph-name="omacron" unicode="&#x14d;" horiz-adv-x="377" 
d="M132 526l8 28h244l-7 -28h-245zM141 -13c-40 0 -69.333 16.332 -88 48.999s-28 72 -28 118c0 66.667 21.333 131.667 64 195s90 95 142 95c38 0 67.667 -16.667 89 -50s32 -75.666 32 -126.999c0 -67.333 -21.5 -130.833 -64.5 -190.5s-91.833 -89.5 -146.5 -89.5z
M135 2.99902c30.667 0 59.667 16.6689 87 50.002s48.666 74.666 63.999 123.999c13.333 43.333 20 86.666 20 129.999c0 80 -23 120 -69 120c-29.333 0 -57.166 -19 -83.499 -57s-47.833 -83 -64.5 -135c-12.667 -42 -19 -81.667 -19 -119c0 -34 5.5 -61.333 16.5 -82
s27.167 -31 48.5 -31z" />
    <glyph glyph-name="Obreve" unicode="&#x14e;" horiz-adv-x="692" 
d="M337 -14c-84.667 0 -153.167 28.332 -205.5 84.999s-78.5 126.667 -78.5 210c0 92.667 32.5 175.334 97.5 248.001s145.167 109 240.5 109c84 0 152.333 -28.667 205 -86s79 -127.333 79 -210c0 -99.333 -33.5 -183.5 -100.5 -252.5s-146.167 -103.5 -237.5 -103.5z
M340 1.99902c79.333 0 144.001 35 194.001 105s75 154.333 75 253c0 76 -19.5 138.667 -58.5 188s-93.5 74 -163.5 74c-54 0 -102 -18 -144 -54s-73.333 -81.167 -94 -135.5s-31 -111.833 -31 -172.5c0 -76 19.167 -138 57.5 -186s93.166 -72 164.499 -72zM418.001 671.999
c-18.667 0 -34.166 4.33203 -46.499 12.999s-21.5 21.667 -27.5 39s-10 33 -12 47s-3.66699 32 -5 54h10c7.33301 -38.667 17.666 -67.5 30.999 -86.5s32 -28.5 56 -28.5c45.333 0 89 38.333 131 115h12c-8.66699 -19.333 -15.167 -33.666 -19.5 -42.999
s-11.5 -22.5 -21.5 -39.5s-19.5 -29.5 -28.5 -37.5s-20.5 -15.5 -34.5 -22.5s-29 -10.5 -45 -10.5z" />
    <glyph glyph-name="obreve" unicode="&#x14f;" horiz-adv-x="377" 
d="M141 -13c-40 0 -69.333 16.332 -88 48.999s-28 72 -28 118c0 66.667 21.333 131.667 64 195s90 95 142 95c38 0 67.667 -16.667 89 -50s32 -75.666 32 -126.999c0 -67.333 -21.5 -130.833 -64.5 -190.5s-91.833 -89.5 -146.5 -89.5zM135 2.99902
c30.667 0 59.667 16.6689 87 50.002s48.666 74.666 63.999 123.999c13.333 43.333 20 86.666 20 129.999c0 80 -23 120 -69 120c-29.333 0 -57.166 -19 -83.499 -57s-47.833 -83 -64.5 -135c-12.667 -42 -19 -81.667 -19 -119c0 -34 5.5 -61.333 16.5 -82
s27.167 -31 48.5 -31zM245 491.001c-18.667 0 -34.166 4.33203 -46.499 12.999s-21.5 21.667 -27.5 39s-10 33 -12 47s-3.66699 32 -5 54h10c7.33301 -38.667 17.666 -67.5 30.999 -86.5s32 -28.5 56 -28.5c45.333 0 89 38.333 131 115h12
c-8.66699 -19.333 -15.167 -33.666 -19.5 -42.999s-11.5 -22.5 -21.5 -39.5s-19.5 -29.5 -28.5 -37.5s-20.5 -15.5 -34.5 -22.5s-29 -10.5 -45 -10.5z" />
    <glyph glyph-name="Ohungarumlaut" unicode="&#x150;" horiz-adv-x="692" 
d="M431 676l142 184h62l-194 -184h-10zM294 676l142 184h62l-194 -184h-10zM337 -14c-84.667 0 -153.167 28.332 -205.5 84.999s-78.5 126.667 -78.5 210c0 92.667 32.5 175.334 97.5 248.001s145.167 109 240.5 109c84 0 152.333 -28.667 205 -86s79 -127.333 79 -210
c0 -99.333 -33.5 -183.5 -100.5 -252.5s-146.167 -103.5 -237.5 -103.5zM340 1.99902c79.333 0 144.001 35 194.001 105s75 154.333 75 253c0 76 -19.5 138.667 -58.5 188s-93.5 74 -163.5 74c-54 0 -102 -18 -144 -54s-73.333 -81.167 -94 -135.5s-31 -111.833 -31 -172.5
c0 -76 19.167 -138 57.5 -186s93.166 -72 164.499 -72z" />
    <glyph glyph-name="ohungarumlaut" unicode="&#x151;" horiz-adv-x="377" 
d="M273 495l142 184h62l-194 -184h-10zM136 495l142 184h62l-194 -184h-10zM141 -13c-40 0 -69.333 16.332 -88 48.999s-28 72 -28 118c0 66.667 21.333 131.667 64 195s90 95 142 95c38 0 67.667 -16.667 89 -50s32 -75.666 32 -126.999
c0 -67.333 -21.5 -130.833 -64.5 -190.5s-91.833 -89.5 -146.5 -89.5zM135 2.99902c30.667 0 59.667 16.6689 87 50.002s48.666 74.666 63.999 123.999c13.333 43.333 20 86.666 20 129.999c0 80 -23 120 -69 120c-29.333 0 -57.166 -19 -83.499 -57s-47.833 -83 -64.5 -135
c-12.667 -42 -19 -81.667 -19 -119c0 -34 5.5 -61.333 16.5 -82s27.167 -31 48.5 -31z" />
    <glyph glyph-name="OE" unicode="&#x152;" horiz-adv-x="891" 
d="M331 0c-86 0 -154.667 25.332 -206 75.999s-77 116.667 -77 198c0 105.333 36.167 190.166 108.5 254.499s170.5 96.5 294.5 96.5h421l5 -163h-12l-5 44c-12.667 41.333 -28.5 68.833 -47.5 82.5s-54.833 20.5 -107.5 20.5h-112l-52 -272h88
c27.333 0 47.5 2.16699 60.5 6.5s21.667 9.33301 26 15s10.833 17.834 19.5 36.501l13 28l11 -1l-41 -191l-11 1l2 28c2 27.333 -1.16699 43.833 -9.5 49.5s-34.5 8.83398 -78.5 9.50098l-82 2l-58 -302l125 -2c44.667 0 81.667 5.33301 111 16s50.833 23 64.5 37
s28.5 34 44.5 60l18 42l15 -1l-70 -171h-458zM344 15.999l76 0.000976562l110 581l-102 11c-97.333 -0.666992 -174.333 -33.834 -231 -99.501s-85 -149.167 -85 -250.5c0 -76.667 19.5 -136.167 58.5 -178.5s96.833 -63.5 173.5 -63.5z" />
    <glyph glyph-name="oe" unicode="&#x153;" horiz-adv-x="596" 
d="M141 -13c-40 0 -69.333 16.334 -88 49.001s-28 72 -28 118c0 66.667 21.333 131.667 64 195s90 95 142 95c30 0 54.833 -10.833 74.5 -32.5s32.834 -50.834 39.501 -87.501c22.667 36.667 49 65.834 79 87.501s60 32.5 90 32.5c26 0 48 -6.66699 66 -20s27 -29 27 -47
c0 -28.667 -18 -53 -54 -73s-104 -46 -204 -78c-7.33301 -28 -11 -54.667 -11 -80c0 -38 8 -68 24 -90s36.333 -33 61 -33c43.333 0 86.666 33.333 129.999 100l10 -8c-54 -85.333 -107.667 -128 -161 -128c-28 0 -51.5 9.16699 -70.5 27.5s-31.5 42.166 -37.5 71.499
c-43.333 -66 -94.333 -99 -153 -99zM355 242.001c80.667 25.333 134.332 46.832 160.999 64.499s40 40.834 40 69.501c0 14.667 -5.66699 27.167 -17 37.5s-25.666 15.5 -42.999 15.5s-38 -11.333 -62 -34c-36 -36 -63 -86.667 -81 -152zM134.998 3
c30.667 0 59.667 16.6689 87 50.002s48.666 74.666 63.999 123.999c13.333 43.333 20 86.666 20 129.999c0 80 -23 120 -69 120c-29.333 0 -57.166 -19 -83.499 -57s-47.833 -83 -64.5 -135c-12.667 -42 -19 -81.667 -19 -119c0 -34 5.5 -61.333 16.5 -82
s27.167 -31 48.5 -31z" />
    <glyph glyph-name="Racute" unicode="&#x154;" horiz-adv-x="590" 
d="M288 676l148 184h69l-208 -184h-9zM-18 0l3.00098 13.998l59 5c8 0.666992 16.167 2.33398 24.5 5.00098s12.833 5.33398 13.5 8.00098l106 563c0.666992 3.33301 -1.33301 5.83301 -6 7.5s-16 3.16699 -34 4.5l-50 4l-1 14h251c59.333 0 106.833 -13.5 142.5 -40.5
s53.5 -61.5 53.5 -103.5c0 -46 -18.5 -84.667 -55.5 -116s-83.167 -50.666 -138.5 -57.999l106 -240c8.66699 -20.667 17 -33.834 25 -39.501s20 -9.16699 36 -10.5l27 -3l3 -14h-127l-129 305c-47.333 6.66699 -78.333 13.334 -93 20.001l-57 -295c0 -2 2.16699 -4 6.5 -6
s9.66602 -3.33301 15.999 -4s12.5 -1.33398 18.5 -2.00098l49 -4l2 -14h-251zM316.001 319.998c48 2.66699 87.3311 19.001 117.998 49.001s46 69 46 117c0 38 -13.167 68.167 -39.5 90.5s-62.833 33.166 -109.5 32.499l-81 -2l-49 -264
c12.667 -5.33301 31.334 -10.5 56.001 -15.5s44.334 -7.5 59.001 -7.5z" />
    <glyph glyph-name="racute" unicode="&#x155;" horiz-adv-x="366" 
d="M195 495l148 184h69l-208 -184h-9zM82 -3l-50.9971 5.00098l52 159l64 243l-41 5l-74 -104l-9 8c21.333 41.333 43 73.666 65 96.999s42 35 60 35c9.33301 0 18.333 -6 27 -18s13 -24.667 13 -38c0 -23.333 -19.333 -95 -58 -215h5c64 121.333 106 192 126 212
c15.333 23.333 27.666 39 36.999 47s21.666 12 36.999 12c16 0 29.167 -5.66699 39.5 -17s15.5 -24 15.5 -38c0 -12 -3.83301 -21.833 -11.5 -29.5s-16.834 -11.5 -27.501 -11.5c-13.333 0 -22.833 5.83301 -28.5 17.5s-2.16699 25.167 10.5 40.5l-26 11
c-9.33301 -4 -31 -32.833 -65 -86.5s-72 -119.5 -114 -197.5z" />
    <glyph glyph-name="Rcommaaccent" unicode="&#x156;" horiz-adv-x="590" 
d="M327 -140c-6 -26.667 -21.665 -50.998 -46.998 -72.998s-54 -37.333 -86 -46l-5 8c50.667 19.333 80.667 49.333 90 90c4 19.333 -0.166992 33.833 -12.5 43.5s-25.5 12.167 -39.5 7.5c-2.66699 13.333 1.16602 25.166 11.499 35.499s23.833 14.5 40.5 12.5
c17.333 -2 30.666 -10.333 39.999 -25s12 -32.334 8 -53.001zM-17.998 0.00195312l3.00098 13.998l59 5c8 0.666992 16.167 2.33398 24.5 5.00098s12.833 5.33398 13.5 8.00098l106 563c0.666992 3.33301 -1.33301 5.83301 -6 7.5s-16 3.16699 -34 4.5l-50 4l-1 14h251
c59.333 0 106.833 -13.5 142.5 -40.5s53.5 -61.5 53.5 -103.5c0 -46 -18.5 -84.667 -55.5 -116s-83.167 -50.666 -138.5 -57.999l106 -240c8.66699 -20.667 17 -33.834 25 -39.501s20 -9.16699 36 -10.5l27 -3l3 -14h-127l-129 305
c-47.333 6.66699 -78.333 13.334 -93 20.001l-57 -295c0 -2 2.16699 -4 6.5 -6s9.66602 -3.33301 15.999 -4s12.5 -1.33398 18.5 -2.00098l49 -4l2 -14h-251zM316.003 320c48 2.66699 87.3311 19.001 117.998 49.001s46 69 46 117c0 38 -13.167 68.167 -39.5 90.5
s-62.833 33.166 -109.5 32.499l-81 -2l-49 -264c12.667 -5.33301 31.334 -10.5 56.001 -15.5s44.334 -7.5 59.001 -7.5z" />
    <glyph glyph-name="rcommaaccent" unicode="&#x157;" horiz-adv-x="366" 
d="M99 -140c-6 -26.667 -21.665 -50.998 -46.998 -72.998s-54 -37.333 -86 -46l-5 8c50.667 19.333 80.667 49.333 90 90c4 19.333 -0.166992 33.833 -12.5 43.5s-25.5 12.167 -39.5 7.5c-2.66699 13.333 1.16602 25.166 11.499 35.499s23.833 14.5 40.5 12.5
c17.333 -2 30.666 -10.333 39.999 -25s12 -32.334 8 -53.001zM82.002 -2.99805l-50.9971 5.00098l52 159l64 243l-41 5l-74 -104l-9 8c21.333 41.333 43 73.666 65 96.999s42 35 60 35c9.33301 0 18.333 -6 27 -18s13 -24.667 13 -38c0 -23.333 -19.333 -95 -58 -215h5
c64 121.333 106 192 126 212c15.333 23.333 27.666 39 36.999 47s21.666 12 36.999 12c16 0 29.167 -5.66699 39.5 -17s15.5 -24 15.5 -38c0 -12 -3.83301 -21.833 -11.5 -29.5s-16.834 -11.5 -27.501 -11.5c-13.333 0 -22.833 5.83301 -28.5 17.5
s-2.16699 25.167 10.5 40.5l-26 11c-9.33301 -4 -31 -32.833 -65 -86.5s-72 -119.5 -114 -197.5z" />
    <glyph glyph-name="Rcaron" unicode="&#x158;" horiz-adv-x="590" 
d="M317 669l-79 177h9l91 -122h3l138 122h10l-145 -177h-27zM-18 0l3.00098 13.998l59 5c8 0.666992 16.167 2.33398 24.5 5.00098s12.833 5.33398 13.5 8.00098l106 563c0.666992 3.33301 -1.33301 5.83301 -6 7.5s-16 3.16699 -34 4.5l-50 4l-1 14h251
c59.333 0 106.833 -13.5 142.5 -40.5s53.5 -61.5 53.5 -103.5c0 -46 -18.5 -84.667 -55.5 -116s-83.167 -50.666 -138.5 -57.999l106 -240c8.66699 -20.667 17 -33.834 25 -39.501s20 -9.16699 36 -10.5l27 -3l3 -14h-127l-129 305
c-47.333 6.66699 -78.333 13.334 -93 20.001l-57 -295c0 -2 2.16699 -4 6.5 -6s9.66602 -3.33301 15.999 -4s12.5 -1.33398 18.5 -2.00098l49 -4l2 -14h-251zM316.001 319.998c48 2.66699 87.3311 19.001 117.998 49.001s46 69 46 117c0 38 -13.167 68.167 -39.5 90.5
s-62.833 33.166 -109.5 32.499l-81 -2l-49 -264c12.667 -5.33301 31.334 -10.5 56.001 -15.5s44.334 -7.5 59.001 -7.5z" />
    <glyph glyph-name="rcaron" unicode="&#x159;" horiz-adv-x="366" 
d="M223 488l-79 177h9l91 -122h3l138 122h10l-145 -177h-27zM82 -3l-50.9971 5.00098l52 159l64 243l-41 5l-74 -104l-9 8c21.333 41.333 43 73.666 65 96.999s42 35 60 35c9.33301 0 18.333 -6 27 -18s13 -24.667 13 -38c0 -23.333 -19.333 -95 -58 -215h5
c64 121.333 106 192 126 212c15.333 23.333 27.666 39 36.999 47s21.666 12 36.999 12c16 0 29.167 -5.66699 39.5 -17s15.5 -24 15.5 -38c0 -12 -3.83301 -21.833 -11.5 -29.5s-16.834 -11.5 -27.501 -11.5c-13.333 0 -22.833 5.83301 -28.5 17.5
s-2.16699 25.167 10.5 40.5l-26 11c-9.33301 -4 -31 -32.833 -65 -86.5s-72 -119.5 -114 -197.5z" />
    <glyph glyph-name="Sacute" unicode="&#x15a;" horiz-adv-x="466" 
d="M237 676l148 184h69l-208 -184h-9zM205 -15c-32 0 -65.498 5 -100.498 15s-64.833 22.333 -89.5 37l14 147l12 -1l10 -71c10.667 -34.667 30.167 -61.834 58.5 -81.501s61.5 -29.5 99.5 -29.5c49.333 0 89.166 12 119.499 36s45.5 58.333 45.5 103
c0 34 -10 62.167 -30 84.5s-55.667 49.5 -107 81.5c-44 28 -77.333 54.667 -100 80s-34 56.333 -34 93c0 51.333 18.167 91.166 54.5 119.499s82.5 42.5 138.5 42.5c44 0 83.667 -10 119 -30l50 9l-23 -163l-13 1l-27 130c-26.667 25.333 -62.334 38 -107.001 38
c-43.333 0 -78.333 -11 -105 -33s-40 -51.333 -40 -88c0 -32 9.66699 -58.5 29 -79.5s53 -46.5 101 -76.5c30 -19.333 53.667 -35.666 71 -48.999s33.5 -31.666 48.5 -54.999s22.5 -48.333 22.5 -75c0 -56.667 -20 -101.667 -60 -135s-92.333 -50 -157 -50z" />
    </font>
</defs>
</svg>
