<svg xmlns="http://www.w3.org/2000/svg" width="318" height="31" fill="none" viewBox="0 0 318 31">
    <path fill="#1FB4B3" d="M173.972 20.14h7.882c.058 1.11-.117 2.16-.467 3.153-.351.993-.876 1.81-1.518 2.569-.701.7-1.518 1.284-2.511 1.693-.992.409-2.101.642-3.444.642-1.401 0-2.569-.292-3.62-.817-1.05-.526-1.926-1.285-2.627-2.16-.7-.934-1.226-1.985-1.634-3.153-.351-1.168-.526-2.393-.526-3.736 0-1.284.175-2.569.467-3.853.351-1.226.818-2.394 1.518-3.328.701-.992 1.576-1.751 2.627-2.394 1.051-.583 2.336-.875 3.853-.875.934 0 1.81.117 2.628.35.817.234 1.576.525 2.218.993.642.408 1.168.992 1.635 1.693.408.7.759 1.517.875 2.451h3.27c-.234-1.459-.643-2.685-1.285-3.736-.642-1.05-1.401-1.868-2.335-2.51-.934-.642-1.985-1.168-3.153-1.46-1.167-.292-2.451-.467-3.794-.467-1.985 0-3.678.35-5.138 1.11-1.459.7-2.685 1.693-3.678 2.919-.992 1.226-1.693 2.627-2.218 4.261-.467 1.635-.759 3.328-.759 5.138 0 1.634.292 3.152.817 4.67.526 1.518 1.285 2.802 2.336 3.97.992 1.167 2.218 2.043 3.678 2.744 1.459.7 3.094.992 4.962.992 1.459 0 2.86-.292 4.32-.817 1.401-.584 2.627-1.518 3.619-2.802l.876 3.62h2.043V17.396h-10.917v2.744zM215.247 13.193c.467-1.576 1.226-2.919 2.218-4.145.993-1.226 2.219-2.16 3.678-2.86 1.46-.701 3.211-1.051 5.138-1.051 1.985 0 3.678.35 5.137 1.05 1.46.701 2.686 1.694 3.678 2.861.993 1.226 1.752 2.569 2.219 4.145.467 1.576.759 3.153.759 4.846s-.234 3.327-.759 4.845c-.467 1.576-1.226 2.92-2.219 4.145-.992 1.226-2.218 2.16-3.678 2.86-1.459.701-3.211 1.052-5.137 1.052-1.985 0-3.678-.35-5.138-1.051-1.459-.7-2.685-1.635-3.678-2.86-.992-1.227-1.751-2.57-2.218-4.146-.467-1.576-.759-3.152-.759-4.845 0-1.693.292-3.27.759-4.846zm3.036 8.582c.35 1.226.817 2.277 1.518 3.27.7.992 1.576 1.75 2.685 2.334 1.109.584 2.394.876 3.853.876 1.518 0 2.802-.292 3.853-.875 1.109-.584 1.985-1.343 2.686-2.336.7-.992 1.226-2.043 1.518-3.269.35-1.226.467-2.452.467-3.678s-.175-2.452-.467-3.678c-.351-1.226-.818-2.277-1.518-3.27-.701-.992-1.577-1.75-2.686-2.334-1.109-.584-2.393-.876-3.853-.876-1.518 0-2.802.292-3.853.876-1.109.583-1.985 1.342-2.685 2.335-.701.992-1.226 2.043-1.518 3.27-.351 1.225-.467 2.451-.467 3.677s.175 2.452.467 3.678zM262.36 30.94l-5.663-21.833h-.059l-5.662 21.834h-3.445l-6.305-25.804h3.328l4.845 21.659h.059l5.546-21.66h3.561l5.488 21.66h.058l5.021-21.66h3.269l-6.597 25.805h-3.444zM275.437 7.88V5.138h19.732V7.88h-8.231v23.06h-3.27V7.88h-8.231zM210.11 29.481c-.176-.526-.292-1.11-.409-1.693-.117-.584-.175-1.226-.175-1.81 0-.642-.059-1.81-.117-2.393-.058-.584-.175-1.168-.292-1.752-.117-.525-.35-1.05-.584-1.518-.292-.467-.642-.817-1.05-1.167-.468-.35-1.051-.526-1.752-.7v-.06c1.518-.408 2.627-1.167 3.269-2.334.934-1.635.993-3.036.993-4.496 0-1.985-.642-3.56-1.985-4.728-1.343-1.168-3.153-1.752-5.488-1.752h-11.617v25.863h3.269V19.848h7.998c.817 0 1.459.117 1.926.35.468.234.876.584 1.168.993.292.409.525.876.642 1.401.117.526.234 1.11.351 1.693.116.584.175 1.752.233 2.394 0 .642.058 1.226.058 1.751 0 .526.059 1.051.176 1.46.058.408.233.759.467 1.05h3.678c-.292-.408-.584-.934-.759-1.459zm-5.079-13.252c-.526.35-1.11.584-1.81.7-.701.117-1.401.175-2.16.175h-6.831V7.88h8.173c1.518 0 2.686.409 3.328 1.168.701.759 1.051 1.81 1.051 3.036 0 .875 0 1.926-.467 2.802-.35.584-.759.992-1.284 1.343z"/>
    <path fill="url(#paint0_linear)" d="M46.12 5.137c-6.655 0-12.084 5.43-12.084 12.085v13.72h7.53V17.746c0-3.386 2.744-6.13 6.13-6.13h7.94v-6.48H46.12zm21.017 17.748c-1.11-.993-1.868-2.51-1.868-4.787 0-2.219.759-3.853 1.868-4.846 1.05-.934 2.569-1.576 4.554-1.576h8.581V24.52h-8.581c-2.044-.059-3.562-.701-4.554-1.635zm3.444-17.748C63.46 5.137 57.68 9.4 57.68 18.04c0 8.816 5.78 12.902 12.902 12.902h17.222V5.137H70.582zm44.019 0V16.99c-.526 4.787-3.503 6.305-7.473 7.472-3.97-1.167-6.947-2.685-7.472-7.472V5.137h-7.531v11.91s-.292 12.143 15.003 13.894c15.296-1.751 15.004-13.894 15.004-13.894V5.137H114.6zm20.491 17.514c-1.226-1.167-1.693-2.919-1.693-4.553 0-1.81.584-3.678 1.985-4.846 1.343-1.167 3.561-1.576 5.605-1.576 1.926 0 3.853.409 5.195 1.401 1.577 1.168 2.336 3.094 2.336 5.02 0 1.81-.584 3.62-2.044 4.788-1.342 1.11-3.502 1.635-5.546 1.635-2.16-.059-4.437-.584-5.838-1.869zm5.897-17.514s-5.955-.35-10.334 2.452c-2.86 1.81-4.787 5.021-4.787 10.45 0 5.43 1.927 8.582 4.787 10.45 4.379 2.803 10.334 2.452 10.334 2.452s5.954.35 10.333-2.452c2.861-1.81 4.787-5.02 4.787-10.45 0-5.429-1.926-8.581-4.787-10.45-3.561-2.276-8.115-2.51-9.75-2.51-.35.058-.583.058-.583.058zM7.531 11.617h8.582c1.985 0 3.503.584 4.553 1.577 1.11.992 1.869 2.627 1.869 4.845 0 2.277-.76 3.795-1.869 4.788-1.05.934-2.568 1.576-4.553 1.576H7.53V11.618zM0 0v30.941h17.222c7.122 0 12.902-4.086 12.902-12.902 0-8.698-5.78-12.902-12.902-12.902H7.531V0H0z"/>
    <path fill="#1FB4B3" d="M314.435 16.64h-12.961V5.139h-3.269v25.804h3.269v-11.56h12.961v11.56h3.327V5.139h-3.327v11.5z"/>
    <defs>
        <linearGradient id="paint0_linear" x1="0" x2="156.127" y1="15.489" y2="15.489" gradientUnits="userSpaceOnUse">
            <stop stop-color="#1FB4B3"/>
            <stop offset=".256" stop-color="#24ABB5"/>
            <stop offset=".671" stop-color="#3093B9"/>
            <stop offset="1" stop-color="#3C7BBE"/>
        </linearGradient>
    </defs>
</svg>
