<svg width="306" height="31" viewBox="0 0 306 31" fill="none" xmlns="http://www.w3.org/2000/svg">
<g clip-path="url(#clip0)">
<path d="M180.515 5.13825H160.77V7.88212H169.007V30.9424H172.278V7.88212H180.515V5.13825ZM186.766 5.13825L177.185 31.0008H180.515L183.261 23.5865H193.718L196.405 31.0008H200.027L190.446 5.13825H186.766ZM184.312 20.7842L188.519 8.11565H188.577L192.666 20.7842H184.312ZM205.752 5.78043H202.481V30.9424H218.838V28.1985H205.752V5.78043ZM259.323 26.3303H259.264L246.237 5.19663H242.732V30.9424H245.828V10.0422H245.886L258.855 30.9424H262.477V5.19663H259.381V26.3303H259.323ZM265.106 7.94051H273.343V30.9424H276.615V7.94051H284.852V5.19663H265.106V7.94051ZM305.357 20.6091C304.89 19.7917 304.306 19.1495 303.546 18.6241C302.787 18.0987 301.969 17.69 301.034 17.3398C300.099 17.0479 299.106 16.7559 298.172 16.5224C297.178 16.2889 296.244 16.0554 295.309 15.8802C294.374 15.7051 293.498 15.4132 292.797 15.1213C292.038 14.8294 291.453 14.4207 290.986 13.9537C290.519 13.4866 290.285 12.8445 290.285 12.0855C290.285 11.2682 290.46 10.626 290.752 10.0422C291.044 9.51678 291.453 9.04973 291.979 8.75783C292.505 8.40755 293.089 8.23241 293.732 8.05727C294.374 7.94051 295.075 7.82374 295.776 7.82374C297.471 7.82374 298.873 8.23241 299.983 8.99135C301.093 9.80868 301.735 11.093 301.91 12.8445H305.007C304.948 11.5017 304.715 10.3341 304.247 9.34164C303.78 8.34917 303.137 7.53184 302.319 6.88966C301.501 6.24747 300.567 5.78043 299.457 5.48853C298.347 5.19663 297.178 5.02148 295.952 5.02148C294.842 5.02148 293.732 5.13825 292.68 5.43015C291.629 5.72205 290.635 6.13071 289.818 6.71452C289 7.29832 288.299 8.05727 287.773 8.93297C287.247 9.86706 287.013 10.9179 287.013 12.1439C287.013 13.2531 287.247 14.1872 287.715 14.9462C288.182 15.7051 288.766 16.2889 289.526 16.7559C290.285 17.223 291.103 17.6317 292.038 17.9236C292.972 18.2155 293.965 18.449 294.9 18.6825C295.893 18.916 296.828 19.0912 297.763 19.3247C298.697 19.5582 299.574 19.7917 300.275 20.142C301.034 20.4923 301.618 20.901 302.086 21.4264C302.553 21.9518 302.787 22.6524 302.787 23.4697C302.787 24.3454 302.611 25.1043 302.261 25.6882C301.91 26.272 301.385 26.739 300.8 27.0309C300.216 27.3812 299.515 27.6147 298.756 27.7315C297.996 27.8482 297.237 27.965 296.536 27.965C295.601 27.965 294.725 27.8482 293.849 27.6147C292.972 27.3812 292.213 27.0309 291.57 26.5639C290.928 26.0968 290.402 25.4546 289.993 24.6957C289.584 23.9367 289.409 23.061 289.409 22.0102H286.312C286.312 23.5281 286.605 24.8124 287.13 25.9217C287.656 27.0309 288.416 27.9066 289.35 28.6072C290.285 29.3077 291.395 29.8332 292.622 30.1834C293.849 30.5337 295.134 30.7089 296.536 30.7089C297.646 30.7089 298.814 30.5921 299.924 30.3002C301.093 30.0083 302.086 29.5996 303.02 29.0158C303.955 28.432 304.715 27.6731 305.299 26.739C305.883 25.8049 306.175 24.6957 306.175 23.3529C306 22.4188 305.766 21.4264 305.357 20.6091Z" fill="#1FB4B3"/>
<path d="M57.7182 18.0395C57.7182 26.855 63.5017 30.9416 70.6289 30.9416H87.8625V5.13748H70.6289C63.5017 5.13748 57.7182 9.39925 57.7182 18.0395ZM80.3265 11.6177V24.4614H71.7388C69.6942 24.4614 68.1753 23.8192 67.1821 22.8851C66.0722 21.8927 65.3127 20.3748 65.3127 18.0979C65.3127 15.8795 66.0722 14.2448 67.1821 13.2524C68.2337 12.3183 69.7526 11.6761 71.7388 11.6761H80.3265V11.6177ZM17.2337 5.13748H7.53608V0H0V30.9416H17.2337C24.3608 30.9416 30.1443 26.855 30.1443 18.0395C30.1443 9.39925 24.3608 5.13748 17.2337 5.13748ZM20.6804 22.8851C19.6289 23.8192 18.11 24.4614 16.1237 24.4614H7.53608V11.6177H16.1237C18.11 11.6177 19.6289 12.2015 20.6804 13.194C21.7904 14.1864 22.5498 15.8211 22.5498 18.0395C22.5498 20.3164 21.7904 21.8343 20.6804 22.8851ZM34.0584 17.2222V30.9416H41.5945V17.7476C41.5945 14.3616 44.3402 11.6177 47.7285 11.6177H55.6735V5.13748H46.1512C39.4914 5.13748 34.0584 10.5669 34.0584 17.2222ZM122.213 5.13748H114.677V16.9887C114.151 21.7759 111.172 23.2938 107.199 24.4614C103.227 23.2938 100.247 21.7759 99.7216 16.9887V5.13748H92.1856V17.0471C92.1856 17.0471 91.8935 29.1902 107.199 30.9416C122.505 29.1902 122.213 17.0471 122.213 17.0471V5.13748ZM151.423 7.58945C147.041 4.78719 141.082 5.13748 141.082 5.13748C141.082 5.13748 135.124 4.78719 130.742 7.58945C127.88 9.39925 125.952 12.6102 125.952 18.0395C125.952 23.4689 127.88 26.6215 130.742 28.4896C135.124 31.2919 141.082 30.9416 141.082 30.9416C141.082 30.9416 147.041 31.2919 151.423 28.4896C154.285 26.6798 156.213 23.4689 156.213 18.0395C156.213 12.6102 154.285 9.45763 151.423 7.58945ZM146.632 22.8267C145.289 23.936 143.127 24.4614 141.082 24.4614C138.863 24.4614 136.584 23.936 135.182 22.5932C133.955 21.4256 133.488 19.6742 133.488 18.0395C133.488 16.2298 134.072 14.3616 135.474 13.194C136.818 12.0264 139.038 11.6177 141.082 11.6177C143.01 11.6177 144.938 12.0264 146.282 13.0188C147.859 14.1864 148.619 16.113 148.619 18.0395C148.619 19.8493 148.034 21.6591 146.632 22.8267Z" fill="url(#paint0_linear)"/>
<path d="M238.818 5.13672V7.8806H224.914V16.6377H237.766V19.3815H224.914V28.1386H238.818V30.9409H221.643V5.13672H238.818Z" fill="#1DB3B1"/>
</g>
<defs>
<linearGradient id="paint0_linear" x1="0" y1="15.4876" x2="156.221" y2="15.4876" gradientUnits="userSpaceOnUse">
<stop stop-color="#1FB4B3"/>
<stop offset="0.2556" stop-color="#24ABB5"/>
<stop offset="0.6709" stop-color="#3093B9"/>
<stop offset="1" stop-color="#3C7BBE"/>
</linearGradient>
<clipPath id="clip0">
<rect width="306" height="31" fill="white"/>
</clipPath>
</defs>
</svg>
