<svg width="20" height="18" viewBox="0 0 20 18" fill="none" xmlns="http://www.w3.org/2000/svg">
<path fill-rule="evenodd" clip-rule="evenodd" d="M12.4195 2.13422C10.8871 1.49162 9.17226 1.33166 7.53276 1.68029C5.89347 2.02888 4.4254 2.86537 3.34377 4.05644C2.26281 5.24676 1.6251 6.7274 1.5166 8.27604C1.40811 9.82448 1.8337 11.3684 2.73682 12.6786C3.64055 13.9896 4.97615 14.9984 6.55062 15.5458C8.12543 16.0934 9.84798 16.1475 11.459 15.6991C13.0697 15.2509 14.4752 14.3269 15.4707 13.0736C16.4655 11.8211 16.9991 10.3059 17 8.75412V8.01857C17 7.60436 17.3358 7.26857 17.75 7.26857C18.1642 7.26857 18.5 7.60436 18.5 8.01857V8.75457C18.4989 10.6531 17.8454 12.4955 16.6452 14.0065C15.4457 15.5166 13.7659 16.6142 11.8611 17.1442C9.95666 17.6742 7.92192 17.6108 6.05798 16.9626C4.19371 16.3144 2.59337 15.1133 1.50182 13.5299C0.409659 11.9456 -0.112457 10.0656 0.0202638 8.17121C0.15297 6.27706 0.932449 4.48051 2.23332 3.04802C3.53351 1.61629 5.28428 0.624885 7.22077 0.213097C9.15706 -0.198648 11.1833 -0.0107284 12.9996 0.750934C13.3815 0.911124 13.5613 1.35064 13.4011 1.73263C13.241 2.11461 12.8014 2.29441 12.4195 2.13422Z" fill="#20B4B3"/>
<path fill-rule="evenodd" clip-rule="evenodd" d="M19.295 3.23474C19.5796 3.53573 19.5662 4.01042 19.2653 4.29499L10.8037 12.295C10.5147 12.5682 10.0626 12.5684 9.77348 12.2952L7.23502 9.89764C6.93389 9.61322 6.92034 9.13854 7.20476 8.83741C7.48918 8.53628 7.96386 8.52274 8.26499 8.80716L10.2882 10.7181L18.2347 3.20502C18.5357 2.92045 19.0104 2.93376 19.295 3.23474Z" fill="#20B4B3"/>
</svg>
