<svg width="161" height="19" viewBox="0 0 161 19" fill="none" xmlns="http://www.w3.org/2000/svg">
<g clip-path="url(#clip0)">
<path d="M35.9145 11.0696C35.9145 16.4667 39.4948 19 43.9701 19H54.7109V3.13913H43.9142C39.4948 3.13913 35.9145 5.72754 35.9145 11.0696ZM49.9559 7.15942V15.0348H44.6414C43.3548 15.0348 42.4597 14.6493 41.7884 14.0435C41.1171 13.4377 40.6696 12.5014 40.6696 11.0696C40.6696 9.69275 41.1171 8.70145 41.8443 8.09565C42.5156 7.48985 43.4107 7.15942 44.6974 7.15942H49.9559ZM10.7408 3.13913H4.6991V0H0V19H10.7408C15.1602 19 18.7964 16.4667 18.7964 11.0696C18.7404 5.72754 15.1602 3.13913 10.7408 3.13913ZM12.8666 13.9884C12.1953 14.5391 11.3002 14.9797 10.0136 14.9797H4.6991V7.15942H10.0136C11.2443 7.15942 12.1953 7.54493 12.8666 8.09565C13.5379 8.70145 14.0414 9.69275 14.0414 11.0696C14.0414 12.4464 13.5379 13.3826 12.8666 13.9884ZM21.2019 10.5739V19H25.901V10.8493C25.901 8.75652 27.5792 7.10435 29.705 7.10435H34.6279V3.13913H28.6981C24.5584 3.13913 21.2019 6.44348 21.2019 10.5739ZM76.0247 3.13913H71.3256V10.4087C70.9899 13.3275 69.1439 14.2638 66.6824 14.9797C64.221 14.2638 62.3749 13.3275 62.0393 10.4087V3.13913H57.3402V10.4638C57.3402 10.4638 57.1723 17.8986 66.6824 19C76.1925 17.9536 76.0247 10.4638 76.0247 10.4638V3.13913ZM94.2057 4.68116C91.4646 2.97391 87.7724 3.13913 87.7724 3.13913C87.7724 3.13913 84.0243 2.91884 81.3391 4.68116C79.549 5.78261 78.3742 7.76522 78.3742 11.0696C78.3742 14.3739 79.549 16.3565 81.3391 17.458C84.0803 19.1652 87.7724 19 87.7724 19C87.7724 19 91.5205 19.2203 94.2057 17.458C95.9958 16.3565 97.1706 14.3739 97.1706 11.0696C97.1706 7.76522 95.9958 5.78261 94.2057 4.68116ZM91.2408 13.9884C90.4017 14.7043 89.0591 14.9797 87.7724 14.9797C86.3739 14.9797 84.9753 14.6493 84.1362 13.8232C83.353 13.1072 83.0733 12.0609 83.0733 11.0145C83.0733 9.91304 83.409 8.75652 84.304 8.04058C85.1432 7.32464 86.4858 7.04928 87.7724 7.04928C88.9472 7.04928 90.1779 7.26957 91.017 7.87536C92.024 8.5913 92.4715 9.8029 92.4715 10.9594C92.4715 12.171 92.0799 13.2725 91.2408 13.9884Z" fill="white"/>
<path d="M109.366 5.39682C108.694 4.90117 107.799 4.68088 106.736 4.68088C106.289 4.68088 105.897 4.73595 105.45 4.79102C105.058 4.90117 104.666 5.01131 104.331 5.2316C103.995 5.45189 103.771 5.67218 103.548 6.00262C103.38 6.33305 103.268 6.77363 103.268 7.21421C103.268 7.65479 103.436 8.0403 103.66 8.37073C103.939 8.6461 104.331 8.92146 104.778 9.08668C105.226 9.25189 105.785 9.41711 106.345 9.52726C106.96 9.6374 107.519 9.80262 108.135 9.91276C108.75 10.0229 109.366 10.2432 109.925 10.4084C110.54 10.5736 111.044 10.849 111.491 11.1794C111.939 11.5099 112.33 11.8954 112.61 12.391C112.89 12.8867 113.002 13.4925 113.002 14.2635C113.002 15.0896 112.834 15.7504 112.442 16.3012C112.051 16.8519 111.603 17.3475 111.044 17.678C110.484 18.0635 109.813 18.2838 109.142 18.449C108.415 18.6142 107.743 18.6693 107.016 18.6693C106.177 18.6693 105.338 18.5591 104.555 18.3389C103.771 18.1186 103.1 17.7881 102.541 17.4026C101.981 16.962 101.478 16.4113 101.142 15.7504C100.807 15.0896 100.639 14.2635 100.639 13.3823H102.597C102.597 14.0432 102.709 14.5389 102.988 15.0345C103.212 15.4751 103.548 15.8606 103.995 16.191C104.387 16.4664 104.89 16.6867 105.45 16.8519C106.009 17.0171 106.568 17.0722 107.128 17.0722C107.575 17.0722 108.023 17.0171 108.526 16.962C108.974 16.8519 109.422 16.7417 109.757 16.5215C110.149 16.3012 110.428 16.0258 110.652 15.6954C110.876 15.3649 110.988 14.8693 110.988 14.3186C110.988 13.8229 110.82 13.3823 110.596 13.0519C110.317 12.7215 109.925 12.4461 109.477 12.2809C109.03 12.0606 108.471 11.8954 107.911 11.7852C107.296 11.6751 106.736 11.5099 106.121 11.3997C105.506 11.2896 104.89 11.1244 104.331 10.9591C103.715 10.7939 103.212 10.5736 102.764 10.2432C102.317 9.96784 101.925 9.58233 101.646 9.14175C101.366 8.70117 101.254 8.09537 101.254 7.4345C101.254 6.66349 101.422 6.00262 101.702 5.45189C102.037 4.90117 102.429 4.46059 102.932 4.07508C103.436 3.68957 104.051 3.46929 104.722 3.249C105.394 3.08378 106.065 2.97363 106.792 2.97363C107.575 2.97363 108.303 3.08378 108.974 3.249C109.645 3.41421 110.261 3.74465 110.764 4.13015C111.268 4.51566 111.659 5.01131 111.995 5.61711C112.275 6.22291 112.442 6.93885 112.498 7.76494H110.54C110.428 6.66349 110.037 5.89247 109.366 5.39682Z" fill="white"/>
<path d="M126.316 17.3478C125.253 18.3391 123.799 18.7797 121.841 18.7797C119.883 18.7797 118.317 18.3391 117.198 17.4029C116.079 16.4666 115.52 14.9797 115.52 12.9971V3.35938H117.589V12.9971C117.589 14.3739 117.981 15.3652 118.708 16.0811C119.435 16.7971 120.498 17.1275 121.897 17.1275C123.184 17.1275 124.19 16.7971 124.862 16.0811C125.533 15.3652 125.869 14.3739 125.869 12.9971V3.35938H127.939V12.9971C127.883 14.9246 127.379 16.3565 126.316 17.3478Z" fill="white"/>
<path d="M133.252 3.35938V18.4492H131.183V3.35938H133.252Z" fill="white"/>
<path d="M135.658 5.01155V3.35938H147.965V5.06662H142.875V18.5043H140.805V5.01155H135.658Z" fill="white"/>
<path d="M160.943 3.35938V5.06662H152.384V9.85792H160.384V11.5652H152.384V16.7971H160.999V18.5043H150.314V3.35938H160.943Z" fill="white"/>
</g>
<defs>
<clipPath id="clip0">
<rect width="161" height="19" fill="white"/>
</clipPath>
</defs>
</svg>
