<svg xmlns="http://www.w3.org/2000/svg" width="307" height="31" fill="none" viewBox="0 0 307 31">
    <path fill="#1FB4B3" d="M173.751 18.646c-.735-.527-1.528-.936-2.433-1.287-.905-.292-1.867-.584-2.772-.818-.962-.234-1.867-.468-2.772-.643-.906-.176-1.754-.468-2.433-.76-.736-.293-1.302-.702-1.754-1.17-.453-.467-.679-1.11-.679-1.87 0-.819.17-1.462.452-2.047.283-.526.679-.994 1.189-1.286.509-.35 1.075-.526 1.697-.701.622-.117 1.301-.234 1.98-.234 1.641 0 2.999.409 4.074 1.169 1.075.818 1.697 2.105 1.867 3.859h2.999c-.057-1.345-.283-2.514-.736-3.508-.453-.994-1.075-1.813-1.867-2.456s-1.697-1.11-2.772-1.403c-1.075-.292-2.207-.468-3.395-.468-1.075 0-2.15.117-3.168.41-1.019.292-1.981.701-2.773 1.286-.792.585-1.471 1.345-1.98 2.222-.509.935-.736 1.987-.736 3.215 0 1.11.227 2.046.679 2.806.453.76 1.019 1.345 1.754 1.813.736.467 1.528.877 2.433 1.169.905.292 1.867.526 2.773.76.961.234 1.867.41 2.772.643.905.234 1.754.468 2.433.819.735.35 1.301.76 1.754 1.286.452.526.679 1.228.679 2.046 0 .877-.17 1.637-.51 2.222-.339.584-.848 1.052-1.414 1.344-.566.351-1.245.585-1.98.702-.736.117-1.471.234-2.15.234-.906 0-1.754-.117-2.603-.351-.849-.234-1.584-.585-2.206-1.052-.623-.468-1.132-1.111-1.528-1.871-.396-.76-.566-1.637-.566-2.69h-2.998c0 1.52.282 2.807.792 3.918.509 1.11 1.244 1.987 2.15 2.689.905.701 1.98 1.228 3.168 1.578 1.188.351 2.433.527 3.791.527 1.075 0 2.206-.117 3.281-.41 1.132-.292 2.094-.701 2.999-1.286.905-.584 1.641-1.345 2.206-2.28.566-.935.849-2.046.849-3.39 0-1.229-.226-2.223-.679-3.041-.566-.526-1.188-1.17-1.867-1.695zm22.122 2.864c0 2.222-.509 3.917-1.584 5.028-1.075 1.17-2.603 1.696-4.639 1.696-2.15 0-3.791-.585-4.923-1.696-1.131-1.11-1.697-2.806-1.697-5.028V5.14h-3.168v16.37c0 3.274.848 5.73 2.602 7.191 1.754 1.52 4.13 2.28 7.186 2.28 2.998 0 5.318-.818 6.959-2.397 1.64-1.578 2.433-3.975 2.433-7.132V5.082h-3.169V21.51zm26.479 6.373c-.113-.585-.17-1.228-.17-1.813 0-.643-.057-1.812-.113-2.396-.057-.585-.17-1.17-.283-1.754-.113-.527-.34-1.053-.566-1.52-.283-.468-.622-.819-1.018-1.17-.453-.35-1.019-.526-1.698-.701v-.059c1.471-.41 2.546-1.17 3.169-2.338.905-1.637.962-3.04.962-4.502 0-1.988-.623-3.566-1.924-4.736-1.301-1.169-3.055-1.754-5.318-1.754h-11.259v25.841h3.168V19.873h7.751c.792 0 1.415.117 1.867.351.453.234.849.585 1.132.994.283.41.509.877.622 1.403.113.526.226 1.11.34 1.696.113.584.169 1.753.226 2.397 0 .643.057 1.227.057 1.754 0 .526.056 1.052.169 1.461.057.41.227.76.453 1.053h3.564c-.339-.41-.565-.877-.735-1.462-.17-.468-.34-1.052-.396-1.637zm-4.527-11.576c-.509.35-1.075.585-1.753.702-.679.116-1.358.175-2.094.175h-6.619V7.947h7.92c1.471 0 2.603.409 3.225 1.169.679.76 1.019 1.812 1.019 3.04 0 .877 0 1.93-.453 2.806-.396.527-.792.994-1.245 1.345zm16.352 11.4h-.057L227.274 5.14h-3.395l8.374 25.841h3.621l8.487-25.84h-3.338l-6.846 22.566zm41.585-10.815L268.576 5.14h-3.791l9.223 15.786v10.056h3.168V20.925l9.109-15.786h-3.621l-6.902 11.752zm30.439 3.741c-.453-.818-1.019-1.461-1.754-1.987-.736-.527-1.528-.936-2.433-1.287-.905-.292-1.867-.584-2.773-.818-.961-.234-1.867-.468-2.772-.643-.905-.176-1.754-.468-2.433-.76-.735-.293-1.301-.702-1.754-1.17-.452-.467-.679-1.11-.679-1.87 0-.819.17-1.462.453-2.047.283-.526.679-.994 1.188-1.286.509-.35 1.075-.526 1.697-.701.623-.117 1.302-.234 1.981-.234 1.64 0 2.998.409 4.073 1.169 1.075.818 1.698 2.105 1.867 3.859h2.999c-.057-1.345-.283-2.514-.735-3.508-.453-.994-1.075-1.813-1.868-2.456-.792-.643-1.697-1.11-2.772-1.403-1.075-.292-2.206-.468-3.395-.468-1.075 0-2.15.117-3.168.41-1.018.292-1.98.701-2.772 1.286-.792.585-1.471 1.345-1.98 2.222-.51.935-.736 1.987-.736 3.215 0 1.11.226 2.046.679 2.806.453.76 1.018 1.345 1.754 1.813.735.467 1.527.877 2.433 1.169.905.292 1.867.526 2.772.76.962.234 1.867.41 2.772.643.906.234 1.754.468 2.433.819.736.35 1.302.76 1.754 1.286.453.526.679 1.228.679 2.046 0 .877-.17 1.637-.509 2.222-.34.584-.849 1.052-1.415 1.344-.565.351-1.244.585-1.98.702-.735.117-1.471.234-2.15.234-.905 0-1.754-.117-2.602-.351-.849-.234-1.585-.585-2.207-1.052-.622-.468-1.131-1.111-1.527-1.871-.397-.76-.566-1.637-.566-2.69h-2.999c0 1.52.283 2.807.792 3.918.509 1.11 1.245 1.987 2.15 2.689.905.701 1.98 1.228 3.169 1.578 1.188.351 2.432.527 3.79.527 1.075 0 2.207-.117 3.282-.41 1.131-.292 2.093-.701 2.998-1.286.906-.584 1.641-1.345 2.207-2.28.566-.935.849-2.046.849-3.39-.114-.936-.34-1.93-.792-2.749z"/>
    <path fill="url(#paint0_linear)" d="M55.9 18.065c0 8.828 5.6 12.921 12.503 12.921h16.69V5.145h-16.69c-6.903 0-12.504 4.268-12.504 12.92zm21.895-6.43v12.862h-8.317c-1.98 0-3.451-.644-4.413-1.58-1.075-.993-1.81-2.513-1.81-4.793 0-2.222.735-3.859 1.81-4.853 1.018-.935 2.49-1.578 4.413-1.578h8.317v-.059zm-61.104-6.49H7.299V0H0v30.986h16.69c6.903 0 12.504-4.093 12.504-12.92 0-8.653-5.6-12.921-12.503-12.921zm3.338 17.773c-1.019.935-2.49 1.579-4.413 1.579H7.299V11.634h8.317c1.923 0 3.394.585 4.413 1.579 1.075.994 1.81 2.63 1.81 4.852 0 2.28-.735 3.8-1.81 4.853zm12.956-5.671v13.739h7.299V17.773c0-3.39 2.659-6.139 5.94-6.139h7.695v-6.49h-9.222c-6.45 0-11.712 5.438-11.712 12.103zm85.376-12.102h-7.298v11.868c-.509 4.794-3.395 6.314-7.242 7.483-3.847-1.169-6.733-2.689-7.242-7.483V5.145H89.28v11.927s-.283 12.16 14.541 13.914c14.823-1.754 14.54-13.915 14.54-13.915V5.146zm28.29 2.455c-4.244-2.806-10.015-2.455-10.015-2.455s-5.771-.35-10.014 2.455c-2.772 1.813-4.639 5.028-4.639 10.465 0 5.438 1.867 8.595 4.639 10.465 4.243 2.807 10.014 2.456 10.014 2.456s5.771.35 10.015-2.456c2.772-1.812 4.639-5.027 4.639-10.465 0-5.437-1.867-8.594-4.639-10.465zm-4.64 15.26c-1.301 1.11-3.395 1.637-5.375 1.637-2.15 0-4.356-.527-5.714-1.871-1.188-1.17-1.641-2.924-1.641-4.56 0-1.813.566-3.684 1.924-4.853 1.301-1.17 3.451-1.579 5.431-1.579 1.867 0 3.734.41 5.036 1.403 1.527 1.17 2.263 3.1 2.263 5.028 0 1.813-.566 3.625-1.924 4.794z"/>
    <path fill="#1DB3B1" d="M263.541 5.148v2.748h-13.465v8.77h12.447v2.748h-12.447v8.77h13.465v2.806h-16.634V5.148h16.634z"/>
    <defs>
        <linearGradient id="paint0_linear" x1="0" x2="151.298" y1="15.51" y2="15.51" gradientUnits="userSpaceOnUse">
            <stop stop-color="#1FB4B3"/>
            <stop offset=".256" stop-color="#24ABB5"/>
            <stop offset=".671" stop-color="#3093B9"/>
            <stop offset="1" stop-color="#3C7BBE"/>
        </linearGradient>
    </defs>
</svg>
