<svg width="246" height="24" viewBox="0 0 246 24" fill="none" xmlns="http://www.w3.org/2000/svg">
<path d="M126.315 23.9101H128.842V3.9703H126.315V23.9101ZM145.894 20.3462H145.849L135.789 3.9703H133.082V23.9101H135.473V7.71466H135.518L145.488 23.9101H148.285V3.9703H145.894V20.3462ZM164.706 14.3462C164.12 13.9402 163.488 13.6244 162.767 13.3538C162.045 13.1282 161.278 12.9026 160.556 12.7222C159.789 12.5417 159.067 12.3613 158.346 12.2259C157.624 12.0906 156.947 11.865 156.406 11.6395C155.819 11.4139 155.368 11.0981 155.007 10.7372C154.646 10.3763 154.466 9.88007 154.466 9.29361C154.466 8.66203 154.601 8.16579 154.827 7.71466C155.052 7.30865 155.368 6.94774 155.774 6.72218C156.18 6.4515 156.631 6.31616 157.127 6.18083C157.624 6.0906 158.165 6.00037 158.706 6.00037C160.015 6.00037 161.097 6.31616 161.955 6.90263C162.812 7.53421 163.308 8.52669 163.443 9.88007H165.834C165.789 8.84248 165.609 7.94022 165.248 7.17331C164.887 6.40639 164.391 5.77481 163.759 5.27857C163.127 4.78233 162.406 4.42143 161.549 4.19586C160.691 3.9703 159.789 3.83496 158.842 3.83496C157.985 3.83496 157.127 3.92519 156.315 4.15075C155.503 4.37631 154.736 4.6921 154.105 5.14323C153.473 5.59436 152.932 6.18083 152.526 6.85752C152.12 7.57932 151.939 8.39135 151.939 9.33872C151.939 10.1959 152.12 10.9177 152.481 11.5041C152.842 12.0906 153.293 12.5417 153.879 12.9026C154.466 13.2635 155.097 13.5793 155.819 13.8049C156.541 14.0304 157.308 14.2109 158.03 14.3914C158.797 14.5718 159.518 14.7071 160.24 14.8876C160.962 15.068 161.639 15.2485 162.18 15.5192C162.767 15.7898 163.218 16.1056 163.579 16.5117C163.939 16.9177 164.12 17.459 164.12 18.0906C164.12 18.7673 163.985 19.3538 163.714 19.8049C163.443 20.256 163.037 20.6169 162.586 20.8425C162.135 21.1132 161.594 21.2936 161.007 21.3838C160.421 21.4741 159.834 21.5643 159.293 21.5643C158.571 21.5643 157.894 21.4741 157.218 21.2936C156.541 21.1132 155.955 20.8425 155.458 20.4816C154.962 20.1207 154.556 19.6244 154.24 19.038C153.924 18.4515 153.789 17.7748 153.789 16.9628H151.398C151.398 18.1357 151.624 19.1282 152.03 19.9853C152.436 20.8425 153.022 21.5192 153.744 22.0605C154.466 22.6019 155.323 23.0079 156.27 23.2786C157.218 23.5492 158.21 23.6846 159.293 23.6846C160.15 23.6846 161.052 23.5944 161.909 23.3688C162.812 23.1432 163.579 22.8274 164.3 22.3763C165.022 21.9252 165.609 21.3387 166.06 20.6169C166.511 19.8951 166.736 19.038 166.736 18.0004C166.736 17.053 166.556 16.2861 166.195 15.6545C165.744 15.2936 165.293 14.7523 164.706 14.3462ZM243.654 14.3462C243.067 13.9402 242.436 13.6244 241.714 13.3538C240.992 13.1282 240.225 12.9026 239.503 12.7222C238.736 12.5417 238.015 12.3613 237.293 12.2259C236.571 12.0906 235.894 11.865 235.353 11.6395C234.767 11.4139 234.315 11.0981 233.955 10.7372C233.594 10.3763 233.413 9.88007 233.413 9.29361C233.413 8.66203 233.549 8.16579 233.774 7.71466C234 7.30865 234.315 6.94774 234.721 6.72218C235.127 6.4515 235.579 6.31616 236.075 6.18083C236.571 6.0906 237.112 6.00037 237.654 6.00037C238.962 6.00037 240.045 6.31616 240.902 6.90263C241.759 7.53421 242.255 8.52669 242.391 9.88007H244.782C244.736 8.84248 244.556 7.94022 244.195 7.17331C243.834 6.40639 243.338 5.77481 242.706 5.27857C242.075 4.78233 241.353 4.42143 240.496 4.19586C239.639 3.9703 238.736 3.83496 237.789 3.83496C236.932 3.83496 236.075 3.92519 235.263 4.15075C234.451 4.37631 233.684 4.6921 233.052 5.14323C232.421 5.59436 231.879 6.18083 231.473 6.85752C231.067 7.57932 230.887 8.39135 230.887 9.33872C230.887 10.1959 231.067 10.9177 231.428 11.5041C231.789 12.0906 232.24 12.5417 232.827 12.9026C233.413 13.2635 234.045 13.5793 234.767 13.8049C235.488 14.0304 236.255 14.2109 236.977 14.3914C237.744 14.5718 238.466 14.7071 239.188 14.8876C239.909 15.068 240.586 15.2485 241.127 15.5192C241.714 15.7898 242.165 16.1056 242.526 16.5117C242.887 16.9177 243.067 17.459 243.067 18.0906C243.067 18.7673 242.932 19.3538 242.661 19.8049C242.391 20.256 241.985 20.6169 241.533 20.8425C241.082 21.1132 240.541 21.2936 239.955 21.3838C239.368 21.4741 238.782 21.5643 238.24 21.5643C237.518 21.5643 236.842 21.4741 236.165 21.2936C235.488 21.1132 234.902 20.8425 234.406 20.4816C233.909 20.1207 233.503 19.6244 233.188 19.038C232.872 18.4515 232.736 17.7748 232.736 16.9628H230.346C230.346 18.1357 230.571 19.1282 230.977 19.9853C231.383 20.8425 231.97 21.5192 232.691 22.0605C233.413 22.6019 234.27 23.0079 235.218 23.2786C236.165 23.5492 237.158 23.6846 238.24 23.6846C239.097 23.6846 240 23.5944 240.857 23.3688C241.759 23.1432 242.526 22.8274 243.248 22.3763C243.97 21.9252 244.556 21.3387 245.007 20.6169C245.458 19.8951 245.684 19.038 245.684 18.0004C245.684 17.053 245.503 16.2861 245.143 15.6545C244.691 15.2936 244.195 14.7523 243.654 14.3462ZM169.804 23.9101H172.33V3.9703H169.804V23.9101ZM184.736 15.6094H190.827C190.872 16.4665 190.736 17.2786 190.466 18.0455C190.195 18.8124 189.789 19.444 189.293 20.0304C188.752 20.5718 188.12 21.0229 187.353 21.3387C186.586 21.6545 185.729 21.835 184.691 21.835C183.609 21.835 182.706 21.6094 181.894 21.2034C181.082 20.7974 180.406 20.2109 179.864 19.5342C179.323 18.8124 178.917 18.0004 178.601 17.0981C178.33 16.1959 178.195 15.2485 178.195 14.2109C178.195 13.2184 178.33 12.2259 178.556 11.2335C178.827 10.2861 179.188 9.38383 179.729 8.66203C180.27 7.89511 180.947 7.30865 181.759 6.8124C182.571 6.36128 183.564 6.13571 184.736 6.13571C185.458 6.13571 186.135 6.22594 186.767 6.40639C187.398 6.58684 187.985 6.8124 188.481 7.17331C188.977 7.4891 189.383 7.94022 189.744 8.48158C190.06 9.02293 190.33 9.65451 190.421 10.3763H192.947C192.767 9.24849 192.451 8.30113 191.955 7.4891C191.458 6.67707 190.872 6.04549 190.15 5.54925C189.428 5.05301 188.616 4.64699 187.714 4.42143C186.812 4.19586 185.819 4.06052 184.782 4.06052C183.248 4.06052 181.939 4.3312 180.812 4.91767C179.684 5.45902 178.736 6.22594 177.97 7.17331C177.203 8.12067 176.661 9.20338 176.255 10.4665C175.894 11.7297 175.669 13.038 175.669 14.4365C175.669 15.6996 175.894 16.8726 176.3 18.0455C176.706 19.2184 177.293 20.2109 178.105 21.1132C178.872 22.0154 179.819 22.6921 180.947 23.2335C182.075 23.7748 183.338 24.0004 184.782 24.0004C185.909 24.0004 186.992 23.7748 188.12 23.3688C189.203 22.9177 190.15 22.1959 190.917 21.2034L191.594 24.0004H193.173V13.444H184.827V15.6094H184.736ZM209.413 12.8575H199.398V3.9703H196.872V23.9101H199.398V15.0229H209.413V23.9101H211.939V3.9703H209.413V12.8575ZM214.06 3.9703V6.0906H220.421V23.9101H222.947V6.0906H229.308V3.9703H214.06Z" fill="white"/>
<path d="M44.5714 13.9398C44.5714 20.7519 49.0376 23.9098 54.5414 23.9098H67.8496V3.96992H54.5414C49.0376 3.96992 44.5714 7.26316 44.5714 13.9398ZM62.0301 8.97744V18.9023H55.3985C53.8196 18.9023 52.6466 18.406 51.8797 17.6842C51.0226 16.9173 50.4361 15.7444 50.4361 13.985C50.4361 12.2707 51.0226 11.0075 51.8797 10.2406C52.6917 9.5188 53.8647 9.02256 55.3985 9.02256H62.0301V8.97744ZM13.3083 3.96992H5.81955V0H0V23.9098H13.3083C18.812 23.9098 23.2782 20.7519 23.2782 13.9398C23.2782 7.26316 18.812 3.96992 13.3083 3.96992ZM15.9699 17.6842C15.1579 18.406 13.985 18.9023 12.4511 18.9023H5.81955V8.97744H12.4511C13.985 8.97744 15.1579 9.42857 15.9699 10.1955C16.8271 10.9624 17.4135 12.2256 17.4135 13.9398C17.4135 15.6992 16.8271 16.8722 15.9699 17.6842ZM26.3008 13.3083V23.9098H32.1203V13.7143C32.1203 11.0977 34.2406 8.97744 36.8571 8.97744H42.9925V3.96992H35.6391C30.4962 3.96992 26.3008 8.16541 26.3008 13.3083ZM94.3759 3.96992H88.5564V13.1278C88.1504 16.8271 85.8496 18 82.782 18.9023C79.7143 18 77.4135 16.8271 77.0075 13.1278V3.96992H71.188V13.1729C71.188 13.1729 70.9624 22.5564 82.782 23.9098C94.6015 22.5564 94.3759 13.1729 94.3759 13.1729V3.96992V3.96992ZM116.932 5.86466C113.549 3.69925 108.947 3.96992 108.947 3.96992C108.947 3.96992 104.346 3.69925 100.962 5.86466C98.7519 7.26316 97.2632 9.74436 97.2632 13.9398C97.2632 18.1353 98.7519 20.5714 100.962 22.015C104.346 24.1805 108.947 23.9098 108.947 23.9098C108.947 23.9098 113.549 24.1805 116.932 22.015C119.143 20.6165 120.632 18.1353 120.632 13.9398C120.632 9.74436 119.143 7.30827 116.932 5.86466ZM113.233 17.6391C112.195 18.4962 110.526 18.9023 108.947 18.9023C107.233 18.9023 105.474 18.4962 104.391 17.4586C103.444 16.5564 103.083 15.203 103.083 13.9398C103.083 12.5414 103.534 11.0977 104.617 10.1955C105.654 9.29323 107.368 8.97744 108.947 8.97744C110.436 8.97744 111.925 9.29323 112.962 10.0602C114.18 10.9624 114.767 12.4511 114.767 13.9398C114.767 15.3383 114.316 16.7368 113.233 17.6391Z" fill="white"/>
</svg>
