<svg width="237" height="24" viewBox="0 0 237 24" fill="none" xmlns="http://www.w3.org/2000/svg">
<path d="M139.662 3.97711H124.385V6.10142H130.758V23.9547H133.289V6.10142H139.662V3.97711ZM144.498 3.97711L137.085 23.9999H139.662L141.786 18.2597H149.876L151.956 23.9999H154.758L147.345 3.97711H144.498ZM142.6 16.0902L145.854 6.28222H145.899L149.063 16.0902H142.6ZM159.187 4.47429H156.656V23.9547H169.312V21.8304H159.187V4.47429ZM200.634 20.384H200.589L190.51 4.02231H187.798V23.9547H190.193V7.77375H190.238L200.272 23.9547H203.075V4.02231H200.679V20.384H200.634ZM205.109 6.14662H211.481V23.9547H214.013V6.14662H220.385V4.02231H205.109V6.14662V6.14662ZM236.25 15.9546C235.888 15.3218 235.436 14.8247 234.849 14.4179C234.261 14.0111 233.628 13.6947 232.905 13.4235C232.182 13.1975 231.414 12.9715 230.691 12.7907C229.922 12.6099 229.199 12.4292 228.476 12.2936C227.753 12.158 227.075 11.932 226.532 11.706C225.945 11.48 225.493 11.1636 225.131 10.802C224.77 10.4404 224.589 9.94326 224.589 9.35569C224.589 8.72291 224.724 8.22573 224.95 7.77375C225.176 7.36697 225.493 7.00539 225.9 6.7794C226.306 6.50821 226.758 6.37261 227.256 6.23702C227.753 6.14662 228.295 6.05623 228.837 6.05623C230.148 6.05623 231.233 6.37261 232.092 6.96019C232.951 7.59296 233.448 8.58732 233.583 9.94326H235.979C235.934 8.9037 235.753 7.99974 235.391 7.23138C235.03 6.46301 234.532 5.83024 233.9 5.33306C233.267 4.83588 232.544 4.47429 231.685 4.2483C230.826 4.02231 229.922 3.88672 228.973 3.88672C228.114 3.88672 227.256 3.97711 226.442 4.20311C225.628 4.4291 224.86 4.74548 224.227 5.19746C223.595 5.64944 223.052 6.23702 222.645 6.91499C222.239 7.63816 222.058 8.45172 222.058 9.40088C222.058 10.2596 222.239 10.9828 222.6 11.5704C222.962 12.158 223.414 12.6099 224.001 12.9715C224.589 13.3331 225.222 13.6495 225.945 13.8755C226.668 14.1015 227.436 14.2823 228.16 14.4631C228.928 14.6439 229.651 14.7795 230.374 14.9602C231.097 15.141 231.775 15.3218 232.318 15.593C232.905 15.8642 233.357 16.1806 233.719 16.5874C234.08 16.9942 234.261 17.5365 234.261 18.1693C234.261 18.8473 234.126 19.4349 233.854 19.8868C233.583 20.3388 233.177 20.7004 232.725 20.9264C232.273 21.1976 231.73 21.3784 231.143 21.4688C230.555 21.5592 229.967 21.6496 229.425 21.6496C228.702 21.6496 228.024 21.5592 227.346 21.3784C226.668 21.1976 226.08 20.9264 225.583 20.5648C225.086 20.2032 224.679 19.706 224.363 19.1185C224.047 18.5309 223.911 17.8529 223.911 17.0394H221.515C221.515 18.2145 221.741 19.2089 222.148 20.0676C222.555 20.9264 223.143 21.6044 223.866 22.1467C224.589 22.6891 225.448 23.0959 226.397 23.3671C227.346 23.6383 228.34 23.7739 229.425 23.7739C230.284 23.7739 231.188 23.6835 232.047 23.4575C232.951 23.2315 233.719 22.9151 234.442 22.4631C235.165 22.0111 235.753 21.4236 236.205 20.7004C236.657 19.9772 236.883 19.1185 236.883 18.0789C236.747 17.3557 236.566 16.5874 236.25 15.9546Z" fill="white"/>
<path d="M44.6557 13.9662C44.6557 20.7911 49.1303 23.955 54.6445 23.955H67.9779V3.97743H54.6445C49.1303 3.97743 44.6557 7.27689 44.6557 13.9662ZM62.1473 8.99442V18.938H55.5032C53.9213 18.938 52.7461 18.4408 51.9778 17.7176C51.119 16.9493 50.5314 15.7741 50.5314 14.0114C50.5314 12.2939 51.119 11.0283 51.9778 10.26C52.7913 9.53679 53.9665 9.03961 55.5032 9.03961H62.1473V8.99442ZM13.3334 3.97743H5.83055V0H0V23.955H13.3334C18.8476 23.955 23.3222 20.7911 23.3222 13.9662C23.3222 7.27689 18.8476 3.97743 13.3334 3.97743ZM16.0001 17.7176C15.1866 18.4408 14.0114 18.938 12.4747 18.938H5.83055V8.99442H12.4747C14.0114 8.99442 15.1866 9.4464 16.0001 10.2148C16.8589 10.9831 17.4465 12.2487 17.4465 13.9662C17.4465 15.7289 16.8589 16.9041 16.0001 17.7176ZM26.3505 13.3334V23.955H32.181V13.7402C32.181 11.1187 34.3053 8.99442 36.9268 8.99442H43.0738V3.97743H35.7065C30.5539 3.97743 26.3505 8.18085 26.3505 13.3334ZM94.5544 3.97743H88.7238V13.1526C88.317 16.8589 86.0119 18.034 82.9385 18.938C79.865 18.034 77.5599 16.8589 77.1531 13.1526V3.97743H71.3226V13.1978C71.3226 13.1978 71.0966 22.599 82.9385 23.955C94.7804 22.599 94.5544 13.1978 94.5544 13.1978V3.97743V3.97743ZM117.153 5.87575C113.764 3.70624 109.153 3.97743 109.153 3.97743C109.153 3.97743 104.543 3.70624 101.153 5.87575C98.9386 7.27689 97.447 9.76278 97.447 13.9662C97.447 18.1696 98.9386 20.6103 101.153 22.0567C104.543 24.2262 109.153 23.955 109.153 23.955C109.153 23.955 113.764 24.2262 117.153 22.0567C119.368 20.6555 120.86 18.1696 120.86 13.9662C120.86 9.76278 119.368 7.32209 117.153 5.87575ZM113.447 17.6724C112.408 18.5312 110.735 18.938 109.153 18.938C107.436 18.938 105.673 18.5312 104.588 17.4917C103.639 16.5877 103.278 15.2318 103.278 13.9662C103.278 12.5651 103.73 11.1187 104.814 10.2148C105.854 9.3108 107.571 8.99442 109.153 8.99442C110.645 8.99442 112.136 9.3108 113.176 10.0792C114.396 10.9831 114.984 12.4747 114.984 13.9662C114.984 15.3673 114.532 16.7685 113.447 17.6724Z" fill="white"/>
<path d="M184.77 3.97754V6.10185H174.013V12.8816H183.956V15.0059H174.013V21.7856H184.77V23.9551H171.481V3.97754H184.77Z" fill="white"/>
</svg>
