<svg width="246" height="24" viewBox="0 0 246 24" fill="none" xmlns="http://www.w3.org/2000/svg">
<path d="M139.001 14.4387C138.412 14.0314 137.779 13.7145 137.055 13.443C136.33 13.2167 135.561 12.9903 134.837 12.8093C134.067 12.6282 133.343 12.4472 132.619 12.3114C131.895 12.1756 131.216 11.9493 130.673 11.723C130.084 11.4967 129.632 11.1798 129.269 10.8177C128.907 10.4556 128.726 9.95776 128.726 9.36934C128.726 8.73567 128.862 8.23778 129.088 7.78516C129.315 7.37779 129.632 7.01569 130.039 6.78938C130.446 6.5178 130.899 6.38202 131.397 6.24623C131.895 6.1557 132.438 6.06518 132.981 6.06518C134.294 6.06518 135.38 6.38202 136.24 6.97043C137.1 7.6041 137.598 8.59988 137.734 9.95776H140.132C140.087 8.91672 139.906 8.01147 139.544 7.242C139.182 6.47254 138.684 5.83887 138.05 5.34098C137.417 4.84309 136.692 4.48099 135.833 4.25468C134.973 4.02837 134.067 3.89258 133.117 3.89258C132.257 3.89258 131.397 3.9831 130.582 4.20942C129.767 4.43573 128.998 4.75257 128.364 5.20519C127.731 5.65782 127.187 6.24623 126.78 6.92517C126.373 7.64937 126.192 8.46409 126.192 9.41461C126.192 10.2746 126.373 10.9988 126.735 11.5872C127.097 12.1756 127.549 12.6282 128.138 12.9903C128.726 13.3524 129.36 13.6693 130.084 13.8956C130.808 14.1219 131.578 14.303 132.302 14.484C133.071 14.6651 133.796 14.8008 134.52 14.9819C135.244 15.1629 135.923 15.344 136.466 15.6156C137.055 15.8871 137.507 16.204 137.869 16.6113C138.231 17.0187 138.412 17.5619 138.412 18.1955C138.412 18.8745 138.277 19.4629 138.005 19.9155C137.734 20.3681 137.326 20.7302 136.874 20.9565C136.421 21.2281 135.878 21.4092 135.289 21.4997C134.701 21.5902 134.113 21.6808 133.569 21.6808C132.845 21.6808 132.166 21.5902 131.487 21.4092C130.808 21.2281 130.22 20.9566 129.722 20.5945C129.224 20.2324 128.817 19.7345 128.5 19.146C128.183 18.5576 128.047 17.8787 128.047 17.064H125.648C125.648 18.2408 125.875 19.2366 126.282 20.0966C126.689 20.9566 127.278 21.6355 128.002 22.1786C128.726 22.7218 129.586 23.1292 130.537 23.4007C131.487 23.6723 132.483 23.8081 133.569 23.8081C134.429 23.8081 135.335 23.7176 136.195 23.4913C137.1 23.2649 137.869 22.9481 138.594 22.4955C139.318 22.0428 139.906 21.4544 140.359 20.7302C140.811 20.006 141.038 19.146 141.038 18.105C141.038 17.1545 140.857 16.385 140.495 15.7514C140.042 15.344 139.544 14.8461 139.001 14.4387ZM156.699 16.6566C156.699 18.3766 156.291 19.6892 155.431 20.5492C154.571 21.4544 153.349 21.8618 151.72 21.8618C150 21.8618 148.687 21.4092 147.782 20.5492C146.877 19.6892 146.424 18.3766 146.424 16.6566V3.9831H143.889V16.6566C143.889 19.1913 144.568 21.0923 145.971 22.2239C147.374 23.4007 149.275 23.9891 151.72 23.9891C154.119 23.9891 155.974 23.3555 157.287 22.1334C158.6 20.9113 159.233 19.0555 159.233 16.6113V3.93784H156.699V16.6566ZM177.881 21.5902C177.791 21.1376 177.746 20.6397 177.746 20.1871C177.746 19.6892 177.7 18.7839 177.655 18.3313C177.61 17.8787 177.519 17.4261 177.429 16.9734C177.338 16.5661 177.157 16.1587 176.976 15.7966C176.75 15.4345 176.478 15.1629 176.161 14.8914C175.799 14.6198 175.347 14.484 174.804 14.3482V14.303C175.98 13.9861 176.84 13.3977 177.338 12.4925C178.062 11.2251 178.108 10.1388 178.108 9.00724C178.108 7.46832 177.61 6.24623 176.569 5.34098C175.528 4.43573 174.125 3.9831 172.314 3.9831H163.307V23.9891H165.842V15.3893H172.043C172.676 15.3893 173.174 15.4798 173.536 15.6608C173.898 15.8419 174.215 16.1135 174.441 16.4303C174.668 16.7471 174.849 17.1092 174.939 17.5166C175.03 17.924 175.12 18.3766 175.211 18.8292C175.301 19.2818 175.347 20.1871 175.392 20.685C175.392 21.1829 175.437 21.6355 175.437 22.0428C175.437 22.4502 175.482 22.8576 175.573 23.1744C175.618 23.4913 175.754 23.7628 175.935 23.9891H178.787C178.515 23.6723 178.334 23.3102 178.198 22.8576C178.062 22.4955 177.927 22.0428 177.881 21.5902ZM174.26 12.6282C173.853 12.8998 173.4 13.0809 172.857 13.1714C172.314 13.2619 171.771 13.3072 171.183 13.3072H165.887V6.1557H172.224C173.4 6.1557 174.306 6.47254 174.804 7.06095C175.347 7.64937 175.618 8.46409 175.618 9.41461C175.618 10.0935 175.618 10.9083 175.256 11.5872C174.939 11.9946 174.622 12.3567 174.26 12.6282ZM187.341 21.4544H187.296L181.819 3.9831H179.103L185.802 23.9891H188.699L195.489 3.9831H192.818L187.341 21.4544ZM220.609 13.0809L214.861 3.9831H211.828L219.206 16.204V23.9891H221.741V16.204L229.028 3.9831H226.131L220.609 13.0809ZM244.96 15.9777C244.598 15.344 244.146 14.8461 243.557 14.4387C242.969 14.0314 242.335 13.7145 241.611 13.443C240.887 13.2167 240.117 12.9903 239.393 12.8093C238.624 12.6282 237.899 12.4472 237.175 12.3114C236.451 12.1756 235.772 11.9493 235.229 11.723C234.641 11.4967 234.188 11.1798 233.826 10.8177C233.464 10.4556 233.283 9.95776 233.283 9.36934C233.283 8.73567 233.419 8.23778 233.645 7.78516C233.871 7.37779 234.188 7.01569 234.595 6.78938C235.003 6.5178 235.455 6.38202 235.953 6.24623C236.451 6.1557 236.994 6.06518 237.537 6.06518C238.85 6.06518 239.936 6.38202 240.796 6.97043C241.656 7.6041 242.154 8.59988 242.29 9.95776H244.689C244.644 8.91672 244.463 8.01147 244.1 7.242C243.738 6.47254 243.24 5.83887 242.607 5.34098C241.973 4.84309 241.249 4.48099 240.389 4.25468C239.529 4.02837 238.624 3.89258 237.673 3.89258C236.813 3.89258 235.953 3.9831 235.138 4.20942C234.324 4.43573 233.554 4.75257 232.921 5.20519C232.287 5.65782 231.744 6.24623 231.336 6.92517C230.929 7.64937 230.748 8.46409 230.748 9.41461C230.748 10.2746 230.929 10.9988 231.291 11.5872C231.653 12.1756 232.106 12.6282 232.694 12.9903C233.283 13.3524 233.916 13.6693 234.641 13.8956C235.365 14.1219 236.134 14.303 236.858 14.484C237.628 14.6651 238.352 14.8008 239.076 14.9819C239.801 15.1629 240.479 15.344 241.023 15.6156C241.611 15.8871 242.064 16.204 242.426 16.6113C242.788 17.0187 242.969 17.5619 242.969 18.1955C242.969 18.8745 242.833 19.4629 242.562 19.9155C242.29 20.3681 241.883 20.7302 241.43 20.9565C240.977 21.2281 240.434 21.4092 239.846 21.4997C239.257 21.5902 238.669 21.6808 238.126 21.6808C237.402 21.6808 236.723 21.5902 236.044 21.4092C235.365 21.2281 234.776 20.9566 234.278 20.5945C233.781 20.2324 233.373 19.7345 233.056 19.146C232.74 18.5576 232.604 17.8787 232.604 17.064H230.205C230.205 18.2408 230.431 19.2366 230.839 20.0966C231.246 20.9566 231.834 21.6355 232.559 22.1786C233.283 22.7218 234.143 23.1292 235.093 23.4007C236.044 23.6723 237.039 23.8081 238.126 23.8081C238.986 23.8081 239.891 23.7176 240.751 23.4913C241.656 23.2649 242.426 22.9481 243.15 22.4955C243.874 22.0428 244.463 21.4544 244.915 20.7302C245.368 20.006 245.594 19.146 245.594 18.105C245.504 17.3808 245.323 16.6113 244.96 15.9777Z" fill="white"/>
<path d="M44.7194 13.9861C44.7194 20.8208 49.2004 23.9891 54.7224 23.9891H68.0748V3.9831H54.7224C49.2004 3.9831 44.7194 7.28727 44.7194 13.9861ZM62.236 9.00724V18.965H55.5824C53.9982 18.965 52.8214 18.4671 52.0519 17.7429C51.1919 16.9734 50.6035 15.7966 50.6035 14.0314C50.6035 12.3114 51.1919 11.0441 52.0519 10.2746C52.8666 9.55039 54.0435 9.0525 55.5824 9.0525H62.236V9.00724ZM13.3524 3.9831H5.83887V0H0V23.9891H13.3524C18.8745 23.9891 23.3555 20.8208 23.3555 13.9861C23.3555 7.28727 18.8745 3.9831 13.3524 3.9831ZM16.0229 17.7429C15.2082 18.4671 14.0314 18.965 12.4925 18.965H5.83887V9.00724H12.4925C14.0314 9.00724 15.2082 9.45987 16.0229 10.2293C16.8829 10.9988 17.4713 12.2661 17.4713 13.9861C17.4713 15.7514 16.8829 16.9282 16.0229 17.7429ZM26.3881 13.3524V23.9891H32.2269V13.7598C32.2269 11.1346 34.3543 9.00724 36.9795 9.00724H43.1352V3.9831H35.7574C30.5975 3.9831 26.3881 8.19252 26.3881 13.3524ZM94.6892 3.9831H88.8503V13.1714C88.443 16.8829 86.1346 18.0597 83.0567 18.965C79.9789 18.0597 77.6705 16.8829 77.2631 13.1714V3.9831H71.4243V13.2167C71.4243 13.2167 71.198 22.6313 83.0567 23.9891C94.9155 22.6313 94.6892 13.2167 94.6892 13.2167V3.9831V3.9831ZM117.32 5.88413C113.926 3.71153 109.309 3.9831 109.309 3.9831C109.309 3.9831 104.692 3.71153 101.298 5.88413C99.0797 7.28727 97.586 9.77671 97.586 13.9861C97.586 18.1955 99.0797 20.6397 101.298 22.0881C104.692 24.2607 109.309 23.9891 109.309 23.9891C109.309 23.9891 113.926 24.2607 117.32 22.0881C119.538 20.685 121.032 18.1955 121.032 13.9861C121.032 9.77671 119.538 7.33253 117.32 5.88413ZM113.609 17.6976C112.568 18.5576 110.893 18.965 109.309 18.965C107.589 18.965 105.824 18.5576 104.737 17.5166C103.787 16.6113 103.425 15.2535 103.425 13.9861C103.425 12.583 103.877 11.1346 104.964 10.2293C106.005 9.32408 107.725 9.00724 109.309 9.00724C110.803 9.00724 112.296 9.32408 113.337 10.0935C114.559 10.9988 115.148 12.4925 115.148 13.9861C115.148 15.3893 114.695 16.7924 113.609 17.6976Z" fill="white"/>
<path d="M210.833 3.9834V6.11074H200.06V12.9001H210.018V15.0275H200.06V21.8168H210.833V23.9894H197.525V3.9834H210.833Z" fill="white"/>
</svg>
