<svg width="242" height="24" viewBox="0 0 242 24" fill="none" xmlns="http://www.w3.org/2000/svg">
<path d="M132.329 15.32H138.324C138.368 16.1637 138.235 16.963 137.968 17.7179C137.702 18.4728 137.302 19.0945 136.814 19.6718C136.281 20.2046 135.659 20.6487 134.904 20.9595C134.149 21.2704 133.306 21.448 132.284 21.448C131.219 21.448 130.331 21.226 129.531 20.8263C128.732 20.4266 128.066 19.8494 127.533 19.1833C127 18.4728 126.601 17.6735 126.29 16.7854C126.023 15.8973 125.89 14.9648 125.89 13.9434C125.89 12.9665 126.023 11.9896 126.245 11.0126C126.512 10.0801 126.867 9.19202 127.4 8.48153C127.933 7.72663 128.599 7.14936 129.398 6.66089C130.197 6.21684 131.174 5.99481 132.329 5.99481C133.039 5.99481 133.705 6.08362 134.327 6.26124C134.949 6.43887 135.526 6.66089 136.015 7.01614C136.503 7.32698 136.903 7.77104 137.258 8.3039C137.569 8.83677 137.835 9.45845 137.924 10.1689H140.411C140.233 9.0588 139.922 8.12628 139.434 7.32698C138.945 6.52768 138.368 5.906 137.658 5.41754C136.947 4.92907 136.148 4.52942 135.26 4.30739C134.372 4.08537 133.395 3.95215 132.373 3.95215C130.863 3.95215 129.576 4.21858 128.466 4.79586C127.355 5.32872 126.423 6.08362 125.668 7.01614C124.913 7.94866 124.38 9.01439 123.981 10.2578C123.625 11.5011 123.403 12.7889 123.403 14.1655C123.403 15.4088 123.625 16.5634 124.025 17.7179C124.425 18.8725 125.002 19.8494 125.801 20.7375C126.556 21.6256 127.489 22.2917 128.599 22.8246C129.709 23.3574 130.952 23.5794 132.373 23.5794C133.483 23.5794 134.549 23.3574 135.659 22.9578C136.725 22.5137 137.658 21.8032 138.412 20.8263L139.079 23.5794H140.633V13.2329H132.329V15.32Z" fill="white"/>
<path d="M163.723 10.0362C164.078 8.83723 164.655 7.8159 165.41 6.88338C166.165 5.95086 167.098 5.24037 168.208 4.70751C169.318 4.17464 170.65 3.9082 172.115 3.9082C173.625 3.9082 174.913 4.17464 176.023 4.70751C177.133 5.24037 178.066 5.99527 178.821 6.88338C179.576 7.8159 180.153 8.83723 180.508 10.0362C180.863 11.2351 181.085 12.4341 181.085 13.7219C181.085 15.0096 180.908 16.253 180.508 17.4075C180.153 18.6065 179.576 19.6278 178.821 20.5603C178.066 21.4928 177.133 22.2033 176.023 22.7362C174.913 23.2691 173.581 23.5355 172.115 23.5355C170.606 23.5355 169.318 23.2691 168.208 22.7362C167.098 22.2033 166.165 21.4928 165.41 20.5603C164.655 19.6278 164.078 18.6065 163.723 17.4075C163.368 16.2086 163.146 15.0096 163.146 13.7219C163.146 12.4341 163.368 11.2351 163.723 10.0362ZM166.032 16.5638C166.298 17.4963 166.654 18.2956 167.186 19.0505C167.719 19.8054 168.385 20.3827 169.229 20.8268C170.073 21.2708 171.05 21.4928 172.16 21.4928C173.314 21.4928 174.291 21.2708 175.091 20.8268C175.934 20.3827 176.6 19.8054 177.133 19.0505C177.666 18.2956 178.066 17.4963 178.288 16.5638C178.554 15.6313 178.643 14.6988 178.643 13.7663C178.643 12.8337 178.51 11.9012 178.288 10.9687C178.021 10.0362 177.666 9.23688 177.133 8.48199C176.6 7.72709 175.934 7.14982 175.091 6.70576C174.247 6.2617 173.27 6.03967 172.16 6.03967C171.005 6.03967 170.028 6.2617 169.229 6.70576C168.385 7.14982 167.719 7.72709 167.186 8.48199C166.654 9.23688 166.254 10.0362 166.032 10.9687C165.765 11.9012 165.677 12.8337 165.677 13.7663C165.677 14.6988 165.81 15.6313 166.032 16.5638Z" fill="white"/>
<path d="M199.558 23.5355L195.251 6.92779H195.206L190.899 23.5355H188.279L183.483 3.9082H186.015L189.7 20.3827H189.745L193.963 3.9082H196.672L200.846 20.3827H200.89L204.709 3.9082H207.196L202.178 23.5355H199.558Z" fill="white"/>
<path d="M209.505 5.99527V3.9082H224.514V5.99527H218.253V23.5355H215.766V5.99527H209.505Z" fill="white"/>
<path d="M159.816 22.4248C159.682 22.0252 159.593 21.5811 159.505 21.1371C159.416 20.693 159.371 20.2046 159.371 19.7605C159.371 19.272 159.327 18.3839 159.283 17.9399C159.238 17.4958 159.149 17.0518 159.061 16.6077C158.972 16.2081 158.794 15.8084 158.617 15.4532C158.395 15.0979 158.128 14.8315 157.817 14.565C157.462 14.2986 157.018 14.1654 156.485 14.0322V13.9878C157.64 13.6769 158.483 13.0997 158.972 12.2115C159.682 10.9682 159.727 9.90245 159.727 8.79231C159.727 7.28252 159.238 6.08356 158.217 5.19545C157.196 4.30734 155.819 3.86328 154.043 3.86328H145.206V23.535H147.693V15.0979H153.776C154.398 15.0979 154.886 15.1867 155.242 15.3643C155.597 15.542 155.908 15.8084 156.13 16.1192C156.352 16.4301 156.53 16.7853 156.618 17.185C156.707 17.5846 156.796 18.0287 156.885 18.4727C156.974 18.9168 157.018 19.8049 157.062 20.2934C157.062 20.7818 157.107 21.2259 157.107 21.6255C157.107 22.0252 157.151 22.4248 157.24 22.7357C157.284 23.0465 157.418 23.313 157.595 23.535H160.393C160.171 23.2241 159.949 22.8245 159.816 22.4248ZM155.952 12.3448C155.553 12.6112 155.109 12.7888 154.576 12.8776C154.043 12.9664 153.51 13.0108 152.933 13.0108H147.737V5.99475H153.954C155.109 5.99475 155.997 6.30559 156.485 6.88287C157.018 7.46014 157.284 8.25944 157.284 9.19196C157.284 9.85805 157.284 10.6573 156.929 11.3234C156.663 11.7675 156.352 12.0783 155.952 12.3448Z" fill="white"/>
<path d="M35.0805 3.9077C30.0182 3.9077 25.8885 8.03743 25.8885 13.0997V23.535H31.6168V13.4993C31.6168 10.9238 33.7039 8.83673 36.2794 8.83673H42.3186V3.9077H35.0805ZM51.0665 17.407C50.2228 16.6521 49.6455 15.4976 49.6455 13.7658C49.6455 12.0783 50.2228 10.835 51.0665 10.0801C51.8658 9.3696 53.0204 8.88113 54.5302 8.88113H61.0578V18.6504H54.5302C52.976 18.606 51.8214 18.1175 51.0665 17.407ZM53.6864 3.9077C48.269 3.9077 43.8728 7.14931 43.8728 13.7213C43.8728 20.4266 48.269 23.535 53.6864 23.535H66.7861V3.9077H53.6864ZM87.1683 3.9077V12.922C86.7687 16.5633 84.504 17.7179 81.4844 18.606C78.4648 17.7179 76.2001 16.5633 75.8005 12.922V3.9077H70.0721V12.9665C70.0721 12.9665 69.8501 22.2028 81.4844 23.535C93.1187 22.2028 92.8966 12.9665 92.8966 12.9665V3.9077H87.1683ZM102.755 17.2294C101.822 16.3413 101.467 15.0091 101.467 13.7658C101.467 12.3892 101.911 10.9682 102.977 10.0801C103.998 9.19197 105.685 8.88113 107.24 8.88113C108.705 8.88113 110.17 9.19197 111.192 9.94687C112.391 10.835 112.968 12.3004 112.968 13.7658C112.968 15.1423 112.524 16.5189 111.414 17.407C110.392 18.2507 108.749 18.6504 107.195 18.6504C105.552 18.606 103.82 18.2063 102.755 17.2294ZM107.24 3.9077C107.24 3.9077 102.71 3.64126 99.3799 5.77274C97.204 7.14931 95.7386 9.59162 95.7386 13.7213C95.7386 17.8511 97.204 20.249 99.3799 21.67C102.71 23.8014 107.24 23.535 107.24 23.535C107.24 23.535 111.769 23.8014 115.099 21.67C117.275 20.2934 118.741 17.8511 118.741 13.7213C118.741 9.59162 117.275 7.19372 115.099 5.77274C112.391 4.04092 108.927 3.86329 107.684 3.86329C107.417 3.9077 107.24 3.9077 107.24 3.9077ZM5.72833 8.83673H12.256C13.7658 8.83673 14.9203 9.28078 15.7196 10.0357C16.5633 10.7906 17.1406 12.0339 17.1406 13.7213C17.1406 15.4532 16.5633 16.6077 15.7196 17.3626C14.9203 18.0731 13.7658 18.5616 12.256 18.5616H5.72833V8.83673ZM0 0V23.535H13.0997C18.5172 23.535 22.9133 20.4266 22.9133 13.7213C22.9133 7.10491 18.5172 3.9077 13.0997 3.9077H5.72833V0H0Z" fill="white"/>
<path d="M239.169 12.6551H229.311V3.90723H226.824V23.5345H229.311V14.7422H239.169V23.5345H241.7V3.90723H239.169V12.6551Z" fill="white"/>
</svg>
